<?xml version="1.0" encoding="UTF-8"?>
<svg width="111px" height="102px" viewBox="0 0 111 102" version="1.1" xmlns="http://www.w3.org/2000/svg" xmlns:xlink="http://www.w3.org/1999/xlink">
    <!-- Generator: sketchtool 59.1 (101010) - https://sketch.com -->
    <title>B915FFD6-A3E7-488A-AAD1-6E52DD45055C</title>
    <desc>Created with sketchtool.</desc>
    <defs>
        <polygon id="path-1" points="0 101 110.756 101 110.756 0.25 0 0.25"></polygon>
    </defs>
    <g id="Asset-Artboard-Page" stroke="none" stroke-width="1" fill="none" fill-rule="evenodd">
        <g id="icons-/-building-/-apartment-selected">
            <g id="apartment-selected">
                <g id="Group-175">
                    <polygon id="Fill-1" fill="#FFFFFF" points="0.4977 1.3748 0.4977 9.2148 2.2127 9.2148 2.2127 15.0948 4.4177 15.0948 4.4177 101.3748 106.3397 101.3748 106.3397 15.0948 108.4577 15.0948 108.4577 9.2148 110.2587 9.2148 110.2587 1.3748"></polygon>
                    <polygon id="Fill-2" fill="#E6E6E6" points="4.417 17.055 6.377 17.055 6.377 15.095 4.417 15.095"></polygon>
                    <polygon id="Stroke-3" stroke="#E6E6E6" stroke-width="0.75" stroke-linejoin="round" points="4.417 17.055 6.377 17.055 6.377 15.095 4.417 15.095"></polygon>
                    <polygon id="Fill-4" fill="#E6E6E6" points="104.378 17.055 106.417 17.055 106.417 15.095 104.378 15.095"></polygon>
                    <polygon id="Stroke-5" stroke="#E6E6E6" stroke-width="0.75" stroke-linejoin="round" points="104.378 17.055 106.417 17.055 106.417 15.095 104.378 15.095"></polygon>
                    <g id="Group-174" transform="translate(0.000000, 0.750000)">
                        <path d="M41.4946,12.2625 C41.4946,11.2475 40.6726,10.4255 39.6566,10.4255 C38.6416,10.4255 37.8196,11.2475 37.8196,12.2625 L37.8196,14.2225 C37.8196,13.2075 38.6416,12.3855 39.6566,12.3855 C40.6726,12.3855 41.4946,13.2075 41.4946,14.2225 L41.4946,12.2625 Z" id="Fill-6" fill="#E6E6E6"></path>
                        <path d="M41.4946,12.2625 C41.4946,11.2475 40.6726,10.4255 39.6566,10.4255 C38.6416,10.4255 37.8196,11.2475 37.8196,12.2625 L37.8196,14.2225 C37.8196,13.2075 38.6416,12.3855 39.6566,12.3855 C40.6726,12.3855 41.4946,13.2075 41.4946,14.2225 L41.4946,12.2625 Z" id="Stroke-8" stroke="#E6E6E6" stroke-width="0.75" stroke-linejoin="round"></path>
                        <mask id="mask-2" fill="white">
                            <use xlink:href="#path-1"></use>
                        </mask>
                        <g id="Clip-11"></g>
                        <polygon id="Fill-10" fill="#E6E6E6" mask="url(#mask-2)" points="25.774 16.305 29.96 16.305 29.96 14.345 25.774 14.345"></polygon>
                        <polygon id="Stroke-12" stroke="#E6E6E6" stroke-width="0.75" stroke-linejoin="round" mask="url(#mask-2)" points="25.774 16.305 29.96 16.305 29.96 14.345 25.774 14.345"></polygon>
                        <path d="M33.6343,12.2625 C33.6343,11.2475 32.8123,10.4255 31.7963,10.4255 C30.7813,10.4255 29.9593,11.2475 29.9593,12.2625 L29.9593,14.2225 C29.9593,13.2075 30.7813,12.3855 31.7963,12.3855 C32.8123,12.3855 33.6343,13.2075 33.6343,14.2225 L33.6343,12.2625 Z" id="Fill-13" fill="#E6E6E6" mask="url(#mask-2)"></path>
                        <path d="M33.6343,12.2625 C33.6343,11.2475 32.8123,10.4255 31.7963,10.4255 C30.7813,10.4255 29.9593,11.2475 29.9593,12.2625 L29.9593,14.2225 C29.9593,13.2075 30.7813,12.3855 31.7963,12.3855 C32.8123,12.3855 33.6343,13.2075 33.6343,14.2225 L33.6343,12.2625 Z" id="Stroke-14" stroke="#E6E6E6" stroke-width="0.75" stroke-linejoin="round" mask="url(#mask-2)"></path>
                        <polygon id="Fill-15" fill="#E6E6E6" mask="url(#mask-2)" points="33.634 16.305 37.82 16.305 37.82 14.345 33.634 14.345"></polygon>
                        <polygon id="Stroke-16" stroke="#E6E6E6" stroke-width="0.75" stroke-linejoin="round" mask="url(#mask-2)" points="33.634 16.305 37.82 16.305 37.82 14.345 33.634 14.345"></polygon>
                        <path d="M57.2153,12.2625 C57.2153,11.2475 56.3933,10.4255 55.3783,10.4255 C54.3633,10.4255 53.5403,11.2475 53.5403,12.2625 L53.5403,14.2225 C53.5403,13.2075 54.3633,12.3855 55.3783,12.3855 C56.3933,12.3855 57.2153,13.2075 57.2153,14.2225 L57.2153,12.2625 Z" id="Fill-17" fill="#E6E6E6" mask="url(#mask-2)"></path>
                        <path d="M57.2153,12.2625 C57.2153,11.2475 56.3933,10.4255 55.3783,10.4255 C54.3633,10.4255 53.5403,11.2475 53.5403,12.2625 L53.5403,14.2225 C53.5403,13.2075 54.3633,12.3855 55.3783,12.3855 C56.3933,12.3855 57.2153,13.2075 57.2153,14.2225 L57.2153,12.2625 Z" id="Stroke-18" stroke="#E6E6E6" stroke-width="0.75" stroke-linejoin="round" mask="url(#mask-2)"></path>
                        <path d="M49.355,12.2625 C49.355,11.2475 48.533,10.4255 47.518,10.4255 C46.502,10.4255 45.68,11.2475 45.68,12.2625 L45.68,14.2225 C45.68,13.2075 46.502,12.3855 47.518,12.3855 C48.533,12.3855 49.355,13.2075 49.355,14.2225 L49.355,12.2625 Z" id="Fill-19" fill="#E6E6E6" mask="url(#mask-2)"></path>
                        <path d="M49.355,12.2625 C49.355,11.2475 48.533,10.4255 47.518,10.4255 C46.502,10.4255 45.68,11.2475 45.68,12.2625 L45.68,14.2225 C45.68,13.2075 46.502,12.3855 47.518,12.3855 C48.533,12.3855 49.355,13.2075 49.355,14.2225 L49.355,12.2625 Z" id="Stroke-20" stroke="#E6E6E6" stroke-width="0.75" stroke-linejoin="round" mask="url(#mask-2)"></path>
                        <polygon id="Fill-21" fill="#E6E6E6" mask="url(#mask-2)" points="49.355 16.305 53.541 16.305 53.541 14.345 49.355 14.345"></polygon>
                        <polygon id="Stroke-22" stroke="#E6E6E6" stroke-width="0.75" stroke-linejoin="round" mask="url(#mask-2)" points="49.355 16.305 53.541 16.305 53.541 14.345 49.355 14.345"></polygon>
                        <path d="M10.0522,12.2625 C10.0522,11.2475 9.2302,10.4255 8.2152,10.4255 C7.2002,10.4255 6.3772,11.2475 6.3772,12.2625 L6.3772,14.2225 C6.3772,13.2075 7.2002,12.3855 8.2152,12.3855 C9.2302,12.3855 10.0522,13.2075 10.0522,14.2225 L10.0522,12.2625 Z" id="Fill-23" fill="#E6E6E6" mask="url(#mask-2)"></path>
                        <path d="M10.0522,12.2625 C10.0522,11.2475 9.2302,10.4255 8.2152,10.4255 C7.2002,10.4255 6.3772,11.2475 6.3772,12.2625 L6.3772,14.2225 C6.3772,13.2075 7.2002,12.3855 8.2152,12.3855 C9.2302,12.3855 10.0522,13.2075 10.0522,14.2225 L10.0522,12.2625 Z" id="Stroke-24" stroke="#E6E6E6" stroke-width="0.75" stroke-linejoin="round" mask="url(#mask-2)"></path>
                        <polygon id="Fill-25" fill="#E6E6E6" mask="url(#mask-2)" points="10.052 16.305 14.238 16.305 14.238 14.345 10.052 14.345"></polygon>
                        <polygon id="Stroke-26" stroke="#E6E6E6" stroke-width="0.75" stroke-linejoin="round" mask="url(#mask-2)" points="10.052 16.305 14.238 16.305 14.238 14.345 10.052 14.345"></polygon>
                        <path d="M25.7739,12.2625 C25.7739,11.2475 24.9509,10.4255 23.9359,10.4255 C22.9209,10.4255 22.0979,11.2475 22.0979,12.2625 L22.0979,14.2225 C22.0979,13.2075 22.9209,12.3855 23.9359,12.3855 C24.9509,12.3855 25.7739,13.2075 25.7739,14.2225 L25.7739,12.2625 Z" id="Fill-27" fill="#E6E6E6" mask="url(#mask-2)"></path>
                        <path d="M25.7739,12.2625 C25.7739,11.2475 24.9509,10.4255 23.9359,10.4255 C22.9209,10.4255 22.0979,11.2475 22.0979,12.2625 L22.0979,14.2225 C22.0979,13.2075 22.9209,12.3855 23.9359,12.3855 C24.9509,12.3855 25.7739,13.2075 25.7739,14.2225 L25.7739,12.2625 Z" id="Stroke-28" stroke="#E6E6E6" stroke-width="0.75" stroke-linejoin="round" mask="url(#mask-2)"></path>
                        <polygon id="Fill-29" fill="#E6E6E6" mask="url(#mask-2)" points="17.914 16.305 22.099 16.305 22.099 14.345 17.914 14.345"></polygon>
                        <polygon id="Stroke-30" stroke="#E6E6E6" stroke-width="0.75" stroke-linejoin="round" mask="url(#mask-2)" points="17.914 16.305 22.099 16.305 22.099 14.345 17.914 14.345"></polygon>
                        <path d="M17.9136,12.2625 C17.9136,11.2475 17.0906,10.4255 16.0756,10.4255 C15.0606,10.4255 14.2376,11.2475 14.2376,12.2625 L14.2376,14.2225 C14.2376,13.2075 15.0606,12.3855 16.0756,12.3855 C17.0906,12.3855 17.9136,13.2075 17.9136,14.2225 L17.9136,12.2625 Z" id="Fill-31" fill="#E6E6E6" mask="url(#mask-2)"></path>
                        <path d="M17.9136,12.2625 C17.9136,11.2475 17.0906,10.4255 16.0756,10.4255 C15.0606,10.4255 14.2376,11.2475 14.2376,12.2625 L14.2376,14.2225 C14.2376,13.2075 15.0606,12.3855 16.0756,12.3855 C17.0906,12.3855 17.9136,13.2075 17.9136,14.2225 L17.9136,12.2625 Z" id="Stroke-32" stroke="#E6E6E6" stroke-width="0.75" stroke-linejoin="round" mask="url(#mask-2)"></path>
                        <polygon id="Fill-33" fill="#E6E6E6" mask="url(#mask-2)" points="41.495 16.305 45.681 16.305 45.681 14.345 41.495 14.345"></polygon>
                        <polygon id="Stroke-34" stroke="#E6E6E6" stroke-width="0.75" stroke-linejoin="round" mask="url(#mask-2)" points="41.495 16.305 45.681 16.305 45.681 14.345 41.495 14.345"></polygon>
                        <path d="M96.5181,12.2625 C96.5181,11.2475 95.6961,10.4255 94.6811,10.4255 C93.6651,10.4255 92.8431,11.2475 92.8431,12.2625 L92.8431,14.2225 C92.8431,13.2075 93.6651,12.3855 94.6811,12.3855 C95.6961,12.3855 96.5181,13.2075 96.5181,14.2225 L96.5181,12.2625 Z" id="Fill-35" fill="#E6E6E6" mask="url(#mask-2)"></path>
                        <path d="M96.5181,12.2625 C96.5181,11.2475 95.6961,10.4255 94.6811,10.4255 C93.6651,10.4255 92.8431,11.2475 92.8431,12.2625 L92.8431,14.2225 C92.8431,13.2075 93.6651,12.3855 94.6811,12.3855 C95.6961,12.3855 96.5181,13.2075 96.5181,14.2225 L96.5181,12.2625 Z" id="Stroke-36" stroke="#E6E6E6" stroke-width="0.75" stroke-linejoin="round" mask="url(#mask-2)"></path>
                        <path d="M88.6577,12.2625 C88.6577,11.2475 87.8357,10.4255 86.8197,10.4255 C85.8047,10.4255 84.9827,11.2475 84.9827,12.2625 L84.9827,14.2225 C84.9827,13.2075 85.8047,12.3855 86.8197,12.3855 C87.8357,12.3855 88.6577,13.2075 88.6577,14.2225 L88.6577,12.2625 Z" id="Fill-37" fill="#E6E6E6" mask="url(#mask-2)"></path>
                        <path d="M88.6577,12.2625 C88.6577,11.2475 87.8357,10.4255 86.8197,10.4255 C85.8047,10.4255 84.9827,11.2475 84.9827,12.2625 L84.9827,14.2225 C84.9827,13.2075 85.8047,12.3855 86.8197,12.3855 C87.8357,12.3855 88.6577,13.2075 88.6577,14.2225 L88.6577,12.2625 Z" id="Stroke-38" stroke="#E6E6E6" stroke-width="0.75" stroke-linejoin="round" mask="url(#mask-2)"></path>
                        <polygon id="Fill-39" fill="#E6E6E6" mask="url(#mask-2)" points="96.518 16.305 100.704 16.305 100.704 14.345 96.518 14.345"></polygon>
                        <polygon id="Stroke-40" stroke="#E6E6E6" stroke-width="0.75" stroke-linejoin="round" mask="url(#mask-2)" points="96.518 16.305 100.704 16.305 100.704 14.345 96.518 14.345"></polygon>
                        <polygon id="Fill-41" fill="#E6E6E6" mask="url(#mask-2)" points="88.658 16.305 92.844 16.305 92.844 14.345 88.658 14.345"></polygon>
                        <polygon id="Stroke-42" stroke="#E6E6E6" stroke-width="0.75" stroke-linejoin="round" mask="url(#mask-2)" points="88.658 16.305 92.844 16.305 92.844 14.345 88.658 14.345"></polygon>
                        <path d="M104.3784,12.2625 C104.3784,11.2475 103.5564,10.4255 102.5414,10.4255 C101.5264,10.4255 100.7034,11.2475 100.7034,12.2625 L100.7034,14.2225 C100.7034,13.2075 101.5264,12.3855 102.5414,12.3855 C103.5564,12.3855 104.3784,13.2075 104.3784,14.2225 L104.3784,12.2625 Z" id="Fill-43" fill="#E6E6E6" mask="url(#mask-2)"></path>
                        <path d="M104.3784,12.2625 C104.3784,11.2475 103.5564,10.4255 102.5414,10.4255 C101.5264,10.4255 100.7034,11.2475 100.7034,12.2625 L100.7034,14.2225 C100.7034,13.2075 101.5264,12.3855 102.5414,12.3855 C103.5564,12.3855 104.3784,13.2075 104.3784,14.2225 L104.3784,12.2625 Z" id="Stroke-44" stroke="#E6E6E6" stroke-width="0.75" stroke-linejoin="round" mask="url(#mask-2)"></path>
                        <polygon id="Fill-45" fill="#E6E6E6" mask="url(#mask-2)" points="57.215 16.305 61.401 16.305 61.401 14.345 57.215 14.345"></polygon>
                        <polygon id="Stroke-46" stroke="#E6E6E6" stroke-width="0.75" stroke-linejoin="round" mask="url(#mask-2)" points="57.215 16.305 61.401 16.305 61.401 14.345 57.215 14.345"></polygon>
                        <polygon id="Fill-47" fill="#E6E6E6" mask="url(#mask-2)" points="65.077 16.305 69.262 16.305 69.262 14.345 65.077 14.345"></polygon>
                        <polygon id="Stroke-48" stroke="#E6E6E6" stroke-width="0.75" stroke-linejoin="round" mask="url(#mask-2)" points="65.077 16.305 69.262 16.305 69.262 14.345 65.077 14.345"></polygon>
                        <path d="M72.937,12.2625 C72.937,11.2475 72.114,10.4255 71.099,10.4255 C70.084,10.4255 69.261,11.2475 69.261,12.2625 L69.261,14.2225 C69.261,13.2075 70.084,12.3855 71.099,12.3855 C72.114,12.3855 72.937,13.2075 72.937,14.2225 L72.937,12.2625 Z" id="Fill-49" fill="#E6E6E6" mask="url(#mask-2)"></path>
                        <path d="M72.937,12.2625 C72.937,11.2475 72.114,10.4255 71.099,10.4255 C70.084,10.4255 69.261,11.2475 69.261,12.2625 L69.261,14.2225 C69.261,13.2075 70.084,12.3855 71.099,12.3855 C72.114,12.3855 72.937,13.2075 72.937,14.2225 L72.937,12.2625 Z" id="Stroke-50" stroke="#E6E6E6" stroke-width="0.75" stroke-linejoin="round" mask="url(#mask-2)"></path>
                        <polygon id="Fill-51" fill="#E6E6E6" mask="url(#mask-2)" points="80.797 16.305 84.983 16.305 84.983 14.345 80.797 14.345"></polygon>
                        <polygon id="Stroke-52" stroke="#E6E6E6" stroke-width="0.75" stroke-linejoin="round" mask="url(#mask-2)" points="80.797 16.305 84.983 16.305 84.983 14.345 80.797 14.345"></polygon>
                        <path d="M65.0766,12.2625 C65.0766,11.2475 64.2536,10.4255 63.2386,10.4255 C62.2236,10.4255 61.4006,11.2475 61.4006,12.2625 L61.4006,14.2225 C61.4006,13.2075 62.2236,12.3855 63.2386,12.3855 C64.2536,12.3855 65.0766,13.2075 65.0766,14.2225 L65.0766,12.2625 Z" id="Fill-53" fill="#E6E6E6" mask="url(#mask-2)"></path>
                        <path d="M65.0766,12.2625 C65.0766,11.2475 64.2536,10.4255 63.2386,10.4255 C62.2236,10.4255 61.4006,11.2475 61.4006,12.2625 L61.4006,14.2225 C61.4006,13.2075 62.2236,12.3855 63.2386,12.3855 C64.2536,12.3855 65.0766,13.2075 65.0766,14.2225 L65.0766,12.2625 Z" id="Stroke-54" stroke="#E6E6E6" stroke-width="0.75" stroke-linejoin="round" mask="url(#mask-2)"></path>
                        <polygon id="Fill-55" fill="#E6E6E6" mask="url(#mask-2)" points="72.937 16.305 77.123 16.305 77.123 14.345 72.937 14.345"></polygon>
                        <polygon id="Stroke-56" stroke="#E6E6E6" stroke-width="0.75" stroke-linejoin="round" mask="url(#mask-2)" points="72.937 16.305 77.123 16.305 77.123 14.345 72.937 14.345"></polygon>
                        <path d="M80.7973,12.2625 C80.7973,11.2475 79.9753,10.4255 78.9593,10.4255 C77.9443,10.4255 77.1223,11.2475 77.1223,12.2625 L77.1223,14.2225 C77.1223,13.2075 77.9443,12.3855 78.9593,12.3855 C79.9753,12.3855 80.7973,13.2075 80.7973,14.2225 L80.7973,12.2625 Z" id="Fill-57" fill="#E6E6E6" mask="url(#mask-2)"></path>
                        <path d="M80.7973,12.2625 C80.7973,11.2475 79.9753,10.4255 78.9593,10.4255 C77.9443,10.4255 77.1223,11.2475 77.1223,12.2625 L77.1223,14.2225 C77.1223,13.2075 77.9443,12.3855 78.9593,12.3855 C79.9753,12.3855 80.7973,13.2075 80.7973,14.2225 L80.7973,12.2625 Z" id="Stroke-58" stroke="#E6E6E6" stroke-width="0.75" stroke-linejoin="round" mask="url(#mask-2)"></path>
                        <path d="M55.3784,22.2 C52.1504,22.2 49.5344,24.804 49.5104,28.025 L51.5084,28.003 L51.5084,28.07 C51.5084,25.936 53.2444,24.2 55.3784,24.2 C57.5124,24.2 59.2484,25.936 59.2484,28.07 L59.2484,28.004 L61.2464,28.026 C61.2224,24.804 58.6054,22.2 55.3784,22.2" id="Fill-59" fill="#E6E6E6" mask="url(#mask-2)"></path>
                        <path d="M55.3784,22.2 C52.1504,22.2 49.5344,24.804 49.5104,28.025 L51.5084,28.003 L51.5084,28.07 C51.5084,25.936 53.2444,24.2 55.3784,24.2 C57.5124,24.2 59.2484,25.936 59.2484,28.07 L59.2484,28.004 L61.2464,28.026 C61.2224,24.804 58.6054,22.2 55.3784,22.2 Z" id="Stroke-60" stroke="#E6E6E6" stroke-width="0.75" stroke-linejoin="round" mask="url(#mask-2)"></path>
                        <path d="M55.3784,43.7815 C52.1504,43.7815 49.5344,46.3855 49.5104,49.6065 L51.5084,49.5845 L51.5084,49.6525 C51.5084,47.5185 53.2444,45.7815 55.3784,45.7815 C57.5124,45.7815 59.2484,47.5185 59.2484,49.6525 L59.2484,49.5855 L61.2464,49.6075 C61.2224,46.3855 58.6054,43.7815 55.3784,43.7815" id="Fill-61" fill="#E6E6E6" mask="url(#mask-2)"></path>
                        <path d="M55.3784,43.7815 C52.1504,43.7815 49.5344,46.3855 49.5104,49.6065 L51.5084,49.5845 L51.5084,49.6525 C51.5084,47.5185 53.2444,45.7815 55.3784,45.7815 C57.5124,45.7815 59.2484,47.5185 59.2484,49.6525 L59.2484,49.5855 L61.2464,49.6075 C61.2224,46.3855 58.6054,43.7815 55.3784,43.7815 Z" id="Stroke-62" stroke="#E6E6E6" stroke-width="0.75" stroke-linejoin="round" mask="url(#mask-2)"></path>
                        <polygon id="Fill-63" fill="#E6E6E6" mask="url(#mask-2)" points="16.208 39.773 27.908 39.773 27.908 37.808 16.208 37.808"></polygon>
                        <polygon id="Stroke-64" stroke="#E6E6E6" stroke-width="0.75" stroke-linejoin="round" mask="url(#mask-2)" points="16.208 39.773 27.908 39.773 27.908 37.808 16.208 37.808"></polygon>
                        <polygon id="Fill-65" fill="#E6E6E6" mask="url(#mask-2)" points="31.888 39.773 43.588 39.773 43.588 37.808 31.888 37.808"></polygon>
                        <polygon id="Stroke-66" stroke="#E6E6E6" stroke-width="0.75" stroke-linejoin="round" mask="url(#mask-2)" points="31.888 39.773 43.588 39.773 43.588 37.808 31.888 37.808"></polygon>
                        <polygon id="Fill-67" fill="#E6E6E6" mask="url(#mask-2)" points="82.849 39.773 94.548 39.773 94.548 37.808 82.849 37.808"></polygon>
                        <polygon id="Stroke-68" stroke="#E6E6E6" stroke-width="0.75" stroke-linejoin="round" mask="url(#mask-2)" points="82.849 39.773 94.548 39.773 94.548 37.808 82.849 37.808"></polygon>
                        <polygon id="Fill-69" fill="#E6E6E6" mask="url(#mask-2)" points="67.168 39.773 78.868 39.773 78.868 37.808 67.168 37.808"></polygon>
                        <polygon id="Stroke-70" stroke="#E6E6E6" stroke-width="0.75" stroke-linejoin="round" mask="url(#mask-2)" points="67.168 39.773 78.868 39.773 78.868 37.808 67.168 37.808"></polygon>
                        <polygon id="Fill-71" fill="#E6E6E6" mask="url(#mask-2)" points="47.574 39.773 63.183 39.773 63.183 37.808 47.574 37.808"></polygon>
                        <polygon id="Stroke-72" stroke="#E6E6E6" stroke-width="0.75" stroke-linejoin="round" mask="url(#mask-2)" points="47.574 39.773 63.183 39.773 63.183 37.808 47.574 37.808"></polygon>
                        <polygon id="Fill-73" fill="#E6E6E6" mask="url(#mask-2)" points="16.208 61.355 27.908 61.355 27.908 59.39 16.208 59.39"></polygon>
                        <polygon id="Stroke-74" stroke="#E6E6E6" stroke-width="0.75" stroke-linejoin="round" mask="url(#mask-2)" points="16.208 61.355 27.908 61.355 27.908 59.39 16.208 59.39"></polygon>
                        <polygon id="Fill-75" fill="#E6E6E6" mask="url(#mask-2)" points="31.888 61.355 43.588 61.355 43.588 59.39 31.888 59.39"></polygon>
                        <polygon id="Stroke-76" stroke="#E6E6E6" stroke-width="0.75" stroke-linejoin="round" mask="url(#mask-2)" points="31.888 61.355 43.588 61.355 43.588 59.39 31.888 59.39"></polygon>
                        <polygon id="Fill-77" fill="#E6E6E6" mask="url(#mask-2)" points="82.849 61.355 94.548 61.355 94.548 59.39 82.849 59.39"></polygon>
                        <polygon id="Stroke-78" stroke="#E6E6E6" stroke-width="0.75" stroke-linejoin="round" mask="url(#mask-2)" points="82.849 61.355 94.548 61.355 94.548 59.39 82.849 59.39"></polygon>
                        <polygon id="Fill-79" fill="#E6E6E6" mask="url(#mask-2)" points="67.168 61.355 78.868 61.355 78.868 59.39 67.168 59.39"></polygon>
                        <polygon id="Stroke-80" stroke="#E6E6E6" stroke-width="0.75" stroke-linejoin="round" mask="url(#mask-2)" points="67.168 61.355 78.868 61.355 78.868 59.39 67.168 59.39"></polygon>
                        <polygon id="Fill-81" fill="#E6E6E6" mask="url(#mask-2)" points="47.574 61.355 63.183 61.355 63.183 59.39 47.574 59.39"></polygon>
                        <polygon id="Stroke-82" stroke="#E6E6E6" stroke-width="0.75" stroke-linejoin="round" mask="url(#mask-2)" points="47.574 61.355 63.183 61.355 63.183 59.39 47.574 59.39"></polygon>
                        <polygon id="Fill-83" fill="#E6E6E6" mask="url(#mask-2)" points="16.208 82.937 27.908 82.937 27.908 80.972 16.208 80.972"></polygon>
                        <polygon id="Stroke-84" stroke="#E6E6E6" stroke-width="0.75" stroke-linejoin="round" mask="url(#mask-2)" points="16.208 82.937 27.908 82.937 27.908 80.972 16.208 80.972"></polygon>
                        <polygon id="Fill-85" fill="#E6E6E6" mask="url(#mask-2)" points="31.888 82.937 43.588 82.937 43.588 80.972 31.888 80.972"></polygon>
                        <polygon id="Stroke-86" stroke="#E6E6E6" stroke-width="0.75" stroke-linejoin="round" mask="url(#mask-2)" points="31.888 82.937 43.588 82.937 43.588 80.972 31.888 80.972"></polygon>
                        <polygon id="Fill-87" fill="#E6E6E6" mask="url(#mask-2)" points="82.849 82.937 94.548 82.937 94.548 80.972 82.849 80.972"></polygon>
                        <polygon id="Stroke-88" stroke="#E6E6E6" stroke-width="0.75" stroke-linejoin="round" mask="url(#mask-2)" points="82.849 82.937 94.548 82.937 94.548 80.972 82.849 80.972"></polygon>
                        <polygon id="Fill-89" fill="#E6E6E6" mask="url(#mask-2)" points="67.168 82.937 78.868 82.937 78.868 80.972 67.168 80.972"></polygon>
                        <polygon id="Stroke-90" stroke="#E6E6E6" stroke-width="0.75" stroke-linejoin="round" mask="url(#mask-2)" points="67.168 82.937 78.868 82.937 78.868 80.972 67.168 80.972"></polygon>
                        <polygon id="Fill-91" fill="#E6E6E6" mask="url(#mask-2)" points="61.249 100.625 106.34 100.625 106.34 84.904 61.249 84.904"></polygon>
                        <polygon id="Stroke-92" stroke="#7A7A7A" stroke-width="0.75" stroke-linejoin="round" mask="url(#mask-2)" points="61.249 100.625 106.34 100.625 106.34 84.904 61.249 84.904"></polygon>
                        <polygon id="Fill-93" fill="#E6E6E6" mask="url(#mask-2)" points="4.417 100.625 49.508 100.625 49.508 84.904 4.417 84.904"></polygon>
                        <polygon id="Stroke-94" stroke="#7A7A7A" stroke-width="0.75" stroke-linejoin="round" mask="url(#mask-2)" points="4.417 100.625 49.508 100.625 49.508 84.904 4.417 84.904"></polygon>
                        <path d="M104.3784,14.345 L104.3784,12.262 C104.3784,11.248 103.5564,10.425 102.5414,10.425 C101.5264,10.425 100.7034,11.248 100.7034,12.262 L100.7034,14.345 L96.5184,14.345 L96.5184,12.262 C96.5184,11.248 95.6954,10.425 94.6814,10.425 C93.6664,10.425 92.8434,11.248 92.8434,12.262 L92.8434,14.345 L88.6574,14.345 L88.6574,12.262 C88.6574,11.248 87.8354,10.425 86.8204,10.425 C85.8054,10.425 84.9824,11.248 84.9824,12.262 L84.9824,14.345 L80.7974,14.345 L80.7974,12.262 C80.7974,11.248 79.9754,10.425 78.9594,10.425 C77.9444,10.425 77.1224,11.248 77.1224,12.262 L77.1224,14.345 L72.9374,14.345 L72.9374,12.262 C72.9374,11.248 72.1134,10.425 71.0994,10.425 C70.0844,10.425 69.2624,11.248 69.2624,12.262 L69.2624,14.345 L65.0764,14.345 L65.0764,12.262 C65.0764,11.248 64.2534,10.425 63.2384,10.425 C62.2244,10.425 61.4004,11.248 61.4004,12.262 L61.4004,14.345 L57.2154,14.345 L57.2154,12.262 C57.2154,11.248 56.3934,10.425 55.3784,10.425 C54.3634,10.425 53.5404,11.248 53.5404,12.262 L53.5404,14.345 L49.3554,14.345 L49.3554,12.262 C49.3554,11.248 48.5324,10.425 47.5184,10.425 C46.5024,10.425 45.6804,11.248 45.6804,12.262 L45.6804,14.345 L41.4944,14.345 L41.4944,12.262 C41.4944,11.248 40.6724,10.425 39.6564,10.425 C38.6424,10.425 37.8194,11.248 37.8194,12.262 L37.8194,14.345 L33.6344,14.345 L33.6344,12.262 C33.6344,11.248 32.8124,10.425 31.7964,10.425 C30.7814,10.425 29.9594,11.248 29.9594,12.262 L29.9594,14.345 L25.7744,14.345 L25.7744,12.262 C25.7744,11.248 24.9504,10.425 23.9364,10.425 C22.9214,10.425 22.0984,11.248 22.0984,12.262 L22.0984,14.345 L17.9134,14.345 L17.9134,12.262 C17.9134,11.248 17.0904,10.425 16.0754,10.425 C15.0614,10.425 14.2374,11.248 14.2374,12.262 L14.2374,14.345 L10.0524,14.345 L10.0524,12.262 C10.0524,11.248 9.2304,10.425 8.2154,10.425 C7.2004,10.425 6.3774,11.248 6.3774,12.262 L6.3774,14.345 L4.4174,14.345 L4.4174,100.625 L106.3394,100.625 L106.3394,14.345 L104.3784,14.345 Z" id="Stroke-95" stroke="#7A7A7A" stroke-width="0.75" stroke-linejoin="round" mask="url(#mask-2)"></path>
                        <polygon id="Stroke-96" stroke="#7A7A7A" stroke-width="0.75" stroke-linejoin="round" mask="url(#mask-2)" points="0.497 8.465 110.259 8.465 110.259 0.625 0.497 0.625"></polygon>
                        <polygon id="Fill-97" fill="#E6E6E6" mask="url(#mask-2)" points="2.213 9.827 108.458 9.827 108.458 8.465 2.213 8.465"></polygon>
                        <polygon id="Stroke-98" stroke="#E6E6E6" stroke-width="0.75" stroke-linejoin="round" mask="url(#mask-2)" points="2.213 9.827 108.458 9.827 108.458 8.465 2.213 8.465"></polygon>
                        <path d="M2.2124,8.4651 L2.2124,14.3451 L6.3774,14.3451 L6.3774,12.2621 C6.3774,11.2481 7.2004,10.4251 8.2154,10.4251 C9.2304,10.4251 10.0524,11.2481 10.0524,12.2621 L10.0524,14.3451 L14.2374,14.3451 L14.2374,12.2621 C14.2374,11.2481 15.0614,10.4251 16.0754,10.4251 C17.0904,10.4251 17.9134,11.2481 17.9134,12.2621 L17.9134,14.3451 L22.0984,14.3451 L22.0984,12.2621 C22.0984,11.2481 22.9214,10.4251 23.9364,10.4251 C24.9504,10.4251 25.7744,11.2481 25.7744,12.2621 L25.7744,14.3451 L29.9594,14.3451 L29.9594,12.2621 C29.9594,11.2481 30.7814,10.4251 31.7964,10.4251 C32.8124,10.4251 33.6344,11.2481 33.6344,12.2621 L33.6344,14.3451 L37.8194,14.3451 L37.8194,12.2621 C37.8194,11.2481 38.6424,10.4251 39.6564,10.4251 C40.6724,10.4251 41.4944,11.2481 41.4944,12.2621 L41.4944,14.3451 L45.6804,14.3451 L45.6804,12.2621 C45.6804,11.2481 46.5024,10.4251 47.5184,10.4251 C48.5324,10.4251 49.3554,11.2481 49.3554,12.2621 L49.3554,14.3451 L53.5404,14.3451 L53.5404,12.2621 C53.5404,11.2481 54.3634,10.4251 55.3784,10.4251 C56.3934,10.4251 57.2154,11.2481 57.2154,12.2621 L57.2154,14.3451 L61.4004,14.3451 L61.4004,12.2621 C61.4004,11.2481 62.2244,10.4251 63.2384,10.4251 C64.2534,10.4251 65.0764,11.2481 65.0764,12.2621 L65.0764,14.3451 L69.2624,14.3451 L69.2624,12.2621 C69.2624,11.2481 70.0844,10.4251 71.0994,10.4251 C72.1134,10.4251 72.9374,11.2481 72.9374,12.2621 L72.9374,14.3451 L77.1224,14.3451 L77.1224,12.2621 C77.1224,11.2481 77.9444,10.4251 78.9594,10.4251 C79.9754,10.4251 80.7974,11.2481 80.7974,12.2621 L80.7974,14.3451 L84.9834,14.3451 L84.9834,12.2621 C84.9834,11.2481 85.8054,10.4251 86.8204,10.4251 C87.8354,10.4251 88.6574,11.2481 88.6574,12.2621 L88.6574,14.3451 L92.8434,14.3451 L92.8434,12.2621 C92.8434,11.2481 93.6664,10.4251 94.6814,10.4251 C95.6954,10.4251 96.5184,11.2481 96.5184,12.2621 L96.5184,14.3451 L100.7034,14.3451 L100.7034,12.2621 C100.7034,11.2481 101.5264,10.4251 102.5414,10.4251 C103.5564,10.4251 104.3784,11.2481 104.3784,12.2621 L104.3784,14.3451 L108.4574,14.3451 L108.4574,8.4651 L2.2124,8.4651 Z" id="Stroke-99" stroke="#7A7A7A" stroke-width="0.75" stroke-linejoin="round" mask="url(#mask-2)"></path>
                        <polygon id="Stroke-100" stroke="#7A7A7A" stroke-width="0.75" stroke-linejoin="round" mask="url(#mask-2)" points="0.375 100.625 110.381 100.625 110.381 92.765 0.375 92.765"></polygon>
                        <line x1="67.1401" y1="100.6248" x2="67.1401" y2="92.7648" id="Stroke-101" stroke="#7A7A7A" stroke-width="0.75" stroke-linejoin="round" mask="url(#mask-2)"></line>
                        <line x1="71.0591" y1="100.6248" x2="71.0591" y2="92.7648" id="Stroke-102" stroke="#7A7A7A" stroke-width="0.75" stroke-linejoin="round" mask="url(#mask-2)"></line>
                        <line x1="74.978" y1="100.6248" x2="74.978" y2="92.7648" id="Stroke-103" stroke="#7A7A7A" stroke-width="0.75" stroke-linejoin="round" mask="url(#mask-2)"></line>
                        <line x1="78.897" y1="100.6248" x2="78.897" y2="92.7648" id="Stroke-104" stroke="#7A7A7A" stroke-width="0.75" stroke-linejoin="round" mask="url(#mask-2)"></line>
                        <line x1="82.8159" y1="100.6248" x2="82.8159" y2="92.7648" id="Stroke-105" stroke="#7A7A7A" stroke-width="0.75" stroke-linejoin="round" mask="url(#mask-2)"></line>
                        <line x1="86.7348" y1="100.6248" x2="86.7348" y2="92.7648" id="Stroke-106" stroke="#7A7A7A" stroke-width="0.75" stroke-linejoin="round" mask="url(#mask-2)"></line>
                        <line x1="90.6538" y1="100.6248" x2="90.6538" y2="92.7648" id="Stroke-107" stroke="#7A7A7A" stroke-width="0.75" stroke-linejoin="round" mask="url(#mask-2)"></line>
                        <line x1="94.5737" y1="100.6248" x2="94.5737" y2="92.7648" id="Stroke-108" stroke="#7A7A7A" stroke-width="0.75" stroke-linejoin="round" mask="url(#mask-2)"></line>
                        <line x1="98.4927" y1="100.6248" x2="98.4927" y2="92.7648" id="Stroke-109" stroke="#7A7A7A" stroke-width="0.75" stroke-linejoin="round" mask="url(#mask-2)"></line>
                        <line x1="102.4116" y1="100.6248" x2="102.4116" y2="92.7648" id="Stroke-110" stroke="#7A7A7A" stroke-width="0.75" stroke-linejoin="round" mask="url(#mask-2)"></line>
                        <line x1="43.6167" y1="100.6248" x2="43.6167" y2="92.7648" id="Stroke-111" stroke="#7A7A7A" stroke-width="0.75" stroke-linejoin="round" mask="url(#mask-2)"></line>
                        <line x1="39.6977" y1="100.6248" x2="39.6977" y2="92.7648" id="Stroke-112" stroke="#7A7A7A" stroke-width="0.75" stroke-linejoin="round" mask="url(#mask-2)"></line>
                        <line x1="35.7788" y1="100.6248" x2="35.7788" y2="92.7648" id="Stroke-113" stroke="#7A7A7A" stroke-width="0.75" stroke-linejoin="round" mask="url(#mask-2)"></line>
                        <line x1="31.8598" y1="100.6248" x2="31.8598" y2="92.7648" id="Stroke-114" stroke="#7A7A7A" stroke-width="0.75" stroke-linejoin="round" mask="url(#mask-2)"></line>
                        <line x1="27.9409" y1="100.6248" x2="27.9409" y2="92.7648" id="Stroke-115" stroke="#7A7A7A" stroke-width="0.75" stroke-linejoin="round" mask="url(#mask-2)"></line>
                        <line x1="24.021" y1="100.6248" x2="24.021" y2="92.7648" id="Stroke-116" stroke="#7A7A7A" stroke-width="0.75" stroke-linejoin="round" mask="url(#mask-2)"></line>
                        <line x1="20.102" y1="100.6248" x2="20.102" y2="92.7648" id="Stroke-117" stroke="#7A7A7A" stroke-width="0.75" stroke-linejoin="round" mask="url(#mask-2)"></line>
                        <line x1="16.1831" y1="100.6248" x2="16.1831" y2="92.7648" id="Stroke-118" stroke="#7A7A7A" stroke-width="0.75" stroke-linejoin="round" mask="url(#mask-2)"></line>
                        <line x1="12.2641" y1="100.6248" x2="12.2641" y2="92.7648" id="Stroke-119" stroke="#7A7A7A" stroke-width="0.75" stroke-linejoin="round" mask="url(#mask-2)"></line>
                        <line x1="8.3452" y1="100.6248" x2="8.3452" y2="92.7648" id="Stroke-120" stroke="#7A7A7A" stroke-width="0.75" stroke-linejoin="round" mask="url(#mask-2)"></line>
                        <polygon id="Fill-121" fill="#FFDF2A" mask="url(#mask-2)" points="18.157 35.843 25.958 35.843 25.958 24.203 18.157 24.203"></polygon>
                        <polygon id="Stroke-122" stroke="#7A7A7A" stroke-width="0.75" stroke-linejoin="round" mask="url(#mask-2)" points="18.157 35.843 25.958 35.843 25.958 24.203 18.157 24.203"></polygon>
                        <polygon id="Stroke-123" stroke="#7A7A7A" stroke-width="0.75" stroke-linejoin="round" mask="url(#mask-2)" points="16.208 37.808 27.908 37.808 27.908 35.843 16.208 35.843"></polygon>
                        <polygon id="Stroke-124" stroke="#7A7A7A" stroke-width="0.75" stroke-linejoin="round" mask="url(#mask-2)" points="33.837 35.843 41.638 35.843 41.638 24.203 33.837 24.203"></polygon>
                        <polygon id="Stroke-125" stroke="#7A7A7A" stroke-width="0.75" stroke-linejoin="round" mask="url(#mask-2)" points="31.888 37.808 43.588 37.808 43.588 35.843 31.888 35.843"></polygon>
                        <polygon id="Stroke-126" stroke="#7A7A7A" stroke-width="0.75" stroke-linejoin="round" mask="url(#mask-2)" points="84.798 35.843 92.599 35.843 92.599 24.203 84.798 24.203"></polygon>
                        <polygon id="Stroke-127" stroke="#7A7A7A" stroke-width="0.75" stroke-linejoin="round" mask="url(#mask-2)" points="82.849 37.808 94.548 37.808 94.548 35.843 82.849 35.843"></polygon>
                        <polygon id="Stroke-128" stroke="#7A7A7A" stroke-width="0.75" stroke-linejoin="round" mask="url(#mask-2)" points="69.118 35.843 76.919 35.843 76.919 24.203 69.118 24.203"></polygon>
                        <polygon id="Stroke-129" stroke="#7A7A7A" stroke-width="0.75" stroke-linejoin="round" mask="url(#mask-2)" points="67.168 37.808 78.868 37.808 78.868 35.843 67.168 35.843"></polygon>
                        <polygon id="Stroke-130" stroke="#7A7A7A" stroke-width="0.75" stroke-linejoin="round" mask="url(#mask-2)" points="47.574 37.808 63.183 37.808 63.183 35.843 47.574 35.843"></polygon>
                        <path d="M55.3784,22.2 C52.1364,22.2 49.5084,24.828 49.5084,28.07 L49.5084,35.843 L61.2484,35.843 L61.2484,28.07 C61.2484,24.828 58.6204,22.2 55.3784,22.2" id="Fill-131" fill="#FFDF2A" mask="url(#mask-2)"></path>
                        <path d="M55.3784,22.2 C52.1364,22.2 49.5084,24.828 49.5084,28.07 L49.5084,35.843 L61.2484,35.843 L61.2484,28.07 C61.2484,24.828 58.6204,22.2 55.3784,22.2 Z" id="Stroke-132" stroke="#7A7A7A" stroke-width="0.75" stroke-linejoin="round" mask="url(#mask-2)"></path>
                        <polygon id="Stroke-133" stroke="#7A7A7A" stroke-width="0.75" stroke-linejoin="round" mask="url(#mask-2)" points="18.157 57.425 25.958 57.425 25.958 45.785 18.157 45.785"></polygon>
                        <polygon id="Stroke-134" stroke="#7A7A7A" stroke-width="0.75" stroke-linejoin="round" mask="url(#mask-2)" points="16.208 59.39 27.908 59.39 27.908 57.425 16.208 57.425"></polygon>
                        <polygon id="Fill-135" fill="#FFDF2A" mask="url(#mask-2)" points="33.837 57.425 41.638 57.425 41.638 45.785 33.837 45.785"></polygon>
                        <polygon id="Stroke-136" stroke="#7A7A7A" stroke-width="0.75" stroke-linejoin="round" mask="url(#mask-2)" points="33.837 57.425 41.638 57.425 41.638 45.785 33.837 45.785"></polygon>
                        <polygon id="Stroke-137" stroke="#7A7A7A" stroke-width="0.75" stroke-linejoin="round" mask="url(#mask-2)" points="31.888 59.39 43.588 59.39 43.588 57.425 31.888 57.425"></polygon>
                        <polygon id="Fill-138" fill="#FFDF2A" mask="url(#mask-2)" points="84.798 57.425 92.599 57.425 92.599 45.785 84.798 45.785"></polygon>
                        <polygon id="Stroke-139" stroke="#7A7A7A" stroke-width="0.75" stroke-linejoin="round" mask="url(#mask-2)" points="84.798 57.425 92.599 57.425 92.599 45.785 84.798 45.785"></polygon>
                        <polygon id="Stroke-140" stroke="#7A7A7A" stroke-width="0.75" stroke-linejoin="round" mask="url(#mask-2)" points="82.849 59.39 94.548 59.39 94.548 57.425 82.849 57.425"></polygon>
                        <polygon id="Stroke-141" stroke="#7A7A7A" stroke-width="0.75" stroke-linejoin="round" mask="url(#mask-2)" points="69.118 57.425 76.919 57.425 76.919 45.785 69.118 45.785"></polygon>
                        <polygon id="Stroke-142" stroke="#7A7A7A" stroke-width="0.75" stroke-linejoin="round" mask="url(#mask-2)" points="67.168 59.39 78.868 59.39 78.868 57.425 67.168 57.425"></polygon>
                        <polygon id="Stroke-143" stroke="#7A7A7A" stroke-width="0.75" stroke-linejoin="round" mask="url(#mask-2)" points="47.574 59.39 63.183 59.39 63.183 57.425 47.574 57.425"></polygon>
                        <path d="M55.3784,43.7815 C52.1364,43.7815 49.5084,46.4095 49.5084,49.6525 L49.5084,57.4245 L61.2484,57.4245 L61.2484,49.6525 C61.2484,46.4095 58.6204,43.7815 55.3784,43.7815" id="Fill-144" fill="#FFDF2A" mask="url(#mask-2)"></path>
                        <path d="M55.3784,43.7815 C52.1364,43.7815 49.5084,46.4095 49.5084,49.6525 L49.5084,57.4245 L61.2484,57.4245 L61.2484,49.6525 C61.2484,46.4095 58.6204,43.7815 55.3784,43.7815 Z" id="Stroke-145" stroke="#7A7A7A" stroke-width="0.75" stroke-linejoin="round" mask="url(#mask-2)"></path>
                        <polygon id="Stroke-146" stroke="#7A7A7A" stroke-width="0.75" stroke-linejoin="round" mask="url(#mask-2)" points="18.157 79.006 25.958 79.006 25.958 67.366 18.157 67.366"></polygon>
                        <polygon id="Stroke-147" stroke="#7A7A7A" stroke-width="0.75" stroke-linejoin="round" mask="url(#mask-2)" points="16.208 80.971 27.908 80.971 27.908 79.006 16.208 79.006"></polygon>
                        <polygon id="Stroke-148" stroke="#7A7A7A" stroke-width="0.75" stroke-linejoin="round" mask="url(#mask-2)" points="33.837 79.006 41.638 79.006 41.638 67.366 33.837 67.366"></polygon>
                        <polygon id="Stroke-149" stroke="#7A7A7A" stroke-width="0.75" stroke-linejoin="round" mask="url(#mask-2)" points="31.888 80.971 43.588 80.971 43.588 79.006 31.888 79.006"></polygon>
                        <polygon id="Stroke-150" stroke="#7A7A7A" stroke-width="0.75" stroke-linejoin="round" mask="url(#mask-2)" points="84.798 79.006 92.599 79.006 92.599 67.366 84.798 67.366"></polygon>
                        <polygon id="Stroke-151" stroke="#7A7A7A" stroke-width="0.75" stroke-linejoin="round" mask="url(#mask-2)" points="82.849 80.971 94.548 80.971 94.548 79.006 82.849 79.006"></polygon>
                        <polygon id="Fill-152" fill="#FFDF2A" mask="url(#mask-2)" points="69.118 79.006 76.919 79.006 76.919 67.366 69.118 67.366"></polygon>
                        <polygon id="Stroke-153" stroke="#7A7A7A" stroke-width="0.75" stroke-linejoin="round" mask="url(#mask-2)" points="69.118 79.006 76.919 79.006 76.919 67.366 69.118 67.366"></polygon>
                        <polygon id="Stroke-154" stroke="#7A7A7A" stroke-width="0.75" stroke-linejoin="round" mask="url(#mask-2)" points="67.168 80.971 78.868 80.971 78.868 79.006 67.168 79.006"></polygon>
                        <polygon id="Stroke-155" stroke="#7A7A7A" stroke-width="0.75" stroke-linejoin="round" mask="url(#mask-2)" points="49.509 86.869 61.249 86.869 61.249 84.904 49.509 84.904"></polygon>
                        <polygon id="Stroke-156" stroke="#7A7A7A" stroke-width="0.75" stroke-linejoin="round" mask="url(#mask-2)" points="49.509 88.834 61.249 88.834 61.249 86.869 49.509 86.869"></polygon>
                        <polygon id="Stroke-157" stroke="#7A7A7A" stroke-width="0.75" stroke-linejoin="round" mask="url(#mask-2)" points="49.509 90.799 61.249 90.799 61.249 88.834 49.509 88.834"></polygon>
                        <polygon id="Stroke-158" stroke="#7A7A7A" stroke-width="0.75" stroke-linejoin="round" mask="url(#mask-2)" points="49.509 92.764 61.249 92.764 61.249 90.799 49.509 90.799"></polygon>
                        <polygon id="Stroke-159" stroke="#7A7A7A" stroke-width="0.75" stroke-linejoin="round" mask="url(#mask-2)" points="49.509 94.729 61.249 94.729 61.249 92.764 49.509 92.764"></polygon>
                        <polygon id="Stroke-160" stroke="#7A7A7A" stroke-width="0.75" stroke-linejoin="round" mask="url(#mask-2)" points="49.509 96.695 61.249 96.695 61.249 94.73 49.509 94.73"></polygon>
                        <polygon id="Stroke-161" stroke="#7A7A7A" stroke-width="0.75" stroke-linejoin="round" mask="url(#mask-2)" points="49.509 98.66 61.249 98.66 61.249 96.695 49.509 96.695"></polygon>
                        <polygon id="Stroke-162" stroke="#7A7A7A" stroke-width="0.75" stroke-linejoin="round" mask="url(#mask-2)" points="49.509 100.625 61.249 100.625 61.249 98.66 49.509 98.66"></polygon>
                        <path d="M55.3784,65.3636 C52.1364,65.3636 49.5084,67.9916 49.5084,71.2336 L49.5084,84.9036 L61.2484,84.9036 L61.2484,71.2336 C61.2484,67.9916 58.6204,65.3636 55.3784,65.3636" id="Fill-163" fill="#E6E6E6" mask="url(#mask-2)"></path>
                        <path d="M55.3784,65.3636 C52.1364,65.3636 49.5084,67.9916 49.5084,71.2336 L49.5084,84.9036 L61.2484,84.9036 L61.2484,71.2336 C61.2484,67.9916 58.6204,65.3636 55.3784,65.3636 Z" id="Stroke-164" stroke="#7A7A7A" stroke-width="0.75" stroke-linejoin="round" mask="url(#mask-2)"></path>
                        <path d="M51.4682,84.9036 L51.4682,71.2336 C51.4682,69.0776 53.2222,67.3236 55.3782,67.3236 C57.5342,67.3236 59.2882,69.0776 59.2882,71.2336 L59.2882,84.9036 L51.4682,84.9036 Z" id="Stroke-165" stroke="#7A7A7A" stroke-width="0.75" stroke-linejoin="round" mask="url(#mask-2)"></path>
                        <line x1="49.5083" y1="84.9036" x2="4.4173" y2="84.9036" id="Stroke-166" stroke="#7A7A7A" stroke-width="0.75" stroke-linejoin="round" mask="url(#mask-2)"></line>
                        <line x1="106.3393" y1="84.9036" x2="61.2483" y2="84.9036" id="Stroke-167" stroke="#7A7A7A" stroke-width="0.75" stroke-linejoin="round" mask="url(#mask-2)"></line>
                        <path d="M49.5083,49.6521 C49.5083,46.4101 52.1363,43.7811 55.3783,43.7811 C58.6203,43.7811 61.2483,46.4101 61.2483,49.6521 L61.2483,49.9051 L63.1293,48.5511 C62.5933,44.7531 59.3223,41.8211 55.3783,41.8211 C51.4343,41.8211 48.1633,44.7531 47.6263,48.5511 L49.5083,49.9051 L49.5083,49.6521 Z" id="Stroke-168" stroke="#7A7A7A" stroke-width="0.75" stroke-linejoin="round" mask="url(#mask-2)"></path>
                        <path d="M49.5083,28.0701 C49.5083,24.8281 52.1363,22.2001 55.3783,22.2001 C58.6203,22.2001 61.2483,24.8281 61.2483,28.0701 L61.2483,28.3241 L63.1293,26.9691 C62.5933,23.1711 59.3223,20.2401 55.3783,20.2401 C51.4343,20.2401 48.1633,23.1711 47.6263,26.9691 L49.5083,28.3241 L49.5083,28.0701 Z" id="Stroke-169" stroke="#7A7A7A" stroke-width="0.75" stroke-linejoin="round" mask="url(#mask-2)"></path>
                        <path d="M48.5278,89.8094 C47.9868,89.8094 47.5488,90.2524 47.5488,90.7994 L47.5488,100.6244 L49.5078,100.6244 L49.5078,90.7994 C49.5078,90.2524 49.0688,89.8094 48.5278,89.8094" id="Fill-170" fill="#FFFFFF" mask="url(#mask-2)"></path>
                        <path d="M48.5278,89.8094 C47.9868,89.8094 47.5488,90.2524 47.5488,90.7994 L47.5488,100.6244 L49.5078,100.6244 L49.5078,90.7994 C49.5078,90.2524 49.0688,89.8094 48.5278,89.8094 Z" id="Stroke-171" stroke="#7A7A7A" stroke-width="0.75" stroke-linejoin="round" mask="url(#mask-2)"></path>
                        <path d="M62.229,89.8094 C61.687,89.8094 61.249,90.2524 61.249,90.7994 L61.249,100.6244 L63.208,100.6244 L63.208,90.7994 C63.208,90.2524 62.77,89.8094 62.229,89.8094" id="Fill-172" fill="#FFFFFF" mask="url(#mask-2)"></path>
                        <path d="M62.229,89.8094 C61.687,89.8094 61.249,90.2524 61.249,90.7994 L61.249,100.6244 L63.208,100.6244 L63.208,90.7994 C63.208,90.2524 62.77,89.8094 62.229,89.8094 Z" id="Stroke-173" stroke="#7A7A7A" stroke-width="0.75" stroke-linejoin="round" mask="url(#mask-2)"></path>
                    </g>
                </g>
            </g>
        </g>
    </g>
</svg>