<?xml version="1.0" encoding="UTF-8"?>
<svg width="119px" height="103px" viewBox="0 0 119 103" version="1.1" xmlns="http://www.w3.org/2000/svg" xmlns:xlink="http://www.w3.org/1999/xlink">
    <!-- Generator: sketchtool 59.1 (101010) - https://sketch.com -->
    <title>D13EEE0C-4AC0-4427-83D9-D497CE1F15C3</title>
    <desc>Created with sketchtool.</desc>
    <g id="Asset-Artboard-Page" stroke="none" stroke-width="1" fill="none" fill-rule="evenodd">
        <g id="icons-/-building-/-single-family-alt-selected-icons-/-building-/-single-family-selected">
            <g id="Group-86" transform="translate(0.000000, 1.000000)">
                <polygon id="Fill-1" fill="#FFFFFF" points="3.3057 3.6434 3.3057 100.4534 10.0317 100.4534 110.9587 100.4534 110.9587 50.2384 117.6347 50.2384 110.9107 13.4664 16.7547 13.4664 16.7547 3.6434"></polygon>
                <polygon id="Fill-2" fill="#FFFFFF" points="0.375 3.638 20.107 3.638 20.107 0.376 0.375 0.376"></polygon>
                <polygon id="Fill-3" fill="#E6E6E6" points="3.306 6.906 16.754 6.906 16.754 3.643 3.306 3.643"></polygon>
                <polygon id="Stroke-4" stroke="#E6E6E6" stroke-width="0.75" stroke-linejoin="round" points="3.306 6.906 16.754 6.906 16.754 3.643 3.306 3.643"></polygon>
                <polygon id="Fill-5" fill="#E6E6E6" points="3.305 61.562 10.03 61.562 10.03 50.417 3.305 50.417"></polygon>
                <polygon id="Stroke-6" stroke="#E6E6E6" stroke-width="0.75" stroke-linejoin="round" points="3.305 61.562 10.03 61.562 10.03 50.417 3.305 50.417"></polygon>
                <polygon id="Fill-7" fill="#E6E6E6" points="10.031 56.959 110.958 56.959 110.958 50.238 10.031 50.238"></polygon>
                <polygon id="Stroke-8" stroke="#E6E6E6" stroke-width="0.75" stroke-linejoin="round" points="10.031 56.959 110.958 56.959 110.958 50.238 10.031 50.238"></polygon>
                <polygon id="Fill-9" fill="#E6E6E6" points="16.754 46.944 43.659 46.944 43.659 43.681 16.754 43.681"></polygon>
                <polygon id="Stroke-10" stroke="#E6E6E6" stroke-width="0.75" stroke-linejoin="round" points="16.754 46.944 43.659 46.944 43.659 43.681 16.754 43.681"></polygon>
                <polygon id="Fill-11" fill="#E6E6E6" points="47.021 46.944 73.926 46.944 73.926 43.681 47.021 43.681"></polygon>
                <polygon id="Stroke-12" stroke="#E6E6E6" stroke-width="0.75" stroke-linejoin="round" points="47.021 46.944 73.926 46.944 73.926 43.681 47.021 43.681"></polygon>
                <polygon id="Fill-13" fill="#E6E6E6" points="77.287 46.944 104.191 46.944 104.191 43.681 77.287 43.681"></polygon>
                <polygon id="Stroke-14" stroke="#E6E6E6" stroke-width="0.75" stroke-linejoin="round" points="77.287 46.944 104.191 46.944 104.191 43.681 77.287 43.681"></polygon>
                <polygon id="Fill-15" fill="#E6E6E6" points="47.071 87.056 100.822 87.056 100.822 83.684 47.071 83.684"></polygon>
                <polygon id="Stroke-16" stroke="#E6E6E6" stroke-width="0.75" stroke-linejoin="round" points="47.071 87.056 100.822 87.056 100.822 83.684 47.071 83.684"></polygon>
                <polygon id="Fill-17" fill="#E6E6E6" points="10.031 100.454 110.959 100.454 110.959 90.324 10.031 90.324"></polygon>
                <polygon id="Stroke-18" stroke="#7A7A7A" stroke-width="0.75" stroke-linejoin="round" points="110.9102 13.4662 10.0362 13.4662 3.3102 50.2382 117.6352 50.2382"></polygon>
                <polygon id="Stroke-20" stroke="#7A7A7A" stroke-width="0.75" stroke-linejoin="round" points="16.754 43.681 43.659 43.681 43.659 40.418 16.754 40.418"></polygon>
                <polygon id="Stroke-21" stroke="#7A7A7A" stroke-width="0.75" stroke-linejoin="round" points="0.376 3.638 20.108 3.638 20.108 0.375 0.376 0.375"></polygon>
                <polygon id="Stroke-23" stroke="#7A7A7A" stroke-width="0.75" stroke-linejoin="round" points="40.3429 40.4183 30.2069 40.4183 20.0709 40.4183 20.0709 33.6783 20.0709 23.2543 30.2069 13.4663 40.3429 23.2543 40.3429 33.6783"></polygon>
                <polygon id="Fill-24" fill="#FFDF2A" points="36.9268 40.4183 23.4868 40.4183 23.4868 31.8283 23.4868 24.9173 30.2068 18.4283 36.9268 24.9173 36.9268 31.8283"></polygon>
                <polygon id="Stroke-25" stroke="#7A7A7A" stroke-width="0.75" stroke-linejoin="round" points="36.9268 40.4183 23.4868 40.4183 23.4868 31.8283 23.4868 24.9173 30.2068 18.4283 36.9268 24.9173 36.9268 31.8283"></polygon>
                <polygon id="Stroke-26" stroke="#7A7A7A" stroke-width="0.75" stroke-linejoin="round" points="67.1905 40.4183 53.7505 40.4183 53.7505 31.8283 53.7505 24.9173 60.4705 18.4283 67.1905 24.9173 67.1905 31.8283"></polygon>
                <polygon id="Stroke-27" stroke="#7A7A7A" stroke-width="0.75" stroke-linejoin="round" points="97.4542 40.4183 84.0142 40.4183 84.0142 31.8283 84.0142 24.9173 90.7342 18.4283 97.4542 24.9173 97.4542 31.8283"></polygon>
                <polygon id="Stroke-28" stroke="#7A7A7A" stroke-width="0.75" stroke-linejoin="round" points="47.021 43.681 73.926 43.681 73.926 40.418 47.021 40.418"></polygon>
                <polygon id="Stroke-29" stroke="#7A7A7A" stroke-width="0.75" stroke-linejoin="round" points="70.6095 40.4183 60.4725 40.4183 50.3375 40.4183 50.3375 33.6783 50.3375 23.2543 60.4725 13.4663 70.6095 23.2543 70.6095 33.6783"></polygon>
                <polygon id="Stroke-30" stroke="#7A7A7A" stroke-width="0.75" stroke-linejoin="round" points="77.287 43.681 104.191 43.681 104.191 40.418 77.287 40.418"></polygon>
                <polygon id="Stroke-31" stroke="#7A7A7A" stroke-width="0.75" stroke-linejoin="round" points="100.8751 40.4183 90.7391 40.4183 80.6041 40.4183 80.6041 33.6783 80.6041 23.2543 90.7391 13.4663 100.8751 23.2543 100.8751 33.6783"></polygon>
                <g id="Group-35" transform="translate(3.000000, 2.829000)" stroke="#7A7A7A" stroke-linejoin="round" stroke-width="0.75">
                    <polygon id="Stroke-32" points="7.031 97.625 107.958 97.625 107.958 47.409 7.031 47.409"></polygon>
                    <polygon id="Stroke-34" points="0.3106 47.4092 7.0366 10.6372 13.7536 10.6372 13.7536 0.8142 0.3056 0.8142 0.3056 97.6252 7.0316 97.6252 7.0316 47.4092"></polygon>
                </g>
                <polygon id="Fill-36" fill="#FFDF2A" points="50.416 80.312 63.799 80.312 63.799 63.681 50.416 63.681"></polygon>
                <polygon id="Stroke-37" stroke="#7A7A7A" stroke-width="0.75" stroke-linejoin="round" points="50.416 80.312 63.799 80.312 63.799 63.681 50.416 63.681"></polygon>
                <polygon id="Fill-38" fill="#E6E6E6" points="23.516 90.325 36.899 90.325 36.899 63.681 23.516 63.681"></polygon>
                <polygon id="Stroke-39" stroke="#7A7A7A" stroke-width="0.75" stroke-linejoin="round" points="23.516 90.325 36.899 90.325 36.899 63.681 23.516 63.681"></polygon>
                <polygon id="Fill-40" fill="#FFDF2A" points="67.229 80.312 80.612 80.312 80.612 63.681 67.229 63.681"></polygon>
                <polygon id="Stroke-41" stroke="#7A7A7A" stroke-width="0.75" stroke-linejoin="round" points="67.229 80.312 80.612 80.312 80.612 63.681 67.229 63.681"></polygon>
                <polygon id="Fill-42" fill="#FFDF2A" points="84.043 80.312 97.426 80.312 97.426 63.681 84.043 63.681"></polygon>
                <polygon id="Stroke-43" stroke="#7A7A7A" stroke-width="0.75" stroke-linejoin="round" points="84.043 80.312 97.426 80.312 97.426 63.681 84.043 63.681"></polygon>
                <polygon id="Stroke-44" stroke="#7A7A7A" stroke-width="0.75" stroke-linejoin="round" points="47.071 83.684 100.822 83.684 100.822 80.312 47.071 80.312"></polygon>
                <polygon id="Fill-45" fill="#FFFFFF" points="16.754 93.701 43.657 93.701 43.657 90.329 16.754 90.329"></polygon>
                <polygon id="Stroke-46" stroke="#7A7A7A" stroke-width="0.75" stroke-linejoin="round" points="16.754 93.701 43.657 93.701 43.657 90.329 16.754 90.329"></polygon>
                <polygon id="Fill-47" fill="#FFFFFF" points="13.393 97.078 47.071 97.078 47.071 93.706 13.393 93.706"></polygon>
                <polygon id="Stroke-48" stroke="#7A7A7A" stroke-width="0.75" stroke-linejoin="round" points="13.393 97.078 47.071 97.078 47.071 93.706 13.393 93.706"></polygon>
                <polygon id="Fill-49" fill="#FFFFFF" points="10.031 100.454 50.416 100.454 50.416 97.083 10.031 97.083"></polygon>
                <polygon id="Stroke-50" stroke="#7A7A7A" stroke-width="0.75" stroke-linejoin="round" points="10.031 100.454 50.416 100.454 50.416 97.082 10.031 97.082"></polygon>
                <line x1="50.4669" y1="73.6801" x2="63.8329" y2="73.6801" id="Stroke-52" stroke="#7A7A7A" stroke-width="0.75" stroke-linejoin="round"></line>
                <line x1="57.1075" y1="73.682" x2="57.1075" y2="63.663" id="Stroke-53" stroke="#7A7A7A" stroke-width="0.75" stroke-linejoin="round"></line>
                <line x1="67.255" y1="73.6801" x2="80.621" y2="73.6801" id="Stroke-54" stroke="#7A7A7A" stroke-width="0.75" stroke-linejoin="round"></line>
                <line x1="73.8956" y1="73.682" x2="73.8956" y2="63.663" id="Stroke-55" stroke="#7A7A7A" stroke-width="0.75" stroke-linejoin="round"></line>
                <line x1="84.0509" y1="73.6801" x2="97.4169" y2="73.6801" id="Stroke-56" stroke="#7A7A7A" stroke-width="0.75" stroke-linejoin="round"></line>
                <line x1="90.6915" y1="73.682" x2="90.6915" y2="63.663" id="Stroke-57" stroke="#7A7A7A" stroke-width="0.75" stroke-linejoin="round"></line>
                <line x1="110.9581" y1="90.3246" x2="10.0301" y2="90.3246" id="Stroke-58" stroke="#7A7A7A" stroke-width="0.75" stroke-linejoin="round"></line>
                <line x1="30.2061" y1="40.4183" x2="30.2061" y2="18.4283" id="Stroke-59" stroke="#7A7A7A" stroke-width="0.75" stroke-linejoin="round"></line>
                <line x1="23.4864" y1="31.306" x2="36.9264" y2="31.306" id="Stroke-60" stroke="#7A7A7A" stroke-width="0.75" stroke-linejoin="round"></line>
                <line x1="60.4718" y1="40.4183" x2="60.4718" y2="18.4283" id="Stroke-61" stroke="#7A7A7A" stroke-width="0.75" stroke-linejoin="round"></line>
                <line x1="53.753" y1="31.306" x2="67.193" y2="31.306" id="Stroke-62" stroke="#7A7A7A" stroke-width="0.75" stroke-linejoin="round"></line>
                <line x1="90.7345" y1="40.4183" x2="90.7345" y2="18.4283" id="Stroke-63" stroke="#7A7A7A" stroke-width="0.75" stroke-linejoin="round"></line>
                <line x1="84.0147" y1="31.306" x2="97.4547" y2="31.306" id="Stroke-64" stroke="#7A7A7A" stroke-width="0.75" stroke-linejoin="round"></line>
                <g id="Group-85" transform="translate(55.000000, 85.829000)">
                    <path d="M15.2511,7.0854 C15.1011,3.2334 11.9391,0.1554 8.0511,0.1554 C4.1621,0.1554 1.0011,3.2334 0.8511,7.0854 L0.8361,7.0854 L0.8361,10.8254 L15.2661,10.8254 L15.2661,7.0854 L15.2511,7.0854 Z" id="Fill-65" fill="#FFFFFF"></path>
                    <polygon id="Fill-67" fill="#FFFFFF" points="7.103 14.625 8.998 14.625 8.998 10.825 7.103 10.825"></polygon>
                    <path d="M32.1749,6.9975 C32.0249,3.1455 28.8629,0.0675 24.9749,0.0675 C21.0859,0.0675 17.9249,3.1455 17.7749,6.9975 L17.7599,6.9975 L17.7599,10.7375 L32.1899,10.7375 L32.1899,6.9975 L32.1749,6.9975 Z" id="Fill-69" fill="#FFFFFF"></path>
                    <polygon id="Fill-70" fill="#FFFFFF" points="24.027 14.538 25.922 14.538 25.922 10.738 24.027 10.738"></polygon>
                    <path d="M49.0987,6.9975 C48.9487,3.1455 45.7867,0.0675 41.8987,0.0675 C38.0097,0.0675 34.8487,3.1455 34.6987,6.9975 L34.6837,6.9975 L34.6837,10.7375 L49.1137,10.7375 L49.1137,6.9975 L49.0987,6.9975 Z" id="Fill-71" fill="#FFFFFF"></path>
                    <polygon id="Fill-72" fill="#FFFFFF" points="40.951 14.538 42.846 14.538 42.846 10.738 40.951 10.738"></polygon>
                    <polygon id="Fill-73" fill="#E6E6E6" points="7.103 12.638 8.998 12.638 8.998 10.781 7.103 10.781"></polygon>
                    <polygon id="Stroke-74" stroke="#E6E6E6" stroke-width="0.75" stroke-linejoin="round" points="7.103 12.638 8.998 12.638 8.998 10.781 7.103 10.781"></polygon>
                    <polygon id="Fill-75" fill="#E6E6E6" points="24.027 12.595 25.922 12.595 25.922 10.738 24.027 10.738"></polygon>
                    <polygon id="Stroke-76" stroke="#E6E6E6" stroke-width="0.75" stroke-linejoin="round" points="24.027 12.595 25.922 12.595 25.922 10.738 24.027 10.738"></polygon>
                    <polygon id="Fill-77" fill="#E6E6E6" points="40.951 12.595 42.846 12.595 42.846 10.738 40.951 10.738"></polygon>
                    <polygon id="Stroke-78" stroke="#E6E6E6" stroke-width="0.75" stroke-linejoin="round" points="40.951 12.595 42.846 12.595 42.846 10.738 40.951 10.738"></polygon>
                    <path d="M15.2511,7.0854 C15.1011,3.2334 11.9391,0.1554 8.0511,0.1554 C4.1621,0.1554 1.0011,3.2334 0.8511,7.0854 L0.8361,7.0854 L0.8361,10.8254 L15.2661,10.8254 L15.2661,7.0854 L15.2511,7.0854 Z" id="Stroke-79" stroke="#7A7A7A" stroke-width="0.75" stroke-linejoin="round"></path>
                    <polygon id="Stroke-80" stroke="#7A7A7A" stroke-width="0.75" stroke-linejoin="round" points="7.103 14.625 8.998 14.625 8.998 10.825 7.103 10.825"></polygon>
                    <path d="M32.1749,6.9975 C32.0249,3.1455 28.8629,0.0675 24.9749,0.0675 C21.0859,0.0675 17.9249,3.1455 17.7749,6.9975 L17.7599,6.9975 L17.7599,10.7375 L32.1899,10.7375 L32.1899,6.9975 L32.1749,6.9975 Z" id="Stroke-81" stroke="#7A7A7A" stroke-width="0.75" stroke-linejoin="round"></path>
                    <polygon id="Stroke-82" stroke="#7A7A7A" stroke-width="0.75" stroke-linejoin="round" points="24.027 14.538 25.922 14.538 25.922 10.738 24.027 10.738"></polygon>
                    <path d="M49.0987,6.9975 C48.9487,3.1455 45.7867,0.0675 41.8987,0.0675 C38.0097,0.0675 34.8487,3.1455 34.6987,6.9975 L34.6837,6.9975 L34.6837,10.7375 L49.1137,10.7375 L49.1137,6.9975 L49.0987,6.9975 Z" id="Stroke-83" stroke="#7A7A7A" stroke-width="0.75" stroke-linejoin="round"></path>
                    <polygon id="Stroke-84" stroke="#7A7A7A" stroke-width="0.75" stroke-linejoin="round" points="40.951 14.538 42.846 14.538 42.846 10.738 40.951 10.738"></polygon>
                </g>
            </g>
        </g>
    </g>
</svg>