<?xml version="1.0" encoding="UTF-8"?>
<svg width="119px" height="103px" viewBox="0 0 119 103" version="1.1" xmlns="http://www.w3.org/2000/svg" xmlns:xlink="http://www.w3.org/1999/xlink">
    <!-- Generator: sketchtool 59.1 (101010) - https://sketch.com -->
    <title>9D0C8BE2-9AD4-425C-999F-507849042483</title>
    <desc>Created with sketchtool.</desc>
    <defs>
        <polygon id="path-1" points="0 101 118.01 101 118.01 0.171 0 0.171"></polygon>
    </defs>
    <g id="Asset-Artboard-Page" stroke="none" stroke-width="1" fill="none" fill-rule="evenodd">
        <g id="icons-/-building-/-single-family-alt-default-icons-/-building-/-single-family-default">
            <g id="single-family-alt-default">
                <g id="Group-82">
                    <polygon id="Fill-1" fill="#FFFFFF" points="3.3057 4.6434 3.3057 101.4534 10.0317 101.4534 110.9587 101.4534 110.9587 51.2384 117.6347 51.2384 110.9107 14.4664 16.7547 14.4664 16.7547 4.6434"></polygon>
                    <polygon id="Fill-2" fill="#FFFFFF" points="0.375 4.638 20.107 4.638 20.107 1.376 0.375 1.376"></polygon>
                    <polygon id="Fill-3" fill="#E6E6E6" points="3.306 7.906 16.754 7.906 16.754 4.643 3.306 4.643"></polygon>
                    <polygon id="Stroke-4" stroke="#E6E6E6" stroke-width="0.75" stroke-linejoin="round" points="3.306 7.906 16.754 7.906 16.754 4.643 3.306 4.643"></polygon>
                    <polygon id="Fill-5" fill="#E6E6E6" points="3.305 62.562 10.03 62.562 10.03 51.417 3.305 51.417"></polygon>
                    <polygon id="Stroke-6" stroke="#E6E6E6" stroke-width="0.75" stroke-linejoin="round" points="3.305 62.562 10.03 62.562 10.03 51.417 3.305 51.417"></polygon>
                    <polygon id="Fill-7" fill="#E6E6E6" points="10.031 57.96 110.958 57.96 110.958 51.238 10.031 51.238"></polygon>
                    <polygon id="Stroke-8" stroke="#E6E6E6" stroke-width="0.75" stroke-linejoin="round" points="10.031 57.96 110.958 57.96 110.958 51.238 10.031 51.238"></polygon>
                    <polygon id="Fill-9" fill="#E6E6E6" points="16.754 47.944 43.659 47.944 43.659 44.681 16.754 44.681"></polygon>
                    <polygon id="Stroke-10" stroke="#E6E6E6" stroke-width="0.75" stroke-linejoin="round" points="16.754 47.944 43.659 47.944 43.659 44.681 16.754 44.681"></polygon>
                    <polygon id="Fill-11" fill="#E6E6E6" points="47.021 47.944 73.926 47.944 73.926 44.681 47.021 44.681"></polygon>
                    <polygon id="Stroke-12" stroke="#E6E6E6" stroke-width="0.75" stroke-linejoin="round" points="47.021 47.944 73.926 47.944 73.926 44.681 47.021 44.681"></polygon>
                    <polygon id="Fill-13" fill="#E6E6E6" points="77.287 47.944 104.191 47.944 104.191 44.681 77.287 44.681"></polygon>
                    <polygon id="Stroke-14" stroke="#E6E6E6" stroke-width="0.75" stroke-linejoin="round" points="77.287 47.944 104.191 47.944 104.191 44.681 77.287 44.681"></polygon>
                    <polygon id="Fill-15" fill="#E6E6E6" points="47.071 88.055 100.822 88.055 100.822 84.684 47.071 84.684"></polygon>
                    <polygon id="Stroke-16" stroke="#E6E6E6" stroke-width="0.75" stroke-linejoin="round" points="47.071 88.055 100.822 88.055 100.822 84.684 47.071 84.684"></polygon>
                    <polygon id="Fill-17" fill="#E6E6E6" points="10.031 101.454 110.959 101.454 110.959 91.325 10.031 91.325"></polygon>
                    <polygon id="Stroke-18" stroke="#7A7A7A" stroke-width="0.75" stroke-linejoin="round" points="110.9102 14.4663 10.0362 14.4663 3.3102 51.2373 117.6352 51.2373"></polygon>
                    <polygon id="Stroke-20" stroke="#7A7A7A" stroke-width="0.75" stroke-linejoin="round" points="16.754 44.681 43.659 44.681 43.659 41.418 16.754 41.418"></polygon>
                    <polygon id="Stroke-21" stroke="#7A7A7A" stroke-width="0.75" stroke-linejoin="round" points="0.376 4.638 20.108 4.638 20.108 1.375 0.376 1.375"></polygon>
                    <polygon id="Stroke-23" stroke="#7A7A7A" stroke-width="0.75" stroke-linejoin="round" points="40.3429 41.418 30.2069 41.418 20.0709 41.418 20.0709 34.679 20.0709 24.254 30.2069 14.466 40.3429 24.254 40.3429 34.679"></polygon>
                    <polygon id="Stroke-24" stroke="#7A7A7A" stroke-width="0.75" stroke-linejoin="round" points="36.9268 41.418 23.4868 41.418 23.4868 32.829 23.4868 25.918 30.2068 19.428 36.9268 25.918 36.9268 32.829"></polygon>
                    <polygon id="Stroke-25" stroke="#7A7A7A" stroke-width="0.75" stroke-linejoin="round" points="67.1905 41.418 53.7505 41.418 53.7505 32.829 53.7505 25.918 60.4705 19.428 67.1905 25.918 67.1905 32.829"></polygon>
                    <polygon id="Stroke-26" stroke="#7A7A7A" stroke-width="0.75" stroke-linejoin="round" points="97.4542 41.418 84.0142 41.418 84.0142 32.829 84.0142 25.918 90.7342 19.428 97.4542 25.918 97.4542 32.829"></polygon>
                    <polygon id="Stroke-27" stroke="#7A7A7A" stroke-width="0.75" stroke-linejoin="round" points="47.021 44.681 73.926 44.681 73.926 41.418 47.021 41.418"></polygon>
                    <polygon id="Stroke-28" stroke="#7A7A7A" stroke-width="0.75" stroke-linejoin="round" points="70.6095 41.418 60.4725 41.418 50.3375 41.418 50.3375 34.679 50.3375 24.254 60.4725 14.466 70.6095 24.254 70.6095 34.679"></polygon>
                    <polygon id="Stroke-29" stroke="#7A7A7A" stroke-width="0.75" stroke-linejoin="round" points="77.287 44.681 104.191 44.681 104.191 41.418 77.287 41.418"></polygon>
                    <polygon id="Stroke-30" stroke="#7A7A7A" stroke-width="0.75" stroke-linejoin="round" points="100.8751 41.418 90.7391 41.418 80.6041 41.418 80.6041 34.679 80.6041 24.254 90.7391 14.466 100.8751 24.254 100.8751 34.679"></polygon>
                    <g id="Group-34" transform="translate(3.000000, 3.829000)" stroke="#7A7A7A" stroke-linejoin="round" stroke-width="0.75">
                        <polygon id="Stroke-31" points="7.031 97.625 107.958 97.625 107.958 47.409 7.031 47.409"></polygon>
                        <polygon id="Stroke-33" points="0.3106 47.4088 7.0366 10.6378 13.7536 10.6378 13.7536 0.8148 0.3056 0.8148 0.3056 97.6248 7.0316 97.6248 7.0316 47.4088"></polygon>
                    </g>
                    <polygon id="Stroke-35" stroke="#7A7A7A" stroke-width="0.75" stroke-linejoin="round" points="50.416 81.313 63.799 81.313 63.799 64.682 50.416 64.682"></polygon>
                    <polygon id="Fill-36" fill="#E6E6E6" points="23.516 91.325 36.899 91.325 36.899 64.681 23.516 64.681"></polygon>
                    <polygon id="Stroke-37" stroke="#7A7A7A" stroke-width="0.75" stroke-linejoin="round" points="23.516 91.325 36.899 91.325 36.899 64.681 23.516 64.681"></polygon>
                    <polygon id="Stroke-38" stroke="#7A7A7A" stroke-width="0.75" stroke-linejoin="round" points="67.229 81.313 80.612 81.313 80.612 64.682 67.229 64.682"></polygon>
                    <polygon id="Stroke-39" stroke="#7A7A7A" stroke-width="0.75" stroke-linejoin="round" points="84.043 81.313 97.426 81.313 97.426 64.682 84.043 64.682"></polygon>
                    <polygon id="Stroke-40" stroke="#7A7A7A" stroke-width="0.75" stroke-linejoin="round" points="47.071 84.684 100.822 84.684 100.822 81.312 47.071 81.312"></polygon>
                    <polygon id="Fill-41" fill="#FFFFFF" points="16.754 94.701 43.657 94.701 43.657 91.329 16.754 91.329"></polygon>
                    <polygon id="Stroke-42" stroke="#7A7A7A" stroke-width="0.75" stroke-linejoin="round" points="16.754 94.701 43.657 94.701 43.657 91.329 16.754 91.329"></polygon>
                    <polygon id="Fill-43" fill="#FFFFFF" points="13.393 98.078 47.071 98.078 47.071 94.706 13.393 94.706"></polygon>
                    <polygon id="Stroke-44" stroke="#7A7A7A" stroke-width="0.75" stroke-linejoin="round" points="13.393 98.078 47.071 98.078 47.071 94.706 13.393 94.706"></polygon>
                    <polygon id="Fill-45" fill="#FFFFFF" points="10.031 101.454 50.416 101.454 50.416 98.083 10.031 98.083"></polygon>
                    <polygon id="Stroke-46" stroke="#7A7A7A" stroke-width="0.75" stroke-linejoin="round" points="10.031 101.454 50.416 101.454 50.416 98.082 10.031 98.082"></polygon>
                    <line x1="50.4669" y1="74.6802" x2="63.8329" y2="74.6802" id="Stroke-48" stroke="#7A7A7A" stroke-width="0.75" stroke-linejoin="round"></line>
                    <line x1="57.1075" y1="74.6822" x2="57.1075" y2="64.6632" id="Stroke-49" stroke="#7A7A7A" stroke-width="0.75" stroke-linejoin="round"></line>
                    <line x1="67.255" y1="74.6802" x2="80.621" y2="74.6802" id="Stroke-50" stroke="#7A7A7A" stroke-width="0.75" stroke-linejoin="round"></line>
                    <line x1="73.8956" y1="74.6822" x2="73.8956" y2="64.6632" id="Stroke-51" stroke="#7A7A7A" stroke-width="0.75" stroke-linejoin="round"></line>
                    <line x1="84.0509" y1="74.6802" x2="97.4169" y2="74.6802" id="Stroke-52" stroke="#7A7A7A" stroke-width="0.75" stroke-linejoin="round"></line>
                    <line x1="90.6915" y1="74.6822" x2="90.6915" y2="64.6632" id="Stroke-53" stroke="#7A7A7A" stroke-width="0.75" stroke-linejoin="round"></line>
                    <line x1="110.9581" y1="91.3247" x2="10.0301" y2="91.3247" id="Stroke-54" stroke="#7A7A7A" stroke-width="0.75" stroke-linejoin="round"></line>
                    <line x1="30.2061" y1="41.418" x2="30.2061" y2="19.428" id="Stroke-55" stroke="#7A7A7A" stroke-width="0.75" stroke-linejoin="round"></line>
                    <line x1="23.4864" y1="32.3057" x2="36.9264" y2="32.3057" id="Stroke-56" stroke="#7A7A7A" stroke-width="0.75" stroke-linejoin="round"></line>
                    <line x1="60.4718" y1="41.418" x2="60.4718" y2="19.428" id="Stroke-57" stroke="#7A7A7A" stroke-width="0.75" stroke-linejoin="round"></line>
                    <line x1="53.753" y1="32.3057" x2="67.193" y2="32.3057" id="Stroke-58" stroke="#7A7A7A" stroke-width="0.75" stroke-linejoin="round"></line>
                    <line x1="90.7345" y1="41.418" x2="90.7345" y2="19.428" id="Stroke-59" stroke="#7A7A7A" stroke-width="0.75" stroke-linejoin="round"></line>
                    <line x1="84.0147" y1="32.3057" x2="97.4547" y2="32.3057" id="Stroke-60" stroke="#7A7A7A" stroke-width="0.75" stroke-linejoin="round"></line>
                    <g id="Group-81" transform="translate(0.000000, 0.829000)">
                        <path d="M70.2511,93.0851 C70.1011,89.2341 66.9391,86.1551 63.0511,86.1551 C59.1621,86.1551 56.0011,89.2341 55.8511,93.0851 L55.8361,93.0851 L55.8361,96.8251 L70.2661,96.8251 L70.2661,93.0851 L70.2511,93.0851 Z" id="Fill-61" fill="#FFFFFF"></path>
                        <mask id="mask-2" fill="white">
                            <use xlink:href="#path-1"></use>
                        </mask>
                        <g id="Clip-64"></g>
                        <polygon id="Fill-63" fill="#FFFFFF" mask="url(#mask-2)" points="62.103 100.625 63.998 100.625 63.998 96.825 62.103 96.825"></polygon>
                        <path d="M87.1749,92.9977 C87.0249,89.1457 83.8629,86.0677 79.9749,86.0677 C76.0859,86.0677 72.9249,89.1457 72.7749,92.9977 L72.7599,92.9977 L72.7599,96.7377 L87.1899,96.7377 L87.1899,92.9977 L87.1749,92.9977 Z" id="Fill-65" fill="#FFFFFF" mask="url(#mask-2)"></path>
                        <polygon id="Fill-66" fill="#FFFFFF" mask="url(#mask-2)" points="79.027 100.537 80.922 100.537 80.922 96.737 79.027 96.737"></polygon>
                        <path d="M104.0987,92.9977 C103.9487,89.1457 100.7867,86.0677 96.8987,86.0677 C93.0097,86.0677 89.8487,89.1457 89.6987,92.9977 L89.6837,92.9977 L89.6837,96.7377 L104.1137,96.7377 L104.1137,92.9977 L104.0987,92.9977 Z" id="Fill-67" fill="#FFFFFF" mask="url(#mask-2)"></path>
                        <polygon id="Fill-68" fill="#FFFFFF" mask="url(#mask-2)" points="95.951 100.537 97.846 100.537 97.846 96.737 95.951 96.737"></polygon>
                        <polygon id="Fill-69" fill="#E6E6E6" mask="url(#mask-2)" points="62.103 98.637 63.998 98.637 63.998 96.78 62.103 96.78"></polygon>
                        <polygon id="Stroke-70" stroke="#E6E6E6" stroke-width="0.75" stroke-linejoin="round" mask="url(#mask-2)" points="62.103 98.637 63.998 98.637 63.998 96.78 62.103 96.78"></polygon>
                        <polygon id="Fill-71" fill="#E6E6E6" mask="url(#mask-2)" points="79.027 98.594 80.922 98.594 80.922 96.737 79.027 96.737"></polygon>
                        <polygon id="Stroke-72" stroke="#E6E6E6" stroke-width="0.75" stroke-linejoin="round" mask="url(#mask-2)" points="79.027 98.594 80.922 98.594 80.922 96.737 79.027 96.737"></polygon>
                        <polygon id="Fill-73" fill="#E6E6E6" mask="url(#mask-2)" points="95.951 98.594 97.846 98.594 97.846 96.737 95.951 96.737"></polygon>
                        <polygon id="Stroke-74" stroke="#E6E6E6" stroke-width="0.75" stroke-linejoin="round" mask="url(#mask-2)" points="95.951 98.594 97.846 98.594 97.846 96.737 95.951 96.737"></polygon>
                        <path d="M70.2511,93.0851 C70.1011,89.2341 66.9391,86.1551 63.0511,86.1551 C59.1621,86.1551 56.0011,89.2341 55.8511,93.0851 L55.8361,93.0851 L55.8361,96.8251 L70.2661,96.8251 L70.2661,93.0851 L70.2511,93.0851 Z" id="Stroke-75" stroke="#7A7A7A" stroke-width="0.75" stroke-linejoin="round" mask="url(#mask-2)"></path>
                        <polygon id="Stroke-76" stroke="#7A7A7A" stroke-width="0.75" stroke-linejoin="round" mask="url(#mask-2)" points="62.103 100.625 63.998 100.625 63.998 96.825 62.103 96.825"></polygon>
                        <path d="M87.1749,92.9977 C87.0249,89.1457 83.8629,86.0677 79.9749,86.0677 C76.0859,86.0677 72.9249,89.1457 72.7749,92.9977 L72.7599,92.9977 L72.7599,96.7377 L87.1899,96.7377 L87.1899,92.9977 L87.1749,92.9977 Z" id="Stroke-77" stroke="#7A7A7A" stroke-width="0.75" stroke-linejoin="round" mask="url(#mask-2)"></path>
                        <polygon id="Stroke-78" stroke="#7A7A7A" stroke-width="0.75" stroke-linejoin="round" mask="url(#mask-2)" points="79.027 100.537 80.922 100.537 80.922 96.737 79.027 96.737"></polygon>
                        <path d="M104.0987,92.9977 C103.9487,89.1457 100.7867,86.0677 96.8987,86.0677 C93.0097,86.0677 89.8487,89.1457 89.6987,92.9977 L89.6837,92.9977 L89.6837,96.7377 L104.1137,96.7377 L104.1137,92.9977 L104.0987,92.9977 Z" id="Stroke-79" stroke="#7A7A7A" stroke-width="0.75" stroke-linejoin="round" mask="url(#mask-2)"></path>
                        <polygon id="Stroke-80" stroke="#7A7A7A" stroke-width="0.75" stroke-linejoin="round" mask="url(#mask-2)" points="95.951 100.537 97.846 100.537 97.846 96.737 95.951 96.737"></polygon>
                    </g>
                </g>
            </g>
        </g>
    </g>
</svg>