<?xml version="1.0" encoding="UTF-8"?>
<svg width="116px" height="64px" viewBox="0 0 116 64" version="1.1" xmlns="http://www.w3.org/2000/svg" xmlns:xlink="http://www.w3.org/1999/xlink">
    <!-- Generator: Sketch 55.2 (78181) - https://sketchapp.com -->
    <title>Elements/Carrier Logo / Big / AIG</title>
    <desc>Created with Sketch.</desc>
    <g id="Elements/Carrier-Logo-/-Big-/-AIG" stroke="none" stroke-width="1" fill="none" fill-rule="evenodd">
        <g id="AIG" transform="translate(58.000000, 32.000000) scale(-1, 1) rotate(-180.000000) translate(-58.000000, -32.000000) translate(1.000000, 1.000000)" fill="#FFFFFF" fill-rule="nonzero">
            <path d="M0,30.95022 L0,0 L56.9998694,0 L113.999739,0 L113.999739,30.95022 L113.999739,61.90044 L56.9998694,61.90044 L0,61.90044 L0,30.95022 Z M109.722202,30.95022 L109.722202,4.36302661 L56.9659207,4.36302661 L4.20963896,4.36302661 L4.20963896,30.95022 L4.20963896,57.5374134 L56.9659207,57.5374134 L109.722202,57.5374134 L109.722202,30.95022 Z" id="path8"></path>
            <path d="M82.7669336,48.9068014 C81.3071395,48.777274 79.6436531,48.4432298 78.367182,48.0273788 C75.6716551,47.1547735 73.6075741,45.8867689 71.5978109,43.8688691 C69.2757198,41.5373768 67.7751872,38.8718402 66.9400491,35.6132047 C66.4783468,33.7793701 66.3765007,32.8999475 66.3765007,30.6775308 C66.3697109,28.659631 66.4240289,28.1074355 66.7431467,26.5394728 C67.3066951,23.8125812 68.6306944,21.0652378 70.3960269,18.9518968 C71.0885804,18.1270121 72.5823233,16.6681251 73.3495639,16.0682089 C75.8549781,14.1116642 78.8017253,12.9527352 82.1694365,12.6118738 C83.3848,12.4823464 86.0395884,12.557336 87.1123674,12.7414011 C89.6924687,13.1913383 91.9738214,14.1457503 93.8749487,15.5841857 C96.5704756,17.6225372 98.6277669,20.6016663 99.6054895,23.8875707 C100.148669,25.7214053 100.352361,27.1598406 100.399889,29.641312 L100.440628,31.427426 L93.2299234,31.427426 L86.026009,31.427426 L86.026009,28.9391374 L86.026009,26.4508488 L90.3714427,26.4508488 C93.8002616,26.4508488 94.7168765,26.4303971 94.7168765,26.3690421 C94.7168765,26.157708 94.3027023,24.6647348 94.1125896,24.1807115 C93.3521387,22.2650702 92.0349291,20.5471284 90.4732888,19.4359201 C89.814684,18.9723485 88.5042642,18.3042601 87.7913414,18.0724743 C84.9939684,17.1657828 81.6941547,17.4316547 78.9307304,18.7882833 C75.4475937,20.4925906 72.9964974,23.7853122 72.2156773,27.8006602 C71.7200263,30.3503039 71.9169287,33.240809 72.745277,35.6200219 C74.3476557,40.2284688 78.0616437,43.2485013 82.8552003,43.8416002 C83.8600818,43.9643103 86.0735371,43.8893208 87.0037316,43.6984384 C90.0862736,43.0780705 92.7546416,41.3601288 94.7508252,38.7014095 L95.1446301,38.1696656 L95.6267017,38.6400544 C95.8915016,38.8922919 96.7334293,39.7035421 97.50067,40.4329857 C98.2679106,41.1624292 98.8993565,41.7759798 98.912936,41.7964315 C98.9536744,41.8918727 97.8197878,43.2280496 97.0864958,43.9438586 C95.2804249,45.709521 92.8632774,47.1820424 90.4393401,47.9932927 C88.4703155,48.6545639 87.04447,48.8863497 84.7359583,48.9136186 C83.8193434,48.9204359 82.9366772,48.9204359 82.7669336,48.9068014 Z" id="path10"></path>
            <path d="M30.2618723,47.7751414 C30.1736057,47.5774417 26.4731972,39.6899077 22.0394969,30.2548626 C17.6125862,20.8130004 13.9868649,13.0754454 13.9868649,13.0549937 C13.9868649,13.034542 15.290495,13.0277248 16.886084,13.034542 L19.7785133,13.0549937 L21.6864304,17.2953102 L23.5943474,21.5356267 L30.9951642,21.5424439 L38.4027709,21.5424439 L40.2427905,17.3021274 L42.0828101,13.0549937 L44.9752394,13.034542 C46.5640386,13.0277248 47.8679692,13.0413592 47.8679692,13.0618109 C47.8679692,13.1163487 48.0849405,12.6323255 36.8343409,37.8015352 C35.2794903,41.2919565 33.616004,45.0005291 33.1543016,46.0503824 C32.6858096,47.1002357 32.2716354,48.0001099 32.2376867,48.0478305 C32.1833688,48.1023684 31.9117792,48.1296373 31.3007026,48.1296373 L30.4248261,48.1296373 L30.2618723,47.7751414 Z M33.6431629,32.6204411 C35.0079007,29.5186019 36.1146284,26.962141 36.1010489,26.9485065 C36.0874694,26.9348721 33.7925372,26.9348721 31.0087437,26.9416893 L25.9435975,26.962141 L28.5304885,32.6408928 C29.9495442,35.7631837 31.1241693,38.3060102 31.1377488,38.2924303 C31.1513283,38.2787413 32.2784251,35.7290976 33.6431629,32.6204411 Z" id="path12"></path>
            <polygon id="path14" points="53.8426402 30.3707555 53.8426402 13.0890798 56.4906389 13.0890798 59.1386376 13.0890798 59.1386376 30.3707555 59.1386376 47.6524312 56.4906389 47.6524312 53.8426402 47.6524312"></polygon>
        </g>
    </g>
</svg>