<svg xmlns="http://www.w3.org/2000/svg" xmlns:xlink="http://www.w3.org/1999/xlink" width="148" height="36" viewBox="0 0 148 36">
    <defs>
        <path id="a" d="M0 .045h57.703v35.498H0z"/>
        <path id="c" d="M.073.042h20.794V7.89H.073z"/>
    </defs>
    <g fill="none" fill-rule="evenodd">
        <g transform="translate(0 .038)">
            <mask id="b" fill="#fff">
                <use xlink:href="#a"/>
            </mask>
            <path fill="#AA0400" d="M40.43 28.027a8.01 8.01 0 0 1-.109 1.187s-.254 1.077-1.094 2.066c0 0 2.63-.312 5.101.941 0 0 1.347.805 4.27.503 2.212-.23 4.96-1.343 6.906-3.736 2.596-3.19 2.7-8.454 1.315-11.148-1.384-2.693-5.33-6.92-5.883-8.454-.554-1.533-.485-3.356.277-4.185.76-.829 2.907-.746 3.599-.829.692-.082.692-.829.138-.912-.553-.083-.623-.704-.588-1.408.035-.705.208-.788.727-1.244.519-.456.311-1.036-.38-.621-.693.414-.866.497-2.493.456-1.626-.042-4.43 2.154-5.468 4.765-.59 1.48-.67 3.523-.256 5.362.505 2.249 2.525 5.062 2.525 5.062 2.516 3.27 1.452 6.867 1.452 6.867-.329.6-.76 1.107-1.195 1.275a1.97 1.97 0 0 1-1.232.037c-.53-.157-.874-.71-.874-.71-.885-1.346-1.978-2.766-3.277-4.028-4.048-3.933-4.57-6.24-4.57-6.24S34.914-.227 20.628 3.626c0 0 2.634.442 4.304 2.77 0 0-9.52-5.314-15.782-5.022 0 0-2.78.291-3.499 2.63-.718 2.34-1.864 3.888-1.864 3.888s-2.168 4.286-3.662 9.99c-1.494 5.702 11.019 14.45 11.019 14.45s11.676 6.883 14.554.493c0 0-1.1-2.633-.423-4.933 0 0 6.207 4.124 8.395 1.813 0 0 .082-.089-.046-.332-.49-.936-.577-1.66-.577-1.66-.391-2.7-2.058-4.24-2.058-4.24s1.612.489 2.453 4.447c.84 3.957 4.011 3.812 4.011 3.812s2.105.186 2.72-3.404c.022-.128.027-.26.008-.388-.04-.28-.18-.723-.654-.975-.73-.387-1.045-1.59-1.045-1.59s.385.989 1.045 1.39c0 0 .908.402.904 1.262" mask="url(#b)"/>
        </g>
        <path fill="#FFF" d="M35.48 9.675s-3.725-5.577-9.504-5.035c0 0 5.421-1.921 9.504 5.035M6.678 9.726s-5.955 6.9-1.91 13.732c0 0-5.53-7.358 1.91-13.732M32.156 17.35s-.54-.287-.686-.507c0 0-.391-.755-1.315-.474-.923.282-.75 1.024-.75 1.024s.17 1.247 1.518 1.048c0 0 .914-.226 1.233-1.092"/>
        <path fill="#AA0400" d="M45.15 35.586c-4.071-.76-6.855-2.975-6.855-2.975s-1.848-1.47-1.589-2.84c.26-1.37 1.492-1.555 1.492-1.555s1.652-.201 2.33 1.648c.68 1.85 5.446 2.89 5.446 2.89 7.614 1.698 10.795.01 10.795.01s-4.368 4.174-11.619 2.822"/>
        <g transform="translate(36.506 28.065)">
            <mask id="d" fill="#fff">
                <use xlink:href="#c"/>
            </mask>
            <path fill="#FFF" d="M8.664 7.42c3.72.694 6.658-.105 8.468-.897a12.677 12.677 0 0 0 2.567-1.49c-1.25.404-4.465 1.047-10.253-.244-.196-.043-4.83-1.074-5.52-2.954C3.285.087 1.77.245 1.706.253c0 0-.295.047-.613.253-.423.273-.69.683-.79 1.22-.246 1.292 1.533 2.726 1.55 2.74.028.022 2.813 2.208 6.81 2.954m2.824.47c-.892 0-1.848-.08-2.861-.268-4.05-.756-6.873-2.973-6.9-2.995C1.647 4.565-.169 3.1.1 1.687A2.01 2.01 0 0 1 1.678.05c.02-.003.446-.052.96.135.475.173 1.117.586 1.482 1.579.651 1.776 5.323 2.814 5.37 2.824 3.91.872 6.618.831 8.202.643 1.714-.203 2.515-.618 2.523-.622l.652-.344-.532.509c-.011.01-1.128 1.066-3.12 1.937a14.29 14.29 0 0 1-5.728 1.18" mask="url(#d)"/>
        </g>
        <path fill="#FFF" d="M54.659 16.812s4.804 4.886.822 11.425c0 0 3.116-5.703-.822-11.425M48.728 3.785s-3.094 2.26-1.438 6.852c0 0-.965-3.563 1.438-6.852"/>
        <path fill="#000" d="M69.38 3.287h3.265v.33c-.433.029-.756.126-.97.291-.213.166-.344.351-.392.557-.048.207-.072.607-.072 1.2v3.243c0 .829-.033 1.445-.098 1.847-.064.403-.252.798-.562 1.186-.31.388-.746.697-1.308.927-.562.23-1.21.346-1.946.346-.87 0-1.606-.148-2.209-.443-.603-.294-1.033-.675-1.29-1.142-.257-.468-.385-1.094-.385-1.88l.007-1V5.717c0-.776-.023-1.277-.068-1.502-.046-.225-.142-.381-.289-.467-.146-.087-.467-.13-.962-.13h-.223v-.33h4.46v.33h-.194c-.48 0-.795.04-.944.119-.149.079-.249.226-.299.442-.05.216-.076.728-.076 1.538v3.07c0 1.063.05 1.818.148 2.264.098.445.376.835.833 1.168.456.333 1.064.5 1.823.5.596 0 1.137-.112 1.625-.335.488-.223.85-.5 1.088-.834.238-.333.383-.675.436-1.028.053-.352.08-.906.08-1.664v-3.32c0-.552-.032-.937-.094-1.158a.893.893 0 0 0-.404-.525c-.206-.129-.533-.208-.98-.237v-.33zM82.197 13.257L75.286 4.12v6.765c0 .56.028.93.083 1.106.055.178.213.34.472.49.26.148.649.222 1.167.222v.33h-3.646v-.33c.466-.033.821-.118 1.066-.255.245-.137.39-.284.436-.442.046-.158.069-.532.069-1.121V5.716c0-.747-.035-1.248-.105-1.502-.07-.254-.18-.417-.331-.489-.151-.072-.49-.108-1.013-.108v-.33h2.883l5.787 7.626v-5.83c0-.43-.044-.733-.133-.905-.09-.173-.27-.31-.544-.41a2.87 2.87 0 0 0-.988-.15v-.331h3.546v.33c-.413.034-.739.113-.976.237-.238.125-.39.275-.454.45-.065.175-.098.47-.098.887v8.066h-.31zM84.709 3.617v-.33h4.468v.33h-.209c-.48 0-.795.04-.944.119-.149.079-.248.226-.299.442-.05.215-.076.728-.076 1.538v4.78c0 .767.018 1.269.054 1.506.036.237.133.414.289.529.156.115.455.172.897.172h.288v.33H84.71v-.33h.288c.418 0 .708-.053.869-.158.16-.105.263-.27.306-.492.043-.223.065-.742.065-1.557v-4.78c0-.776-.022-1.277-.065-1.502-.043-.225-.14-.381-.288-.467-.15-.087-.471-.13-.966-.13h-.209zM95.45 13.264h-.446l-3.373-7.75a19.251 19.251 0 0 1-.295-.718c-.188-.46-.385-.77-.591-.927-.207-.158-.54-.242-1.002-.252v-.33h4.209v.33c-.524 0-.876.039-1.056.115-.18.077-.27.223-.27.439 0 .139.112.465.338.977l2.811 6.47 2.256-5.384c.38-.901.57-1.488.57-1.761 0-.551-.393-.837-1.176-.856v-.33h2.984v.33c-.303.01-.57.118-.8.324-.23.206-.43.508-.598.905l-.656 1.531-2.904 6.887zM109.032 10h.346l-.21 3.034h-8.092v-.33h.201c.486 0 .8-.066.941-.195a.873.873 0 0 0 .27-.492c.039-.2.058-.706.058-1.52v-4.78c0-.744-.02-1.232-.061-1.467-.041-.235-.135-.4-.282-.493-.146-.093-.455-.14-.926-.14v-.33h6.984l.23 2.43h-.338c-.154-.681-.343-1.164-.566-1.45-.223-.284-.489-.464-.796-.538-.308-.075-.803-.112-1.485-.112h-1.355v4.09h1.038c.476 0 .808-.04.998-.122a.64.64 0 0 0 .375-.37c.06-.165.09-.488.09-.967h.339v3.335h-.339c0-.541-.046-.904-.137-1.089a.66.66 0 0 0-.4-.359c-.175-.055-.472-.083-.89-.083h-1.074v2.308c0 1.155.075 1.834.224 2.038.148.203.55.305 1.203.305h.728c.514 0 .937-.066 1.268-.198.332-.131.648-.402.948-.812.3-.41.537-.974.71-1.693M113.324 8.002c.36-.01.732-.024 1.117-.043.384-.02.718-.072 1.001-.158.284-.087.513-.212.689-.378.175-.165.313-.382.414-.65.1-.269.151-.6.151-.992 0-.685-.171-1.234-.515-1.646-.343-.412-1.092-.618-2.245-.618-.178 0-.382.01-.612.028v4.457zm7.387 5.032h-2.63c-.467-.326-1.18-1.18-2.141-2.56-.308-.44-.627-.863-.959-1.268-.331-.405-.56-.652-.684-.74-.126-.089-.32-.133-.584-.133h-.39v2.163c0 .767.019 1.27.055 1.506.036.237.132.414.288.529.156.115.455.172.897.172h.469v.33h-4.678v-.33h.317c.418 0 .708-.053.869-.158.16-.105.263-.27.306-.492.043-.223.065-.742.065-1.557v-4.78c0-.776-.022-1.277-.065-1.502-.043-.225-.14-.381-.288-.467-.15-.087-.471-.13-.966-.13h-.166v-.33l1.399-.072a50.732 50.732 0 0 1 2.22-.065c.931 0 1.69.086 2.273.259.584.172 1.056.455 1.416.848.36.393.54.863.54 1.409 0 .637-.235 1.181-.706 1.632-.47.45-1.162.73-2.075.84.408.197 1.066.906 1.975 2.128.74.992 1.32 1.642 1.744 1.948.422.307.922.47 1.499.49v.33zM121.737 12.933V9.8h.36c.41 2.042 1.377 3.062 2.905 3.062.687 0 1.22-.195 1.597-.586.377-.39.565-.827.565-1.311 0-.49-.165-.899-.497-1.23-.331-.325-.937-.675-1.816-1.05-.783-.334-1.374-.628-1.773-.88a2.687 2.687 0 0 1-1.268-2.268c0-.694.241-1.273.724-1.736.483-.462 1.094-.693 1.834-.693.413 0 .802.067 1.168.201.365.134.74.412 1.124.834a1.54 1.54 0 0 0 .375-.855h.317v2.551h-.317c-.183-.742-.506-1.327-.97-1.754-.464-.426-1-.64-1.61-.64-.582 0-1.008.158-1.28.472-.271.313-.407.657-.407 1.031 0 .45.17.831.512 1.143.336.316.944.67 1.823 1.064.84.374 1.452.674 1.834.902.382.228.688.543.92.945.23.403.345.868.345 1.395 0 .834-.279 1.512-.836 2.034-.557.522-1.302.783-2.234.783-1.072 0-1.965-.41-2.681-1.229-.159.226-.276.542-.353.95h-.36zM135.276 9.116l-1.73-4.155-1.723 4.155h3.453zm.122.324h-3.711l-.253.618c-.375.896-.562 1.48-.562 1.754 0 .292.1.514.3.665.198.15.454.226.767.226v.33h-2.905v-.33c.433-.067.755-.22.966-.456.211-.238.466-.737.764-1.5.024-.071.14-.349.346-.833l2.84-6.764h.28l3.265 7.742.447 1.02c.101.23.237.411.407.543.17.132.427.215.768.248v.33h-3.841v-.33c.47 0 .789-.035.955-.104.165-.07.248-.207.248-.413 0-.106-.11-.42-.331-.942l-.75-1.804zM147.963 10.166l-.072 2.868h-8.302v-.33h.288c.418 0 .707-.054.868-.16.161-.104.265-.269.31-.491.046-.223.069-.742.069-1.557v-4.78c0-.776-.023-1.277-.069-1.502-.045-.225-.141-.381-.288-.467-.147-.087-.467-.13-.962-.13h-.216v-.33h4.691v.33h-.432c-.48 0-.795.04-.944.119-.15.079-.249.226-.3.442-.05.215-.075.728-.075 1.538v5.104c0 .704.02 1.145.058 1.322a.614.614 0 0 0 .313.414c.17.098.537.147 1.1.147h.742c.6 0 1.046-.053 1.337-.158.29-.105.566-.335.828-.69.262-.355.501-.918.717-1.69h.34zM66.956 22.96h.742c.598 0 1.08-.06 1.448-.179.367-.12.673-.37.918-.752s.368-.853.368-1.413c0-.855-.21-1.483-.632-1.883-.42-.4-1.104-.6-2.048-.6-.347 0-.613.011-.796.031v4.797zm0 .383v2.176c0 .815.019 1.348.057 1.6.038.252.142.44.31.562.169.122.485.183.95.183h.344v.351h-4.755v-.351h.276c.444 0 .751-.056.922-.168.171-.112.28-.286.326-.523.046-.237.069-.788.069-1.654V20.44c0-.824-.023-1.357-.07-1.596-.045-.24-.147-.405-.305-.496-.159-.092-.5-.138-1.027-.138h-.191v-.351l1.302-.046a75.987 75.987 0 0 1 2.435-.053c1.072 0 1.897.084 2.477.252.58.168 1.054.465 1.424.893.37.428.555.968.555 1.62 0 .565-.126 1.064-.379 1.496a2.433 2.433 0 0 1-1.087.986c-.472.224-1.303.336-2.493.336h-1.14zM75.88 22.87c.383-.011.778-.026 1.187-.047.408-.02.763-.076 1.064-.168.302-.091.545-.225.732-.4.186-.176.333-.407.44-.692.107-.285.16-.636.16-1.054 0-.728-.182-1.311-.547-1.749-.365-.438-1.16-.657-2.385-.657-.189 0-.406.01-.65.03v4.736zm7.849 5.345h-2.795c-.495-.346-1.253-1.252-2.274-2.719a21.969 21.969 0 0 0-1.019-1.348c-.352-.43-.595-.692-.727-.786-.133-.094-.34-.142-.62-.142h-.414v2.3c0 .814.02 1.347.058 1.6.038.251.14.438.306.56.166.123.483.184.953.184h.498v.351h-4.97v-.351h.337c.444 0 .752-.056.923-.168.17-.112.28-.286.325-.523.046-.237.07-.788.07-1.654V20.44c0-.824-.024-1.356-.07-1.596-.046-.24-.148-.405-.306-.496-.158-.092-.5-.138-1.026-.138h-.176v-.351l1.485-.077c.99-.045 1.777-.068 2.359-.068.99 0 1.795.091 2.416.275.62.183 1.122.483 1.504.9.383.418.575.917.575 1.498 0 .677-.25 1.255-.75 1.734-.501.478-1.236.776-2.206.893.434.209 1.133.963 2.098 2.26.786 1.055 1.404 1.745 1.853 2.07.45.326.98.5 1.593.52v.351zM85.172 23.022c0 1.665.333 2.915 1 3.75.666.835 1.665 1.252 2.997 1.252 1.17 0 2.093-.417 2.772-1.252.68-.835 1.019-2.08 1.019-3.735 0-1.609-.335-2.842-1.003-3.7-.67-.858-1.64-1.287-2.91-1.287-1.251 0-2.21.419-2.876 1.256-.666.838-.999 2.076-.999 3.716m-1.753-.054c0-1.598.536-2.881 1.608-3.849 1.072-.967 2.41-1.451 4.012-1.451 1.618 0 2.97.479 4.055 1.436 1.084.957 1.627 2.263 1.627 3.918 0 1.604-.52 2.902-1.558 3.895-1.04.993-2.406 1.49-4.101 1.49-1.649 0-3.002-.497-4.058-1.49-1.057-.993-1.585-2.31-1.585-3.949M99.28 22.96h.743c.598 0 1.08-.06 1.448-.179.367-.12.673-.37.918-.752s.368-.853.368-1.413c0-.855-.21-1.483-.632-1.883-.42-.4-1.104-.6-2.048-.6-.347 0-.613.011-.796.031v4.797zm0 .383v2.176c0 .815.02 1.348.058 1.6.038.252.142.44.31.562.169.122.485.183.95.183h.344v.351h-4.755v-.351h.276c.444 0 .751-.056.922-.168.171-.112.28-.286.326-.523.046-.237.069-.788.069-1.654V20.44c0-.824-.023-1.357-.07-1.596-.045-.24-.147-.405-.306-.496-.158-.092-.5-.138-1.026-.138h-.191v-.351l1.302-.046a75.986 75.986 0 0 1 2.435-.053c1.072 0 1.897.084 2.477.252.58.168 1.054.465 1.424.893.37.428.555.968.555 1.62 0 .565-.126 1.064-.379 1.496a2.434 2.434 0 0 1-1.087.986c-.472.224-1.303.336-2.492.336H99.28zM113.603 24.992h.368l-.222 3.223h-8.6v-.351h.215c.516 0 .849-.069 1-.206a.927.927 0 0 0 .287-.523c.04-.212.06-.75.06-1.616V20.44c0-.789-.021-1.308-.064-1.558-.044-.25-.143-.424-.299-.523-.156-.1-.484-.149-.984-.149v-.351h7.42l.245 2.581h-.36c-.163-.723-.363-1.236-.6-1.539-.238-.303-.52-.493-.847-.572-.327-.08-.853-.119-1.577-.119h-1.44v4.346h1.103c.505 0 .859-.043 1.06-.13.202-.086.335-.218.398-.393.064-.176.096-.518.096-1.027h.36v3.543h-.36c0-.575-.048-.96-.145-1.157a.702.702 0 0 0-.425-.382c-.187-.058-.502-.087-.946-.087h-1.141v2.451c0 1.227.08 1.949.237 2.165.159.217.585.325 1.28.325h.773c.546 0 .995-.07 1.347-.21.353-.14.688-.428 1.007-.863.32-.435.57-1.035.754-1.799M118.163 22.87c.383-.011.779-.026 1.187-.047.408-.02.763-.076 1.065-.168a1.82 1.82 0 0 0 .73-.4c.187-.176.334-.407.441-.692.107-.285.16-.636.16-1.054 0-.728-.182-1.311-.547-1.749-.365-.438-1.16-.657-2.385-.657-.189 0-.406.01-.65.03v4.736zm7.85 5.345h-2.796c-.495-.346-1.253-1.252-2.274-2.719a22.003 22.003 0 0 0-1.019-1.348c-.352-.43-.594-.692-.727-.786-.133-.094-.34-.142-.62-.142h-.414v2.3c0 .814.02 1.347.058 1.6.038.251.14.438.306.56.166.123.484.184.953.184h.498v.351h-4.97v-.351h.337c.445 0 .752-.056.923-.168.171-.112.28-.286.326-.523.046-.237.068-.788.068-1.654V20.44c0-.824-.022-1.356-.068-1.596-.046-.24-.149-.405-.307-.496-.158-.092-.5-.138-1.026-.138h-.176v-.351l1.486-.077c.99-.045 1.776-.068 2.358-.068.99 0 1.796.091 2.416.275.62.183 1.122.483 1.505.9.382.418.574.917.574 1.498 0 .677-.25 1.255-.75 1.734-.5.478-1.236.776-2.206.893.434.209 1.133.963 2.098 2.26.786 1.055 1.404 1.745 1.853 2.07.45.326.98.5 1.593.52v.351zM125.35 20.349h-.353l.054-2.49h10.077l.054 2.49h-.33c-.117-.683-.278-1.175-.482-1.478-.204-.303-.424-.489-.659-.558-.234-.068-.635-.103-1.202-.103h-1.67v7.31c0 .809.02 1.341.058 1.596.039.254.142.442.31.565.169.122.485.183.95.183h.505v.351h-5.176v-.351h.536c.444 0 .752-.056.923-.168.17-.112.28-.286.329-.523.048-.237.073-.788.073-1.654V18.21h-1.54c-.668 0-1.117.032-1.347.096-.23.063-.446.256-.647.576-.202.321-.356.81-.463 1.467M141.602 23.686l2.045-3.429c.337-.56.505-.957.505-1.191 0-.214-.09-.41-.268-.589-.179-.178-.498-.267-.957-.267v-.351h3.392v.351c-.47.066-.849.24-1.137.523-.289.283-.657.796-1.106 1.54l-2.328 3.872v1.374c0 .881.027 1.443.08 1.684.054.242.168.413.345.512.176.1.522.149 1.037.149v.351h-4.426v-.351h.169c.444 0 .751-.056.922-.168.171-.112.28-.287.326-.523.046-.237.069-.788.069-1.654v-1.275l-2.588-4.239c-.526-.855-.876-1.366-1.05-1.531-.173-.166-.484-.254-.934-.264v-.351h4.212v.351c-.786 0-1.18.178-1.18.535 0 .142.13.428.391.855l2.481 4.086zM67.364 33.338c.265-.154.397-.32.397-.5a.443.443 0 0 0-.023-.145.327.327 0 0 0-.065-.114.291.291 0 0 0-.103-.073.327.327 0 0 0-.13-.026.293.293 0 0 0-.23.095.335.335 0 0 0-.085.235c0 .13.08.305.24.528zm-.198.24a1.037 1.037 0 0 0-.319.296.592.592 0 0 0-.113.326c0 .163.066.317.196.46.131.144.28.216.444.216.183 0 .352-.09.51-.27a28.18 28.18 0 0 0-.389-.575 13.54 13.54 0 0 0-.329-.454zm.854-.188h.849v.09a.687.687 0 0 0-.282.155c-.078.07-.16.21-.246.417-.07.17-.136.294-.196.371.142.203.253.331.333.384a.46.46 0 0 0 .258.08c.124 0 .22-.058.287-.175h.091a.46.46 0 0 1-.178.263.515.515 0 0 1-.313.099c-.258 0-.484-.13-.68-.388-.231.259-.477.388-.737.388a.776.776 0 0 1-.694-.436.637.637 0 0 1-.061-.298.65.65 0 0 1 .134-.417c.09-.112.264-.254.522-.427-.155-.214-.232-.409-.232-.583a.51.51 0 0 1 .158-.366.53.53 0 0 1 .399-.162c.144 0 .273.04.386.12a.373.373 0 0 1 .173.317c0 .203-.19.4-.571.591a38.539 38.539 0 0 1 .666.921c.075-.104.135-.212.178-.326a.787.787 0 0 0 .066-.265c0-.151-.103-.239-.31-.263v-.09zM73.09 34.002h.085v.94h-.085a.72.72 0 0 0-.13-.283c-.236.266-.538.399-.905.399-.388 0-.706-.123-.952-.368-.247-.245-.37-.57-.37-.972 0-.265.057-.515.17-.749a1.15 1.15 0 0 1 .476-.52c.204-.114.427-.17.67-.17.201 0 .383.04.546.123.163.083.285.174.366.274a.978.978 0 0 0 .103-.348h.087l.024 1.016h-.085c-.06-.361-.181-.612-.364-.753a.989.989 0 0 0-.62-.212.787.787 0 0 0-.67.342c-.166.228-.249.555-.249.979 0 .402.09.71.272.924a.85.85 0 0 0 .675.321c.144 0 .292-.035.442-.105.151-.07.27-.188.358-.354.088-.167.14-.328.156-.484M75.364 33.931l-.476-1.142-.474 1.142h.95zm.033.09h-1.02l-.07.17c-.103.246-.154.406-.154.481 0 .08.027.142.082.183a.34.34 0 0 0 .211.063v.09h-.799v-.09a.431.431 0 0 0 .266-.126c.058-.065.128-.203.21-.412.007-.02.038-.096.095-.23L75 32.29h.077l.898 2.13.123.28a.373.373 0 0 0 .112.15.408.408 0 0 0 .211.068v.09h-1.056v-.09c.13 0 .217-.01.262-.03.046-.018.069-.056.069-.113 0-.029-.03-.115-.092-.259l-.206-.496zM76.831 34.98v-.861h.1c.111.561.378.842.798.842.189 0 .335-.054.439-.161a.508.508 0 0 0 .155-.36.458.458 0 0 0-.136-.339c-.091-.09-.258-.186-.5-.288a3.652 3.652 0 0 1-.487-.243.74.74 0 0 1-.35-.623c0-.191.067-.35.2-.478a.7.7 0 0 1 .504-.19c.114 0 .221.018.322.055.1.037.203.113.309.23a.423.423 0 0 0 .103-.236h.087v.702h-.087a.942.942 0 0 0-.267-.483.635.635 0 0 0-.443-.176c-.16 0-.277.044-.351.13a.424.424 0 0 0-.113.284.41.41 0 0 0 .141.314c.093.087.26.185.502.292.23.103.399.186.504.249.105.062.19.149.253.26.063.11.095.238.095.383 0 .23-.077.416-.23.56-.153.143-.358.215-.614.215a.939.939 0 0 1-.738-.338.672.672 0 0 0-.097.26h-.099zM81.143 32.328h.897v.09a.487.487 0 0 0-.266.081.274.274 0 0 0-.108.153c-.014.057-.02.167-.02.33v.892c0 .228-.009.397-.027.508a.704.704 0 0 1-.154.326.87.87 0 0 1-.36.255 1.405 1.405 0 0 1-.535.095c-.24 0-.442-.04-.608-.122a.774.774 0 0 1-.354-.314c-.071-.128-.106-.3-.106-.517l.001-.275v-.834c0-.213-.006-.351-.018-.413-.013-.062-.04-.105-.08-.128-.04-.024-.128-.036-.264-.036h-.062v-.091h1.227v.09h-.053c-.132 0-.22.012-.26.034-.04.021-.068.062-.082.121-.014.06-.021.2-.021.423v.844c0 .293.013.5.04.623.028.122.104.23.23.321.125.092.292.137.5.137.165 0 .314-.03.448-.091a.729.729 0 0 0 .3-.23.651.651 0 0 0 .119-.282c.015-.097.022-.25.022-.458v-.913a1.34 1.34 0 0 0-.026-.319.246.246 0 0 0-.11-.144.599.599 0 0 0-.27-.065v-.091zM83.785 33.931l-.475-1.142-.474 1.142h.95zm.034.09h-1.02l-.07.17c-.103.246-.155.406-.155.481 0 .08.028.142.083.183a.34.34 0 0 0 .21.063v.09h-.798v-.09a.431.431 0 0 0 .266-.126c.058-.065.128-.203.21-.412.006-.02.038-.096.095-.23l.78-1.86h.078l.898 2.13.123.28a.374.374 0 0 0 .112.15.409.409 0 0 0 .21.068v.09h-1.056v-.09c.13 0 .217-.01.263-.03.045-.018.068-.056.068-.113 0-.029-.03-.115-.091-.259l-.206-.496zM87.437 34.22l-.02.789h-2.283v-.091h.079c.115 0 .194-.015.239-.044a.202.202 0 0 0 .085-.135c.013-.062.019-.204.019-.428v-1.315c0-.213-.006-.351-.019-.413s-.039-.105-.08-.129c-.04-.023-.128-.035-.264-.035h-.06v-.091h1.291v.091h-.119c-.132 0-.219.01-.26.033-.04.021-.068.062-.082.121-.014.06-.02.2-.02.423V34.4c0 .193.005.315.015.363.01.05.04.087.086.114.047.027.148.04.303.04h.204c.165 0 .287-.014.367-.043a.514.514 0 0 0 .228-.19c.072-.097.138-.252.198-.464h.093zM87.64 32.972h-.092l.014-.644h2.609l.013.644H90.1c-.03-.176-.072-.304-.125-.382-.053-.078-.11-.127-.17-.144a1.248 1.248 0 0 0-.311-.027h-.432v1.892c0 .21.005.347.015.413a.21.21 0 0 0 .08.146c.043.032.125.048.246.048h.13v.09h-1.34v-.09h.14c.114 0 .194-.015.238-.044a.202.202 0 0 0 .085-.135 2.86 2.86 0 0 0 .02-.428v-1.892h-.4c-.172 0-.289.008-.348.025-.06.016-.115.066-.168.149-.052.083-.092.21-.12.38M92.009 33.836l.529-.887c.087-.145.13-.248.13-.309a.211.211 0 0 0-.069-.152c-.046-.046-.129-.069-.248-.069v-.091h.878v.091a.508.508 0 0 0-.294.135 2.17 2.17 0 0 0-.286.399l-.603 1.002v.356c0 .228.007.373.021.436a.19.19 0 0 0 .09.132c.045.026.134.039.268.039v.09h-1.146v-.09h.044c.115 0 .194-.015.239-.044a.198.198 0 0 0 .084-.135 3.03 3.03 0 0 0 .018-.428v-.33l-.67-1.098c-.136-.22-.227-.353-.272-.396-.045-.043-.125-.065-.242-.068v-.091h1.09v.091c-.203 0-.305.046-.305.138 0 .037.034.111.101.222l.643 1.057zM94.755 32.419v-.091h1.229v.091h-.058c-.132 0-.218.01-.26.033-.04.021-.068.062-.082.121-.013.06-.02.2-.02.423v1.315c0 .21.005.349.014.414a.21.21 0 0 0 .08.145c.043.032.125.048.247.048h.079v.09h-1.229v-.09h.08c.114 0 .194-.015.238-.044a.198.198 0 0 0 .084-.135c.012-.062.018-.204.018-.428v-1.315c0-.213-.006-.351-.018-.413-.012-.062-.038-.105-.079-.128-.04-.024-.13-.036-.265-.036h-.058zM98.789 35.07l-1.9-2.513v1.86c0 .155.007.256.022.305.015.049.059.093.13.134.071.041.178.062.321.062v.09H96.36v-.09a.721.721 0 0 0 .293-.07c.068-.038.108-.079.12-.122.013-.044.02-.146.02-.309v-1.42c0-.206-.01-.344-.03-.414-.019-.07-.049-.115-.09-.134-.042-.02-.135-.03-.28-.03v-.091h.794l1.591 2.097v-1.603a.595.595 0 0 0-.037-.249c-.024-.047-.074-.085-.15-.113a.789.789 0 0 0-.27-.041v-.091h.974v.091a.712.712 0 0 0-.268.065c-.066.034-.107.076-.125.124a.78.78 0 0 0-.027.244v2.218h-.085zM99.77 34.98v-.861h.1c.112.561.378.842.799.842.189 0 .335-.054.439-.161a.508.508 0 0 0 .155-.36.458.458 0 0 0-.137-.339c-.09-.09-.257-.186-.499-.288a3.65 3.65 0 0 1-.488-.243.74.74 0 0 1-.348-.623c0-.191.066-.35.199-.478a.7.7 0 0 1 .504-.19c.114 0 .22.018.321.055.1.037.204.113.31.23a.423.423 0 0 0 .102-.236h.088v.702h-.088a.941.941 0 0 0-.266-.483.634.634 0 0 0-.443-.176c-.16 0-.277.044-.352.13a.424.424 0 0 0-.112.284.41.41 0 0 0 .14.314c.093.087.26.185.502.292.232.103.4.186.505.249.105.062.189.149.252.26.064.11.096.238.096.383 0 .23-.077.416-.23.56-.154.143-.358.215-.615.215a.939.939 0 0 1-.737-.338.672.672 0 0 0-.097.26h-.1zM104.082 32.328h.898v.09a.487.487 0 0 0-.266.081.275.275 0 0 0-.109.153c-.013.057-.02.167-.02.33v.892c0 .228-.008.397-.026.508a.705.705 0 0 1-.155.326.87.87 0 0 1-.36.255 1.406 1.406 0 0 1-.535.095c-.239 0-.441-.04-.607-.122a.774.774 0 0 1-.355-.314c-.07-.128-.106-.3-.106-.517l.002-.275v-.834c0-.213-.006-.351-.019-.413-.012-.062-.039-.105-.079-.128-.04-.024-.128-.036-.265-.036h-.06v-.091h1.226v.09h-.054c-.132 0-.218.012-.26.034-.04.021-.068.062-.082.121-.013.06-.02.2-.02.423v.844c0 .293.013.5.04.623.027.122.104.23.23.321.125.092.292.137.5.137.164 0 .313-.03.448-.091a.728.728 0 0 0 .299-.23.651.651 0 0 0 .12-.282c.014-.097.022-.25.022-.458v-.913c0-.152-.01-.258-.026-.319a.247.247 0 0 0-.111-.144.599.599 0 0 0-.27-.065v-.091zM106.19 33.625l.307-.012c.106-.005.197-.02.275-.044a.472.472 0 0 0 .19-.103.466.466 0 0 0 .114-.18.78.78 0 0 0 .041-.272.684.684 0 0 0-.141-.453c-.095-.113-.3-.17-.618-.17-.049 0-.105.003-.168.008v1.226zm2.031 1.383h-.723c-.128-.09-.325-.324-.589-.703a5.682 5.682 0 0 0-.263-.35 1.377 1.377 0 0 0-.189-.203.281.281 0 0 0-.16-.036h-.107v.595c0 .21.005.349.015.414a.21.21 0 0 0 .079.145c.043.032.125.048.247.048h.129v.09h-1.287v-.09h.087c.115 0 .195-.015.24-.044a.198.198 0 0 0 .083-.135c.012-.062.018-.204.018-.428v-1.315c0-.213-.006-.351-.018-.413-.011-.062-.038-.105-.079-.128-.04-.024-.13-.036-.265-.036h-.046v-.091l.385-.02c.256-.012.46-.018.61-.018.256 0 .465.024.625.072.16.047.29.125.39.233.099.108.148.237.148.387a.598.598 0 0 1-.194.45c-.13.123-.32.2-.57.23.112.054.293.25.542.585.204.273.364.452.48.536.116.085.254.13.412.135v.09zM110.15 33.931l-.475-1.142-.474 1.142h.95zm.034.09h-1.02l-.07.17c-.103.246-.154.406-.154.481 0 .08.027.142.082.183a.34.34 0 0 0 .21.063v.09h-.798v-.09a.431.431 0 0 0 .266-.126c.058-.065.128-.203.21-.412.006-.02.038-.096.095-.23l.78-1.86h.078l.898 2.13.123.28a.374.374 0 0 0 .112.15.409.409 0 0 0 .21.068v.09h-1.056v-.09c.13 0 .217-.01.263-.03.046-.018.068-.056.068-.113 0-.029-.03-.115-.09-.259l-.207-.496zM113.883 35.07l-1.9-2.513v1.86c0 .155.007.256.022.305.016.049.059.093.13.134.071.041.179.062.321.062v.09h-1.003v-.09a.721.721 0 0 0 .294-.07c.067-.038.107-.079.12-.122.012-.044.018-.146.018-.309v-1.42c0-.206-.01-.344-.028-.414-.02-.07-.05-.115-.091-.134-.042-.02-.135-.03-.279-.03v-.091h.793l1.591 2.097v-1.603a.595.595 0 0 0-.036-.249c-.025-.047-.075-.085-.15-.113a.789.789 0 0 0-.272-.041v-.091h.976v.091a.712.712 0 0 0-.269.065c-.065.034-.107.076-.125.124a.783.783 0 0 0-.027.244v2.218h-.085zM117.196 34.002h.085v.94h-.085a.72.72 0 0 0-.13-.283c-.236.266-.538.399-.905.399-.388 0-.706-.123-.952-.368-.247-.245-.37-.57-.37-.972 0-.265.057-.515.17-.749a1.15 1.15 0 0 1 .476-.52c.204-.114.427-.17.67-.17.201 0 .383.04.546.123.163.083.285.174.366.274a.98.98 0 0 0 .103-.348h.087l.024 1.016h-.085c-.06-.361-.181-.612-.364-.753a.99.99 0 0 0-.62-.212.787.787 0 0 0-.67.342c-.166.228-.249.555-.249.979 0 .402.09.71.272.924a.85.85 0 0 0 .675.321c.144 0 .292-.035.442-.105.151-.07.27-.188.358-.354.088-.167.14-.328.156-.484M120.068 34.174h.095l-.057.834h-2.226v-.09h.056c.133 0 .22-.018.258-.054a.24.24 0 0 0 .075-.135 3.13 3.13 0 0 0 .016-.418v-1.315c0-.204-.006-.338-.017-.403-.011-.065-.037-.11-.078-.136-.04-.025-.125-.038-.254-.038v-.091h1.92l.064.668h-.094c-.042-.187-.094-.32-.155-.398a.394.394 0 0 0-.219-.148c-.085-.02-.22-.031-.408-.031h-.373v1.125h.285c.131 0 .223-.011.275-.034a.176.176 0 0 0 .103-.102.924.924 0 0 0 .025-.266h.093v.918h-.093c0-.15-.013-.25-.038-.3a.182.182 0 0 0-.11-.099.916.916 0 0 0-.245-.022h-.295v.634c0 .318.02.505.061.56.041.057.152.085.332.085h.2a.954.954 0 0 0 .348-.055.625.625 0 0 0 .261-.223c.083-.113.148-.268.195-.466M124.274 34.002h.085v.94h-.085a.722.722 0 0 0-.13-.283c-.236.266-.538.399-.905.399-.389 0-.706-.123-.952-.368-.247-.245-.37-.57-.37-.972 0-.265.057-.515.17-.749a1.15 1.15 0 0 1 .476-.52c.204-.114.427-.17.67-.17.2 0 .383.04.546.123.163.083.285.174.366.274a.98.98 0 0 0 .103-.348h.087l.024 1.016h-.085c-.06-.361-.181-.612-.364-.753a.989.989 0 0 0-.62-.212.787.787 0 0 0-.67.342c-.166.228-.25.555-.25.979 0 .402.091.71.272.924a.85.85 0 0 0 .676.321c.144 0 .291-.035.442-.105.15-.07.27-.188.358-.354.088-.167.14-.328.156-.484M125.491 33.664c0 .431.086.755.259.97.172.217.43.325.776.325.302 0 .541-.108.717-.324.176-.216.264-.538.264-.967 0-.416-.087-.735-.26-.957-.173-.223-.424-.334-.753-.334-.324 0-.572.109-.744.326-.173.216-.259.537-.259.961m-.454-.014c0-.413.14-.745.417-.996.277-.25.623-.375 1.038-.375.419 0 .769.123 1.05.371.28.248.42.586.42 1.014 0 .415-.134.752-.403 1.008-.269.257-.622.386-1.061.386-.427 0-.777-.129-1.05-.386-.274-.256-.41-.597-.41-1.022M130.254 34.546l.98-2.218h.824v.091h-.1c-.131 0-.218.01-.259.033-.04.021-.068.062-.082.121-.014.06-.02.2-.02.423v1.315c0 .21.004.349.015.414.01.065.037.114.08.145.043.032.125.048.247.048h.119v.09h-1.284v-.09h.095c.113 0 .192-.015.237-.044a.202.202 0 0 0 .085-.135c.012-.062.019-.204.019-.428v-1.706l-1.065 2.403h-.093l-1.072-2.403v1.57c0 .214.007.36.02.438a.34.34 0 0 0 .123.205.48.48 0 0 0 .29.1v.09h-.962v-.09a.49.49 0 0 0 .28-.094.338.338 0 0 0 .132-.207c.016-.082.024-.233.024-.455v-1.166c0-.213-.006-.351-.019-.413s-.039-.105-.08-.128c-.04-.024-.128-.036-.264-.036h-.073v-.091h.818l.985 2.218zM133.272 33.648h.192c.155 0 .28-.015.375-.046a.447.447 0 0 0 .237-.195.664.664 0 0 0 .096-.365c0-.222-.055-.384-.164-.488-.11-.103-.286-.155-.53-.155-.09 0-.159.003-.206.008v1.241zm0 .1v.563c0 .21.005.349.015.414.01.065.036.114.08.145.043.032.125.048.246.048h.089v.09h-1.231v-.09h.071c.115 0 .195-.015.24-.044a.198.198 0 0 0 .083-.135c.012-.062.018-.204.018-.428v-1.315c0-.213-.006-.351-.018-.413-.011-.062-.038-.105-.079-.128-.04-.024-.13-.036-.265-.036h-.05v-.091l.337-.012c.27-.009.48-.014.63-.014.278 0 .491.022.641.066.15.043.273.12.369.23.096.112.144.251.144.42a.755.755 0 0 1-.098.387.63.63 0 0 1-.282.255c-.122.058-.337.087-.645.087h-.295zM136.166 33.931l-.476-1.142-.473 1.142h.949zm.034.09h-1.02l-.07.17c-.103.246-.155.406-.155.481 0 .08.028.142.082.183a.34.34 0 0 0 .211.063v.09h-.798v-.09a.431.431 0 0 0 .265-.126c.058-.065.128-.203.21-.412.007-.02.039-.096.096-.23l.78-1.86h.078l.897 2.13.123.28a.373.373 0 0 0 .112.15.409.409 0 0 0 .211.068v.09h-1.056v-.09c.13 0 .217-.01.263-.03.045-.018.068-.056.068-.113 0-.029-.03-.115-.091-.259l-.206-.496zM139.899 35.07l-1.9-2.513v1.86c0 .155.007.256.022.305.015.049.058.093.13.134.071.041.178.062.32.062v.09h-1.002v-.09a.721.721 0 0 0 .293-.07c.068-.038.108-.079.12-.122.013-.044.02-.146.02-.309v-1.42c0-.206-.01-.344-.03-.414-.019-.07-.05-.115-.09-.134-.042-.02-.135-.03-.28-.03v-.091h.793l1.592 2.097v-1.603a.594.594 0 0 0-.037-.249c-.024-.047-.074-.085-.15-.113a.789.789 0 0 0-.27-.041v-.091h.974v.091a.711.711 0 0 0-.268.065c-.066.034-.107.076-.125.124a.783.783 0 0 0-.027.244v2.218h-.085zM142.175 33.836l.529-.887c.087-.145.13-.248.13-.309a.211.211 0 0 0-.069-.152c-.046-.046-.128-.069-.247-.069v-.091h.878v.091a.508.508 0 0 0-.295.135c-.074.073-.17.206-.286.399l-.602 1.002v.356c0 .228.006.373.02.436a.19.19 0 0 0 .09.132c.045.026.135.039.268.039v.09h-1.145v-.09h.043c.115 0 .195-.015.239-.044a.198.198 0 0 0 .084-.135c.012-.062.018-.204.018-.428v-.33l-.67-1.098c-.136-.22-.226-.353-.271-.396-.045-.043-.126-.065-.242-.068v-.091h1.09v.091c-.204 0-.305.046-.305.138 0 .037.033.111.1.222l.643 1.057z"/>
    </g>
</svg>
