<?xml version="1.0" standalone="no"?>
<!DOCTYPE svg PUBLIC "-//W3C//DTD SVG 20010904//EN"
 "http://www.w3.org/TR/2001/REC-SVG-20010904/DTD/svg10.dtd">
<svg version="1.0" xmlns="http://www.w3.org/2000/svg"
 width="506.000000pt" height="506.000000pt" viewBox="0 0 506.000000 506.000000"
 preserveAspectRatio="xMidYMid meet">
<metadata>
Created by potrace 1.11, written by Peter Selinger 2001-2013
</metadata>
<g transform="translate(0.000000,506.000000) scale(0.100000,-0.100000)"
fill="#000000" stroke="none">
<path d="M1262 4451 c-956 -478 -1223 -616 -1238 -638 -17 -25 -19 -51 -22
-261 l-3 -233 36 -36 c31 -31 40 -35 73 -31 28 4 719 340 839 407 10 6 262
132 560 280 298 149 550 275 560 280 10 6 83 43 163 82 80 40 168 83 195 97
103 51 -3 96 1303 -557 798 -399 1192 -591 1213 -591 22 0 41 10 66 35 l34 34
-3 235 -3 235 -29 30 c-19 20 -425 228 -1240 635 -954 477 -1219 606 -1248
606 -30 0 -297 -129 -1256 -609z"/>
<path d="M1262 3191 c-954 -477 -1223 -616 -1238 -638 -17 -25 -19 -51 -22
-253 -3 -197 -1 -229 14 -257 16 -31 56 -53 95 -53 9 0 112 47 229 105 223
111 245 117 275 71 11 -17 14 -194 14 -1044 0 -562 3 -1032 6 -1042 12 -39 38
-43 318 -42 l270 0 18 23 c18 23 19 83 21 1241 3 1409 -13 1241 132 1319 48
26 89 48 91 48 3 1 230 114 505 251 314 157 512 250 530 250 46 0 1209 -587
1235 -623 20 -28 20 -41 21 -1233 1 -662 5 -1215 8 -1229 11 -43 33 -47 290
-47 313 0 293 -1 316 22 20 20 20 33 20 1055 l0 1036 25 24 c13 14 30 25 38
25 8 0 111 -48 228 -106 240 -118 259 -122 312 -64 l27 30 0 221 c0 230 -5
262 -49 297 -9 7 -560 285 -1224 617 -979 490 -1216 605 -1248 605 -31 0 -271
-116 -1257 -609z"/>
<path d="M2277 1280 c-17 -9 -41 -34 -53 -54 -21 -36 -21 -47 -21 -588 0 -546
0 -551 21 -575 l22 -25 264 0 c146 -1 274 2 286 6 12 3 25 16 31 29 5 13 9
241 8 572 -1 575 -1 574 -44 616 -31 29 -57 33 -269 35 -184 1 -216 -1 -245
-16z"/>
</g>
</svg>
