<?xml version="1.0" encoding="UTF-8"?>
<svg width="60px" height="40px" viewBox="0 0 60 40" version="1.1" xmlns="http://www.w3.org/2000/svg" xmlns:xlink="http://www.w3.org/1999/xlink">
    <!-- Generator: sketchtool 59.1 (101010) - https://sketch.com -->
    <title>B703A555-69A7-4C6B-8F5C-48FC227D4E86</title>
    <desc>Created with sketchtool.</desc>
    <g id="Asset-Artboard-Page" stroke="none" stroke-width="1" fill="none" fill-rule="evenodd">
        <g id="icons-/-home-features-/-burglar-alarm-default" transform="translate(0.200054, 0.000000)">
            <g id="burglar-alarm-icon">
                <polygon id="Fill-1" fill="#FFFFFF" points="0.375 39.6245 58.853 39.6245 58.853 1.3755 0.375 1.3755"></polygon>
                <g id="Group-34" transform="translate(0.000000, 0.998500)">
                    <polygon id="Stroke-2" stroke="#7A7A7A" stroke-width="0.75" stroke-linecap="round" stroke-linejoin="round" points="0.375 38.625 58.854 38.625 58.854 0.376 0.375 0.376"></polygon>
                    <path d="M53.7229,8.4574 C53.7229,9.5754 52.8169,10.4814 51.6989,10.4814 C50.5799,10.4814 49.6739,9.5754 49.6739,8.4574 C49.6739,7.3394 50.5799,6.4324 51.6989,6.4324 C52.8169,6.4324 53.7229,7.3394 53.7229,8.4574" id="Fill-4" fill="#E6E6E6"></path>
                    <path d="M53.7229,8.4574 C53.7229,9.5754 52.8169,10.4814 51.6989,10.4814 C50.5799,10.4814 49.6739,9.5754 49.6739,8.4574 C49.6739,7.3394 50.5799,6.4324 51.6989,6.4324 C52.8169,6.4324 53.7229,7.3394 53.7229,8.4574 Z" id="Stroke-5" stroke="#7A7A7A" stroke-width="0.75" stroke-linecap="round" stroke-linejoin="round"></path>
                    <path d="M46.9758,8.4574 C46.9758,9.5754 46.0688,10.4814 44.9508,10.4814 C43.8318,10.4814 42.9258,9.5754 42.9258,8.4574 C42.9258,7.3394 43.8318,6.4324 44.9508,6.4324 C46.0688,6.4324 46.9758,7.3394 46.9758,8.4574" id="Fill-6" fill="#E6E6E6"></path>
                    <path d="M46.9758,8.4574 C46.9758,9.5754 46.0688,10.4814 44.9508,10.4814 C43.8318,10.4814 42.9258,9.5754 42.9258,8.4574 C42.9258,7.3394 43.8318,6.4324 44.9508,6.4324 C46.0688,6.4324 46.9758,7.3394 46.9758,8.4574 Z" id="Stroke-7" stroke="#7A7A7A" stroke-width="0.75" stroke-linecap="round" stroke-linejoin="round"></path>
                    <path d="M40.2278,8.4574 C40.2278,9.5754 39.3218,10.4814 38.2038,10.4814 C37.0848,10.4814 36.1788,9.5754 36.1788,8.4574 C36.1788,7.3394 37.0848,6.4324 38.2038,6.4324 C39.3218,6.4324 40.2278,7.3394 40.2278,8.4574" id="Fill-8" fill="#E6E6E6"></path>
                    <path d="M40.2278,8.4574 C40.2278,9.5754 39.3218,10.4814 38.2038,10.4814 C37.0848,10.4814 36.1788,9.5754 36.1788,8.4574 C36.1788,7.3394 37.0848,6.4324 38.2038,6.4324 C39.3218,6.4324 40.2278,7.3394 40.2278,8.4574 Z" id="Stroke-9" stroke="#7A7A7A" stroke-width="0.75" stroke-linecap="round" stroke-linejoin="round"></path>
                    <path d="M53.7229,15.9359 C53.7229,17.0539 52.8169,17.9599 51.6989,17.9599 C50.5799,17.9599 49.6739,17.0539 49.6739,15.9359 C49.6739,14.8179 50.5799,13.9109 51.6989,13.9109 C52.8169,13.9109 53.7229,14.8179 53.7229,15.9359" id="Fill-10" fill="#E6E6E6"></path>
                    <path d="M53.7229,15.9359 C53.7229,17.0539 52.8169,17.9599 51.6989,17.9599 C50.5799,17.9599 49.6739,17.0539 49.6739,15.9359 C49.6739,14.8179 50.5799,13.9109 51.6989,13.9109 C52.8169,13.9109 53.7229,14.8179 53.7229,15.9359 Z" id="Stroke-11" stroke="#7A7A7A" stroke-width="0.75" stroke-linecap="round" stroke-linejoin="round"></path>
                    <path d="M46.9758,15.9359 C46.9758,17.0539 46.0688,17.9599 44.9508,17.9599 C43.8318,17.9599 42.9258,17.0539 42.9258,15.9359 C42.9258,14.8179 43.8318,13.9109 44.9508,13.9109 C46.0688,13.9109 46.9758,14.8179 46.9758,15.9359" id="Fill-12" fill="#E6E6E6"></path>
                    <path d="M46.9758,15.9359 C46.9758,17.0539 46.0688,17.9599 44.9508,17.9599 C43.8318,17.9599 42.9258,17.0539 42.9258,15.9359 C42.9258,14.8179 43.8318,13.9109 44.9508,13.9109 C46.0688,13.9109 46.9758,14.8179 46.9758,15.9359 Z" id="Stroke-13" stroke="#7A7A7A" stroke-width="0.75" stroke-linecap="round" stroke-linejoin="round"></path>
                    <path d="M40.2278,15.9359 C40.2278,17.0539 39.3218,17.9599 38.2038,17.9599 C37.0848,17.9599 36.1788,17.0539 36.1788,15.9359 C36.1788,14.8179 37.0848,13.9109 38.2038,13.9109 C39.3218,13.9109 40.2278,14.8179 40.2278,15.9359" id="Fill-14" fill="#E6E6E6"></path>
                    <path d="M40.2278,15.9359 C40.2278,17.0539 39.3218,17.9599 38.2038,17.9599 C37.0848,17.9599 36.1788,17.0539 36.1788,15.9359 C36.1788,14.8179 37.0848,13.9109 38.2038,13.9109 C39.3218,13.9109 40.2278,14.8179 40.2278,15.9359 Z" id="Stroke-15" stroke="#7A7A7A" stroke-width="0.75" stroke-linecap="round" stroke-linejoin="round"></path>
                    <path d="M53.7229,23.4144 C53.7229,24.5324 52.8169,25.4384 51.6989,25.4384 C50.5799,25.4384 49.6739,24.5324 49.6739,23.4144 C49.6739,22.2964 50.5799,21.3894 51.6989,21.3894 C52.8169,21.3894 53.7229,22.2964 53.7229,23.4144" id="Fill-16" fill="#E6E6E6"></path>
                    <path d="M53.7229,23.4144 C53.7229,24.5324 52.8169,25.4384 51.6989,25.4384 C50.5799,25.4384 49.6739,24.5324 49.6739,23.4144 C49.6739,22.2964 50.5799,21.3894 51.6989,21.3894 C52.8169,21.3894 53.7229,22.2964 53.7229,23.4144 Z" id="Stroke-17" stroke="#7A7A7A" stroke-width="0.75" stroke-linecap="round" stroke-linejoin="round"></path>
                    <path d="M46.9758,23.4144 C46.9758,24.5324 46.0688,25.4384 44.9508,25.4384 C43.8318,25.4384 42.9258,24.5324 42.9258,23.4144 C42.9258,22.2964 43.8318,21.3894 44.9508,21.3894 C46.0688,21.3894 46.9758,22.2964 46.9758,23.4144" id="Fill-18" fill="#E6E6E6"></path>
                    <path d="M46.9758,23.4144 C46.9758,24.5324 46.0688,25.4384 44.9508,25.4384 C43.8318,25.4384 42.9258,24.5324 42.9258,23.4144 C42.9258,22.2964 43.8318,21.3894 44.9508,21.3894 C46.0688,21.3894 46.9758,22.2964 46.9758,23.4144 Z" id="Stroke-19" stroke="#7A7A7A" stroke-width="0.75" stroke-linecap="round" stroke-linejoin="round"></path>
                    <path d="M40.2278,23.4144 C40.2278,24.5324 39.3218,25.4384 38.2038,25.4384 C37.0848,25.4384 36.1788,24.5324 36.1788,23.4144 C36.1788,22.2964 37.0848,21.3894 38.2038,21.3894 C39.3218,21.3894 40.2278,22.2964 40.2278,23.4144" id="Fill-20" fill="#E6E6E6"></path>
                    <path d="M40.2278,23.4144 C40.2278,24.5324 39.3218,25.4384 38.2038,25.4384 C37.0848,25.4384 36.1788,24.5324 36.1788,23.4144 C36.1788,22.2964 37.0848,21.3894 38.2038,21.3894 C39.3218,21.3894 40.2278,22.2964 40.2278,23.4144 Z" id="Stroke-21" stroke="#7A7A7A" stroke-width="0.75" stroke-linecap="round" stroke-linejoin="round"></path>
                    <path d="M53.7229,30.8929 C53.7229,32.0109 52.8169,32.9169 51.6989,32.9169 C50.5799,32.9169 49.6739,32.0109 49.6739,30.8929 C49.6739,29.7749 50.5799,28.8679 51.6989,28.8679 C52.8169,28.8679 53.7229,29.7749 53.7229,30.8929" id="Fill-22" fill="#E6E6E6"></path>
                    <path d="M53.7229,30.8929 C53.7229,32.0109 52.8169,32.9169 51.6989,32.9169 C50.5799,32.9169 49.6739,32.0109 49.6739,30.8929 C49.6739,29.7749 50.5799,28.8679 51.6989,28.8679 C52.8169,28.8679 53.7229,29.7749 53.7229,30.8929 Z" id="Stroke-23" stroke="#7A7A7A" stroke-width="0.75" stroke-linecap="round" stroke-linejoin="round"></path>
                    <path d="M46.9758,30.8929 C46.9758,32.0109 46.0688,32.9169 44.9508,32.9169 C43.8318,32.9169 42.9258,32.0109 42.9258,30.8929 C42.9258,29.7749 43.8318,28.8679 44.9508,28.8679 C46.0688,28.8679 46.9758,29.7749 46.9758,30.8929" id="Fill-24" fill="#E6E6E6"></path>
                    <path d="M46.9758,30.8929 C46.9758,32.0109 46.0688,32.9169 44.9508,32.9169 C43.8318,32.9169 42.9258,32.0109 42.9258,30.8929 C42.9258,29.7749 43.8318,28.8679 44.9508,28.8679 C46.0688,28.8679 46.9758,29.7749 46.9758,30.8929 Z" id="Stroke-25" stroke="#7A7A7A" stroke-width="0.75" stroke-linecap="round" stroke-linejoin="round"></path>
                    <path d="M40.2278,30.8929 C40.2278,32.0109 39.3218,32.9169 38.2038,32.9169 C37.0848,32.9169 36.1788,32.0109 36.1788,30.8929 C36.1788,29.7749 37.0848,28.8679 38.2038,28.8679 C39.3218,28.8679 40.2278,29.7749 40.2278,30.8929" id="Fill-26" fill="#E6E6E6"></path>
                    <path d="M40.2278,30.8929 C40.2278,32.0109 39.3218,32.9169 38.2038,32.9169 C37.0848,32.9169 36.1788,32.0109 36.1788,30.8929 C36.1788,29.7749 37.0848,28.8679 38.2038,28.8679 C39.3218,28.8679 40.2278,29.7749 40.2278,30.8929 Z" id="Stroke-27" stroke="#7A7A7A" stroke-width="0.75" stroke-linecap="round" stroke-linejoin="round"></path>
                    <polygon id="Fill-28" fill="#E6E6E6" points="5.397 16.594 31.085 16.594 31.085 5.723 5.397 5.723"></polygon>
                    <polygon id="Stroke-29" stroke="#7A7A7A" stroke-width="0.75" stroke-linecap="round" stroke-linejoin="round" points="5.397 16.594 31.085 16.594 31.085 5.723 5.397 5.723"></polygon>
                    <line x1="5.9094" y1="28.1527" x2="31.0864" y2="28.1527" id="Stroke-30" stroke="#7A7A7A" stroke-width="0.75" stroke-linecap="round" stroke-linejoin="round"></line>
                    <line x1="5.9094" y1="31.7249" x2="31.0864" y2="31.7249" id="Stroke-31" stroke="#7A7A7A" stroke-width="0.75" stroke-linecap="round" stroke-linejoin="round"></line>
                    <line x1="5.9094" y1="24.2679" x2="31.0864" y2="24.2679" id="Stroke-32" stroke="#7A7A7A" stroke-width="0.75" stroke-linecap="round" stroke-linejoin="round"></line>
                    <line x1="5.9094" y1="20.3822" x2="31.0864" y2="20.3822" id="Stroke-33" stroke="#7A7A7A" stroke-width="0.75" stroke-linecap="round" stroke-linejoin="round"></line>
                </g>
            </g>
        </g>
    </g>
</svg>