<?xml version="1.0" encoding="UTF-8"?>
<svg width="55px" height="40px" viewBox="0 0 55 40" version="1.1" xmlns="http://www.w3.org/2000/svg" xmlns:xlink="http://www.w3.org/1999/xlink">
    <!-- Generator: sketchtool 59.1 (101010) - https://sketch.com -->
    <title>386B7E19-D2BB-488B-B79A-632E4213B68F</title>
    <desc>Created with sketchtool.</desc>
    <g id="Asset-Artboard-Page" stroke="none" stroke-width="1" fill="none" fill-rule="evenodd">
        <g id="icons-/-home-features-/-gas-detetection-selected">
            <g id="gas-icon">
                <polygon id="Fill-1" fill="#FFDF2A" points="44.554 36.0037 54.147 36.0037 54.147 24.7587 44.554 24.7587"></polygon>
                <polygon id="Stroke-2" stroke="#7A7A7A" stroke-width="0.75" stroke-linecap="round" stroke-linejoin="round" points="44.554 36.0037 54.147 36.0037 54.147 24.7587 44.554 24.7587"></polygon>
                <polygon id="Fill-4" fill="#FFDF2A" points="0.375 36.0037 9.968 36.0037 9.968 24.7587 0.375 24.7587"></polygon>
                <polygon id="Stroke-5" stroke="#7A7A7A" stroke-width="0.75" stroke-linecap="round" stroke-linejoin="round" points="0.375 36.0037 9.968 36.0037 9.968 24.7587 0.375 24.7587"></polygon>
                <polygon id="Fill-7" fill="#FFFFFF" points="29.8071 21.9287 30.8871 26.5677 25.2841 32.9127 26.5631 26.5677 23.0631 21.9287 9.9681 21.9287 9.9681 38.8337 44.5531 38.8337 44.5531 21.9287"></polygon>
                <g id="Group-14" transform="translate(9.000000, 0.208700)">
                    <polygon id="Stroke-8" stroke="#7A7A7A" stroke-width="0.75" stroke-linecap="round" stroke-linejoin="round" points="20.8068 21.7198 20.8068 21.7198 21.8868 26.3588 16.2838 32.7038 17.5638 26.3588 14.0638 21.7198 0.9678 21.7198 0.9678 38.6248 35.5528 38.6248 35.5528 21.7198"></polygon>
                    <path d="M23.631,5.1437 C22.611,4.1237 21.203,3.7377 19.884,3.9727 C19.586,3.2407 19.139,2.5527 18.545,1.9577 C16.156,-0.4303 12.283,-0.4303 9.895,1.9577 C7.506,4.3467 7.505,8.2197 9.895,10.6087 C10.972,11.6867 12.355,12.2517 13.764,12.3567 L17.748,21.1547 L21.668,12.2367 C22.387,12.0557 23.07,11.7017 23.631,11.1397 C25.287,9.4837 25.287,6.7987 23.631,5.1437" id="Fill-10" fill="#FFDF2A"></path>
                    <path d="M23.631,5.1437 C22.611,4.1237 21.203,3.7377 19.884,3.9727 C19.586,3.2407 19.139,2.5527 18.545,1.9577 C16.156,-0.4303 12.283,-0.4303 9.895,1.9577 C7.506,4.3467 7.505,8.2197 9.895,10.6087 C10.972,11.6867 12.355,12.2517 13.764,12.3567 L17.748,21.1547 L21.668,12.2367 C22.387,12.0557 23.07,11.7017 23.631,11.1397 C25.287,9.4837 25.287,6.7987 23.631,5.1437 Z" id="Stroke-12" stroke="#7A7A7A" stroke-width="0.75" stroke-linecap="round" stroke-linejoin="round"></path>
                </g>
            </g>
        </g>
    </g>
</svg>