<?xml version="1.0" encoding="UTF-8"?>
<svg width="46px" height="50px" viewBox="0 0 46 50" version="1.1" xmlns="http://www.w3.org/2000/svg" xmlns:xlink="http://www.w3.org/1999/xlink">
    <!-- Generator: sketchtool 59.1 (101010) - https://sketch.com -->
    <title>4646DF9A-6707-4B7A-AC58-1FE1039B5625</title>
    <desc>Created with sketchtool.</desc>
    <g id="Asset-Artboard-Page" stroke="none" stroke-width="1" fill="none" fill-rule="evenodd">
        <g id="icons-/-home-features-/-gated-selected">
            <g id="gated-icon">
                <polygon id="Fill-1" fill="#FFFFFF" points="5.0409 18.1033 6.6519 19.7163 38.8619 19.8573 40.5569 18.1613 22.7689 0.3753"></polygon>
                <polyline id="Stroke-2" stroke="#7A7A7A" stroke-width="0.75" stroke-linecap="round" stroke-linejoin="round" points="6.6521 19.7158 5.0411 18.1038 22.7691 0.3748 40.5561 18.1618 38.8621 19.8578"></polyline>
                <polygon id="Fill-4" fill="#FFFFFF" points="6.6519 19.7161 6.6519 48.6411 38.8859 48.6841 38.8859 19.7161 22.7689 3.5991"></polygon>
                <g id="Group-39" transform="translate(0.000000, 2.634800)">
                    <polyline id="Stroke-5" stroke="#7A7A7A" stroke-width="0.75" stroke-linecap="round" stroke-linejoin="round" points="6.6521 46.0068 6.6521 17.0808 22.7691 0.9638 38.8861 17.0808 38.8861 46.0498"></polyline>
                    <polygon id="Fill-7" fill="#C3C3C3" points="22.7986 1.1747 6.6526 17.0807 6.6526 19.7657 22.7986 4.0587 38.8866 19.7657 38.8866 17.0807"></polygon>
                    <path d="M19.5457,13.8574 C19.5457,12.0774 20.9887,10.6334 22.7697,10.6334 C24.5497,10.6334 25.9927,12.0774 25.9927,13.8574 C25.9927,15.6374 24.5497,17.0814 22.7697,17.0814 C20.9887,17.0814 19.5457,15.6374 19.5457,13.8574 Z" id="Stroke-9" stroke="#7A7A7A" stroke-width="0.75" fill="#FFDF2A" stroke-linecap="round" stroke-linejoin="round"></path>
                    <polygon id="Fill-11" fill="#FFFFFF" points="13.0994 7.4101 9.8754 10.6341 9.8754 0.9641 13.0994 0.9641"></polygon>
                    <polygon id="Stroke-13" stroke="#7A7A7A" stroke-width="0.75" stroke-linecap="round" stroke-linejoin="round" points="13.0994 7.4101 9.8754 10.6341 9.8754 0.9641 13.0994 0.9641"></polygon>
                    <g id="Group-18" transform="translate(30.000000, 20.000000)">
                        <polyline id="Fill-15" fill="#FFDF2A" points="0.24 26.6249 0.24 3.0779 3.972 0.4289 7.706 3.0779 7.706 26.6249"></polyline>
                        <polyline id="Stroke-17" stroke="#7A7A7A" stroke-width="0.75" stroke-linecap="round" stroke-linejoin="round" points="0.24 26.6249 0.24 3.0779 3.972 0.4289 7.706 3.0779 7.706 26.6249"></polyline>
                    </g>
                    <g id="Group-22" transform="translate(37.000000, 20.000000)">
                        <polyline id="Fill-19" fill="#FFDF2A" points="0.7058 26.6249 0.7058 3.0779 4.4388 0.4289 8.1718 3.0779 8.1718 26.6249"></polyline>
                        <polyline id="Stroke-21" stroke="#7A7A7A" stroke-width="0.75" stroke-linecap="round" stroke-linejoin="round" points="0.7058 26.6249 0.7058 3.0779 4.4388 0.4289 8.1718 3.0779 8.1718 26.6249"></polyline>
                    </g>
                    <g id="Group-26" transform="translate(22.000000, 20.000000)">
                        <polyline id="Fill-23" fill="#FFDF2A" points="0.7732 26.6249 0.7732 3.0779 4.5062 0.4289 8.2402 3.0779 8.2402 26.6249"></polyline>
                        <polyline id="Stroke-25" stroke="#7A7A7A" stroke-width="0.75" stroke-linecap="round" stroke-linejoin="round" points="0.7732 26.6249 0.7732 3.0779 4.5062 0.4289 8.2402 3.0779 8.2402 26.6249"></polyline>
                    </g>
                    <g id="Group-30" transform="translate(15.000000, 20.000000)">
                        <polyline id="Fill-27" fill="#FFDF2A" points="0.3074 26.6249 0.3074 3.0779 4.0404 0.4289 7.7734 3.0779 7.7734 26.6249"></polyline>
                        <polyline id="Stroke-29" stroke="#7A7A7A" stroke-width="0.75" stroke-linecap="round" stroke-linejoin="round" points="0.3074 26.6249 0.3074 3.0779 4.0404 0.4289 7.7734 3.0779 7.7734 26.6249"></polyline>
                    </g>
                    <g id="Group-34" transform="translate(7.000000, 20.000000)">
                        <polyline id="Fill-31" fill="#FFDF2A" points="0.8416 26.6249 0.8416 3.0779 4.5736 0.4289 8.3076 3.0779 8.3076 26.6249"></polyline>
                        <polyline id="Stroke-33" stroke="#7A7A7A" stroke-width="0.75" stroke-linecap="round" stroke-linejoin="round" points="0.8416 26.6249 0.8416 3.0779 4.5736 0.4289 8.3076 3.0779 8.3076 26.6249"></polyline>
                    </g>
                    <g id="Group-38" transform="translate(0.000000, 20.000000)">
                        <polyline id="Fill-35" fill="#FFDF2A" points="7.8416 26.6249 7.8416 3.0779 4.1086 0.4289 0.3746 3.0779 0.3746 26.6249 45.1716 26.6249"></polyline>
                        <polyline id="Stroke-37" stroke="#7A7A7A" stroke-width="0.75" stroke-linecap="round" stroke-linejoin="round" points="7.8416 26.6249 7.8416 3.0779 4.1086 0.4289 0.3746 3.0779 0.3746 26.6249 45.1716 26.6249"></polyline>
                    </g>
                </g>
            </g>
        </g>
    </g>
</svg>