<?xml version="1.0" encoding="UTF-8"?>
<svg width="38px" height="52px" viewBox="0 0 38 52" version="1.1" xmlns="http://www.w3.org/2000/svg" xmlns:xlink="http://www.w3.org/1999/xlink">
    <!-- Generator: sketchtool 59.1 (101010) - https://sketch.com -->
    <title>FFC65F74-1A86-43A9-BDBB-B9CDA23F1C68</title>
    <desc>Created with sketchtool.</desc>
    <g id="Asset-Artboard-Page" stroke="none" stroke-width="1" fill="none" fill-rule="evenodd">
        <g id="icons-/-home-features-/-HOA-default" transform="translate(0.200054, 0.000000)">
            <g id="HOA-icon">
                <polygon id="Fill-1" fill="#FFFFFF" points="29.9088 5.424 25.9678 5.424 10.8968 5.424 0.3748 5.424 0.3748 50.87 36.4898 50.87 36.4898 5.424"></polygon>
                <g id="Group-28" transform="translate(0.000000, 0.245700)">
                    <polyline id="Stroke-2" stroke="#7A7A7A" stroke-width="0.75" stroke-linecap="round" stroke-linejoin="round" points="10.8971 5.1785 0.3751 5.1785 0.3751 50.6245 36.4901 50.6245 36.4901 5.1785 29.9091 5.1785 25.9671 5.1785"></polyline>
                    <path d="M21.8444,3.0027 C21.5594,1.3717 20.1454,0.1297 18.4324,0.1297 C16.7194,0.1297 15.3054,1.3717 15.0204,3.0027 L10.8974,3.0027 L10.8974,6.3367 L10.8974,8.8267 L25.9674,8.8267 L25.9674,5.1787 L25.9674,3.0027 L21.8444,3.0027 Z" id="Fill-4" fill="#FFDF2A"></path>
                    <path d="M21.8444,3.0027 C21.5594,1.3717 20.1454,0.1297 18.4324,0.1297 C16.7194,0.1297 15.3054,1.3717 15.0204,3.0027 L10.8974,3.0027 L10.8974,6.3367 L10.8974,8.8267 L25.9674,8.8267 L25.9674,5.1787 L25.9674,3.0027 L21.8444,3.0027 Z" id="Stroke-6" stroke="#7A7A7A" stroke-width="0.75" stroke-linecap="round" stroke-linejoin="round"></path>
                    <line x1="13.194" y1="16.4871" x2="30.615" y2="16.4871" id="Stroke-8" stroke="#7A7A7A" stroke-width="0.75" stroke-linecap="round" stroke-linejoin="round"></line>
                    <polyline id="Stroke-10" stroke="#7A7A7A" stroke-width="0.75" stroke-linecap="round" stroke-linejoin="round" points="5.9567 16.6902 7.1757 17.9762 10.1537 14.9982"></polyline>
                    <line x1="13.194" y1="22.867" x2="30.615" y2="22.867" id="Stroke-12" stroke="#7A7A7A" stroke-width="0.75" stroke-linecap="round" stroke-linejoin="round"></line>
                    <polyline id="Stroke-14" stroke="#7A7A7A" stroke-width="0.75" stroke-linecap="round" stroke-linejoin="round" points="5.9567 23.0701 7.1757 24.3561 10.1537 21.3781"></polyline>
                    <line x1="13.194" y1="29.2469" x2="30.615" y2="29.2469" id="Stroke-16" stroke="#7A7A7A" stroke-width="0.75" stroke-linecap="round" stroke-linejoin="round"></line>
                    <polyline id="Stroke-18" stroke="#7A7A7A" stroke-width="0.75" stroke-linecap="round" stroke-linejoin="round" points="5.9567 29.45 7.1757 30.736 10.1537 27.758"></polyline>
                    <line x1="13.194" y1="35.6268" x2="30.615" y2="35.6268" id="Stroke-20" stroke="#7A7A7A" stroke-width="0.75" stroke-linecap="round" stroke-linejoin="round"></line>
                    <polyline id="Stroke-22" stroke="#7A7A7A" stroke-width="0.75" stroke-linecap="round" stroke-linejoin="round" points="5.9567 35.8299 7.1757 37.1159 10.1537 34.1379"></polyline>
                    <line x1="13.194" y1="42.0067" x2="30.615" y2="42.0067" id="Stroke-24" stroke="#7A7A7A" stroke-width="0.75" stroke-linecap="round" stroke-linejoin="round"></line>
                    <polyline id="Stroke-26" stroke="#7A7A7A" stroke-width="0.75" stroke-linecap="round" stroke-linejoin="round" points="5.9567 42.2098 7.1757 43.4958 10.1537 40.5178"></polyline>
                </g>
            </g>
        </g>
    </g>
</svg>