<?xml version="1.0" encoding="UTF-8"?>
<svg width="654px" height="169px" viewBox="0 0 654 169" version="1.1" xmlns="http://www.w3.org/2000/svg" xmlns:xlink="http://www.w3.org/1999/xlink">
    <!-- Generator: Sketch 64 (93537) - https://sketch.com -->
    <title>trees 2</title>
    <desc>Created with Sketch.</desc>
    <g id="Pearl-Form-V3" stroke="none" stroke-width="1" fill="none" fill-rule="evenodd">
        <g id="KW_Pearl_Desktop_25b" transform="translate(-211.000000, -945.000000)">
            <g id="trees-2" transform="translate(211.000000, 942.000000)">
                <g id="trees" transform="translate(354.000000, 4.000000)" opacity="0.699999988">
                    <g id="tree-2" transform="translate(139.411043, 0.000000)">
                        <path d="M103.142783,99.5886374 C98.6236642,103.509372 93.404555,106.970723 88.5992764,109.741346 L88.5992764,87.7713521 C85.7530899,88.3541193 82.8133513,88.6824079 79.7943685,88.6824079 C76.7764863,88.6824079 73.8367476,88.3541193 70.9894605,87.7724538 L70.9894605,123.758605 L70.9894605,123.778434 L70.9894605,124.12545 C68.6594617,122.145805 66.1973893,119.909477 63.7463231,117.4385 C61.2248175,114.897018 58.5690372,111.942421 56.0585378,108.674959 C51.1189844,112.168257 45.2472114,114.426618 38.8845648,114.98625 C49.2974691,130.297936 63.8288691,141.410172 70.9894605,146.331195 L70.9894605,168.000441 L88.5992764,168.000441 L88.5992764,129.63585 C93.1712249,127.441385 99.993928,123.844532 106.856253,119.035877 C112.75224,114.903628 117.622454,110.627064 121.505419,106.224913 C114.668408,105.780952 108.362993,103.388191 103.142783,99.5886374" id="Fill-1" fill="#E6E6E6"></path>
                        <path d="M123.819018,35.8032787 C123.524054,35.8032787 123.233492,35.8187016 122.940729,35.8264131 C118.87066,15.7016656 101.100155,0.550819672 79.7944785,0.550819672 C55.4797252,0.550819672 35.7699387,20.278977 35.7699387,44.6163934 C15.4900344,44.6163934 -0.785838037,61.772223 0.637255215,82.375082 C1.82811902,99.6190426 15.690346,113.645115 32.9050417,115.006741 C50.9496,116.435567 66.406616,104.238216 70.1288908,87.6034623 C73.2403252,88.3008 76.4717264,88.6819672 79.7944785,88.6819672 C84.1540086,88.6819672 88.3605534,88.0386098 92.3370699,86.8576525 C98.5896552,99.3116852 111.990725,107.551948 127.156079,106.153967 C144.177066,104.586334 157.775146,90.6274623 158.952802,73.5586623 C160.373694,52.9569049 144.097822,35.8032787 123.819018,35.8032787" id="Fill-3" fill="#FFFFFF"></path>
                        <line x1="79.7944785" y1="97.495082" x2="79.7944785" y2="115.121311" id="Stroke-5" stroke="#C3C3C3" stroke-width="1.2" stroke-linecap="round" stroke-linejoin="round"></line>
                        <line x1="79.7944785" y1="123.934426" x2="79.7944785" y2="159.186885" id="Stroke-7" stroke="#C3C3C3" stroke-width="1.2" stroke-linecap="round" stroke-linejoin="round"></line>
                        <path d="M88.5993865,115.121311 C88.5993865,119.992761 84.6613914,123.934426 79.7944785,123.934426" id="Stroke-9" stroke="#C3C3C3" stroke-width="1.2" stroke-linecap="round" stroke-linejoin="round"></path>
                        <path d="M70.9895706,132.747541 C70.9895706,137.61899 74.9275656,141.560656 79.7944785,141.560656" id="Stroke-11" stroke="#C3C3C3" stroke-width="1.2" stroke-linecap="round" stroke-linejoin="round"></path>
                        <path d="M123.819018,64.4448 C120.727395,64.4448 117.827279,63.6417049 115.302471,62.242623 C114.747762,64.4007344 114.889741,66.8408656 116.660628,69.4649705 C117.786556,71.1306492 119.446281,72.4107541 121.387763,72.9318295 C127.295856,74.5170885 132.623926,70.1039213 132.623926,64.4448 C132.623926,63.6835672 132.516066,62.9476721 132.335566,62.242623 C129.810758,63.6417049 126.910642,64.4448 123.819018,64.4448" id="Fill-13" fill="#C3C3C3"></path>
                        <path d="M62.1846626,35.8032787 C59.0930393,35.8032787 56.1929227,35.0001836 53.6681153,33.6011016 C53.1134061,35.7592131 53.2553853,38.1993443 55.0262724,40.8245508 C56.1522,42.4891279 57.8119252,43.7692328 59.7534074,44.2903082 C65.6615006,45.8755672 70.9895706,41.4624 70.9895706,35.8032787 C70.9895706,35.0420459 70.8817104,34.3072525 70.7012098,33.6011016 C68.1764025,35.0001836 65.2762859,35.8032787 62.1846626,35.8032787" id="Fill-15" fill="#C3C3C3"></path>
                        <g id="Group-23" transform="translate(38.521472, 87.029508)" fill="#C3C3C3">
                            <path d="M70.9196816,16.2104026 C70.2185908,15.8953338 69.531808,15.5560289 68.8560313,15.1979961 C68.8131074,15.1759633 68.7679822,15.1561338 68.7250583,15.1318977 C68.0503822,14.77056 67.3900141,14.3860879 66.7417528,13.9828879 C66.7032313,13.9586518 66.6625086,13.9377207 66.6250877,13.9134846 C65.9405061,13.4838452 65.2724337,13.0332748 64.6208706,12.5595698 C61.6261012,15.1572354 58.3242607,17.5488944 55.0378288,19.67616 C58.1602693,24.9188616 62.6100497,29.2692354 67.9150067,32.2932354 C67.917208,32.2932354 67.9205098,32.2932354 67.9249123,32.2921338 C74.0069025,28.0728551 79.0124926,23.6993469 82.9835061,19.1958452 C78.7285344,18.9193338 74.6804779,17.8881993 70.972511,16.2324354 C70.9549012,16.2236223 70.9372914,16.2181141 70.9196816,16.2104026" id="Fill-17"></path>
                            <path d="M12.2765731,42.3485587 C17.7070001,39.7773325 22.3714001,35.8576997 25.8449363,31.0204013 C25.6391216,30.8154964 25.4322063,30.618303 25.2252909,30.4089915 C22.7037854,27.8675095 20.048005,24.9129128 17.536405,21.6454505 C16.3048185,22.5157456 15.0171007,23.3100275 13.6776541,24.0183816 C13.6710504,24.0227882 13.6633461,24.0271948 13.6567425,24.0304997 C12.9930725,24.380821 12.3183964,24.7113128 11.6316136,25.0197718 C11.610702,25.0296866 11.5875891,25.0384997 11.5655768,25.0484144 C10.9052087,25.3425521 10.2360357,25.617962 9.55475595,25.8724407 C9.51953632,25.8856603 9.48651791,25.89888 9.4523989,25.9120997 C8.78102466,26.1610702 8.10084552,26.3869062 7.41186147,26.5940144 C7.30950442,26.625962 7.20714736,26.6546046 7.10368969,26.6832472 C6.45873018,26.8716275 5.80716699,27.0445849 5.1467989,27.1966111 C5.0983719,27.2076275 5.04994491,27.2219489 5.0004173,27.2318636 C4.32133877,27.3849915 3.63455595,27.5127816 2.94227006,27.6262505 C2.78708356,27.6515882 2.63079644,27.6747226 2.47671055,27.697857 C1.77782098,27.8025128 1.07452896,27.8939489 0.363532638,27.9567423 C3.99665779,33.2974898 8.12946147,38.113857 12.2765731,42.3485587" id="Fill-19"></path>
                            <path d="M37.3412845,1.45768918 C37.1409729,1.43896131 36.9406612,1.42904656 36.7414502,1.40701377 C36.0524661,1.33540721 35.3700858,1.24286951 34.6910072,1.13931541 C34.6601901,1.13490885 34.6315741,1.13160393 34.6018575,1.12719738 C33.8842575,1.01703344 33.1743618,0.88704 32.467768,0.743826885 L32.467768,18.3700564 C35.3150551,18.9506203 38.2547937,19.2789089 41.272676,19.2789089 C44.2916588,19.2789089 47.2313974,18.9506203 50.0775839,18.3689548 L50.0775839,0.742725246 C48.9417508,0.975171148 47.7883079,1.15804328 46.6227582,1.30015475 C46.1373876,1.36184656 45.6509164,1.41692852 45.1611434,1.46209574 C44.7902367,1.49404328 44.4193299,1.52599082 44.0451213,1.55022689 C43.1283103,1.61081705 42.2059962,1.65267934 41.272676,1.65267934 C40.4945422,1.65267934 39.7219115,1.62844328 38.9547839,1.58658098 C38.4132821,1.55793836 37.8772833,1.50726295 37.3412845,1.45768918" id="Fill-21"></path>
                        </g>
                        <path d="M123.819018,97.495082 C110.04484,97.495082 98.1262969,89.5764984 92.3370699,78.0445377 C88.3605534,79.2254951 84.1540086,79.8688525 79.7944785,79.8688525 C76.4717264,79.8688525 73.2403252,79.4876852 70.1288908,78.7903475 C66.605827,94.5371803 52.5653006,106.308197 35.7699387,106.308197 C17.8112282,106.308197 3.00247362,92.8505705 0.834265031,75.4622951 C0.653764417,76.9076459 0.550306748,78.3761311 0.550306748,79.8688525 C0.550306748,99.3381246 16.3187963,115.121311 35.7699387,115.121311 C52.5653006,115.121311 66.605827,103.350295 70.1288908,87.6034623 C73.2403252,88.3008 76.4717264,88.6819672 79.7944785,88.6819672 C84.1540086,88.6819672 88.3605534,88.0386098 92.3370699,86.8576525 C98.1262969,98.3896131 110.04484,106.308197 123.819018,106.308197 C143.270161,106.308197 159.03865,90.5250098 159.03865,71.0557377 C159.03865,69.5630164 158.935193,68.0945311 158.754692,66.6491803 C156.586483,84.0374557 141.777729,97.495082 123.819018,97.495082" id="Fill-24" fill="#C3C3C3"></path>
                        <path d="M123.819018,35.8032787 C123.524054,35.8032787 123.233492,35.8187016 122.940729,35.8264131 C118.87066,15.7016656 101.100155,0.550819672 79.7944785,0.550819672 C55.4797252,0.550819672 35.7699387,20.278977 35.7699387,44.6163934 C15.4900344,44.6163934 -0.785838037,61.772223 0.637255215,82.375082 C1.82811902,99.6190426 15.690346,113.645115 32.9050417,115.006741 C50.9496,116.435567 66.406616,104.238216 70.1288908,87.6034623 C73.2403252,88.3008 76.4717264,88.6819672 79.7944785,88.6819672 C84.1540086,88.6819672 88.3605534,88.0386098 92.3370699,86.8576525 C98.5896552,99.3116852 111.990725,107.551948 127.156079,106.153967 C144.177066,104.586334 157.775146,90.6274623 158.952802,73.5586623 C160.373694,52.9569049 144.097822,35.8032787 123.819018,35.8032787 Z" id="Stroke-26" stroke="#7A7A7A" stroke-width="1.2" stroke-linecap="round" stroke-linejoin="round"></path>
                        <path d="M103.142783,99.5886374 C98.6236642,103.509372 93.404555,106.970723 88.5992764,109.741346 L88.5992764,87.7713521 C85.7530899,88.3541193 82.8133513,88.6824079 79.7943685,88.6824079 C76.7764863,88.6824079 73.8367476,88.3541193 70.9894605,87.7724538 L70.9894605,123.758605 L70.9894605,123.778434 L70.9894605,124.12545 C68.6594617,122.145805 66.1973893,119.909477 63.7463231,117.4385 C61.2248175,114.897018 58.5690372,111.942421 56.0585378,108.674959 C51.1189844,112.168257 45.2472114,114.426618 38.8845648,114.98625 C49.2974691,130.297936 63.8288691,141.410172 70.9894605,146.331195 L70.9894605,168.000441 L88.5992764,168.000441 L88.5992764,129.63585 C93.1712249,127.441385 99.993928,123.844532 106.856253,119.035877 C112.75224,114.903628 117.622454,110.627064 121.505419,106.224913 C114.668408,105.780952 108.362993,103.388191 103.142783,99.5886374 Z" id="Stroke-28" stroke="#7A7A7A" stroke-width="1.2" stroke-linecap="round" stroke-linejoin="round"></path>
                    </g>
                    <g id="tree" transform="translate(0.000000, 35.803279)">
                        <g id="Group-5">
                            <path d="M58.6993865,110.163934 C56.0230613,110.163934 53.5219172,109.435016 51.3619632,108.18282 L51.3619632,132.196721 L66.0368098,132.196721 L66.0368098,108.18282 C63.8768558,109.435016 61.3757117,110.163934 58.6993865,110.163934" id="Fill-1" fill="#E6E6E6"></path>
                            <path d="M103.86141,48.6997115 C107.608999,46.0383344 110.061533,41.6703344 110.061533,36.7212197 C110.061533,28.6085639 103.490871,22.0326951 95.3866865,22.0326951 C92.5232571,22.0326951 89.8588552,22.8662689 87.6007632,24.2864656 C85.192254,10.4902689 73.1735546,-9.18032787e-05 58.6995699,-9.18032787e-05 C44.2255853,-9.18032787e-05 32.2068859,10.4902689 29.7974595,24.2864656 C27.5393675,22.8662689 24.8758828,22.0326951 22.0124534,22.0326951 C13.9082693,22.0326951 7.33760675,28.6085639 7.33760675,36.7212197 C7.33760675,41.6703344 9.79014049,46.0383344 13.5377294,48.6997115 C5.39869264,53.9205639 0.000183435583,63.0476459 0.000183435583,73.4425311 C0.000183435583,89.6669246 13.1405914,102.81958 29.3498767,102.81958 C34.8456067,102.81958 39.9854718,101.303908 44.3833399,98.6737443 C45.8425699,105.245941 51.6932479,110.163843 58.6995699,110.163843 C65.7049748,110.163843 71.5556528,105.245941 73.0148828,98.6737443 C77.4127509,101.303908 82.5535331,102.81958 88.0492632,102.81958 C104.258548,102.81958 117.398956,89.6669246 117.398956,73.4425311 C117.398956,63.0476459 111.99953,53.9205639 103.86141,48.6997115" id="Fill-3" fill="#FFFFFF"></path>
                        </g>
                        <g id="Group-16" transform="translate(0.000000, 34.885246)" fill="#C3C3C3">
                            <path d="M57.1552258,75.1889967 C56.919511,75.1642098 56.6856307,75.1339148 56.4526675,75.0981115 C56.2875755,75.0724066 56.1215663,75.0448656 55.9573914,75.0145705 C55.7730387,74.9787672 55.5914374,74.9374557 55.408919,74.8952262 C55.2199804,74.8520787 55.0301245,74.8098492 54.8430202,74.7593574 C54.8100018,74.750177 54.7779006,74.7391607 54.7448822,74.7290623 C54.2000785,74.5766689 53.6708669,74.3903082 53.1544957,74.1773246 C53.1068025,74.1589639 53.058192,74.1406033 53.011416,74.1213246 C52.759192,74.0148328 52.511554,73.8991607 52.2657503,73.7779803 C52.2116368,73.7522754 52.1584405,73.7247344 52.104327,73.6971934 C51.856689,73.571423 51.6108853,73.4419803 51.3715018,73.3024393 C51.3678331,73.3006033 51.3659988,73.2987672 51.3623301,73.2969311 L51.3623301,80.6411934 C53.522284,81.8943082 56.0234282,82.6232262 58.6997534,82.6232262 C61.3760785,82.6232262 63.8763055,81.8943082 66.0371767,80.6411934 L66.0371767,73.2969311 C66.033508,73.2987672 66.0307564,73.3006033 66.0270877,73.3024393 C65.7877043,73.4419803 65.5428178,73.571423 65.2942626,73.6971934 C65.2401491,73.7247344 65.1869528,73.7522754 65.1328393,73.7779803 C64.8879528,73.8991607 64.6393975,74.0148328 64.3871736,74.1213246 C64.3403975,74.1406033 64.2917871,74.1589639 64.2440939,74.1773246 C63.7277227,74.3903082 63.198511,74.5766689 62.6537074,74.7290623 C62.620689,74.7391607 62.5885877,74.750177 62.5555693,74.7593574 C62.3693822,74.8098492 62.1795264,74.8520787 61.9896706,74.8952262 C61.8071521,74.9374557 61.6255509,74.9787672 61.4411982,75.0145705 C61.2770233,75.0448656 61.1110141,75.0724066 60.9459221,75.0981115 C60.7129589,75.1339148 60.4790785,75.1642098 60.2433638,75.1889967 C60.110373,75.2036852 59.9773822,75.2192918 59.8425571,75.2303082 C59.4655969,75.2587672 59.0849681,75.2789639 58.6997534,75.2789639 C58.3145387,75.2789639 57.9339098,75.2587672 57.5560325,75.2303082 C57.4212074,75.2192918 57.2891337,75.2036852 57.1552258,75.1889967" id="Fill-6"></path>
                            <path d="M29.3496933,38.557377 C26.7733405,38.557377 24.3565767,37.8881311 22.2525706,36.7222295 C22.1021534,37.3106885 22.0122699,37.9230164 22.0122699,38.557377 C22.0122699,42.6132459 25.2976012,45.9016393 29.3496933,45.9016393 C33.4017853,45.9016393 36.6871166,42.6132459 36.6871166,38.557377 C36.6871166,37.9230164 36.5972331,37.3106885 36.446816,36.7222295 C34.3428098,37.8881311 31.926046,38.557377 29.3496933,38.557377" id="Fill-8"></path>
                            <path d="M58.6993865,1.83606557 C56.1230337,1.83606557 53.7062699,1.16681967 51.6022638,0.000918032787 C51.4518466,0.589377049 51.3619632,1.20170492 51.3619632,1.83606557 C51.3619632,5.89193443 54.6472945,9.18032787 58.6993865,9.18032787 C62.7514785,9.18032787 66.0368098,5.89193443 66.0368098,1.83606557 C66.0368098,1.20170492 65.9469264,0.589377049 65.7965092,0.000918032787 C63.6925031,1.16681967 61.2757393,1.83606557 58.6993865,1.83606557" id="Fill-10"></path>
                            <path d="M88.0490798,31.2131148 C85.472727,31.2131148 83.0559632,30.5438689 80.9519571,29.3779672 C80.8015399,29.9664262 80.7116564,30.5787541 80.7116564,31.2131148 C80.7116564,35.2689836 83.9969877,38.557377 88.0490798,38.557377 C92.1011718,38.557377 95.3865031,35.2689836 95.3865031,31.2131148 C95.3865031,30.5787541 95.2966196,29.9664262 95.1462025,29.3779672 C93.0421963,30.5438689 90.6254325,31.2131148 88.0490798,31.2131148" id="Fill-12"></path>
                            <path d="M88.0490798,60.5901639 C82.5533497,60.5901639 77.4125675,59.0744918 73.0146994,56.4434098 C71.5563865,63.0165246 65.7057086,67.9344262 58.6993865,67.9344262 C51.6930644,67.9344262 45.8423865,63.0165246 44.3840736,56.4434098 C39.9862055,59.0744918 34.8454233,60.5901639 29.3496933,60.5901639 C14.377681,60.5901639 2.03246626,49.365377 0.233880368,34.8659672 C0.0825460123,36.0759344 0,37.3070164 0,38.557377 C0,54.7817705 13.140408,67.9344262 29.3496933,67.9344262 C34.8454233,67.9344262 39.9862055,66.4187541 44.3840736,63.7876721 C45.8423865,70.3607869 51.6930644,75.2786885 58.6993865,75.2786885 C65.7057086,75.2786885 71.5563865,70.3607869 73.0146994,63.7876721 C77.4125675,66.4187541 82.5533497,67.9344262 88.0490798,67.9344262 C104.258365,67.9344262 117.398773,54.7817705 117.398773,38.557377 C117.398773,37.3070164 117.316227,36.0759344 117.164893,34.8659672 C115.366307,49.365377 103.021092,60.5901639 88.0490798,60.5901639" id="Fill-14"></path>
                        </g>
                        <g id="Group-27" stroke="#7A7A7A" stroke-linecap="round" stroke-linejoin="round">
                            <polyline id="Stroke-17" points="66.0368098 108.191633 66.0368098 132.196354 51.3619632 132.196354 51.3619632 108.192551"></polyline>
                            <path d="M103.86141,48.6997115 C107.608999,46.0383344 110.061533,41.6703344 110.061533,36.7212197 C110.061533,28.6085639 103.490871,22.0326951 95.3866865,22.0326951 C92.5232571,22.0326951 89.8588552,22.8662689 87.6007632,24.2864656 C85.192254,10.4902689 73.1735546,-9.18032787e-05 58.6995699,-9.18032787e-05 C44.2255853,-9.18032787e-05 32.2068859,10.4902689 29.7974595,24.2864656 C27.5393675,22.8662689 24.8758828,22.0326951 22.0124534,22.0326951 C13.9082693,22.0326951 7.33760675,28.6085639 7.33760675,36.7212197 C7.33760675,41.6703344 9.79014049,46.0383344 13.5377294,48.6997115 C5.39869264,53.9205639 0.000183435583,63.0476459 0.000183435583,73.4425311 C0.000183435583,89.6669246 13.1405914,102.81958 29.3498767,102.81958 C34.8456067,102.81958 39.9854718,101.303908 44.3833399,98.6737443 C45.8425699,105.245941 51.6932479,110.163843 58.6995699,110.163843 C65.7049748,110.163843 71.5556528,105.245941 73.0148828,98.6737443 C77.4127509,101.303908 82.5535331,102.81958 88.0492632,102.81958 C104.258548,102.81958 117.398956,89.6669246 117.398956,73.4425311 C117.398956,63.0476459 111.99953,53.9205639 103.86141,48.6997115 Z" id="Stroke-19"></path>
                            <path d="M22.0122699,51.4098361 C13.9071687,51.4098361 7.33742331,44.8339672 7.33742331,36.7213115" id="Stroke-21"></path>
                            <path d="M80.7116564,36.7213115 C80.7116564,28.6086557 87.2814018,22.0327869 95.3865031,22.0327869" id="Stroke-23"></path>
                            <path d="M66.0368098,92.8737049 C71.4142239,98.9731148 79.2826933,102.819672 88.0490798,102.819672 C104.258365,102.819672 117.398773,89.6670164 117.398773,73.442623" id="Stroke-25"></path>
                        </g>
                    </g>
                </g>
                <g id="house-footer" opacity="0.75">
                    <g id="house" transform="translate(0.000000, 11.910995)">
                        <g id="Fills" transform="translate(0.916667, 0.916230)">
                            <polygon id="Door" fill="#FFFFFF" points="231.756708 144.373544 256.811487 144.373544 256.811487 94.1566591 231.756708 94.1566591"></polygon>
                            <path d="M219.229318,125.542212 L219.229318,131.819323 L181.647149,131.819323 L181.647149,125.542212 L219.229318,125.542212 Z M306.921045,125.542212 L306.921045,131.819323 L269.338876,131.819323 L269.338876,125.542212 L306.921045,125.542212 Z M306.921045,69.0482167 L306.921045,75.3253273 L181.647149,75.3253273 L181.647149,69.0482167 L306.921045,69.0482167 Z" id="Sills" fill="#E6E6E6"></path>
                            <path d="M125.273896,112.987991 L125.273896,125.542212 L93.955422,125.542212 L93.955422,112.987991 L125.273896,112.987991 Z M81.4280324,112.987991 L81.4280324,125.542212 L50.1095584,125.542212 L50.1095584,112.987991 L81.4280324,112.987991 Z" id="Garage" fill="#E6E6E6"></path>
                            <path d="M325.71213,144.373544 L325.71213,163.204876 L275.602571,163.204876 L275.602571,156.927765 L269.338876,156.927765 L269.338876,150.650655 L263.075182,150.650655 L263.075182,144.373544 L325.71213,144.373544 Z M225.493013,144.373544 L225.493013,150.650655 L219.229318,150.650655 L219.229318,156.927765 L212.965623,156.927765 L212.965623,163.204876 L137.801286,163.204876 L137.801286,144.373544 L225.493013,144.373544 Z M37.5821688,144.373544 L37.5821688,163.204876 L12.5273896,163.204876 L12.5273896,144.373544 L37.5821688,144.373544 Z" id="Foundation" fill="#E6E6E6"></path>
                            <polygon id="Roof" fill="#E6E6E6" points="281.866266 31.385553 319.448435 31.385553 319.448435 18.8313318 263.075182 18.8313318 244.284097 6.27711061 162.856065 60.6784743 0 75.3253273 0 87.8795485 162.856065 73.2326955 244.284097 18.8313318 338.239519 81.6024379 338.239519 69.0482167"></polygon>
                            <polygon id="Chimney" fill="#E6E6E6" points="169.11976 6.27711061 206.701928 6.27711061 206.701928 0 169.11976 0"></polygon>
                            <path d="M263.075182,56.4939955 C266.534307,56.4939955 269.338876,59.3045717 269.338876,62.7711061 L269.338876,62.7711061 L269.338876,69.0482167 L219.229318,69.0482167 L219.229318,62.7711061 C219.229318,59.3045717 222.033887,56.4939955 225.493013,56.4939955 L225.493013,56.4939955 Z M200.438234,48.1246454 L200.438234,69.048609 L187.910844,69.048609 L187.910844,56.4943878 L200.438234,48.1246454 Z M244.284097,37.6626636 C247.743223,37.6626636 250.547792,40.4732399 250.547792,43.9397743 L250.547792,43.9397743 L238.020402,43.9397743 C238.020402,40.4732399 240.824972,37.6626636 244.284097,37.6626636 Z M225.493013,37.6626636 C228.952138,37.6626636 231.756708,40.4732399 231.756708,43.9397743 L231.756708,43.9397743 L219.229318,43.9397743 C219.229318,40.4732399 222.033887,37.6626636 225.493013,37.6626636 Z M263.075182,37.6626636 C266.534307,37.6626636 269.338876,40.4732399 269.338876,43.9397743 L269.338876,43.9397743 L256.811487,43.9397743 C256.811487,40.4732399 259.616056,37.6626636 263.075182,37.6626636 Z" id="Interior" fill="#E6E6E6"></path>
                        </g>
                        <g id="Lines">
                            <path d="M201.963959,94.3683314 C202.180243,94.3683314 202.355779,94.5437547 202.355779,94.7599012 L202.355779,94.7599012 L202.355779,110.031125 L214.502185,110.031125 C214.71847,110.031125 214.894005,110.206548 214.894005,110.422695 C214.894005,110.638841 214.71847,110.814265 214.502185,110.814265 L214.502185,110.814265 L202.355779,110.814265 L202.355779,126.085488 C202.355779,126.301635 202.180243,126.477058 201.963959,126.477058 C201.747675,126.477058 201.572139,126.301635 201.572139,126.085488 L201.572139,126.085488 L201.572139,110.814265 L189.425733,110.814265 C189.209448,110.814265 189.033913,110.638841 189.033913,110.422695 C189.033913,110.206548 189.209448,110.031125 189.425733,110.031125 L189.425733,110.031125 L201.572139,110.031125 L201.572139,94.7599012 C201.572139,94.5437547 201.747675,94.3683314 201.963959,94.3683314 Z M289.731543,94.3683314 C289.947828,94.3683314 290.123363,94.5437547 290.123363,94.7599012 L290.123363,94.7599012 L290.123363,110.031125 L302.26977,110.031125 C302.486054,110.031125 302.661589,110.206548 302.661589,110.422695 C302.661589,110.638841 302.486054,110.814265 302.26977,110.814265 L302.26977,110.814265 L290.123363,110.814265 L290.123363,126.085488 C290.123363,126.301635 289.947828,126.477058 289.731543,126.477058 C289.515259,126.477058 289.339724,126.301635 289.339724,126.085488 L289.339724,126.085488 L289.339724,110.814265 L277.193317,110.814265 C276.977033,110.814265 276.801498,110.638841 276.801498,110.422695 C276.801498,110.206548 276.977033,110.031125 277.193317,110.031125 L277.193317,110.031125 L289.339724,110.031125 L289.339724,94.7599012 C289.339724,94.5437547 289.515259,94.3683314 289.731543,94.3683314 Z M245.849554,19.1877053 C245.920865,19.1877053 245.983556,19.2119826 246.042329,19.2456576 C246.048598,19.2503565 246.058002,19.248007 246.065054,19.2527059 L246.065054,19.2527059 L264.872394,31.7829407 C264.98132,31.8557727 265.047145,31.9779425 265.047145,32.1087269 L265.047145,32.1087269 L265.047145,69.6994315 C265.047145,69.915578 264.87161,70.0910013 264.655326,70.0910013 C264.438258,70.0910013 264.263506,69.915578 264.263506,69.6994315 L264.263506,69.6994315 L264.263506,32.3186083 L246.239806,20.3107276 L246.239806,69.6994315 C246.239806,69.915578 246.064271,70.0910013 245.847986,70.0910013 C245.630918,70.0910013 245.456167,69.915578 245.456167,69.6994315 L245.456167,69.6994315 L245.456167,20.3107276 L227.432466,32.3186083 L227.432466,69.6994315 C227.432466,69.915578 227.256931,70.0910013 227.040647,70.0910013 C226.823579,70.0910013 226.648827,69.915578 226.648827,69.6994315 L226.648827,69.6994315 L226.648827,32.1087269 C226.648827,31.9779425 226.714653,31.8557727 226.822795,31.7829407 L226.822795,31.7829407 L245.630135,19.2527059 C245.637187,19.248007 245.646591,19.2503565 245.653644,19.2456576 C245.711633,19.2119826 245.774324,19.1877053 245.846419,19.1877053 L245.846419,19.1877053 Z M283.49805,44.2473919 C283.733997,44.2473919 283.92549,44.4228152 283.92549,44.6389617 L283.92549,44.6389617 L283.92549,69.6994315 C283.92549,69.915578 283.733997,70.0910013 283.49805,70.0910013 C283.262104,70.0910013 283.070611,69.915578 283.070611,69.6994315 L283.070611,69.6994315 L283.070611,44.6389617 C283.070611,44.4228152 283.262104,44.2473919 283.49805,44.2473919 Z M208.268692,44.2473919 C208.504639,44.2473919 208.696132,44.4228152 208.696132,44.6389617 L208.696132,44.6389617 L208.696132,69.6994315 C208.696132,69.915578 208.504639,70.0910013 208.268692,70.0910013 C208.032745,70.0910013 207.841253,69.915578 207.841253,69.6994315 L207.841253,69.6994315 L207.841253,44.6389617 C207.841253,44.4228152 208.032745,44.2473919 208.268692,44.2473919 Z" id="Window-Deets" fill="#C3C3C3"></path>
                            <path d="M38.9670163,138.224153 C39.1833007,138.224153 39.3588359,138.415615 39.3588359,138.651524 C39.3588359,138.887432 39.1833007,139.078894 38.9670163,139.078894 L38.9670163,139.078894 L13.8905636,139.078894 C13.6742792,139.078894 13.4987441,138.887432 13.4987441,138.651524 C13.4987441,138.415615 13.6742792,138.224153 13.8905636,138.224153 L13.8905636,138.224153 Z M164.34928,138.224153 C164.565564,138.224153 164.741099,138.415615 164.741099,138.651524 C164.741099,138.887432 164.565564,139.078894 164.34928,139.078894 L164.34928,139.078894 L139.272827,139.078894 C139.056543,139.078894 138.881008,138.887432 138.881008,138.651524 C138.881008,138.415615 139.056543,138.224153 139.272827,138.224153 L139.272827,138.224153 Z M38.9670163,131.959036 C39.1833007,131.959036 39.3588359,132.150498 39.3588359,132.386406 C39.3588359,132.622315 39.1833007,132.813777 38.9670163,132.813777 L38.9670163,132.813777 L13.8905636,132.813777 C13.6742792,132.813777 13.4987441,132.622315 13.4987441,132.386406 C13.4987441,132.150498 13.6742792,131.959036 13.8905636,131.959036 L13.8905636,131.959036 Z M164.34928,131.959036 C164.565564,131.959036 164.741099,132.150498 164.741099,132.386406 C164.741099,132.622315 164.565564,132.813777 164.34928,132.813777 L164.34928,132.813777 L139.272827,132.813777 C139.056543,132.813777 138.881008,132.622315 138.881008,132.386406 C138.881008,132.150498 139.056543,131.959036 139.272827,131.959036 L139.272827,131.959036 Z M38.9670163,125.693919 C39.1833007,125.693919 39.3588359,125.885381 39.3588359,126.121289 C39.3588359,126.357198 39.1833007,126.54866 38.9670163,126.54866 L38.9670163,126.54866 L13.8905636,126.54866 C13.6742792,126.54866 13.4987441,126.357198 13.4987441,126.121289 C13.4987441,125.885381 13.6742792,125.693919 13.8905636,125.693919 L13.8905636,125.693919 Z M164.34928,125.693919 C164.565564,125.693919 164.741099,125.885381 164.741099,126.121289 C164.741099,126.357198 164.565564,126.54866 164.34928,126.54866 L164.34928,126.54866 L139.272827,126.54866 C139.056543,126.54866 138.881008,126.357198 138.881008,126.121289 C138.881008,125.885381 139.056543,125.693919 139.272827,125.693919 L139.272827,125.693919 Z M38.9670163,119.428801 C39.1833007,119.428801 39.3588359,119.620263 39.3588359,119.856172 C39.3588359,120.09208 39.1833007,120.283542 38.9670163,120.283542 L38.9670163,120.283542 L13.8905636,120.283542 C13.6742792,120.283542 13.4987441,120.09208 13.4987441,119.856172 C13.4987441,119.620263 13.6742792,119.428801 13.8905636,119.428801 L13.8905636,119.428801 Z M164.34928,119.428801 C164.565564,119.428801 164.741099,119.620263 164.741099,119.856172 C164.741099,120.09208 164.565564,120.283542 164.34928,120.283542 L164.34928,120.283542 L139.272827,120.283542 C139.056543,120.283542 138.881008,120.09208 138.881008,119.856172 C138.881008,119.620263 139.056543,119.428801 139.272827,119.428801 L139.272827,119.428801 Z M38.9670163,113.163684 C39.1833007,113.163684 39.3588359,113.355146 39.3588359,113.591054 C39.3588359,113.826963 39.1833007,114.018425 38.9670163,114.018425 L38.9670163,114.018425 L13.8905636,114.018425 C13.6742792,114.018425 13.4987441,113.826963 13.4987441,113.591054 C13.4987441,113.355146 13.6742792,113.163684 13.8905636,113.163684 L13.8905636,113.163684 Z M164.34928,113.163684 C164.565564,113.163684 164.741099,113.355146 164.741099,113.591054 C164.741099,113.826963 164.565564,114.018425 164.34928,114.018425 L164.34928,114.018425 L139.272827,114.018425 C139.056543,114.018425 138.881008,113.826963 138.881008,113.591054 C138.881008,113.355146 139.056543,113.163684 139.272827,113.163684 L139.272827,113.163684 Z M38.9670163,106.898566 C39.1833007,106.898566 39.3588359,107.090028 39.3588359,107.325937 C39.3588359,107.561845 39.1833007,107.753307 38.9670163,107.753307 L38.9670163,107.753307 L13.8905636,107.753307 C13.6742792,107.753307 13.4987441,107.561845 13.4987441,107.325937 C13.4987441,107.090028 13.6742792,106.898566 13.8905636,106.898566 L13.8905636,106.898566 Z M164.34928,106.898566 C164.565564,106.898566 164.741099,107.090028 164.741099,107.325937 C164.741099,107.561845 164.565564,107.753307 164.34928,107.753307 L164.34928,107.753307 L139.272827,107.753307 C139.056543,107.753307 138.881008,107.561845 138.881008,107.325937 C138.881008,107.090028 139.056543,106.898566 139.272827,106.898566 L139.272827,106.898566 Z M38.9670163,100.633449 C39.1833007,100.633449 39.3588359,100.824911 39.3588359,101.060819 C39.3588359,101.296728 39.1833007,101.48819 38.9670163,101.48819 L38.9670163,101.48819 L13.8905636,101.48819 C13.6742792,101.48819 13.4987441,101.296728 13.4987441,101.060819 C13.4987441,100.824911 13.6742792,100.633449 13.8905636,100.633449 L13.8905636,100.633449 Z M164.34928,100.633449 C164.565564,100.633449 164.741099,100.824911 164.741099,101.060819 C164.741099,101.296728 164.565564,101.48819 164.34928,101.48819 L164.34928,101.48819 L139.272827,101.48819 C139.056543,101.48819 138.881008,101.296728 138.881008,101.060819 C138.881008,100.824911 139.056543,100.633449 139.272827,100.633449 L139.272827,100.633449 Z M164.34928,94.3683314 C164.565564,94.3683314 164.741099,94.5597934 164.741099,94.7957019 C164.741099,95.0316104 164.565564,95.2230724 164.34928,95.2230724 L164.34928,95.2230724 L13.8905636,95.2230724 C13.6742792,95.2230724 13.4987441,95.0316104 13.4987441,94.7957019 C13.4987441,94.5597934 13.6742792,94.3683314 13.8905636,94.3683314 L13.8905636,94.3683314 Z M164.34928,88.1032139 C164.565564,88.1032139 164.741099,88.2946759 164.741099,88.5305844 C164.741099,88.766493 164.565564,88.957955 164.34928,88.957955 L164.34928,88.957955 L13.8905636,88.957955 C13.6742792,88.957955 13.4987441,88.766493 13.4987441,88.5305844 C13.4987441,88.2946759 13.6742792,88.1032139 13.8905636,88.1032139 L13.8905636,88.1032139 Z M164.34928,81.8380965 C164.565564,81.8380965 164.741099,82.0295585 164.741099,82.265467 C164.741099,82.5013755 164.565564,82.6928375 164.34928,82.6928375 L164.34928,82.6928375 L71.2082818,82.6928375 C70.9912137,82.6928375 70.8164622,82.5013755 70.8164622,82.265467 C70.8164622,82.0295585 70.9912137,81.8380965 71.2082818,81.8380965 L71.2082818,81.8380965 Z M164.349358,75.5729791 C164.565643,75.5729791 164.741178,75.7644411 164.741178,76.0003496 C164.741178,76.2362581 164.565643,76.4277201 164.349358,76.4277201 L164.349358,76.4277201 L141.064305,76.4277201 C140.84802,76.4277201 140.672485,76.2362581 140.672485,76.0003496 C140.672485,75.7644411 140.84802,75.5729791 141.064305,75.5729791 L141.064305,75.5729791 Z M321.077109,50.5125093 C321.293394,50.5125093 321.468929,50.7039713 321.468929,50.9398798 C321.468929,51.1757884 321.293394,51.3672503 321.077109,51.3672503 L321.077109,51.3672503 L311.67344,51.3672503 C311.457155,51.3672503 311.28162,51.1757884 311.28162,50.9398798 C311.28162,50.7039713 311.457155,50.5125093 311.67344,50.5125093 L311.67344,50.5125093 Z M321.077109,44.2473919 C321.293394,44.2473919 321.468929,44.4388539 321.468929,44.6747624 C321.468929,44.9106709 321.293394,45.1021329 321.077109,45.1021329 L321.077109,45.1021329 L302.26977,45.1021329 C302.053485,45.1021329 301.87795,44.9106709 301.87795,44.6747624 C301.87795,44.4388539 302.053485,44.2473919 302.26977,44.2473919 L302.26977,44.2473919 Z M321.077109,37.9822745 C321.293394,37.9822745 321.468929,38.1737364 321.468929,38.409645 C321.468929,38.6455535 321.293394,38.8370155 321.077109,38.8370155 L321.077109,38.8370155 L292.8661,38.8370155 C292.649816,38.8370155 292.47428,38.6455535 292.47428,38.409645 C292.47428,38.1737364 292.649816,37.9822745 292.8661,37.9822745 L292.8661,37.9822745 Z" id="Siding" fill="#E6E6E6"></path>
                            <path d="M189.425733,63.0427442 C189.642017,63.0427442 189.817552,63.2181675 189.817552,63.434314 L189.817552,63.434314 L189.817552,69.6994315 C189.817552,69.915578 189.642017,70.0910013 189.425733,70.0910013 L189.425733,70.0910013 L183.548439,70.0910013 L183.548439,75.5729791 L308.147063,75.5729791 L308.14646,70.0906873 L302.26977,70.0910013 C302.053485,70.0910013 301.87795,69.915578 301.87795,69.6994315 L301.87795,63.434314 C301.87795,63.2181675 302.053485,63.0427442 302.26977,63.0427442 L314.807996,63.0427442 C315.024281,63.0427442 315.199816,63.2181675 315.199816,63.434314 L315.19946,69.3076873 L321.077109,69.3078616 C321.266358,69.3078616 321.424408,69.4421701 321.460964,69.6205485 L321.468929,69.6994315 L321.468929,75.5729791 L327.346223,75.5729791 C327.562507,75.5729791 327.738042,75.7484024 327.738042,75.9645489 L327.738042,75.9645489 L327.738042,82.2296663 C327.738042,82.4458129 327.562507,82.6212362 327.346223,82.6212362 L327.346223,82.6212362 L321.468929,82.6212362 L321.468929,88.1032139 L327.346223,88.1032139 C327.562507,88.1032139 327.738042,88.2786372 327.738042,88.4947838 L327.738042,88.4947838 L327.738042,94.7599012 C327.738042,94.9760478 327.562507,95.151471 327.346223,95.151471 L327.346223,95.151471 L321.468929,95.151471 L321.468929,100.633449 L327.346223,100.633449 C327.562507,100.633449 327.738042,100.808872 327.738042,101.025019 L327.738042,101.025019 L327.738042,107.290136 C327.738042,107.506283 327.562507,107.681706 327.346223,107.681706 L327.346223,107.681706 L321.468929,107.681706 L321.468929,113.163684 L327.346223,113.163684 C327.562507,113.163684 327.738042,113.339107 327.738042,113.555254 L327.738042,113.555254 L327.738042,119.820371 C327.738042,120.036518 327.562507,120.211941 327.346223,120.211941 L327.346223,120.211941 L321.468929,120.211941 L321.468929,125.693919 L327.346223,125.693919 C327.562507,125.693919 327.738042,125.869342 327.738042,126.085488 L327.738042,126.085488 L327.738042,132.350606 C327.738042,132.566752 327.562507,132.742176 327.346223,132.742176 L327.346223,132.742176 L321.468929,132.742176 L321.468929,138.224153 L327.346223,138.224153 C327.562507,138.224153 327.738042,138.399577 327.738042,138.615723 L327.738042,138.615723 L327.738042,144.880841 C327.738042,145.096987 327.562507,145.272411 327.346223,145.272411 L327.346223,145.272411 L264.655091,145.272411 C264.438806,145.272411 264.263271,145.096987 264.263271,144.880841 L264.263271,144.880841 L264.263271,139.007293 L258.385978,139.007293 C258.169693,139.007293 257.994158,138.83187 257.994158,138.615723 L257.994158,138.615723 L257.994158,119.820371 C257.994158,119.604224 258.169693,119.428801 258.385978,119.428801 L258.385978,119.428801 L264.263271,119.428801 L264.263271,113.946823 L258.385978,113.946823 C258.169693,113.946823 257.994158,113.7714 257.994158,113.555254 L257.994158,113.555254 L257.994158,107.290136 C257.994158,107.07399 258.169693,106.898566 258.385978,106.898566 L258.385978,106.898566 L264.263271,106.898566 L264.263271,101.416588 L258.385978,101.416588 C258.169693,101.416588 257.994158,101.241165 257.994158,101.025019 L257.994158,101.025019 L257.994158,95.151471 L233.701344,95.151471 L233.701344,101.025019 C233.701344,101.241165 233.525809,101.416588 233.309525,101.416588 L233.309525,101.416588 L227.432231,101.416588 L227.432231,106.898566 L233.309525,106.898566 C233.525809,106.898566 233.701344,107.07399 233.701344,107.290136 L233.701344,107.290136 L233.701344,113.555254 C233.701344,113.7714 233.525809,113.946823 233.309525,113.946823 L233.309525,113.946823 L227.432231,113.946823 L227.432231,119.428801 L233.309525,119.428801 C233.525809,119.428801 233.701344,119.604224 233.701344,119.820371 L233.701344,119.820371 L233.701344,144.880841 C233.701344,145.096987 233.525809,145.272411 233.309525,145.272411 L233.309525,145.272411 L164.34928,145.272411 C164.132996,145.272411 163.95746,145.096987 163.95746,144.880841 L163.95746,144.880841 L163.95746,138.615723 C163.95746,138.399577 164.132996,138.224153 164.34928,138.224153 L164.34928,138.224153 L170.226574,138.224153 L170.226574,132.742176 L164.34928,132.742176 C164.132996,132.742176 163.95746,132.566752 163.95746,132.350606 L163.95746,132.350606 L163.95746,126.085488 C163.95746,125.869342 164.132996,125.693919 164.34928,125.693919 L164.34928,125.693919 L170.226574,125.693919 L170.226574,120.211941 L164.34928,120.211941 C164.132996,120.211941 163.95746,120.036518 163.95746,119.820371 L163.95746,119.820371 L163.95746,113.555254 C163.95746,113.339107 164.132996,113.163684 164.34928,113.163684 L164.34928,113.163684 L170.226574,113.163684 L170.226574,107.681706 L164.34928,107.681706 C164.132996,107.681706 163.95746,107.506283 163.95746,107.290136 L163.95746,107.290136 L163.95746,101.025019 C163.95746,100.808872 164.132996,100.633449 164.34928,100.633449 L164.34928,100.633449 L170.226574,100.633449 L170.226574,95.151471 L164.34928,95.151471 C164.132996,95.151471 163.95746,94.9760478 163.95746,94.7599012 L163.95746,94.7599012 L163.95746,88.4947838 C163.95746,88.2786372 164.132996,88.1032139 164.34928,88.1032139 L164.34928,88.1032139 L170.226574,88.1032139 L170.226574,82.6212362 L164.34928,82.6212362 C164.132996,82.6212362 163.95746,82.4458129 163.95746,82.2296663 L163.95746,82.2296663 L163.95746,75.9645489 C163.95746,75.7484024 164.132996,75.5729791 164.34928,75.5729791 L164.34928,75.5729791 L170.226574,75.5729791 L170.226574,69.6994315 C170.226574,69.4832849 170.402109,69.3078616 170.618393,69.3078616 L170.618393,69.3078616 L176.495687,69.3078616 L176.495687,63.434314 C176.495687,63.2181675 176.671222,63.0427442 176.887506,63.0427442 L176.887506,63.0427442 Z M289.339724,139.007293 L277.585137,139.007293 L277.585137,144.489271 L289.339724,144.489271 L289.339724,139.007293 Z M301.87795,139.007293 L290.123363,139.007293 L290.123363,144.489271 L301.87795,144.489271 L301.87795,139.007293 Z M314.416177,139.007293 L302.661589,139.007293 L302.661589,144.489271 L314.416177,144.489271 L314.416177,139.007293 Z M176.495687,139.007293 L164.741099,139.007293 L164.741099,144.489271 L176.495687,144.489271 L176.495687,139.007293 Z M189.033913,139.007293 L177.279326,139.007293 L177.279326,144.489271 L189.033913,144.489271 L189.033913,139.007293 Z M201.572139,139.007293 L189.817552,139.007293 L189.817552,144.489271 L201.572139,144.489271 L201.572139,139.007293 Z M214.110366,139.007293 L202.355779,139.007293 L202.355779,144.489271 L214.110366,144.489271 L214.110366,139.007293 Z M226.648592,139.007293 L214.894005,139.007293 L214.894005,144.489271 L226.648592,144.489271 L226.648592,139.007293 Z M232.917705,139.007293 L227.432231,139.007293 L227.432231,144.489271 L232.917705,144.489271 L232.917705,139.007293 Z M276.801498,139.007293 L265.04691,139.007293 L265.04691,144.489271 L276.801498,144.489271 L276.801498,139.007293 Z M326.954403,139.007293 L315.199816,139.007293 L315.199816,144.489271 L326.954403,144.489271 L326.954403,139.007293 Z M207.841253,132.742176 L196.086665,132.742176 L196.086665,138.224153 L207.841253,138.224153 L207.841253,132.742176 Z M220.379479,132.742176 L208.624892,132.742176 L208.624892,138.224153 L220.379479,138.224153 L220.379479,132.742176 Z M295.608837,132.742176 L283.85425,132.742176 L283.85425,138.224153 L295.608837,138.224153 L295.608837,132.742176 Z M320.68529,132.742176 L308.930703,132.742176 L308.930703,138.224153 L320.68529,138.224153 L320.68529,132.742176 Z M270.532384,132.742176 L258.777797,132.742176 L258.777797,138.224153 L270.532384,138.224153 L270.532384,132.742176 Z M232.917705,132.742176 L221.163118,132.742176 L221.163118,138.224153 L232.917705,138.224153 L232.917705,132.742176 Z M283.070611,132.742176 L271.316024,132.742176 L271.316024,138.224153 L283.070611,138.224153 L283.070611,132.742176 Z M308.147063,132.742176 L296.392476,132.742176 L296.392476,138.224153 L308.147063,138.224153 L308.147063,132.742176 Z M182.7648,132.742176 L171.010213,132.742176 L171.010213,138.224153 L182.7648,138.224153 L182.7648,132.742176 Z M195.303026,132.742176 L183.548439,132.742176 L183.548439,138.224153 L195.303026,138.224153 L195.303026,132.742176 Z M326.954403,126.477058 L315.199816,126.477058 L315.199816,131.959036 L326.954403,131.959036 L326.954403,126.477058 Z M176.495687,126.477058 L164.741099,126.477058 L164.741099,131.959036 L176.495687,131.959036 L176.495687,126.477058 Z M232.917705,126.477058 L227.432231,126.477058 L227.432231,131.959036 L232.917705,131.959036 L232.917705,126.477058 Z M308.147063,95.151471 L271.316024,95.151471 L271.316024,100.633449 L277.193317,100.633449 C277.409602,100.633449 277.585137,100.808872 277.585137,101.025019 L277.585137,101.025019 L277.585137,107.290136 C277.585137,107.506283 277.409602,107.681706 277.193317,107.681706 L277.193317,107.681706 L271.316024,107.681706 L271.316024,113.163684 L277.193317,113.163684 C277.409602,113.163684 277.585137,113.339107 277.585137,113.555254 L277.585137,113.555254 L277.585137,119.820371 C277.585137,120.036518 277.409602,120.211941 277.193317,120.211941 L277.193317,120.211941 L271.316024,120.211941 L271.316024,126.085488 C271.316024,126.301635 271.140488,126.477058 270.924204,126.477058 L270.924204,126.477058 L265.04691,126.477058 L265.04691,131.959036 L314.416177,131.959036 L314.416177,126.477058 L308.538883,126.477058 C308.322599,126.477058 308.147063,126.301635 308.147063,126.085488 L308.147063,126.085488 L308.147063,120.211941 L302.26977,120.211941 C302.053485,120.211941 301.87795,120.036518 301.87795,119.820371 L301.87795,119.820371 L301.87795,113.555254 C301.87795,113.339107 302.053485,113.163684 302.26977,113.163684 L302.26977,113.163684 L308.147063,113.163684 L308.147063,107.681706 L302.26977,107.681706 C302.053485,107.681706 301.87795,107.506283 301.87795,107.290136 L301.87795,107.290136 L301.87795,101.025019 C301.87795,100.808872 302.053485,100.633449 302.26977,100.633449 L302.26977,100.633449 L308.147063,100.633449 L308.147063,95.151471 Z M264.263271,126.477058 L258.777797,126.477058 L258.777797,131.959036 L264.263271,131.959036 L264.263271,126.477058 Z M220.379479,95.151471 L183.548439,95.151471 L183.548439,100.633449 L189.425733,100.633449 C189.642017,100.633449 189.817552,100.808872 189.817552,101.025019 L189.817552,101.025019 L189.817552,107.290136 C189.817552,107.506283 189.642017,107.681706 189.425733,107.681706 L189.425733,107.681706 L183.548439,107.681706 L183.548439,113.163684 L189.425733,113.163684 C189.642017,113.163684 189.817552,113.339107 189.817552,113.555254 L189.817552,113.555254 L189.817552,119.820371 C189.817552,120.036518 189.642017,120.211941 189.425733,120.211941 L189.425733,120.211941 L183.548439,120.211941 L183.548439,126.085488 C183.548439,126.301635 183.372904,126.477058 183.156619,126.477058 L183.156619,126.477058 L177.279326,126.477058 L177.279326,131.959036 L226.648592,131.959036 L226.648592,126.477058 L220.771299,126.477058 C220.555014,126.477058 220.379479,126.301635 220.379479,126.085488 L220.379479,126.085488 L220.379479,120.211941 L214.502185,120.211941 C214.285901,120.211941 214.110366,120.036518 214.110366,119.820371 L214.110366,119.820371 L214.110366,113.555254 C214.110366,113.339107 214.285901,113.163684 214.502185,113.163684 L214.502185,113.163684 L220.379479,113.163684 L220.379479,107.681706 L214.502185,107.681706 C214.285901,107.681706 214.110366,107.506283 214.110366,107.290136 L214.110366,107.290136 L214.110366,101.025019 C214.110366,100.808872 214.285901,100.633449 214.502185,100.633449 L214.502185,100.633449 L220.379479,100.633449 L220.379479,95.151471 Z M232.917705,120.211941 L221.163118,120.211941 L221.163118,125.693919 L232.917705,125.693919 L232.917705,120.211941 Z M320.68529,120.211941 L308.930703,120.211941 L308.930703,125.693919 L320.68529,125.693919 L320.68529,120.211941 Z M182.7648,120.211941 L171.010213,120.211941 L171.010213,125.693919 L182.7648,125.693919 L182.7648,120.211941 Z M270.532384,120.211941 L258.777797,120.211941 L258.777797,125.693919 L270.532384,125.693919 L270.532384,120.211941 Z M276.801498,113.946823 L265.04691,113.946823 L265.04691,119.428801 L276.801498,119.428801 L276.801498,113.946823 Z M314.416177,113.946823 L302.661589,113.946823 L302.661589,119.428801 L314.416177,119.428801 L314.416177,113.946823 Z M189.033913,113.946823 L177.279326,113.946823 L177.279326,119.428801 L189.033913,119.428801 L189.033913,113.946823 Z M226.648592,113.946823 L214.894005,113.946823 L214.894005,119.428801 L226.648592,119.428801 L226.648592,113.946823 Z M326.954403,113.946823 L315.199816,113.946823 L315.199816,119.428801 L326.954403,119.428801 L326.954403,113.946823 Z M176.495687,113.946823 L164.741099,113.946823 L164.741099,119.428801 L176.495687,119.428801 L176.495687,113.946823 Z M232.917705,107.681706 L221.163118,107.681706 L221.163118,113.163684 L232.917705,113.163684 L232.917705,107.681706 Z M270.532384,107.681706 L258.777797,107.681706 L258.777797,113.163684 L270.532384,113.163684 L270.532384,107.681706 Z M320.68529,107.681706 L308.930703,107.681706 L308.930703,113.163684 L320.68529,113.163684 L320.68529,107.681706 Z M182.7648,107.681706 L171.010213,107.681706 L171.010213,113.163684 L182.7648,113.163684 L182.7648,107.681706 Z M176.495687,101.416588 L164.741099,101.416588 L164.741099,106.898566 L176.495687,106.898566 L176.495687,101.416588 Z M326.954403,101.416588 L315.199816,101.416588 L315.199816,106.898566 L326.954403,106.898566 L326.954403,101.416588 Z M276.801498,101.416588 L265.04691,101.416588 L265.04691,106.898566 L276.801498,106.898566 L276.801498,101.416588 Z M226.648592,101.416588 L214.894005,101.416588 L214.894005,106.898566 L226.648592,106.898566 L226.648592,101.416588 Z M189.033913,101.416588 L177.279326,101.416588 L177.279326,106.898566 L189.033913,106.898566 L189.033913,101.416588 Z M314.416177,101.416588 L302.661589,101.416588 L302.661589,106.898566 L314.416177,106.898566 L314.416177,101.416588 Z M270.532384,95.151471 L258.777797,95.151471 L258.777797,100.633449 L270.532384,100.633449 L270.532384,95.151471 Z M320.68529,95.151471 L308.930703,95.151471 L308.930703,100.633449 L320.68529,100.633449 L320.68529,95.151471 Z M232.917705,95.151471 L221.163118,95.151471 L221.163118,100.633449 L232.917705,100.633449 L232.917705,95.151471 Z M182.7648,95.151471 L171.010213,95.151471 L171.010213,100.633449 L182.7648,100.633449 L182.7648,95.151471 Z M264.263271,88.8863536 L252.508684,88.8863536 L252.508684,94.3683314 L264.263271,94.3683314 L264.263271,88.8863536 Z M289.339724,88.8863536 L277.585137,88.8863536 L277.585137,94.3683314 L289.339724,94.3683314 L289.339724,88.8863536 Z M189.033913,88.8863536 L177.279326,88.8863536 L177.279326,94.3683314 L189.033913,94.3683314 L189.033913,88.8863536 Z M214.110366,88.8863536 L202.355779,88.8863536 L202.355779,94.3683314 L214.110366,94.3683314 L214.110366,88.8863536 Z M226.648592,88.8863536 L214.894005,88.8863536 L214.894005,94.3683314 L226.648592,94.3683314 L226.648592,88.8863536 Z M239.186818,88.8863536 L227.432231,88.8863536 L227.432231,94.3683314 L239.186818,94.3683314 L239.186818,88.8863536 Z M314.416177,88.8863536 L302.661589,88.8863536 L302.661589,94.3683314 L314.416177,94.3683314 L314.416177,88.8863536 Z M326.954403,88.8863536 L315.199816,88.8863536 L315.199816,94.3683314 L326.954403,94.3683314 L326.954403,88.8863536 Z M276.801498,88.8863536 L265.04691,88.8863536 L265.04691,94.3683314 L276.801498,94.3683314 L276.801498,88.8863536 Z M201.572139,88.8863536 L189.817552,88.8863536 L189.817552,94.3683314 L201.572139,94.3683314 L201.572139,88.8863536 Z M301.87795,88.8863536 L290.123363,88.8863536 L290.123363,94.3683314 L301.87795,94.3683314 L301.87795,88.8863536 Z M176.495687,88.8863536 L164.741099,88.8863536 L164.741099,94.3683314 L176.495687,94.3683314 L176.495687,88.8863536 Z M251.725045,88.8863536 L239.970458,88.8863536 L239.970458,94.3683314 L251.725045,94.3683314 L251.725045,88.8863536 Z M257.994158,82.6212362 L246.239571,82.6212362 L246.239571,88.1032139 L257.994158,88.1032139 L257.994158,82.6212362 Z M220.379479,82.6212362 L208.624892,82.6212362 L208.624892,88.1032139 L220.379479,88.1032139 L220.379479,82.6212362 Z M320.68529,82.6212362 L308.930703,82.6212362 L308.930703,88.1032139 L320.68529,88.1032139 L320.68529,82.6212362 Z M182.7648,82.6212362 L171.010213,82.6212362 L171.010213,88.1032139 L182.7648,88.1032139 L182.7648,82.6212362 Z M207.841253,82.6212362 L196.086665,82.6212362 L196.086665,88.1032139 L207.841253,88.1032139 L207.841253,82.6212362 Z M195.303026,82.6212362 L183.548439,82.6212362 L183.548439,88.1032139 L195.303026,88.1032139 L195.303026,82.6212362 Z M232.917705,82.6212362 L221.163118,82.6212362 L221.163118,88.1032139 L232.917705,88.1032139 L232.917705,82.6212362 Z M270.532384,82.6212362 L258.777797,82.6212362 L258.777797,88.1032139 L270.532384,88.1032139 L270.532384,82.6212362 Z M283.070611,82.6212362 L271.316024,82.6212362 L271.316024,88.1032139 L283.070611,88.1032139 L283.070611,82.6212362 Z M295.608837,82.6212362 L283.85425,82.6212362 L283.85425,88.1032139 L295.608837,88.1032139 L295.608837,82.6212362 Z M308.147063,82.6212362 L296.392476,82.6212362 L296.392476,88.1032139 L308.147063,88.1032139 L308.147063,82.6212362 Z M245.455932,82.6212362 L233.701344,82.6212362 L233.701344,88.1032139 L245.455932,88.1032139 L245.455932,82.6212362 Z M326.954403,76.3561187 L315.199816,76.3561187 L315.199816,81.8380965 L326.954403,81.8380965 L326.954403,76.3561187 Z M214.110366,76.3561187 L202.355779,76.3561187 L202.355779,81.8380965 L214.110366,81.8380965 L214.110366,76.3561187 Z M301.87795,76.3561187 L290.123363,76.3561187 L290.123363,81.8380965 L301.87795,81.8380965 L301.87795,76.3561187 Z M289.339724,76.3561187 L277.585137,76.3561187 L277.585137,81.8380965 L289.339724,81.8380965 L289.339724,76.3561187 Z M276.801498,76.3561187 L265.04691,76.3561187 L265.04691,81.8380965 L276.801498,81.8380965 L276.801498,76.3561187 Z M264.263271,76.3561187 L252.508684,76.3561187 L252.508684,81.8380965 L264.263271,81.8380965 L264.263271,76.3561187 Z M251.725045,76.3561187 L239.970458,76.3561187 L239.970458,81.8380965 L251.725045,81.8380965 L251.725045,76.3561187 Z M239.186818,76.3561187 L227.432231,76.3561187 L227.432231,81.8380965 L239.186818,81.8380965 L239.186818,76.3561187 Z M226.648592,76.3561187 L214.894005,76.3561187 L214.894005,81.8380965 L226.648592,81.8380965 L226.648592,76.3561187 Z M201.572139,76.3561187 L189.817552,76.3561187 L189.817552,81.8380965 L201.572139,81.8380965 L201.572139,76.3561187 Z M189.033913,76.3561187 L177.279326,76.3561187 L177.279326,81.8380965 L189.033913,81.8380965 L189.033913,76.3561187 Z M176.495687,76.3561187 L164.741099,76.3561187 L164.741099,81.8380965 L176.495687,81.8380965 L176.495687,76.3561187 Z M314.416177,76.3561187 L302.661589,76.3561187 L302.661589,81.8380965 L314.416177,81.8380965 L314.416177,76.3561187 Z M320.68529,70.0910013 L308.930703,70.0910013 L308.930703,75.5729791 L320.68529,75.5729791 L320.68529,70.0910013 Z M182.7648,70.0910013 L171.010213,70.0910013 L171.010213,75.5729791 L182.7648,75.5729791 L182.7648,70.0910013 Z M314.416177,63.8258839 L302.661589,63.8258839 L302.661589,69.3078616 L314.416177,69.3078616 L314.416177,63.8258839 Z M189.033913,63.8258839 L177.279326,63.8258839 L177.279326,69.3078616 L189.033913,69.3078616 L189.033913,63.8258839 Z M201.963959,6.65668728 C202.180243,6.65668728 202.355779,6.83211056 202.355779,7.04825711 L202.355779,7.04825711 L202.355779,13.3133746 C202.355779,13.5295211 202.180243,13.7049444 201.963959,13.7049444 L201.963959,13.7049444 L196.086665,13.7049444 L196.086665,19.1869221 L201.963959,19.1869221 C202.180243,19.1869221 202.355779,19.3623454 202.355779,19.578492 L202.355779,19.578492 L202.355779,25.8436094 C202.355779,26.059756 202.180243,26.2351793 201.963959,26.2351793 L201.963959,26.2351793 L196.086665,26.2351793 L196.086665,31.717157 L201.963959,31.717157 C202.180243,31.717157 202.355779,31.8925803 202.355779,32.1087269 L202.355779,32.1087269 L202.355779,36.2852108 C202.355779,36.5021405 202.180243,36.6767806 201.963959,36.6767806 C201.747675,36.6767806 201.572139,36.5021405 201.572139,36.2852108 L201.572139,36.2852108 L201.572139,32.5002967 L189.817552,32.5002967 L189.817552,37.9822745 L198.829402,37.9822745 C199.045687,37.9822745 199.221222,38.1576977 199.221222,38.3738443 C199.221222,38.5899908 199.045687,38.7654141 198.829402,38.7654141 L198.829402,38.7654141 L196.086665,38.7654141 L196.086665,40.4624778 C196.086665,40.6786244 195.91113,40.8540477 195.694846,40.8540477 C195.478561,40.8540477 195.303026,40.6786244 195.303026,40.4624778 L195.303026,40.4624778 L195.303026,38.7654141 L183.548439,38.7654141 L183.548439,44.2473919 L189.425733,44.2473919 C189.642017,44.2473919 189.817552,44.4228152 189.817552,44.6389617 C189.817552,44.8551083 189.642017,45.0305316 189.425733,45.0305316 L189.425733,45.0305316 L177.279326,45.0305316 L177.279326,50.5125093 L180.022063,50.5125093 C180.238347,50.5125093 180.413882,50.6879326 180.413882,50.9040792 C180.413882,51.1202257 180.238347,51.295649 180.022063,51.295649 L180.022063,51.295649 L176.887506,51.295649 C176.671222,51.295649 176.495687,51.1202257 176.495687,50.9040792 L176.495687,50.9040792 L176.495687,44.6389617 C176.495687,44.4228152 176.671222,44.2473919 176.887506,44.2473919 L176.887506,44.2473919 L182.7648,44.2473919 L182.7648,38.7654141 L176.887506,38.7654141 C176.671222,38.7654141 176.495687,38.5899908 176.495687,38.3738443 L176.495687,38.3738443 L176.495687,32.1087269 C176.495687,31.8925803 176.671222,31.717157 176.887506,31.717157 L176.887506,31.717157 L182.7648,31.717157 L182.7648,26.2351793 L176.887506,26.2351793 C176.671222,26.2351793 176.495687,26.059756 176.495687,25.8436094 L176.495687,25.8436094 L176.495687,19.578492 C176.495687,19.3623454 176.671222,19.1869221 176.887506,19.1869221 L176.887506,19.1869221 L182.7648,19.1869221 L182.7648,13.7049444 L176.887506,13.7049444 C176.671222,13.7049444 176.495687,13.5295211 176.495687,13.3133746 L176.495687,13.3133746 L176.495687,7.04825711 C176.495687,6.83211056 176.671222,6.65668728 176.887506,6.65668728 L176.887506,6.65668728 Z M189.033913,32.5002967 L177.279326,32.5002967 L177.279326,37.9822745 L189.033913,37.9822745 L189.033913,32.5002967 Z M195.303026,26.2351793 L183.548439,26.2351793 L183.548439,31.717157 L195.303026,31.717157 L195.303026,26.2351793 Z M189.033913,19.9700618 L177.279326,19.9700618 L177.279326,25.4520396 L189.033913,25.4520396 L189.033913,19.9700618 Z M201.572139,19.9700618 L189.817552,19.9700618 L189.817552,25.4520396 L201.572139,25.4520396 L201.572139,19.9700618 Z M195.303026,13.7049444 L183.548439,13.7049444 L183.548439,19.1869221 L195.303026,19.1869221 L195.303026,13.7049444 Z M189.033913,7.43982695 L177.279326,7.43982695 L177.279326,12.9218047 L189.033913,12.9218047 L189.033913,7.43982695 Z M201.572139,7.43982695 L189.817552,7.43982695 L189.817552,12.9218047 L201.572139,12.9218047 L201.572139,7.43982695 Z" id="Bricks" fill="#E6E6E6"></path>
                            <path d="M164.3849,164.067763 C164.148953,164.067763 163.95746,163.89234 163.95746,163.676193 L163.95746,61.3456805 C163.95746,61.129534 164.148953,60.9541107 164.3849,60.9541107 C164.620846,60.9541107 164.812339,61.129534 164.812339,61.3456805 L164.812339,163.676193 C164.812339,163.89234 164.620846,164.067763 164.3849,164.067763" id="Split" fill="#C3C3C3"></path>
                            <path d="M252.116864,122.56136 C252.333149,122.56136 252.508684,122.736783 252.508684,122.95293 L252.508684,138.615723 C252.508684,138.83187 252.333149,139.007293 252.116864,139.007293 L239.578638,139.007293 C239.362354,139.007293 239.186818,138.83187 239.186818,138.615723 L239.186818,122.95293 C239.186818,122.736783 239.362354,122.56136 239.578638,122.56136 L252.116864,122.56136 Z M251.725045,123.3445 L239.970458,123.3445 L239.970458,138.224153 L251.725045,138.224153 L251.725045,123.3445 Z M255.287041,116.296242 C255.522988,116.296242 255.71448,116.471666 255.71448,116.687812 L255.71448,122.95293 C255.71448,123.169076 255.522988,123.3445 255.287041,123.3445 C255.051094,123.3445 254.859601,123.169076 254.859601,122.95293 L254.859601,116.687812 C254.859601,116.471666 255.051094,116.296242 255.287041,116.296242 Z M252.116864,100.633449 C252.333149,100.633449 252.508684,100.808872 252.508684,101.025019 L252.508684,116.687812 C252.508684,116.903959 252.333149,117.079382 252.116864,117.079382 L239.578638,117.079382 C239.362354,117.079382 239.186818,116.903959 239.186818,116.687812 L239.186818,101.025019 C239.186818,100.808872 239.362354,100.633449 239.578638,100.633449 L252.116864,100.633449 Z M251.725045,101.416588 L239.970458,101.416588 L239.970458,116.296242 L251.725045,116.296242 L251.725045,101.416588 Z" id="Door-Deets" fill="#0093E9"></path>
                            <path d="M308.574503,19.1869221 C308.81045,19.1869221 309.001943,19.3623454 309.001943,19.578492 L309.001943,19.578492 L309.001943,32.1087269 C309.001943,32.3248734 308.81045,32.5002967 308.574503,32.5002967 C308.338556,32.5002967 308.147063,32.3248734 308.147063,32.1087269 L308.147063,32.1087269 L308.147063,19.578492 C308.147063,19.3623454 308.338556,19.1869221 308.574503,19.1869221 Z M296.036277,19.1869221 C296.272223,19.1869221 296.463716,19.3623454 296.463716,19.578492 L296.463716,19.578492 L296.463716,32.1087269 C296.463716,32.3248734 296.272223,32.5002967 296.036277,32.5002967 C295.80033,32.5002967 295.608837,32.3248734 295.608837,32.1087269 L295.608837,32.1087269 L295.608837,19.578492 C295.608837,19.3623454 295.80033,19.1869221 296.036277,19.1869221 Z M283.49805,19.1869221 C283.733997,19.1869221 283.92549,19.3623454 283.92549,19.578492 L283.92549,19.578492 L283.92549,32.1087269 C283.92549,32.3248734 283.733997,32.5002967 283.49805,32.5002967 C283.262104,32.5002967 283.070611,32.3248734 283.070611,32.1087269 L283.070611,32.1087269 L283.070611,19.578492 C283.070611,19.3623454 283.262104,19.1869221 283.49805,19.1869221 Z" id="Roof" fill="#C3C3C3"></path>
                            <path d="M208.233072,0.000234941904 C208.666425,0.000234941904 209.016711,0.350298379 209.016711,0.783374621 L209.016711,0.783374621 L209.016711,7.04849206 C209.016711,7.48078516 208.666425,7.83163174 208.233072,7.83163174 L208.233072,7.83163174 L202.747598,7.83163174 L202.747598,34.8217576 L245.412831,6.39691984 C245.676134,6.22149656 246.019368,6.22149656 246.282671,6.39691984 L246.282671,6.39691984 L264.892533,18.7955872 L321.077109,18.7955872 C321.510462,18.7955872 321.860749,19.1456507 321.860749,19.5787269 L321.860749,19.5787269 L321.860749,56.7496687 L340.319369,69.0480942 C340.53722,69.192975 340.668088,69.4373146 340.668088,69.6996664 L340.668088,69.6996664 L340.668088,82.2299013 C340.668088,82.5180967 340.509009,82.783581 340.254327,82.9198473 C340.138348,82.9824985 340.011398,83.013041 339.884449,83.013041 C339.732423,83.013041 339.580397,82.9691851 339.449529,82.8814735 L339.449529,82.8814735 L328.129862,75.3390552 L328.129862,163.676428 C328.129862,164.108721 327.779575,164.459568 327.346223,164.459568 L327.346223,164.459568 L13.8905636,164.459568 C13.4572112,164.459568 13.1069245,164.108721 13.1069245,163.676428 L13.1069245,163.676428 L13.1069245,88.2271849 L1.42286479,89.2750258 C1.39935562,89.2765921 1.37506281,89.2781584 1.35233727,89.2781584 C1.15721112,89.2781584 0.969137728,89.2053264 0.823380847,89.0721927 C0.661167543,88.9241793 0.568698124,88.7142978 0.568698124,88.4950187 L0.568698124,88.4950187 L0.568698124,75.9647838 C0.568698124,75.5591175 0.879019226,75.2208012 1.28180975,75.1847767 L1.28180975,75.1847767 L164.080492,60.5839205 L176.103867,52.5731848 L176.103867,7.83163174 L170.618393,7.83163174 C170.185041,7.83163174 169.834754,7.48078516 169.834754,7.04849206 L169.834754,7.04849206 L169.834754,0.783374621 C169.834754,0.350298379 170.185041,0.000234941904 170.618393,0.000234941904 L170.618393,0.000234941904 Z M326.562583,145.664215 L265.43873,145.664215 L265.43873,150.363053 L270.924204,150.363053 C271.357556,150.363053 271.707843,150.713117 271.707843,151.146193 L271.707843,151.146193 L271.707843,156.628171 L277.193317,156.628171 C277.62667,156.628171 277.976956,156.978234 277.976956,157.411311 L277.976956,157.411311 L277.976956,162.893288 L326.562583,162.893288 L326.562583,145.664215 Z M38.1833772,145.664215 L14.6742028,145.664215 L14.6742028,162.893288 L38.1833772,162.893288 L38.1833772,145.664215 Z M138.489188,151.929333 L39.7506555,151.929333 L39.7506555,162.893288 L138.489188,162.893288 L138.489188,151.929333 Z M276.409678,158.19445 L215.285824,158.19445 L215.285824,162.893288 L276.409678,162.893288 L276.409678,158.19445 Z M226.256773,145.664215 L140.056466,145.664215 L140.056466,162.893288 L213.718546,162.893288 L213.718546,157.411311 C213.718546,156.978234 214.068833,156.628171 214.502185,156.628171 L214.502185,156.628171 L219.987659,156.628171 L219.987659,151.146193 C219.987659,150.713117 220.337946,150.363053 220.771299,150.363053 L220.771299,150.363053 L226.256773,150.363053 L226.256773,145.664215 Z M95.3890349,156.627936 C95.8223874,156.627936 96.1726741,156.978782 96.1726741,157.411076 C96.1726741,157.843369 95.8223874,158.194215 95.3890349,158.194215 L95.3890349,158.194215 L82.8508086,158.194215 C82.4174561,158.194215 82.0671694,157.843369 82.0671694,157.411076 C82.0671694,156.978782 82.4174561,156.627936 82.8508086,156.627936 L82.8508086,156.627936 Z M270.140565,151.929333 L221.554938,151.929333 L221.554938,156.628171 L270.140565,156.628171 L270.140565,151.929333 Z M263.871452,145.664215 L227.824051,145.664215 L227.824051,150.363053 L263.871452,150.363053 L263.871452,145.664215 Z M138.489188,139.399098 L39.7506555,139.399098 L39.7506555,150.363053 L138.489188,150.363053 L138.489188,139.399098 Z M303.053409,58.6323365 L303.053409,68.9165267 L308.538883,68.9165267 C308.972235,68.9165267 309.322522,69.2665902 309.322522,69.6996664 L309.322522,69.6996664 L309.322522,75.9647838 C309.322522,76.3970769 308.972235,76.7479235 308.538883,76.7479235 L308.538883,76.7479235 L183.156619,76.7479235 C182.723267,76.7479235 182.37298,76.3970769 182.37298,75.9647838 L182.37298,75.9647838 L182.37298,69.6996664 C182.37298,69.2665902 182.723267,68.9165267 183.156619,68.9165267 L183.156619,68.9165267 L188.642093,68.9165267 L188.642093,58.6323365 L164.7842,74.5277225 C164.770878,74.5363371 164.756772,74.5386865 164.74345,74.547301 C164.719158,74.5613975 164.692514,74.5707952 164.66587,74.5825423 C164.600828,74.6123016 164.534219,74.6318801 164.466042,74.6428441 C164.449586,74.6451935 164.436264,74.6545912 164.419807,74.6561574 L164.419807,74.6561574 L14.6742028,88.0862198 L14.6742028,144.097936 L38.1833772,144.097936 L38.1833772,101.025254 C38.1833772,100.592177 38.5336639,100.242114 38.9670163,100.242114 L38.9670163,100.242114 L139.272827,100.242114 C139.70618,100.242114 140.056466,100.592177 140.056466,101.025254 L140.056466,101.025254 L140.056466,144.097936 L232.525886,144.097936 L232.525886,94.7601362 C232.525886,94.3270599 232.876172,93.9769965 233.309525,93.9769965 L233.309525,93.9769965 L258.385978,93.9769965 C258.81933,93.9769965 259.169617,94.3270599 259.169617,94.7601362 L259.169617,94.7601362 L259.169617,144.097936 L326.562583,144.097936 L326.562583,74.29513 L303.053409,58.6323365 Z M257.602338,95.5432758 L234.093164,95.5432758 L234.093164,144.097936 L257.602338,144.097936 L257.602338,95.5432758 Z M138.489188,126.868863 L39.7506555,126.868863 L39.7506555,137.832819 L138.489188,137.832819 L138.489188,126.868863 Z M302.26977,93.9767615 C302.703122,93.9767615 303.053409,94.3276081 303.053409,94.7599012 L303.053409,94.7599012 L303.053409,125.302349 L308.538883,125.302349 C308.972235,125.302349 309.322522,125.653195 309.322522,126.085488 L309.322522,126.085488 L309.322522,132.350606 C309.322522,132.782899 308.972235,133.133746 308.538883,133.133746 L308.538883,133.133746 L270.924204,133.133746 C270.490851,133.133746 270.140565,132.782899 270.140565,132.350606 L270.140565,132.350606 L270.140565,126.085488 C270.140565,125.653195 270.490851,125.302349 270.924204,125.302349 L270.924204,125.302349 L276.409678,125.302349 L276.409678,94.7599012 C276.409678,94.3276081 276.759965,93.9767615 277.193317,93.9767615 L277.193317,93.9767615 Z M214.502185,93.9767615 C214.935538,93.9767615 215.285824,94.3276081 215.285824,94.7599012 L215.285824,94.7599012 L215.285824,125.302349 L220.771299,125.302349 C221.204651,125.302349 221.554938,125.653195 221.554938,126.085488 L221.554938,126.085488 L221.554938,132.350606 C221.554938,132.782899 221.204651,133.133746 220.771299,133.133746 L220.771299,133.133746 L183.156619,133.133746 C182.723267,133.133746 182.37298,132.782899 182.37298,132.350606 L182.37298,132.350606 L182.37298,126.085488 C182.37298,125.653195 182.723267,125.302349 183.156619,125.302349 L183.156619,125.302349 L188.642093,125.302349 L188.642093,94.7599012 C188.642093,94.3276081 188.99238,93.9767615 189.425733,93.9767615 L189.425733,93.9767615 Z M307.755244,126.868628 L271.707843,126.868628 L271.707843,131.567466 L307.755244,131.567466 L307.755244,126.868628 Z M219.987659,126.868628 L183.940259,126.868628 L183.940259,131.567466 L219.987659,131.567466 L219.987659,126.868628 Z M301.486131,95.5430409 L277.976956,95.5430409 L277.976956,125.302349 L301.486131,125.302349 L301.486131,95.5430409 Z M213.718546,95.5430409 L190.209372,95.5430409 L190.209372,125.302349 L213.718546,125.302349 L213.718546,95.5430409 Z M125.950962,114.338628 L96.1726741,114.338628 L96.1726741,125.302584 L125.950962,125.302584 L125.950962,114.338628 Z M50.7216036,114.338628 L39.7506555,114.338628 L39.7506555,125.302584 L50.7216036,125.302584 L50.7216036,114.338628 Z M82.0671694,114.338628 L52.2888818,114.338628 L52.2888818,125.302584 L82.0671694,125.302584 L82.0671694,114.338628 Z M138.489188,114.338628 L127.51824,114.338628 L127.51824,125.302584 L138.489188,125.302584 L138.489188,114.338628 Z M94.6053958,114.338628 L83.6344477,114.338628 L83.6344477,125.302584 L94.6053958,125.302584 L94.6053958,114.338628 Z M138.489188,101.808393 L39.7506555,101.808393 L39.7506555,112.772349 L138.489188,112.772349 L138.489188,101.808393 Z M245.847751,7.98904281 L164.7842,61.9974877 L164.7842,61.9974877 L164.74972,62.0115842 C164.704268,62.0389941 164.653332,62.0538737 164.601612,62.0718859 C164.553026,62.089115 164.506008,62.1086935 164.455855,62.1157418 C164.442533,62.117308 164.432346,62.1251394 164.419807,62.1259226 L164.419807,62.1259226 L2.13597642,76.6805735 L2.13597642,87.6382639 L164.080492,73.1141554 L245.412831,18.9271547 C245.499815,18.8692024 245.596987,18.8300454 245.698076,18.8096838 C245.747445,18.8002861 245.797598,18.8089006 245.847751,18.8089006 C245.897904,18.8089006 245.948057,18.8002861 245.997426,18.8096838 C246.098516,18.8300454 246.194903,18.8684192 246.281887,18.9263716 L246.281887,18.9263716 L339.10081,80.7662132 L339.10081,70.1186461 L245.847751,7.98904281 Z M307.755244,70.4828061 L183.940259,70.4828061 L183.940259,75.1816442 L307.755244,75.1816442 L307.755244,70.4828061 Z M245.847751,20.5192777 L190.209372,57.5884113 L190.209372,68.9165267 L301.486131,68.9165267 L301.486131,57.5884113 L245.847751,20.5192777 Z M320.29347,32.8921015 L286.05079,32.8921015 L320.29347,55.7057435 L320.29347,32.8921015 Z M201.18032,7.83163174 L177.671145,7.83163174 L177.671145,51.5292596 L201.18032,35.866466 L201.18032,7.83163174 Z M320.29347,20.3618666 L267.243451,20.3618666 L283.699873,31.3258221 L320.29347,31.3258221 L320.29347,20.3618666 Z M207.449433,1.5665143 L171.402032,1.5665143 L171.402032,6.26535238 L207.449433,6.26535238 L207.449433,1.5665143 Z" id="Main" stroke="#FFFFFF" stroke-width="0.582615" fill="#7A7A7A"></path>
                        </g>
                        <path d="M220.66,132.111693 L220.66,138.350785 L183.04,138.350785 L183.04,132.111693 L220.66,132.111693 Z M308.44,132.111693 L308.44,138.350785 L270.82,138.350785 L270.82,132.111693 L308.44,132.111693 Z M13.75,100.91623 L13.75,87.3181283 L164.23,73.8799029 L245.74,19.8080279 L327.25,73.8799029 L327.25,88.4380454 L245.74,32.2862129 L164.23,88.4380454 L13.75,100.91623 Z M308.44,75.9598604 L308.44,82.1989529 L183.04,82.1989529 L183.04,75.9598604 L308.44,75.9598604 Z M201.85,7.32984293 L201.85,13.5689354 L176.77,13.5689354 L176.77,7.32984293 L201.85,7.32984293 Z" id="Shadows" fill="#C3C3C3" opacity="0.300000012" style="mix-blend-mode: multiply;"></path>
                        <g id="Bushes" transform="translate(151.250000, 137.434555)">
                            <path d="M44.5295174,0.789039765 L44.8332275,0.79269338 C51.5965294,0.955580395 57.029031,6.54424939 57.029031,13.413676 L57.029031,13.413676 L57.029031,18.1479146 C57.029031,19.0190145 56.3290583,19.7259941 55.4665918,19.7259941 L55.4665918,19.7259941 L33.5924429,19.7259941 C32.7299765,19.7259941 32.0300037,19.0190145 32.0300037,18.1479146 L32.0300037,18.1479146 L32.0300037,13.413676 C32.0300037,6.44172064 37.6258798,0.789039765 44.5295174,0.789039765 L44.5295174,0.789039765 Z M13.2807333,0.789039765 L13.5844434,0.79269338 C20.3477453,0.955580395 25.7802469,6.54424939 25.7802469,13.413676 L25.7802469,13.413676 L25.7802469,18.1479146 C25.7802469,19.0190145 25.0802741,19.7259941 24.2178077,19.7259941 L24.2178077,19.7259941 L2.34365881,19.7259941 C1.48119237,19.7259941 0.781219603,19.0190145 0.781219603,18.1479146 L0.781219603,18.1479146 L0.781219603,13.413676 C0.781219603,6.44172064 6.37709562,0.789039765 13.2807333,0.789039765 L13.2807333,0.789039765 Z M175.774411,0.789039765 L176.078121,0.79269338 C182.841423,0.955580395 188.273924,6.54424939 188.273924,13.413676 L188.273924,13.413676 L188.273924,18.1479146 C188.273924,19.0190145 187.573952,19.7259941 186.711485,19.7259941 L186.711485,19.7259941 L164.837336,19.7259941 C163.97487,19.7259941 163.274897,19.0190145 163.274897,18.1479146 L163.274897,18.1479146 L163.274897,13.413676 C163.274897,6.44172064 168.870773,0.789039765 175.774411,0.789039765 L175.774411,0.789039765 Z M144.525627,0.789039765 L144.829337,0.79269338 C151.592639,0.955580395 157.02514,6.54424939 157.02514,13.413676 L157.02514,13.413676 L157.02514,18.1479146 C157.02514,19.0190145 156.325168,19.7259941 155.462701,19.7259941 L155.462701,19.7259941 L133.588552,19.7259941 C132.726086,19.7259941 132.026113,19.0190145 132.026113,18.1479146 L132.026113,18.1479146 L132.026113,13.413676 C132.026113,6.44172064 137.621989,0.789039765 144.525627,0.789039765 L144.525627,0.789039765 Z" id="Combined-Shape" fill="#FFFFFF"></path>
                            <path d="M46.0919566,19.7259941 L46.0919566,26.0383122 L42.9670782,26.0383122 L42.9670782,19.7259941 L46.0919566,19.7259941 Z M14.8431725,19.7259941 L14.8431725,26.0383122 L11.7182941,26.0383122 L11.7182941,19.7259941 L14.8431725,19.7259941 Z M177.33685,19.7259941 L177.33685,26.0383122 L174.211972,26.0383122 L174.211972,19.7259941 L177.33685,19.7259941 Z M146.088066,19.7259941 L146.088066,26.0383122 L142.963187,26.0383122 L142.963187,19.7259941 L146.088066,19.7259941 Z" id="Combined-Shape" fill="#E6E6E6"></path>
                            <path d="M44.5295174,0 C51.85267,0 57.8102506,6.01721724 57.8102506,13.413676 L57.8102506,13.413676 L57.8102506,18.1479146 C57.8102506,19.4529864 56.7587291,20.5150339 55.4665918,20.5150339 L55.4665918,20.5150339 L46.8731762,20.5150339 L46.8731762,26.0383122 C46.8731762,26.4738622 46.523971,26.827352 46.0919566,26.827352 L46.0919566,26.827352 L42.9670782,26.827352 C42.5350637,26.827352 42.1858586,26.4738622 42.1858586,26.0383122 L42.1858586,26.0383122 L42.1858586,20.5150339 L33.5924429,20.5150339 C32.3003057,20.5150339 31.2487841,19.4529864 31.2487841,18.1479146 L31.2487841,18.1479146 L31.2487841,13.413676 C31.2487841,6.01721724 37.2063648,0 44.5295174,0 Z M13.2807333,0 C20.6038858,0 26.5614665,6.01721724 26.5614665,13.413676 L26.5614665,13.413676 L26.5614665,18.1479146 C26.5614665,19.4529864 25.5099449,20.5150339 24.2178077,20.5150339 L24.2178077,20.5150339 L15.6243921,20.5150339 L15.6243921,26.0383122 C15.6243921,26.4738622 15.2751869,26.827352 14.8431725,26.827352 L14.8431725,26.827352 L11.7182941,26.827352 C11.2862796,26.827352 10.9370744,26.4738622 10.9370744,26.0383122 L10.9370744,26.0383122 L10.9370744,20.5150339 L2.34365881,20.5150339 C1.05152159,20.5150339 0,19.4529864 0,18.1479146 L0,18.1479146 L0,13.413676 C0,6.01721724 5.9575807,0 13.2807333,0 Z M175.774411,0 C183.097563,0 189.055144,6.01721724 189.055144,13.413676 L189.055144,13.413676 L189.055144,18.1479146 C189.055144,19.4529864 188.003622,20.5150339 186.711485,20.5150339 L186.711485,20.5150339 L178.11807,20.5150339 L178.11807,26.0383122 C178.11807,26.4738622 177.768864,26.827352 177.33685,26.827352 L177.33685,26.827352 L174.211972,26.827352 C173.779957,26.827352 173.430752,26.4738622 173.430752,26.0383122 L173.430752,26.0383122 L173.430752,20.5150339 L164.837336,20.5150339 C163.545199,20.5150339 162.493677,19.4529864 162.493677,18.1479146 L162.493677,18.1479146 L162.493677,13.413676 C162.493677,6.01721724 168.451258,0 175.774411,0 Z M144.525627,0 C151.848779,0 157.80636,6.01721724 157.80636,13.413676 L157.80636,13.413676 L157.80636,18.1479146 C157.80636,19.4529864 156.754838,20.5150339 155.462701,20.5150339 L155.462701,20.5150339 L146.869285,20.5150339 L146.869285,26.0383122 C146.869285,26.4738622 146.52008,26.827352 146.088066,26.827352 L146.088066,26.827352 L142.963187,26.827352 C142.531173,26.827352 142.181968,26.4738622 142.181968,26.0383122 L142.181968,26.0383122 L142.181968,20.5150339 L133.588552,20.5150339 C132.296415,20.5150339 131.244893,19.4529864 131.244893,18.1479146 L131.244893,18.1479146 L131.244893,13.413676 C131.244893,6.01721724 137.202474,0 144.525627,0 Z M45.310737,20.5150339 L43.7482978,20.5150339 L43.7482978,25.2492725 L45.310737,25.2492725 L45.310737,20.5150339 Z M14.0619529,20.5150339 L12.4995137,20.5150339 L12.4995137,25.2492725 L14.0619529,25.2492725 L14.0619529,20.5150339 Z M176.55563,20.5150339 L174.993191,20.5150339 L174.993191,25.2492725 L176.55563,25.2492725 L176.55563,20.5150339 Z M145.306846,20.5150339 L143.744407,20.5150339 L143.744407,25.2492725 L145.306846,25.2492725 L145.306846,20.5150339 Z M44.5295174,1.57807953 C38.0680501,1.57807953 32.8112233,6.8875281 32.8112233,13.413676 L32.8112233,13.413676 L32.8112233,18.1479146 C32.8112233,18.5826755 33.1612097,18.9369543 33.5924429,18.9369543 L33.5924429,18.9369543 L55.4665918,18.9369543 C55.8978251,18.9369543 56.2478114,18.5826755 56.2478114,18.1479146 L56.2478114,18.1479146 L56.2478114,13.413676 C56.2478114,6.8875281 50.9909847,1.57807953 44.5295174,1.57807953 Z M13.2807333,1.57807953 C6.81926592,1.57807953 1.56243921,6.8875281 1.56243921,13.413676 L1.56243921,13.413676 L1.56243921,18.1479146 C1.56243921,18.5826755 1.91242559,18.9369543 2.34365881,18.9369543 L2.34365881,18.9369543 L24.2178077,18.9369543 C24.6490409,18.9369543 24.9990273,18.5826755 24.9990273,18.1479146 L24.9990273,18.1479146 L24.9990273,13.413676 C24.9990273,6.8875281 19.7422006,1.57807953 13.2807333,1.57807953 Z M175.774411,1.57807953 C169.312943,1.57807953 164.056117,6.8875281 164.056117,13.413676 L164.056117,13.413676 L164.056117,18.1479146 C164.056117,18.5826755 164.406103,18.9369543 164.837336,18.9369543 L164.837336,18.9369543 L186.711485,18.9369543 C187.142718,18.9369543 187.492705,18.5826755 187.492705,18.1479146 L187.492705,18.1479146 L187.492705,13.413676 C187.492705,6.8875281 182.235878,1.57807953 175.774411,1.57807953 Z M144.525627,1.57807953 C138.064159,1.57807953 132.807333,6.8875281 132.807333,13.413676 L132.807333,13.413676 L132.807333,18.1479146 C132.807333,18.5826755 133.157319,18.9369543 133.588552,18.9369543 L133.588552,18.9369543 L155.462701,18.9369543 C155.893934,18.9369543 156.243921,18.5826755 156.243921,18.1479146 L156.243921,18.1479146 L156.243921,13.413676 C156.243921,6.8875281 150.987094,1.57807953 144.525627,1.57807953 Z" id="Combined-Shape" stroke="#FFFFFF" stroke-width="0.582615" fill="#7A7A7A"></path>
                        </g>
                    </g>
                </g>
            </g>
        </g>
    </g>
</svg>