<?xml version="1.0" encoding="UTF-8"?>
<svg width="41px" height="40px" viewBox="0 0 41 40" version="1.1" xmlns="http://www.w3.org/2000/svg" xmlns:xlink="http://www.w3.org/1999/xlink">
    <!-- Generator: sketchtool 59.1 (101010) - https://sketch.com -->
    <title>878A1DC1-719A-496D-AEB3-68AFF471573A</title>
    <desc>Created with sketchtool.</desc>
    <g id="Asset-Artboard-Page" stroke="none" stroke-width="1" fill="none" fill-rule="evenodd">
        <g id="global-/-icons-/-dog-circle" transform="translate(0.104360, 0.000000)">
            <g id="dog">
                <circle id="Oval" fill="#FFDF2A" cx="20.1454545" cy="20.1454545" r="19.6363636"></circle>
                <g id="Scaleable-Doggo" transform="translate(5.745455, 10.327273)">
                    <path d="M5.08243769,13.4438721 C5.08243769,15.9209158 7.23412973,17.9251815 9.89337574,17.9251815 C9.89337574,19.162583 10.9704245,20.1658362 12.2988448,20.1658362 L17.1097828,20.1658362 C18.4382031,20.1658362 19.5152519,19.162583 19.5152519,17.9251815 C22.1744979,17.9251815 24.3261899,15.9209158 24.3261899,13.4438721 L25.2450791,13.4438721 C27.394967,13.4438721 29.137128,11.8210779 29.137128,9.81849281 C29.137128,9.25552832 28.996408,8.70040613 28.7257928,8.19737915 L28.6289726,8.01644628 C25.9925786,3.10325072 20.6013211,-5.60163647e-05 14.7043138,-5.60163647e-05 C8.80730648,-5.60163647e-05 3.41604902,3.10325072 0.779654966,8.01644628 L0.682834837,8.19737915 C0.412219572,8.70040613 0.271499634,9.25552832 0.271499634,9.81849281 C0.271499634,11.8210779 2.01366058,13.4438721 4.16354852,13.4438721 L5.08243769,13.4438721 Z" id="Fill-1" fill="#FFDF2A"></path>
                    <g id="Nose" transform="translate(12.298845, 12.157919)">
                        <polygon id="Fill-3" fill="#1D253C" points="0 0.060595507 4.81093805 0.060595507 2.40546903 2.30125019"></polygon>
                        <polygon id="Stroke-5" stroke="#1D253C" stroke-width="1.280448" stroke-linecap="round" stroke-linejoin="round" points="0 0.060595507 4.81093805 0.060595507 2.40546903 2.30125019"></polygon>
                    </g>
                    <path d="M11.0961103,6.72190788 C11.7600197,6.72190788 12.2988448,7.22381453 12.2988448,7.84223522 C12.2988448,8.46065591 11.7600197,8.96256256 11.0961103,8.96256256 C10.4322008,8.96256256 9.89337574,8.46065591 9.89337574,7.84223522 C9.89337574,7.22381453 10.4322008,6.72190788 11.0961103,6.72190788 Z M18.3125173,6.72190788 C18.9764268,6.72190788 19.5152519,7.22381453 19.5152519,7.84223522 C19.5152519,8.46065591 18.9764268,8.96256256 18.3125173,8.96256256 C17.6486079,8.96256256 17.1097828,8.46065591 17.1097828,7.84223522 C17.1097828,7.22381453 17.6486079,6.72190788 18.3125173,6.72190788 Z" id="Eyes" fill="#1D253C"></path>
                    <line x1="23.1234561" y1="6.72190788" x2="24.3261906" y2="13.4438719" id="Stroke-11" stroke="#1D253C" stroke-width="1.280448" stroke-linecap="round" stroke-linejoin="round"></line>
                    <line x1="5.08243769" y1="13.4438719" x2="6.2851722" y2="6.72190788" id="Stroke-13" stroke="#1D253C" stroke-width="1.280448" stroke-linecap="round" stroke-linejoin="round"></line>
                    <path d="M24.3261899,13.4438721 L25.2450791,13.4438721 C27.394967,13.4438721 29.137128,11.8210779 29.137128,9.81849281 C29.137128,9.25552832 28.996408,8.70040613 28.7257928,8.19737915 L28.6289726,8.01644628 C25.9925786,3.10325072 20.6013211,-5.60163647e-05 14.7043138,-5.60163647e-05 C8.80730648,-5.60163647e-05 3.41604902,3.10325072 0.779654966,8.01644628 L0.682834837,8.19737915 C0.412219572,8.70040613 0.271499634,9.25552832 0.271499634,9.81849281 C0.271499634,11.8210779 2.01366058,13.4438721 4.16354852,13.4438721 L5.08243769,13.4438721" id="Stroke-15" stroke="#1D253C" stroke-width="1.280448" stroke-linecap="round" stroke-linejoin="round"></path>
                    <path d="M5.08243769,13.4438726 C5.08243769,15.9209164 7.23412973,17.925182 9.89337574,17.925182 C12.5526218,17.925182 14.7043138,15.9209164 14.7043138,13.4438726" id="Stroke-17" stroke="#1D253C" stroke-width="1.280448" stroke-linecap="round" stroke-linejoin="round"></path>
                    <path d="M24.3261899,13.4438726 C24.3261899,15.9209164 22.1744979,17.925182 19.5152519,17.925182 C16.8560058,17.925182 14.7043138,15.9209164 14.7043138,13.4438726" id="Stroke-19" stroke="#1D253C" stroke-width="1.280448" stroke-linecap="round" stroke-linejoin="round"></path>
                    <path d="M19.5152519,17.9251806 L19.5152519,17.9251806 C19.5152519,19.1625822 18.4382031,20.1658353 17.1097828,20.1658353 L12.2988448,20.1658353 C10.9704245,20.1658353 9.89337574,19.1625822 9.89337574,17.9251806" id="Stroke-21" stroke="#1D253C" stroke-width="1.280448" stroke-linecap="round" stroke-linejoin="round"></path>
                </g>
            </g>
        </g>
    </g>
</svg>