<?xml version="1.0" encoding="UTF-8"?>
<svg width="11px" height="871px" viewBox="0 0 11 871" version="1.1" xmlns="http://www.w3.org/2000/svg" xmlns:xlink="http://www.w3.org/1999/xlink">
    <!-- Generator: Sketch 64 (93537) - https://sketch.com -->
    <title>line</title>
    <desc>Created with Sketch.</desc>
    <g id="Victor-Form" stroke="none" stroke-width="1" fill="none" fill-rule="evenodd">
        <g id="KW-home-Copy" transform="translate(-715.000000, -2320.000000)" fill="#D4D4D4" fill-rule="nonzero">
            <g id="line" transform="translate(716.000000, 2325.000000)">
                <path id="Line-2" d="M4.50523125,-4.10756305 C6.99051094,-4.10467391 9.0028861,-2.08761454 8.99999696,0.397665157 C8.99730442,2.7138292 7.24523146,4.61925838 4.99512448,4.86551229 L4.00590633,856.135694 C6.25524991,856.387353 8.00268935,858.296765 7.99999696,860.612797 C7.99710782,863.098077 5.98004845,865.110452 3.49476875,865.107563 C1.00948906,865.104674 -1.0028861,863.087615 -0.999996959,860.602335 C-0.997304419,858.286171 0.754768542,856.380742 3.00487552,856.134488 L3.99409367,4.86430617 C1.74475009,4.61264739 -0.00268934687,2.70323516 3.04066043e-06,0.387202665 C0.00289217804,-2.09807703 2.01995155,-4.11045219 4.50523125,-4.10756305 Z M3.486,857.107 L3.50406875,857.107568 C1.57107343,857.105321 0.00224947181,858.670502 2.36495811e-06,860.603497 C-0.00224474189,862.536493 1.56293593,864.105317 3.49593125,864.107564 C5.42892657,864.109811 6.99775053,862.54463 6.99999764,860.611635 C7.00223694,858.685351 5.44791448,857.120715 3.52419076,857.107648 L3.486,857.107 Z M4.50406875,-3.10756372 C2.57107343,-3.10981083 1.00224947,-1.54463015 1.00000236,0.388365164 C0.997763061,2.31464869 2.55208552,3.87928544 4.47580924,3.89235153 L4.513,3.892 L4.68797235,3.88747593 C6.53177419,3.78992459 7.99782543,2.2650648 7.99999764,0.396502658 C8.00224474,-1.53649266 6.43706407,-3.10531662 4.50406875,-3.10756372 Z"></path>
                <path id="Oval" d="M4.5,433.531905 C7.23850303,433.531905 9.5,435.306881 9.5,437.56381 C9.5,439.820739 7.23850303,441.595716 4.5,441.595716 C1.76149697,441.595716 -0.5,439.820739 -0.5,437.56381 C-0.5,435.306881 1.76149697,433.531905 4.5,433.531905 Z M4.5,434.531905 C2.26794028,434.531905 0.5,435.919505 0.5,437.56381 C0.5,439.208116 2.26794028,440.595716 4.5,440.595716 C6.73205972,440.595716 8.5,439.208116 8.5,437.56381 C8.5,435.919505 6.73205972,434.531905 4.5,434.531905 Z"></path>
            </g>
        </g>
    </g>
</svg>