<?xml version="1.0" encoding="UTF-8"?>
<svg width="219px" height="42px" viewBox="0 0 219 42" version="1.1" xmlns="http://www.w3.org/2000/svg" xmlns:xlink="http://www.w3.org/1999/xlink">
    <!-- Generator: Sketch 64 (93537) - https://sketch.com -->
    <title>Group 7</title>
    <desc>Created with Sketch.</desc>
    <defs>
        <path d="M22.2076669,0.148490981 L0.699221274,9.80632407 C0.270799944,9.99895645 0,10.3923392 0,10.8227601 L0,10.8227601 L0,13.8548174 C0,14.4883563 0.742345883,14.9001736 1.37339638,14.6168907 L1.37339638,14.6168907 L22.2076669,5.26145149 C22.5637745,5.10146007 22.9831566,5.10146007 23.3390758,5.26145149 L23.3390758,5.26145149 L44.173723,14.6168907 C44.8043969,14.9001736 45.5469311,14.4883563 45.5469311,13.8548174 L45.5469311,13.8548174 L45.5469311,10.8227601 C45.5469311,10.3923392 45.2761311,9.99895645 44.8475215,9.80632407 L44.8475215,9.80632407 L23.3390758,0.148490981 C23.1611162,0.0684952702 22.9673379,0.0284128528 22.7733714,0.0284128528 L22.7733714,0.0284128528 C22.5795931,0.0284128528 22.3856265,0.0684952702 22.2076669,0.148490981" id="path-1"></path>
        <polygon id="path-3" points="0 0.107072483 45.5468934 0.107072483 45.5468934 30.6516503 0 30.6516503"></polygon>
        <polygon id="path-5" points="0.139203977 0.0284128528 9.55740255 0.0284128528 9.55740255 14.3669928 0.139203977 14.3669928"></polygon>
        <polygon id="path-7" points="0.161802025 0.0284128528 1.23351446 0.0284128528 1.23351446 14.3670267 0.161802025 14.3670267"></polygon>
        <polygon id="path-9" points="0.0856654343 0.0284128528 1.15718955 0.0284128528 1.15718955 14.3670267 0.0856654343 14.3670267"></polygon>
    </defs>
    <g id="Pearl-Form-V3" stroke="none" stroke-width="1" fill="none" fill-rule="evenodd">
        <g id="KW_Pearl_Desktop_31" transform="translate(-610.000000, -112.000000)">
            <g id="Group-7" transform="translate(610.000000, 112.000000)">
                <g id="global-/-logo-/-kc---white">
                    <g id="Group-39">
                        <g id="Group-3" transform="translate(0.000000, 0.140711)">
                            <mask id="mask-2" fill="white">
                                <use xlink:href="#path-1"></use>
                            </mask>
                            <g id="Clip-2"></g>
                            <path d="M22.2076669,0.148490981 L0.699221274,9.80632407 C0.270799944,9.99895645 0,10.3923392 0,10.8227601 L0,10.8227601 L0,13.8548174 C0,14.4883563 0.742345883,14.9001736 1.37339638,14.6168907 L1.37339638,14.6168907 L22.2076669,5.26145149 C22.5637745,5.10146007 22.9831566,5.10146007 23.3390758,5.26145149 L23.3390758,5.26145149 L44.173723,14.6168907 C44.8043969,14.9001736 45.5469311,14.4883563 45.5469311,13.8548174 L45.5469311,13.8548174 L45.5469311,10.8227601 C45.5469311,10.3923392 45.2761311,9.99895645 44.8475215,9.80632407 L44.8475215,9.80632407 L23.3390758,0.148490981 C23.1611162,0.0684952702 22.9673379,0.0284128528 22.7733714,0.0284128528 L22.7733714,0.0284128528 C22.5795931,0.0284128528 22.3856265,0.0684952702 22.2076669,0.148490981" id="Fill-1" fill="#FFFFFF" mask="url(#mask-2)"></path>
                        </g>
                        <g id="Group-38" transform="translate(0.000000, 0.140711)">
                            <g id="Group-6" transform="translate(0.000000, 10.147447)">
                                <mask id="mask-4" fill="white">
                                    <use xlink:href="#path-3"></use>
                                </mask>
                                <g id="Clip-5"></g>
                                <path d="M-3.76634136e-05,10.9015042 L-3.76634136e-05,13.9335615 C-3.76634136e-05,14.5669314 0.742308219,14.9789178 1.3731704,14.695804 L4.77794299,13.1669219 C5.198455,12.9780102 5.69335226,13.2526678 5.69335226,13.6749708 L5.69335226,30.0835624 C5.69335226,30.3972876 5.97658113,30.6516503 6.32590929,30.6516503 L10.7541851,30.6516503 C11.1035133,30.6516503 11.3867422,30.3972876 11.3867422,30.0835624 L11.3867422,10.9015042 C11.3867422,10.4710834 11.6575421,10.0775315 12.0861518,9.88523739 L22.2076292,5.34019569 C22.5637368,5.18020426 22.9831189,5.18020426 23.3392265,5.34019569 L33.4608923,9.88523739 C33.8893136,10.0775315 34.1601135,10.4710834 34.1601135,10.9015042 L34.1601135,30.0835624 C34.1601135,30.3972876 34.4433424,30.6516503 34.7926706,30.6516503 L39.2209464,30.6516503 C39.5702746,30.6516503 39.8535035,30.3972876 39.8535035,30.0835624 L39.8535035,13.6749708 C39.8535035,13.2526678 40.3484007,12.9780102 40.7691011,13.1669219 L44.1736853,14.695804 C44.8045475,14.9789178 45.5468934,14.5669314 45.5468934,13.9335615 L45.5468934,10.9015042 C45.5468934,10.4710834 45.2760934,10.0775315 44.8474838,9.88523739 L23.3392265,0.227066049 C22.9831189,0.0670746275 22.5637368,0.0670746275 22.2076292,0.227066049 L0.699371928,9.88523739 C0.270762281,10.0775315 -3.76634136e-05,10.4710834 -3.76634136e-05,10.9015042" id="Fill-4" fill="#FFFFFF" mask="url(#mask-4)"></path>
                            </g>
                            <path d="M20.5594406,40.7989963 L24.9877164,40.7989963 C25.3370446,40.7989963 25.6202735,40.5446336 25.6202735,40.2309083 L25.6202735,31.709082 C25.6202735,31.0816315 25.0538157,30.5729061 24.3549711,30.5729061 L21.1919976,30.5729061 C20.4933413,30.5729061 19.9268836,31.0816315 19.9268836,31.709082 L19.9268836,40.2309083 C19.9268836,40.5446336 20.2101124,40.7989963 20.5594406,40.7989963" id="Fill-7" fill="#FFFFFF"></path>
                            <g id="Group-11" transform="translate(61.767998, 0.000000)">
                                <mask id="mask-6" fill="white">
                                    <use xlink:href="#path-5"></use>
                                </mask>
                                <g id="Clip-10"></g>
                                <path d="M8.30256056,14.3247118 L3.92287051,9.47626143 L1.21091641,11.9314363 L1.21091641,14.2526649 C1.21091641,14.3157482 1.15404466,14.3669928 1.08361407,14.3669928 L0.266506315,14.3669928 C0.196264048,14.3669928 0.139203977,14.3157482 0.139203977,14.2526649 L0.139203977,0.142639286 C0.139203977,0.0795559879 0.196264048,0.0283113783 0.266506315,0.0283113783 L1.08361407,0.0283113783 C1.15404466,0.0283113783 1.21091641,0.0795559879 1.21091641,0.142639286 L1.21091641,10.7725978 L8.0844894,4.38444144 C8.10840567,4.36211705 8.14154947,4.34960187 8.17601149,4.34960187 L9.23924966,4.34960187 C9.3522399,4.34960187 9.40911166,4.47187861 9.32983017,4.54409461 L4.6663463,8.78877187 L9.52888131,14.1807872 C9.59611051,14.25554 9.53697895,14.3669928 9.42982653,14.3669928 L8.40123871,14.3669928 C8.36301034,14.3669928 8.32666515,14.3514334 8.30256056,14.3247118" id="Fill-9" fill="#FFFFFF" mask="url(#mask-6)"></path>
                            </g>
                            <g id="Group-14" transform="translate(85.495949, 0.000000)">
                                <mask id="mask-8" fill="white">
                                    <use xlink:href="#path-7"></use>
                                </mask>
                                <g id="Clip-13"></g>
                                <path d="M0.161802025,14.2526988 L0.161802025,0.142673111 C0.161802025,0.0795898127 0.218862097,0.0283452032 0.289104363,0.0283452032 L1.10621212,0.0283452032 C1.17645439,0.0283452032 1.23351446,0.0795898127 1.23351446,0.142673111 L1.23351446,14.2526988 C1.23351446,14.3157821 1.17645439,14.3670267 1.10621212,14.3670267 L0.289104363,14.3670267 C0.218862097,14.3670267 0.161802025,14.3157821 0.161802025,14.2526988" id="Fill-12" fill="#FFFFFF" mask="url(#mask-8)"></path>
                            </g>
                            <g id="Group-17" transform="translate(90.580510, 0.000000)">
                                <mask id="mask-10" fill="white">
                                    <use xlink:href="#path-9"></use>
                                </mask>
                                <g id="Clip-16"></g>
                                <path d="M0.0856654343,14.2526988 L0.0856654343,0.142673111 C0.0856654343,0.0795898127 0.142537189,0.0283452032 0.212779455,0.0283452032 L1.03007553,0.0283452032 C1.1003178,0.0283452032 1.15718955,0.0795898127 1.15718955,0.142673111 L1.15718955,14.2526988 C1.15718955,14.3157821 1.1003178,14.3670267 1.03007553,14.3670267 L0.212779455,14.3670267 C0.142537189,14.3670267 0.0856654343,14.3157821 0.0856654343,14.2526988" id="Fill-15" fill="#FFFFFF" mask="url(#mask-10)"></path>
                            </g>
                            <path d="M104.006707,8.88696534 C103.853605,6.86373344 102.563257,4.99761786 100.004404,4.99761786 C97.7954451,4.99761786 96.0894808,6.66721121 95.8926895,8.88696534 L104.006707,8.88696534 Z M104.903849,9.75118961 L101.101351,9.75118961 L95.8926895,9.75118961 C96.0894808,12.2456013 98.0798039,13.6992232 100.266918,13.6992232 C101.943129,13.6992232 103.104668,13.0519851 104.011415,12.2061954 C104.058306,12.1625614 104.133821,12.159348 104.184478,12.1994304 L104.737942,12.6379693 C104.792366,12.6810959 104.79632,12.7573709 104.746228,12.8045565 C103.628755,13.8585381 102.309217,14.6026842 100.22304,14.6026842 C97.2924502,14.6026842 94.7554427,12.5009787 94.7554427,9.37793267 L94.7554427,9.33869587 C94.7554427,6.43145218 97.0299362,4.11377519 100.048094,4.11377519 C103.175664,4.11377519 105.165799,6.39221539 105.165799,9.35831427 L105.165799,9.39772019 C105.165799,9.39772019 105.195364,9.75118961 104.903849,9.75118961 L104.903849,9.75118961 Z" id="Fill-18" fill="#FFFFFF"></path>
                            <path d="M81.6447896,8.88696534 C81.4916878,6.86373344 80.2013392,4.99761786 77.6424869,4.99761786 C75.4335277,4.99761786 73.7275634,6.66721121 73.5307721,8.88696534 L81.6447896,8.88696534 Z M82.5419321,9.75118961 L78.7394338,9.75118961 L73.5307721,9.75118961 C73.7275634,12.2456013 75.7178865,13.6992232 77.9050009,13.6992232 C79.5812111,13.6992232 80.7429391,13.0519851 81.6494975,12.2061954 C81.6963885,12.1625614 81.7719036,12.159348 81.8225609,12.1994304 L82.3760247,12.6379693 C82.4304484,12.6810959 82.434403,12.7573709 82.3843107,12.8045565 C81.2668372,13.8585381 79.9472995,14.6026842 77.861123,14.6026842 C74.9305328,14.6026842 72.3935253,12.5009787 72.3935253,9.37793267 L72.3935253,9.33869587 C72.3935253,6.43145218 74.6680188,4.11377519 77.6861765,4.11377519 C80.8137464,4.11377519 82.8038811,6.39221539 82.8038811,9.35831427 L82.8038811,9.39772019 C82.8038811,9.39772019 82.8334469,9.75118961 82.5419321,9.75118961 L82.5419321,9.75118961 Z" id="Fill-20" fill="#FFFFFF"></path>
                            <path d="M113.760477,5.25302911 C111.179779,5.25302911 108.927131,7.00109606 108.927131,10.2618092 L108.927131,14.2526311 C108.927131,14.3157144 108.870071,14.366959 108.799828,14.366959 L107.982721,14.366959 C107.912478,14.366959 107.855418,14.3157144 107.855418,14.2526311 L107.855418,4.46372683 C107.855418,4.40064353 107.912478,4.34956804 107.982721,4.34956804 L108.799828,4.34956804 C108.870071,4.34956804 108.927131,4.40064353 108.927131,4.46372683 L108.927131,7.19761829 C109.784915,5.44498499 111.588992,4.16437713 113.741268,4.1894075 C113.811699,4.19008399 113.869889,4.24386546 113.869889,4.30694876 L113.869889,5.25302911 L113.760477,5.25302911 Z" id="Fill-22" fill="#FFFFFF"></path>
                            <path d="M72.5178522,41.0970944 C66.0043415,41.0970944 61.1917105,36.5141689 61.1917105,30.888255 C61.1917105,25.2621719 66.0043415,20.5674553 72.559282,20.5674553 C76.395489,20.5674553 78.8839107,21.7462504 80.8441031,23.5146123 C81.1141497,23.758151 81.1105717,24.1544088 80.8506942,24.4065729 L78.7134838,26.4793582 C78.4423072,26.7425153 77.9801771,26.7629793 77.6922403,26.514536 C76.3005772,25.3142621 74.7708776,24.517011 72.5178522,24.517011 C68.8669492,24.517011 66.2118669,27.3486562 66.2118669,30.8136712 C66.2118669,34.35327 68.908379,37.1849152 72.7668074,37.1849152 C74.8929071,37.1849152 76.5160119,36.3717664 77.9677482,35.1515359 C78.2460808,34.9174681 78.6854245,34.9340422 78.9569777,35.1745368 L80.9772432,36.9640391 C81.2565174,37.2112986 81.2713945,37.619226 80.9987114,37.8725739 C78.9419124,39.7850295 76.4781602,41.0970944 72.5178522,41.0970944" id="Fill-24" fill="#FFFFFF"></path>
                            <path d="M95.0444529,24.5169941 C91.0201171,24.5169941 88.4478943,27.3486393 88.4478943,30.8136543 C88.4478943,34.3160458 91.2276426,37.1848983 95.1273124,37.1848983 C99.1930779,37.1848983 101.765301,34.3532531 101.765301,30.888238 C101.765301,27.3858466 98.9857408,24.5169941 95.0444529,24.5169941 M95.0444529,41.0970775 C88.3650348,41.0970775 83.4279262,36.5143212 83.4279262,30.888238 C83.4279262,25.2249476 88.4064646,20.5674384 95.1273124,20.5674384 C101.848349,20.5674384 106.785269,25.1503639 106.785269,30.8136543 C106.785269,36.4397374 101.806919,41.0970775 95.0444529,41.0970775" id="Fill-26" fill="#FFFFFF"></path>
                            <path d="M125.460597,20.9772769 L129.149164,20.9772769 C129.662893,20.9772769 130.013351,21.444736 129.819949,21.8722817 L121.446995,40.3934028 C121.336077,40.6386328 121.07055,40.7991316 120.775833,40.7991316 L117.22794,40.7991316 C116.933789,40.7991316 116.668638,40.6391401 116.557531,40.3944175 L108.145596,21.8732965 C107.951253,21.4455816 108.301523,20.9772769 108.816005,20.9772769 L112.625847,20.9772769 C112.929791,20.9772769 113.201344,21.1479231 113.30586,21.4041462 L119.022978,35.4338379 L124.781337,21.4027932 C124.886042,21.1472466 125.157407,20.9772769 125.460597,20.9772769" id="Fill-28" fill="#FFFFFF"></path>
                            <path d="M147.440928,29.4351405 C147.108925,26.5289115 145.200708,24.2562216 141.88162,24.2562216 C138.811675,24.2562216 136.654314,26.3799132 136.197834,29.4351405 L147.440928,29.4351405 Z M142.545437,37.4086664 C144.767955,37.4086664 146.409138,36.7326773 147.996463,35.4647538 C148.275361,35.2423555 148.691165,35.2310242 148.970062,35.4532533 L150.882234,36.9770617 C151.181281,37.2153576 151.217626,37.6339398 150.944943,37.8964204 C148.914885,39.8533556 146.185794,41.0970944 142.462389,41.0970944 C136.114786,41.0970944 131.219295,36.9615022 131.219295,30.8508785 C131.219295,25.1875881 135.658682,20.5674553 141.923049,20.5674553 C148.893041,20.5674553 152.419466,25.4855848 152.419466,31.1862517 C152.419466,31.3985024 152.408355,31.6007749 152.391783,31.8084593 C152.364666,32.1495827 152.048293,32.415784 151.667516,32.415784 L136.239452,32.415784 C136.820222,35.6200097 139.309397,37.4086664 142.545437,37.4086664 L142.545437,37.4086664 Z" id="Fill-30" fill="#FFFFFF"></path>
                            <path d="M169.136918,25.3738445 C164.73915,25.3738445 161.669205,27.9447003 161.669205,33.1609957 L161.669205,39.9996987 C161.669205,40.3589184 161.344923,40.649981 160.944937,40.649981 L157.373316,40.649981 C156.973331,40.649981 156.649049,40.3589184 156.649049,39.9996987 L156.649049,21.6277452 C156.649049,21.2685255 156.973331,20.9772938 157.373316,20.9772938 L160.944937,20.9772938 C161.344923,20.9772938 161.669205,21.2685255 161.669205,21.6277452 L161.669205,25.4112209 C162.943735,22.6709028 165.225196,20.7379832 168.647106,20.6043751 C169.068183,20.5879701 169.427303,20.8766649 169.427303,21.2549956 L169.427303,25.0887012 C169.427303,25.0887012 169.467415,25.3738445 169.136918,25.3738445" id="Fill-32" fill="#FFFFFF"></path>
                            <path d="M188.190783,29.4351405 C187.85878,26.5289115 185.950563,24.2562216 182.631475,24.2562216 C179.56153,24.2562216 177.404169,26.3799132 176.947877,29.4351405 L188.190783,29.4351405 Z M183.295292,37.4086664 C185.51781,37.4086664 187.158994,36.7326773 188.746318,35.4647538 C189.025216,35.2423555 189.44102,35.2310242 189.719917,35.4532533 L191.632089,36.9770617 C191.931136,37.2153576 191.96767,37.6339398 191.694987,37.8964204 C189.66474,39.8533556 186.935838,41.0970944 183.212244,41.0970944 C176.864641,41.0970944 171.969339,36.9615022 171.969339,30.8508785 C171.969339,25.1875881 176.408537,20.5674553 182.672904,20.5674553 C189.642896,20.5674553 193.169133,25.4855848 193.169133,31.1862517 C193.169133,31.3985024 193.15821,31.6007749 193.141638,31.8084593 C193.114521,32.1495827 192.798336,32.415784 192.417559,32.415784 L176.989307,32.415784 C177.570077,35.6200097 180.059252,37.4086664 183.295292,37.4086664 L183.295292,37.4086664 Z" id="Fill-34" fill="#FFFFFF"></path>
                            <path d="M207.646459,24.4796684 C204.203082,24.4796684 201.340474,26.8643185 201.340474,30.813705 C201.340474,34.6885078 204.244511,37.1477417 207.646459,37.1477417 C211.006977,37.1477417 213.993874,34.6514697 213.993874,30.813705 C213.993874,26.9761096 211.006977,24.4796684 207.646459,24.4796684 M213.911015,39.999851 L213.911015,37.3713238 C212.292995,39.4206008 210.011345,41.059921 206.443302,41.059921 C201.298856,41.059921 196.278888,37.3713238 196.278888,30.813705 C196.278888,24.2562554 201.215996,20.5674891 206.443302,20.5674891 C210.052587,20.5674891 212.334613,22.2069784 213.911015,24.0325042 L213.911015,14.1013665 C213.911015,13.7421469 214.235109,13.4510842 214.635094,13.4510842 L218.206716,13.4510842 C218.606701,13.4510842 218.930983,13.7421469 218.930983,14.1013665 L218.930983,39.999851 C218.930983,40.3589015 218.606701,40.6499641 218.206716,40.6499641 L214.635094,40.6499641 C214.235109,40.6499641 213.911015,40.3589015 213.911015,39.999851" id="Fill-36" fill="#FFFFFF"></path>
                        </g>
                    </g>
                </g>
            </g>
        </g>
    </g>
</svg>