<?xml version="1.0" encoding="UTF-8"?>
<svg width="190px" height="39px" viewBox="0 0 190 39" version="1.1" xmlns="http://www.w3.org/2000/svg" xmlns:xlink="http://www.w3.org/1999/xlink">
    <!-- Generator: sketchtool 62 (101010) - https://sketch.com -->
    <title>8FA90D68-808C-4F3E-B806-C566566DE3D8</title>
    <desc>Created with sketchtool.</desc>
    <g id="Asset-Artboard-Page" stroke="none" stroke-width="1" fill="none" fill-rule="evenodd">
        <g id="global-/-logo-/-kc---color" transform="translate(0.800297, 0.000000)">
            <path d="M21.4950313,38.0961071 C21.7955317,38.0961071 22.039172,37.859412 22.039172,37.5674775 L22.039172,29.6375625 C22.039172,29.0536936 21.5518915,28.5803034 20.9507286,28.5803034 L18.2298631,28.5803034 C17.6288622,28.5803034 17.1415817,29.0536936 17.1415817,29.6375625 L17.1415817,37.5674775 C17.1415817,37.859412 17.385222,38.0961071 17.6857224,38.0961071 L21.4950313,38.0961071 Z" id="logo" fill="#0093E9"></path>
            <path d="M62.4172309,19.269813 C65.7172279,19.269813 67.8578278,20.3667311 69.5440321,22.0122656 C69.7763327,22.2388885 69.7732548,22.607623 69.5497019,22.8422722 L67.7112225,24.7710854 C67.4779499,25.0159641 67.0804145,25.0350067 66.8327244,24.8038198 C65.6355825,23.6869148 64.3196984,22.9450394 62.3815921,22.9450394 C59.240998,22.9450394 56.9570327,25.5800034 56.9570327,28.8043446 C56.9570327,32.098089 59.2766369,34.733053 62.5957493,34.733053 C64.4246711,34.733053 65.8209046,33.9763841 67.0697229,32.8409087 C67.3091513,32.6230988 67.6870852,32.6385218 67.9206818,32.862312 L69.6585625,34.5275186 C69.8988008,34.7576039 69.9115984,35.1371973 69.6770299,35.3729481 C67.9077222,37.1525679 65.7883437,38.3734991 62.3815921,38.3734991 C56.7785144,38.3734991 52.6385742,34.1088956 52.6385742,28.8737479 C52.6385742,23.6384427 56.7785144,19.269813 62.4172309,19.269813 Z M81.8307881,19.2697974 C87.6123842,19.2697974 91.859241,23.5344009 91.859241,28.804329 C91.859241,34.0396341 87.5767453,38.3734835 81.7595104,38.3734835 C76.0137152,38.3734835 71.7666963,34.1090374 71.7666963,28.8737322 C71.7666963,23.6038041 76.0493541,19.2697974 81.8307881,19.2697974 Z M122.085602,19.269813 C128.081355,19.269813 131.114871,23.8463378 131.114871,29.1510462 C131.114871,29.3485544 131.105313,29.5367774 131.091058,29.7300364 C131.06773,30.0474659 130.795579,30.2951774 130.468025,30.2951774 L117.196435,30.2951774 C117.696027,33.2768431 119.837275,34.9412629 122.620995,34.9412629 C124.532858,34.9412629 125.944643,34.3122268 127.310098,33.132371 C127.550012,32.9254202 127.907697,32.9148759 128.147611,33.1216694 L129.792507,34.5396366 C130.049755,34.7613809 130.08102,35.1508891 129.846451,35.3951383 C128.100147,37.2161482 125.752517,38.3734991 122.549555,38.3734991 C117.089194,38.3734991 112.877976,34.5251579 112.877976,28.8389675 C112.877976,23.5690394 116.696843,19.269813 122.085602,19.269813 Z M157.139606,19.269813 C163.135359,19.269813 166.168712,23.8463378 166.168712,29.1510462 C166.168712,29.3485544 166.159317,29.5367774 166.145061,29.7300364 C166.121734,30.0474659 165.849745,30.2951774 165.522191,30.2951774 L152.250439,30.2951774 C152.750032,33.2768431 154.891279,34.9412629 157.674999,34.9412629 C159.586862,34.9412629 160.998647,34.3122268 162.364102,33.132371 C162.604016,32.9254202 162.961701,32.9148759 163.201615,33.1216694 L164.846511,34.5396366 C165.103758,34.7613809 165.135185,35.1508891 164.900617,35.3951383 C163.15415,37.2161482 160.806683,38.3734991 157.603559,38.3734991 C152.143199,38.3734991 147.932143,34.5251579 147.932143,28.8389675 C147.932143,23.5690394 151.750847,19.269813 157.139606,19.269813 Z M187.706648,12.6477332 C188.050725,12.6477332 188.32968,12.9185791 188.32968,13.252848 L188.32968,37.352469 C188.32968,37.6865805 188.050725,37.9574264 187.706648,37.9574264 L184.634253,37.9574264 C184.290176,37.9574264 184.011383,37.6865805 184.011383,37.352469 L184.011383,34.9065147 C182.619523,36.8134525 180.656794,38.3389084 177.587477,38.3389084 C173.162102,38.3389084 168.843805,34.9065147 168.843805,28.8043767 C168.843805,22.7023961 173.090824,19.2698451 177.587477,19.2698451 C180.692271,19.2698451 182.655324,20.7954583 184.011383,22.4941862 L184.011383,13.252848 C184.011383,12.9185791 184.290176,12.6477332 184.634253,12.6477332 L187.706648,12.6477332 Z M19.1035347,9.7848552 C19.4098669,9.6359765 19.7706295,9.6359765 20.0769617,9.7848552 L20.0769617,9.7848552 L38.5788799,18.7721871 C38.9475802,18.9511248 39.1805288,19.3173412 39.1805288,19.7178658 L39.1805288,19.7178658 L39.1805288,22.5393218 C39.1805288,23.1286989 38.5419451,23.5120694 37.9992623,23.2486202 L37.9992623,23.2486202 L35.0705574,21.8259316 C34.7086609,21.6501414 34.2829384,21.9057218 34.2829384,22.2986923 L34.2829384,22.2986923 L34.2829384,37.5675722 C34.2829384,37.8595067 34.0392981,38.0962018 33.7387977,38.0962018 L33.7387977,38.0962018 L29.9294887,38.0962018 C29.6289882,38.0962018 29.385348,37.8595067 29.385348,37.5675722 L29.385348,37.5675722 L29.385348,19.7178658 C29.385348,19.3173412 29.1523994,18.9511248 28.7838611,18.7721871 L28.7838611,18.7721871 L20.0769617,14.5428359 C19.7706295,14.3939572 19.4098669,14.3939572 19.1035347,14.5428359 L19.1035347,14.5428359 L10.3967973,18.7721871 C10.028097,18.9511248 9.7951484,19.3173412 9.7951484,19.7178658 L9.7951484,19.7178658 L9.7951484,37.5675722 C9.7951484,37.8595067 9.55150814,38.0962018 9.25100768,38.0962018 L9.25100768,38.0962018 L5.44169871,38.0962018 C5.14119826,38.0962018 4.897558,37.8595067 4.897558,37.5675722 L4.897558,37.5675722 L4.897558,22.2986923 C4.897558,21.9057218 4.47183552,21.6501414 4.11010102,21.8259316 L4.11010102,21.8259316 L1.18123407,23.2486202 C0.638551312,23.5120694 -3.2398969e-05,23.1286989 -3.2398969e-05,22.5393218 L-3.2398969e-05,22.5393218 L-3.2398969e-05,19.7178658 C-3.2398969e-05,19.3173412 0.2329162,18.9511248 0.601616486,18.7721871 L0.601616486,18.7721871 Z M96.8834481,19.6511695 C97.1449078,19.6511695 97.3785044,19.8099629 97.4684115,20.0483892 L102.386413,33.1036031 L107.339892,20.0471302 C107.429961,19.8093334 107.663395,19.6511695 107.924207,19.6511695 L111.0972,19.6511695 C111.539122,19.6511695 111.840595,20.0861597 111.674226,20.4840089 L104.471611,37.7186854 C104.376196,37.9468821 104.147783,38.096233 103.894261,38.096233 L100.842278,38.096233 C100.589242,38.096233 100.361154,37.9473543 100.265577,37.7196297 L93.0294286,20.4849531 C92.8622499,20.0869466 93.1635604,19.6511695 93.6061303,19.6511695 L96.8834481,19.6511695 Z M145.074279,19.3041684 C145.436499,19.2889028 145.745424,19.5575455 145.745424,19.9095979 L145.745424,23.4770211 C145.745424,23.4770211 145.779928,23.7423588 145.495628,23.7423588 C141.712562,23.7423588 139.071722,26.1346474 139.071722,30.988628 L139.071722,37.3523266 C139.071722,37.6865955 138.792766,37.9574414 138.448689,37.9574414 L135.376295,37.9574414 C135.032218,37.9574414 134.753263,37.6865955 134.753263,37.3523266 L134.753263,20.256457 C134.753263,19.9221881 135.032218,19.6511848 135.376295,19.6511848 L138.448689,19.6511848 C138.792766,19.6511848 139.071722,19.9221881 139.071722,20.256457 L139.071722,23.7771391 C140.168103,21.2271587 142.13067,19.4284963 145.074279,19.3041684 Z M81.7595107,22.9450239 C78.2976807,22.9450239 76.0849929,25.5799879 76.0849929,28.804329 C76.0849929,32.0634505 78.476199,34.7330374 81.8307884,34.7330374 C85.3282573,34.7330374 87.540945,32.0980734 87.540945,28.8737323 C87.540945,25.6146109 85.149901,22.9450239 81.7595107,22.9450239 Z M178.622462,22.9102909 C175.660386,22.9102909 173.197903,25.1293073 173.197903,28.8043763 C173.197903,32.410042 175.696025,34.6984617 178.622462,34.6984617 C181.51326,34.6984617 184.082661,32.3755764 184.082661,28.8043763 C184.082661,25.2333336 181.51326,22.9102909 178.622462,22.9102909 Z M122.049963,22.7023641 C119.409123,22.7023641 117.55331,24.6785478 117.160634,27.5215642 L126.832212,27.5215642 C126.546616,24.8171969 124.905122,22.7023641 122.049963,22.7023641 Z M157.103967,22.7023641 C154.463127,22.7023641 152.607314,24.6785478 152.214801,27.5215642 L161.886217,27.5215642 C161.60062,24.8171969 159.959126,22.7023641 157.103967,22.7023641 Z M86.0637633,3.95897736 C88.7541738,3.95897736 90.4661354,6.07916108 90.4661354,8.83923993 L90.4665931,8.91741833 C90.4637995,9.00585172 90.4358423,9.20482683 90.2408005,9.20482683 L82.489185,9.20482683 C82.6584696,11.5259811 84.3705932,12.8786369 86.2520014,12.8786369 C87.6939175,12.8786369 88.6931017,12.2763549 89.473107,11.4893122 C89.5134437,11.4487089 89.5784036,11.4457188 89.6219802,11.4830171 L90.0980831,11.8910958 C90.1448996,11.931227 90.1483015,12.002204 90.1052109,12.0461122 C89.1439334,13.0268861 88.0088355,13.7193451 86.2142566,13.7193451 C83.6932927,13.7193451 81.5108981,11.7636204 81.5108981,8.85749567 L81.5108981,8.82098419 C81.5108981,6.11567256 83.4674719,3.95897736 86.0637633,3.95897736 Z M66.8275078,3.95897736 C69.5179183,3.95897736 71.2298799,6.07916108 71.2298799,8.83923993 L71.2298799,8.87590878 C71.2298799,8.87590878 71.2553131,9.20482683 71.004545,9.20482683 L63.2529295,9.20482683 C63.4222141,11.5259811 65.1343377,12.8786369 67.0157458,12.8786369 C68.457662,12.8786369 69.4570082,12.2763549 70.2368515,11.4893122 C70.2771882,11.4487089 70.3421481,11.4457188 70.3857247,11.4830171 L70.8618276,11.8910958 C70.9086441,11.931227 70.912046,12.002204 70.8689554,12.0461122 C69.9076779,13.0268861 68.77258,13.7193451 66.978001,13.7193451 C64.4570372,13.7193451 62.2746426,11.7636204 62.2746426,8.85749567 L62.2746426,8.82098419 C62.2746426,6.11567256 64.2312164,3.95897736 66.8275078,3.95897736 Z M54.0664629,0.157282632 C54.127049,0.157282632 54.1759714,0.204967879 54.1759714,0.263669519 L54.1759714,10.1552893 L60.0887836,4.21084334 C60.1093569,4.19006957 60.137868,4.17842367 60.1675131,4.17842367 L61.082136,4.17842367 C61.1793329,4.17842367 61.2282554,4.29220727 61.1600556,4.35940727 L57.148415,8.3092565 L61.3312841,13.3267516 C61.3891163,13.3963123 61.3382499,13.5000238 61.2460748,13.5000238 L60.3612589,13.5000238 C60.328374,13.5000238 60.297109,13.4855451 60.2763736,13.4606795 L56.5088593,8.94899422 L54.1759714,11.2336369 L54.1759714,13.3936369 C54.1759714,13.4523385 54.127049,13.5000238 54.0664629,13.5000238 L53.3635672,13.5000238 C53.3031431,13.5000238 53.2540587,13.4523385 53.2540587,13.3936369 L53.2540587,0.263669519 C53.2540587,0.204967879 53.3031431,0.157282632 53.3635672,0.157282632 L54.0664629,0.157282632 Z M74.4972524,0.157314108 C74.5576765,0.157314108 74.6067609,0.204999354 74.6067609,0.263700994 L74.6067609,13.3936684 C74.6067609,13.45237 74.5576765,13.5000553 74.4972524,13.5000553 L73.7943567,13.5000553 C73.7339327,13.5000553 73.6848482,13.45237 73.6848482,13.3936684 L73.6848482,0.263700994 C73.6848482,0.204999354 73.7339327,0.157314108 73.7943567,0.157314108 L74.4972524,0.157314108 Z M78.8056193,0.157314108 C78.8660434,0.157314108 78.9149658,0.204999354 78.9149658,0.263700994 L78.9149658,13.3936684 C78.9149658,13.45237 78.8660434,13.5000553 78.8056193,13.5000553 L78.1025617,13.5000553 C78.0421376,13.5000553 77.9932151,13.45237 77.9932151,13.3936684 L77.9932151,0.263700994 C77.9932151,0.204999354 78.0421376,0.157314108 78.1025617,0.157314108 L78.8056193,0.157314108 Z M97.8429571,4.02935619 C97.9035431,4.0299857 97.9535995,4.0800316 97.9535995,4.13873324 L97.9535995,5.01910051 L97.8594805,5.01910051 C95.6395032,5.01910051 93.7017208,6.6457498 93.7017208,9.6799795 L93.7017208,13.393606 C93.7017208,13.4523076 93.6526363,13.4999929 93.5922123,13.4999929 L92.8893166,13.4999929 C92.8288925,13.4999929 92.7798081,13.4523076 92.7798081,13.393606 L92.7798081,4.28462178 C92.7798081,4.22592014 92.8288925,4.17839226 92.8893166,4.17839226 L93.5922123,4.17839226 C93.6526363,4.17839226 93.7017208,4.22592014 93.7017208,4.28462178 L93.7017208,6.82862194 C94.4396073,5.19772348 95.991518,4.00606438 97.8429571,4.02935619 Z M86.0261806,4.78142982 C84.125981,4.78142982 82.6584696,6.3350561 82.489185,8.40062993 L89.4690573,8.40062993 C89.3373555,6.51792823 88.2273667,4.78142982 86.0261806,4.78142982 Z M66.7899251,4.78142982 C64.8897255,4.78142982 63.4222141,6.3350561 63.2529295,8.40062993 L70.2328018,8.40062993 C70.1011,6.51792823 68.9911112,4.78142982 66.7899251,4.78142982 Z" id="logo" fill="#1D253C"></path>
            <path d="M0.60148689,9.25613135 C0.232948599,9.43538382 0,9.80144284 0,10.2019674 L0,13.0234232 C0,13.6129577 0.638583711,13.9961708 1.18142846,13.7325642 L19.1035671,5.02693782 C19.4098993,4.87805913 19.7706619,4.87805913 20.0768321,5.02693782 L37.9992947,13.7325642 C38.5418155,13.9961708 39.1805612,13.6129577 39.1805612,13.0234232 L39.1805612,10.2019674 C39.1805612,9.80144284 38.9476126,9.43538382 38.5789123,9.25613135 L20.0768321,0.269114763 C19.923747,0.194675417 19.7570543,0.157377055 19.5901996,0.157377055 C19.4235069,0.157377055 19.2566522,0.194675417 19.1035671,0.269114763 L0.60148689,9.25613135 Z" id="logo" fill="#0093E9"></path>
        </g>
    </g>
</svg>