<?xml version="1.0" encoding="UTF-8"?>
<svg width="20px" height="17px" viewBox="0 0 20 17" version="1.1" xmlns="http://www.w3.org/2000/svg" xmlns:xlink="http://www.w3.org/1999/xlink">
    <!-- Generator: sketchtool 59.1 (101010) - https://sketch.com -->
    <title>00DD7CE3-7A7A-4216-9B3D-27E9E355AA6C</title>
    <desc>Created with sketchtool.</desc>
    <g id="Comps" stroke="none" stroke-width="1" fill="none" fill-rule="evenodd">
        <g id="KW-home" transform="translate(-449.000000, -4206.000000)" fill="#FFFFFF">
            <g id="global-/-footer" transform="translate(0.000000, 4058.000000)">
                <g id="Footer">
                    <g id="social" transform="translate(449.000000, 102.000000)">
                        <path d="M17.0906206,48.5956521 C17.9116072,48.0833992 18.5415609,47.2711462 18.8372069,46.3035573 C18.0685271,46.7790514 17.219113,47.1229249 16.3128439,47.3090908 C15.589648,46.5027668 14.5560236,46 13.4121005,46 C11.2174965,46 9.43907128,47.8557312 9.43907128,50.1442687 C9.43907128,50.4691699 9.47204726,50.7857707 9.54027321,51.0881422 C6.23813337,50.9150197 3.31009956,49.2667984 1.34860121,46.7577075 C1.00633398,47.3719367 0.810752651,48.0833992 0.810752651,48.8422924 C0.810752651,50.2794466 1.51234365,51.5482213 2.57894395,52.2928853 C1.92738538,52.2715414 1.31448814,52.0830039 0.777776764,51.7747034 L0.777776764,51.8256917 C0.777776764,53.8343872 2.14684578,55.5098813 3.96734368,55.889328 C3.63303608,55.9865612 3.28280912,56.0351777 2.918937,56.0351777 C2.66308935,56.0351777 2.41292724,56.0102765 2.17186194,55.9616599 C2.67673461,57.6075097 4.14473138,58.8075097 5.88449515,58.8395255 C4.52338586,59.9517785 2.80977534,60.6134385 0.948341834,60.6134385 C0.627679499,60.6134385 0.310428433,60.595652 0,60.5565215 C1.75909449,61.7316203 3.84794812,62.4181816 6.09258447,62.4181816 C13.4041408,62.4181816 17.399912,56.1027667 17.399912,50.6256916 C17.399912,50.4454545 17.3976377,50.2664031 17.3896781,50.0897232 C18.1663177,49.5051383 18.8417554,48.7747035 19.3727813,47.9434783 C18.6598193,48.2731225 17.8934136,48.4960474 17.0906206,48.5956521 Z" id="twitter"></path>
                    </g>
                </g>
            </g>
        </g>
    </g>
</svg>