<?xml version="1.0" encoding="UTF-8"?>
<svg width="33px" height="46px" viewBox="0 0 33 46" version="1.1" xmlns="http://www.w3.org/2000/svg" xmlns:xlink="http://www.w3.org/1999/xlink">
    <!-- Generator: sketchtool 59.1 (101010) - https://sketch.com -->
    <title>F0E8D93C-7DF8-4C70-BE2C-ED66D3ADDC52</title>
    <desc>Created with sketchtool.</desc>
    <g id="Asset-Artboard-Page" stroke="none" stroke-width="1" fill="none" fill-rule="evenodd">
        <g id="icons-/-home-features-/-fire-alarm-selected">
            <g id="fire-alarm-icon">
                <path d="M32.8313,29.0012 C32.6903,28.0772 32.4453,27.1722 32.1393,26.2892 C31.2253,23.6502 29.7453,21.2582 28.7743,18.6472 C27.2183,14.4622 28.6683,8.8752 28.6683,8.8752 C28.6683,8.8752 26.1713,10.7372 23.1473,13.6522 C21.6733,11.5892 20.7773,9.2292 20.3333,6.7612 C19.9603,4.6832 19.7963,2.4812 20.0133,0.3752 C20.0133,0.3752 18.8043,1.4662 18.5883,1.6682 C17.3383,2.8352 16.1233,4.0382 14.9413,5.2692 C12.2363,8.0872 9.5093,11.1652 7.1453,14.4702 C5.3923,12.2472 5.6443,9.9052 5.6443,9.9052 C5.6443,9.9052 -1.7877,24.8962 1.0003,34.4132 C1.1283,34.8892 1.2753,35.3602 1.4683,35.8192 C2.2533,37.6952 3.5133,39.3652 5.0163,40.7602 C10.6613,45.9942 19.9233,47.0732 26.3693,42.5682 C26.4373,42.5212 26.5053,42.4732 26.5723,42.4242 C28.2253,41.2192 29.6623,39.6912 30.7643,37.9952 C32.4993,35.3212 33.3103,32.1462 32.8313,29.0012 Z" id="Stroke-7" stroke="#7A7A7A" stroke-width="0.75" fill="#FFDF2A" stroke-linecap="round" stroke-linejoin="round"></path>
                <path d="M14.9026,17.425 C15.0816,18.736 15.5056,20.049 16.0386,21.259 C16.6726,22.696 17.5636,24.005 18.7636,25.053 C20.1706,22.862 21.4126,21.384 21.4126,21.384 C21.4126,21.384 21.3546,24.98 22.9176,27.305 C23.8916,28.755 25.1426,30.003 26.0876,31.478 C26.4036,31.972 26.6856,32.488 26.9076,33.029 C27.6616,34.872 27.6366,36.914 26.9766,38.779 C26.5576,39.963 25.9106,41.09 25.0846,42.052 C25.0506,42.091 25.0166,42.129 24.9826,42.168 C21.7316,45.8 15.9466,46.433 11.7466,44.038 C10.6286,43.401 9.6176,42.562 8.8636,41.531 C7.6666,39.894 7.2696,37.811 7.3136,35.803 C7.4266,30.629 9.9506,25.513 12.5446,21.103 C13.0806,20.191 13.6396,19.291 14.2266,18.409 C14.3296,18.256 14.9026,17.425 14.9026,17.425" id="Fill-5" fill="#FFFFFF"></path>
                <path d="M14.9026,17.425 C15.0816,18.736 15.5056,20.049 16.0386,21.259 C16.6726,22.696 17.5636,24.005 18.7636,25.053 C20.1706,22.862 21.4126,21.384 21.4126,21.384 C21.4126,21.384 21.3546,24.98 22.9176,27.305 C23.8916,28.755 25.1426,30.003 26.0876,31.478 C26.4036,31.972 26.6856,32.488 26.9076,33.029 C27.6616,34.872 27.6366,36.914 26.9766,38.779 C26.5576,39.963 25.9106,41.09 25.0846,42.052 C25.0506,42.091 25.0166,42.129 24.9826,42.168 C21.7316,45.8 15.9466,46.433 11.7466,44.038 C10.6286,43.401 9.6176,42.562 8.8636,41.531 C7.6666,39.894 7.2696,37.811 7.3136,35.803 C7.4266,30.629 9.9506,25.513 12.5446,21.103 C13.0806,20.191 13.6396,19.291 14.2266,18.409 C14.3296,18.256 14.9026,17.425 14.9026,17.425 Z" id="Stroke-13" stroke="#7A7A7A" stroke-width="0.75" stroke-linecap="round" stroke-linejoin="round"></path>
            </g>
        </g>
    </g>
</svg>