<?xml version="1.0" encoding="UTF-8"?>
<svg width="119px" height="33px" viewBox="0 0 119 33" version="1.1" xmlns="http://www.w3.org/2000/svg" xmlns:xlink="http://www.w3.org/1999/xlink">
    <!-- Generator: sketchtool 59.1 (101010) - https://sketch.com -->
    <title>325D4670-B9DD-4488-B9FC-A3089E48ABC6</title>
    <desc>Created with sketchtool.</desc>
    <g id="Comps" stroke="none" stroke-width="1" fill="none" fill-rule="evenodd">
        <g id="KW-home" transform="translate(-1096.000000, -2841.000000)" fill="#F5F5F5">
            <g id="house-clouds" transform="translate(175.000000, 2841.000000)">
                <g id="clouds">
                    <path d="M943.331094,28.6902917 C943.633707,23.4428333 947.776859,19.06025 953.067711,18.4185833 C954.88432,18.198125 956.62516,18.4144583 958.20377,18.9672083 C958.196332,18.756375 958.1875,18.546 958.1875,18.3333333 C958.1875,8.20829167 966.512387,0 976.78125,0 C983.090574,0 988.662191,3.10154167 992.023477,7.83933333 C993.081461,7.51116667 994.206848,7.33333333 995.375,7.33333333 C1001.5365,7.33333333 1006.53125,12.258125 1006.53125,18.3333333 C1006.53125,18.5469167 1006.52335,18.7582083 1006.51126,18.9685833 C1007.68081,18.5588333 1008.93821,18.3333333 1010.25,18.3333333 C1016.4115,18.3333333 1021.40625,23.258125 1021.40625,29.3333333 L1036.28125,29.3333333 C1038.33679,29.3333333 1040,30.97325 1040,33 L921,33 C921,30.97325 922.663211,29.3333333 924.71875,29.3333333 L943.3125,29.3333333" id="step-cloud"></path>
                </g>
            </g>
        </g>
    </g>
</svg>