<?xml version="1.0" encoding="UTF-8"?>
<svg width="162px" height="140px" viewBox="0 0 162 140" version="1.1" xmlns="http://www.w3.org/2000/svg" xmlns:xlink="http://www.w3.org/1999/xlink">
    <!-- Generator: sketchtool 59.1 (101010) - https://sketch.com -->
    <title>12A6C123-BB27-483C-BCA0-A99DB3C9D9C2</title>
    <desc>Created with sketchtool.</desc>
    <defs>
        <path d="M0,0 L186,0 L186,151 L21.9589905,151 L21.9589905,105.221541 C18.8397248,104.188715 15.6598463,95.9085232 12.4193548,80.3809651 C9.17886341,64.853407 5.03907847,38.059752 0,0 Z" id="path-1"></path>
    </defs>
    <g id="Comps" stroke="none" stroke-width="1" fill="none" fill-rule="evenodd">
        <g id="KW-home" transform="translate(-359.000000, -1952.000000)">
            <g id="step-1" transform="translate(270.000000, 1843.000000)">
                <g id="image">
                    <g id="house" transform="translate(170.000000, 176.500000) scale(-1, 1) translate(-170.000000, -176.500000) translate(77.000000, 101.000000)">
                        <mask id="mask-2" fill="white">
                            <use xlink:href="#path-1"></use>
                        </mask>
                        <g id="Mask"></g>
                        <g id="Group" mask="url(#mask-2)" opacity="0.75">
                            <g transform="translate(-187.000000, 9.000000)">
                                <g transform="translate(180.000000, 70.000000) scale(-1, 1) translate(-180.000000, -70.000000) ">
                                    <g id="Fills" transform="translate(0.580645, 0.580645)">
                                        <path d="M150.00553,123.329032 L150.00553,137.032258 L68.1843318,137.032258 L68.1843318,132.464516 L63.6387097,132.464516 L63.6387097,127.896774 L59.0930876,127.896774 L59.0930876,123.329032 L150.00553,123.329032 Z M22.7281106,123.329032 L22.7281106,127.896774 L20.4552995,127.896774 C19.2001396,127.896774 18.1824885,128.919377 18.1824885,130.180645 L18.1824885,130.180645 L18.1824885,132.464516 L15.9096774,132.464516 C14.6545175,132.464516 13.6368664,133.487119 13.6368664,134.748387 L13.6368664,134.748387 L13.6368664,123.329032 L22.7281106,123.329032 Z" id="Foundation" fill="#E6E6E6"></path>
                                        <polygon id="Sill" fill="#E6E6E6" points="63.6387097 114.193548 136.368664 114.193548 136.368664 109.625806 63.6387097 109.625806"></polygon>
                                        <path d="M40.9105991,18.2709677 L54.5474654,31.9741935 L54.5474654,54.8129032 L59.0930876,54.8129032 L59.0930876,59.3806452 L22.7281106,59.3806452 L22.7281106,54.8129032 L27.2737327,54.8129032 L27.2737327,31.9741935 L40.9105991,18.2709677 Z M81.8211982,18.2709677 L95.4580645,31.9741935 L95.4580645,54.8129032 L100.003687,54.8129032 L100.003687,59.3806452 L63.6387097,59.3806452 L63.6387097,54.8129032 L68.1843318,54.8129032 L68.1843318,31.9741935 L81.8211982,18.2709677 Z M140.914286,59.3806452 L104.549309,59.3806452 L104.549309,54.8129032 L109.094931,54.8129032 L109.094931,31.9741935 L122.731797,18.2709677 L136.368664,31.9741935 L136.368664,54.8129032 L140.914286,54.8129032 L140.914286,59.3806452 Z M40.9105991,24.7303258 L31.8193548,33.8658097 L31.8193548,54.8129032 L50.0018433,54.8129032 L50.0018433,33.8658097 L40.9105991,24.7303258 Z M81.8211982,24.7303258 L72.7299539,33.8658097 L72.7299539,54.8129032 L90.9124424,54.8129032 L90.9124424,33.8658097 L81.8211982,24.7303258 Z M122.731797,24.7303258 L113.640553,33.8658097 L113.640553,54.8129032 L131.823041,54.8129032 L131.823041,33.8658097 L122.731797,24.7303258 Z" id="Window-Frames" fill="#FFFFFF"></path>
                                        <path d="M13.6368664,68.516129 L13.6368664,137.032258 L4.54562212,137.032258 L4.54562212,68.516129 L13.6368664,68.516129 Z M27.2737327,0 L27.2737327,4.56774194 L22.7281106,4.56774194 L22.7281106,18.2709677 L13.6368664,18.2709677 L4.54562212,68.516129 L4.54562212,4.56774194 L0,4.56774194 L0,0 L27.2737327,0 Z" id="Chimney" fill="#E6E6E6"></path>
                                        <polygon id="Roof" fill="#E6E6E6" points="150.00553 18.2709677 122.731797 18.2709677 136.368664 31.9741935 136.368664 54.8129032 140.914286 54.8129032 140.914286 59.3806452 104.549309 59.3806452 104.549309 54.8129032 109.094931 54.8129032 109.094931 31.9741935 122.731797 18.2709677 81.8211982 18.2709677 95.4580645 31.9741935 95.4580645 54.8129032 100.003687 54.8129032 100.003687 59.3806452 63.6387097 59.3806452 63.6387097 54.8129032 68.1843318 54.8129032 68.1843318 31.9741935 81.8211982 18.2709677 40.9105991 18.2709677 54.5474654 31.9741935 54.5474654 54.8129032 59.0930876 54.8129032 59.0930876 59.3806452 22.7281106 59.3806452 22.7281106 54.8129032 27.2737327 54.8129032 27.2737327 31.9741935 40.9105991 18.2709677 13.6368664 18.2709677 4.54562212 68.516129 159.096774 68.516129"></polygon>
                                        <polygon id="Door" fill="#FFFFFF" points="31.8193548 123.329032 50.0018433 123.329032 50.0018433 86.7870968 31.8193548 86.7870968"></polygon>
                                        <path d="M122.731797,24.7306113 L131.823041,33.8660952 L131.823041,54.8131887 L113.640553,54.8131887 L113.640553,33.8660952 L122.731797,24.7306113 Z M40.9105991,24.7306113 L50.0018433,33.8660952 L50.0018433,54.8131887 L31.8193548,54.8131887 L31.8193548,33.8660952 L40.9105991,24.7306113 Z M81.8211982,24.7306113 L90.9124424,33.8660952 L90.9124424,54.8131887 L72.7299539,54.8131887 L72.7299539,33.8660952 L81.8211982,24.7306113 Z" id="Windows" fill="#E6E6E6"></path>
                                        <path d="M100.003687,105.058065 C102.514006,105.058065 104.549309,107.103271 104.549309,109.625806 L104.549309,109.625806 L90.9124424,109.625806 L90.9124424,105.058065 Z M86.3668203,105.058065 L86.3668203,109.625806 L72.7299539,109.625806 C72.7299539,107.103271 74.7652562,105.058065 77.275576,105.058065 L77.275576,105.058065 L86.3668203,105.058065 Z" id="Interior" fill="#E6E6E6"></path>
                                    </g>
                                    <g id="Lines">
                                        <path d="M45.9936909,107.642495 C46.1504101,107.642495 46.2776025,107.77041 46.2776025,107.928019 L46.2776025,119.348974 C46.2776025,119.506583 46.1504101,119.634497 45.9936909,119.634497 L36.9085174,119.634497 C36.7517981,119.634497 36.6246057,119.506583 36.6246057,119.348974 L36.6246057,107.928019 C36.6246057,107.77041 36.7517981,107.642495 36.9085174,107.642495 L45.9936909,107.642495 Z M45.7097792,108.213543 L37.192429,108.213543 L37.192429,119.06345 L45.7097792,119.06345 L45.7097792,108.213543 Z M48.3007884,103.074114 C48.4772715,103.074114 48.6205042,103.202028 48.6205042,103.359637 L48.6205042,107.928019 C48.6205042,108.085628 48.4772715,108.213543 48.3007884,108.213543 C48.1243052,108.213543 47.9810726,108.085628 47.9810726,107.928019 L47.9810726,103.359637 C47.9810726,103.202028 48.1243052,103.074114 48.3007884,103.074114 Z M45.9936909,91.6531592 C46.1504101,91.6531592 46.2776025,91.7810738 46.2776025,91.938683 L46.2776025,103.359637 C46.2776025,103.517247 46.1504101,103.645161 45.9936909,103.645161 L36.9085174,103.645161 C36.7517981,103.645161 36.6246057,103.517247 36.6246057,103.359637 L36.6246057,91.938683 C36.6246057,91.7810738 36.7517981,91.6531592 36.9085174,91.6531592 L45.9936909,91.6531592 Z M45.7097792,92.2242069 L37.192429,92.2242069 L37.192429,103.074114 L45.7097792,103.074114 L45.7097792,92.2242069 Z" id="Door-Deets" fill="#0093E9"></path>
                                        <path d="M32.3659306,119.06345 C32.5226498,119.06345 32.6498423,119.207027 32.6498423,119.383936 C32.6498423,119.560844 32.5226498,119.704422 32.3659306,119.704422 L14.1955836,119.704422 C14.0388644,119.704422 13.9116719,119.560844 13.9116719,119.383936 C13.9116719,119.207027 14.0388644,119.06345 14.1955836,119.06345 L32.3659306,119.06345 Z M150.473186,119.06345 C150.629905,119.06345 150.757098,119.207027 150.757098,119.383936 C150.757098,119.560844 150.629905,119.704422 150.473186,119.704422 L50.5362776,119.704422 C50.3795584,119.704422 50.2523659,119.560844 50.2523659,119.383936 C50.2523659,119.207027 50.3795584,119.06345 50.5362776,119.06345 L150.473186,119.06345 Z M68.7066246,114.495068 C68.8633438,114.495068 68.9905363,114.638646 68.9905363,114.815554 C68.9905363,114.992462 68.8633438,115.13604 68.7066246,115.13604 L50.5362776,115.13604 C50.3795584,115.13604 50.2523659,114.992462 50.2523659,114.815554 C50.2523659,114.638646 50.3795584,114.495068 50.5362776,114.495068 L68.7066246,114.495068 Z M150.473186,114.495068 C150.629905,114.495068 150.757098,114.638646 150.757098,114.815554 C150.757098,114.992462 150.629905,115.13604 150.473186,115.13604 L132.302839,115.13604 C132.14612,115.13604 132.018927,114.992462 132.018927,114.815554 C132.018927,114.638646 132.14612,114.495068 132.302839,114.495068 L150.473186,114.495068 Z M32.3659306,114.495068 C32.5226498,114.495068 32.6498423,114.638646 32.6498423,114.815554 C32.6498423,114.992462 32.5226498,115.13604 32.3659306,115.13604 L14.1955836,115.13604 C14.0388644,115.13604 13.9116719,114.992462 13.9116719,114.815554 C13.9116719,114.638646 14.0388644,114.495068 14.1955836,114.495068 L32.3659306,114.495068 Z M32.3659306,109.926686 C32.5226498,109.926686 32.6498423,110.070264 32.6498423,110.247172 C32.6498423,110.42408 32.5226498,110.567658 32.3659306,110.567658 L14.1955836,110.567658 C14.0388644,110.567658 13.9116719,110.42408 13.9116719,110.247172 C13.9116719,110.070264 14.0388644,109.926686 14.1955836,109.926686 L32.3659306,109.926686 Z M64.1640379,109.926686 C64.3207571,109.926686 64.4479495,110.070264 64.4479495,110.247172 C64.4479495,110.42408 64.3207571,110.567658 64.1640379,110.567658 L50.5362776,110.567658 C50.3795584,110.567658 50.2523659,110.42408 50.2523659,110.247172 C50.2523659,110.070264 50.3795584,109.926686 50.5362776,109.926686 L64.1640379,109.926686 Z M150.473186,109.926686 C150.629905,109.926686 150.757098,110.070264 150.757098,110.247172 C150.757098,110.42408 150.629905,110.567658 150.473186,110.567658 L136.845426,110.567658 C136.688707,110.567658 136.561514,110.42408 136.561514,110.247172 C136.561514,110.070264 136.688707,109.926686 136.845426,109.926686 L150.473186,109.926686 Z M32.3659306,105.358304 C32.5226498,105.358304 32.6498423,105.501882 32.6498423,105.67879 C32.6498423,105.855699 32.5226498,105.999276 32.3659306,105.999276 L14.1955836,105.999276 C14.0388644,105.999276 13.9116719,105.855699 13.9116719,105.67879 C13.9116719,105.501882 14.0388644,105.358304 14.1955836,105.358304 L32.3659306,105.358304 Z M68.7066246,105.358304 C68.8633438,105.358304 68.9905363,105.501882 68.9905363,105.67879 C68.9905363,105.855699 68.8633438,105.999276 68.7066246,105.999276 L50.5362776,105.999276 C50.3795584,105.999276 50.2523659,105.855699 50.2523659,105.67879 C50.2523659,105.501882 50.3795584,105.358304 50.5362776,105.358304 L68.7066246,105.358304 Z M91.4195584,105.358304 C91.5762776,105.358304 91.70347,105.501882 91.70347,105.67879 C91.70347,105.855699 91.5762776,105.999276 91.4195584,105.999276 L86.8769716,105.999276 C86.7202524,105.999276 86.5930599,105.855699 86.5930599,105.67879 C86.5930599,105.501882 86.7202524,105.358304 86.8769716,105.358304 L91.4195584,105.358304 Z M114.132492,105.358304 C114.289211,105.358304 114.416404,105.501882 114.416404,105.67879 C114.416404,105.855699 114.289211,105.999276 114.132492,105.999276 L109.589905,105.999276 C109.433186,105.999276 109.305994,105.855699 109.305994,105.67879 C109.305994,105.501882 109.433186,105.358304 109.589905,105.358304 L114.132492,105.358304 Z M150.473186,105.358304 C150.629905,105.358304 150.757098,105.501882 150.757098,105.67879 C150.757098,105.855699 150.629905,105.999276 150.473186,105.999276 L132.302839,105.999276 C132.14612,105.999276 132.018927,105.855699 132.018927,105.67879 C132.018927,105.501882 132.14612,105.358304 132.302839,105.358304 L150.473186,105.358304 Z M32.3659306,100.789923 C32.5226498,100.789923 32.6498423,100.9335 32.6498423,101.110409 C32.6498423,101.287317 32.5226498,101.430895 32.3659306,101.430895 L14.1955836,101.430895 C14.0388644,101.430895 13.9116719,101.287317 13.9116719,101.110409 C13.9116719,100.9335 14.0388644,100.789923 14.1955836,100.789923 L32.3659306,100.789923 Z M68.7066246,100.789923 C68.8633438,100.789923 68.9905363,100.9335 68.9905363,101.110409 C68.9905363,101.287317 68.8633438,101.430895 68.7066246,101.430895 L50.5362776,101.430895 C50.3795584,101.430895 50.2523659,101.287317 50.2523659,101.110409 C50.2523659,100.9335 50.3795584,100.789923 50.5362776,100.789923 L68.7066246,100.789923 Z M91.4195584,100.789923 C91.5762776,100.789923 91.70347,100.9335 91.70347,101.110409 C91.70347,101.287317 91.5762776,101.430895 91.4195584,101.430895 L86.8769716,101.430895 C86.7202524,101.430895 86.5930599,101.287317 86.5930599,101.110409 C86.5930599,100.9335 86.7202524,100.789923 86.8769716,100.789923 L91.4195584,100.789923 Z M114.132492,100.789923 C114.289211,100.789923 114.416404,100.9335 114.416404,101.110409 C114.416404,101.287317 114.289211,101.430895 114.132492,101.430895 L109.589905,101.430895 C109.433186,101.430895 109.305994,101.287317 109.305994,101.110409 C109.305994,100.9335 109.433186,100.789923 109.589905,100.789923 L114.132492,100.789923 Z M150.473186,100.789923 C150.629905,100.789923 150.757098,100.9335 150.757098,101.110409 C150.757098,101.287317 150.629905,101.430895 150.473186,101.430895 L132.302839,101.430895 C132.14612,101.430895 132.018927,101.287317 132.018927,101.110409 C132.018927,100.9335 132.14612,100.789923 132.302839,100.789923 L150.473186,100.789923 Z M114.132492,96.2215409 C114.289211,96.2215409 114.416404,96.3651186 114.416404,96.5420269 C114.416404,96.7189351 114.289211,96.8625129 114.132492,96.8625129 L109.589905,96.8625129 C109.433186,96.8625129 109.305994,96.7189351 109.305994,96.5420269 C109.305994,96.3651186 109.433186,96.2215409 109.589905,96.2215409 L114.132492,96.2215409 Z M150.473186,96.2215409 C150.629905,96.2215409 150.757098,96.3651186 150.757098,96.5420269 C150.757098,96.7189351 150.629905,96.8625129 150.473186,96.8625129 L132.302839,96.8625129 C132.14612,96.8625129 132.018927,96.7189351 132.018927,96.5420269 C132.018927,96.3651186 132.14612,96.2215409 132.302839,96.2215409 L150.473186,96.2215409 Z M32.3659306,96.2215409 C32.5226498,96.2215409 32.6498423,96.3651186 32.6498423,96.5420269 C32.6498423,96.7189351 32.5226498,96.8625129 32.3659306,96.8625129 L14.1955836,96.8625129 C14.0388644,96.8625129 13.9116719,96.7189351 13.9116719,96.5420269 C13.9116719,96.3651186 14.0388644,96.2215409 14.1955836,96.2215409 L32.3659306,96.2215409 Z M91.4195584,96.2215409 C91.5762776,96.2215409 91.70347,96.3651186 91.70347,96.5420269 C91.70347,96.7189351 91.5762776,96.8625129 91.4195584,96.8625129 L86.8769716,96.8625129 C86.7202524,96.8625129 86.5930599,96.7189351 86.5930599,96.5420269 C86.5930599,96.3651186 86.7202524,96.2215409 86.8769716,96.2215409 L91.4195584,96.2215409 Z M68.7066246,96.2215409 C68.8633438,96.2215409 68.9905363,96.3651186 68.9905363,96.5420269 C68.9905363,96.7189351 68.8633438,96.8625129 68.7066246,96.8625129 L50.5362776,96.8625129 C50.3795584,96.8625129 50.2523659,96.7189351 50.2523659,96.5420269 C50.2523659,96.3651186 50.3795584,96.2215409 50.5362776,96.2215409 L68.7066246,96.2215409 Z M68.7066246,91.6531592 C68.8633438,91.6531592 68.9905363,91.7967369 68.9905363,91.9736451 C68.9905363,92.1505534 68.8633438,92.2941311 68.7066246,92.2941311 L50.5362776,92.2941311 C50.3795584,92.2941311 50.2523659,92.1505534 50.2523659,91.9736451 C50.2523659,91.7967369 50.3795584,91.6531592 50.5362776,91.6531592 L68.7066246,91.6531592 Z M32.3659306,91.6531592 C32.5226498,91.6531592 32.6498423,91.7967369 32.6498423,91.9736451 C32.6498423,92.1505534 32.5226498,92.2941311 32.3659306,92.2941311 L14.1955836,92.2941311 C14.0388644,92.2941311 13.9116719,92.1505534 13.9116719,91.9736451 C13.9116719,91.7967369 14.0388644,91.6531592 14.1955836,91.6531592 L32.3659306,91.6531592 Z M91.4195584,91.6531592 C91.5762776,91.6531592 91.70347,91.7967369 91.70347,91.9736451 C91.70347,92.1505534 91.5762776,92.2941311 91.4195584,92.2941311 L86.8769716,92.2941311 C86.7202524,92.2941311 86.5930599,92.1505534 86.5930599,91.9736451 C86.5930599,91.7967369 86.7202524,91.6531592 86.8769716,91.6531592 L91.4195584,91.6531592 Z M114.132492,91.6531592 C114.289211,91.6531592 114.416404,91.7967369 114.416404,91.9736451 C114.416404,92.1505534 114.289211,92.2941311 114.132492,92.2941311 L109.589905,92.2941311 C109.433186,92.2941311 109.305994,92.1505534 109.305994,91.9736451 C109.305994,91.7967369 109.433186,91.6531592 109.589905,91.6531592 L114.132492,91.6531592 Z M150.473186,91.6531592 C150.629905,91.6531592 150.757098,91.7967369 150.757098,91.9736451 C150.757098,92.1505534 150.629905,92.2941311 150.473186,92.2941311 L132.302839,92.2941311 C132.14612,92.2941311 132.018927,92.1505534 132.018927,91.9736451 C132.018927,91.7967369 132.14612,91.6531592 132.302839,91.6531592 L150.473186,91.6531592 Z M68.7066246,87.0847774 C68.8633438,87.0847774 68.9905363,87.2283551 68.9905363,87.4052634 C68.9905363,87.5821716 68.8633438,87.7257493 68.7066246,87.7257493 L14.1955836,87.7257493 C14.0388644,87.7257493 13.9116719,87.5821716 13.9116719,87.4052634 C13.9116719,87.2283551 14.0388644,87.0847774 14.1955836,87.0847774 L68.7066246,87.0847774 Z M91.4195584,87.0847774 C91.5762776,87.0847774 91.70347,87.2283551 91.70347,87.4052634 C91.70347,87.5821716 91.5762776,87.7257493 91.4195584,87.7257493 L86.8769716,87.7257493 C86.7202524,87.7257493 86.5930599,87.5821716 86.5930599,87.4052634 C86.5930599,87.2283551 86.7202524,87.0847774 86.8769716,87.0847774 L91.4195584,87.0847774 Z M114.132492,87.0847774 C114.289211,87.0847774 114.416404,87.2283551 114.416404,87.4052634 C114.416404,87.5821716 114.289211,87.7257493 114.132492,87.7257493 L109.589905,87.7257493 C109.433186,87.7257493 109.305994,87.5821716 109.305994,87.4052634 C109.305994,87.2283551 109.433186,87.0847774 109.589905,87.0847774 L114.132492,87.0847774 Z M150.473186,87.0847774 C150.629905,87.0847774 150.757098,87.2283551 150.757098,87.4052634 C150.757098,87.5821716 150.629905,87.7257493 150.473186,87.7257493 L132.302839,87.7257493 C132.14612,87.7257493 132.018927,87.5821716 132.018927,87.4052634 C132.018927,87.2283551 132.14612,87.0847774 132.302839,87.0847774 L150.473186,87.0847774 Z M150.473186,82.5163956 C150.629905,82.5163956 150.757098,82.6599733 150.757098,82.8368816 C150.757098,83.0137898 150.629905,83.1573676 150.473186,83.1573676 L14.1955836,83.1573676 C14.0388644,83.1573676 13.9116719,83.0137898 13.9116719,82.8368816 C13.9116719,82.6599733 14.0388644,82.5163956 14.1955836,82.5163956 L150.473186,82.5163956 Z M150.473186,77.9480139 C150.629905,77.9480139 150.757098,78.0915916 150.757098,78.2684998 C150.757098,78.4454081 150.629905,78.5889858 150.473186,78.5889858 L14.1955836,78.5889858 C14.0388644,78.5889858 13.9116719,78.4454081 13.9116719,78.2684998 C13.9116719,78.0915916 14.0388644,77.9480139 14.1955836,77.9480139 L150.473186,77.9480139 Z M150.473186,73.3796321 C150.629905,73.3796321 150.757098,73.5232098 150.757098,73.7001181 C150.757098,73.8770263 150.629905,74.020604 150.473186,74.020604 L14.1955836,74.020604 C14.0388644,74.020604 13.9116719,73.8770263 13.9116719,73.7001181 C13.9116719,73.5232098 14.0388644,73.3796321 14.1955836,73.3796321 L150.473186,73.3796321 Z" id="Siding" fill="#E6E6E6"></path>
                                        <path d="M141.388013,123.631832 C141.544732,123.631832 141.671924,123.759746 141.671924,123.917355 L141.671924,123.917355 L141.671924,128.200213 L150.473186,128.200213 C150.629905,128.200213 150.757098,128.328128 150.757098,128.485737 L150.757098,128.485737 L150.757098,133.054119 C150.757098,133.211728 150.629905,133.339643 150.473186,133.339643 L150.473186,133.339643 L141.671924,133.339643 L141.671924,137.622501 C141.671924,137.78011 141.544732,137.908025 141.388013,137.908025 L141.388013,137.908025 L68.7066246,137.908025 C68.5499054,137.908025 68.4227129,137.78011 68.4227129,137.622501 L68.4227129,137.622501 L68.4227129,133.339643 L64.1640379,133.339643 C64.0073186,133.339643 63.8801262,133.211728 63.8801262,133.054119 L63.8801262,133.054119 L63.8801262,128.771261 L59.6214511,128.771261 C59.4647319,128.771261 59.3375394,128.643346 59.3375394,128.485737 L59.3375394,128.485737 L59.3375394,123.917355 C59.3375394,123.759746 59.4647319,123.631832 59.6214511,123.631832 L59.6214511,123.631832 Z M14.1955836,68.8112503 C14.3523028,68.8112503 14.4794953,68.939165 14.4794953,69.0967742 L14.4794953,69.0967742 L14.4794953,73.665156 C14.4794953,73.8227651 14.3523028,73.9506798 14.1955836,73.9506798 L14.1955836,73.9506798 L9.93690852,73.9506798 L9.93690852,77.9480139 L14.1955836,77.9480139 C14.3523028,77.9480139 14.4794953,78.0759286 14.4794953,78.2335377 L14.4794953,78.2335377 L14.4794953,82.8019195 C14.4794953,82.9595287 14.3523028,83.0874433 14.1955836,83.0874433 L14.1955836,83.0874433 L9.93690852,83.0874433 L9.93690852,87.0847774 L14.1955836,87.0847774 C14.3523028,87.0847774 14.4794953,87.2126921 14.4794953,87.3703013 L14.4794953,87.3703013 L14.4794953,91.938683 C14.4794953,92.0962922 14.3523028,92.2242069 14.1955836,92.2242069 L14.1955836,92.2242069 L9.93690852,92.2242069 L9.93690852,96.2215409 L14.1955836,96.2215409 C14.3523028,96.2215409 14.4794953,96.3494556 14.4794953,96.5070648 L14.4794953,96.5070648 L14.4794953,101.075447 C14.4794953,101.233056 14.3523028,101.36097 14.1955836,101.36097 L14.1955836,101.36097 L9.93690852,101.36097 L9.93690852,105.358304 L14.1955836,105.358304 C14.3523028,105.358304 14.4794953,105.486219 14.4794953,105.643828 L14.4794953,105.643828 L14.4794953,110.21221 C14.4794953,110.369819 14.3523028,110.497734 14.1955836,110.497734 L14.1955836,110.497734 L9.93690852,110.497734 L9.93690852,114.495068 L14.1955836,114.495068 C14.3523028,114.495068 14.4794953,114.622983 14.4794953,114.780592 L14.4794953,114.780592 L14.4794953,119.348974 C14.4794953,119.506583 14.3523028,119.634497 14.1955836,119.634497 L14.1955836,119.634497 L9.93690852,119.634497 L9.93690852,123.631832 L23.2807571,123.631832 C23.4374763,123.631832 23.5646688,123.759746 23.5646688,123.917355 L23.5646688,123.917355 L23.5646688,128.485737 C23.5646688,128.643346 23.4374763,128.771261 23.2807571,128.771261 L23.2807571,128.771261 L9.93690852,128.771261 L9.93690852,132.768595 L14.1955836,132.768595 C14.3523028,132.768595 14.4794953,132.89651 14.4794953,133.054119 L14.4794953,133.054119 L14.4794953,137.622501 C14.4794953,137.78011 14.3523028,137.908025 14.1955836,137.908025 L14.1955836,137.908025 L5.11041009,137.908025 C4.95369085,137.908025 4.82649842,137.78011 4.82649842,137.622501 L4.82649842,137.622501 L4.82649842,133.054119 C4.82649842,132.89651 4.95369085,132.768595 5.11041009,132.768595 L5.11041009,132.768595 L9.36908517,132.768595 L9.36908517,128.771261 L5.11041009,128.771261 C4.95369085,128.771261 4.82649842,128.643346 4.82649842,128.485737 L4.82649842,128.485737 L4.82649842,123.917355 C4.82649842,123.759746 4.95369085,123.631832 5.11041009,123.631832 L5.11041009,123.631832 L9.36908517,123.631832 L9.36908517,119.634497 L5.11041009,119.634497 C4.95369085,119.634497 4.82649842,119.506583 4.82649842,119.348974 L4.82649842,119.348974 L4.82649842,114.780592 C4.82649842,114.622983 4.95369085,114.495068 5.11041009,114.495068 L5.11041009,114.495068 L9.36908517,114.495068 L9.36908517,110.497734 L5.11041009,110.497734 C4.95369085,110.497734 4.82649842,110.369819 4.82649842,110.21221 L4.82649842,110.21221 L4.82649842,105.643828 C4.82649842,105.486219 4.95369085,105.358304 5.11041009,105.358304 L5.11041009,105.358304 L9.36908517,105.358304 L9.36908517,101.36097 L5.11041009,101.36097 C4.95369085,101.36097 4.82649842,101.233056 4.82649842,101.075447 L4.82649842,101.075447 L4.82649842,96.5070648 C4.82649842,96.3494556 4.95369085,96.2215409 5.11041009,96.2215409 L5.11041009,96.2215409 L9.36908517,96.2215409 L9.36908517,92.2242069 L5.11041009,92.2242069 C4.95369085,92.2242069 4.82649842,92.0962922 4.82649842,91.938683 L4.82649842,91.938683 L4.82649842,87.3703013 C4.82649842,87.2126921 4.95369085,87.0847774 5.11041009,87.0847774 L5.11041009,87.0847774 L9.36908517,87.0847774 L9.36908517,83.0874433 L5.11041009,83.0874433 C4.95369085,83.0874433 4.82649842,82.9595287 4.82649842,82.8019195 L4.82649842,82.8019195 L4.82649842,78.2335377 C4.82649842,78.0759286 4.95369085,77.9480139 5.11041009,77.9480139 L5.11041009,77.9480139 L9.36908517,77.9480139 L9.36908517,73.9506798 L5.11041009,73.9506798 C4.95369085,73.9506798 4.82649842,73.8227651 4.82649842,73.665156 L4.82649842,73.665156 L4.82649842,69.0967742 C4.82649842,68.939165 4.95369085,68.8112503 5.11041009,68.8112503 L5.11041009,68.8112503 Z M77.5078864,133.339643 L68.9905363,133.339643 L68.9905363,137.336977 L77.5078864,137.336977 L77.5078864,133.339643 Z M86.5930599,133.339643 L78.0757098,133.339643 L78.0757098,137.336977 L86.5930599,137.336977 L86.5930599,133.339643 Z M141.104101,133.339643 L132.586751,133.339643 L132.586751,137.336977 L141.104101,137.336977 L141.104101,133.339643 Z M132.018927,133.339643 L123.501577,133.339643 L123.501577,137.336977 L132.018927,137.336977 L132.018927,133.339643 Z M122.933754,133.339643 L114.416404,133.339643 L114.416404,137.336977 L122.933754,137.336977 L122.933754,133.339643 Z M113.84858,133.339643 L105.33123,133.339643 L105.33123,137.336977 L113.84858,137.336977 L113.84858,133.339643 Z M104.763407,133.339643 L96.2460568,133.339643 L96.2460568,137.336977 L104.763407,137.336977 L104.763407,133.339643 Z M95.6782334,133.339643 L87.1608833,133.339643 L87.1608833,137.336977 L95.6782334,137.336977 L95.6782334,133.339643 Z M13.9116719,133.339643 L5.39432177,133.339643 L5.39432177,137.336977 L13.9116719,137.336977 L13.9116719,133.339643 Z M136.561514,128.771261 L128.044164,128.771261 L128.044164,132.768595 L136.561514,132.768595 L136.561514,128.771261 Z M127.476341,128.771261 L118.958991,128.771261 L118.958991,132.768595 L127.476341,132.768595 L127.476341,128.771261 Z M118.391167,128.771261 L109.873817,128.771261 L109.873817,132.768595 L118.391167,132.768595 L118.391167,128.771261 Z M109.305994,128.771261 L100.788644,128.771261 L100.788644,132.768595 L109.305994,132.768595 L109.305994,128.771261 Z M100.22082,128.771261 L91.70347,128.771261 L91.70347,132.768595 L100.22082,132.768595 L100.22082,128.771261 Z M91.1356467,128.771261 L82.6182965,128.771261 L82.6182965,132.768595 L91.1356467,132.768595 L91.1356467,128.771261 Z M82.0504732,128.771261 L73.533123,128.771261 L73.533123,132.768595 L82.0504732,132.768595 L82.0504732,128.771261 Z M72.9652997,128.771261 L64.4479495,128.771261 L64.4479495,132.768595 L72.9652997,132.768595 L72.9652997,128.771261 Z M150.189274,128.771261 L137.129338,128.771261 L137.129338,132.768595 L150.189274,132.768595 L150.189274,128.771261 Z M77.5078864,124.202879 L68.9905363,124.202879 L68.9905363,128.200213 L77.5078864,128.200213 L77.5078864,124.202879 Z M86.5930599,124.202879 L78.0757098,124.202879 L78.0757098,128.200213 L86.5930599,128.200213 L86.5930599,124.202879 Z M95.6782334,124.202879 L87.1608833,124.202879 L87.1608833,128.200213 L95.6782334,128.200213 L95.6782334,124.202879 Z M104.763407,124.202879 L96.2460568,124.202879 L96.2460568,128.200213 L104.763407,128.200213 L104.763407,124.202879 Z M113.84858,124.202879 L105.33123,124.202879 L105.33123,128.200213 L113.84858,128.200213 L113.84858,124.202879 Z M122.933754,124.202879 L114.416404,124.202879 L114.416404,128.200213 L122.933754,128.200213 L122.933754,124.202879 Z M132.018927,124.202879 L123.501577,124.202879 L123.501577,128.200213 L132.018927,128.200213 L132.018927,124.202879 Z M68.4227129,124.202879 L59.9053628,124.202879 L59.9053628,128.200213 L68.4227129,128.200213 L68.4227129,124.202879 Z M141.104101,124.202879 L132.586751,124.202879 L132.586751,128.200213 L141.104101,128.200213 L141.104101,124.202879 Z M22.9968454,124.202879 L14.4794953,124.202879 L14.4794953,128.200213 L22.9968454,128.200213 L22.9968454,124.202879 Z M13.9116719,124.202879 L5.39432177,124.202879 L5.39432177,128.200213 L13.9116719,128.200213 L13.9116719,124.202879 Z M13.9116719,115.066116 L5.39432177,115.066116 L5.39432177,119.06345 L13.9116719,119.06345 L13.9116719,115.066116 Z M13.9116719,105.929352 L5.39432177,105.929352 L5.39432177,109.926686 L13.9116719,109.926686 L13.9116719,105.929352 Z M13.9116719,96.7925886 L5.39432177,96.7925886 L5.39432177,100.789923 L13.9116719,100.789923 L13.9116719,96.7925886 Z M13.9116719,87.6558251 L5.39432177,87.6558251 L5.39432177,91.6531592 L13.9116719,91.6531592 L13.9116719,87.6558251 Z M13.9116719,78.5190616 L5.39432177,78.5190616 L5.39432177,82.5163956 L13.9116719,82.5163956 L13.9116719,78.5190616 Z M13.9116719,69.3822981 L5.39432177,69.3822981 L5.39432177,73.3796321 L13.9116719,73.3796321 L13.9116719,69.3822981 Z M8.41400631,50.5377233 C8.49861199,50.5377233 8.57810726,50.5748414 8.63205047,50.6405119 C8.68599369,50.7056113 8.70870662,50.7906974 8.69337539,50.8746414 L7.86719243,55.4430232 C7.84277603,55.5783615 7.72523659,55.6771528 7.58839117,55.6771528 L5.11041009,55.6771528 C4.95369085,55.6771528 4.82649842,55.5492381 4.82649842,55.3916289 L4.82649842,50.8232471 C4.82649842,50.665638 4.95369085,50.5377233 5.11041009,50.5377233 L8.41400631,50.5377233 Z M8.07388013,51.108771 L5.39432177,51.108771 L5.39432177,55.106105 L7.35104101,55.106105 L8.07388013,51.108771 Z M23.2807571,4.85390563 C23.4374763,4.85390563 23.5646688,4.98182031 23.5646688,5.13942949 L23.5646688,5.13942949 L23.5646688,9.70781125 C23.5646688,9.86542042 23.4374763,9.99333511 23.2807571,9.99333511 L23.2807571,9.99333511 L19.022082,9.99333511 L19.022082,13.9906692 L23.2807571,13.9906692 C23.4374763,13.9906692 23.5646688,14.1185838 23.5646688,14.276193 L23.5646688,14.276193 L23.5646688,18.8445748 C23.5646688,19.002184 23.4374763,19.1300986 23.2807571,19.1300986 L23.2807571,19.1300986 L9.93690852,19.1300986 L9.93690852,23.1274327 L13.3694006,23.1274327 C13.4540063,23.1274327 13.5335016,23.1645508 13.5874448,23.2302213 C13.641388,23.2953207 13.6641009,23.3804068 13.6487697,23.4643508 L13.6487697,23.4643508 L12.8231546,28.0327326 C12.7987382,28.1680709 12.6811987,28.2668622 12.5437855,28.2668622 L12.5437855,28.2668622 L9.93690852,28.2668622 L9.93690852,32.2641962 L11.7176025,32.2641962 C11.8022082,32.2641962 11.8817035,32.3013143 11.9356467,32.3669848 C11.9895899,32.4320842 12.0123028,32.5171704 11.9969716,32.6011144 L11.9969716,32.6011144 L11.1707886,37.1694961 C11.1463722,37.3048344 11.0288328,37.4036257 10.8919874,37.4036257 L10.8919874,37.4036257 L9.93690852,37.4036257 L9.93690852,41.4009597 L10.0658044,41.4009597 C10.1498423,41.4009597 10.2299054,41.4380778 10.2838486,41.5037483 C10.3377918,41.5682767 10.3605047,41.6539339 10.3451735,41.7378779 L10.3451735,41.7378779 L9.51955836,46.3062597 C9.49514196,46.441598 9.37760252,46.5403892 9.24018927,46.5403892 L9.24018927,46.5403892 L5.11041009,46.5403892 C4.95369085,46.5403892 4.82649842,46.4124745 4.82649842,46.2548654 L4.82649842,46.2548654 L4.82649842,41.6864836 C4.82649842,41.5288744 4.95369085,41.4009597 5.11041009,41.4009597 L5.11041009,41.4009597 L9.36908517,41.4009597 L9.36908517,37.4036257 L5.11041009,37.4036257 C4.95369085,37.4036257 4.82649842,37.275711 4.82649842,37.1181018 L4.82649842,37.1181018 L4.82649842,32.5497201 C4.82649842,32.3921109 4.95369085,32.2641962 5.11041009,32.2641962 L5.11041009,32.2641962 L9.36908517,32.2641962 L9.36908517,28.2668622 L5.11041009,28.2668622 C4.95369085,28.2668622 4.82649842,28.1389475 4.82649842,27.9813383 L4.82649842,27.9813383 L4.82649842,23.4129565 C4.82649842,23.2553474 4.95369085,23.1274327 5.11041009,23.1274327 L5.11041009,23.1274327 L9.36908517,23.1274327 L9.36908517,19.1300986 L5.11041009,19.1300986 C4.95369085,19.1300986 4.82649842,19.002184 4.82649842,18.8445748 L4.82649842,18.8445748 L4.82649842,14.276193 C4.82649842,14.1185838 4.95369085,13.9906692 5.11041009,13.9906692 L5.11041009,13.9906692 L9.36908517,13.9906692 L9.36908517,9.99333511 L5.11041009,9.99333511 C4.95369085,9.99333511 4.82649842,9.86542042 4.82649842,9.70781125 L4.82649842,9.70781125 L4.82649842,5.13942949 C4.82649842,4.98182031 4.95369085,4.85390563 5.11041009,4.85390563 L5.11041009,4.85390563 Z M9.72567823,41.9720075 L5.39432177,41.9720075 L5.39432177,45.9693415 L9.00283912,45.9693415 L9.72567823,41.9720075 Z M11.3774763,32.8352439 L5.39432177,32.8352439 L5.39432177,36.832578 L10.6546372,36.832578 L11.3774763,32.8352439 Z M13.0292744,23.6984804 L5.39432177,23.6984804 L5.39432177,27.6958144 L12.3064353,27.6958144 L13.0292744,23.6984804 Z M13.9116719,14.5617169 L5.39432177,14.5617169 L5.39432177,18.5590509 L13.9116719,18.5590509 L13.9116719,14.5617169 Z M22.9968454,14.5617169 L14.4794953,14.5617169 L14.4794953,18.5590509 L22.9968454,18.5590509 L22.9968454,14.5617169 Z M18.4542587,9.99333511 L9.93690852,9.99333511 L9.93690852,13.9906692 L18.4542587,13.9906692 L18.4542587,9.99333511 Z M13.9116719,5.42495335 L5.39432177,5.42495335 L5.39432177,9.42228739 L13.9116719,9.42228739 L13.9116719,5.42495335 Z M22.9968454,5.42495335 L14.4794953,5.42495335 L14.4794953,9.42228739 L22.9968454,9.42228739 L22.9968454,5.42495335 Z" id="Bricks" fill="#C3C3C3"></path>
                                        <path d="M123.217666,25.0193138 C123.374385,25.0193138 123.501577,25.1472285 123.501577,25.3048376 L123.501577,25.3048376 L123.501577,41.4009597 L132.302839,41.4009597 C132.459558,41.4009597 132.586751,41.5288744 132.586751,41.6864836 C132.586751,41.8440928 132.459558,41.9720075 132.302839,41.9720075 L132.302839,41.9720075 L123.501577,41.9720075 L123.501577,55.3916289 C123.501577,55.5492381 123.374385,55.6771528 123.217666,55.6771528 C123.060946,55.6771528 122.933754,55.5492381 122.933754,55.3916289 L122.933754,55.3916289 L122.933754,41.9720075 L114.132492,41.9720075 C113.975773,41.9720075 113.84858,41.8440928 113.84858,41.6864836 C113.84858,41.5288744 113.975773,41.4009597 114.132492,41.4009597 L114.132492,41.4009597 L122.933754,41.4009597 L122.933754,25.3048376 C122.933754,25.1472285 123.060946,25.0193138 123.217666,25.0193138 Z M82.3343849,25.0193138 C82.4911041,25.0193138 82.6182965,25.1472285 82.6182965,25.3048376 L82.6182965,25.3048376 L82.6182965,41.4009597 L91.4195584,41.4009597 C91.5762776,41.4009597 91.70347,41.5288744 91.70347,41.6864836 C91.70347,41.8440928 91.5762776,41.9720075 91.4195584,41.9720075 L91.4195584,41.9720075 L82.6182965,41.9720075 L82.6182965,55.3916289 C82.6182965,55.5492381 82.4911041,55.6771528 82.3343849,55.6771528 C82.1776656,55.6771528 82.0504732,55.5492381 82.0504732,55.3916289 L82.0504732,55.3916289 L82.0504732,41.9720075 L73.2492114,41.9720075 C73.0924921,41.9720075 72.9652997,41.8440928 72.9652997,41.6864836 C72.9652997,41.5288744 73.0924921,41.4009597 73.2492114,41.4009597 L73.2492114,41.4009597 L82.0504732,41.4009597 L82.0504732,25.3048376 C82.0504732,25.1472285 82.1776656,25.0193138 82.3343849,25.0193138 Z M41.4511041,25.0193138 C41.6078233,25.0193138 41.7350158,25.1472285 41.7350158,25.3048376 L41.7350158,25.3048376 L41.7350158,41.4009597 L50.5362776,41.4009597 C50.6929968,41.4009597 50.8201893,41.5288744 50.8201893,41.6864836 C50.8201893,41.8440928 50.6929968,41.9720075 50.5362776,41.9720075 L50.5362776,41.9720075 L41.7350158,41.9720075 L41.7350158,55.3916289 C41.7350158,55.5492381 41.6078233,55.6771528 41.4511041,55.6771528 C41.2943849,55.6771528 41.1671924,55.5492381 41.1671924,55.3916289 L41.1671924,55.3916289 L41.1671924,41.9720075 L32.3659306,41.9720075 C32.2092114,41.9720075 32.0820189,41.8440928 32.0820189,41.6864836 C32.0820189,41.5288744 32.2092114,41.4009597 32.3659306,41.4009597 L32.3659306,41.4009597 L41.1671924,41.4009597 L41.1671924,25.3048376 C41.1671924,25.1472285 41.2943849,25.0193138 41.4511041,25.0193138 Z" id="Window-Deets" fill="#FFFFFF"></path>
                                        <path d="M27.8233438,0 C28.1367823,0 28.3911672,0.255829379 28.3911672,0.571047721 L28.3911672,0.571047721 L28.3911672,5.13942949 C28.3911672,5.45464783 28.1367823,5.71047721 27.8233438,5.71047721 L27.8233438,5.71047721 L23.8485804,5.71047721 L23.8485804,18.2735271 L150.473186,18.2735271 C150.747445,18.2735271 150.982524,18.4711096 151.031924,18.7423572 L151.031924,18.7423572 L160.117098,68.9945567 C160.147192,69.1613026 160.102334,69.3326169 159.994448,69.4628158 C159.886562,69.5924436 159.726435,69.6678219 159.55836,69.6678219 L159.55836,69.6678219 L151.041009,69.6678219 L151.041009,123.346308 L159.55836,123.346308 C159.871798,123.346308 160.126183,123.602137 160.126183,123.917355 L160.126183,123.917355 L160.126183,127.914689 L168.643533,127.914689 C168.956972,127.914689 169.211356,128.170519 169.211356,128.485737 L169.211356,128.485737 L169.211356,132.483071 L359.432177,132.483071 C359.745615,132.483071 360,132.738901 360,133.054119 L360,133.054119 L360,137.622501 C360,137.937719 359.745615,138.193548 359.432177,138.193548 L359.432177,138.193548 L5.11041009,138.193548 C4.79697161,138.193548 4.54258675,137.937719 4.54258675,137.622501 L4.54258675,137.622501 L4.54258675,5.71047721 L0.567823344,5.71047721 C0.254384858,5.71047721 0,5.45464783 0,5.13942949 L0,5.13942949 L0,0.571047721 C0,0.255829379 0.254384858,0 0.567823344,0 L0.567823344,0 Z M68.1388013,133.625167 L14.7634069,133.625167 L14.7634069,137.051453 L68.1388013,137.051453 L68.1388013,133.625167 Z M358.864353,133.625167 L151.041009,133.625167 L151.041009,137.051453 L358.864353,137.051453 L358.864353,133.625167 Z M13.6277603,69.6678219 L5.67823344,69.6678219 L5.67823344,137.051453 L13.6277603,137.051453 L13.6277603,69.6678219 Z M149.905363,124.488403 L60.1892744,124.488403 L60.1892744,127.914689 L64.1640379,127.914689 C64.4774763,127.914689 64.7318612,128.170519 64.7318612,128.485737 L64.7318612,128.485737 L64.7318612,132.483071 L68.7066246,132.483071 C69.0200631,132.483071 69.2744479,132.738901 69.2744479,133.054119 L69.2744479,133.054119 L69.2744479,137.051453 L149.905363,137.051453 L149.905363,124.488403 Z M63.5962145,129.056785 L19.3059937,129.056785 L19.3059937,132.483071 L63.5962145,132.483071 L63.5962145,129.056785 Z M22.7129338,124.488403 L14.7634069,124.488403 L14.7634069,132.483071 L18.170347,132.483071 L18.170347,128.485737 C18.170347,128.170519 18.4247319,127.914689 18.7381703,127.914689 L18.7381703,127.914689 L22.7129338,127.914689 L22.7129338,124.488403 Z M168.07571,129.056785 L151.041009,129.056785 L151.041009,132.483071 L168.07571,132.483071 L168.07571,129.056785 Z M158.990536,124.488403 L151.041009,124.488403 L151.041009,127.914689 L158.990536,127.914689 L158.990536,124.488403 Z M59.0536278,124.488403 L23.8485804,124.488403 L23.8485804,127.914689 L59.0536278,127.914689 L59.0536278,124.488403 Z M149.905363,69.6678219 L14.7634069,69.6678219 L14.7634069,123.346308 L31.7981073,123.346308 L31.7981073,87.3703013 C31.7981073,87.0550829 32.0524921,86.7992535 32.3659306,86.7992535 L32.3659306,86.7992535 L50.5362776,86.7992535 C50.8497161,86.7992535 51.1041009,87.0550829 51.1041009,87.3703013 L51.1041009,87.3703013 L51.1041009,123.346308 L149.905363,123.346308 L149.905363,69.6678219 Z M49.9684543,87.941349 L32.9337539,87.941349 L32.9337539,123.346308 L49.9684543,123.346308 L49.9684543,87.941349 Z M86.8769716,86.7992535 C87.1904101,86.7992535 87.444795,87.0550829 87.444795,87.3703013 L87.444795,87.3703013 L87.444795,109.641162 L90.851735,109.641162 L90.851735,87.3703013 C90.851735,87.0550829 91.1061199,86.7992535 91.4195584,86.7992535 L91.4195584,86.7992535 L109.589905,86.7992535 C109.903344,86.7992535 110.157729,87.0550829 110.157729,87.3703013 L110.157729,87.3703013 L110.157729,109.641162 L113.564669,109.641162 L113.564669,87.3703013 C113.564669,87.0550829 113.819054,86.7992535 114.132492,86.7992535 L114.132492,86.7992535 L132.302839,86.7992535 C132.616278,86.7992535 132.870662,87.0550829 132.870662,87.3703013 L132.870662,87.3703013 L132.870662,109.641162 L136.845426,109.641162 C137.158864,109.641162 137.413249,109.896992 137.413249,110.21221 L137.413249,110.21221 L137.413249,114.780592 C137.413249,115.09581 137.158864,115.35164 136.845426,115.35164 L136.845426,115.35164 L64.1640379,115.35164 C63.8505994,115.35164 63.5962145,115.09581 63.5962145,114.780592 L63.5962145,114.780592 L63.5962145,110.21221 C63.5962145,109.896992 63.8505994,109.641162 64.1640379,109.641162 L64.1640379,109.641162 L68.1388013,109.641162 L68.1388013,87.3703013 C68.1388013,87.0550829 68.3931861,86.7992535 68.7066246,86.7992535 L68.7066246,86.7992535 Z M136.277603,110.783258 L64.7318612,110.783258 L64.7318612,114.209544 L136.277603,114.209544 L136.277603,110.783258 Z M131.735016,101.646494 L114.700315,101.646494 L114.700315,109.641162 L131.735016,109.641162 L131.735016,101.646494 Z M109.022082,101.646494 L91.9873817,101.646494 L91.9873817,109.641162 L109.022082,109.641162 L109.022082,101.646494 Z M86.3091483,101.646494 L69.2744479,101.646494 L69.2744479,109.641162 L86.3091483,109.641162 L86.3091483,101.646494 Z M131.735016,87.941349 L123.785489,87.941349 L123.785489,100.504399 L131.735016,100.504399 L131.735016,87.941349 Z M77.2239748,87.941349 L69.2744479,87.941349 L69.2744479,100.504399 L77.2239748,100.504399 L77.2239748,87.941349 Z M86.3091483,87.941349 L78.3596215,87.941349 L78.3596215,100.504399 L86.3091483,100.504399 L86.3091483,87.941349 Z M99.9369085,87.941349 L91.9873817,87.941349 L91.9873817,100.504399 L99.9369085,100.504399 L99.9369085,87.941349 Z M109.022082,87.941349 L101.072555,87.941349 L101.072555,100.504399 L109.022082,100.504399 L109.022082,87.941349 Z M122.649842,87.941349 L114.700315,87.941349 L114.700315,100.504399 L122.649842,100.504399 L122.649842,87.941349 Z M40.0803785,19.4156225 L14.6691483,19.4156225 L5.79066246,68.5257265 L158.878107,68.5257265 L149.999621,19.4156225 L124.588391,19.4156225 L137.246877,32.1459893 C137.353628,32.2527753 137.413249,32.3983924 137.413249,32.5497201 L137.413249,32.5497201 L137.413249,54.8205812 L141.388013,54.8205812 C141.701451,54.8205812 141.955836,55.0764106 141.955836,55.3916289 L141.955836,55.3916289 L141.955836,59.9600107 C141.955836,60.275229 141.701451,60.5310584 141.388013,60.5310584 L141.388013,60.5310584 L105.047319,60.5310584 C104.73388,60.5310584 104.479495,60.275229 104.479495,59.9600107 L104.479495,59.9600107 L104.479495,55.3916289 C104.479495,55.0764106 104.73388,54.8205812 105.047319,54.8205812 L105.047319,54.8205812 L109.022082,54.8205812 L109.022082,32.5497201 C109.022082,32.3983924 109.081703,32.2527753 109.188454,32.1459893 L109.188454,32.1459893 L121.84694,19.4156225 L83.7051104,19.4156225 L96.3635962,32.1459893 C96.470347,32.2527753 96.5299685,32.3983924 96.5299685,32.5497201 L96.5299685,32.5497201 L96.5299685,54.8205812 L100.504732,54.8205812 C100.81817,54.8205812 101.072555,55.0764106 101.072555,55.3916289 L101.072555,55.3916289 L101.072555,59.9600107 C101.072555,60.275229 100.81817,60.5310584 100.504732,60.5310584 L100.504732,60.5310584 L64.1640379,60.5310584 C63.8505994,60.5310584 63.5962145,60.275229 63.5962145,59.9600107 L63.5962145,59.9600107 L63.5962145,55.3916289 C63.5962145,55.0764106 63.8505994,54.8205812 64.1640379,54.8205812 L64.1640379,54.8205812 L68.1388013,54.8205812 L68.1388013,32.5497201 C68.1388013,32.3983924 68.1984227,32.2527753 68.3051735,32.1459893 L68.3051735,32.1459893 L80.9636593,19.4156225 L42.8218297,19.4156225 L55.4803155,32.1459893 C55.5870662,32.2527753 55.6466877,32.3983924 55.6466877,32.5497201 L55.6466877,32.5497201 L55.6466877,54.8205812 L59.6214511,54.8205812 C59.9348896,54.8205812 60.1892744,55.0764106 60.1892744,55.3916289 L60.1892744,55.3916289 L60.1892744,59.9600107 C60.1892744,60.275229 59.9348896,60.5310584 59.6214511,60.5310584 L59.6214511,60.5310584 L23.2807571,60.5310584 C22.9673186,60.5310584 22.7129338,60.275229 22.7129338,59.9600107 L22.7129338,59.9600107 L22.7129338,55.3916289 C22.7129338,55.0764106 22.9673186,54.8205812 23.2807571,54.8205812 L23.2807571,54.8205812 L27.2555205,54.8205812 L27.2555205,32.5497201 C27.2555205,32.3983924 27.315142,32.2527753 27.4218927,32.1459893 L27.4218927,32.1459893 L40.0803785,19.4156225 Z M22.7129338,5.71047721 L5.67823344,5.71047721 L5.67823344,62.763855 L13.6368454,18.7423572 C13.6862461,18.4711096 13.9213249,18.2735271 14.1955836,18.2735271 L14.1955836,18.2735271 L22.7129338,18.2735271 L22.7129338,5.71047721 Z M59.0536278,55.9626766 L23.8485804,55.9626766 L23.8485804,59.3889629 L59.0536278,59.3889629 L59.0536278,55.9626766 Z M99.9369085,55.9626766 L64.7318612,55.9626766 L64.7318612,59.3889629 L99.9369085,59.3889629 L99.9369085,55.9626766 Z M140.820189,55.9626766 L105.615142,55.9626766 L105.615142,59.3889629 L140.820189,59.3889629 L140.820189,55.9626766 Z M123.217666,19.6520363 L110.157729,32.7861338 L110.157729,54.8205812 L113.564669,54.8205812 L113.564669,34.4416012 C113.564669,34.2902735 113.62429,34.1452274 113.731041,34.0378704 L113.731041,34.0378704 L122.816215,24.9011069 C123.038233,24.6783983 123.397098,24.6783983 123.619117,24.9011069 L123.619117,24.9011069 L132.70429,34.0378704 C132.811041,34.1452274 132.870662,34.2902735 132.870662,34.4416012 L132.870662,34.4416012 L132.870662,54.8205812 L136.277603,54.8205812 L136.277603,32.7861338 L123.217666,19.6520363 Z M123.217666,26.1128702 L114.700315,34.678586 L114.700315,54.8205812 L131.735016,54.8205812 L131.735016,34.678586 L123.217666,26.1128702 Z M82.3343849,19.6520363 L69.2744479,32.7861338 L69.2744479,54.8205812 L72.681388,54.8205812 L72.681388,34.4416012 C72.681388,34.2902735 72.7410095,34.1452274 72.8477603,34.0378704 L72.8477603,34.0378704 L81.9329338,24.9011069 C82.1549527,24.6783983 82.513817,24.6783983 82.735836,24.9011069 L82.735836,24.9011069 L91.8210095,34.0378704 C91.9277603,34.1452274 91.9873817,34.2902735 91.9873817,34.4416012 L91.9873817,34.4416012 L91.9873817,54.8205812 L95.3943218,54.8205812 L95.3943218,32.7861338 L82.3343849,19.6520363 Z M82.3343849,26.1128702 L73.8170347,34.678586 L73.8170347,54.8205812 L90.851735,54.8205812 L90.851735,34.678586 L82.3343849,26.1128702 Z M41.4511041,19.6520363 L28.3911672,32.7861338 L28.3911672,54.8205812 L31.7981073,54.8205812 L31.7981073,34.4416012 C31.7981073,34.2902735 31.8577287,34.1452274 31.9644795,34.0378704 L31.9644795,34.0378704 L41.049653,24.9011069 C41.2716719,24.6783983 41.6305363,24.6783983 41.8525552,24.9011069 L41.8525552,24.9011069 L50.9377287,34.0378704 C51.0444795,34.1452274 51.1041009,34.2902735 51.1041009,34.4416012 L51.1041009,34.4416012 L51.1041009,54.8205812 L54.511041,54.8205812 L54.511041,32.7861338 L41.4511041,19.6520363 Z M41.4511041,26.1128702 L32.9337539,34.678586 L32.9337539,54.8205812 L49.9684543,54.8205812 L49.9684543,34.678586 L41.4511041,26.1128702 Z M27.2555205,1.14209544 L1.13564669,1.14209544 L1.13564669,4.56838176 L27.2555205,4.56838176 L27.2555205,1.14209544 Z" id="Main" stroke="#FFFFFF" stroke-width="0.6" fill="#7A7A7A"></path>
                                    </g>
                                    <path d="M136.778226,115.037419 L136.778226,119.612903 L64.1975806,119.612903 L64.1975806,115.037419 L136.778226,115.037419 Z M150.387097,69.2825806 L150.387097,78.4335484 L14.2983871,78.4335484 L14.2983871,83.0090323 L5.22580645,83.0090323 L5.22580645,69.2825806 L150.387097,69.2825806 Z M59.6612903,60.1316129 L59.6612903,64.7070968 L23.3709677,64.7070968 L23.3709677,60.1316129 L59.6612903,60.1316129 Z M100.487903,60.1316129 L100.487903,64.7070968 L64.1975806,64.7070968 L64.1975806,60.1316129 L100.487903,60.1316129 Z M141.314516,60.1316129 L141.314516,64.7070968 L105.024194,64.7070968 L105.024194,60.1316129 L141.314516,60.1316129 Z M23.3709677,5.22580645 L23.3709677,9.80129032 L5.22580645,9.80129032 L5.22580645,5.22580645 L23.3709677,5.22580645 Z" id="Shadows" fill="#C3C3C3" opacity="0.300000012" style="mix-blend-mode: multiply;"></path>
                                    <g id="Bushes" transform="translate(77.225806, 119.032258)">
                                        <path d="M8.48047538,14.0891841 L10.7419355,18.597723 L8.48047538,18.597723 L8.48047538,14.0891841 Z M33.3565365,14.0891841 L33.3565365,18.597723 L31.0950764,18.597723 L31.0950764,14.0891841 L33.3565365,14.0891841 Z M55.9711375,14.0891841 L55.9711375,18.597723 L53.7096774,18.597723 L53.7096774,14.0891841 L55.9711375,14.0891841 Z" id="Combined-Shape" fill="#E6E6E6"></path>
                                        <path d="M9.61120543,0.563567362 L9.87790303,0.567411514 C14.7501319,0.708040803 18.6570458,4.68933332 18.6570458,9.58064516 L18.6570458,9.58064516 L18.6570458,12.9620493 C18.6570458,13.5842277 18.1504788,14.0891841 17.5263158,14.0891841 L17.5263158,14.0891841 L1.69609508,14.0891841 C1.07193209,14.0891841 0.565365025,13.5842277 0.565365025,12.9620493 L0.565365025,12.9620493 L0.565365025,9.58064516 C0.565365025,4.60040038 4.61564007,0.563567362 9.61120543,0.563567362 L9.61120543,0.563567362 Z M32.2258065,0.563567362 L32.492504,0.567411514 C37.364733,0.708040803 41.2716469,4.68933332 41.2716469,9.58064516 L41.2716469,9.58064516 L41.2716469,12.9620493 C41.2716469,13.5842277 40.7650798,14.0891841 40.1409168,14.0891841 L40.1409168,14.0891841 L24.3106961,14.0891841 C23.6865331,14.0891841 23.179966,13.5842277 23.179966,12.9620493 L23.179966,12.9620493 L23.179966,9.58064516 C23.179966,4.60040038 27.2302411,0.563567362 32.2258065,0.563567362 L32.2258065,0.563567362 Z M54.8404075,0.563567362 L55.1071051,0.567411514 C59.979334,0.708040803 63.8862479,4.68933332 63.8862479,9.58064516 L63.8862479,9.58064516 L63.8862479,12.9620493 C63.8862479,13.5842277 63.3796808,14.0891841 62.7555178,14.0891841 L62.7555178,14.0891841 L46.9252971,14.0891841 C46.3011341,14.0891841 45.7945671,13.5842277 45.7945671,12.9620493 L45.7945671,12.9620493 L45.7945671,9.58064516 C45.7945671,4.60040038 49.8448421,0.563567362 54.8404075,0.563567362 L54.8404075,0.563567362 Z" id="Combined-Shape" fill="#FFFFFF"></path>
                                        <path d="M9.61120543,0 C14.9109372,0 19.2224109,4.29776471 19.2224109,9.58064516 L19.2224109,9.58064516 L19.2224109,12.9620493 C19.2224109,13.8941898 18.4614295,14.6527514 17.5263158,14.6527514 L17.5263158,14.6527514 L11.3073005,14.6527514 L11.3073005,18.597723 C11.3073005,18.9093757 11.054017,19.1612903 10.7419355,19.1612903 L10.7419355,19.1612903 L8.48047538,19.1612903 C8.16839389,19.1612903 7.91511036,18.9093757 7.91511036,18.597723 L7.91511036,18.597723 L7.91511036,14.6527514 L1.69609508,14.6527514 C0.760981324,14.6527514 0,13.8941898 0,12.9620493 L0,12.9620493 L0,9.58064516 C0,4.29776471 4.31147368,0 9.61120543,0 Z M32.2258065,0 C37.5255382,0 41.8370119,4.29776471 41.8370119,9.58064516 L41.8370119,9.58064516 L41.8370119,12.9620493 C41.8370119,13.8941898 41.0760306,14.6527514 40.1409168,14.6527514 L40.1409168,14.6527514 L33.9219015,14.6527514 L33.9219015,18.597723 C33.9219015,18.9093757 33.668618,19.1612903 33.3565365,19.1612903 L33.3565365,19.1612903 L31.0950764,19.1612903 C30.7829949,19.1612903 30.5297114,18.9093757 30.5297114,18.597723 L30.5297114,18.597723 L30.5297114,14.6527514 L24.3106961,14.6527514 C23.3755823,14.6527514 22.614601,13.8941898 22.614601,12.9620493 L22.614601,12.9620493 L22.614601,9.58064516 C22.614601,4.29776471 26.9260747,0 32.2258065,0 Z M54.8404075,0 C60.1401392,0 64.4516129,4.29776471 64.4516129,9.58064516 L64.4516129,9.58064516 L64.4516129,12.9620493 C64.4516129,13.8941898 63.6906316,14.6527514 62.7555178,14.6527514 L62.7555178,14.6527514 L56.5365025,14.6527514 L56.5365025,18.597723 C56.5365025,18.9093757 56.283219,19.1612903 55.9711375,19.1612903 L55.9711375,19.1612903 L53.7096774,19.1612903 C53.3975959,19.1612903 53.1443124,18.9093757 53.1443124,18.597723 L53.1443124,18.597723 L53.1443124,14.6527514 L46.9252971,14.6527514 C45.9901834,14.6527514 45.229202,13.8941898 45.229202,12.9620493 L45.229202,12.9620493 L45.229202,9.58064516 C45.229202,4.29776471 49.5406757,0 54.8404075,0 Z M10.1765705,14.6527514 L9.04584041,14.6527514 L9.04584041,18.0341556 L10.1765705,18.0341556 L10.1765705,14.6527514 Z M32.7911715,14.6527514 L31.6604414,14.6527514 L31.6604414,18.0341556 L32.7911715,18.0341556 L32.7911715,14.6527514 Z M55.4057725,14.6527514 L54.2750424,14.6527514 L54.2750424,18.0341556 L55.4057725,18.0341556 L55.4057725,14.6527514 Z M9.61120543,1.12713472 C4.93507131,1.12713472 1.13073005,4.91937951 1.13073005,9.58064516 L1.13073005,9.58064516 L1.13073005,12.9620493 C1.13073005,13.2731385 1.38457895,13.5256167 1.69609508,13.5256167 L1.69609508,13.5256167 L17.5263158,13.5256167 C17.8378319,13.5256167 18.0916808,13.2731385 18.0916808,12.9620493 L18.0916808,12.9620493 L18.0916808,9.58064516 C18.0916808,4.91937951 14.2873396,1.12713472 9.61120543,1.12713472 Z M32.2258065,1.12713472 C27.5496723,1.12713472 23.7453311,4.91937951 23.7453311,9.58064516 L23.7453311,9.58064516 L23.7453311,12.9620493 C23.7453311,13.2731385 23.99918,13.5256167 24.3106961,13.5256167 L24.3106961,13.5256167 L40.1409168,13.5256167 C40.4524329,13.5256167 40.7062818,13.2731385 40.7062818,12.9620493 L40.7062818,12.9620493 L40.7062818,9.58064516 C40.7062818,4.91937951 36.9019406,1.12713472 32.2258065,1.12713472 Z M54.8404075,1.12713472 C50.1642733,1.12713472 46.3599321,4.91937951 46.3599321,9.58064516 L46.3599321,9.58064516 L46.3599321,12.9620493 C46.3599321,13.2731385 46.613781,13.5256167 46.9252971,13.5256167 L46.9252971,13.5256167 L62.7555178,13.5256167 C63.067034,13.5256167 63.3208829,13.2731385 63.3208829,12.9620493 L63.3208829,12.9620493 L63.3208829,9.58064516 C63.3208829,4.91937951 59.5165416,1.12713472 54.8404075,1.12713472 Z" id="Combined-Shape" fill="#7A7A7A"></path>
                                    </g>
                                </g>
                            </g>
                        </g>
                    </g>
                </g>
            </g>
        </g>
    </g>
</svg>