<?xml version="1.0" encoding="UTF-8"?>
<svg width="581px" height="477px" viewBox="0 0 581 477" version="1.1" xmlns="http://www.w3.org/2000/svg" xmlns:xlink="http://www.w3.org/1999/xlink">
    <!-- Generator: Sketch 64 (93537) - https://sketch.com -->
    <title>hero-clouds</title>
    <desc>Created with Sketch.</desc>
    <g id="E&amp;O-Landing-Page" stroke="none" stroke-width="1" fill="none" fill-rule="evenodd">
        <g id="E&amp;O_Landing_Desktop_01" transform="translate(-859.000000, -224.000000)" fill="#FFFFFF">
            <g id="hero-clouds" transform="translate(859.000000, 224.000000)">
                <path d="M28.3360937,255.514917 C28.720082,248.836333 33.9773594,243.2585 40.6909609,242.441833 C42.9960703,242.16125 45.2050352,242.436583 47.2081445,243.140083 C47.198707,242.87175 47.1875,242.604 47.1875,242.333333 C47.1875,229.446917 57.7510117,219 70.78125,219 C78.7871992,219 85.8570664,222.947417 90.1222266,228.977333 C91.4647109,228.559667 92.8927227,228.333333 94.375,228.333333 C102.193379,228.333333 108.53125,234.60125 108.53125,242.333333 C108.53125,242.605167 108.521223,242.874083 108.505887,243.141833 C109.989934,242.620333 111.585461,242.333333 113.25,242.333333 C121.068379,242.333333 127.40625,248.60125 127.40625,256.333333 L146.28125,256.333333 C148.889539,256.333333 151,258.4205 151,261 L0,261 C0,258.4205 2.11046094,256.333333 4.71875,256.333333 L28.3125,256.333333" id="Cloud-2-Copy-4"></path>
                <path d="M606.590469,470.470139 C607.04566,462.519444 613.277797,455.879167 621.236305,454.906944 C623.968852,454.572917 626.587426,454.900694 628.961973,455.738194 C628.950785,455.41875 628.9375,455.1 628.9375,454.777778 C628.9375,439.436806 641.459809,427 656.90625,427 C666.396746,427 674.777582,431.699306 679.833633,438.877778 C681.425055,438.380556 683.117863,438.111111 684.875,438.111111 C694.143145,438.111111 701.65625,445.572917 701.65625,454.777778 C701.65625,455.101389 701.644363,455.421528 701.626184,455.740278 C703.385418,455.119444 705.276805,454.777778 707.25,454.777778 C716.518145,454.777778 724.03125,462.239583 724.03125,471.444444 L746.40625,471.444444 C749.498195,471.444444 752,473.929167 752,477 L573,477 C573,473.929167 575.501805,471.444444 578.59375,471.444444 L606.5625,471.444444" id="Cloud-2-Copy-3"></path>
                <path d="M511.457031,30.4290972 C511.774902,24.8636111 516.126953,20.2154167 521.68457,19.5348611 C523.592773,19.3010417 525.421387,19.5304861 527.07959,20.1167361 C527.071777,19.893125 527.0625,19.67 527.0625,19.4444444 C527.0625,8.70576389 535.807129,0 546.59375,0 C553.221191,0 559.07373,3.28951389 562.604492,8.31444444 C563.71582,7.96638889 564.897949,7.77777778 566.125,7.77777778 C572.597168,7.77777778 577.84375,13.0010417 577.84375,19.4444444 C577.84375,19.6709722 577.835449,19.8950694 577.822754,20.1181944 C579.05127,19.6836111 580.37207,19.4444444 581.75,19.4444444 C588.222168,19.4444444 593.46875,24.6677083 593.46875,31.1111111 L609.09375,31.1111111 C611.25293,31.1111111 613,32.8504167 613,35 L488,35 C488,32.8504167 489.74707,31.1111111 491.90625,31.1111111 L511.4375,31.1111111" id="Cloud-2-Copy-7" opacity="0.400000006"></path>
                <path d="M421.590469,273.470139 C422.04566,265.519444 428.277797,258.879167 436.236305,257.906944 C438.968852,257.572917 441.587426,257.900694 443.961973,258.738194 C443.950785,258.41875 443.9375,258.1 443.9375,257.777778 C443.9375,242.436806 456.459809,230 471.90625,230 C481.396746,230 489.777582,234.699306 494.833633,241.877778 C496.425055,241.380556 498.117863,241.111111 499.875,241.111111 C509.143145,241.111111 516.65625,248.572917 516.65625,257.777778 C516.65625,258.101389 516.644363,258.421528 516.626184,258.740278 C518.385418,258.119444 520.276805,257.777778 522.25,257.777778 C531.518145,257.777778 539.03125,265.239583 539.03125,274.444444 L561.40625,274.444444 C564.498195,274.444444 567,276.929167 567,280 L388,280 C388,276.929167 390.501805,274.444444 393.59375,274.444444 L421.5625,274.444444" id="Cloud-2-Copy-6" opacity="0.200000003"></path>
            </g>
        </g>
    </g>
</svg>