<?xml version="1.0" encoding="UTF-8"?>
<svg width="59px" height="100px" viewBox="0 0 59 100" version="1.1" xmlns="http://www.w3.org/2000/svg" xmlns:xlink="http://www.w3.org/1999/xlink">
    <!-- Generator: Sketch 61.2 (89653) - https://sketch.com -->
    <title>Group 21</title>
    <desc>Created with Sketch.</desc>
    <g id="Comps" stroke="none" stroke-width="1" fill="none" fill-rule="evenodd">
        <g id="KW-Q7" transform="translate(-1156.000000, -197.000000)">
            <g id="card" transform="translate(90.000000, 115.000000)">
                <g id="right-side" transform="translate(690.000000, 52.000000)">
                    <g id="boiler" transform="translate(330.000000, 0.000000)">
                        <g id="Group-21" transform="translate(47.000000, 30.000000)">
                            <path d="M54.7383,28.388 C54.7383,26.613 43.0703,25.174 28.6763,25.174 C14.2823,25.174 2.6133,26.613 2.6133,28.388 L2.6133,96.337 C2.6133,98.112 14.2823,99.55 28.6763,99.55 C43.0703,99.55 54.7383,98.112 54.7383,96.337 L54.7383,28.389 L54.7383,28.388 Z" id="Fill-1" fill="#FFDF2A"></path>
                            <path d="M54.7383,28.388 C54.7383,26.613 43.0703,25.174 28.6763,25.174 C14.2823,25.174 2.6133,26.613 2.6133,28.388 L2.6133,96.337 C2.6133,98.112 14.2823,99.55 28.6763,99.55 C43.0703,99.55 54.7383,98.112 54.7383,96.337 L54.7383,28.389 L54.7383,28.388 Z" id="Stroke-3" stroke="#7A7A7A" stroke-width="0.75" stroke-linecap="round" stroke-linejoin="round"></path>
                            <path d="M56.9776,4.468 C56.9776,2.207 44.3066,0.375 28.6756,0.375 C13.0456,0.375 0.3746,2.207 0.3746,4.468 L0.3746,91.009 C0.3746,93.269 13.0456,95.102 28.6756,95.102 C44.3066,95.102 56.9776,93.269 56.9776,91.009 L56.9776,4.469 L56.9776,4.468 Z" id="Fill-5" fill="#FFFFFF"></path>
                            <path d="M56.9776,4.468 C56.9776,2.207 44.3066,0.375 28.6756,0.375 C13.0456,0.375 0.3746,2.207 0.3746,4.468 L0.3746,91.009 C0.3746,93.269 13.0456,95.102 28.6756,95.102 C44.3066,95.102 56.9776,93.269 56.9776,91.009 L56.9776,4.469 L56.9776,4.468 Z" id="Stroke-7" stroke="#7A7A7A" stroke-width="0.75" stroke-linecap="round" stroke-linejoin="round"></path>
                            <path d="M44.8663,46.3284 C44.8663,55.2694 37.6183,62.5184 28.6763,62.5184 C19.7343,62.5184 12.4853,55.2694 12.4853,46.3284 C12.4853,37.3864 19.7343,30.1374 28.6763,30.1374 C37.6183,30.1374 44.8663,37.3864 44.8663,46.3284" id="Fill-9" fill="#FFDF2A"></path>
                            <path d="M44.8663,46.3284 C44.8663,55.2694 37.6183,62.5184 28.6763,62.5184 C19.7343,62.5184 12.4853,55.2694 12.4853,46.3284 C12.4853,37.3864 19.7343,30.1374 28.6763,30.1374 C37.6183,30.1374 44.8663,37.3864 44.8663,46.3284 Z" id="Stroke-11" stroke="#7A7A7A" stroke-width="0.75" stroke-linecap="round" stroke-linejoin="round"></path>
                            <g id="Group-16" transform="translate(28.000000, 37.925300)">
                                <line x1="0.6758" y1="8.4031" x2="8.2368" y2="0.8421" id="Fill-13" fill="#FFFFFF"></line>
                                <line x1="0.6758" y1="8.4031" x2="8.2368" y2="0.8421" id="Stroke-15" stroke="#7A7A7A" stroke-width="0.75" stroke-linecap="round" stroke-linejoin="round"></line>
                            </g>
                            <path d="M31.1563,46.3284 C31.1563,47.6974 30.0463,48.8084 28.6763,48.8084 C27.3053,48.8084 26.1953,47.6974 26.1953,46.3284 C26.1953,44.9584 27.3053,43.8484 28.6763,43.8484 C30.0463,43.8484 31.1563,44.9584 31.1563,46.3284" id="Fill-17" fill="#FFFFFF"></path>
                            <path d="M31.1563,46.3284 C31.1563,47.6974 30.0463,48.8084 28.6763,48.8084 C27.3053,48.8084 26.1953,47.6974 26.1953,46.3284 C26.1953,44.9584 27.3053,43.8484 28.6763,43.8484 C30.0463,43.8484 31.1563,44.9584 31.1563,46.3284 Z" id="Stroke-19" stroke="#7A7A7A" stroke-width="0.75" stroke-linecap="round" stroke-linejoin="round"></path>
                        </g>
                    </g>
                </g>
            </g>
        </g>
    </g>
</svg>