<?xml version="1.0" encoding="UTF-8"?>
<svg width="66px" height="101px" viewBox="0 0 66 101" version="1.1" xmlns="http://www.w3.org/2000/svg" xmlns:xlink="http://www.w3.org/1999/xlink">
    <!-- Generator: Sketch 61.2 (89653) - https://sketch.com -->
    <title>Group 64</title>
    <desc>Created with Sketch.</desc>
    <g id="Comps" stroke="none" stroke-width="1" fill="none" fill-rule="evenodd">
        <g id="KW-Q7" transform="translate(-987.000000, -622.000000)">
            <g id="card" transform="translate(90.000000, 115.000000)">
                <g id="right-side" transform="translate(690.000000, 52.000000)">
                    <g id="other" transform="translate(165.000000, 426.000000)">
                        <g id="Group-64" transform="translate(42.000000, 30.000000)">
                            <polygon id="Fill-1" fill="#FFFFFF" points="0.374 99.2277 65.029 99.2277 65.029 0.3757 0.374 0.3757"></polygon>
                            <polygon id="Stroke-2" stroke="#7A7A7A" stroke-width="0.75" stroke-linecap="round" stroke-linejoin="round" points="0.375 99.2277 65.03 99.2277 65.03 0.3747 0.375 0.3747"></polygon>
                            <polygon id="Fill-4" fill="#E6E6E6" points="7.51 88.0217 57.894 88.0217 57.894 85.0457 7.51 85.0457"></polygon>
                            <polygon id="Fill-5" fill="#FFFFFF" points="7.51 85.0457 57.894 85.0457 57.894 52.4217 7.51 52.4217"></polygon>
                            <polygon id="Stroke-6" stroke="#7A7A7A" stroke-width="0.75" stroke-linecap="round" stroke-linejoin="round" points="7.51 85.0457 57.894 85.0457 57.894 52.4217 7.51 52.4217"></polygon>
                            <g id="Group-63" transform="translate(9.000000, 10.602700)">
                                <path d="M18.8981,58.1306 C18.8981,59.1296 18.0891,59.9386 17.0901,59.9386 C16.0921,59.9386 15.2841,59.1296 15.2841,58.1306 C15.2841,57.1326 16.0921,56.3236 17.0901,56.3236 C18.0891,56.3236 18.8981,57.1326 18.8981,58.1306" id="Fill-7" fill="#E6E6E6"></path>
                                <path d="M18.8981,58.1306 C18.8981,59.1296 18.0891,59.9386 17.0901,59.9386 C16.0921,59.9386 15.2841,59.1296 15.2841,58.1306 C15.2841,57.1326 16.0921,56.3236 17.0901,56.3236 C18.0891,56.3236 18.8981,57.1326 18.8981,58.1306 Z" id="Stroke-9" stroke="#7A7A7A" stroke-width="0.75" stroke-linecap="round" stroke-linejoin="round"></path>
                                <path d="M25.5104,58.1306 C25.5104,59.1296 24.7004,59.9386 23.7024,59.9386 C22.7044,59.9386 21.8954,59.1296 21.8954,58.1306 C21.8954,57.1326 22.7044,56.3236 23.7024,56.3236 C24.7004,56.3236 25.5104,57.1326 25.5104,58.1306" id="Fill-11" fill="#E6E6E6"></path>
                                <path d="M25.5104,58.1306 C25.5104,59.1296 24.7004,59.9386 23.7024,59.9386 C22.7044,59.9386 21.8954,59.1296 21.8954,58.1306 C21.8954,57.1326 22.7044,56.3236 23.7024,56.3236 C24.7004,56.3236 25.5104,57.1326 25.5104,58.1306 Z" id="Stroke-13" stroke="#7A7A7A" stroke-width="0.75" stroke-linecap="round" stroke-linejoin="round"></path>
                                <path d="M32.1217,58.1306 C32.1217,59.1296 31.3117,59.9386 30.3137,59.9386 C29.3157,59.9386 28.5067,59.1296 28.5067,58.1306 C28.5067,57.1326 29.3157,56.3236 30.3137,56.3236 C31.3117,56.3236 32.1217,57.1326 32.1217,58.1306" id="Fill-15" fill="#E6E6E6"></path>
                                <path d="M32.1217,58.1306 C32.1217,59.1296 31.3117,59.9386 30.3137,59.9386 C29.3157,59.9386 28.5067,59.1296 28.5067,58.1306 C28.5067,57.1326 29.3157,56.3236 30.3137,56.3236 C31.3117,56.3236 32.1217,57.1326 32.1217,58.1306 Z" id="Stroke-17" stroke="#7A7A7A" stroke-width="0.75" stroke-linecap="round" stroke-linejoin="round"></path>
                                <g id="Group-22">
                                    <line x1="0.9352" y1="0.117" x2="0.9352" y2="32.843" id="Fill-19" fill="#FFFFFF"></line>
                                    <line x1="0.9352" y1="0.117" x2="0.9352" y2="32.843" id="Stroke-21" stroke="#7A7A7A" stroke-width="0.75" stroke-linecap="round" stroke-linejoin="round"></line>
                                </g>
                                <g id="Group-26" transform="translate(4.000000, 0.000000)">
                                    <line x1="1.4889" y1="0.117" x2="1.4889" y2="32.843" id="Fill-23" fill="#FFFFFF"></line>
                                    <line x1="1.4889" y1="0.117" x2="1.4889" y2="32.843" id="Stroke-25" stroke="#7A7A7A" stroke-width="0.75" stroke-linecap="round" stroke-linejoin="round"></line>
                                </g>
                                <g id="Group-30" transform="translate(9.000000, 0.000000)">
                                    <line x1="1.0426" y1="0.117" x2="1.0426" y2="32.843" id="Fill-27" fill="#FFFFFF"></line>
                                    <line x1="1.0426" y1="0.117" x2="1.0426" y2="32.843" id="Stroke-29" stroke="#7A7A7A" stroke-width="0.75" stroke-linecap="round" stroke-linejoin="round"></line>
                                </g>
                                <g id="Group-34" transform="translate(14.000000, 0.000000)">
                                    <line x1="0.5954" y1="0.117" x2="0.5954" y2="32.843" id="Fill-31" fill="#FFFFFF"></line>
                                    <line x1="0.5954" y1="0.117" x2="0.5954" y2="32.843" id="Stroke-33" stroke="#7A7A7A" stroke-width="0.75" stroke-linecap="round" stroke-linejoin="round"></line>
                                </g>
                                <g id="Group-38" transform="translate(18.000000, 0.000000)">
                                    <line x1="1.1491" y1="0.117" x2="1.1491" y2="32.843" id="Fill-35" fill="#FFFFFF"></line>
                                    <line x1="1.1491" y1="0.117" x2="1.1491" y2="32.843" id="Stroke-37" stroke="#7A7A7A" stroke-width="0.75" stroke-linecap="round" stroke-linejoin="round"></line>
                                </g>
                                <g id="Group-42" transform="translate(23.000000, 0.000000)">
                                    <line x1="0.7028" y1="0.117" x2="0.7028" y2="32.843" id="Fill-39" fill="#FFFFFF"></line>
                                    <line x1="0.7028" y1="0.117" x2="0.7028" y2="32.843" id="Stroke-41" stroke="#7A7A7A" stroke-width="0.75" stroke-linecap="round" stroke-linejoin="round"></line>
                                </g>
                                <g id="Group-46" transform="translate(27.000000, 0.000000)">
                                    <line x1="1.2555" y1="0.117" x2="1.2555" y2="32.843" id="Fill-43" fill="#FFFFFF"></line>
                                    <line x1="1.2555" y1="0.117" x2="1.2555" y2="32.843" id="Stroke-45" stroke="#7A7A7A" stroke-width="0.75" stroke-linecap="round" stroke-linejoin="round"></line>
                                </g>
                                <g id="Group-50" transform="translate(32.000000, 0.000000)">
                                    <line x1="0.8092" y1="0.117" x2="0.8092" y2="32.843" id="Fill-47" fill="#FFFFFF"></line>
                                    <line x1="0.8092" y1="0.117" x2="0.8092" y2="32.843" id="Stroke-49" stroke="#7A7A7A" stroke-width="0.75" stroke-linecap="round" stroke-linejoin="round"></line>
                                </g>
                                <g id="Group-54" transform="translate(36.000000, 0.000000)">
                                    <line x1="1.3629" y1="0.117" x2="1.3629" y2="32.843" id="Fill-51" fill="#FFFFFF"></line>
                                    <line x1="1.3629" y1="0.117" x2="1.3629" y2="32.843" id="Stroke-53" stroke="#7A7A7A" stroke-width="0.75" stroke-linecap="round" stroke-linejoin="round"></line>
                                </g>
                                <g id="Group-58" transform="translate(41.000000, 0.000000)">
                                    <line x1="0.9166" y1="0.117" x2="0.9166" y2="32.843" id="Fill-55" fill="#FFFFFF"></line>
                                    <line x1="0.9166" y1="0.117" x2="0.9166" y2="32.843" id="Stroke-57" stroke="#7A7A7A" stroke-width="0.75" stroke-linecap="round" stroke-linejoin="round"></line>
                                </g>
                                <g id="Group-62" transform="translate(45.000000, 0.000000)">
                                    <line x1="1.4694" y1="0.117" x2="1.4694" y2="32.843" id="Fill-59" fill="#FFFFFF"></line>
                                    <line x1="1.4694" y1="0.117" x2="1.4694" y2="32.843" id="Stroke-61" stroke="#7A7A7A" stroke-width="0.75" stroke-linecap="round" stroke-linejoin="round"></line>
                                </g>
                            </g>
                        </g>
                    </g>
                </g>
            </g>
        </g>
    </g>
</svg>