<?xml version="1.0" encoding="UTF-8"?>
<svg width="66px" height="101px" viewBox="0 0 66 101" version="1.1" xmlns="http://www.w3.org/2000/svg" xmlns:xlink="http://www.w3.org/1999/xlink">
    <!-- Generator: sketchtool 59.1 (101010) - https://sketch.com -->
    <title>7091A4BD-74AB-446D-B7CA-92CCFC119D38</title>
    <desc>Created with sketchtool.</desc>
    <g id="Asset-Artboard-Page" stroke="none" stroke-width="1" fill="none" fill-rule="evenodd">
        <g id="icons-/-heat-/-electric-furnace-selected">
            <g id="electric-furnace-icon">
                <polygon id="Fill-1" fill="#FFFFFF" points="0.374 100.2277 65.03 100.2277 65.03 1.3757 0.374 1.3757"></polygon>
                <g id="Group-11" transform="translate(0.000000, 0.602700)">
                    <polygon id="Stroke-2" stroke="#7A7A7A" stroke-width="0.75" stroke-linecap="round" stroke-linejoin="round" points="0.375 99.625 65.03 99.625 65.03 0.772 0.375 0.772"></polygon>
                    <path d="M49.5447,70.6541 C49.5447,79.9551 42.0037,87.4961 32.7027,87.4961 C23.4007,87.4961 15.8597,79.9551 15.8597,70.6541 C15.8597,61.3521 23.4007,53.8111 32.7027,53.8111 C42.0037,53.8111 49.5447,61.3521 49.5447,70.6541" id="Fill-4" fill="#FFDF2A"></path>
                    <path d="M49.5447,70.6541 C49.5447,79.9551 42.0037,87.4961 32.7027,87.4961 C23.4007,87.4961 15.8597,79.9551 15.8597,70.6541 C15.8597,61.3521 23.4007,53.8111 32.7027,53.8111 C42.0037,53.8111 49.5447,61.3521 49.5447,70.6541 Z" id="Stroke-5" stroke="#7A7A7A" stroke-width="0.75" stroke-linecap="round" stroke-linejoin="round"></path>
                    <polygon id="Fill-6" fill="#FFFFFF" points="29.9295 61.3318 36.5125 61.3318 33.5405 68.2258 37.0295 70.7628 30.9585 80.1908 32.1205 72.6668 27.7105 68.8658"></polygon>
                    <polygon id="Stroke-7" stroke="#7A7A7A" stroke-width="0.75" stroke-linecap="round" stroke-linejoin="round" points="29.9295 61.3318 36.5125 61.3318 33.5405 68.2258 37.0295 70.7628 30.9585 80.1908 32.1205 72.6668 27.7105 68.8658"></polygon>
                    <polygon id="Fill-8" fill="#E6E6E6" points="7.576 43.788 57.96 43.788 57.96 40.812 7.576 40.812"></polygon>
                    <polygon id="Fill-9" fill="#FFFFFF" points="7.576 40.812 57.96 40.812 57.96 8.188 7.576 8.188"></polygon>
                    <polygon id="Stroke-10" stroke="#7A7A7A" stroke-width="0.75" stroke-linecap="round" stroke-linejoin="round" points="7.576 40.812 57.96 40.812 57.96 8.188 7.576 8.188"></polygon>
                </g>
            </g>
        </g>
    </g>
</svg>