<?xml version="1.0" encoding="UTF-8"?>
<svg width="66px" height="100px" viewBox="0 0 66 100" version="1.1" xmlns="http://www.w3.org/2000/svg" xmlns:xlink="http://www.w3.org/1999/xlink">
    <!-- Generator: sketchtool 59.1 (101010) - https://sketch.com -->
    <title>B207514C-37DE-422D-BC06-7132EA46E25C</title>
    <desc>Created with sketchtool.</desc>
    <g id="Asset-Artboard-Page" stroke="none" stroke-width="1" fill="none" fill-rule="evenodd">
        <g id="icons-/-heat-/-gas-selected">
            <g id="gas-furnace-icon">
                <polygon id="Fill-1" fill="#FFFFFF" points="0.375 99.2277 65.03 99.2277 65.03 0.3757 0.375 0.3757"></polygon>
                <polygon id="Stroke-2" stroke="#7A7A7A" stroke-width="0.75" stroke-linecap="round" stroke-linejoin="round" points="0.375 99.2277 65.03 99.2277 65.03 0.3747 0.375 0.3747"></polygon>
                <polygon id="Fill-4" fill="#E6E6E6" points="45.328 41.9027 57.96 41.9027 57.96 40.4157 45.328 40.4157"></polygon>
                <polygon id="Fill-5" fill="#E6E6E6" points="26.452 41.9027 39.084 41.9027 39.084 40.4157 26.452 40.4157"></polygon>
                <polygon id="Fill-6" fill="#E6E6E6" points="7.576 41.9027 20.208 41.9027 20.208 40.4157 7.576 40.4157"></polygon>
                <polygon id="Fill-7" fill="#E6E6E6" points="45.328 36.4657 57.96 36.4657 57.96 34.9777 45.328 34.9777"></polygon>
                <polygon id="Fill-8" fill="#E6E6E6" points="26.452 36.4657 39.084 36.4657 39.084 34.9777 26.452 34.9777"></polygon>
                <polygon id="Fill-9" fill="#E6E6E6" points="7.576 36.4657 20.208 36.4657 20.208 34.9777 7.576 34.9777"></polygon>
                <polygon id="Fill-10" fill="#E6E6E6" points="45.328 31.0287 57.96 31.0287 57.96 29.5407 45.328 29.5407"></polygon>
                <polygon id="Fill-11" fill="#E6E6E6" points="26.452 31.0287 39.084 31.0287 39.084 29.5407 26.452 29.5407"></polygon>
                <polygon id="Fill-12" fill="#E6E6E6" points="7.576 31.0287 20.208 31.0287 20.208 29.5407 7.576 29.5407"></polygon>
                <polygon id="Fill-13" fill="#E6E6E6" points="45.328 25.5957 57.96 25.5957 57.96 24.1077 45.328 24.1077"></polygon>
                <polygon id="Fill-14" fill="#E6E6E6" points="26.452 25.5957 39.084 25.5957 39.084 24.1077 26.452 24.1077"></polygon>
                <polygon id="Fill-15" fill="#E6E6E6" points="7.576 25.5957 20.208 25.5957 20.208 24.1077 7.576 24.1077"></polygon>
                <polygon id="Fill-16" fill="#E6E6E6" points="45.328 20.1537 57.96 20.1537 57.96 18.6657 45.328 18.6657"></polygon>
                <polygon id="Fill-17" fill="#E6E6E6" points="26.452 20.1537 39.084 20.1537 39.084 18.6657 26.452 18.6657"></polygon>
                <polygon id="Fill-18" fill="#E6E6E6" points="7.576 20.1537 20.208 20.1537 20.208 18.6657 7.576 18.6657"></polygon>
                <polygon id="Fill-19" fill="#E6E6E6" points="45.328 14.7157 57.96 14.7157 57.96 13.2287 45.328 13.2287"></polygon>
                <polygon id="Fill-20" fill="#E6E6E6" points="26.452 14.7157 39.084 14.7157 39.084 13.2287 26.452 13.2287"></polygon>
                <polygon id="Fill-21" fill="#E6E6E6" points="7.576 14.7157 20.208 14.7157 20.208 13.2287 7.576 13.2287"></polygon>
                <polygon id="Fill-22" fill="#E6E6E6" points="45.328 9.2787 57.96 9.2787 57.96 7.7917 45.328 7.7917"></polygon>
                <polygon id="Fill-23" fill="#E6E6E6" points="26.452 9.2787 39.084 9.2787 39.084 7.7917 26.452 7.7917"></polygon>
                <polygon id="Fill-24" fill="#E6E6E6" points="7.576 9.2787 20.208 9.2787 20.208 7.7917 7.576 7.7917"></polygon>
                <g id="Group-75" transform="translate(7.000000, 6.602700)">
                    <path d="M42.5448,63.6541 C42.5448,72.9551 35.0038,80.4961 25.7018,80.4961 C16.4008,80.4961 8.8598,72.9551 8.8598,63.6541 C8.8598,54.3521 16.4008,46.8111 25.7018,46.8111 C35.0038,46.8111 42.5448,54.3521 42.5448,63.6541" id="Fill-25" fill="#FFDF2A"></path>
                    <path d="M42.5448,63.6541 C42.5448,72.9551 35.0038,80.4961 25.7018,80.4961 C16.4008,80.4961 8.8598,72.9551 8.8598,63.6541 C8.8598,54.3521 16.4008,46.8111 25.7018,46.8111 C35.0038,46.8111 42.5448,54.3521 42.5448,63.6541 Z" id="Stroke-27" stroke="#7A7A7A" stroke-width="0.75" stroke-linecap="round" stroke-linejoin="round"></path>
                    <line x1="0.5761" y1="1.1882" x2="13.2081" y2="1.1882" id="Stroke-29" stroke="#7A7A7A" stroke-width="0.75" stroke-linecap="round" stroke-linejoin="round"></line>
                    <line x1="19.4521" y1="1.1882" x2="32.0841" y2="1.1882" id="Stroke-31" stroke="#7A7A7A" stroke-width="0.75" stroke-linecap="round" stroke-linejoin="round"></line>
                    <line x1="38.328" y1="1.1882" x2="50.96" y2="1.1882" id="Stroke-33" stroke="#7A7A7A" stroke-width="0.75" stroke-linecap="round" stroke-linejoin="round"></line>
                    <line x1="0.5761" y1="6.6257" x2="13.2081" y2="6.6257" id="Stroke-35" stroke="#7A7A7A" stroke-width="0.75" stroke-linecap="round" stroke-linejoin="round"></line>
                    <line x1="19.4521" y1="6.6257" x2="32.0841" y2="6.6257" id="Stroke-37" stroke="#7A7A7A" stroke-width="0.75" stroke-linecap="round" stroke-linejoin="round"></line>
                    <line x1="38.328" y1="6.6257" x2="50.96" y2="6.6257" id="Stroke-39" stroke="#7A7A7A" stroke-width="0.75" stroke-linecap="round" stroke-linejoin="round"></line>
                    <line x1="0.5761" y1="12.0622" x2="13.2081" y2="12.0622" id="Stroke-41" stroke="#7A7A7A" stroke-width="0.75" stroke-linecap="round" stroke-linejoin="round"></line>
                    <line x1="19.4521" y1="12.0622" x2="32.0841" y2="12.0622" id="Stroke-43" stroke="#7A7A7A" stroke-width="0.75" stroke-linecap="round" stroke-linejoin="round"></line>
                    <line x1="38.328" y1="12.0622" x2="50.96" y2="12.0622" id="Stroke-45" stroke="#7A7A7A" stroke-width="0.75" stroke-linecap="round" stroke-linejoin="round"></line>
                    <line x1="0.5761" y1="17.4997" x2="13.2081" y2="17.4997" id="Stroke-47" stroke="#7A7A7A" stroke-width="0.75" stroke-linecap="round" stroke-linejoin="round"></line>
                    <line x1="19.4521" y1="17.4997" x2="32.0841" y2="17.4997" id="Stroke-49" stroke="#7A7A7A" stroke-width="0.75" stroke-linecap="round" stroke-linejoin="round"></line>
                    <line x1="38.328" y1="17.4997" x2="50.96" y2="17.4997" id="Stroke-51" stroke="#7A7A7A" stroke-width="0.75" stroke-linecap="round" stroke-linejoin="round"></line>
                    <line x1="0.5761" y1="22.9372" x2="13.2081" y2="22.9372" id="Stroke-53" stroke="#7A7A7A" stroke-width="0.75" stroke-linecap="round" stroke-linejoin="round"></line>
                    <line x1="19.4521" y1="22.9372" x2="32.0841" y2="22.9372" id="Stroke-55" stroke="#7A7A7A" stroke-width="0.75" stroke-linecap="round" stroke-linejoin="round"></line>
                    <line x1="38.328" y1="22.9372" x2="50.96" y2="22.9372" id="Stroke-57" stroke="#7A7A7A" stroke-width="0.75" stroke-linecap="round" stroke-linejoin="round"></line>
                    <line x1="0.5761" y1="28.3747" x2="13.2081" y2="28.3747" id="Stroke-59" stroke="#7A7A7A" stroke-width="0.75" stroke-linecap="round" stroke-linejoin="round"></line>
                    <line x1="19.4521" y1="28.3747" x2="32.0841" y2="28.3747" id="Stroke-61" stroke="#7A7A7A" stroke-width="0.75" stroke-linecap="round" stroke-linejoin="round"></line>
                    <line x1="38.328" y1="28.3747" x2="50.96" y2="28.3747" id="Stroke-63" stroke="#7A7A7A" stroke-width="0.75" stroke-linecap="round" stroke-linejoin="round"></line>
                    <line x1="0.5761" y1="33.8122" x2="13.2081" y2="33.8122" id="Stroke-65" stroke="#7A7A7A" stroke-width="0.75" stroke-linecap="round" stroke-linejoin="round"></line>
                    <line x1="19.4521" y1="33.8122" x2="32.0841" y2="33.8122" id="Stroke-67" stroke="#7A7A7A" stroke-width="0.75" stroke-linecap="round" stroke-linejoin="round"></line>
                    <line x1="38.328" y1="33.8122" x2="50.96" y2="33.8122" id="Stroke-69" stroke="#7A7A7A" stroke-width="0.75" stroke-linecap="round" stroke-linejoin="round"></line>
                    <path d="M24.4374,54.6101 C24.4374,54.6101 24.7434,57.6731 23.3484,59.7431 C22.5084,60.9891 22.1814,61.1461 21.4644,62.1251 C20.7604,63.0861 19.2004,64.8621 19.4004,67.2451 C19.6154,69.8021 21.6524,71.3181 21.9594,71.5391 C22.3124,71.7931 23.7644,72.6661 25.6984,72.6961 C24.4284,72.6931 23.4004,71.6641 23.4004,70.3941 C23.4004,69.1231 24.4314,68.0921 25.7024,68.0921 C26.9734,68.0921 28.0034,69.1231 28.0034,70.3941 C28.0034,71.6641 26.9764,72.6931 25.7084,72.6961 C25.8064,72.6971 25.9054,72.6981 26.0064,72.6951 C29.5484,72.5821 31.4044,69.4011 31.4924,69.2261 C34.3954,63.4601 24.4374,54.6101 24.4374,54.6101" id="Fill-71" fill="#FFFFFF"></path>
                    <path d="M24.4374,54.6101 C24.4374,54.6101 24.7434,57.6731 23.3484,59.7431 C22.5084,60.9891 22.1814,61.1461 21.4644,62.1251 C20.7604,63.0861 19.2004,64.8621 19.4004,67.2451 C19.6154,69.8021 21.6524,71.3181 21.9594,71.5391 C22.3124,71.7931 23.7644,72.6661 25.6984,72.6961 C24.4284,72.6931 23.4004,71.6641 23.4004,70.3941 C23.4004,69.1231 24.4314,68.0921 25.7024,68.0921 C26.9734,68.0921 28.0034,69.1231 28.0034,70.3941 C28.0034,71.6641 26.9764,72.6931 25.7084,72.6961 C25.8064,72.6971 25.9054,72.6981 26.0064,72.6951 C29.5484,72.5821 31.4044,69.4011 31.4924,69.2261 C34.3954,63.4601 24.4374,54.6101 24.4374,54.6101 Z" id="Stroke-73" stroke="#7A7A7A" stroke-width="0.75" stroke-linecap="round" stroke-linejoin="round"></path>
                </g>
            </g>
        </g>
    </g>
</svg>