<?xml version="1.0" encoding="UTF-8"?>
<svg width="82px" height="82px" viewBox="0 0 82 82" version="1.1" xmlns="http://www.w3.org/2000/svg" xmlns:xlink="http://www.w3.org/1999/xlink">
    <!-- Generator: Sketch 61.2 (89653) - https://sketch.com -->
    <title>Group 11</title>
    <desc>Created with Sketch.</desc>
    <g id="Comps" stroke="none" stroke-width="1" fill="none" fill-rule="evenodd">
        <g id="KW-Q7" transform="translate(-1142.000000, -642.000000)">
            <g id="card" transform="translate(90.000000, 115.000000)">
                <g id="right-side" transform="translate(690.000000, 52.000000)">
                    <g id="none" transform="translate(328.000000, 426.000000)">
                        <g id="Group-11" transform="translate(34.500000, 49.000000)">
                            <polygon id="Fill-1" fill="#FFFFFF" points="26.917 62.1055 53.955 62.1055 53.955 20.7665 26.917 20.7665"></polygon>
                            <polygon id="Stroke-2" stroke="#7A7A7A" stroke-width="0.75" stroke-linecap="round" stroke-linejoin="round" points="26.917 62.1055 53.955 62.1055 53.955 20.7665 26.917 20.7665"></polygon>
                            <polygon id="Fill-3" fill="#FFDF2A" points="29.901 49.5015 50.971 49.5015 50.971 48.2575 29.901 48.2575"></polygon>
                            <polygon id="Fill-4" fill="#FFFFFF" points="29.901 48.2585 50.971 48.2585 50.971 34.6145 29.901 34.6145"></polygon>
                            <polygon id="Stroke-5" stroke="#7A7A7A" stroke-width="0.75" stroke-linecap="round" stroke-linejoin="round" points="29.901 48.2585 50.971 48.2585 50.971 34.6145 29.901 34.6145"></polygon>
                            <g id="Group-10" transform="translate(0.000000, 0.872500)">
                                <path d="M66.3872,66.5142 C52.4642,80.4372 30.1412,80.8312 15.7382,67.7042 L67.5772,15.8662 C80.7042,30.2682 80.3092,52.5922 66.3872,66.5142 M14.4862,14.6132 C28.4072,0.6912 50.7312,0.2962 65.1342,13.4222 L13.2952,65.2612 C0.1682,50.8592 0.5632,28.5352 14.4862,14.6132 M12.1092,12.2362 C-3.5368,27.8812 -3.5368,53.2462 12.1092,68.8912 C27.7532,84.5362 53.1182,84.5362 68.7642,68.8912 C84.4082,53.2462 84.4082,27.8812 68.7642,12.2362 C53.1182,-3.4088 27.7532,-3.4088 12.1092,12.2362" id="Fill-6" fill="#FFDF2A"></path>
                                <path d="M66.3872,66.5142 C52.4642,80.4372 30.1412,80.8312 15.7382,67.7042 L67.5772,15.8662 C80.7042,30.2682 80.3092,52.5922 66.3872,66.5142 Z M14.4862,14.6132 C28.4072,0.6912 50.7312,0.2962 65.1342,13.4222 L13.2952,65.2612 C0.1682,50.8592 0.5632,28.5352 14.4862,14.6132 Z M12.1092,12.2362 C-3.5368,27.8812 -3.5368,53.2462 12.1092,68.8912 C27.7532,84.5362 53.1182,84.5362 68.7642,68.8912 C84.4082,53.2462 84.4082,27.8812 68.7642,12.2362 C53.1182,-3.4088 27.7532,-3.4088 12.1092,12.2362 Z" id="Stroke-8" stroke="#7A7A7A" stroke-width="0.75" stroke-linecap="round" stroke-linejoin="round"></path>
                            </g>
                        </g>
                    </g>
                </g>
            </g>
        </g>
    </g>
</svg>