<?xml version="1.0" encoding="UTF-8"?>
<svg width="54px" height="70px" viewBox="0 0 54 70" version="1.1" xmlns="http://www.w3.org/2000/svg" xmlns:xlink="http://www.w3.org/1999/xlink">
    <!-- Generator: Sketch 61.2 (89653) - https://sketch.com -->
    <title>Group 33</title>
    <desc>Created with Sketch.</desc>
    <g id="Comps" stroke="none" stroke-width="1" fill="none" fill-rule="evenodd">
        <g id="KW-Q7" transform="translate(-995.000000, -441.000000)">
            <g id="card" transform="translate(90.000000, 115.000000)">
                <g id="right-side" transform="translate(690.000000, 52.000000)">
                    <g id="oil,coal,kerosene" transform="translate(165.000000, 213.000000)">
                        <g id="Group-33" transform="translate(50.500000, 62.000000)">
                            <polygon id="Fill-1" fill="#E6E6E6" points="0.374 17.1208 52.581 17.1208 52.581 2.6928 0.374 2.6928"></polygon>
                            <polygon id="Stroke-2" stroke="#7A7A7A" stroke-width="0.75" stroke-linecap="round" stroke-linejoin="round" points="0.375 17.1208 52.582 17.1208 52.582 2.6928 0.375 2.6928"></polygon>
                            <polygon id="Fill-4" fill="#E6E6E6" points="0.374 62.4168 52.581 62.4168 52.581 47.9888 0.374 47.9888"></polygon>
                            <polygon id="Stroke-5" stroke="#7A7A7A" stroke-width="0.75" stroke-linecap="round" stroke-linejoin="round" points="0.375 62.4168 52.582 62.4168 52.582 47.9888 0.375 47.9888"></polygon>
                            <polygon id="Fill-7" fill="#FFFFFF" points="13.942 63.9738 18.664 63.9738 18.664 0.3748 13.942 0.3748"></polygon>
                            <polygon id="Stroke-8" stroke="#7A7A7A" stroke-width="0.75" stroke-linecap="round" stroke-linejoin="round" points="13.942 63.9738 18.664 63.9738 18.664 0.3748 13.942 0.3748"></polygon>
                            <polygon id="Fill-10" fill="#FFFFFF" points="20.725 63.9738 25.447 63.9738 25.447 0.3748 20.725 0.3748"></polygon>
                            <polygon id="Stroke-11" stroke="#7A7A7A" stroke-width="0.75" stroke-linecap="round" stroke-linejoin="round" points="20.725 63.9738 25.447 63.9738 25.447 0.3748 20.725 0.3748"></polygon>
                            <polygon id="Fill-13" fill="#FFFFFF" points="0.374 63.9728 11.881 63.9728 11.881 0.3748 0.374 0.3748"></polygon>
                            <polygon id="Stroke-14" stroke="#7A7A7A" stroke-width="0.75" stroke-linecap="round" stroke-linejoin="round" points="0.375 63.9738 11.881 63.9738 11.881 0.3748 0.375 0.3748"></polygon>
                            <polygon id="Fill-16" fill="#FFFFFF" points="41.076 63.9738 45.798 63.9738 45.798 0.3748 41.076 0.3748"></polygon>
                            <polygon id="Stroke-17" stroke="#7A7A7A" stroke-width="0.75" stroke-linecap="round" stroke-linejoin="round" points="41.076 63.9738 45.798 63.9738 45.798 0.3748 41.076 0.3748"></polygon>
                            <polygon id="Fill-19" fill="#FFFFFF" points="47.859 63.9728 52.581 63.9728 52.581 0.3748 47.859 0.3748"></polygon>
                            <polygon id="Stroke-20" stroke="#7A7A7A" stroke-width="0.75" stroke-linecap="round" stroke-linejoin="round" points="47.859 63.9738 52.582 63.9738 52.582 0.3748 47.859 0.3748"></polygon>
                            <polygon id="Fill-22" fill="#FFFFFF" points="34.293 63.9738 39.015 63.9738 39.015 0.3748 34.293 0.3748"></polygon>
                            <polygon id="Stroke-23" stroke="#7A7A7A" stroke-width="0.75" stroke-linecap="round" stroke-linejoin="round" points="34.293 63.9738 39.015 63.9738 39.015 0.3748 34.293 0.3748"></polygon>
                            <polygon id="Fill-25" fill="#FFFFFF" points="27.51 63.9738 32.232 63.9738 32.232 0.3748 27.51 0.3748"></polygon>
                            <g id="Group-32" transform="translate(3.000000, 0.367800)">
                                <polygon id="Stroke-26" stroke="#7A7A7A" stroke-width="0.75" stroke-linecap="round" stroke-linejoin="round" points="24.51 63.606 29.232 63.606 29.232 0.007 24.51 0.007"></polygon>
                                <path d="M3.2088,67.621 L3.2088,67.621 C1.5768,67.621 0.2548,66.299 0.2548,64.668 C0.2548,63.036 1.5768,61.714 3.2088,61.714 C4.8398,61.714 6.1628,63.036 6.1628,64.668 C6.1628,66.299 4.8398,67.621 3.2088,67.621" id="Fill-28" fill="#E6E6E6"></path>
                                <path d="M3.2088,67.621 L3.2088,67.621 C1.5768,67.621 0.2548,66.299 0.2548,64.668 C0.2548,63.036 1.5768,61.714 3.2088,61.714 C4.8398,61.714 6.1628,63.036 6.1628,64.668 C6.1628,66.299 4.8398,67.621 3.2088,67.621 Z" id="Stroke-29" stroke="#7A7A7A" stroke-width="0.75" stroke-linecap="round" stroke-linejoin="round"></path>
                                <path d="M43.8436,67.6249 L43.8436,67.6249 C42.2116,67.6249 40.8896,66.3029 40.8896,64.6709 C40.8896,63.0399 42.2116,61.7169 43.8436,61.7169 C45.4746,61.7169 46.7976,63.0399 46.7976,64.6709 C46.7976,66.3029 45.4746,67.6249 43.8436,67.6249" id="Fill-30" fill="#E6E6E6"></path>
                                <path d="M43.8436,67.6249 L43.8436,67.6249 C42.2116,67.6249 40.8896,66.3029 40.8896,64.6709 C40.8896,63.0399 42.2116,61.7169 43.8436,61.7169 C45.4746,61.7169 46.7976,63.0399 46.7976,64.6709 C46.7976,66.3029 45.4746,67.6249 43.8436,67.6249 Z" id="Stroke-31" stroke="#7A7A7A" stroke-width="0.75" stroke-linecap="round" stroke-linejoin="round"></path>
                            </g>
                        </g>
                    </g>
                </g>
            </g>
        </g>
    </g>
</svg>