<?xml version="1.0" encoding="UTF-8"?>
<svg width="69px" height="101px" viewBox="0 0 69 101" version="1.1" xmlns="http://www.w3.org/2000/svg" xmlns:xlink="http://www.w3.org/1999/xlink">
    <!-- Generator: Sketch 61.2 (89653) - https://sketch.com -->
    <title>Group 21</title>
    <desc>Created with Sketch.</desc>
    <g id="Comps" stroke="none" stroke-width="1" fill="none" fill-rule="evenodd">
        <g id="KW-Q7" transform="translate(-1148.000000, -410.000000)">
            <g id="card" transform="translate(90.000000, 115.000000)">
                <g id="right-side" transform="translate(690.000000, 52.000000)">
                    <g id="stove" transform="translate(328.000000, 213.000000)">
                        <g id="Group-21" transform="translate(40.500000, 30.000000)">
                            <polygon id="Fill-1" fill="#FFFFFF" points="0.375 96.227 68.028 96.227 68.028 45.445 0.375 45.445"></polygon>
                            <polygon id="Stroke-2" stroke="#7A7A7A" stroke-width="0.75" stroke-linecap="round" stroke-linejoin="round" points="0.375 96.228 68.028 96.228 68.028 45.446 0.375 45.446"></polygon>
                            <polygon id="Fill-4" fill="#E6E6E6" points="37.293 84.233 43.369 84.233 43.369 57.441 37.293 57.441"></polygon>
                            <polygon id="Stroke-5" stroke="#7A7A7A" stroke-width="0.75" stroke-linecap="round" stroke-linejoin="round" points="37.293 84.233 43.369 84.233 43.369 57.441 37.293 57.441"></polygon>
                            <polygon id="Fill-6" fill="#E6E6E6" points="49.286 84.233 55.363 84.233 55.363 57.441 49.286 57.441"></polygon>
                            <polygon id="Stroke-7" stroke="#7A7A7A" stroke-width="0.75" stroke-linecap="round" stroke-linejoin="round" points="49.286 84.233 55.363 84.233 55.363 57.441 49.286 57.441"></polygon>
                            <polygon id="Fill-8" fill="#E6E6E6" points="25.299 84.233 31.376 84.233 31.376 57.441 25.299 57.441"></polygon>
                            <polygon id="Stroke-9" stroke="#7A7A7A" stroke-width="0.75" stroke-linecap="round" stroke-linejoin="round" points="25.299 84.233 31.376 84.233 31.376 57.441 25.299 57.441"></polygon>
                            <polygon id="Fill-10" fill="#E6E6E6" points="13.04 84.233 19.117 84.233 19.117 57.441 13.04 57.441"></polygon>
                            <polygon id="Stroke-11" stroke="#7A7A7A" stroke-width="0.75" stroke-linecap="round" stroke-linejoin="round" points="13.04 84.233 19.117 84.233 19.117 57.441 13.04 57.441"></polygon>
                            <polygon id="Fill-12" fill="#E6E6E6" points="13.04 100.357 19.117 100.357 19.117 96.228 13.04 96.228"></polygon>
                            <polygon id="Stroke-13" stroke="#7A7A7A" stroke-width="0.75" stroke-linecap="round" stroke-linejoin="round" points="13.04 100.357 19.117 100.357 19.117 96.228 13.04 96.228"></polygon>
                            <polygon id="Fill-15" fill="#E6E6E6" points="49.286 100.357 55.364 100.357 55.364 96.228 49.286 96.228"></polygon>
                            <polygon id="Stroke-16" stroke="#7A7A7A" stroke-width="0.75" stroke-linecap="round" stroke-linejoin="round" points="49.286 100.357 55.363 100.357 55.363 96.228 49.286 96.228"></polygon>
                            <polygon id="Fill-18" fill="#E6E6E6" points="26.686 45.446 41.718 45.446 41.718 0.376 26.686 0.376"></polygon>
                            <polygon id="Stroke-19" stroke="#7A7A7A" stroke-width="0.75" stroke-linecap="round" stroke-linejoin="round" points="26.686 45.446 41.718 45.446 41.718 0.376 26.686 0.376"></polygon>
                        </g>
                    </g>
                </g>
            </g>
        </g>
    </g>
</svg>