<?xml version="1.0" encoding="UTF-8"?>
<svg width="700px" height="161px" viewBox="0 0 700 161" version="1.1" xmlns="http://www.w3.org/2000/svg" xmlns:xlink="http://www.w3.org/1999/xlink">
    <!-- Generator: Sketch 62 (91390) - https://sketch.com -->
    <title>confetti</title>
    <desc>Created with Sketch.</desc>
    <g id="Comps" stroke="none" stroke-width="1" fill="none" fill-rule="evenodd">
        <g id="KW-text-confirmation-lemonade-paid" transform="translate(-690.000000, -109.000000)">
            <g id="summary" transform="translate(690.000000, 109.000000)">
                <g id="confetti">
                    <g id="ribbon-3" transform="translate(198.000000, 56.000000)" fill="#FFC713">
                        <path d="M8.8505662,4.3213148 C9.15849089,3.72268861 8.9763979,2.97376081 8.43435366,2.60994058 L4.84573037,0.198018911 C4.56563384,0.0103031568 4.22504131,-0.0471081908 3.9038075,0.0393313663 C3.58257369,0.125770923 3.30913172,0.349610672 3.14639746,0.657309693 C1.11070674,4.50645027 0,8.75682521 0,12.7588477 C0,16.9305239 1.21536483,20.3577879 3.14397762,23 C4.19539826,20.4919627 5.34300757,18.5103036 7.11856545,16.0654833 C6.82092508,15.0849749 6.65456105,13.9844832 6.65456105,12.7588477 C6.65456105,10.0650299 7.44584886,7.04738621 8.8505662,4.3213148" id="Fill-377"></path>
                        <path d="M20.6593948,11 C10.5719871,11 3,21.8457891 3,30.6547435 C3,36.4632193 5.70616342,41.5419996 10.4753608,44.7813776 C10.7621024,44.9763344 11.1178628,45.0450335 11.4579372,44.9707642 C11.7980115,44.8964949 12.0929099,44.6866843 12.2698489,44.390845 L14.5041749,40.6445792 C14.8323278,40.0949866 14.6836237,39.3888096 14.1597085,39.0149877 C5.16405232,32.5950281 11.8394228,17.8080164 20.6593948,17.8080164 C22.729958,17.8080164 23.0606207,20.8375838 17.2831218,21.3500417 L17.2893962,21.3593254 C14.907621,22.9876791 13.3854433,25.2207085 12.7159612,27.9971414 C13.6502244,28.1500123 14.5913895,28.2335653 15.5269077,28.2335653 C22.2217288,28.2335653 29,25.1507716 29,19.2593618 C29,15.1993083 25.8803514,11 20.6593948,11" id="Fill-378"></path>
                    </g>
                    <g id="ribbon-3" transform="translate(572.500000, 38.500000) rotate(90.000000) translate(-572.500000, -38.500000) translate(558.000000, 16.000000)" fill="#292929">
                        <path d="M8.8505662,4.3213148 C9.15849089,3.72268861 8.9763979,2.97376081 8.43435366,2.60994058 L4.84573037,0.198018911 C4.56563384,0.0103031568 4.22504131,-0.0471081908 3.9038075,0.0393313663 C3.58257369,0.125770923 3.30913172,0.349610672 3.14639746,0.657309693 C1.11070674,4.50645027 0,8.75682521 0,12.7588477 C0,16.9305239 1.21536483,20.3577879 3.14397762,23 C4.19539826,20.4919627 5.34300757,18.5103036 7.11856545,16.0654833 C6.82092508,15.0849749 6.65456105,13.9844832 6.65456105,12.7588477 C6.65456105,10.0650299 7.44584886,7.04738621 8.8505662,4.3213148" id="Fill-377"></path>
                        <path d="M20.6593948,11 C10.5719871,11 3,21.8457891 3,30.6547435 C3,36.4632193 5.70616342,41.5419996 10.4753608,44.7813776 C10.7621024,44.9763344 11.1178628,45.0450335 11.4579372,44.9707642 C11.7980115,44.8964949 12.0929099,44.6866843 12.2698489,44.390845 L14.5041749,40.6445792 C14.8323278,40.0949866 14.6836237,39.3888096 14.1597085,39.0149877 C5.16405232,32.5950281 11.8394228,17.8080164 20.6593948,17.8080164 C22.729958,17.8080164 23.0606207,20.8375838 17.2831218,21.3500417 L17.2893962,21.3593254 C14.907621,22.9876791 13.3854433,25.2207085 12.7159612,27.9971414 C13.6502244,28.1500123 14.5913895,28.2335653 15.5269077,28.2335653 C22.2217288,28.2335653 29,25.1507716 29,19.2593618 C29,15.1993083 25.8803514,11 20.6593948,11" id="Fill-378"></path>
                    </g>
                    <g id="ribbon-2" transform="translate(426.000000, 43.000000)" fill="#0093E9">
                        <path d="M4.92453021,27.2269027 C4.2882159,27.396116 3.89486926,28.0353665 4.024742,28.6858979 L4.88289637,32.9939446 C4.94938624,33.3298644 5.15072007,33.6237943 5.43904999,33.8067954 C5.72613711,33.9897965 6.07598571,34.0455742 6.40594948,33.962221 C10.5345357,32.9118447 14.2865531,30.8988325 17.0797493,28.2189943 C19.9903901,25.4257205 21.5221429,22.2181873 22,19 C19.5056976,19.8911903 17.3102889,20.3574671 14.3462076,20.6614245 C13.8733217,21.5419606 13.2233365,22.4036953 12.3676678,23.2246935 C10.4879307,25.0290092 7.82150027,26.4554151 4.92453021,27.2269027" id="Fill-379"></path>
                        <path d="M31.3984378,7.47882674 L27.6645354,5.1390352 C27.3785582,4.95949834 27.0352609,4.90718724 26.7119011,4.99308078 C26.3872952,5.07832849 26.1106637,5.29532269 25.9424418,5.59498133 C22.2571368,12.1609931 11.9663196,14.4303906 7.2804059,9.32586063 C5.86298087,7.78171446 7.84612982,5.35538358 12.1750393,9.29550727 L12.1775315,9.28388258 C14.9949363,9.88901222 17.6653027,9.4175665 20.148756,7.92056491 C19.6204147,7.11329485 19.0366225,6.35187774 18.3967563,5.65439641 C13.814268,0.66159256 6.92651692,-2.17547733 2.62938269,2.06236756 C-0.331322244,4.98274772 -1.25841167,10.3294588 2.31474548,14.2230837 C9.21994176,21.7442574 22.3125877,19.589815 28.7374171,13.2543596 C29.9747824,12.0331215 31.0065432,10.683366 31.8277151,9.23932128 C32.1735045,8.62967093 31.9828531,7.84565025 31.3984378,7.47882674" id="Fill-380"></path>
                    </g>
                    <path d="M162.043101,28.700833 C161.900401,28.403141 161.639302,28.1739607 161.320251,28.0666461 C161.001823,27.9593315 160.651615,27.9823708 160.350012,28.1303073 C155.37481,30.5791416 150.967295,34.0683819 146.309275,39.2400968 C146.089304,39.4850408 145.979007,39.8051657 146.00331,40.1289284 C146.028235,40.4526911 146.185268,40.7534145 146.439512,40.9644059 L149.764622,43.7115384 C150.28308,44.1401905 151.059521,44.0850175 151.508186,43.5866412 C155.547422,39.1036799 159.17725,36.1995164 163.319305,34.1429564 C163.916903,33.8458708 164.166161,33.1437787 163.883876,32.5520326 L162.043101,28.700833" id="Fill-381" fill="#80D0C7"></path>
                    <path d="M425.748632,23.9255673 C425.953816,23.6498181 426.038676,23.301637 425.98358,22.9617157 C425.928484,22.6217944 425.739132,22.3187244 425.457321,22.1217606 C420.809013,18.870588 415.477391,16.645533 408.476432,15.0323364 C408.145857,14.9560924 407.798817,15.0158169 407.512573,15.1994379 C407.226328,15.3824236 407.024944,15.6727863 406.954016,16.0057185 L406.028154,20.3554406 C405.883765,21.0340124 406.308699,21.7030538 406.983147,21.8587187 C413.051279,23.2597028 417.470971,25.0755815 421.357437,27.7739848 C421.918527,28.1628294 422.684168,28.0382975 423.092003,27.4899758 L425.748632,23.9255673" id="Fill-382" fill="#80D0C7"></path>
                    <path d="M264.050368,39.1222681 L259.701132,38.041643 C259.028948,37.8747601 258.33423,38.2238038 258.131416,38.831986 C257.859709,39.6423079 257.53907,40.4684955 257.121208,41.284106 C256.837268,41.8376399 257.067768,42.4981199 257.649813,42.8013295 L261.573461,44.8462319 C261.882511,45.0066509 262.252083,45.0436707 262.592038,44.9473018 C262.931993,44.8515204 263.213358,44.6323398 263.369814,44.3402948 C264.064533,43.0434271 264.557082,41.7706517 264.945326,40.5960081 C265.045767,40.2922108 265.006492,39.9643213 264.838446,39.6869667 C264.669756,39.4096121 264.385816,39.2057095 264.050368,39.1222681" id="Fill-383" fill="#0093E9"></path>
                    <path d="M353.921896,80.0335322 L354.961705,75.6603322 C355.12222,74.9852485 354.764012,74.2933845 354.151457,74.0971843 C353.334717,73.8351537 352.502044,73.5240731 351.679403,73.1155377 C351.11996,72.8373723 350.459014,73.0774594 350.160999,73.6641239 L348.148066,77.6223346 C347.989911,77.9340606 347.956864,78.3045176 348.056595,78.644641 C348.156327,78.9841191 348.379987,79.2635753 348.674461,79.4165341 C349.98455,80.0967809 351.268082,80.575019 352.450703,80.9493484 C352.75757,81.0461577 353.086272,81.0029162 353.363043,80.8305956 C353.639814,80.658275 353.841639,80.3704286 353.921896,80.0335322" id="Fill-384" fill="#FFC713"></path>
                    <path d="M111.200986,28.4903877 L113.75963,24.9640063 C114.154833,24.4199468 114.052487,23.6563873 113.527811,23.239275 C112.828037,22.6827083 112.13073,22.0754878 111.47658,21.3838443 C111.032054,20.9142021 110.306386,20.8704272 109.808837,21.2806606 L106.453623,24.0522375 C106.189743,24.2704867 106.026977,24.5906689 106.002931,24.9358653 C105.979503,25.2804364 106.097262,25.6200046 106.329082,25.8732737 C107.358705,26.9995395 108.434568,27.9344464 109.450011,28.7367779 C109.712657,28.9437707 110.047439,29.0344473 110.377288,28.988171 C110.706521,28.9418946 111.003693,28.7624175 111.200986,28.4903877" id="Fill-386" fill="#1D253C"></path>
                    <path d="M217.142309,42.4317893 L219.125724,46.332411 C219.43211,46.9348895 220.136018,47.1719613 220.715813,46.867245 C221.489873,46.4613781 222.307702,46.0789022 223.179493,45.7741859 C223.771879,45.566827 224.113641,44.9137732 223.965544,44.2746276 L222.96904,39.9643457 C222.890495,39.6248589 222.681241,39.3353152 222.392842,39.1633591 C222.103844,38.991403 221.760884,38.9534715 221.444904,39.0577831 C220.038886,39.5218117 218.779765,40.1116464 217.660947,40.7033776 C217.371948,40.856368 217.153701,41.126946 217.055969,41.4518924 C216.958237,41.777471 216.989415,42.1308661 217.142309,42.4317893" id="Fill-387" fill="#1D253C"></path>
                    <path d="M507.142309,32.4317893 L509.125724,36.332411 C509.43211,36.9348895 510.136018,37.1719613 510.715813,36.867245 C511.489873,36.4613781 512.307702,36.0789022 513.179493,35.7741859 C513.771879,35.566827 514.113641,34.9137732 513.965544,34.2746276 L512.96904,29.9643457 C512.890495,29.6248589 512.681241,29.3353152 512.392842,29.1633591 C512.103844,28.991403 511.760884,28.9534715 511.444904,29.0577831 C510.038886,29.5218117 508.779765,30.1116464 507.660947,30.7033776 C507.371948,30.856368 507.153701,31.126946 507.055969,31.4518924 C506.958237,31.777471 506.989415,32.1308661 507.142309,32.4317893" id="Fill-387" fill="#1D253C"></path>
                    <path d="M476.869564,42.8326841 L476.999364,38.6099698 C477.019592,37.9576757 476.554899,37.4073591 475.948044,37.3657233 C475.139466,37.3102089 474.306726,37.2136621 473.463872,37.0253959 C472.890731,36.8974715 472.322647,37.2643492 472.15801,37.8665597 L471.045442,41.9293684 C470.957785,42.249783 470.998242,42.5943343 471.155575,42.8821644 C471.312908,43.169391 471.574193,43.3739495 471.877058,43.4475664 C473.223939,43.7740151 474.507325,43.9218524 475.678331,43.997883 C475.981196,44.0171923 476.278443,43.9037499 476.503204,43.6847094 C476.726841,43.4650655 476.858888,43.1573226 476.869564,42.8326841" id="Fill-388" fill="#80D0C7"></path>
                    <path d="M469.832699,80.0668372 L470.954926,75.7421619 C471.128116,75.0741591 470.787587,74.3766101 470.184346,74.1659324 C469.380415,73.8852427 468.561272,73.5544529 467.75383,73.1273166 C467.205589,72.8369923 466.545594,73.0585894 466.237245,73.635384 L464.160716,77.5239307 C463.996302,77.8296704 463.956515,78.1970719 464.048376,78.5381386 C464.139652,78.8779208 464.35614,79.161822 464.645181,79.3217572 C465.928896,80.0308678 467.190962,80.5389353 468.355901,80.9410215 C468.657229,81.0450758 468.984886,81.010391 469.262225,80.8453173 C469.540733,80.6808858 469.746104,80.4001962 469.832699,80.0668372" id="Fill-389" fill="#0093E9"></path>
                    <path d="M82.6290039,41.3947963 L79.4887925,38.3602754 C79.0042665,37.8912595 78.2219125,37.8784013 77.7215108,38.33211 C77.0534618,38.9358302 76.3352456,39.5309784 75.538921,40.070408 C74.9985126,40.4365588 74.8403907,41.1425319 75.1750502,41.6917581 L77.4332083,45.3967392 C77.611016,45.6881903 77.9075739,45.8957574 78.2498537,45.9698448 C78.5921336,46.0445445 78.9509242,45.9790292 79.2417668,45.7892186 C80.5327779,44.9454797 81.6396309,44.0282658 82.6029678,43.1502385 C82.8518986,42.9230781 82.9947798,42.6083598 82.99986,42.2777219 C83.0049402,41.947084 82.8715844,41.628692 82.6290039,41.3947963" id="Fill-390" fill="#A2E0EB"></path>
                    <path d="M532.629004,21.3947963 L529.488793,18.3602754 C529.004267,17.8912595 528.221913,17.8784013 527.721511,18.33211 C527.053462,18.9358302 526.335246,19.5309784 525.538921,20.070408 C524.998513,20.4365588 524.840391,21.1425319 525.17505,21.6917581 L527.433208,25.3967392 C527.611016,25.6881903 527.907574,25.8957574 528.249854,25.9698448 C528.592134,26.0445445 528.950924,25.9790292 529.241767,25.7892186 C530.532778,24.9454797 531.639631,24.0282658 532.602968,23.1502385 C532.851899,22.9230781 532.99478,22.6083598 532.99986,22.2777219 C533.00494,21.947084 532.871584,21.628692 532.629004,21.3947963" id="Fill-390" fill="#A2E0EB"></path>
                    <path d="M352.617273,28.7224763 C352.29404,28.0800964 351.512896,27.8179005 350.865775,28.1338466 L346.736024,30.1527547 C346.420676,30.3061393 346.180223,30.580134 346.068537,30.9111563 C345.956851,31.2434896 345.982473,31.6059754 346.13949,31.9179884 C347.855511,35.3265347 349.833009,38.7776879 352.759836,41.626446 C353.019999,41.879465 353.372795,42.0144959 353.735446,41.9987641 C354.098096,41.9830324 354.437753,41.8185045 354.674921,41.5445098 L357.681243,38.0579602 C358.128643,37.5388124 358.102364,36.7666456 357.619487,36.2802722 C355.551984,34.2004035 354.036998,31.5430483 352.617273,28.7224763" id="Fill-391" fill="#0093E9"></path>
                    <path d="M632.617273,18.7224763 C632.29404,18.0800964 631.512896,17.8179005 630.865775,18.1338466 L626.736024,20.1527547 C626.420676,20.3061393 626.180223,20.580134 626.068537,20.9111563 C625.956851,21.2434896 625.982473,21.6059754 626.13949,21.9179884 C627.855511,25.3265347 629.833009,28.7776879 632.759836,31.626446 C633.019999,31.879465 633.372795,32.0144959 633.735446,31.9987641 C634.098096,31.9830324 634.437753,31.8185045 634.674921,31.5445098 L637.681243,28.0579602 C638.128643,27.5388124 638.102364,26.7666456 637.619487,26.2802722 C635.551984,24.2004035 634.036998,21.5430483 632.617273,18.7224763" id="Fill-391" fill="#0093E9" transform="translate(632.000000, 25.000000) scale(-1, 1) translate(-632.000000, -25.000000) "></path>
                    <path d="M257.617273,5.72247628 C257.29404,5.0800964 256.512896,4.81790053 255.865775,5.13384655 L251.736024,7.15275474 C251.420676,7.30613933 251.180223,7.58013401 251.068537,7.9111563 C250.956851,8.24348956 250.982473,8.60597535 251.13949,8.91798844 C252.855511,12.3265347 254.833009,15.7776879 257.759836,18.626446 C258.019999,18.879465 258.372795,19.0144959 258.735446,18.9987641 C259.098096,18.9830324 259.437753,18.8185045 259.674921,18.5445098 L262.681243,15.0579602 C263.128643,14.5388124 263.102364,13.7666456 262.619487,13.2802722 C260.551984,11.2004035 259.036998,8.54304834 257.617273,5.72247628" id="Fill-391-Copy" fill="#0093E9"></path>
                    <path d="M314.171997,0.271775003 C313.914612,0.0592126345 313.588024,-0.0344698682 313.265686,0.0114022538 L309.053433,0.612262444 C308.397222,0.705944947 307.932229,1.34104771 308.008109,2.04075909 C308.221787,4.00809165 308.322556,5.73443404 308.322556,7.3968139 C308.322556,8.32007112 308.291597,9.21554663 308.227858,10.1052074 C308.178687,10.7984579 308.654,11.4090094 309.302926,11.4865397 L313.52732,11.9917791 C313.853908,12.0311904 314.18171,11.9278166 314.435452,11.7049169 C314.689195,11.4826632 314.847633,11.1596201 314.873736,10.8113796 C314.958721,9.68718957 315,8.55976911 315,7.3968139 C315,5.43271178 314.882841,3.41886101 314.632741,1.14269924 C314.594497,0.798335277 314.428775,0.484983457 314.171997,0.271775003" id="Fill-392" fill="#1D253C"></path>
                    <path d="M261.129869,66.13088 C260.818401,66.2807185 260.582696,66.5463986 260.474557,66.8668515 L259.064858,71.0566638 C258.844694,71.708902 259.202784,72.4121357 259.8704,72.6375231 C261.76705,73.2777994 262.524027,73.6763195 264.642136,74.8334757 C265.24953,75.1658906 266.01622,74.9877213 266.387261,74.4141797 L268.80065,70.6820675 C268.987789,70.3930932 269.046068,70.0430503 268.963183,69.7125241 C268.880297,69.3807389 268.664018,69.0936533 268.359026,68.924298 C265.95017,67.5839358 264.417439,66.8385207 262.129026,66.0691818 C261.800722,65.9590064 261.440689,65.9810415 261.129869,66.13088" id="Fill-393" fill="#FFC713"></path>
                    <path d="M451.129869,1.13087999 C450.818401,1.2807185 450.582696,1.54639856 450.474557,1.86685151 L449.064858,6.05666377 C448.844694,6.70890201 449.202784,7.41213571 449.8704,7.63752305 C451.76705,8.2777994 452.524027,8.67631948 454.642136,9.83347574 C455.24953,10.1658906 456.01622,9.98772127 456.387261,9.41417973 L458.80065,5.68206748 C458.987789,5.3930932 459.046068,5.04305028 458.963183,4.71252415 C458.880297,4.38073887 458.664018,4.09365331 458.359026,3.92429801 C455.95017,2.58393583 454.417439,1.8385207 452.129026,1.06918177 C451.800722,0.959006395 451.440689,0.981041471 451.129869,1.13087999" id="Fill-393" fill="#FFC713"></path>
                    <path d="M49.3125786,136.30963 C49.5367148,136.560483 49.85509,136.713231 50.1957516,136.733721 L54.6460011,136.997614 C55.3387857,137.039216 55.937968,136.531921 55.9927285,135.856976 C56.1487324,133.937698 56.3505823,133.135463 56.9567688,130.882128 C57.1306017,130.235746 56.7663804,129.568873 56.1124376,129.367693 L51.8608542,128.058163 C51.5316542,127.956332 51.1750739,127.989241 50.8713439,128.148818 C50.5682506,128.309017 50.3402939,128.580982 50.2505121,128.905725 C49.5373515,131.475111 49.1884122,133.082685 49.0037546,135.397491 C48.9776478,135.729065 49.0884424,136.058155 49.3125786,136.30963" id="Fill-394" fill="#80D0C7"></path>
                    <path d="M41.3125786,109.30963 C41.5367148,109.560483 41.85509,109.713231 42.1957516,109.733721 L46.6460011,109.997614 C47.3387857,110.039216 47.937968,109.531921 47.9927285,108.856976 C48.1487324,106.937698 48.3505823,106.135463 48.9567688,103.882128 C49.1306017,103.235746 48.7663804,102.568873 48.1124376,102.367693 L43.8608542,101.058163 C43.5316542,100.956332 43.1750739,100.989241 42.8713439,101.148818 C42.5682506,101.309017 42.3402939,101.580982 42.2505121,101.905725 C41.5373515,104.475111 41.1884122,106.082685 41.0037546,108.397491 C40.9776478,108.729065 41.0884424,109.058155 41.3125786,109.30963" id="Fill-394" fill="#FFC713"></path>
                    <path d="M445.271326,104.647915 C445.06157,104.910509 444.966801,105.246079 445.010395,105.577284 L445.568269,109.909764 C445.654825,110.584648 446.272719,111.066173 446.957584,110.992572 C448.904774,110.78362 449.743797,110.827906 452.108603,110.990077 C452.78715,111.036234 453.386722,110.560946 453.46696,109.894171 L453.991349,105.557324 C454.031152,105.221754 453.932592,104.884312 453.716519,104.621718 C453.501077,104.359749 453.187075,104.191963 452.845906,104.165766 C450.145618,103.959933 448.47389,103.925004 446.125511,104.180112 C445.788765,104.216913 445.481081,104.385322 445.271326,104.647915" id="Fill-395" fill="#A2E0EB"></path>
                    <path d="M113.252309,58.8747886 C113.058101,58.2679582 112.378709,57.8972181 111.690582,58.0252261 L107.0726,58.8796191 C106.709048,58.947246 106.392536,59.1477114 106.199,59.4315027 C106.004792,59.7158978 105.949688,60.0588627 106.047128,60.3806941 C107.321912,64.5904668 110.115414,68.6752506 113.775125,71.6828349 C114.048628,71.9068489 114.41218,72.0209692 114.781108,71.9968168 C115.150708,71.9720605 115.492756,71.8120505 115.72594,71.554223 L118.699538,68.2682817 C119.144402,67.7761755 119.089298,67.0588476 118.573874,66.625311 C116.079411,64.5264628 114.168916,61.7434963 113.252309,58.8747886" id="Fill-396" fill="#80D0C7"></path>
                    <path d="M639.686739,154.338343 C639.095544,154.652381 638.840992,155.377535 639.102544,156.004308 L640.854492,160.208638 C640.99195,160.540267 641.257956,160.797622 641.588236,160.920762 C641.917879,161.043901 642.283797,161.023052 642.597531,160.861472 C646.705987,158.747905 650.40016,155.218561 652.81776,151.095672 C652.998491,150.78815 653.047492,150.417428 652.952672,150.072117 C652.857852,149.726154 652.628119,149.436223 652.317567,149.269431 L648.363751,147.148697 C647.772556,146.831401 647.041358,147.037285 646.690714,147.619754 C644.992221,150.440232 642.476619,152.8522 639.686739,154.338343" id="Fill-397" fill="#A2E0EB"></path>
                    <path d="M644.985528,67.1655459 C645.201134,67.7698691 645.880062,68.1179787 646.544573,67.9633985 L651.006759,66.9312413 C651.357364,66.8502997 651.656852,66.636687 651.833138,66.3433499 C652.009423,66.0500127 652.048088,65.7025117 651.939302,65.3817883 C650.509358,61.1898667 647.606218,57.1793029 643.906844,54.2867066 C643.630292,54.0706595 643.270513,53.9696347 642.912043,54.0079754 C642.553574,54.0457076 642.227217,54.2197624 642.011611,54.4887562 L639.260509,57.9083857 C638.848302,58.4195956 638.934152,59.1401582 639.455144,59.5576463 C641.978844,61.5787514 643.965169,64.3106817 644.985528,67.1655459" id="Fill-398" fill="#FFC713"></path>
                    <path d="M390.798162,57 C386.824523,57 382.750834,58.5779929 379.436887,61.3674176 C379.168363,61.5927575 379.010863,61.9138821 379.000536,62.2540409 C378.990208,62.5941996 379.129634,62.9233063 379.384602,63.1621543 L382.612699,66.191041 C383.08778,66.6368086 383.841713,66.6632108 384.35165,66.2536695 C386.317813,64.6738346 388.660943,63.7540551 390.798162,63.7540551 C392.32991,63.7540551 394.899607,64.2108748 394.899607,67.2723038 C394.899607,68.033056 394.747917,68.8816109 394.446473,69.8044605 C394.247016,70.4147814 394.574925,71.0686968 395.199114,71.3069307 L399.401256,72.9119398 C399.732393,73.0384248 400.10355,73.0279868 400.426295,72.8849236 C400.749685,72.7418604 400.996908,72.4784523 401.108578,72.1567136 C401.700493,70.4534638 402,68.8152984 402,67.2723038 C402,61.2237405 397.393781,57 390.798162,57" id="Fill-399" fill="#80D0C7"></path>
                    <path d="M699.986375,119.996195 C699.930564,119.605774 699.70796,119.260782 699.378866,119.057341 L695.425248,116.61935 C694.934494,116.315835 694.30774,116.384307 693.888835,116.786579 C691.563366,119.017839 688.457823,119.773662 686.861749,116.686505 C686.489032,115.965576 686.206769,115.089268 686.018806,114.07075 C685.894995,113.397224 685.286845,112.93504 684.622884,113.007462 L680.147078,113.497299 C679.794889,113.535485 679.473493,113.723124 679.260513,114.012812 C679.046249,114.303159 678.959003,114.670537 679.018022,115.028697 C679.333003,116.92484 679.87187,118.619517 680.628209,120.081127 C684.688959,127.933659 693.819552,127.672281 699.666262,121.07331 C699.92479,120.780988 700.042186,120.385958 699.986375,119.996195" id="Fill-400" fill="#80D0C7"></path>
                    <path d="M65.4711052,76.162455 C65.1416313,76.3507051 64.9096163,76.6822598 64.8410806,77.0659254 L64.0211684,81.6712143 C63.9186794,82.2437813 64.1953369,82.8150456 64.6996081,83.0742966 C67.4951063,84.5105996 69.2393061,87.2001665 67.0279324,89.7900715 C66.5117147,90.3952078 65.8251011,90.9677748 64.9787806,91.499956 C64.419178,91.8517037 64.2148287,92.5903738 64.5084629,93.1968128 L66.486564,97.2816455 C66.6418695,97.6034294 66.9197845,97.8437903 67.253031,97.9460577 C67.5856488,98.0483251 67.944046,98.0040309 68.2439679,97.822946 C69.8316047,96.8654107 71.1620758,95.7639194 72.2089729,94.5373623 C77.8332941,87.9492587 74.4574439,79.3594504 66.5450393,76.0927568 C66.1948161,75.9481494 65.8012079,75.9735534 65.4711052,76.162455" id="Fill-401" fill="#0093E9"></path>
                    <path d="M152.471105,56.162455 C152.141631,56.3507051 151.909616,56.6822598 151.841081,57.0659254 L151.021168,61.6712143 C150.918679,62.2437813 151.195337,62.8150456 151.699608,63.0742966 C154.495106,64.5105996 156.239306,67.2001665 154.027932,69.7900715 C153.511715,70.3952078 152.825101,70.9677748 151.978781,71.499956 C151.419178,71.8517037 151.214829,72.5903738 151.508463,73.1968128 L153.486564,77.2816455 C153.641869,77.6034294 153.919785,77.8437903 154.253031,77.9460577 C154.585649,78.0483251 154.944046,78.0040309 155.243968,77.822946 C156.831605,76.8654107 158.162076,75.7639194 159.208973,74.5373623 C164.833294,67.9492587 161.457444,59.3594504 153.545039,56.0927568 C153.194816,55.9481494 152.801208,55.9735534 152.471105,56.162455" id="Fill-401-Copy" fill="#0093E9" transform="translate(156.500000, 67.000000) scale(-1, 1) translate(-156.500000, -67.000000) "></path>
                    <path d="M1.47110523,131.162455 C1.14163129,131.350705 0.909616252,131.68226 0.841080644,132.065925 L0.0211684146,136.671214 C-0.0813206141,137.243781 0.195336887,137.815046 0.699608058,138.074297 C3.49510635,139.5106 5.23930614,142.200166 3.02793243,144.790072 C2.51171469,145.395208 1.82510107,145.967775 0.978780627,146.499956 C0.419177955,146.851704 0.214828665,147.590374 0.508462876,148.196813 L2.48656401,152.281645 C2.64186947,152.603429 2.9197845,152.84379 3.25303104,152.946058 C3.5856488,153.048325 3.94404602,153.004031 4.2439679,152.822946 C5.8316047,151.865411 7.16207577,150.763919 8.2089729,149.537362 C13.8332941,142.949259 10.4574439,134.35945 2.54503934,131.092757 C2.1948161,130.948149 1.80120792,130.973553 1.47110523,131.162455" id="Fill-401" fill="#0093E9" transform="translate(5.500000, 142.000000) scale(-1, 1) translate(-5.500000, -142.000000) "></path>
                    <path d="M381.725442,18.899793 C381.518132,18.6442484 381.215236,18.482076 380.88627,18.44829 L376.564411,18.0066158 C375.886619,17.937201 375.278964,18.4218756 375.20324,19.0914513 C374.714137,23.3994649 373.997861,27.8598222 373.024621,32.6574247 C372.889931,33.3196289 373.32131,33.9652474 373.989792,34.102234 L378.243996,34.9745253 C378.567996,35.0408686 378.90503,34.9763682 379.180616,34.795767 C379.456202,34.6157802 379.647995,34.3338212 379.713168,34.013162 C380.731098,28.9999439 381.48027,24.3288852 381.992339,19.8070988 C382.028959,19.4815253 381.933373,19.1547232 381.725442,18.899793" id="Fill-402" fill="#FFC713"></path>
                    <path d="M216.725442,4.89979296 C216.518132,4.64424845 216.215236,4.48207597 215.88627,4.44829004 L211.564411,4.00661576 C210.886619,3.93720103 210.278964,4.42187558 210.20324,5.09145134 C209.714137,9.39946487 208.997861,13.8598222 208.024621,18.6574247 C207.889931,19.3196289 208.32131,19.9652474 208.989792,20.102234 L213.243996,20.9745253 C213.567996,21.0408686 213.90503,20.9763682 214.180616,20.795767 C214.456202,20.6157802 214.647995,20.3338212 214.713168,20.013162 C215.731098,14.9999439 216.48027,10.3288852 216.992339,5.80709882 C217.028959,5.48152528 216.933373,5.15472317 216.725442,4.89979296" id="Fill-402-Copy" fill="#FFC713"></path>
                    <path d="M582.725442,71.899793 C582.518132,71.6442484 582.215236,71.482076 581.88627,71.44829 L577.564411,71.0066158 C576.886619,70.937201 576.278964,71.4218756 576.20324,72.0914513 C575.714137,76.3994649 574.997861,80.8598222 574.024621,85.6574247 C573.889931,86.3196289 574.32131,86.9652474 574.989792,87.102234 L579.243996,87.9745253 C579.567996,88.0408686 579.90503,87.9763682 580.180616,87.795767 C580.456202,87.6157802 580.647995,87.3338212 580.713168,87.013162 C581.731098,81.9999439 582.48027,77.3288852 582.992339,72.8070988 C583.028959,72.4815253 582.933373,72.1547232 582.725442,71.899793" id="Fill-402-Copy" fill="#FFC713"></path>
                    <g id="ribbon" transform="translate(619.000000, 88.000000)" fill="#1D253C">
                        <path d="M7.93340202,31.4889205 C7.16147288,29.278433 5.51010708,23.8230322 6.98833574,21.0326852 C6.75644448,21.0127109 6.52205305,21 6.28391135,21 C5.31759358,21 3.71810642,21.9617921 2.53114818,22.781343 C0.97916435,23.852691 0.0372232966,25.5783481 0.00159579826,27.423851 C-0.0365318754,29.3825414 0.608513358,31.6686891 1.94235689,34.3192161 C2.09111733,34.6151987 2.35801104,34.8397581 2.6811587,34.9408401 C3.00493141,35.0425273 3.35745613,35.0122633 3.65685212,34.8567059 L7.34148551,32.9434116 C7.88027329,32.6637716 8.12966578,32.0500163 7.93340202,31.4889205" id="Fill-403"></path>
                        <path d="M25.6641877,32.910112 C23.6120652,32.910112 21.2221631,32.0381947 19.1070647,29.6358046 C18.2222221,28.8759819 17.3004845,27.9569339 16.5148765,27.1703613 C14.7261076,25.3813068 12.7853061,23.4438543 10.5582506,22.257308 L10.549345,22.2732305 C10.1218724,22.0477676 9.85215765,22 9.70139725,22 C9.61234048,22 9.52837267,22.012738 9.41259886,22.1713263 C9.19440977,22.4713066 8.25804141,24.2699147 10.2344657,30.8121605 C10.6994692,31.2599019 11.1542949,31.7121015 11.5703173,32.1273608 C13.6631514,34.220854 15.9633606,36.5207031 18.6884979,37.5779586 C20.2940643,38.2014845 22.0866499,38.1314254 23.6394184,37.3856145 C25.6164787,36.4359953 28.4961931,34.6335658 29,32.0222722 C28.6787595,32.2139794 28.3403438,32.3878533 27.9675776,32.5209656 C27.2843849,32.7648986 26.5019575,32.9094751 25.6641877,32.910112" id="Fill-404"></path>
                        <path d="M21.9353764,28.6472227 C23.8587608,30.0926133 25.8347768,30.2229916 27.2011992,29.764484 C28.2944704,29.3989256 29,28.6478465 29,27.8506048 C29,27.2748191 28.9273817,26.5636644 28.8261159,25.8649862 C28.5163225,24.594889 28.1105929,23.3222965 27.709527,22.0696663 C27.6668887,21.935545 24.6242505,14.2725421 27.520986,10.2382992 C26.8960693,10.0898301 26.2431712,10 25.550966,10 C21.5096602,10 19,12.3549199 19,16.1452493 C19,18.7540638 19.8587608,21.4402321 20.6888741,24.0378179 C21.2018654,25.6416587 21.7241839,27.2841764 21.9353764,28.6472227" id="Fill-405"></path>
                        <path d="M37.6282115,18.450909 C37.3640166,18.3324031 37.0553719,18.1151423 36.7266934,17.83803 C36.6878781,17.8057102 36.640924,17.776383 36.6033608,17.7434647 L36.6102474,17.736881 C35.832062,17.0593624 34.9587163,16.0891701 34.2863341,15.3410268 C33.3898244,14.3439014 32.4025369,13.2516121 31.2812738,12.2981783 L31.2587358,12.3185278 C31.1347771,12.1946353 31.0033057,12.0701442 30.8636956,11.9546309 C30.4799244,11.6374181 30.0642244,11.3573133 29.6391336,11.0963609 C29.5589986,11.0562604 29.4838721,11.022145 29.4187625,11 C28.8183765,11.491979 27.0560338,13.8459372 28.65122,19.1757102 C28.7939604,19.3331196 28.9329444,19.4875364 29.0631637,19.6323769 C30.5337651,21.2681175 32.2447713,23.1707956 34.4084146,24.2559027 C36.2533964,25.1806078 38.4402038,25.2464444 40.3434087,24.4366541 C42.1214027,23.6801316 44.3689373,22.165291 45,19.2403498 C44.2117977,19.5587596 43.3303134,19.7101838 42.4231608,19.7101838 C40.7227975,19.7101838 38.9573246,19.2104241 37.6282115,18.450909" id="Fill-406"></path>
                        <path d="M54.5751745,4.63386799 C53.6920673,3.88077777 52.8159688,3.18501413 51.9398704,2.57373176 C51.464441,2.295547 50.0907187,1.6758165 49.2257175,2.21046228 C48.2526642,2.81329652 47.8338892,4.93739714 48.0599226,8.0583768 C48.8326414,8.56224726 49.6877134,9.15844368 50.4475828,9.75464011 C50.9405342,10.1408402 51.6367404,10.0629968 52.0391616,9.5784363 L54.7182705,6.35125161 C54.9226935,6.10504904 55.0225687,5.78462364 54.9957017,5.46118104 C54.9688347,5.13834189 54.8169776,4.84024367 54.5751745,4.63386799" id="Fill-407"></path>
                        <path d="M39.6402516,2.85441787 C38.5798742,4.3483815 38.0050314,6.13386553 38,7.96323434 C38,7.97639978 38,7.98956521 38,8.00273065 C38,8.94562671 38.127673,10.1041852 38.2754717,11.4458059 C38.4522013,13.0494815 38.6522013,14.8663118 38.6522013,16.5088568 C38.6522013,16.5784455 38.6503145,16.6354958 38.6496855,16.7013229 C40.0119497,17.7946811 42.7886792,18.4473106 44.4207547,17.6392036 C44.9685535,17.3671179 45.6465409,16.8179311 45.5383648,15.1622207 C45.4352201,13.5804874 45.2974843,12.0106658 45.1522013,10.6934952 C44.7283019,6.84041064 44.5295597,2.32529269 47,0.369284911 C43.0490566,-0.641319108 41.3113208,0.499058504 39.6402516,2.85441787" id="Fill-408"></path>
                    </g>
                    <g id="ribbon" transform="translate(26.500000, 65.000000) scale(-1, 1) rotate(-88.000000) translate(-26.500000, -65.000000) translate(-1.000000, 46.000000)" fill="#1D253C">
                        <path d="M7.93340202,31.4889205 C7.16147288,29.278433 5.51010708,23.8230322 6.98833574,21.0326852 C6.75644448,21.0127109 6.52205305,21 6.28391135,21 C5.31759358,21 3.71810642,21.9617921 2.53114818,22.781343 C0.97916435,23.852691 0.0372232966,25.5783481 0.00159579826,27.423851 C-0.0365318754,29.3825414 0.608513358,31.6686891 1.94235689,34.3192161 C2.09111733,34.6151987 2.35801104,34.8397581 2.6811587,34.9408401 C3.00493141,35.0425273 3.35745613,35.0122633 3.65685212,34.8567059 L7.34148551,32.9434116 C7.88027329,32.6637716 8.12966578,32.0500163 7.93340202,31.4889205" id="Fill-403"></path>
                        <path d="M25.6641877,32.910112 C23.6120652,32.910112 21.2221631,32.0381947 19.1070647,29.6358046 C18.2222221,28.8759819 17.3004845,27.9569339 16.5148765,27.1703613 C14.7261076,25.3813068 12.7853061,23.4438543 10.5582506,22.257308 L10.549345,22.2732305 C10.1218724,22.0477676 9.85215765,22 9.70139725,22 C9.61234048,22 9.52837267,22.012738 9.41259886,22.1713263 C9.19440977,22.4713066 8.25804141,24.2699147 10.2344657,30.8121605 C10.6994692,31.2599019 11.1542949,31.7121015 11.5703173,32.1273608 C13.6631514,34.220854 15.9633606,36.5207031 18.6884979,37.5779586 C20.2940643,38.2014845 22.0866499,38.1314254 23.6394184,37.3856145 C25.6164787,36.4359953 28.4961931,34.6335658 29,32.0222722 C28.6787595,32.2139794 28.3403438,32.3878533 27.9675776,32.5209656 C27.2843849,32.7648986 26.5019575,32.9094751 25.6641877,32.910112" id="Fill-404"></path>
                        <path d="M21.9353764,28.6472227 C23.8587608,30.0926133 25.8347768,30.2229916 27.2011992,29.764484 C28.2944704,29.3989256 29,28.6478465 29,27.8506048 C29,27.2748191 28.9273817,26.5636644 28.8261159,25.8649862 C28.5163225,24.594889 28.1105929,23.3222965 27.709527,22.0696663 C27.6668887,21.935545 24.6242505,14.2725421 27.520986,10.2382992 C26.8960693,10.0898301 26.2431712,10 25.550966,10 C21.5096602,10 19,12.3549199 19,16.1452493 C19,18.7540638 19.8587608,21.4402321 20.6888741,24.0378179 C21.2018654,25.6416587 21.7241839,27.2841764 21.9353764,28.6472227" id="Fill-405"></path>
                        <path d="M37.6282115,18.450909 C37.3640166,18.3324031 37.0553719,18.1151423 36.7266934,17.83803 C36.6878781,17.8057102 36.640924,17.776383 36.6033608,17.7434647 L36.6102474,17.736881 C35.832062,17.0593624 34.9587163,16.0891701 34.2863341,15.3410268 C33.3898244,14.3439014 32.4025369,13.2516121 31.2812738,12.2981783 L31.2587358,12.3185278 C31.1347771,12.1946353 31.0033057,12.0701442 30.8636956,11.9546309 C30.4799244,11.6374181 30.0642244,11.3573133 29.6391336,11.0963609 C29.5589986,11.0562604 29.4838721,11.022145 29.4187625,11 C28.8183765,11.491979 27.0560338,13.8459372 28.65122,19.1757102 C28.7939604,19.3331196 28.9329444,19.4875364 29.0631637,19.6323769 C30.5337651,21.2681175 32.2447713,23.1707956 34.4084146,24.2559027 C36.2533964,25.1806078 38.4402038,25.2464444 40.3434087,24.4366541 C42.1214027,23.6801316 44.3689373,22.165291 45,19.2403498 C44.2117977,19.5587596 43.3303134,19.7101838 42.4231608,19.7101838 C40.7227975,19.7101838 38.9573246,19.2104241 37.6282115,18.450909" id="Fill-406"></path>
                        <path d="M54.5751745,4.63386799 C53.6920673,3.88077777 52.8159688,3.18501413 51.9398704,2.57373176 C51.464441,2.295547 50.0907187,1.6758165 49.2257175,2.21046228 C48.2526642,2.81329652 47.8338892,4.93739714 48.0599226,8.0583768 C48.8326414,8.56224726 49.6877134,9.15844368 50.4475828,9.75464011 C50.9405342,10.1408402 51.6367404,10.0629968 52.0391616,9.5784363 L54.7182705,6.35125161 C54.9226935,6.10504904 55.0225687,5.78462364 54.9957017,5.46118104 C54.9688347,5.13834189 54.8169776,4.84024367 54.5751745,4.63386799" id="Fill-407"></path>
                        <path d="M39.6402516,2.85441787 C38.5798742,4.3483815 38.0050314,6.13386553 38,7.96323434 C38,7.97639978 38,7.98956521 38,8.00273065 C38,8.94562671 38.127673,10.1041852 38.2754717,11.4458059 C38.4522013,13.0494815 38.6522013,14.8663118 38.6522013,16.5088568 C38.6522013,16.5784455 38.6503145,16.6354958 38.6496855,16.7013229 C40.0119497,17.7946811 42.7886792,18.4473106 44.4207547,17.6392036 C44.9685535,17.3671179 45.6465409,16.8179311 45.5383648,15.1622207 C45.4352201,13.5804874 45.2974843,12.0106658 45.1522013,10.6934952 C44.7283019,6.84041064 44.5295597,2.32529269 47,0.369284911 C43.0490566,-0.641319108 41.3113208,0.499058504 39.6402516,2.85441787" id="Fill-408"></path>
                    </g>
                    <g id="ribbon" transform="translate(292.000000, 32.000000)" fill="#A2E0EB">
                        <path d="M22.927716,17.5800048 C21.5996945,19.6644693 18.167729,24.5983516 15,25.211353 C15.1243466,25.4152539 15.2567757,25.615908 15.4010177,25.8113671 C15.9885553,26.6068403 17.7424637,27.2919214 19.1301715,27.7308927 C20.9443881,28.3055816 22.9208769,27.9484303 24.442879,26.7685325 C26.0587627,25.5159056 27.5260523,23.4866371 28.8708606,20.6528043 C29.0206982,20.3365631 29.0412154,19.9696713 28.9268165,19.637196 C28.8130394,19.3047206 28.574294,19.0345844 28.2652927,18.8904252 L24.4702352,17.11376 C23.9150278,16.8540137 23.2646952,17.0514209 22.927716,17.5800048" id="Fill-409"></path>
                        <path d="M13.6968634,2.6000176 C14.9310213,4.22306499 15.689925,6.64429072 15.0919439,9.7817163 C15.0330851,10.9453027 14.8715362,12.2340812 14.7325291,13.3347539 C14.4156931,15.8405001 14.0744368,18.5565942 14.4908321,21.0413692 L14.5089906,21.0381918 C14.589765,21.51354 14.7149967,21.7556626 14.8057896,21.8751351 C14.8596392,21.9463103 14.9197504,22.0047756 15.1132333,21.9996916 C15.4776574,21.9888883 17.4406634,21.6336481 21.3441337,16.0819872 C21.412385,15.4407754 21.4906547,14.8059186 21.5639153,14.2238076 C21.9346009,11.2922815 22.3416038,8.07160647 21.5257196,5.27162731 C21.0448301,3.62125376 19.912736,2.24604838 18.3980593,1.47265423 C16.4701182,0.488276628 13.3355701,-0.690561624 11,0.502892951 C11.3425085,0.640159292 11.6812601,0.802209833 12.0087409,1.01573525 C12.6098528,1.40719852 13.1928061,1.93719912 13.6968634,2.6000176" id="Fill-410"></path>
                        <path d="M6.53965413,4.61983676 C5.66950671,5.59645033 4.8544402,6.64394715 4.05314393,7.67508629 C4.00527599,7.73748778 2.55874605,9.87428435 0.400754208,11.7984312 C-0.114645849,12.2582635 -0.135629058,13.0149573 0.353541989,13.4978115 L3.51217059,16.6160684 C4.00462026,17.1025576 4.82952264,17.1304263 5.35934866,16.6784699 C7.07472595,15.2141553 8.51338718,13.3621034 9.91270489,11.5615479 C10.9389149,10.2408174 11.9920097,8.8904007 12.998548,7.92953896 C13.0451045,5.68732628 11.965125,4.18726722 10.7625248,3.47540559 C9.8012316,2.90531045 8.75075972,2.84290896 8.08782148,3.31546391 C7.60848631,3.6571575 7.06029999,4.13213581 6.53965413,4.61983676" id="Fill-411"></path>
                    </g>
                    <g id="ribbon" transform="translate(516.500000, 66.000000) rotate(100.000000) translate(-516.500000, -66.000000) translate(502.000000, 52.000000)" fill="#A2E0EB">
                        <path d="M22.927716,17.5800048 C21.5996945,19.6644693 18.167729,24.5983516 15,25.211353 C15.1243466,25.4152539 15.2567757,25.615908 15.4010177,25.8113671 C15.9885553,26.6068403 17.7424637,27.2919214 19.1301715,27.7308927 C20.9443881,28.3055816 22.9208769,27.9484303 24.442879,26.7685325 C26.0587627,25.5159056 27.5260523,23.4866371 28.8708606,20.6528043 C29.0206982,20.3365631 29.0412154,19.9696713 28.9268165,19.637196 C28.8130394,19.3047206 28.574294,19.0345844 28.2652927,18.8904252 L24.4702352,17.11376 C23.9150278,16.8540137 23.2646952,17.0514209 22.927716,17.5800048" id="Fill-409"></path>
                        <path d="M13.6968634,2.6000176 C14.9310213,4.22306499 15.689925,6.64429072 15.0919439,9.7817163 C15.0330851,10.9453027 14.8715362,12.2340812 14.7325291,13.3347539 C14.4156931,15.8405001 14.0744368,18.5565942 14.4908321,21.0413692 L14.5089906,21.0381918 C14.589765,21.51354 14.7149967,21.7556626 14.8057896,21.8751351 C14.8596392,21.9463103 14.9197504,22.0047756 15.1132333,21.9996916 C15.4776574,21.9888883 17.4406634,21.6336481 21.3441337,16.0819872 C21.412385,15.4407754 21.4906547,14.8059186 21.5639153,14.2238076 C21.9346009,11.2922815 22.3416038,8.07160647 21.5257196,5.27162731 C21.0448301,3.62125376 19.912736,2.24604838 18.3980593,1.47265423 C16.4701182,0.488276628 13.3355701,-0.690561624 11,0.502892951 C11.3425085,0.640159292 11.6812601,0.802209833 12.0087409,1.01573525 C12.6098528,1.40719852 13.1928061,1.93719912 13.6968634,2.6000176" id="Fill-410"></path>
                        <path d="M6.53965413,4.61983676 C5.66950671,5.59645033 4.8544402,6.64394715 4.05314393,7.67508629 C4.00527599,7.73748778 2.55874605,9.87428435 0.400754208,11.7984312 C-0.114645849,12.2582635 -0.135629058,13.0149573 0.353541989,13.4978115 L3.51217059,16.6160684 C4.00462026,17.1025576 4.82952264,17.1304263 5.35934866,16.6784699 C7.07472595,15.2141553 8.51338718,13.3621034 9.91270489,11.5615479 C10.9389149,10.2408174 11.9920097,8.8904007 12.998548,7.92953896 C13.0451045,5.68732628 11.965125,4.18726722 10.7625248,3.47540559 C9.8012316,2.90531045 8.75075972,2.84290896 8.08782148,3.31546391 C7.60848631,3.6571575 7.06029999,4.13213581 6.53965413,4.61983676" id="Fill-411"></path>
                    </g>
                </g>
            </g>
        </g>
    </g>
</svg>