<svg version="1.1" id="Layer_1" xmlns="http://www.w3.org/2000/svg" x="0" y="0" viewBox="0 0 624 383" xml:space="preserve">
  <style>
    .st0,.st1{fill-rule:evenodd;clip-rule:evenodd;fill:#ededed}.st1{fill:#fff}.st11,.st2,.st3,.st4,.st6,.st7,.st9{fill-rule:evenodd;clip-rule:evenodd;fill:#c3c3c3}.st11,.st3,.st4,.st6,.st7,.st9{fill:#b5b5b5}.st11,.st4,.st6,.st7,.st9{fill:#e6e6e6}.st11,.st6,.st7,.st9{fill:#7a7a7a}.st11,.st7,.st9{fill:#4cddd9}.st11,.st9{fill:#d6d6d6}.st11{fill:#c7c7c7}.st14{fill:#c3c3c3}
  </style>
  <path id="Fill-11" class="st0" d="M312.6 82.2h57.6v-9.6h-57.6z"/>
  <path id="Fill-23" class="st0" d="M403.3 87h134.4v-9.6H403.3z"/>
  <path id="Rectangle" class="st1" d="M373.2 121.6h135v97h-135z"/>
  <path id="Rectangle_1_" class="st1" d="M546.2 140.6h77v58h-77z"/>
  <path id="Rectangle_2_" class="st1" d="M258.2 141.6h76v57h-76z"/>
  <path id="Fill-43" class="st2" d="M497.8 208.6v-.6H383.2v-75.6h114v76.2h.6v-.6.6h.6v-76.8c0-.2-.1-.3-.2-.4-.1-.1-.3-.2-.4-.2H382.6c-.2 0-.3.1-.4.2-.1.1-.2.3-.2.4v76.8c0 .2.1.3.2.4.1.1.3.2.4.2h115.2c.2 0 .3-.1.4-.2.1-.1.2-.3.2-.4h-.6z"/>
  <path id="Fill-44" class="st2" d="M497.8 217.6H373.6v-94.8h133.2v78.8c0 .3.3.6.6.6s.6-.3.6-.6v-79.4c0-.2-.1-.3-.2-.4-.1-.1-.3-.2-.4-.2H373c-.2 0-.3.1-.4.2-.1.1-.2.3-.2.4v96c0 .2.1.3.2.4.1.1.3.2.4.2h124.8c.3 0 .6-.3.6-.6s-.3-.6-.6-.6"/>
  <path id="Fill-45" class="st2" d="M383 131.4l-9.6-9.6c-.2-.2-.6-.2-.8 0-.2.2-.2.6 0 .8l9.6 9.6c.2.2.6.2.8 0 .2-.2.2-.6 0-.8"/>
  <path id="Fill-46" class="st2" d="M373.4 218.6l9.6-9.6c.2-.2.2-.6 0-.8-.2-.2-.6-.2-.8 0l-9.6 9.6c-.2.2-.2.6 0 .8s.6.3.8 0"/>
  <path id="Fill-47" class="st2" d="M499.9 209.9l-1.7-1.7c-.2-.2-.6-.2-.8 0-.2.2-.2.6 0 .8l1.7 1.7c.2.2.6.2.8 0s.2-.6 0-.8"/>
  <path id="Fill-48" class="st2" d="M506.9 121.8l-9.6 9.6c-.2.2-.2.6 0 .8.2.2.6.2.8 0l9.6-9.6c.2-.2.2-.6 0-.8-.1-.3-.5-.3-.8 0"/>
  <path id="Fill-63" class="st2" d="M325 189.4v-.6h-57v-37.2h56.4v37.8h.6v-.6.6h.6V151c0-.2-.1-.3-.2-.4s-.3-.2-.4-.2h-57.6c-.2 0-.3.1-.4.2-.1.1-.2.3-.2.4v38.4c0 .2.1.3.2.4.1.1.3.2.4.2H325c.2 0 .3-.1.4-.2.1-.1.2-.3.2-.4h-.6z"/>
  <path id="Fill-64" class="st2" d="M613 189.4v-.6h-57v-37.2h56.4v37.8h.6v-.6.6h.6V151c0-.2-.1-.3-.2-.4s-.3-.2-.4-.2h-57.6c-.2 0-.3.1-.4.2-.1.1-.2.3-.2.4v38.4c0 .2.1.3.2.4.1.1.3.2.4.2H613c.2 0 .3-.1.4-.2.1-.1.2-.3.2-.4h-.6z"/>
  <path id="Fill-65" class="st2" d="M334.6 199v-.6h-76.2V142H334v57h.6v-.6.6h.6v-57.6c0-.2-.1-.3-.2-.4s-.3-.2-.4-.2h-76.8c-.2 0-.3.1-.4.2-.1.1-.2.3-.2.4V199c0 .2.1.3.2.4.1.1.3.2.4.2h76.8c.2 0 .3-.1.4-.2.1-.1.2-.3.2-.4h-.6"/>
  <path id="Fill-66" class="st2" d="M622.6 199v-.6h-76.2V142H622v57h.6v-.6.6h.6v-57.6c0-.2-.1-.3-.2-.4-.1-.1-.3-.2-.4-.2h-76.8c-.2 0-.3.1-.4.2-.1.1-.2.3-.2.4V199c0 .2.1.3.2.4.1.1.3.2.4.2h76.8c.2 0 .3-.1.4-.2.1-.1.2-.3.2-.4h-.6"/>
  <path id="Fill-67" class="st2" d="M555.8 150.6l-9.6-9.6c-.2-.2-.6-.2-.8 0-.2.2-.2.6 0 .8l9.6 9.6c.2.2.6.2.8 0 .2-.2.2-.6 0-.8"/>
  <path id="Fill-68" class="st2" d="M554.9 189l-9.6 9.6c-.2.2-.2.6 0 .8.2.2.6.2.8 0l9.6-9.6c.2-.2.2-.6 0-.8-.1-.3-.5-.3-.8 0"/>
  <path id="Fill-69" class="st2" d="M623 198.6l-9.6-9.6c-.2-.2-.6-.2-.8 0-.2.2-.2.6 0 .8l9.6 9.6c.2.2.6.2.8 0 .2-.2.2-.6 0-.8"/>
  <path id="Fill-70" class="st2" d="M613.4 151.4l9.6-9.6c.2-.2.2-.6 0-.8-.2-.2-.6-.2-.8 0l-9.6 9.6c-.2.2-.2.6 0 .8.2.3.6.3.8 0"/>
  <path id="Fill-71" class="st2" d="M335 198.6l-9.6-9.6c-.2-.2-.6-.2-.8 0-.2.2-.2.6 0 .8l9.6 9.6c.2.2.6.2.8 0 .2-.2.2-.6 0-.8"/>
  <path id="Fill-72" class="st2" d="M334.1 141l-9.6 9.6c-.2.2-.2.6 0 .8.2.2.6.2.8 0l9.6-9.6c.2-.2.2-.6 0-.8-.1-.3-.5-.3-.8 0"/>
  <path id="Fill-73" class="st2" d="M267.8 150.6l-9.6-9.6c-.2-.2-.6-.2-.8 0-.2.2-.2.6 0 .8l9.6 9.6c.2.2.6.2.8 0 .2-.2.2-.6 0-.8"/>
  <path id="Fill-74" class="st2" d="M266.9 189l-9.6 9.6c-.2.2-.2.6 0 .8.2.2.6.2.8 0l9.6-9.6c.2-.2.2-.6 0-.8-.1-.3-.5-.3-.8 0"/>
  <path id="Fill-82" class="st2" d="M286.6 170.2h.6c0-2.5 1-4.7 2.6-6.4 1.6-1.6 3.9-2.6 6.4-2.6s4.7 1 6.4 2.6c1.6 1.6 2.6 3.9 2.6 6.4 0 2.5-1 4.7-2.6 6.4-1.6 1.6-3.9 2.6-6.4 2.6-2.5 0-4.7-1-6.4-2.6-1.6-1.6-2.6-3.9-2.6-6.4H286c0 5.6 4.6 10.2 10.2 10.2s10.2-4.6 10.2-10.2-4.6-10.2-10.2-10.2-10.2 4.6-10.2 10.2h.6z"/>
  <path id="Fill-83" class="st2" d="M574.6 170.2h.6c0-2.5 1-4.7 2.6-6.4 1.6-1.6 3.9-2.6 6.4-2.6s4.7 1 6.4 2.6c1.6 1.6 2.6 3.9 2.6 6.4 0 2.5-1 4.7-2.6 6.4-1.6 1.6-3.9 2.6-6.4 2.6-2.5 0-4.7-1-6.4-2.6-1.6-1.6-2.6-3.9-2.6-6.4H574c0 5.6 4.6 10.2 10.2 10.2s10.2-4.6 10.2-10.2-4.6-10.2-10.2-10.2-10.2 4.6-10.2 10.2h.6z"/>
  <path id="Fill-84" class="st2" d="M497.8 198.4H382.6c-.3 0-.6.3-.6.6s.3.6.6.6h115.2c.3 0 .6-.3.6-.6s-.3-.6-.6-.6"/>
  <path id="Fill-85" class="st2" d="M421 170.2v-.6h-18.6v-18h18v18.6h.6v-.6.6h.6V151c0-.2-.1-.3-.2-.4-.1-.1-.3-.2-.4-.2h-19.2c-.2 0-.3.1-.4.2-.1.1-.2.3-.2.4v19.2c0 .2.1.3.2.4.1.1.3.2.4.2H421c.2 0 .3-.1.4-.2.1-.1.2-.3.2-.4h-.6z"/>
  <path id="Fill-86" class="st2" d="M449.8 179.8v.6h48c.2 0 .3-.1.4-.2.1-.1.2-.3.2-.4v-48c0-.2-.1-.3-.2-.4-.1-.1-.3-.2-.4-.2h-48c-.2 0-.3.1-.4.2-.1.1-.2.3-.2.4v48c0 .2.1.3.2.4.1.1.3.2.4.2v-.6h.6v-47.4h46.8v46.8h-47.4v.6h.6-.6z"/>
  <path id="Fill-87" class="st2" d="M421 161.2h28.8c.3 0 .6-.3.6-.6s-.3-.6-.6-.6H421c-.3 0-.6.3-.6.6s.2.6.6.6"/>
  <path id="Fill-88" class="st2" d="M401.2 131.8V199c0 .3.3.6.6.6s.6-.3.6-.6v-67.2c0-.3-.3-.6-.6-.6s-.6.3-.6.6"/>
  <path id="Fill-89" class="st2" d="M468.4 179.8V199c0 .3.3.6.6.6s.6-.3.6-.6v-19.2c0-.3-.3-.6-.6-.6-.4 0-.6.3-.6.6"/>
  <path id="Fill-90" class="st2" d="M420.4 170.2V199c0 .3.3.6.6.6s.6-.3.6-.6v-28.8c0-.3-.3-.6-.6-.6-.4 0-.6.3-.6.6"/>
  <path id="Fill-102" class="st0" d="M334.6 199.6h-76.8v9h76.8z"/>
  <path id="Fill-103" class="st3" d="M333.7 199h-75.1l-.4.4c-.1.1-.3.2-.4.2h76.8c-.2 0-.3-.1-.4-.2l-.5-.4"/>
  <path id="Fill-104" class="st3" d="M334.6 199h-.8l.4.4c.1.1.3.2.4.2v-.6"/>
  <path id="Fill-105" class="st3" d="M258.6 199h-.8v.6c.2 0 .3-.1.4-.2l.4-.4"/>
  <path id="Fill-110" class="st0" d="M622.6 199.6h-76.8v9h76.8z"/>
  <path id="Fill-111" class="st3" d="M621.7 199h-75.1l-.4.4c-.1.1-.3.2-.4.2h76.8c-.2 0-.3-.1-.4-.2l-.5-.4"/>
  <path id="Fill-112" class="st3" d="M546.6 199h-.8v.6c.2 0 .3-.1.4-.2l.4-.4"/>
  <path id="Fill-113" class="st3" d="M622.6 199h-.8l.4.4c.1.1.3.2.4.2v-.6"/>
  <path id="Fill-114" class="st0" d="M497.8 218.8H373v9h124.8z"/>
  <path id="Fill-115" class="st3" d="M497.8 218.2h-124l-.4.4c-.1.1-.3.2-.4.2h124.8v-.6"/>
  <path id="Fill-116" class="st3" d="M373.8 218.2h-.8v.6c.2 0 .3-.1.4-.2l.4-.4"/>
  <path id="Fill-18" class="st4" d="M519.4 381.4h-24l.1-.3c1.4-5.5 6.3-9.3 11.9-9.3s10.6 3.8 11.9 9.3l.1.3z"/>
  <path id="Fill-20" class="st4" d="M491.5 316.5c-2.1 1.8-3.4 4.4-3.4 7.3 0 .6.1 1.3.2 1.9l9.6 48c.1.6.3 1.3.6 1.9 2.3-2.3 5.4-3.8 8.8-3.8 3.4 0 6.6 1.4 8.8 3.8.5-1.2.8-2.4.8-3.8 0-.6-.1-1.3-.2-1.9l-9.6-48c-.2-1.1-.6-2.1-1.2-3l-14.4-2.4"/>
  <path id="Fill-22" class="st4" d="M469 323.8V295h9.6v19.2c0 5.3-4.3 9.6-9.6 9.6"/>
  <path id="Fill-24" class="st4" d="M537.8 304.7l-57.6-9.6c-.5-.1-1-.1-1.6-.1v19.3l56 9.3c.5.1 1 .1 1.6.1 5.3 0 9.6-4.3 9.6-9.6 0-4.7-3.5-8.6-8-9.4"/>
  <path id="Fill-26" class="st4" d="M152.2 295H181v-9.6h-28.8z"/>
  <path id="Fill-28" d="M401.8 285.4c0 6-8.9 15.3-21 18.3-3.1-18.9-9.1-37.3-11.6-44.2 2.3-1.8 3.8-4.5 3.8-7.6h1.8c4.3 0 7.8-3.5 7.8-7.8 0-1.2-.3-2.4-.8-3.5l-.2-.4c-5.3-10.5-16-17.2-27.8-17.2s-22.5 6.6-27.8 17.2l-.2.4c-.5 1.1-.8 2.3-.8 3.5 0 4.3 3.5 7.8 7.8 7.8h1.8c0 3.1 1.5 5.9 3.8 7.6-3.3 9.4-13.4 40.2-13.4 64.4h57.6c0-3.6-.2-7.3-.6-11.1v.1c11.5-3.9 19.8-14.7 19.8-27.5" fill-rule="evenodd" clip-rule="evenodd" fill="#ffdf2a"/>
  <path id="Fill-29" class="st4" d="M66.2 352.6l-9.6 9.6v19.2h19.2v-19.2z"/>
  <path id="Fill-30" class="st4" d="M25.8 362.2c-4.9 10.5-17.2 12-17.2 12l-6.5 1.6c-1.1.3-1.2 1.7-.2 2.2 5.4 2.7 11.6 3.4 17.4 1.7 5-1.4 8.5-3.2 8.5-3.2v4.8H47v-24l-21.2 4.9z"/>
  <path id="Fill-91" class="st2" d="M65.7 352.2l-9.6 9.6c-.2.2-.2.6 0 .8.2.2.6.2.8 0l9.6-9.6c.2-.2.2-.6 0-.8-.1-.3-.5-.3-.8 0"/>
  <path id="Fill-92" class="st2" d="M76.2 361.8l-9.6-9.6c-.2-.2-.6-.2-.8 0-.2.2-.2.6 0 .8l9.6 9.6c.2.2.6.2.8 0 .2-.2.2-.6 0-.8"/>
  <path id="Fill-93" class="st2" d="M25.6 363.3l21.5-5.4c.3-.1.5-.4.4-.7-.1-.3-.4-.5-.7-.4l-21.5 5.4c-.3.1-.5.4-.4.7.1.3.4.5.7.4"/>
  <path id="Fill-94" class="st2" d="M27.8 377.2H47c.3 0 .6-.3.6-.6s-.3-.6-.6-.6H27.8c-.3 0-.6.3-.6.6s.2.6.6.6"/>
  <path id="Fill-179" class="st6" d="M56.6 382.6h19.2c.7 0 1.2-.5 1.2-1.2s-.5-1.2-1.2-1.2H56.6c-.7 0-1.2.5-1.2 1.2s.5 1.2 1.2 1.2"/>
  <path id="Fill-180" class="st6" d="M55.4 323.8v57.6c0 .7.5 1.2 1.2 1.2s1.2-.5 1.2-1.2v-57.6c0-.7-.5-1.2-1.2-1.2s-1.2.5-1.2 1.2"/>
  <path id="Fill-181" class="st6" d="M77 381.4v-57.6c0-.7-.5-1.2-1.2-1.2s-1.2.5-1.2 1.2v57.6c0 .7.5 1.2 1.2 1.2s1.2-.5 1.2-1.2"/>
  <path id="Fill-182" class="st6" d="M67.4 333.4c0-2.6-.7-4.7-1.7-6.2-1.6-2.3-3.9-3.5-5.7-4-1.9-.6-3.3-.6-3.4-.6-.7 0-1.2.5-1.2 1.2s.5 1.2 1.2 1.2v-.3.3-.3.3s2.3 0 4.4 1.1c1 .5 2 1.3 2.8 2.4.7 1.1 1.3 2.7 1.3 4.8 0 .7.5 1.2 1.2 1.2s1.1-.4 1.1-1.1"/>
  <path id="Fill-183" class="st6" d="M67.4 333.4c0-2.2.5-3.7 1.3-4.9 1.1-1.7 2.9-2.6 4.4-3.1.8-.2 1.5-.3 1.9-.4h.7c.7 0 1.2-.5 1.2-1.2s-.5-1.2-1.2-1.2c-.1 0-2.6 0-5.3 1.3-1.3.7-2.7 1.7-3.8 3.3-1 1.6-1.7 3.6-1.7 6.2 0 .7.5 1.2 1.2 1.2s1.3-.5 1.3-1.2"/>
  <path id="Fill-184" class="st6" d="M57.8 381.4c0-2.3.9-4.4 2.5-5.9 1.5-1.5 3.6-2.5 5.9-2.5 2.3 0 4.4.9 5.9 2.5 1.5 1.5 2.5 3.6 2.5 5.9 0 .7.5 1.2 1.2 1.2s1.2-.5 1.2-1.2c0-6-4.8-10.8-10.8-10.8-6 0-10.8 4.8-10.8 10.8 0 .7.5 1.2 1.2 1.2s1.2-.5 1.2-1.2"/>
  <path id="Fill-185" class="st6" d="M45.8 380.2H29v-3.6c0-.4-.2-.8-.6-1-.4-.2-.8-.2-1.2-.1-.4.2-3.7 1.8-8.3 3.1-2 .6-4 .8-6.1.8-3.6 0-7.2-.8-10.4-2.5l6.4-1.6c.7-.1 5.3-.8 10-3.8 2.5-1.6 5.1-3.8 7-6.9 1.9-3.1 3.2-7.1 3.2-12.1v-24c0-.3.1-.7.5-1.1.5-.6 1.6-1.3 2.9-1.7 1.4-.5 3.1-.8 5-.8 2.5 0 4.7.5 6.3 1.3.8.4 1.3.8 1.7 1.2.3.4.5.8.5 1.1v51.7zm1.3-54.2c-.9-1.1-2.3-1.9-4-2.5-1.7-.6-3.6-.9-5.8-.9-2.8 0-5.4.6-7.3 1.5-1 .5-1.8 1.1-2.4 1.8-.6.7-1 1.6-1 2.6v24c0 4.6-1.1 8.1-2.8 10.8-2.5 4.1-6.3 6.5-9.6 7.9-1.6.7-3.1 1.1-4.1 1.4-.5.1-.9.2-1.2.3-.1 0-.3 0-.3.1h-.2l-6.5 1.6c-.6.1-1 .5-1.4.9-.3.5-.5 1-.5 1.5 0 .4.1.8.3 1.2.2.4.6.7 1 .9 3.6 1.8 7.5 2.7 11.5 2.7 2.3 0 4.5-.3 6.7-.9 3-.8 5.4-1.8 7-2.5v2.9c0 .3.1.6.4.8.2.2.5.4.8.4H47c.3 0 .6-.1.8-.4.2-.2.4-.5.4-.8v-52.8c0-.9-.5-1.8-1.1-2.5z"/>
  <path id="Fill-31" class="st2" d="M507.6 324.4h56.8v18h-53c-.3 0-.6.3-.6.6s.3.6.6.6H565c.2 0 .3-.1.4-.2.1-.1.2-.3.2-.4v-19.2c0-.2-.1-.3-.2-.4-.1-.1-.3-.2-.4-.2h-57.4c-.3 0-.6.3-.6.6s.2.6.6.6"/>
  <path id="Fill-32" class="st2" d="M491.8 342.4h-60.6v-18h57c.3 0 .6-.3.6-.6s-.3-.6-.6-.6h-57.6c-.2 0-.3.1-.4.2-.1.1-.2.3-.2.4V343c0 .2.1.3.2.4.1.1.3.2.4.2h61.2c.3 0 .6-.3.6-.6s-.3-.6-.6-.6"/>
  <path id="Fill-33" class="st2" d="M296.2 323.8v.6H430v18H296.8v-18.6h-.6v.6-.6h-.6V343c0 .2.1.3.2.4.1.1.3.2.4.2h134.4c.2 0 .3-.1.4-.2.1-.1.2-.3.2-.4v-19.2c0-.2-.1-.3-.2-.4-.1-.1-.3-.2-.4-.2H296.2c-.2 0-.3.1-.4.2-.1.1-.2.3-.2.4h.6"/>
  <path id="Fill-34" class="st2" d="M589 295h.6c0-3-2.4-5.4-5.4-5.4s-5.4 2.4-5.4 5.4 2.4 5.4 5.4 5.4c3 0 5.4-2.4 5.4-5.4h-1.2c0 2.3-1.9 4.2-4.2 4.2-2.3 0-4.2-1.9-4.2-4.2 0-2.3 1.9-4.2 4.2-4.2 2.3 0 4.2 1.9 4.2 4.2h.6z"/>
  <path id="Fill-35" class="st2" d="M555.4 381.4v.6h9.6c.2 0 .3-.1.4-.2.1-.1.2-.3.2-.4v-19.2c0-.2-.1-.3-.2-.4-.1-.1-.3-.2-.4-.2h-19.2c-.2 0-.4.1-.5.3-.1.2-.1.4 0 .6l9.6 19.2c.1.2.3.3.5.3v-.6l.5-.3-9.2-18.3h17.6v18h-9v.6l.5-.3-.4.3"/>
  <path id="Fill-36" class="st2" d="M305.8 381.4v-.6h-9v-18h17.6l-9.2 18.3.6.3v-.6.6l.5.3 9.6-19.2c.1-.2.1-.4 0-.6-.1-.2-.3-.3-.5-.3h-19.2c-.2 0-.3.1-.4.2-.1.1-.2.3-.2.4v19.2c0 .2.1.3.2.4.1.1.3.2.4.2h9.6c.2 0 .4-.1.5-.3l-.5-.3"/>
  <path id="Fill-37" class="st2" d="M272.2 295h.6c0-2.3 1.9-4.2 4.2-4.2 2.3 0 4.2 1.9 4.2 4.2 0 2.3-1.9 4.2-4.2 4.2-2.3 0-4.2-1.9-4.2-4.2h-1.2c0 3 2.4 5.4 5.4 5.4 3 0 5.4-2.4 5.4-5.4s-2.4-5.4-5.4-5.4-5.4 2.4-5.4 5.4h.6z"/>
  <path id="Fill-38" class="st2" d="M565.2 289.4c-.5 1.8-.8 3.7-.8 5.6v28.8c0 .3.3.6.6.6s.6-.3.6-.6V295c0-1.8.3-3.6.8-5.3.1-.3-.1-.7-.4-.7-.4-.1-.7.1-.8.4"/>
  <path id="Fill-39" class="st2" d="M515.2 362.8h68.9c.2 0 .3-.1.4-.2.1-.1.2-.3.2-.4v-48h-.6v.6c10.9 0 19.8-8.9 19.8-19.8s-8.9-19.8-19.8-19.8H583c-.3 0-.6.3-.6.6s.3.6.6.6h1c5.1 0 9.8 2.1 13.2 5.4 3.4 3.4 5.4 8 5.4 13.2 0 5.1-2.1 9.8-5.4 13.2-3.4 3.4-8 5.4-13.2 5.4-.2 0-.3.1-.4.2-.1.1-.2.3-.2.4v47.4h-68.3c-.3 0-.6.3-.6.6.1.3.4.6.7.6"/>
  <path id="Fill-40" class="st2" d="M296.8 323.8V295c0-10.9-8.9-19.8-19.8-19.8s-19.8 8.9-19.8 19.8 8.9 19.8 19.8 19.8v-.6h-.6v48c0 .2.1.3.2.4.1.1.3.2.4.2h218.7c.3 0 .6-.3.6-.6s-.3-.6-.6-.6H277.6v-47.4c0-.2-.1-.3-.2-.4-.1-.1-.3-.2-.4-.2-5.1 0-9.8-2.1-13.2-5.4-3.4-3.4-5.4-8-5.4-13.2 0-5.1 2.1-9.8 5.4-13.2 3.4-3.4 8-5.4 13.2-5.4s9.8 2.1 13.2 5.4c3.4 3.4 5.4 8 5.4 13.2v28.8c0 .3.3.6.6.6s.6-.3.6-.6"/>
  <path id="Fill-41" class="st2" d="M373.6 257.2h28.2c.3 0 .6-.3.6-.6s-.3-.6-.6-.6h-28.2c-.3 0-.6.3-.6.6s.3.6.6.6"/>
  <path id="Fill-42" class="st2" d="M296.8 295v-28.8c0-2.5 1-4.7 2.6-6.4 1.6-1.6 3.9-2.6 6.4-2.6.3 0 .6-.3.6-.6s-.3-.6-.6-.6c-5.6 0-10.2 4.6-10.2 10.2V295c0 .3.3.6.6.6s.6-.3.6-.6"/>
  <path id="Fill-43_1_" class="st2" d="M497.8 208.6v-.6H383.2v-75.6h114v76.2h.6v-.6.6h.6v-76.8c0-.2-.1-.3-.2-.4-.1-.1-.3-.2-.4-.2H382.6c-.2 0-.3.1-.4.2-.1.1-.2.3-.2.4v76.8c0 .2.1.3.2.4.1.1.3.2.4.2h115.2c.2 0 .3-.1.4-.2.1-.1.2-.3.2-.4h-.6z"/>
  <path id="Fill-44_1_" class="st2" d="M497.8 217.6H373.6v-94.8h133.2v78.8c0 .3.3.6.6.6s.6-.3.6-.6v-79.4c0-.2-.1-.3-.2-.4-.1-.1-.3-.2-.4-.2H373c-.2 0-.3.1-.4.2-.1.1-.2.3-.2.4v96c0 .2.1.3.2.4.1.1.3.2.4.2h124.8c.3 0 .6-.3.6-.6s-.3-.6-.6-.6"/>
  <path id="Fill-45_1_" class="st2" d="M383 131.4l-9.6-9.6c-.2-.2-.6-.2-.8 0-.2.2-.2.6 0 .8l9.6 9.6c.2.2.6.2.8 0s.2-.6 0-.8"/>
  <path id="Fill-46_1_" class="st2" d="M373.4 218.6l9.6-9.6c.2-.2.2-.6 0-.8-.2-.2-.6-.2-.8 0l-9.6 9.6c-.2.2-.2.6 0 .8.2.3.6.3.8 0"/>
  <path id="Fill-47_1_" class="st2" d="M499.9 209.9l-1.7-1.7c-.2-.2-.6-.2-.8 0-.2.2-.2.6 0 .8l1.7 1.7c.2.2.6.2.8 0 .2-.2.2-.6 0-.8"/>
  <path id="Fill-48_1_" class="st2" d="M506.9 121.8l-9.6 9.6c-.2.2-.2.6 0 .8s.6.2.8 0l9.6-9.6c.2-.2.2-.6 0-.8s-.5-.3-.8 0"/>
  <path id="Fill-49" class="st2" d="M220 247V55c0-.2-.1-.3-.2-.4-.1-.1-.3-.2-.4-.2h-168c-.2 0-.3.1-.4.2-.1.1-.2.3-.2.4v230.4c0 .3.3.6.6.6s.6-.3.6-.6V55.6h166.8V247c0 .3.3.6.6.6s.6-.3.6-.6"/>
  <path id="Fill-199" class="st2" d="M71.2 284.8v-210h128.4V247c0 .3.3.6.6.6s.6-.3.6-.6V74.2c0-.2-.1-.3-.2-.4-.1-.1-.3-.2-.4-.2H70.6c-.2 0-.3.1-.4.2-.2.1-.2.2-.2.4v211.2c0 .2.1.3.2.4.1.1.3.2.4.2h81.6c.3 0 .6-.3.6-.6s-.3-.6-.6-.6h-81z"/>
  <path id="Fill-50" class="st2" d="M190.6 284.8H181c-.3 0-.6.3-.6.6s.3.6.6.6h9.6c.3 0 .6-.3.6-.6s-.3-.6-.6-.6"/>
  <path id="Fill-51" class="st2" d="M305.8 257.2H334c.3 0 .6-.3.6-.6s-.3-.6-.6-.6h-28.3c-.3 0-.6.3-.6.6.1.3.3.6.7.6"/>
  <path id="Fill-52" class="st2" d="M488.7 266.5l9.6-19.2c.1-.3 0-.7-.3-.8-.3-.1-.7 0-.8.3l-9.6 19.2c-.1.3 0 .7.3.8.3.1.7 0 .8-.3"/>
  <path id="Fill-53" class="st2" d="M546.3 269.7l-9.6-22.9c-.1-.3-.5-.4-.8-.3-.3.1-.5.5-.3.8l9.6 22.9c.1.3.5.4.8.3.3-.2.4-.5.3-.8"/>
  <path id="Fill-54" class="st2" d="M493 257.2h47.2c.3 0 .6-.3.6-.6s-.3-.6-.6-.6H493c-.3 0-.6.3-.6.6s.2.6.6.6"/>
  <path id="Fill-55" class="st2" d="M488.2 266.8h56c.3 0 .6-.3.6-.6s-.3-.6-.6-.6h-56c-.3 0-.6.3-.6.6s.2.6.6.6"/>
  <path id="Fill-56" class="st2" d="M489.1 276.4h56c.3 0 .6-.3.6-.6s-.3-.6-.6-.6h-56c-.3 0-.6.3-.6.6s.3.6.6.6"/>
  <path id="Fill-57" class="st2" d="M490.1 286h54c.3 0 .6-.3.6-.6s-.3-.6-.6-.6h-54c-.3 0-.6.3-.6.6s.3.6.6.6"/>
  <path id="Fill-58" class="st2" d="M491 295.6h52c.3 0 .6-.3.6-.6s-.3-.6-.6-.6h-52c-.3 0-.6.3-.6.6s.3.6.6.6"/>
  <path id="Fill-59" class="st2" d="M479.2 266.2V247c0-.3-.3-.6-.6-.6s-.6.3-.6.6v19.2c0 .3.3.6.6.6s.6-.3.6-.6"/>
  <path id="Fill-60" class="st2" d="M488.8 266.2V247c0-.3-.3-.6-.6-.6s-.6.3-.6.6v19.2c0 .3.3.6.6.6s.6-.3.6-.6"/>
  <path id="Fill-61" class="st2" d="M546.3 270.1l5.7-18.3c.1-.3-.1-.7-.4-.8-.3-.1-.7.1-.8.4l-5.7 18.3c-.1.3.1.7.4.8.4.1.7-.1.8-.4"/>
  <path id="Fill-62" class="st2" d="M553.7 272.2l5.5-18c.1-.3-.1-.7-.4-.8-.3-.1-.7.1-.8.4l-5.5 18c-.1.3.1.7.4.8.4.1.7-.1.8-.4"/>
  <path id="Fill-63_1_" class="st2" d="M325 189.4v-.6h-57v-37.2h56.4v37.8h.6v-.6.6h.6V151c0-.2-.1-.3-.2-.4s-.3-.2-.4-.2h-57.6c-.2 0-.3.1-.4.2-.1.1-.2.3-.2.4v38.4c0 .2.1.3.2.4.1.1.3.2.4.2H325c.2 0 .3-.1.4-.2.1-.1.2-.3.2-.4h-.6z"/>
  <path id="Fill-64_1_" class="st2" d="M613 189.4v-.6h-57v-37.2h56.4v37.8h.6v-.6.6h.6V151c0-.2-.1-.3-.2-.4-.1-.1-.3-.2-.4-.2h-57.6c-.2 0-.3.1-.4.2-.1.1-.2.3-.2.4v38.4c0 .2.1.3.2.4.1.1.3.2.4.2H613c.2 0 .3-.1.4-.2.1-.1.2-.3.2-.4h-.6z"/>
  <path id="Fill-65_1_" class="st2" d="M334.6 199v-.6h-76.2V142H334v57h.6v-.6.6h.6v-57.6c0-.2-.1-.3-.2-.4-.1-.1-.3-.2-.4-.2h-76.8c-.2 0-.3.1-.4.2-.1.1-.2.3-.2.4V199c0 .2.1.3.2.4.1.1.3.2.4.2h76.8c.2 0 .3-.1.4-.2.1-.1.2-.3.2-.4h-.6"/>
  <path id="Fill-66_1_" class="st2" d="M622.6 199v-.6h-76.2V142H622v57h.6v-.6.6h.6v-57.6c0-.2-.1-.3-.2-.4-.1-.1-.3-.2-.4-.2h-76.8c-.2 0-.3.1-.4.2-.1.1-.2.3-.2.4V199c0 .2.1.3.2.4.1.1.3.2.4.2h76.8c.2 0 .3-.1.4-.2.1-.1.2-.3.2-.4h-.6"/>
  <path id="Fill-67_1_" class="st2" d="M555.8 150.6l-9.6-9.6c-.2-.2-.6-.2-.8 0-.2.2-.2.6 0 .8l9.6 9.6c.2.2.6.2.8 0s.2-.6 0-.8"/>
  <path id="Fill-68_1_" class="st2" d="M554.9 189l-9.6 9.6c-.2.2-.2.6 0 .8.2.2.6.2.8 0l9.6-9.6c.2-.2.2-.6 0-.8-.1-.3-.5-.3-.8 0"/>
  <path id="Fill-69_1_" class="st2" d="M623 198.6l-9.6-9.6c-.2-.2-.6-.2-.8 0-.2.2-.2.6 0 .8l9.6 9.6c.2.2.6.2.8 0s.2-.6 0-.8"/>
  <path id="Fill-70_1_" class="st2" d="M613.4 151.4l9.6-9.6c.2-.2.2-.6 0-.8-.2-.2-.6-.2-.8 0l-9.6 9.6c-.2.2-.2.6 0 .8s.6.3.8 0"/>
  <path id="Fill-71_1_" class="st2" d="M335 198.6l-9.6-9.6c-.2-.2-.6-.2-.8 0-.2.2-.2.6 0 .8l9.6 9.6c.2.2.6.2.8 0 .2-.2.2-.6 0-.8"/>
  <path id="Fill-72_1_" class="st2" d="M334.1 141l-9.6 9.6c-.2.2-.2.6 0 .8.2.2.6.2.8 0l9.6-9.6c.2-.2.2-.6 0-.8-.1-.3-.5-.3-.8 0"/>
  <path id="Fill-73_1_" class="st2" d="M267.8 150.6l-9.6-9.6c-.2-.2-.6-.2-.8 0-.2.2-.2.6 0 .8l9.6 9.6c.2.2.6.2.8 0s.2-.6 0-.8"/>
  <path id="Fill-74_1_" class="st2" d="M266.9 189l-9.6 9.6c-.2.2-.2.6 0 .8.2.2.6.2.8 0l9.6-9.6c.2-.2.2-.6 0-.8-.1-.3-.5-.3-.8 0"/>
  <path id="Fill-75" class="st7" d="M219.8 257l9.6-9.6c.2-.2.2-.6 0-.8-.2-.2-.6-.2-.8 0l-9.6 9.6c-.2.2-.2.6 0 .8.2.3.6.3.8 0"/>
  <path id="Fill-76" class="st7" d="M229.4 294.6l-9.6-9.6c-.2-.2-.6-.2-.8 0-.2.2-.2.6 0 .8l9.6 9.6c.2.2.6.2.8 0s.2-.6 0-.8"/>
  <path id="Fill-77" class="st7" d="M191 295.4l9.6-9.6c.2-.2.2-.6 0-.8-.2-.2-.6-.2-.8 0l-9.6 9.6c-.2.2-.2.6 0 .8.2.3.6.3.8 0"/>
  <path id="Fill-78" class="st7" d="M200.6 256.2l-9.6-9.6c-.2-.2-.6-.2-.8 0-.2.2-.2.6 0 .8l9.6 9.6c.2.2.6.2.8 0 .2-.2.2-.6 0-.8"/>
  <path id="Fill-79" class="st2" d="M70.6 284.8H41.8c-.2 0-.3.1-.4.2-.1.1-.2.3-.2.4v19.2c0 .2.1.3.2.4.1.1.3.2.4.2h100.8c.3 0 .6-.3.6-.6s-.3-.6-.6-.6H42.4v-18h28.2c.3 0 .6-.3.6-.6s-.3-.6-.6-.6"/>
  <path id="Fill-80" class="st7" d="M219.4 285.4v-.6h-18.6v-27.6h18v28.2h.6v-.6.6h.6v-28.8c0-.2-.1-.3-.2-.4s-.3-.2-.4-.2h-19.2c-.2 0-.3.1-.4.2-.1.1-.2.3-.2.4v28.8c0 .2.1.3.2.4.1.1.3.2.4.2h19.2c.2 0 .3-.1.4-.2.1-.1.2-.3.2-.4h-.6z"/>
  <path id="Fill-82_1_" class="st2" d="M286.6 170.2h.6c0-2.5 1-4.7 2.6-6.4 1.6-1.6 3.9-2.6 6.4-2.6 2.5 0 4.7 1 6.4 2.6 1.6 1.6 2.6 3.9 2.6 6.4s-1 4.7-2.6 6.4c-1.6 1.6-3.9 2.6-6.4 2.6-2.5 0-4.7-1-6.4-2.6-1.6-1.6-2.6-3.9-2.6-6.4H286c0 5.6 4.6 10.2 10.2 10.2s10.2-4.6 10.2-10.2-4.6-10.2-10.2-10.2-10.2 4.6-10.2 10.2h.6z"/>
  <path id="Fill-83_1_" class="st2" d="M574.6 170.2h.6c0-2.5 1-4.7 2.6-6.4 1.6-1.6 3.9-2.6 6.4-2.6s4.7 1 6.4 2.6c1.6 1.6 2.6 3.9 2.6 6.4s-1 4.7-2.6 6.4c-1.6 1.6-3.9 2.6-6.4 2.6-2.5 0-4.7-1-6.4-2.6-1.6-1.6-2.6-3.9-2.6-6.4H574c0 5.6 4.6 10.2 10.2 10.2s10.2-4.6 10.2-10.2-4.6-10.2-10.2-10.2-10.2 4.6-10.2 10.2h.6z"/>
  <path id="Fill-84_1_" class="st2" d="M497.8 198.4H382.6c-.3 0-.6.3-.6.6s.3.6.6.6h115.2c.3 0 .6-.3.6-.6s-.3-.6-.6-.6"/>
  <path id="Fill-85_1_" class="st2" d="M421 170.2v-.6h-18.6v-18h18v18.6h.6v-.6.6h.6V151c0-.2-.1-.3-.2-.4s-.3-.2-.4-.2h-19.2c-.2 0-.3.1-.4.2-.1.1-.2.3-.2.4v19.2c0 .2.1.3.2.4.1.1.3.2.4.2H421c.2 0 .3-.1.4-.2.1-.1.2-.3.2-.4h-.6z"/>
  <path id="Fill-86_1_" class="st2" d="M449.8 179.8v.6h48c.2 0 .3-.1.4-.2.1-.1.2-.3.2-.4v-48c0-.2-.1-.3-.2-.4-.1-.1-.3-.2-.4-.2h-48c-.2 0-.3.1-.4.2-.1.1-.2.3-.2.4v48c0 .2.1.3.2.4.1.1.3.2.4.2v-.6h.6v-47.4h46.8v46.8h-47.4v.6h.6-.6z"/>
  <path id="Fill-87_1_" class="st2" d="M421 161.2h28.8c.3 0 .6-.3.6-.6s-.3-.6-.6-.6H421c-.3 0-.6.3-.6.6s.2.6.6.6"/>
  <path id="Fill-88_1_" class="st2" d="M401.2 131.8V199c0 .3.3.6.6.6s.6-.3.6-.6v-67.2c0-.3-.3-.6-.6-.6s-.6.3-.6.6"/>
  <path id="Fill-89_1_" class="st2" d="M468.4 179.8V199c0 .3.3.6.6.6s.6-.3.6-.6v-19.2c0-.3-.3-.6-.6-.6s-.6.3-.6.6"/>
  <path id="Fill-90_1_" class="st2" d="M420.4 170.2V199c0 .3.3.6.6.6s.6-.3.6-.6v-28.8c0-.3-.3-.6-.6-.6s-.6.3-.6.6"/>
  <path id="Fill-95" class="st0" d="M229 304.6h-76.8v19.2H170l1.4-9.6h38.4l1.3 9.6H229z"/>
  <path id="Fill-96" class="st0" d="M564.4 362.8h-17.7l9 18h8.7z"/>
  <path id="Fill-97" class="st3" d="M565 362.8h-18.9l9.3 18.6.5-.3-.5.3h9.6v-18.6zm-9.3 18l-9-18h17.6v18h-8.6z"/>
  <path id="Fill-98" class="st3" d="M565 362.2h-19.2l.3.6H565z"/>
  <path id="Fill-99" class="st0" d="M314.4 362.8h-17.6v18h8.6z"/>
  <path id="Fill-100" class="st3" d="M315.1 362.8h-18.9v18.6h9.6l9.3-18.6zm-18.3 18v-18h17.6l-9 18h-8.6z"/>
  <path id="Fill-101" class="st3" d="M315.4 362.2h-19.2v.6h18.9z"/>
  <path id="Fill-102_1_" class="st0" d="M334.6 199.6h-76.8v9h76.8z"/>
  <path id="Fill-103_1_" class="st3" d="M333.7 199h-75.1l-.4.4c-.1.1-.3.2-.4.2h76.8c-.2 0-.3-.1-.4-.2l-.5-.4"/>
  <path id="Fill-104_1_" class="st3" d="M334.6 199h-.8l.4.4c.1.1.3.2.4.2v-.6"/>
  <path id="Fill-105_1_" class="st3" d="M258.6 199h-.8v.6c.2 0 .3-.1.4-.2l.4-.4"/>
  <path id="Fill-106" fill-rule="evenodd" clip-rule="evenodd" fill="#edcf27" d="M344.2 323.2h19.2v-37.8h-19.2z"/>
  <path id="Fill-107" class="st3" d="M344.2 323.8h19.2v-.6h-19.2z"/>
  <path id="Fill-110_1_" class="st0" d="M622.6 199.6h-76.8v9h76.8z"/>
  <path id="Fill-111_1_" class="st3" d="M621.7 199h-75.1l-.4.4c-.1.1-.3.2-.4.2h76.8c-.2 0-.3-.1-.4-.2l-.5-.4"/>
  <path id="Fill-112_1_" class="st3" d="M546.6 199h-.8v.6c.2 0 .3-.1.4-.2l.4-.4"/>
  <path id="Fill-113_1_" class="st3" d="M622.6 199h-.8l.4.4c.1.1.3.2.4.2v-.6"/>
  <path id="Fill-114_1_" class="st0" d="M497.8 218.8H373v9h124.8z"/>
  <path id="Fill-115_1_" class="st3" d="M497.8 218.2h-124l-.4.4c-.1.1-.3.2-.4.2h124.8v-.6"/>
  <path id="Fill-116_1_" class="st3" d="M373.8 218.2h-.8v.6c.2 0 .3-.1.4-.2l.4-.4"/>
  <path id="Fill-117" class="st0" d="M506 318.9c.5.9.9 1.9 1.1 3l.3 1.3H531l-24.8-4.3h-.2m39.8 5.5h-38.1l3.6 18H539.5c3.7-1.4 6.3-4.9 6.3-9v-9"/>
  <path id="Fill-118" class="st9" d="M506 318.9h.2-.2"/>
  <path id="Fill-119" class="st3" d="M531.1 323.2h-23.5-.1l.1.6.1.6h38.1v-.6h-11.2l-3.5-.6m8.4 19.2h-28.1-.1l.1.6h24.8c1.1 0 2.3-.2 3.3-.6"/>
  <path id="Fill-120" class="st0" d="M152.2 304.6h-9c0 .3-.3.6-.6.6H41.8v9h110.4v-9.6"/>
  <path id="Fill-121" class="st3" d="M143.2 304.6H41.8v.6h100.8c.3 0 .6-.3.6-.6"/>
  <path id="Fill-122" class="st0" d="M507.7 324.4l.9 4.5-.9-4.5"/>
  <path id="Fill-123" class="st9" d="M491.5 316.5c-1.9 1.6-3.2 4-3.4 6.7.3 0 .6.3.6.6s-.3.6-.6.6c0 .4.1.8.1 1.2l20.3 3.4-.9-4.5h-.1c-.3 0-.6-.3-.6-.6s.2-.5.4-.6l-1.4-4.3-14.4-2.5"/>
  <path id="Fill-124" class="st9" d="M491.5 316.5l14.5 2.4-14.5-2.4"/>
  <path id="Fill-125" class="st3" d="M507.4 323.2c-.2.1-.4.3-.4.6s.3.6.6.6h.1l-.1-.6-.2-.6"/>
  <path id="Fill-126" class="st3" d="M488.2 323.2v1.2c.3 0 .6-.3.6-.6s-.3-.6-.6-.6"/>
  <path id="Fill-127" d="M506 318.9c.5.9.9 1.9 1.1 3l.3 1.3-.3-1.3c-.1-1.1-.5-2.1-1.1-3" fill-rule="evenodd" clip-rule="evenodd" fill="#dcdcdc"/>
  <path id="Fill-128" class="st11" d="M506 318.9l1.4 4.3h.1l-.3-1.3c-.2-1.1-.6-2.1-1.2-3"/>
  <path id="Fill-129" class="st11" d="M506 318.9"/>
  <path id="Fill-130" d="M507.4 323.2l.1.6-.1-.6" fill-rule="evenodd" clip-rule="evenodd" fill="#a8a8a8"/>
  <path id="Fill-131" fill-rule="evenodd" clip-rule="evenodd" fill="#7a7999" d="M358.6 249.2H349l4.8 4.8z"/>
  <path id="Fill-132" class="st6" d="M358.6 249.2V248H349c-.5 0-.9.3-1.1.7-.2.4-.1 1 .3 1.3l4.8 4.8c.2.2.5.4.8.4s.6-.1.8-.4l4.8-4.8c.3-.3.4-.9.3-1.3-.2-.4-.6-.7-1.1-.7v1.2l-.8-.8-4 4-1.9-1.9h6.7v-1.3l-.8-.8.8.8z"/>
  <path id="Fill-133" class="st6" d="M358.6 239.8c0 1.3 1.1 2.4 2.4 2.4s2.4-1.1 2.4-2.4-1.1-2.4-2.4-2.4-2.4 1.1-2.4 2.4"/>
  <path id="Fill-134" class="st6" d="M344.2 239.8c0 1.3 1.1 2.4 2.4 2.4s2.4-1.1 2.4-2.4-1.1-2.4-2.4-2.4-2.4 1.1-2.4 2.4"/>
  <path id="Fill-135" class="st6" d="M335.8 237.2l-2.4 14.4c-.1.7.3 1.3 1 1.4.7.1 1.3-.3 1.4-1l2.4-14.4c.1-.7-.3-1.3-1-1.4-.7-.1-1.3.3-1.4 1"/>
  <path id="Fill-136" class="st6" d="M374.1 251.6l-2.4-14.4c-.1-.7-.7-1.1-1.4-1-.7.1-1.1.7-1 1.4l2.4 14.4c.1.7.7 1.1 1.4 1 .7-.1 1.2-.7 1-1.4"/>
  <path id="Fill-137" class="st6" d="M334.6 250.6h-1.8c-1.8 0-3.5-.7-4.6-1.9a6.42 6.42 0 01-1.9-4.6c0-1 .2-2 .7-2.9l.2-.4c5.1-10.1 15.4-16.5 26.7-16.5s21.7 6.4 26.7 16.5l.2.4c.5.9.7 1.9.7 2.9 0 1.8-.7 3.4-1.9 4.6a6.42 6.42 0 01-4.6 1.9h-2c-.7 0-1.2.5-1.2 1.2s.5 1.2 1.2 1.2h1.8c5 0 9-4 9-9 0-1.4-.3-2.8-.9-4l-.2-.4c-5.5-10.9-16.6-17.8-28.9-17.8-12.2 0-23.4 6.9-28.9 17.8l-.2.4c-.6 1.2-.9 2.6-.9 4 0 5 4 9 9 9h1.8c.7 0 1.2-.5 1.2-1.2s-.6-1.2-1.2-1.2"/>
  <path id="Fill-138" class="st6" d="M371.8 251.8c0 2.3-.9 4.4-2.5 5.9-1.5 1.5-3.6 2.5-5.9 2.5-2.3 0-4.4-.9-5.9-2.5-1.5-1.5-2.5-3.6-2.5-5.9 0-.7-.5-1.2-1.2-1.2s-1.2.5-1.2 1.2c0 6 4.8 10.8 10.8 10.8s10.8-4.8 10.8-10.8c0-.7-.5-1.2-1.2-1.2s-1.2.5-1.2 1.2"/>
  <path id="Fill-139" class="st6" d="M333.4 251.8c0 6 4.8 10.8 10.8 10.8 6 0 10.8-4.8 10.8-10.8 0-.7-.5-1.2-1.2-1.2s-1.2.5-1.2 1.2c0 2.3-.9 4.4-2.5 5.9-1.5 1.5-3.6 2.5-5.9 2.5-2.3 0-4.4-.9-5.9-2.5-1.5-1.5-2.5-3.6-2.5-5.9 0-.7-.5-1.2-1.2-1.2s-1.2.5-1.2 1.2"/>
  <path id="Fill-140" class="st6" d="M343 261.4c0 3.3 2.7 6 6 6h9.6c3.3 0 6-2.7 6-6 0-.7-.5-1.2-1.2-1.2s-1.2.5-1.2 1.2c0 2-1.6 3.6-3.6 3.6H349c-2 0-3.6-1.6-3.6-3.6 0-.7-.5-1.2-1.2-1.2s-1.2.5-1.2 1.2"/>
  <path id="Fill-141" class="st6" d="M142.6 295v1.2h94.8v7.2h-93.6V295h-1.2v1.2-1.2h-1.2v9.6c0 .3.1.6.4.8.2.2.5.4.8.4h96c.3 0 .6-.1.8-.4.2-.2.4-.5.4-.8V295c0-.3-.1-.6-.4-.8-.2-.2-.5-.4-.8-.4h-96c-.3 0-.6.1-.8.4-.2.2-.4.5-.4.8h1.2z"/>
  <path id="Fill-142" class="st6" d="M151 304.6v76.8c0 .3.1.6.4.8.2.2.5.4.8.4h9.6c.6 0 1.1-.4 1.2-1l9.5-66.2h36.3l9.5 66.2c.1.6.6 1 1.2 1h9.6c.3 0 .6-.1.8-.4.2-.2.4-.5.4-.8v-76.8c0-.7-.5-1.2-1.2-1.2s-1.2.5-1.2 1.2v75.6h-7.4L211 314c-.1-.6-.6-1-1.2-1h-38.4c-.6 0-1.1.4-1.2 1l-9.5 66.2h-7.4v-75.6c0-.7-.5-1.2-1.2-1.2s-1.1.5-1.1 1.2"/>
  <path id="Fill-143" class="st6" d="M325 323.8h1.2c0-2.3.9-4.4 2.5-5.9 1.5-1.5 3.6-2.5 5.9-2.5 2.3 0 4.4.9 5.9 2.5 1.5 1.5 2.5 3.6 2.5 5.9h1.2v-1.2H325v1.2h1.2-1.2v1.2h19.2c.3 0 .6-.1.8-.4.2-.2.4-.5.4-.8 0-6-4.8-10.8-10.8-10.8-6 0-10.8 4.8-10.8 10.8 0 .3.1.6.4.8.2.2.5.4.8.4v-1.2z"/>
  <path id="Fill-144" class="st6" d="M363.4 323.8h1.2c0-2.3.9-4.4 2.5-5.9 1.5-1.5 3.6-2.5 5.9-2.5 2.3 0 4.4.9 5.9 2.5 1.5 1.5 2.5 3.6 2.5 5.9h1.2v-1.2h-19.2v1.2h1.2-1.2v1.2h19.2c.3 0 .6-.1.8-.4.2-.2.4-.5.4-.8 0-6-4.8-10.8-10.8-10.8-6 0-10.8 4.8-10.8 10.8 0 .3.1.6.4.8.2.2.5.4.8.4v-1.2z"/>
  <path id="Fill-145" class="st6" d="M337.2 259c-1.7 4.7-5 14.8-8 26.8-2.9 12-5.5 25.8-5.5 38 0 .7.5 1.2 1.2 1.2s1.2-.5 1.2-1.2c0-11.9 2.5-25.6 5.4-37.4 2.9-11.9 6.3-21.9 7.9-26.5.2-.6-.1-1.3-.7-1.5-.6-.3-1.3 0-1.5.6"/>
  <path id="Fill-146" class="st6" d="M368 259.8c1.6 4.7 5 14.7 7.9 26.5 2.9 11.8 5.4 25.5 5.4 37.4 0 .7.5 1.2 1.2 1.2s1.2-.5 1.2-1.2c0-12.2-2.5-26-5.5-38-2.9-12-6.3-22-8-26.8-.2-.6-.9-1-1.5-.7-.5.3-.9 1-.7 1.6"/>
  <path id="Fill-147" class="st6" d="M345.4 323.8v-38.4c0-.7-.5-1.2-1.2-1.2s-1.2.5-1.2 1.2v38.4c0 .7.5 1.2 1.2 1.2.6 0 1.2-.5 1.2-1.2"/>
  <path id="Fill-148" class="st6" d="M364.6 323.8v-38.4c0-.7-.5-1.2-1.2-1.2s-1.2.5-1.2 1.2v38.4c0 .7.5 1.2 1.2 1.2s1.2-.5 1.2-1.2"/>
  <path id="Fill-149" class="st6" d="M400.6 285.4c0 12.2-8 22.6-19 26.2-.6.2-1 .9-.8 1.5.2.6.9 1 1.5.8 12-3.9 20.6-15.2 20.6-28.5 0-.7-.5-1.2-1.2-1.2-.6 0-1.1.5-1.1 1.2"/>
  <path id="Fill-150" class="st6" d="M400.6 285.4c0 1.2-.5 2.7-1.4 4.4-1.4 2.5-3.9 5.1-7.1 7.4-3.2 2.3-7.2 4.2-11.6 5.3-.6.2-1 .8-.9 1.5.2.6.8 1 1.5.9 6.3-1.5 11.7-4.7 15.6-8.3 1.9-1.8 3.5-3.7 4.6-5.6 1.1-1.9 1.7-3.8 1.7-5.6 0-.7-.5-1.2-1.2-1.2s-1.2.5-1.2 1.2"/>
  <path id="Fill-151" class="st6" d="M470.2 266.2V247c0-.7-.5-1.2-1.2-1.2s-1.2.5-1.2 1.2v19.2c0 .7.5 1.2 1.2 1.2.6 0 1.2-.5 1.2-1.2"/>
  <path id="Fill-152" class="st6" d="M561.6 275.1l6-18.1c.2-.6-.1-1.3-.8-1.5-.6-.2-1.3.1-1.5.8l-6 18.2c-.2.6.1 1.3.8 1.5s1.3-.3 1.5-.9"/>
  <path id="Fill-153" class="st6" d="M543 306.6l4-36.5c.1-.7-.4-1.3-1.1-1.3-.7-.1-1.3.4-1.3 1.1l-4 36.5c-.1.7.4 1.3 1.1 1.3.6 0 1.2-.5 1.3-1.1"/>
  <path id="Fill-154" class="st6" d="M583.3 267.5c-.5-4-3.2-7.6-7.3-9l-36.4-12.1h-.2l-.3 1.2.4-1.1c-.3-.1-.5-.1-.7-.2l-.3-.1h-.1c-.2 0-.4-.1-.5-.1-.1 0-.3-.1-.6-.1h-1.1v1.2l.1-1.2H526.5c-.3 0-.6.1-.8.4-.2.2-.4.5-.4.8 0 2.3-.9 4.4-2.5 5.9-1.5 1.5-3.6 2.5-5.9 2.5-2.3 0-4.4-.9-5.9-2.5-1.5-1.5-2.5-3.6-2.5-5.9 0-.3-.1-.6-.4-.8-.2-.2-.5-.4-.8-.4H411.4c-6 0-10.8 4.8-10.8 10.8 0 .3.1.6.4.8.2.2.5.4.8.4h19.1l35.3 8.8c2.1.5 4.2.8 6.3.8h24.7l3 29.7c.1.7.7 1.1 1.3 1.1.7-.1 1.1-.7 1.1-1.3l-3.1-30.8c-.1-.6-.6-1.1-1.2-1.1h-25.7c-1.9 0-3.9-.2-5.7-.7l-35.4-8.9H402v1.2h1.2c0-2.3.9-4.4 2.5-5.9 1.5-1.5 3.6-2.5 5.9-2.5h96V247h-1.2c0 6 4.8 10.8 10.8 10.8 6 0 10.8-4.8 10.8-10.8h-1.2v1.2h10.6c.1 0 .3 0 .4.1.2 0 .3 0 .4.1l.2-1.2-.3 1.2.3.1c.2.1.4.1.5.2h.1l36.4 12.1c3.2 1.1 5.3 3.9 5.7 7 .1.7.7 1.1 1.3 1.1.5-.2 1-.8.9-1.4z"/>
  <path id="Fill-155" class="st6" d="M545.4 271.1l22 7.2c.6.2 1.3-.1 1.5-.8.2-.6-.1-1.3-.8-1.5l-22-7.2c-.6-.2-1.3.1-1.5.8-.2.6.2 1.3.8 1.5"/>
  <path id="Fill-156" class="st6" d="M519.4 381.4v-1.2h-24v1.2l1.2.3.1-.3c1.2-4.9 5.7-8.4 10.8-8.4s9.5 3.5 10.8 8.4l.1.3 1-.3v-1.2 1.2l1.2-.3-.1-.3c-1.5-6-6.9-10.2-13.1-10.2-6.2 0-11.6 4.2-13.1 10.2l-.1.3c-.1.4 0 .7.2 1 .2.3.6.5.9.5h24c.4 0 .7-.2.9-.5s.3-.7.2-1l-1 .3z"/>
  <path id="Fill-157" class="st6" d="M490.8 315.6c-2.3 2-3.8 4.9-3.8 8.2 0 .7.1 1.4.2 2.1l9.6 48c.1.7.4 1.4.7 2.1.2.4.5.6.9.7.4.1.8-.1 1.1-.3 2-2.1 4.9-3.4 8-3.4 3.1 0 5.9 1.3 8 3.4.3.3.7.4 1.1.3.4-.1.7-.3.9-.7.6-1.3.9-2.7.9-4.2 0-.7-.1-1.4-.2-2.1l-9.6-48c-.2-1.2-.7-2.3-1.3-3.4-.3-.6-1.1-.8-1.6-.4-.6.3-.8 1.1-.4 1.6.5.8.8 1.7 1 2.6l9.6 48c.1.5.2 1.1.2 1.7 0 1.2-.2 2.3-.7 3.3l1.1.5.9-.8c-2.5-2.6-5.9-4.1-9.7-4.1-3.8 0-7.2 1.6-9.7 4.1l.9.8 1.1-.5c-.2-.5-.4-1.1-.5-1.6l-9.6-48c-.1-.5-.2-1.1-.2-1.7 0-2.6 1.1-4.8 3-6.4.5-.4.6-1.2.1-1.7-.8-.5-1.5-.5-2-.1z"/>
  <path id="Fill-158" class="st6" d="M530.2 218.2v9.6c0 3.6-1.5 6.9-3.9 9.3-2.4 2.4-5.7 3.9-9.3 3.9-3.6 0-6.9-1.5-9.3-3.9-2.4-2.4-3.9-5.7-3.9-9.3v-9.6c0-.7-.5-1.2-1.2-1.2s-1.2.5-1.2 1.2v9.6c0 8.6 7 15.6 15.6 15.6s15.6-7 15.6-15.6v-9.6c0-.7-.5-1.2-1.2-1.2s-1.2.5-1.2 1.2"/>
  <path id="Fill-159" class="st6" d="M508.6 247v-8.5c0-.7-.5-1.2-1.2-1.2s-1.2.5-1.2 1.2v8.5c0 .7.5 1.2 1.2 1.2s1.2-.5 1.2-1.2"/>
  <path id="Fill-160" class="st6" d="M527.8 247v-8.5c0-.7-.5-1.2-1.2-1.2s-1.2.5-1.2 1.2v8.5c0 .7.5 1.2 1.2 1.2s1.2-.5 1.2-1.2"/>
  <path id="Fill-161" class="st6" d="M499 218.2c0-5 2-9.5 5.3-12.7 3.3-3.3 7.8-5.3 12.7-5.3.7 0 1.2-.5 1.2-1.2s-.5-1.2-1.2-1.2c-11.3 0-20.4 9.1-20.4 20.4 0 .7.5 1.2 1.2 1.2.6 0 1.2-.5 1.2-1.2"/>
  <path id="Fill-162" class="st6" d="M537.4 218.2c0-11.3-9.1-20.4-20.4-20.4-.7 0-1.2.5-1.2 1.2s.5 1.2 1.2 1.2c5 0 9.5 2 12.7 5.3 3.3 3.3 5.3 7.8 5.3 12.7 0 .7.5 1.2 1.2 1.2s1.2-.5 1.2-1.2"/>
  <path id="Fill-163" class="st6" d="M525.4 208.6c0 2.3-.9 4.4-2.5 5.9-1.5 1.5-3.6 2.5-5.9 2.5-.7 0-1.2.5-1.2 1.2s.5 1.2 1.2 1.2c6 0 10.8-4.8 10.8-10.8 0-.7-.5-1.2-1.2-1.2s-1.2.5-1.2 1.2"/>
  <path id="Fill-164" class="st6" d="M502.6 226.6c-2 0-3.6-1.6-3.6-3.6s1.6-3.6 3.6-3.6c.7 0 1.2-.5 1.2-1.2s-.5-1.2-1.2-1.2c-3.3 0-6 2.7-6 6s2.7 6 6 6c.7 0 1.2-.5 1.2-1.2s-.6-1.2-1.2-1.2"/>
  <path id="Fill-165" class="st6" d="M531.4 219.4c2 0 3.6 1.6 3.6 3.6s-1.6 3.6-3.6 3.6c-.7 0-1.2.5-1.2 1.2s.5 1.2 1.2 1.2c3.3 0 6-2.7 6-6s-2.7-6-6-6c-.7 0-1.2.5-1.2 1.2s.5 1.2 1.2 1.2"/>
  <path id="Fill-166" class="st6" d="M515.8 208.6c0 2.3-.9 4.4-2.5 5.9-1.5 1.5-3.6 2.5-5.9 2.5-.7 0-1.2.5-1.2 1.2s.5 1.2 1.2 1.2c6 0 10.8-4.8 10.8-10.8 0-.7-.5-1.2-1.2-1.2s-1.2.5-1.2 1.2"/>
  <path id="Fill-167" class="st6" d="M469 323.8h1.2v-27.6h7.2v18c0 2.3-.9 4.4-2.5 5.9-1.5 1.5-3.6 2.5-5.9 2.5v1.2h1.2-1.2v1.2c6 0 10.8-4.8 10.8-10.8V295c0-.3-.1-.6-.4-.8-.2-.2-.5-.4-.8-.4H469c-.3 0-.6.1-.8.4-.2.2-.4.5-.4.8v28.8c0 .3.1.6.4.8.2.2.5.4.8.4v-1.2z"/>
  <path id="Fill-168" class="st6" d="M496.6 218.2v4.8c0 .7.5 1.2 1.2 1.2s1.2-.5 1.2-1.2v-4.8c0-.7-.5-1.2-1.2-1.2s-1.2.5-1.2 1.2"/>
  <path id="Fill-169" class="st6" d="M535 218.2v4.8c0 .7.5 1.2 1.2 1.2s1.2-.5 1.2-1.2v-4.8c0-.7-.5-1.2-1.2-1.2s-1.2.5-1.2 1.2"/>
  <path id="Fill-170" class="st6" d="M344.2 325h19.2c.7 0 1.2-.5 1.2-1.2s-.5-1.2-1.2-1.2h-19.2c-.7 0-1.2.5-1.2 1.2s.5 1.2 1.2 1.2"/>
  <path id="Fill-171" class="st6" d="M537.8 304.7l.2-1.2-57.6-9.6c-.6-.1-1.2-.1-1.8-.1-.3 0-.6.1-.8.4-.2.2-.4.5-.4.8v19.3c0 .6.4 1.1 1 1.2l56 9.3c.6.1 1.2.1 1.8.1 6 0 10.8-4.8 10.8-10.8 0-5.4-3.9-9.8-9-10.7l-.2 1.3-.2 1.2c4 .7 7 4.1 7 8.3 0 2.3-.9 4.4-2.5 5.9-1.5 1.5-3.6 2.5-5.9 2.5-.5 0-.9 0-1.4-.1l-56-9.3-.2 1.2 1.2.1V295h-1.2v1.2c.5 0 .9 0 1.4.1l57.6 9.6.2-1.2z"/>
  <path id="Fill-172" class="st6" d="M564.7 281c-.6 1.3-.9 2.8-.9 4.4 0 6 4.8 10.8 10.8 10.8 6 0 10.8-4.8 10.8-10.8v-.1l-.1-1.1v-.1l-2-16.6c-.1-.7-.7-1.1-1.3-1.1-.7.1-1.1.7-1.1 1.3l2 16.6.1 1.1 1.2-.1H583c0 2.3-.9 4.4-2.5 5.9-1.5 1.5-3.6 2.5-5.9 2.5-2.3 0-4.4-.9-5.9-2.5-1.5-1.5-2.5-3.6-2.5-5.9 0-1.2.3-2.4.7-3.4.3-.6 0-1.3-.6-1.6-.6-.2-1.3.1-1.6.7"/>
  <path id="Fill-173" class="st6" d="M568.7 272.1l-4 8.9c-.3.6 0 1.3.6 1.6.6.3 1.3 0 1.6-.6l4-8.9c.3-.6 0-1.3-.6-1.6-.7-.3-1.4 0-1.6.6"/>
  <path id="Fill-174" class="st6" d="M333.4 320.2v3.6c0 .7.5 1.2 1.2 1.2s1.2-.5 1.2-1.2v-3.6c0-.7-.5-1.2-1.2-1.2s-1.2.5-1.2 1.2"/>
  <path id="Fill-175" class="st6" d="M371.8 320.2v3.6c0 .7.5 1.2 1.2 1.2s1.2-.5 1.2-1.2v-3.6c0-.7-.5-1.2-1.2-1.2s-1.2.5-1.2 1.2"/>
  <path id="Fill-176" class="st6" d="M229 295v-1.2h-37.2v-45.6h36V295h1.2v-1.2 1.2h1.2v-48c0-.3-.1-.6-.4-.8-.2-.2-.5-.4-.8-.4h-38.4c-.3 0-.6.1-.8.4-.2.2-.4.5-.4.8v48c0 .3.1.6.4.8.2.2.5.4.8.4H229c.3 0 .6-.1.8-.4.2-.2.4-.5.4-.8H229z"/>
  <path id="Fill-177" class="st6" d="M181 295v-1.2h-27.6v-7.2h26.4v8.4h1.2v-1.2 1.2h1.2v-9.6c0-.3-.1-.6-.4-.8-.2-.2-.5-.4-.8-.4h-28.8c-.3 0-.6.1-.8.4-.2.2-.4.5-.4.8v9.6c0 .3.1.6.4.8s.5.4.8.4H181c.3 0 .6-.1.8-.4.2-.2.4-.5.4-.8H181z"/>
  <path id="Fill-178" class="st6" d="M176.2 285.4v-1.2h-27.6V277H175v8.4h1.2v-1.2 1.2h1.2v-9.6c0-.3-.1-.6-.4-.8-.2-.2-.5-.4-.8-.4h-28.8c-.3 0-.6.1-.8.4-.2.2-.4.5-.4.8v9.6c0 .3.1.6.4.8.2.2.5.4.8.4h28.8c.3 0 .6-.1.8-.4.2-.2.4-.5.4-.8h-1.2z"/>
  <path class="st14" d="M341.4 53.9c-5.6 0-10.1-4.5-10.1-10.1s4.5-10.1 10.1-10.1 10.1 4.5 10.1 10.1-4.5 10.1-10.1 10.1zm0-19.2c-5 0-9.1 4.1-9.1 9.1s4.1 9.1 9.1 9.1 9.1-4.1 9.1-9.1-4.1-9.1-9.1-9.1z"/>
  <path class="st14" d="M370.7 73.1h-58.6V4.9h58.6v68.2zm-57.6-1h56.6V5.9h-56.6v66.2z"/>
  <path transform="rotate(-45.001 317.4 67.804)" class="st14" d="M310.6 67.3h13.6v1h-13.6z"/>
  <path transform="rotate(-45.001 365.402 10.204)" class="st14" d="M358.6 9.7h13.6v1h-13.6z"/>
  <path transform="rotate(-45.001 365.39 67.807)" class="st14" d="M364.9 61h1v13.6h-1z"/>
  <path transform="rotate(-45.001 317.402 10.204)" class="st14" d="M316.9 3.4h1V17h-1z"/>
  <path class="st14" d="M361.1 63.5h-39.4v-49h39.4v49zm-38.4-1h37.4v-47h-37.4v47z"/>
  <path class="st14" d="M331.8 24.1H351v1h-19.2zM538.2 77.9H402.8V.1h135.4v77.8zm-134.4-1h133.4V1.1H403.8v75.8z"/>
  <path class="st14" d="M528.6 68.3H412.4V9.7h116.2v58.6zm-115.2-1h114.2V10.7H413.4v56.6z"/>
  <path transform="rotate(-45.001 408.088 5.395)" class="st14" d="M407.6-1.4h1v13.6h-1z"/>
  <path transform="rotate(-45.001 532.864 5.406)" class="st14" d="M526.1 4.9h13.6v1h-13.6z"/>
  <path transform="rotate(-45.001 408.062 72.605)" class="st14" d="M401.3 72.1h13.6v1h-13.6z"/>
  <path transform="rotate(-45.001 532.846 72.611)" class="st14" d="M532.4 65.8h1v13.6h-1z"/>
  <path class="st14" d="M412.9 57.7h115.2v1H412.9z"/>
  <path class="st14" d="M480.6 58.7h-29.8V29.1l14.9-9.9 14.9 9.9v29.6zm-28.8-1h27.8v-28l-13.9-9.3-13.9 9.3v28z"/>
  <path class="st14" d="M451.8 58.7h-20.2V43.4l20.2-5v20.3zm-19.2-1h18.2V39.6l-18.2 4.5v13.6zM504.1 49.1c-5.6 0-10.1-4.5-10.1-10.1s4.5-10.1 10.1-10.1 10.1 4.5 10.1 10.1-4.6 10.1-10.1 10.1zm0-19.2c-5 0-9.1 4.1-9.1 9.1s4.1 9.1 9.1 9.1 9.1-4.1 9.1-9.1-4.1-9.1-9.1-9.1z"/>
  <path class="st14" d="M503.6 48.6h1v9.6h-1zM130.9 140.5H70.4v-1h59.5V74.8h1zM200 140.5h-60.5V74.8h1v64.7H200zM70.4 149.1H200v1H70.4z"/>
</svg>
