<?xml version="1.0" encoding="UTF-8"?>
<svg width="372px" height="178px" viewBox="0 0 372 178" version="1.1" xmlns="http://www.w3.org/2000/svg" xmlns:xlink="http://www.w3.org/1999/xlink">
    <!-- Generator: Sketch 62 (91390) - https://sketch.com -->
    <title>Bicycle</title>
    <desc>Created with Sketch.</desc>
    <g id="Comps" stroke="none" stroke-width="1" fill="none" fill-rule="evenodd" opacity="0.75">
        <g id="KW-Q8" transform="translate(-921.000000, -822.000000)">
            <g id="bg" transform="translate(200.000000, -298.000000)">
                <g id="house-footer" transform="translate(721.000000, 1108.000000)">
                    <g id="house" transform="translate(0.000000, 13.000000)">
                        <g id="Fills" transform="translate(1.000000, 1.000000)">
                            <polygon id="Door" fill="#FFFFFF" points="252.825499 157.573411 280.157986 157.573411 280.157986 102.765268 252.825499 102.765268"></polygon>
                            <path d="M239.159256,137.020357 L239.159256,143.871375 L198.160526,143.871375 L198.160526,137.020357 L239.159256,137.020357 Z M334.822958,137.020357 L334.822958,143.871375 L293.824229,143.871375 L293.824229,137.020357 L334.822958,137.020357 Z M334.822958,75.3611965 L334.822958,82.2122144 L198.160526,82.2122144 L198.160526,75.3611965 L334.822958,75.3611965 Z" id="Sills" fill="#E6E6E6"></path>
                            <path d="M136.662432,123.318322 L136.662432,137.020357 L102.496824,137.020357 L102.496824,123.318322 L136.662432,123.318322 Z M88.8305808,123.318322 L88.8305808,137.020357 L54.6649728,137.020357 L54.6649728,123.318322 L88.8305808,123.318322 Z" id="Garage" fill="#E6E6E6"></path>
                            <path d="M355.322323,157.573411 L355.322323,178.126464 L300.65735,178.126464 L300.65735,171.275447 L293.824229,171.275447 L293.824229,164.424429 L286.991107,164.424429 L286.991107,157.573411 L355.322323,157.573411 Z M245.992378,157.573411 L245.992378,164.424429 L239.159256,164.424429 L239.159256,171.275447 L232.326134,171.275447 L232.326134,178.126464 L150.328675,178.126464 L150.328675,157.573411 L245.992378,157.573411 Z M40.9987296,157.573411 L40.9987296,178.126464 L13.6662432,178.126464 L13.6662432,157.573411 L40.9987296,157.573411 Z" id="Foundation" fill="#E6E6E6"></path>
                            <polygon id="Roof" fill="#E6E6E6" points="307.490472 34.2550893 348.489202 34.2550893 348.489202 20.5530536 286.991107 20.5530536 266.491742 6.85101786 177.661162 66.2262206 0 82.2122144 0 95.9142501 177.661162 79.9282563 266.491742 20.5530536 368.988566 89.0632322 368.988566 75.3611965"></polygon>
                            <polygon id="Chimney" fill="#E6E6E6" points="184.494283 6.85101786 225.493013 6.85101786 225.493013 0 184.494283 0"></polygon>
                            <path d="M286.991107,61.6591608 C290.764699,61.6591608 293.824229,64.726704 293.824229,68.5101786 L293.824229,68.5101786 L293.824229,75.3611965 L239.159256,75.3611965 L239.159256,68.5101786 C239.159256,64.726704 242.218786,61.6591608 245.992378,61.6591608 L245.992378,61.6591608 Z M218.659891,52.524613 L218.659891,75.3616247 L204.993648,75.3616247 L204.993648,61.659589 L218.659891,52.524613 Z M266.491742,41.1061072 C270.265334,41.1061072 273.324864,44.1736504 273.324864,47.957125 L273.324864,47.957125 L259.658621,47.957125 C259.658621,44.1736504 262.718151,41.1061072 266.491742,41.1061072 Z M245.992378,41.1061072 C249.765969,41.1061072 252.825499,44.1736504 252.825499,47.957125 L252.825499,47.957125 L239.159256,47.957125 C239.159256,44.1736504 242.218786,41.1061072 245.992378,41.1061072 Z M286.991107,41.1061072 C290.764699,41.1061072 293.824229,44.1736504 293.824229,47.957125 L293.824229,47.957125 L280.157986,47.957125 C280.157986,44.1736504 283.217516,41.1061072 286.991107,41.1061072 Z" id="Interior" fill="#E6E6E6"></path>
                        </g>
                        <g id="Lines">
                            <path d="M220.324319,102.996293 C220.560266,102.996293 220.751758,103.187755 220.751758,103.423664 L220.751758,103.423664 L220.751758,120.091114 L234.002384,120.091114 C234.238331,120.091114 234.429824,120.282576 234.429824,120.518484 C234.429824,120.754393 234.238331,120.945855 234.002384,120.945855 L234.002384,120.945855 L220.751758,120.945855 L220.751758,137.613304 C220.751758,137.849213 220.560266,138.040675 220.324319,138.040675 C220.088372,138.040675 219.896879,137.849213 219.896879,137.613304 L219.896879,137.613304 L219.896879,120.945855 L206.646254,120.945855 C206.410307,120.945855 206.218814,120.754393 206.218814,120.518484 C206.218814,120.282576 206.410307,120.091114 206.646254,120.091114 L206.646254,120.091114 L219.896879,120.091114 L219.896879,103.423664 C219.896879,103.187755 220.088372,102.996293 220.324319,102.996293 Z M316.070775,102.996293 C316.306721,102.996293 316.498214,103.187755 316.498214,103.423664 L316.498214,103.423664 L316.498214,120.091114 L329.74884,120.091114 C329.984786,120.091114 330.176279,120.282576 330.176279,120.518484 C330.176279,120.754393 329.984786,120.945855 329.74884,120.945855 L329.74884,120.945855 L316.498214,120.945855 L316.498214,137.613304 C316.498214,137.849213 316.306721,138.040675 316.070775,138.040675 C315.834828,138.040675 315.643335,137.849213 315.643335,137.613304 L315.643335,137.613304 L315.643335,120.945855 L302.39271,120.945855 C302.156763,120.945855 301.96527,120.754393 301.96527,120.518484 C301.96527,120.282576 302.156763,120.091114 302.39271,120.091114 L302.39271,120.091114 L315.643335,120.091114 L315.643335,103.423664 C315.643335,103.187755 315.834828,102.996293 316.070775,102.996293 Z M268.199513,20.9420098 C268.277307,20.9420098 268.345697,20.9685067 268.409813,21.0052606 C268.416652,21.0103891 268.426911,21.0078248 268.434605,21.0129533 L268.434605,21.0129533 L288.951702,34.6888096 C289.070531,34.7683005 289.14234,34.9016401 289.14234,35.0443819 L289.14234,35.0443819 L289.14234,76.0719509 C289.14234,76.3078594 288.950848,76.4993214 288.714901,76.4993214 C288.478099,76.4993214 288.287461,76.3078594 288.287461,76.0719509 L288.287461,76.0719509 L288.287461,35.2734525 L268.625243,22.1677084 L268.625243,76.0719509 C268.625243,76.3078594 268.43375,76.4993214 268.197803,76.4993214 C267.961002,76.4993214 267.770364,76.3078594 267.770364,76.0719509 L267.770364,76.0719509 L267.770364,22.1677084 L248.108145,35.2734525 L248.108145,76.0719509 C248.108145,76.3078594 247.916652,76.4993214 247.680706,76.4993214 C247.443904,76.4993214 247.253266,76.3078594 247.253266,76.0719509 L247.253266,76.0719509 L247.253266,35.0443819 C247.253266,34.9016401 247.325076,34.7683005 247.443049,34.6888096 L247.443049,34.6888096 L267.960147,21.0129533 C267.967841,21.0078248 267.978099,21.0103891 267.985793,21.0052606 C268.049054,20.9685067 268.117445,20.9420098 268.196093,20.9420098 L268.196093,20.9420098 Z M309.231742,48.2928677 C309.467689,48.2928677 309.659182,48.4843297 309.659182,48.7202382 L309.659182,48.7202382 L309.659182,76.0719509 C309.659182,76.3078594 309.467689,76.4993214 309.231742,76.4993214 C308.995796,76.4993214 308.804303,76.3078594 308.804303,76.0719509 L308.804303,76.0719509 L308.804303,48.7202382 C308.804303,48.4843297 308.995796,48.2928677 309.231742,48.2928677 Z M227.163351,48.2928677 C227.399298,48.2928677 227.590791,48.4843297 227.590791,48.7202382 L227.590791,48.7202382 L227.590791,76.0719509 C227.590791,76.3078594 227.399298,76.4993214 227.163351,76.4993214 C226.927405,76.4993214 226.735912,76.3078594 226.735912,76.0719509 L226.735912,76.0719509 L226.735912,48.7202382 C226.735912,48.4843297 226.927405,48.2928677 227.163351,48.2928677 Z" id="Window-Deets" fill="#C3C3C3"></path>
                            <path d="M42.5094724,150.86179 C42.745419,150.86179 42.9369119,151.053252 42.9369119,151.289161 C42.9369119,151.525069 42.745419,151.716531 42.5094724,151.716531 L42.5094724,151.716531 L15.1533421,151.716531 C14.9173955,151.716531 14.7259026,151.525069 14.7259026,151.289161 C14.7259026,151.053252 14.9173955,150.86179 15.1533421,150.86179 L15.1533421,150.86179 Z M179.290124,150.86179 C179.52607,150.86179 179.717563,151.053252 179.717563,151.289161 C179.717563,151.525069 179.52607,151.716531 179.290124,151.716531 L179.290124,151.716531 L151.933993,151.716531 C151.698047,151.716531 151.506554,151.525069 151.506554,151.289161 C151.506554,151.053252 151.698047,150.86179 151.933993,150.86179 L151.933993,150.86179 Z M42.5094724,144.023862 C42.745419,144.023862 42.9369119,144.215324 42.9369119,144.451233 C42.9369119,144.687141 42.745419,144.878603 42.5094724,144.878603 L42.5094724,144.878603 L15.1533421,144.878603 C14.9173955,144.878603 14.7259026,144.687141 14.7259026,144.451233 C14.7259026,144.215324 14.9173955,144.023862 15.1533421,144.023862 L15.1533421,144.023862 Z M179.290124,144.023862 C179.52607,144.023862 179.717563,144.215324 179.717563,144.451233 C179.717563,144.687141 179.52607,144.878603 179.290124,144.878603 L179.290124,144.878603 L151.933993,144.878603 C151.698047,144.878603 151.506554,144.687141 151.506554,144.451233 C151.506554,144.215324 151.698047,144.023862 151.933993,144.023862 L151.933993,144.023862 Z M42.5094724,137.185934 C42.745419,137.185934 42.9369119,137.377396 42.9369119,137.613304 C42.9369119,137.849213 42.745419,138.040675 42.5094724,138.040675 L42.5094724,138.040675 L15.1533421,138.040675 C14.9173955,138.040675 14.7259026,137.849213 14.7259026,137.613304 C14.7259026,137.377396 14.9173955,137.185934 15.1533421,137.185934 L15.1533421,137.185934 Z M179.290124,137.185934 C179.52607,137.185934 179.717563,137.377396 179.717563,137.613304 C179.717563,137.849213 179.52607,138.040675 179.290124,138.040675 L179.290124,138.040675 L151.933993,138.040675 C151.698047,138.040675 151.506554,137.849213 151.506554,137.613304 C151.506554,137.377396 151.698047,137.185934 151.933993,137.185934 L151.933993,137.185934 Z M42.5094724,130.348006 C42.745419,130.348006 42.9369119,130.539468 42.9369119,130.775376 C42.9369119,131.011285 42.745419,131.202747 42.5094724,131.202747 L42.5094724,131.202747 L15.1533421,131.202747 C14.9173955,131.202747 14.7259026,131.011285 14.7259026,130.775376 C14.7259026,130.539468 14.9173955,130.348006 15.1533421,130.348006 L15.1533421,130.348006 Z M179.290124,130.348006 C179.52607,130.348006 179.717563,130.539468 179.717563,130.775376 C179.717563,131.011285 179.52607,131.202747 179.290124,131.202747 L179.290124,131.202747 L151.933993,131.202747 C151.698047,131.202747 151.506554,131.011285 151.506554,130.775376 C151.506554,130.539468 151.698047,130.348006 151.933993,130.348006 L151.933993,130.348006 Z M42.5094724,123.510078 C42.745419,123.510078 42.9369119,123.70154 42.9369119,123.937448 C42.9369119,124.173357 42.745419,124.364819 42.5094724,124.364819 L42.5094724,124.364819 L15.1533421,124.364819 C14.9173955,124.364819 14.7259026,124.173357 14.7259026,123.937448 C14.7259026,123.70154 14.9173955,123.510078 15.1533421,123.510078 L15.1533421,123.510078 Z M179.290124,123.510078 C179.52607,123.510078 179.717563,123.70154 179.717563,123.937448 C179.717563,124.173357 179.52607,124.364819 179.290124,124.364819 L179.290124,124.364819 L151.933993,124.364819 C151.698047,124.364819 151.506554,124.173357 151.506554,123.937448 C151.506554,123.70154 151.698047,123.510078 151.933993,123.510078 L151.933993,123.510078 Z M42.5094724,116.672149 C42.745419,116.672149 42.9369119,116.863611 42.9369119,117.09952 C42.9369119,117.335428 42.745419,117.52689 42.5094724,117.52689 L42.5094724,117.52689 L15.1533421,117.52689 C14.9173955,117.52689 14.7259026,117.335428 14.7259026,117.09952 C14.7259026,116.863611 14.9173955,116.672149 15.1533421,116.672149 L15.1533421,116.672149 Z M179.290124,116.672149 C179.52607,116.672149 179.717563,116.863611 179.717563,117.09952 C179.717563,117.335428 179.52607,117.52689 179.290124,117.52689 L179.290124,117.52689 L151.933993,117.52689 C151.698047,117.52689 151.506554,117.335428 151.506554,117.09952 C151.506554,116.863611 151.698047,116.672149 151.933993,116.672149 L151.933993,116.672149 Z M42.5094724,109.834221 C42.745419,109.834221 42.9369119,110.025683 42.9369119,110.261592 C42.9369119,110.4975 42.745419,110.688962 42.5094724,110.688962 L42.5094724,110.688962 L15.1533421,110.688962 C14.9173955,110.688962 14.7259026,110.4975 14.7259026,110.261592 C14.7259026,110.025683 14.9173955,109.834221 15.1533421,109.834221 L15.1533421,109.834221 Z M179.290124,109.834221 C179.52607,109.834221 179.717563,110.025683 179.717563,110.261592 C179.717563,110.4975 179.52607,110.688962 179.290124,110.688962 L179.290124,110.688962 L151.933993,110.688962 C151.698047,110.688962 151.506554,110.4975 151.506554,110.261592 C151.506554,110.025683 151.698047,109.834221 151.933993,109.834221 L151.933993,109.834221 Z M179.290124,102.996293 C179.52607,102.996293 179.717563,103.187755 179.717563,103.423664 C179.717563,103.659572 179.52607,103.851034 179.290124,103.851034 L179.290124,103.851034 L15.1533421,103.851034 C14.9173955,103.851034 14.7259026,103.659572 14.7259026,103.423664 C14.7259026,103.187755 14.9173955,102.996293 15.1533421,102.996293 L15.1533421,102.996293 Z M179.290124,96.1583649 C179.52607,96.1583649 179.717563,96.3498269 179.717563,96.5857354 C179.717563,96.821644 179.52607,97.0131059 179.290124,97.0131059 L179.290124,97.0131059 L15.1533421,97.0131059 C14.9173955,97.0131059 14.7259026,96.821644 14.7259026,96.5857354 C14.7259026,96.3498269 14.9173955,96.1583649 15.1533421,96.1583649 L15.1533421,96.1583649 Z M179.290124,89.3204368 C179.52607,89.3204368 179.717563,89.5118987 179.717563,89.7478073 C179.717563,89.9837158 179.52607,90.1751778 179.290124,90.1751778 L179.290124,90.1751778 L77.6817619,90.1751778 C77.4449604,90.1751778 77.2543224,89.9837158 77.2543224,89.7478073 C77.2543224,89.5118987 77.4449604,89.3204368 77.6817619,89.3204368 L77.6817619,89.3204368 Z M179.290209,82.4825086 C179.526156,82.4825086 179.717649,82.6739706 179.717649,82.9098791 C179.717649,83.1457876 179.526156,83.3372496 179.290209,83.3372496 L179.290209,83.3372496 L153.888332,83.3372496 C153.652386,83.3372496 153.460893,83.1457876 153.460893,82.9098791 C153.460893,82.6739706 153.652386,82.4825086 153.888332,82.4825086 L153.888332,82.4825086 Z M350.265937,55.1307959 C350.501884,55.1307959 350.693377,55.3222579 350.693377,55.5581664 C350.693377,55.7940749 350.501884,55.9855369 350.265937,55.9855369 L350.265937,55.9855369 L340.007389,55.9855369 C339.771442,55.9855369 339.579949,55.7940749 339.579949,55.5581664 C339.579949,55.3222579 339.771442,55.1307959 340.007389,55.1307959 L340.007389,55.1307959 Z M350.265937,48.2928677 C350.501884,48.2928677 350.693377,48.4843297 350.693377,48.7202382 C350.693377,48.9561467 350.501884,49.1476087 350.265937,49.1476087 L350.265937,49.1476087 L329.74884,49.1476087 C329.512893,49.1476087 329.3214,48.9561467 329.3214,48.7202382 C329.3214,48.4843297 329.512893,48.2928677 329.74884,48.2928677 L329.74884,48.2928677 Z M350.265937,41.4549395 C350.501884,41.4549395 350.693377,41.6464015 350.693377,41.8823101 C350.693377,42.1182186 350.501884,42.3096806 350.265937,42.3096806 L350.265937,42.3096806 L319.490291,42.3096806 C319.254344,42.3096806 319.062851,42.1182186 319.062851,41.8823101 C319.062851,41.6464015 319.254344,41.4549395 319.490291,41.4549395 L319.490291,41.4549395 Z" id="Siding" fill="#E6E6E6"></path>
                            <path d="M206.646254,68.8066522 C206.8822,68.8066522 207.073693,68.9981142 207.073693,69.2340227 L207.073693,69.2340227 L207.073693,76.0719509 C207.073693,76.3078594 206.8822,76.4993214 206.646254,76.4993214 L206.646254,76.4993214 L200.234661,76.4993214 L200.234661,82.4825086 L336.160433,82.4825086 L336.159684,76.4992987 L329.74884,76.4993214 C329.512893,76.4993214 329.3214,76.3078594 329.3214,76.0719509 L329.3214,69.2340227 C329.3214,68.9981142 329.512893,68.8066522 329.74884,68.8066522 L343.426905,68.8066522 C343.662852,68.8066522 343.854344,68.9981142 343.854344,69.2340227 L343.853684,75.6442987 L350.265937,75.6445804 C350.475668,75.6445804 350.650274,75.795859 350.686486,75.9951626 L350.693377,76.0719509 L350.693377,82.4825086 L357.10497,82.4825086 C357.340917,82.4825086 357.53241,82.6739706 357.53241,82.9098791 L357.53241,82.9098791 L357.53241,89.7478073 C357.53241,89.9837158 357.340917,90.1751778 357.10497,90.1751778 L357.10497,90.1751778 L350.693377,90.1751778 L350.693377,96.1583649 L357.10497,96.1583649 C357.340917,96.1583649 357.53241,96.3498269 357.53241,96.5857354 L357.53241,96.5857354 L357.53241,103.423664 C357.53241,103.659572 357.340917,103.851034 357.10497,103.851034 L357.10497,103.851034 L350.693377,103.851034 L350.693377,109.834221 L357.10497,109.834221 C357.340917,109.834221 357.53241,110.025683 357.53241,110.261592 L357.53241,110.261592 L357.53241,117.09952 C357.53241,117.335428 357.340917,117.52689 357.10497,117.52689 L357.10497,117.52689 L350.693377,117.52689 L350.693377,123.510078 L357.10497,123.510078 C357.340917,123.510078 357.53241,123.70154 357.53241,123.937448 L357.53241,123.937448 L357.53241,130.775376 C357.53241,131.011285 357.340917,131.202747 357.10497,131.202747 L357.10497,131.202747 L350.693377,131.202747 L350.693377,137.185934 L357.10497,137.185934 C357.340917,137.185934 357.53241,137.377396 357.53241,137.613304 L357.53241,137.613304 L357.53241,144.451233 C357.53241,144.687141 357.340917,144.878603 357.10497,144.878603 L357.10497,144.878603 L350.693377,144.878603 L350.693377,150.86179 L357.10497,150.86179 C357.340917,150.86179 357.53241,151.053252 357.53241,151.289161 L357.53241,151.289161 L357.53241,158.127089 C357.53241,158.362998 357.340917,158.554459 357.10497,158.554459 L357.10497,158.554459 L288.714644,158.554459 C288.478698,158.554459 288.287205,158.362998 288.287205,158.127089 L288.287205,158.127089 L288.287205,151.716531 L281.875612,151.716531 C281.639665,151.716531 281.448172,151.525069 281.448172,151.289161 L281.448172,151.289161 L281.448172,130.775376 C281.448172,130.539468 281.639665,130.348006 281.875612,130.348006 L281.875612,130.348006 L288.287205,130.348006 L288.287205,124.364819 L281.875612,124.364819 C281.639665,124.364819 281.448172,124.173357 281.448172,123.937448 L281.448172,123.937448 L281.448172,117.09952 C281.448172,116.863611 281.639665,116.672149 281.875612,116.672149 L281.875612,116.672149 L288.287205,116.672149 L288.287205,110.688962 L281.875612,110.688962 C281.639665,110.688962 281.448172,110.4975 281.448172,110.261592 L281.448172,110.261592 L281.448172,103.851034 L254.946921,103.851034 L254.946921,110.261592 C254.946921,110.4975 254.755428,110.688962 254.519482,110.688962 L254.519482,110.688962 L248.107889,110.688962 L248.107889,116.672149 L254.519482,116.672149 C254.755428,116.672149 254.946921,116.863611 254.946921,117.09952 L254.946921,117.09952 L254.946921,123.937448 C254.946921,124.173357 254.755428,124.364819 254.519482,124.364819 L254.519482,124.364819 L248.107889,124.364819 L248.107889,130.348006 L254.519482,130.348006 C254.755428,130.348006 254.946921,130.539468 254.946921,130.775376 L254.946921,130.775376 L254.946921,158.127089 C254.946921,158.362998 254.755428,158.554459 254.519482,158.554459 L254.519482,158.554459 L179.290124,158.554459 C179.054177,158.554459 178.862684,158.362998 178.862684,158.127089 L178.862684,158.127089 L178.862684,151.289161 C178.862684,151.053252 179.054177,150.86179 179.290124,150.86179 L179.290124,150.86179 L185.701717,150.86179 L185.701717,144.878603 L179.290124,144.878603 C179.054177,144.878603 178.862684,144.687141 178.862684,144.451233 L178.862684,144.451233 L178.862684,137.613304 C178.862684,137.377396 179.054177,137.185934 179.290124,137.185934 L179.290124,137.185934 L185.701717,137.185934 L185.701717,131.202747 L179.290124,131.202747 C179.054177,131.202747 178.862684,131.011285 178.862684,130.775376 L178.862684,130.775376 L178.862684,123.937448 C178.862684,123.70154 179.054177,123.510078 179.290124,123.510078 L179.290124,123.510078 L185.701717,123.510078 L185.701717,117.52689 L179.290124,117.52689 C179.054177,117.52689 178.862684,117.335428 178.862684,117.09952 L178.862684,117.09952 L178.862684,110.261592 C178.862684,110.025683 179.054177,109.834221 179.290124,109.834221 L179.290124,109.834221 L185.701717,109.834221 L185.701717,103.851034 L179.290124,103.851034 C179.054177,103.851034 178.862684,103.659572 178.862684,103.423664 L178.862684,103.423664 L178.862684,96.5857354 C178.862684,96.3498269 179.054177,96.1583649 179.290124,96.1583649 L179.290124,96.1583649 L185.701717,96.1583649 L185.701717,90.1751778 L179.290124,90.1751778 C179.054177,90.1751778 178.862684,89.9837158 178.862684,89.7478073 L178.862684,89.7478073 L178.862684,82.9098791 C178.862684,82.6739706 179.054177,82.4825086 179.290124,82.4825086 L179.290124,82.4825086 L185.701717,82.4825086 L185.701717,76.0719509 C185.701717,75.8360424 185.893209,75.6445804 186.129156,75.6445804 L186.129156,75.6445804 L192.540749,75.6445804 L192.540749,69.2340227 C192.540749,68.9981142 192.732242,68.8066522 192.968189,68.8066522 L192.968189,68.8066522 Z M315.643335,151.716531 L302.820149,151.716531 L302.820149,157.699718 L315.643335,157.699718 L315.643335,151.716531 Z M329.3214,151.716531 L316.498214,151.716531 L316.498214,157.699718 L329.3214,157.699718 L329.3214,151.716531 Z M342.999465,151.716531 L330.176279,151.716531 L330.176279,157.699718 L342.999465,157.699718 L342.999465,151.716531 Z M192.540749,151.716531 L179.717563,151.716531 L179.717563,157.699718 L192.540749,157.699718 L192.540749,151.716531 Z M206.218814,151.716531 L193.395628,151.716531 L193.395628,157.699718 L206.218814,157.699718 L206.218814,151.716531 Z M219.896879,151.716531 L207.073693,151.716531 L207.073693,157.699718 L219.896879,157.699718 L219.896879,151.716531 Z M233.574944,151.716531 L220.751758,151.716531 L220.751758,157.699718 L233.574944,157.699718 L233.574944,151.716531 Z M247.25301,151.716531 L234.429824,151.716531 L234.429824,157.699718 L247.25301,157.699718 L247.25301,151.716531 Z M254.092042,151.716531 L248.107889,151.716531 L248.107889,157.699718 L254.092042,157.699718 L254.092042,151.716531 Z M301.96527,151.716531 L289.142084,151.716531 L289.142084,157.699718 L301.96527,157.699718 L301.96527,151.716531 Z M356.677531,151.716531 L343.854344,151.716531 L343.854344,157.699718 L356.677531,157.699718 L356.677531,151.716531 Z M226.735912,144.878603 L213.912726,144.878603 L213.912726,150.86179 L226.735912,150.86179 L226.735912,144.878603 Z M240.413977,144.878603 L227.590791,144.878603 L227.590791,150.86179 L240.413977,150.86179 L240.413977,144.878603 Z M322.482368,144.878603 L309.659182,144.878603 L309.659182,150.86179 L322.482368,150.86179 L322.482368,144.878603 Z M349.838498,144.878603 L337.015312,144.878603 L337.015312,150.86179 L349.838498,150.86179 L349.838498,144.878603 Z M295.126237,144.878603 L282.303051,144.878603 L282.303051,150.86179 L295.126237,150.86179 L295.126237,144.878603 Z M254.092042,144.878603 L241.268856,144.878603 L241.268856,150.86179 L254.092042,150.86179 L254.092042,144.878603 Z M308.804303,144.878603 L295.981117,144.878603 L295.981117,150.86179 L308.804303,150.86179 L308.804303,144.878603 Z M336.160433,144.878603 L323.337247,144.878603 L323.337247,150.86179 L336.160433,150.86179 L336.160433,144.878603 Z M199.379782,144.878603 L186.556596,144.878603 L186.556596,150.86179 L199.379782,150.86179 L199.379782,144.878603 Z M213.057847,144.878603 L200.234661,144.878603 L200.234661,150.86179 L213.057847,150.86179 L213.057847,144.878603 Z M356.677531,138.040675 L343.854344,138.040675 L343.854344,144.023862 L356.677531,144.023862 L356.677531,138.040675 Z M192.540749,138.040675 L179.717563,138.040675 L179.717563,144.023862 L192.540749,144.023862 L192.540749,138.040675 Z M254.092042,138.040675 L248.107889,138.040675 L248.107889,144.023862 L254.092042,144.023862 L254.092042,138.040675 Z M336.160433,103.851034 L295.981117,103.851034 L295.981117,109.834221 L302.39271,109.834221 C302.628656,109.834221 302.820149,110.025683 302.820149,110.261592 L302.820149,110.261592 L302.820149,117.09952 C302.820149,117.335428 302.628656,117.52689 302.39271,117.52689 L302.39271,117.52689 L295.981117,117.52689 L295.981117,123.510078 L302.39271,123.510078 C302.628656,123.510078 302.820149,123.70154 302.820149,123.937448 L302.820149,123.937448 L302.820149,130.775376 C302.820149,131.011285 302.628656,131.202747 302.39271,131.202747 L302.39271,131.202747 L295.981117,131.202747 L295.981117,137.613304 C295.981117,137.849213 295.789624,138.040675 295.553677,138.040675 L295.553677,138.040675 L289.142084,138.040675 L289.142084,144.023862 L342.999465,144.023862 L342.999465,138.040675 L336.587872,138.040675 C336.351926,138.040675 336.160433,137.849213 336.160433,137.613304 L336.160433,137.613304 L336.160433,131.202747 L329.74884,131.202747 C329.512893,131.202747 329.3214,131.011285 329.3214,130.775376 L329.3214,130.775376 L329.3214,123.937448 C329.3214,123.70154 329.512893,123.510078 329.74884,123.510078 L329.74884,123.510078 L336.160433,123.510078 L336.160433,117.52689 L329.74884,117.52689 C329.512893,117.52689 329.3214,117.335428 329.3214,117.09952 L329.3214,117.09952 L329.3214,110.261592 C329.3214,110.025683 329.512893,109.834221 329.74884,109.834221 L329.74884,109.834221 L336.160433,109.834221 L336.160433,103.851034 Z M288.287205,138.040675 L282.303051,138.040675 L282.303051,144.023862 L288.287205,144.023862 L288.287205,138.040675 Z M240.413977,103.851034 L200.234661,103.851034 L200.234661,109.834221 L206.646254,109.834221 C206.8822,109.834221 207.073693,110.025683 207.073693,110.261592 L207.073693,110.261592 L207.073693,117.09952 C207.073693,117.335428 206.8822,117.52689 206.646254,117.52689 L206.646254,117.52689 L200.234661,117.52689 L200.234661,123.510078 L206.646254,123.510078 C206.8822,123.510078 207.073693,123.70154 207.073693,123.937448 L207.073693,123.937448 L207.073693,130.775376 C207.073693,131.011285 206.8822,131.202747 206.646254,131.202747 L206.646254,131.202747 L200.234661,131.202747 L200.234661,137.613304 C200.234661,137.849213 200.043168,138.040675 199.807221,138.040675 L199.807221,138.040675 L193.395628,138.040675 L193.395628,144.023862 L247.25301,144.023862 L247.25301,138.040675 L240.841417,138.040675 C240.60547,138.040675 240.413977,137.849213 240.413977,137.613304 L240.413977,137.613304 L240.413977,131.202747 L234.002384,131.202747 C233.766437,131.202747 233.574944,131.011285 233.574944,130.775376 L233.574944,130.775376 L233.574944,123.937448 C233.574944,123.70154 233.766437,123.510078 234.002384,123.510078 L234.002384,123.510078 L240.413977,123.510078 L240.413977,117.52689 L234.002384,117.52689 C233.766437,117.52689 233.574944,117.335428 233.574944,117.09952 L233.574944,117.09952 L233.574944,110.261592 C233.574944,110.025683 233.766437,109.834221 234.002384,109.834221 L234.002384,109.834221 L240.413977,109.834221 L240.413977,103.851034 Z M254.092042,131.202747 L241.268856,131.202747 L241.268856,137.185934 L254.092042,137.185934 L254.092042,131.202747 Z M349.838498,131.202747 L337.015312,131.202747 L337.015312,137.185934 L349.838498,137.185934 L349.838498,131.202747 Z M199.379782,131.202747 L186.556596,131.202747 L186.556596,137.185934 L199.379782,137.185934 L199.379782,131.202747 Z M295.126237,131.202747 L282.303051,131.202747 L282.303051,137.185934 L295.126237,137.185934 L295.126237,131.202747 Z M301.96527,124.364819 L289.142084,124.364819 L289.142084,130.348006 L301.96527,130.348006 L301.96527,124.364819 Z M342.999465,124.364819 L330.176279,124.364819 L330.176279,130.348006 L342.999465,130.348006 L342.999465,124.364819 Z M206.218814,124.364819 L193.395628,124.364819 L193.395628,130.348006 L206.218814,130.348006 L206.218814,124.364819 Z M247.25301,124.364819 L234.429824,124.364819 L234.429824,130.348006 L247.25301,130.348006 L247.25301,124.364819 Z M356.677531,124.364819 L343.854344,124.364819 L343.854344,130.348006 L356.677531,130.348006 L356.677531,124.364819 Z M192.540749,124.364819 L179.717563,124.364819 L179.717563,130.348006 L192.540749,130.348006 L192.540749,124.364819 Z M254.092042,117.52689 L241.268856,117.52689 L241.268856,123.510078 L254.092042,123.510078 L254.092042,117.52689 Z M295.126237,117.52689 L282.303051,117.52689 L282.303051,123.510078 L295.126237,123.510078 L295.126237,117.52689 Z M349.838498,117.52689 L337.015312,117.52689 L337.015312,123.510078 L349.838498,123.510078 L349.838498,117.52689 Z M199.379782,117.52689 L186.556596,117.52689 L186.556596,123.510078 L199.379782,123.510078 L199.379782,117.52689 Z M192.540749,110.688962 L179.717563,110.688962 L179.717563,116.672149 L192.540749,116.672149 L192.540749,110.688962 Z M356.677531,110.688962 L343.854344,110.688962 L343.854344,116.672149 L356.677531,116.672149 L356.677531,110.688962 Z M301.96527,110.688962 L289.142084,110.688962 L289.142084,116.672149 L301.96527,116.672149 L301.96527,110.688962 Z M247.25301,110.688962 L234.429824,110.688962 L234.429824,116.672149 L247.25301,116.672149 L247.25301,110.688962 Z M206.218814,110.688962 L193.395628,110.688962 L193.395628,116.672149 L206.218814,116.672149 L206.218814,110.688962 Z M342.999465,110.688962 L330.176279,110.688962 L330.176279,116.672149 L342.999465,116.672149 L342.999465,110.688962 Z M295.126237,103.851034 L282.303051,103.851034 L282.303051,109.834221 L295.126237,109.834221 L295.126237,103.851034 Z M349.838498,103.851034 L337.015312,103.851034 L337.015312,109.834221 L349.838498,109.834221 L349.838498,103.851034 Z M254.092042,103.851034 L241.268856,103.851034 L241.268856,109.834221 L254.092042,109.834221 L254.092042,103.851034 Z M199.379782,103.851034 L186.556596,103.851034 L186.556596,109.834221 L199.379782,109.834221 L199.379782,103.851034 Z M288.287205,97.0131059 L275.464019,97.0131059 L275.464019,102.996293 L288.287205,102.996293 L288.287205,97.0131059 Z M315.643335,97.0131059 L302.820149,97.0131059 L302.820149,102.996293 L315.643335,102.996293 L315.643335,97.0131059 Z M206.218814,97.0131059 L193.395628,97.0131059 L193.395628,102.996293 L206.218814,102.996293 L206.218814,97.0131059 Z M233.574944,97.0131059 L220.751758,97.0131059 L220.751758,102.996293 L233.574944,102.996293 L233.574944,97.0131059 Z M247.25301,97.0131059 L234.429824,97.0131059 L234.429824,102.996293 L247.25301,102.996293 L247.25301,97.0131059 Z M260.931075,97.0131059 L248.107889,97.0131059 L248.107889,102.996293 L260.931075,102.996293 L260.931075,97.0131059 Z M342.999465,97.0131059 L330.176279,97.0131059 L330.176279,102.996293 L342.999465,102.996293 L342.999465,97.0131059 Z M356.677531,97.0131059 L343.854344,97.0131059 L343.854344,102.996293 L356.677531,102.996293 L356.677531,97.0131059 Z M301.96527,97.0131059 L289.142084,97.0131059 L289.142084,102.996293 L301.96527,102.996293 L301.96527,97.0131059 Z M219.896879,97.0131059 L207.073693,97.0131059 L207.073693,102.996293 L219.896879,102.996293 L219.896879,97.0131059 Z M329.3214,97.0131059 L316.498214,97.0131059 L316.498214,102.996293 L329.3214,102.996293 L329.3214,97.0131059 Z M192.540749,97.0131059 L179.717563,97.0131059 L179.717563,102.996293 L192.540749,102.996293 L192.540749,97.0131059 Z M274.60914,97.0131059 L261.785954,97.0131059 L261.785954,102.996293 L274.60914,102.996293 L274.60914,97.0131059 Z M281.448172,90.1751778 L268.624986,90.1751778 L268.624986,96.1583649 L281.448172,96.1583649 L281.448172,90.1751778 Z M240.413977,90.1751778 L227.590791,90.1751778 L227.590791,96.1583649 L240.413977,96.1583649 L240.413977,90.1751778 Z M349.838498,90.1751778 L337.015312,90.1751778 L337.015312,96.1583649 L349.838498,96.1583649 L349.838498,90.1751778 Z M199.379782,90.1751778 L186.556596,90.1751778 L186.556596,96.1583649 L199.379782,96.1583649 L199.379782,90.1751778 Z M226.735912,90.1751778 L213.912726,90.1751778 L213.912726,96.1583649 L226.735912,96.1583649 L226.735912,90.1751778 Z M213.057847,90.1751778 L200.234661,90.1751778 L200.234661,96.1583649 L213.057847,96.1583649 L213.057847,90.1751778 Z M254.092042,90.1751778 L241.268856,90.1751778 L241.268856,96.1583649 L254.092042,96.1583649 L254.092042,90.1751778 Z M295.126237,90.1751778 L282.303051,90.1751778 L282.303051,96.1583649 L295.126237,96.1583649 L295.126237,90.1751778 Z M308.804303,90.1751778 L295.981117,90.1751778 L295.981117,96.1583649 L308.804303,96.1583649 L308.804303,90.1751778 Z M322.482368,90.1751778 L309.659182,90.1751778 L309.659182,96.1583649 L322.482368,96.1583649 L322.482368,90.1751778 Z M336.160433,90.1751778 L323.337247,90.1751778 L323.337247,96.1583649 L336.160433,96.1583649 L336.160433,90.1751778 Z M267.770107,90.1751778 L254.946921,90.1751778 L254.946921,96.1583649 L267.770107,96.1583649 L267.770107,90.1751778 Z M356.677531,83.3372496 L343.854344,83.3372496 L343.854344,89.3204368 L356.677531,89.3204368 L356.677531,83.3372496 Z M233.574944,83.3372496 L220.751758,83.3372496 L220.751758,89.3204368 L233.574944,89.3204368 L233.574944,83.3372496 Z M329.3214,83.3372496 L316.498214,83.3372496 L316.498214,89.3204368 L329.3214,89.3204368 L329.3214,83.3372496 Z M315.643335,83.3372496 L302.820149,83.3372496 L302.820149,89.3204368 L315.643335,89.3204368 L315.643335,83.3372496 Z M301.96527,83.3372496 L289.142084,83.3372496 L289.142084,89.3204368 L301.96527,89.3204368 L301.96527,83.3372496 Z M288.287205,83.3372496 L275.464019,83.3372496 L275.464019,89.3204368 L288.287205,89.3204368 L288.287205,83.3372496 Z M274.60914,83.3372496 L261.785954,83.3372496 L261.785954,89.3204368 L274.60914,89.3204368 L274.60914,83.3372496 Z M260.931075,83.3372496 L248.107889,83.3372496 L248.107889,89.3204368 L260.931075,89.3204368 L260.931075,83.3372496 Z M247.25301,83.3372496 L234.429824,83.3372496 L234.429824,89.3204368 L247.25301,89.3204368 L247.25301,83.3372496 Z M219.896879,83.3372496 L207.073693,83.3372496 L207.073693,89.3204368 L219.896879,89.3204368 L219.896879,83.3372496 Z M206.218814,83.3372496 L193.395628,83.3372496 L193.395628,89.3204368 L206.218814,89.3204368 L206.218814,83.3372496 Z M192.540749,83.3372496 L179.717563,83.3372496 L179.717563,89.3204368 L192.540749,89.3204368 L192.540749,83.3372496 Z M342.999465,83.3372496 L330.176279,83.3372496 L330.176279,89.3204368 L342.999465,89.3204368 L342.999465,83.3372496 Z M349.838498,76.4993214 L337.015312,76.4993214 L337.015312,82.4825086 L349.838498,82.4825086 L349.838498,76.4993214 Z M199.379782,76.4993214 L186.556596,76.4993214 L186.556596,82.4825086 L199.379782,82.4825086 L199.379782,76.4993214 Z M342.999465,69.6613933 L330.176279,69.6613933 L330.176279,75.6445804 L342.999465,75.6445804 L342.999465,69.6613933 Z M206.218814,69.6613933 L193.395628,69.6613933 L193.395628,75.6445804 L206.218814,75.6445804 L206.218814,69.6613933 Z M220.324319,7.26529868 C220.560266,7.26529868 220.751758,7.45676067 220.751758,7.69266919 L220.751758,7.69266919 L220.751758,14.5305974 C220.751758,14.7665059 220.560266,14.9579679 220.324319,14.9579679 L220.324319,14.9579679 L213.912726,14.9579679 L213.912726,20.941155 L220.324319,20.941155 C220.560266,20.941155 220.751758,21.132617 220.751758,21.3685255 L220.751758,21.3685255 L220.751758,28.2064537 C220.751758,28.4423622 220.560266,28.6338242 220.324319,28.6338242 L220.324319,28.6338242 L213.912726,28.6338242 L213.912726,34.6170114 L220.324319,34.6170114 C220.560266,34.6170114 220.751758,34.8084734 220.751758,35.0443819 L220.751758,35.0443819 L220.751758,39.6027158 C220.751758,39.839479 220.560266,40.0300863 220.324319,40.0300863 C220.088372,40.0300863 219.896879,39.839479 219.896879,39.6027158 L219.896879,39.6027158 L219.896879,35.4717524 L207.073693,35.4717524 L207.073693,41.4549395 L216.904803,41.4549395 C217.140749,41.4549395 217.332242,41.6464015 217.332242,41.8823101 C217.332242,42.1182186 217.140749,42.3096806 216.904803,42.3096806 L216.904803,42.3096806 L213.912726,42.3096806 L213.912726,44.1619044 C213.912726,44.3978129 213.721233,44.5892749 213.485286,44.5892749 C213.24934,44.5892749 213.057847,44.3978129 213.057847,44.1619044 L213.057847,44.1619044 L213.057847,42.3096806 L200.234661,42.3096806 L200.234661,48.2928677 L206.646254,48.2928677 C206.8822,48.2928677 207.073693,48.4843297 207.073693,48.7202382 C207.073693,48.9561467 206.8822,49.1476087 206.646254,49.1476087 L206.646254,49.1476087 L193.395628,49.1476087 L193.395628,55.1307959 L196.387705,55.1307959 C196.623652,55.1307959 196.815144,55.3222579 196.815144,55.5581664 C196.815144,55.7940749 196.623652,55.9855369 196.387705,55.9855369 L196.387705,55.9855369 L192.968189,55.9855369 C192.732242,55.9855369 192.540749,55.7940749 192.540749,55.5581664 L192.540749,55.5581664 L192.540749,48.7202382 C192.540749,48.4843297 192.732242,48.2928677 192.968189,48.2928677 L192.968189,48.2928677 L199.379782,48.2928677 L199.379782,42.3096806 L192.968189,42.3096806 C192.732242,42.3096806 192.540749,42.1182186 192.540749,41.8823101 L192.540749,41.8823101 L192.540749,35.0443819 C192.540749,34.8084734 192.732242,34.6170114 192.968189,34.6170114 L192.968189,34.6170114 L199.379782,34.6170114 L199.379782,28.6338242 L192.968189,28.6338242 C192.732242,28.6338242 192.540749,28.4423622 192.540749,28.2064537 L192.540749,28.2064537 L192.540749,21.3685255 C192.540749,21.132617 192.732242,20.941155 192.968189,20.941155 L192.968189,20.941155 L199.379782,20.941155 L199.379782,14.9579679 L192.968189,14.9579679 C192.732242,14.9579679 192.540749,14.7665059 192.540749,14.5305974 L192.540749,14.5305974 L192.540749,7.69266919 C192.540749,7.45676067 192.732242,7.26529868 192.968189,7.26529868 L192.968189,7.26529868 Z M206.218814,35.4717524 L193.395628,35.4717524 L193.395628,41.4549395 L206.218814,41.4549395 L206.218814,35.4717524 Z M213.057847,28.6338242 L200.234661,28.6338242 L200.234661,34.6170114 L213.057847,34.6170114 L213.057847,28.6338242 Z M206.218814,21.795896 L193.395628,21.795896 L193.395628,27.7790832 L206.218814,27.7790832 L206.218814,21.795896 Z M219.896879,21.795896 L207.073693,21.795896 L207.073693,27.7790832 L219.896879,27.7790832 L219.896879,21.795896 Z M213.057847,14.9579679 L200.234661,14.9579679 L200.234661,20.941155 L213.057847,20.941155 L213.057847,14.9579679 Z M206.218814,8.1200397 L193.395628,8.1200397 L193.395628,14.1032269 L206.218814,14.1032269 L206.218814,8.1200397 Z M219.896879,8.1200397 L207.073693,8.1200397 L207.073693,14.1032269 L219.896879,14.1032269 L219.896879,8.1200397 Z" id="Bricks" fill="#E6E6E6"></path>
                            <path d="M179.290124,179.068244 C179.054177,179.068244 178.862684,178.876782 178.862684,178.640874 L178.862684,66.9544284 C178.862684,66.7185199 179.054177,66.5270579 179.290124,66.5270579 C179.52607,66.5270579 179.717563,66.7185199 179.717563,66.9544284 L179.717563,178.640874 C179.717563,178.876782 179.52607,179.068244 179.290124,179.068244" id="Split" fill="#C3C3C3"></path>
                            <path d="M275.036579,133.76697 C275.272526,133.76697 275.464019,133.958432 275.464019,134.19434 L275.464019,151.289161 C275.464019,151.525069 275.272526,151.716531 275.036579,151.716531 L261.358514,151.716531 C261.122568,151.716531 260.931075,151.525069 260.931075,151.289161 L260.931075,134.19434 C260.931075,133.958432 261.122568,133.76697 261.358514,133.76697 L275.036579,133.76697 Z M274.60914,134.621711 L261.785954,134.621711 L261.785954,150.86179 L274.60914,150.86179 L274.60914,134.621711 Z M278.456096,126.929042 C278.692042,126.929042 278.883535,127.120504 278.883535,127.356412 L278.883535,134.19434 C278.883535,134.430249 278.692042,134.621711 278.456096,134.621711 C278.220149,134.621711 278.028656,134.430249 278.028656,134.19434 L278.028656,127.356412 C278.028656,127.120504 278.220149,126.929042 278.456096,126.929042 Z M275.036579,109.834221 C275.272526,109.834221 275.464019,110.025683 275.464019,110.261592 L275.464019,127.356412 C275.464019,127.592321 275.272526,127.783783 275.036579,127.783783 L261.358514,127.783783 C261.122568,127.783783 260.931075,127.592321 260.931075,127.356412 L260.931075,110.261592 C260.931075,110.025683 261.122568,109.834221 261.358514,109.834221 L275.036579,109.834221 Z M274.60914,110.688962 L261.785954,110.688962 L261.785954,126.929042 L274.60914,126.929042 L274.60914,110.688962 Z" id="Door-Deets" fill="#0093E9"></path>
                            <path d="M336.587872,20.941155 C336.823819,20.941155 337.015312,21.132617 337.015312,21.3685255 L337.015312,21.3685255 L337.015312,35.0443819 C337.015312,35.2802904 336.823819,35.4717524 336.587872,35.4717524 C336.351926,35.4717524 336.160433,35.2802904 336.160433,35.0443819 L336.160433,35.0443819 L336.160433,21.3685255 C336.160433,21.132617 336.351926,20.941155 336.587872,20.941155 Z M322.909807,20.941155 C323.145754,20.941155 323.337247,21.132617 323.337247,21.3685255 L323.337247,21.3685255 L323.337247,35.0443819 C323.337247,35.2802904 323.145754,35.4717524 322.909807,35.4717524 C322.673861,35.4717524 322.482368,35.2802904 322.482368,35.0443819 L322.482368,35.0443819 L322.482368,21.3685255 C322.482368,21.132617 322.673861,20.941155 322.909807,20.941155 Z M309.231742,20.941155 C309.467689,20.941155 309.659182,21.132617 309.659182,21.3685255 L309.659182,21.3685255 L309.659182,35.0443819 C309.659182,35.2802904 309.467689,35.4717524 309.231742,35.4717524 C308.995796,35.4717524 308.804303,35.2802904 308.804303,35.0443819 L308.804303,35.0443819 L308.804303,21.3685255 C308.804303,21.132617 308.995796,20.941155 309.231742,20.941155 Z" id="Roof" fill="#C3C3C3"></path>
                            <path d="M227.163351,0.000256422306 C227.6361,0.000256422306 228.018231,0.382325659 228.018231,0.854997444 L228.018231,0.854997444 L228.018231,7.69292562 C228.018231,8.16474266 227.6361,8.54766664 227.163351,8.54766664 L227.163351,8.54766664 L221.179198,8.54766664 L221.179198,38.0054612 L267.723089,6.98178109 C268.010328,6.7903191 268.384765,6.7903191 268.672005,6.98178109 L268.672005,6.98178109 L288.973673,20.5140409 L350.265937,20.5140409 C350.738686,20.5140409 351.120817,20.8961102 351.120817,21.368782 L351.120817,21.368782 L351.120817,61.9382098 L371.257493,75.3610628 C371.495149,75.5191899 371.637914,75.7858691 371.637914,76.0722073 L371.637914,76.0722073 L371.637914,89.7480637 C371.637914,90.0626084 371.464374,90.3523656 371.186538,90.5010905 C371.060016,90.5694698 370.921526,90.6028047 370.783035,90.6028047 C370.617189,90.6028047 370.451342,90.5549392 370.308577,90.4592082 L370.308577,90.4592082 L357.959849,82.2271974 L357.959849,178.64113 C357.959849,179.112947 357.577718,179.495871 357.10497,179.495871 L357.10497,179.495871 L15.1533421,179.495871 C14.680594,179.495871 14.2984631,179.112947 14.2984631,178.64113 L14.2984631,178.64113 L14.2984631,96.2936704 L1.55221614,97.4373139 C1.52656977,97.4390234 1.50006852,97.4407329 1.47527702,97.4407329 C1.26241213,97.4407329 1.05724116,97.361242 0.898233651,97.215936 C0.721273684,97.0543899 0.620397953,96.8253193 0.620397953,96.5859919 L0.620397953,96.5859919 L0.620397953,82.9101355 C0.620397953,82.4673797 0.958930065,82.0981315 1.39833791,82.0588135 L1.39833791,82.0588135 L178.9969,66.1230218 L192.11331,57.3798759 L192.11331,8.54766664 L186.129156,8.54766664 C185.656408,8.54766664 185.274277,8.16474266 185.274277,7.69292562 L185.274277,7.69292562 L185.274277,0.854997444 C185.274277,0.382325659 185.656408,0.000256422306 186.129156,0.000256422306 L186.129156,0.000256422306 Z M356.250091,158.982086 L289.569524,158.982086 L289.569524,164.110533 L295.553677,164.110533 C296.026425,164.110533 296.408556,164.492602 296.408556,164.965274 L296.408556,164.965274 L296.408556,170.948461 L302.39271,170.948461 C302.865458,170.948461 303.247589,171.33053 303.247589,171.803202 L303.247589,171.803202 L303.247589,177.786389 L356.250091,177.786389 L356.250091,158.982086 Z M41.6545933,158.982086 L16.0082212,158.982086 L16.0082212,177.786389 L41.6545933,177.786389 L41.6545933,158.982086 Z M151.079114,165.820015 L43.3643514,165.820015 L43.3643514,177.786389 L151.079114,177.786389 L151.079114,165.820015 Z M301.537831,172.657943 L234.857263,172.657943 L234.857263,177.786389 L301.537831,177.786389 L301.537831,172.657943 Z M246.82557,158.982086 L152.788872,158.982086 L152.788872,177.786389 L233.147505,177.786389 L233.147505,171.803202 C233.147505,171.33053 233.529636,170.948461 234.002384,170.948461 L234.002384,170.948461 L239.986537,170.948461 L239.986537,164.965274 C239.986537,164.492602 240.368668,164.110533 240.841417,164.110533 L240.841417,164.110533 L246.82557,164.110533 L246.82557,158.982086 Z M104.060765,170.948204 C104.533514,170.948204 104.915644,171.331128 104.915644,171.802945 C104.915644,172.274762 104.533514,172.657686 104.060765,172.657686 L104.060765,172.657686 L90.3827003,172.657686 C89.9099522,172.657686 89.5278212,172.274762 89.5278212,171.802945 C89.5278212,171.331128 89.9099522,170.948204 90.3827003,170.948204 L90.3827003,170.948204 Z M294.698798,165.820015 L241.696296,165.820015 L241.696296,170.948461 L294.698798,170.948461 L294.698798,165.820015 Z M287.859765,158.982086 L248.535328,158.982086 L248.535328,164.110533 L287.859765,164.110533 L287.859765,158.982086 Z M151.079114,152.144158 L43.3643514,152.144158 L43.3643514,164.110533 L151.079114,164.110533 L151.079114,152.144158 Z M330.603719,63.9930072 L330.603719,75.2174663 L336.587872,75.2174663 C337.06062,75.2174663 337.442751,75.5995356 337.442751,76.0722073 L337.442751,76.0722073 L337.442751,82.9101355 C337.442751,83.3819526 337.06062,83.7648765 336.587872,83.7648765 L336.587872,83.7648765 L199.807221,83.7648765 C199.334473,83.7648765 198.952342,83.3819526 198.952342,82.9101355 L198.952342,82.9101355 L198.952342,76.0722073 C198.952342,75.5995356 199.334473,75.2174663 199.807221,75.2174663 L199.807221,75.2174663 L205.791375,75.2174663 L205.791375,63.9930072 L179.764581,81.3416857 C179.750048,81.3510879 179.734661,81.3536521 179.720128,81.3630543 C179.693626,81.3784396 179.664561,81.3886965 179.635495,81.4015176 C179.56454,81.4339978 179.491875,81.4553663 179.417501,81.4673327 C179.399548,81.4698969 179.385015,81.4801538 179.367063,81.4818633 L179.367063,81.4818633 L16.0082212,96.139817 L16.0082212,157.272604 L41.6545933,157.272604 L41.6545933,110.261848 C41.6545933,109.789176 42.0367242,109.407107 42.5094724,109.407107 L42.5094724,109.407107 L151.933993,109.407107 C152.406741,109.407107 152.788872,109.789176 152.788872,110.261848 L152.788872,110.261848 L152.788872,157.272604 L253.664603,157.272604 L253.664603,103.42392 C253.664603,102.951248 254.046734,102.569179 254.519482,102.569179 L254.519482,102.569179 L281.875612,102.569179 C282.34836,102.569179 282.730491,102.951248 282.730491,103.42392 L282.730491,103.42392 L282.730491,157.272604 L356.250091,157.272604 L356.250091,81.0878277 L330.603719,63.9930072 Z M281.020733,104.278661 L255.374361,104.278661 L255.374361,157.272604 L281.020733,157.272604 L281.020733,104.278661 Z M151.079114,138.468302 L43.3643514,138.468302 L43.3643514,150.434676 L151.079114,150.434676 L151.079114,138.468302 Z M329.74884,102.568923 C330.221588,102.568923 330.603719,102.951847 330.603719,103.423664 L330.603719,103.423664 L330.603719,136.758563 L336.587872,136.758563 C337.06062,136.758563 337.442751,137.141487 337.442751,137.613304 L337.442751,137.613304 L337.442751,144.451233 C337.442751,144.92305 337.06062,145.305974 336.587872,145.305974 L336.587872,145.305974 L295.553677,145.305974 C295.080929,145.305974 294.698798,144.92305 294.698798,144.451233 L294.698798,144.451233 L294.698798,137.613304 C294.698798,137.141487 295.080929,136.758563 295.553677,136.758563 L295.553677,136.758563 L301.537831,136.758563 L301.537831,103.423664 C301.537831,102.951847 301.919961,102.568923 302.39271,102.568923 L302.39271,102.568923 Z M234.002384,102.568923 C234.475132,102.568923 234.857263,102.951847 234.857263,103.423664 L234.857263,103.423664 L234.857263,136.758563 L240.841417,136.758563 C241.314165,136.758563 241.696296,137.141487 241.696296,137.613304 L241.696296,137.613304 L241.696296,144.451233 C241.696296,144.92305 241.314165,145.305974 240.841417,145.305974 L240.841417,145.305974 L199.807221,145.305974 C199.334473,145.305974 198.952342,144.92305 198.952342,144.451233 L198.952342,144.451233 L198.952342,137.613304 C198.952342,137.141487 199.334473,136.758563 199.807221,136.758563 L199.807221,136.758563 L205.791375,136.758563 L205.791375,103.423664 C205.791375,102.951847 206.173506,102.568923 206.646254,102.568923 L206.646254,102.568923 Z M335.732993,138.468045 L296.408556,138.468045 L296.408556,143.596492 L335.732993,143.596492 L335.732993,138.468045 Z M239.986537,138.468045 L200.6621,138.468045 L200.6621,143.596492 L239.986537,143.596492 L239.986537,138.468045 Z M328.893961,104.278405 L303.247589,104.278405 L303.247589,136.758563 L328.893961,136.758563 L328.893961,104.278405 Z M233.147505,104.278405 L207.501133,104.278405 L207.501133,136.758563 L233.147505,136.758563 L233.147505,104.278405 Z M137.401049,124.792446 L104.915644,124.792446 L104.915644,136.75882 L137.401049,136.75882 L137.401049,124.792446 Z M55.3326584,124.792446 L43.3643514,124.792446 L43.3643514,136.75882 L55.3326584,136.75882 L55.3326584,124.792446 Z M89.5278212,124.792446 L57.0424166,124.792446 L57.0424166,136.75882 L89.5278212,136.75882 L89.5278212,124.792446 Z M151.079114,124.792446 L139.110807,124.792446 L139.110807,136.75882 L151.079114,136.75882 L151.079114,124.792446 Z M103.205886,124.792446 L91.2375793,124.792446 L91.2375793,136.75882 L103.205886,136.75882 L103.205886,124.792446 Z M151.079114,111.116589 L43.3643514,111.116589 L43.3643514,123.082964 L151.079114,123.082964 L151.079114,111.116589 Z M268.197547,8.71946958 L179.764581,67.6658294 C179.752613,67.6735221 179.738935,67.6735221 179.726967,67.6812147 C179.677384,67.7111307 179.621817,67.7273707 179.565395,67.7470298 C179.512392,67.7658341 179.461099,67.7872026 179.406387,67.7948953 C179.391854,67.7966048 179.380741,67.8051522 179.367063,67.8060069 L179.367063,67.8060069 L2.33015609,83.6913688 L2.33015609,95.6509052 L178.9969,79.7988782 L267.723089,20.6576374 C267.81798,20.5943866 267.923985,20.5516495 268.034265,20.5294263 C268.088122,20.5191694 268.142835,20.5285715 268.197547,20.5285715 C268.252259,20.5285715 268.306971,20.5191694 268.360829,20.5294263 C268.471108,20.5516495 268.576258,20.5935319 268.67115,20.6567827 C268.67115,20.6576374 268.672005,20.6576374 268.672005,20.6576374 L369.928156,88.1505527 L369.928156,76.5294938 L268.197547,8.71946958 Z M335.732993,76.9269484 L200.6621,76.9269484 L200.6621,82.0553945 L335.732993,82.0553945 L335.732993,76.9269484 Z M268.197547,22.3953259 L207.501133,62.8536374 L207.501133,75.2174663 L328.893961,75.2174663 L328.893961,62.8536374 L268.197547,22.3953259 Z M349.411058,35.8993793 L312.055408,35.8993793 L349.411058,60.79884 L349.411058,35.8993793 Z M219.46944,8.54766664 L193.823068,8.54766664 L193.823068,56.2405062 L219.46944,39.1456857 L219.46944,8.54766664 Z M349.411058,22.223523 L291.53831,22.223523 L309.49077,34.1898973 L349.411058,34.1898973 L349.411058,22.223523 Z M226.308472,1.70973847 L186.984035,1.70973847 L186.984035,6.83818459 L226.308472,6.83818459 L226.308472,1.70973847 Z" id="Main" stroke="#FFFFFF" stroke-width="0.582615" fill="#7A7A7A"></path>
                        </g>
                        <path d="M240.72,144.190476 L240.72,151 L199.68,151 L199.68,144.190476 L240.72,144.190476 Z M336.48,144.190476 L336.48,151 L295.44,151 L295.44,144.190476 L336.48,144.190476 Z M15,110.142857 L15,95.3015 L179.16,80.6346369 L268.08,21.6190476 L357,80.6346369 L357,96.5238095 L268.08,35.2380952 L179.16,96.5238095 L15,110.142857 Z M336.48,82.9047619 L336.48,89.7142857 L199.68,89.7142857 L199.68,82.9047619 L336.48,82.9047619 Z M220.2,8 L220.2,14.8095238 L192.84,14.8095238 L192.84,8 L220.2,8 Z" id="Shadows" fill="#C3C3C3" opacity="0.300000012" style="mix-blend-mode: multiply;"></path>
                        <g id="Bushes" transform="translate(165.000000, 150.000000)">
                            <path d="M48.5776553,0.861180543 L48.8863432,0.864641549 C56.2749999,1.03047807 62.2134884,7.13491619 62.2134884,14.6400692 L62.2134884,14.6400692 L62.2134884,19.8071525 C62.2134884,20.7578958 61.4498818,21.5295136 60.5090093,21.5295136 L60.5090093,21.5295136 L36.6463014,21.5295136 C35.7054289,21.5295136 34.9418223,20.7578958 34.9418223,19.8071525 L34.9418223,19.8071525 L34.9418223,14.6400692 C34.9418223,7.03067795 41.0464143,0.861180543 48.5776553,0.861180543 L48.5776553,0.861180543 Z M14.4880726,0.861180543 L14.7967605,0.864641549 C22.1854173,1.03047807 28.1239057,7.13491619 28.1239057,14.6400692 L28.1239057,14.6400692 L28.1239057,19.8071525 C28.1239057,20.7578958 27.3602991,21.5295136 26.4194266,21.5295136 L26.4194266,21.5295136 L2.5567187,21.5295136 C1.61584622,21.5295136 0.852239567,20.7578958 0.852239567,19.8071525 L0.852239567,19.8071525 L0.852239567,14.6400692 C0.852239567,7.03067795 6.95683159,0.861180543 14.4880726,0.861180543 L14.4880726,0.861180543 Z M191.753903,0.861180543 L192.062591,0.864641549 C199.451247,1.03047807 205.389736,7.13491619 205.389736,14.6400692 L205.389736,14.6400692 L205.389736,19.8071525 C205.389736,20.7578958 204.626129,21.5295136 203.685257,21.5295136 L203.685257,21.5295136 L179.822549,21.5295136 C178.881676,21.5295136 178.11807,20.7578958 178.11807,19.8071525 L178.11807,19.8071525 L178.11807,14.6400692 C178.11807,7.03067795 184.222662,0.861180543 191.753903,0.861180543 L191.753903,0.861180543 Z M157.66432,0.861180543 L157.973008,0.864641549 C165.361665,1.03047807 171.300153,7.13491619 171.300153,14.6400692 L171.300153,14.6400692 L171.300153,19.8071525 C171.300153,20.7578958 170.536546,21.5295136 169.595674,21.5295136 L169.595674,21.5295136 L145.732966,21.5295136 C144.792094,21.5295136 144.028487,20.7578958 144.028487,19.8071525 L144.028487,19.8071525 L144.028487,14.6400692 C144.028487,7.03067795 150.133079,0.861180543 157.66432,0.861180543 L157.66432,0.861180543 Z" id="Combined-Shape" fill="#FFFFFF"></path>
                            <path d="M50.2821345,21.5295136 L50.2821345,28.4189579 L46.8731762,28.4189579 L46.8731762,21.5295136 L50.2821345,21.5295136 Z M16.1925518,21.5295136 L16.1925518,28.4189579 L12.7835935,28.4189579 L12.7835935,21.5295136 L16.1925518,21.5295136 Z M193.458382,21.5295136 L193.458382,28.4189579 L190.049424,28.4189579 L190.049424,21.5295136 L193.458382,21.5295136 Z M159.368799,21.5295136 L159.368799,28.4189579 L155.959841,28.4189579 L155.959841,21.5295136 L159.368799,21.5295136 Z" id="Combined-Shape" fill="#E6E6E6"></path>
                            <path d="M48.5776553,0 C56.566549,0 63.065728,6.56736282 63.065728,14.6400692 L63.065728,14.6400692 L63.065728,19.8071525 C63.065728,21.2315451 61.9186135,22.3906941 60.5090093,22.3906941 L60.5090093,22.3906941 L51.134374,22.3906941 L51.134374,28.4189579 C51.134374,28.8943296 50.753423,29.2801385 50.2821345,29.2801385 L50.2821345,29.2801385 L46.8731762,29.2801385 C46.4018877,29.2801385 46.0209366,28.8943296 46.0209366,28.4189579 L46.0209366,28.4189579 L46.0209366,22.3906941 L36.6463014,22.3906941 C35.2366971,22.3906941 34.0895827,21.2315451 34.0895827,19.8071525 L34.0895827,19.8071525 L34.0895827,14.6400692 C34.0895827,6.56736282 40.5887616,0 48.5776553,0 Z M14.4880726,0 C22.4769663,0 28.9761453,6.56736282 28.9761453,14.6400692 L28.9761453,14.6400692 L28.9761453,19.8071525 C28.9761453,21.2315451 27.8290308,22.3906941 26.4194266,22.3906941 L26.4194266,22.3906941 L17.0447913,22.3906941 L17.0447913,28.4189579 C17.0447913,28.8943296 16.6638403,29.2801385 16.1925518,29.2801385 L16.1925518,29.2801385 L12.7835935,29.2801385 C12.312305,29.2801385 11.9313539,28.8943296 11.9313539,28.4189579 L11.9313539,28.4189579 L11.9313539,22.3906941 L2.5567187,22.3906941 C1.14711446,22.3906941 0,21.2315451 0,19.8071525 L0,19.8071525 L0,14.6400692 C0,6.56736282 6.49917894,0 14.4880726,0 Z M191.753903,0 C199.742796,0 206.241975,6.56736282 206.241975,14.6400692 L206.241975,14.6400692 L206.241975,19.8071525 C206.241975,21.2315451 205.094861,22.3906941 203.685257,22.3906941 L203.685257,22.3906941 L194.310621,22.3906941 L194.310621,28.4189579 C194.310621,28.8943296 193.92967,29.2801385 193.458382,29.2801385 L193.458382,29.2801385 L190.049424,29.2801385 C189.578135,29.2801385 189.197184,28.8943296 189.197184,28.4189579 L189.197184,28.4189579 L189.197184,22.3906941 L179.822549,22.3906941 C178.412944,22.3906941 177.26583,21.2315451 177.26583,19.8071525 L177.26583,19.8071525 L177.26583,14.6400692 C177.26583,6.56736282 183.765009,0 191.753903,0 Z M157.66432,0 C165.653214,0 172.152393,6.56736282 172.152393,14.6400692 L172.152393,14.6400692 L172.152393,19.8071525 C172.152393,21.2315451 171.005278,22.3906941 169.595674,22.3906941 L169.595674,22.3906941 L160.221039,22.3906941 L160.221039,28.4189579 C160.221039,28.8943296 159.840088,29.2801385 159.368799,29.2801385 L159.368799,29.2801385 L155.959841,29.2801385 C155.488552,29.2801385 155.107601,28.8943296 155.107601,28.4189579 L155.107601,28.4189579 L155.107601,22.3906941 L145.732966,22.3906941 C144.323362,22.3906941 143.176247,21.2315451 143.176247,19.8071525 L143.176247,19.8071525 L143.176247,14.6400692 C143.176247,6.56736282 149.675426,0 157.66432,0 Z M49.4298949,22.3906941 L47.7254158,22.3906941 L47.7254158,27.5577774 L49.4298949,27.5577774 L49.4298949,22.3906941 Z M15.3403122,22.3906941 L13.6358331,22.3906941 L13.6358331,27.5577774 L15.3403122,27.5577774 L15.3403122,22.3906941 Z M192.606142,22.3906941 L190.901663,22.3906941 L190.901663,27.5577774 L192.606142,27.5577774 L192.606142,22.3906941 Z M158.51656,22.3906941 L156.81208,22.3906941 L156.81208,27.5577774 L158.51656,27.5577774 L158.51656,22.3906941 Z M48.5776553,1.72236109 C41.5287819,1.72236109 35.7940618,7.51724496 35.7940618,14.6400692 L35.7940618,14.6400692 L35.7940618,19.8071525 C35.7940618,20.281663 36.1758652,20.668333 36.6463014,20.668333 L36.6463014,20.668333 L60.5090093,20.668333 C60.9794455,20.668333 61.3612488,20.281663 61.3612488,19.8071525 L61.3612488,19.8071525 L61.3612488,14.6400692 C61.3612488,7.51724496 55.6265288,1.72236109 48.5776553,1.72236109 Z M14.4880726,1.72236109 C7.43919918,1.72236109 1.70447913,7.51724496 1.70447913,14.6400692 L1.70447913,14.6400692 L1.70447913,19.8071525 C1.70447913,20.281663 2.08628246,20.668333 2.5567187,20.668333 L2.5567187,20.668333 L26.4194266,20.668333 C26.8898628,20.668333 27.2716662,20.281663 27.2716662,19.8071525 L27.2716662,19.8071525 L27.2716662,14.6400692 C27.2716662,7.51724496 21.5369461,1.72236109 14.4880726,1.72236109 Z M191.753903,1.72236109 C184.705029,1.72236109 178.970309,7.51724496 178.970309,14.6400692 L178.970309,14.6400692 L178.970309,19.8071525 C178.970309,20.281663 179.352112,20.668333 179.822549,20.668333 L179.822549,20.668333 L203.685257,20.668333 C204.155693,20.668333 204.537496,20.281663 204.537496,19.8071525 L204.537496,19.8071525 L204.537496,14.6400692 C204.537496,7.51724496 198.802776,1.72236109 191.753903,1.72236109 Z M157.66432,1.72236109 C150.615446,1.72236109 144.880726,7.51724496 144.880726,14.6400692 L144.880726,14.6400692 L144.880726,19.8071525 C144.880726,20.281663 145.26253,20.668333 145.732966,20.668333 L145.732966,20.668333 L169.595674,20.668333 C170.06611,20.668333 170.447913,20.281663 170.447913,19.8071525 L170.447913,19.8071525 L170.447913,14.6400692 C170.447913,7.51724496 164.713193,1.72236109 157.66432,1.72236109 Z" id="Combined-Shape" stroke="#FFFFFF" stroke-width="0.582615" fill="#7A7A7A"></path>
                        </g>
                    </g>
                </g>
            </g>
        </g>
    </g>
</svg>