<?xml version="1.0" encoding="UTF-8"?>
<svg width="602px" height="231px" viewBox="0 0 602 231" version="1.1" xmlns="http://www.w3.org/2000/svg" xmlns:xlink="http://www.w3.org/1999/xlink">
    <!-- Generator: Sketch 62 (91390) - https://sketch.com -->
    <title>results-footer-illo</title>
    <desc>Created with Sketch.</desc>
    <g id="Comps" stroke="none" stroke-width="1" fill="none" fill-rule="evenodd" opacity="0.75">
        <g id="KW-quote-results-basic-1quote" transform="translate(-797.000000, -817.000000)">
            <g id="bg" transform="translate(645.000000, 1078.000000) scale(-1, 1) translate(-645.000000, -1078.000000) translate(-108.000000, 337.000000)">
                <g id="results-footer-illo" transform="translate(0.000000, 481.000000)">
                    <g id="Fills" transform="translate(0.967742, 0.967742)">
                        <path d="M250.009217,205.548387 L250.009217,228.387097 L113.640553,228.387097 L113.640553,220.774194 L106.064516,220.774194 L106.064516,213.16129 L98.4884793,213.16129 L98.4884793,205.548387 L250.009217,205.548387 Z M37.8801843,205.548387 L37.8801843,213.16129 L34.0921659,213.16129 C32.0002327,213.16129 30.3041475,214.865629 30.3041475,216.967742 L30.3041475,216.967742 L30.3041475,220.774194 L26.516129,220.774194 C24.4241959,220.774194 22.7281106,222.478532 22.7281106,224.580645 L22.7281106,224.580645 L22.7281106,205.548387 L37.8801843,205.548387 Z" id="Foundation" fill="#E6E6E6"></path>
                        <polygon id="Sill" fill="#E6E6E6" points="106.064516 190.322581 227.281106 190.322581 227.281106 182.709677 106.064516 182.709677"></polygon>
                        <path d="M68.1843318,30.4516129 L90.9124424,53.2903226 L90.9124424,91.3548387 L98.4884793,91.3548387 L98.4884793,98.9677419 L37.8801843,98.9677419 L37.8801843,91.3548387 L45.4562212,91.3548387 L45.4562212,53.2903226 L68.1843318,30.4516129 Z M136.368664,30.4516129 L159.096774,53.2903226 L159.096774,91.3548387 L166.672811,91.3548387 L166.672811,98.9677419 L106.064516,98.9677419 L106.064516,91.3548387 L113.640553,91.3548387 L113.640553,53.2903226 L136.368664,30.4516129 Z M234.857143,98.9677419 L174.248848,98.9677419 L174.248848,91.3548387 L181.824885,91.3548387 L181.824885,53.2903226 L204.552995,30.4516129 L227.281106,53.2903226 L227.281106,91.3548387 L234.857143,91.3548387 L234.857143,98.9677419 Z M68.1843318,41.2172097 L53.0322581,56.4430161 L53.0322581,91.3548387 L83.3364055,91.3548387 L83.3364055,56.4430161 L68.1843318,41.2172097 Z M136.368664,41.2172097 L121.21659,56.4430161 L121.21659,91.3548387 L151.520737,91.3548387 L151.520737,56.4430161 L136.368664,41.2172097 Z M204.552995,41.2172097 L189.400922,56.4430161 L189.400922,91.3548387 L219.705069,91.3548387 L219.705069,56.4430161 L204.552995,41.2172097 Z" id="Window-Frames" fill="#FFFFFF"></path>
                        <path d="M22.7281106,114.193548 L22.7281106,228.387097 L7.57603687,228.387097 L7.57603687,114.193548 L22.7281106,114.193548 Z M45.4562212,0 L45.4562212,7.61290323 L37.8801843,7.61290323 L37.8801843,30.4516129 L22.7281106,30.4516129 L7.57603687,114.193548 L7.57603687,7.61290323 L0,7.61290323 L0,0 L45.4562212,0 Z" id="Chimney" fill="#E6E6E6"></path>
                        <polygon id="Roof" fill="#E6E6E6" points="250.009217 30.4516129 204.552995 30.4516129 227.281106 53.2903226 227.281106 91.3548387 234.857143 91.3548387 234.857143 98.9677419 174.248848 98.9677419 174.248848 91.3548387 181.824885 91.3548387 181.824885 53.2903226 204.552995 30.4516129 136.368664 30.4516129 159.096774 53.2903226 159.096774 91.3548387 166.672811 91.3548387 166.672811 98.9677419 106.064516 98.9677419 106.064516 91.3548387 113.640553 91.3548387 113.640553 53.2903226 136.368664 30.4516129 68.1843318 30.4516129 90.9124424 53.2903226 90.9124424 91.3548387 98.4884793 91.3548387 98.4884793 98.9677419 37.8801843 98.9677419 37.8801843 91.3548387 45.4562212 91.3548387 45.4562212 53.2903226 68.1843318 30.4516129 22.7281106 30.4516129 7.57603687 114.193548 265.16129 114.193548"></polygon>
                        <polygon id="Door" fill="#FFFFFF" points="53.0322581 205.548387 83.3364055 205.548387 83.3364055 144.645161 53.0322581 144.645161"></polygon>
                        <path d="M204.552995,41.2176855 L219.705069,56.4434919 L219.705069,91.3553145 L189.400922,91.3553145 L189.400922,56.4434919 L204.552995,41.2176855 Z M68.1843318,41.2176855 L83.3364055,56.4434919 L83.3364055,91.3553145 L53.0322581,91.3553145 L53.0322581,56.4434919 L68.1843318,41.2176855 Z M136.368664,41.2176855 L151.520737,56.4434919 L151.520737,91.3553145 L121.21659,91.3553145 L121.21659,56.4434919 L136.368664,41.2176855 Z" id="Windows" fill="#E6E6E6"></path>
                        <path d="M166.672811,175.096774 C170.856677,175.096774 174.248848,178.505452 174.248848,182.709677 L174.248848,182.709677 L151.520737,182.709677 L151.520737,175.096774 Z M143.9447,175.096774 L143.9447,182.709677 L121.21659,182.709677 C121.21659,178.505452 124.60876,175.096774 128.792627,175.096774 L128.792627,175.096774 L143.9447,175.096774 Z" id="Interior" fill="#E6E6E6"></path>
                    </g>
                    <g id="Lines">
                        <path d="M576.81388,221.280992 L591.009464,221.280992 L591.009464,168.934951 L576.81388,168.934951 L576.81388,221.280992 Z M334.542587,221.280992 L348.73817,221.280992 L348.73817,168.934951 L334.542587,168.934951 L334.542587,221.280992 Z M515.772871,161.320981 L546.056782,161.320981 C549.811041,161.320981 552.894322,164.268539 553.138486,167.983204 L508.691167,167.983204 C508.935331,164.268539 512.018612,161.320981 515.772871,161.320981 L515.772871,161.320981 Z M561.671924,221.280992 L575.867508,221.280992 L575.867508,168.934951 L561.671924,168.934951 L561.671924,221.280992 Z M546.529968,168.934951 L553.62776,168.934951 L560.725552,168.934951 L560.725552,221.280992 L546.529968,221.280992 L546.529968,168.934951 Z M531.388013,221.280992 L545.583596,221.280992 L545.583596,168.934951 L531.388013,168.934951 L531.388013,221.280992 Z M516.246057,221.280992 L530.44164,221.280992 L530.44164,168.934951 L516.246057,168.934951 L516.246057,221.280992 Z M501.104101,168.934951 L508.201893,168.934951 L515.299685,168.934951 L515.299685,221.280992 L501.104101,221.280992 L501.104101,168.934951 Z M485.962145,221.280992 L500.157729,221.280992 L500.157729,168.934951 L485.962145,168.934951 L485.962145,221.280992 Z M440.536278,221.280992 L485.015773,221.280992 L485.015773,168.934951 L440.536278,168.934951 L440.536278,221.280992 Z M425.394322,221.280992 L439.589905,221.280992 L439.589905,168.934951 L425.394322,168.934951 L425.394322,221.280992 Z M410.252366,221.280992 L424.44795,221.280992 L424.44795,168.934951 L410.252366,168.934951 L410.252366,221.280992 Z M395.11041,221.280992 L409.305994,221.280992 L409.305994,168.934951 L395.11041,168.934951 L395.11041,221.280992 Z M379.968454,221.280992 L394.164038,221.280992 L394.164038,168.934951 L379.968454,168.934951 L379.968454,221.280992 Z M349.684543,221.280992 L363.880126,221.280992 L363.880126,168.934951 L349.684543,168.934951 L349.684543,221.280992 Z M364.826498,221.280992 L379.022082,221.280992 L379.022082,168.934951 L364.826498,168.934951 L364.826498,221.280992 Z M591.48265,167.983204 L554.077287,167.983204 C553.830284,163.745079 550.332492,160.369235 546.056782,160.369235 L515.772871,160.369235 C511.497161,160.369235 507.999369,163.745079 507.752366,167.983204 L334.069401,167.983204 C333.808202,167.983204 333.596215,168.196396 333.596215,168.459078 L333.596215,221.756865 C333.596215,222.019547 333.808202,222.232738 334.069401,222.232738 L591.48265,222.232738 C591.743849,222.232738 591.955836,222.019547 591.955836,221.756865 L591.955836,168.459078 C591.955836,168.196396 591.743849,167.983204 591.48265,167.983204 L591.48265,167.983204 Z" id="Pool" fill="#C3C3C3"></path>
                        <g id="Floaty-Tube" transform="translate(310.410095, 175.121301)">
                            <path d="M23.659306,31.4076246 C19.4782334,31.4076246 16.0883281,27.9984697 16.0883281,23.793655 C16.0883281,19.5888403 19.4782334,16.1796854 23.659306,16.1796854 C27.8403785,16.1796854 31.2302839,19.5888403 31.2302839,23.793655 C31.2302839,27.9984697 27.8403785,31.4076246 23.659306,31.4076246 M23.659306,0.951746201 C11.115142,0.951746201 0.94637224,11.1782591 0.94637224,23.793655 C0.94637224,36.4090509 11.115142,46.6355638 23.659306,46.6355638 C36.20347,46.6355638 46.3722397,36.4090509 46.3722397,23.793655 C46.3722397,11.1782591 36.20347,0.951746201 23.659306,0.951746201" id="Fill-85" fill="#FFFFFF"></path>
                            <path d="M23.659306,16.6555585 C19.7451104,16.6555585 16.5615142,19.8572327 16.5615142,23.793655 C16.5615142,27.7300773 19.7451104,30.9317515 23.659306,30.9317515 C27.5735016,30.9317515 30.7570978,27.7300773 30.7570978,23.793655 C30.7570978,19.8572327 27.5735016,16.6555585 23.659306,16.6555585 M23.659306,31.8834977 C19.2236593,31.8834977 15.615142,28.2544895 15.615142,23.793655 C15.615142,19.3328206 19.2236593,15.7038123 23.659306,15.7038123 C28.0949527,15.7038123 31.70347,19.3328206 31.70347,23.793655 C31.70347,28.2544895 28.0949527,31.8834977 23.659306,31.8834977 M23.659306,1.4276193 C11.3962145,1.4276193 1.41955836,11.4609278 1.41955836,23.793655 C1.41955836,36.1263823 11.3962145,46.1596907 23.659306,46.1596907 C35.9223975,46.1596907 45.8990536,36.1263823 45.8990536,23.793655 C45.8990536,11.4609278 35.9223975,1.4276193 23.659306,1.4276193 M23.659306,47.111437 C10.8747634,47.111437 0.47318612,36.6517462 0.47318612,23.793655 C0.47318612,10.9355638 10.8747634,0.475873101 23.659306,0.475873101 C36.4438486,0.475873101 46.8454259,10.9355638 46.8454259,23.793655 C46.8454259,36.6517462 36.4438486,47.111437 23.659306,47.111437" id="Fill-86" fill="#C3C3C3"></path>
                        </g>
                        <g id="Ladder" transform="translate(446.687697, 159.893362)">
                            <polygon id="Fill-73" fill="#E6E6E6" points="0.94637224 31.4076246 31.2302839 31.4076246 31.2302839 27.6006398 0.94637224 27.6006398"></polygon>
                            <path d="M1.41955836,30.9317515 L30.7570978,30.9317515 L30.7570978,28.0765129 L1.41955836,28.0765129 L1.41955836,30.9317515 Z M31.2302839,31.8834977 L0.94637224,31.8834977 C0.685173502,31.8834977 0.47318612,31.6703066 0.47318612,31.4076246 L0.47318612,27.6006398 C0.47318612,27.3379579 0.685173502,27.1247667 0.94637224,27.1247667 L31.2302839,27.1247667 C31.4914826,27.1247667 31.70347,27.3379579 31.70347,27.6006398 L31.70347,31.4076246 C31.70347,31.6703066 31.4914826,31.8834977 31.2302839,31.8834977 L31.2302839,31.8834977 Z" id="Fill-74" fill="#C3C3C3"></path>
                            <polygon id="Fill-75" fill="#E6E6E6" points="0.94637224 42.828579 31.2302839 42.828579 31.2302839 39.0215942 0.94637224 39.0215942"></polygon>
                            <path d="M1.41955836,42.3527059 L30.7570978,42.3527059 L30.7570978,39.4974673 L1.41955836,39.4974673 L1.41955836,42.3527059 Z M31.2302839,43.3044521 L0.94637224,43.3044521 C0.685173502,43.3044521 0.47318612,43.091261 0.47318612,42.828579 L0.47318612,39.0215942 C0.47318612,38.7589123 0.685173502,38.5457211 0.94637224,38.5457211 L31.2302839,38.5457211 C31.4914826,38.5457211 31.70347,38.7589123 31.70347,39.0215942 L31.70347,42.828579 C31.70347,43.091261 31.4914826,43.3044521 31.2302839,43.3044521 L31.2302839,43.3044521 Z" id="Fill-76" fill="#C3C3C3"></path>
                            <polygon id="Fill-77" fill="#E6E6E6" points="0.94637224 54.2495335 31.2302839 54.2495335 31.2302839 50.4425487 0.94637224 50.4425487"></polygon>
                            <path d="M1.41955836,53.7736604 L30.7570978,53.7736604 L30.7570978,50.9184218 L1.41955836,50.9184218 L1.41955836,53.7736604 Z M31.2302839,54.7254066 L0.94637224,54.7254066 C0.685173502,54.7254066 0.47318612,54.5122154 0.47318612,54.2495335 L0.47318612,50.4425487 C0.47318612,50.1798667 0.685173502,49.9666756 0.94637224,49.9666756 L31.2302839,49.9666756 C31.4914826,49.9666756 31.70347,50.1798667 31.70347,50.4425487 L31.70347,54.2495335 C31.70347,54.5122154 31.4914826,54.7254066 31.2302839,54.7254066 L31.2302839,54.7254066 Z" id="Fill-78" fill="#C3C3C3"></path>
                            <polygon id="Fill-79" fill="#E6E6E6" points="0.94637224 19.9866702 31.2302839 19.9866702 31.2302839 16.1796854 0.94637224 16.1796854"></polygon>
                            <path d="M1.41955836,19.5107971 L30.7570978,19.5107971 L30.7570978,16.6555585 L1.41955836,16.6555585 L1.41955836,19.5107971 Z M31.2302839,20.4625433 L0.94637224,20.4625433 C0.685173502,20.4625433 0.47318612,20.2493522 0.47318612,19.9866702 L0.47318612,16.1796854 C0.47318612,15.9170035 0.685173502,15.7038123 0.94637224,15.7038123 L31.2302839,15.7038123 C31.4914826,15.7038123 31.70347,15.9170035 31.70347,16.1796854 L31.70347,19.9866702 C31.70347,20.2493522 31.4914826,20.4625433 31.2302839,20.4625433 L31.2302839,20.4625433 Z" id="Fill-80" fill="#C3C3C3"></path>
                            <path d="M0.94637224,61.8635031 L0.94637224,2.8552386 C0.94637224,1.8045108 1.79432177,0.951746201 2.83911672,0.951746201 C3.88391167,0.951746201 4.7318612,1.8045108 4.7318612,2.8552386 L4.7318612,61.8635031 L0.94637224,61.8635031 Z" id="Fill-81" fill="#E6E6E6"></path>
                            <path d="M1.41955836,61.38763 L4.25867508,61.38763 L4.25867508,2.8552386 C4.25867508,2.06814449 3.62176656,1.4276193 2.83911672,1.4276193 C2.05646688,1.4276193 1.41955836,2.06814449 1.41955836,2.8552386 L1.41955836,61.38763 Z M4.7318612,62.3393762 L0.94637224,62.3393762 C0.685173502,62.3393762 0.47318612,62.126185 0.47318612,61.8635031 L0.47318612,2.8552386 C0.47318612,1.54278059 1.53501577,0.475873101 2.83911672,0.475873101 C4.14321767,0.475873101 5.20504732,1.54278059 5.20504732,2.8552386 L5.20504732,61.8635031 C5.20504732,62.126185 4.99305994,62.3393762 4.7318612,62.3393762 L4.7318612,62.3393762 Z" id="Fill-82" fill="#C3C3C3"></path>
                            <path d="M27.444795,61.8635031 L27.444795,2.8552386 C27.444795,1.8045108 28.2927445,0.951746201 29.3375394,0.951746201 C30.3823344,0.951746201 31.2302839,1.8045108 31.2302839,2.8552386 L31.2302839,61.8635031 L27.444795,61.8635031 Z" id="Fill-83" fill="#E6E6E6"></path>
                            <path d="M27.9179811,61.38763 L30.7570978,61.38763 L30.7570978,2.8552386 C30.7570978,2.06814449 30.1201893,1.4276193 29.3375394,1.4276193 C28.5548896,1.4276193 27.9179811,2.06814449 27.9179811,2.8552386 L27.9179811,61.38763 Z M31.2302839,62.3393762 L27.444795,62.3393762 C27.1835962,62.3393762 26.9716088,62.126185 26.9716088,61.8635031 L26.9716088,2.8552386 C26.9716088,1.54278059 28.0334385,0.475873101 29.3375394,0.475873101 C30.6416404,0.475873101 31.70347,1.54278059 31.70347,2.8552386 L31.70347,61.8635031 C31.70347,62.126185 31.4914826,62.3393762 31.2302839,62.3393762 L31.2302839,62.3393762 Z" id="Fill-84" fill="#C3C3C3"></path>
                        </g>
                        <path d="M76.6561514,179.404159 C76.9173502,179.404159 77.1293375,179.61735 77.1293375,179.880032 L77.1293375,198.914956 C77.1293375,199.177638 76.9173502,199.390829 76.6561514,199.390829 L61.5141956,199.390829 C61.2529968,199.390829 61.0410095,199.177638 61.0410095,198.914956 L61.0410095,179.880032 C61.0410095,179.61735 61.2529968,179.404159 61.5141956,179.404159 L76.6561514,179.404159 Z M76.1829653,180.355905 L61.9873817,180.355905 L61.9873817,198.439083 L76.1829653,198.439083 L76.1829653,180.355905 Z M80.5013139,171.790189 C80.7954525,171.790189 81.0341736,172.00338 81.0341736,172.266062 L81.0341736,179.880032 C81.0341736,180.142714 80.7954525,180.355905 80.5013139,180.355905 C80.2071754,180.355905 79.9684543,180.142714 79.9684543,179.880032 L79.9684543,172.266062 C79.9684543,172.00338 80.2071754,171.790189 80.5013139,171.790189 Z M76.6561514,152.755265 C76.9173502,152.755265 77.1293375,152.968456 77.1293375,153.231138 L77.1293375,172.266062 C77.1293375,172.528744 76.9173502,172.741935 76.6561514,172.741935 L61.5141956,172.741935 C61.2529968,172.741935 61.0410095,172.528744 61.0410095,172.266062 L61.0410095,153.231138 C61.0410095,152.968456 61.2529968,152.755265 61.5141956,152.755265 L76.6561514,152.755265 Z M76.1829653,153.707011 L61.9873817,153.707011 L61.9873817,171.790189 L76.1829653,171.790189 L76.1829653,153.707011 Z" id="Door-Deets" fill="#0093E9"></path>
                        <path d="M53.9432177,198.439083 C54.2044164,198.439083 54.4164038,198.678379 54.4164038,198.973226 C54.4164038,199.268073 54.2044164,199.507369 53.9432177,199.507369 L23.659306,199.507369 C23.3981073,199.507369 23.1861199,199.268073 23.1861199,198.973226 C23.1861199,198.678379 23.3981073,198.439083 23.659306,198.439083 L53.9432177,198.439083 Z M250.788644,198.439083 C251.049842,198.439083 251.26183,198.678379 251.26183,198.973226 C251.26183,199.268073 251.049842,199.507369 250.788644,199.507369 L84.2271293,199.507369 C83.9659306,199.507369 83.7539432,199.268073 83.7539432,198.973226 C83.7539432,198.678379 83.9659306,198.439083 84.2271293,198.439083 L250.788644,198.439083 Z M114.511041,190.825113 C114.77224,190.825113 114.984227,191.064409 114.984227,191.359257 C114.984227,191.654104 114.77224,191.8934 114.511041,191.8934 L84.2271293,191.8934 C83.9659306,191.8934 83.7539432,191.654104 83.7539432,191.359257 C83.7539432,191.064409 83.9659306,190.825113 84.2271293,190.825113 L114.511041,190.825113 Z M250.788644,190.825113 C251.049842,190.825113 251.26183,191.064409 251.26183,191.359257 C251.26183,191.654104 251.049842,191.8934 250.788644,191.8934 L220.504732,191.8934 C220.243533,191.8934 220.031546,191.654104 220.031546,191.359257 C220.031546,191.064409 220.243533,190.825113 220.504732,190.825113 L250.788644,190.825113 Z M53.9432177,190.825113 C54.2044164,190.825113 54.4164038,191.064409 54.4164038,191.359257 C54.4164038,191.654104 54.2044164,191.8934 53.9432177,191.8934 L23.659306,191.8934 C23.3981073,191.8934 23.1861199,191.654104 23.1861199,191.359257 C23.1861199,191.064409 23.3981073,190.825113 23.659306,190.825113 L53.9432177,190.825113 Z M53.9432177,183.211144 C54.2044164,183.211144 54.4164038,183.45044 54.4164038,183.745287 C54.4164038,184.040134 54.2044164,184.27943 53.9432177,184.27943 L23.659306,184.27943 C23.3981073,184.27943 23.1861199,184.040134 23.1861199,183.745287 C23.1861199,183.45044 23.3981073,183.211144 23.659306,183.211144 L53.9432177,183.211144 Z M106.940063,183.211144 C107.201262,183.211144 107.413249,183.45044 107.413249,183.745287 C107.413249,184.040134 107.201262,184.27943 106.940063,184.27943 L84.2271293,184.27943 C83.9659306,184.27943 83.7539432,184.040134 83.7539432,183.745287 C83.7539432,183.45044 83.9659306,183.211144 84.2271293,183.211144 L106.940063,183.211144 Z M250.788644,183.211144 C251.049842,183.211144 251.26183,183.45044 251.26183,183.745287 C251.26183,184.040134 251.049842,184.27943 250.788644,184.27943 L228.07571,184.27943 C227.814511,184.27943 227.602524,184.040134 227.602524,183.745287 C227.602524,183.45044 227.814511,183.211144 228.07571,183.211144 L250.788644,183.211144 Z M53.9432177,175.597174 C54.2044164,175.597174 54.4164038,175.83647 54.4164038,176.131317 C54.4164038,176.426164 54.2044164,176.665461 53.9432177,176.665461 L23.659306,176.665461 C23.3981073,176.665461 23.1861199,176.426164 23.1861199,176.131317 C23.1861199,175.83647 23.3981073,175.597174 23.659306,175.597174 L53.9432177,175.597174 Z M114.511041,175.597174 C114.77224,175.597174 114.984227,175.83647 114.984227,176.131317 C114.984227,176.426164 114.77224,176.665461 114.511041,176.665461 L84.2271293,176.665461 C83.9659306,176.665461 83.7539432,176.426164 83.7539432,176.131317 C83.7539432,175.83647 83.9659306,175.597174 84.2271293,175.597174 L114.511041,175.597174 Z M152.365931,175.597174 C152.627129,175.597174 152.839117,175.83647 152.839117,176.131317 C152.839117,176.426164 152.627129,176.665461 152.365931,176.665461 L144.794953,176.665461 C144.533754,176.665461 144.321767,176.426164 144.321767,176.131317 C144.321767,175.83647 144.533754,175.597174 144.794953,175.597174 L152.365931,175.597174 Z M190.22082,175.597174 C190.482019,175.597174 190.694006,175.83647 190.694006,176.131317 C190.694006,176.426164 190.482019,176.665461 190.22082,176.665461 L182.649842,176.665461 C182.388644,176.665461 182.176656,176.426164 182.176656,176.131317 C182.176656,175.83647 182.388644,175.597174 182.649842,175.597174 L190.22082,175.597174 Z M250.788644,175.597174 C251.049842,175.597174 251.26183,175.83647 251.26183,176.131317 C251.26183,176.426164 251.049842,176.665461 250.788644,176.665461 L220.504732,176.665461 C220.243533,176.665461 220.031546,176.426164 220.031546,176.131317 C220.031546,175.83647 220.243533,175.597174 220.504732,175.597174 L250.788644,175.597174 Z M53.9432177,167.983204 C54.2044164,167.983204 54.4164038,168.222501 54.4164038,168.517348 C54.4164038,168.812195 54.2044164,169.051491 53.9432177,169.051491 L23.659306,169.051491 C23.3981073,169.051491 23.1861199,168.812195 23.1861199,168.517348 C23.1861199,168.222501 23.3981073,167.983204 23.659306,167.983204 L53.9432177,167.983204 Z M114.511041,167.983204 C114.77224,167.983204 114.984227,168.222501 114.984227,168.517348 C114.984227,168.812195 114.77224,169.051491 114.511041,169.051491 L84.2271293,169.051491 C83.9659306,169.051491 83.7539432,168.812195 83.7539432,168.517348 C83.7539432,168.222501 83.9659306,167.983204 84.2271293,167.983204 L114.511041,167.983204 Z M152.365931,167.983204 C152.627129,167.983204 152.839117,168.222501 152.839117,168.517348 C152.839117,168.812195 152.627129,169.051491 152.365931,169.051491 L144.794953,169.051491 C144.533754,169.051491 144.321767,168.812195 144.321767,168.517348 C144.321767,168.222501 144.533754,167.983204 144.794953,167.983204 L152.365931,167.983204 Z M190.22082,167.983204 C190.482019,167.983204 190.694006,168.222501 190.694006,168.517348 C190.694006,168.812195 190.482019,169.051491 190.22082,169.051491 L182.649842,169.051491 C182.388644,169.051491 182.176656,168.812195 182.176656,168.517348 C182.176656,168.222501 182.388644,167.983204 182.649842,167.983204 L190.22082,167.983204 Z M250.788644,167.983204 C251.049842,167.983204 251.26183,168.222501 251.26183,168.517348 C251.26183,168.812195 251.049842,169.051491 250.788644,169.051491 L220.504732,169.051491 C220.243533,169.051491 220.031546,168.812195 220.031546,168.517348 C220.031546,168.222501 220.243533,167.983204 220.504732,167.983204 L250.788644,167.983204 Z M190.22082,160.369235 C190.482019,160.369235 190.694006,160.608531 190.694006,160.903378 C190.694006,161.198225 190.482019,161.437521 190.22082,161.437521 L182.649842,161.437521 C182.388644,161.437521 182.176656,161.198225 182.176656,160.903378 C182.176656,160.608531 182.388644,160.369235 182.649842,160.369235 L190.22082,160.369235 Z M250.788644,160.369235 C251.049842,160.369235 251.26183,160.608531 251.26183,160.903378 C251.26183,161.198225 251.049842,161.437521 250.788644,161.437521 L220.504732,161.437521 C220.243533,161.437521 220.031546,161.198225 220.031546,160.903378 C220.031546,160.608531 220.243533,160.369235 220.504732,160.369235 L250.788644,160.369235 Z M53.9432177,160.369235 C54.2044164,160.369235 54.4164038,160.608531 54.4164038,160.903378 C54.4164038,161.198225 54.2044164,161.437521 53.9432177,161.437521 L23.659306,161.437521 C23.3981073,161.437521 23.1861199,161.198225 23.1861199,160.903378 C23.1861199,160.608531 23.3981073,160.369235 23.659306,160.369235 L53.9432177,160.369235 Z M152.365931,160.369235 C152.627129,160.369235 152.839117,160.608531 152.839117,160.903378 C152.839117,161.198225 152.627129,161.437521 152.365931,161.437521 L144.794953,161.437521 C144.533754,161.437521 144.321767,161.198225 144.321767,160.903378 C144.321767,160.608531 144.533754,160.369235 144.794953,160.369235 L152.365931,160.369235 Z M114.511041,160.369235 C114.77224,160.369235 114.984227,160.608531 114.984227,160.903378 C114.984227,161.198225 114.77224,161.437521 114.511041,161.437521 L84.2271293,161.437521 C83.9659306,161.437521 83.7539432,161.198225 83.7539432,160.903378 C83.7539432,160.608531 83.9659306,160.369235 84.2271293,160.369235 L114.511041,160.369235 Z M114.511041,152.755265 C114.77224,152.755265 114.984227,152.994561 114.984227,153.289409 C114.984227,153.584256 114.77224,153.823552 114.511041,153.823552 L84.2271293,153.823552 C83.9659306,153.823552 83.7539432,153.584256 83.7539432,153.289409 C83.7539432,152.994561 83.9659306,152.755265 84.2271293,152.755265 L114.511041,152.755265 Z M53.9432177,152.755265 C54.2044164,152.755265 54.4164038,152.994561 54.4164038,153.289409 C54.4164038,153.584256 54.2044164,153.823552 53.9432177,153.823552 L23.659306,153.823552 C23.3981073,153.823552 23.1861199,153.584256 23.1861199,153.289409 C23.1861199,152.994561 23.3981073,152.755265 23.659306,152.755265 L53.9432177,152.755265 Z M152.365931,152.755265 C152.627129,152.755265 152.839117,152.994561 152.839117,153.289409 C152.839117,153.584256 152.627129,153.823552 152.365931,153.823552 L144.794953,153.823552 C144.533754,153.823552 144.321767,153.584256 144.321767,153.289409 C144.321767,152.994561 144.533754,152.755265 144.794953,152.755265 L152.365931,152.755265 Z M190.22082,152.755265 C190.482019,152.755265 190.694006,152.994561 190.694006,153.289409 C190.694006,153.584256 190.482019,153.823552 190.22082,153.823552 L182.649842,153.823552 C182.388644,153.823552 182.176656,153.584256 182.176656,153.289409 C182.176656,152.994561 182.388644,152.755265 182.649842,152.755265 L190.22082,152.755265 Z M250.788644,152.755265 C251.049842,152.755265 251.26183,152.994561 251.26183,153.289409 C251.26183,153.584256 251.049842,153.823552 250.788644,153.823552 L220.504732,153.823552 C220.243533,153.823552 220.031546,153.584256 220.031546,153.289409 C220.031546,152.994561 220.243533,152.755265 220.504732,152.755265 L250.788644,152.755265 Z M114.511041,145.141296 C114.77224,145.141296 114.984227,145.380592 114.984227,145.675439 C114.984227,145.970286 114.77224,146.209582 114.511041,146.209582 L23.659306,146.209582 C23.3981073,146.209582 23.1861199,145.970286 23.1861199,145.675439 C23.1861199,145.380592 23.3981073,145.141296 23.659306,145.141296 L114.511041,145.141296 Z M152.365931,145.141296 C152.627129,145.141296 152.839117,145.380592 152.839117,145.675439 C152.839117,145.970286 152.627129,146.209582 152.365931,146.209582 L144.794953,146.209582 C144.533754,146.209582 144.321767,145.970286 144.321767,145.675439 C144.321767,145.380592 144.533754,145.141296 144.794953,145.141296 L152.365931,145.141296 Z M190.22082,145.141296 C190.482019,145.141296 190.694006,145.380592 190.694006,145.675439 C190.694006,145.970286 190.482019,146.209582 190.22082,146.209582 L182.649842,146.209582 C182.388644,146.209582 182.176656,145.970286 182.176656,145.675439 C182.176656,145.380592 182.388644,145.141296 182.649842,145.141296 L190.22082,145.141296 Z M250.788644,145.141296 C251.049842,145.141296 251.26183,145.380592 251.26183,145.675439 C251.26183,145.970286 251.049842,146.209582 250.788644,146.209582 L220.504732,146.209582 C220.243533,146.209582 220.031546,145.970286 220.031546,145.675439 C220.031546,145.380592 220.243533,145.141296 220.504732,145.141296 L250.788644,145.141296 Z M250.788644,137.527326 C251.049842,137.527326 251.26183,137.766622 251.26183,138.061469 C251.26183,138.356316 251.049842,138.595613 250.788644,138.595613 L23.659306,138.595613 C23.3981073,138.595613 23.1861199,138.356316 23.1861199,138.061469 C23.1861199,137.766622 23.3981073,137.527326 23.659306,137.527326 L250.788644,137.527326 Z M250.788644,129.913356 C251.049842,129.913356 251.26183,130.152653 251.26183,130.4475 C251.26183,130.742347 251.049842,130.981643 250.788644,130.981643 L23.659306,130.981643 C23.3981073,130.981643 23.1861199,130.742347 23.1861199,130.4475 C23.1861199,130.152653 23.3981073,129.913356 23.659306,129.913356 L250.788644,129.913356 Z M250.788644,122.299387 C251.049842,122.299387 251.26183,122.538683 251.26183,122.83353 C251.26183,123.128377 251.049842,123.367673 250.788644,123.367673 L23.659306,123.367673 C23.3981073,123.367673 23.1861199,123.128377 23.1861199,122.83353 C23.1861199,122.538683 23.3981073,122.299387 23.659306,122.299387 L250.788644,122.299387 Z" id="Siding" fill="#E6E6E6"></path>
                        <path d="M235.646688,206.053053 C235.907886,206.053053 236.119874,206.266244 236.119874,206.528926 L236.119874,206.528926 L236.119874,213.667022 L250.788644,213.667022 C251.049842,213.667022 251.26183,213.880213 251.26183,214.142895 L251.26183,214.142895 L251.26183,221.756865 C251.26183,222.019547 251.049842,222.232738 250.788644,222.232738 L250.788644,222.232738 L236.119874,222.232738 L236.119874,229.370834 C236.119874,229.633516 235.907886,229.846708 235.646688,229.846708 L235.646688,229.846708 L114.511041,229.846708 C114.249842,229.846708 114.037855,229.633516 114.037855,229.370834 L114.037855,229.370834 L114.037855,222.232738 L106.940063,222.232738 C106.678864,222.232738 106.466877,222.019547 106.466877,221.756865 L106.466877,221.756865 L106.466877,214.618768 L99.3690852,214.618768 C99.1078864,214.618768 98.8958991,214.405577 98.8958991,214.142895 L98.8958991,214.142895 L98.8958991,206.528926 C98.8958991,206.266244 99.1078864,206.053053 99.3690852,206.053053 L99.3690852,206.053053 Z M23.659306,114.685417 C23.9205047,114.685417 24.1324921,114.898608 24.1324921,115.16129 L24.1324921,115.16129 L24.1324921,122.77526 C24.1324921,123.037942 23.9205047,123.251133 23.659306,123.251133 L23.659306,123.251133 L16.5615142,123.251133 L16.5615142,129.913356 L23.659306,129.913356 C23.9205047,129.913356 24.1324921,130.126548 24.1324921,130.38923 L24.1324921,130.38923 L24.1324921,138.003199 C24.1324921,138.265881 23.9205047,138.479072 23.659306,138.479072 L23.659306,138.479072 L16.5615142,138.479072 L16.5615142,145.141296 L23.659306,145.141296 C23.9205047,145.141296 24.1324921,145.354487 24.1324921,145.617169 L24.1324921,145.617169 L24.1324921,153.231138 C24.1324921,153.49382 23.9205047,153.707011 23.659306,153.707011 L23.659306,153.707011 L16.5615142,153.707011 L16.5615142,160.369235 L23.659306,160.369235 C23.9205047,160.369235 24.1324921,160.582426 24.1324921,160.845108 L24.1324921,160.845108 L24.1324921,168.459078 C24.1324921,168.72176 23.9205047,168.934951 23.659306,168.934951 L23.659306,168.934951 L16.5615142,168.934951 L16.5615142,175.597174 L23.659306,175.597174 C23.9205047,175.597174 24.1324921,175.810365 24.1324921,176.073047 L24.1324921,176.073047 L24.1324921,183.687017 C24.1324921,183.949699 23.9205047,184.16289 23.659306,184.16289 L23.659306,184.16289 L16.5615142,184.16289 L16.5615142,190.825113 L23.659306,190.825113 C23.9205047,190.825113 24.1324921,191.038304 24.1324921,191.300986 L24.1324921,191.300986 L24.1324921,198.914956 C24.1324921,199.177638 23.9205047,199.390829 23.659306,199.390829 L23.659306,199.390829 L16.5615142,199.390829 L16.5615142,206.053053 L38.8012618,206.053053 C39.0624606,206.053053 39.2744479,206.266244 39.2744479,206.528926 L39.2744479,206.528926 L39.2744479,214.142895 C39.2744479,214.405577 39.0624606,214.618768 38.8012618,214.618768 L38.8012618,214.618768 L16.5615142,214.618768 L16.5615142,221.280992 L23.659306,221.280992 C23.9205047,221.280992 24.1324921,221.494183 24.1324921,221.756865 L24.1324921,221.756865 L24.1324921,229.370834 C24.1324921,229.633516 23.9205047,229.846708 23.659306,229.846708 L23.659306,229.846708 L8.51735016,229.846708 C8.25615142,229.846708 8.04416404,229.633516 8.04416404,229.370834 L8.04416404,229.370834 L8.04416404,221.756865 C8.04416404,221.494183 8.25615142,221.280992 8.51735016,221.280992 L8.51735016,221.280992 L15.615142,221.280992 L15.615142,214.618768 L8.51735016,214.618768 C8.25615142,214.618768 8.04416404,214.405577 8.04416404,214.142895 L8.04416404,214.142895 L8.04416404,206.528926 C8.04416404,206.266244 8.25615142,206.053053 8.51735016,206.053053 L8.51735016,206.053053 L15.615142,206.053053 L15.615142,199.390829 L8.51735016,199.390829 C8.25615142,199.390829 8.04416404,199.177638 8.04416404,198.914956 L8.04416404,198.914956 L8.04416404,191.300986 C8.04416404,191.038304 8.25615142,190.825113 8.51735016,190.825113 L8.51735016,190.825113 L15.615142,190.825113 L15.615142,184.16289 L8.51735016,184.16289 C8.25615142,184.16289 8.04416404,183.949699 8.04416404,183.687017 L8.04416404,183.687017 L8.04416404,176.073047 C8.04416404,175.810365 8.25615142,175.597174 8.51735016,175.597174 L8.51735016,175.597174 L15.615142,175.597174 L15.615142,168.934951 L8.51735016,168.934951 C8.25615142,168.934951 8.04416404,168.72176 8.04416404,168.459078 L8.04416404,168.459078 L8.04416404,160.845108 C8.04416404,160.582426 8.25615142,160.369235 8.51735016,160.369235 L8.51735016,160.369235 L15.615142,160.369235 L15.615142,153.707011 L8.51735016,153.707011 C8.25615142,153.707011 8.04416404,153.49382 8.04416404,153.231138 L8.04416404,153.231138 L8.04416404,145.617169 C8.04416404,145.354487 8.25615142,145.141296 8.51735016,145.141296 L8.51735016,145.141296 L15.615142,145.141296 L15.615142,138.479072 L8.51735016,138.479072 C8.25615142,138.479072 8.04416404,138.265881 8.04416404,138.003199 L8.04416404,138.003199 L8.04416404,130.38923 C8.04416404,130.126548 8.25615142,129.913356 8.51735016,129.913356 L8.51735016,129.913356 L15.615142,129.913356 L15.615142,123.251133 L8.51735016,123.251133 C8.25615142,123.251133 8.04416404,123.037942 8.04416404,122.77526 L8.04416404,122.77526 L8.04416404,115.16129 C8.04416404,114.898608 8.25615142,114.685417 8.51735016,114.685417 L8.51735016,114.685417 Z M129.179811,222.232738 L114.984227,222.232738 L114.984227,228.894961 L129.179811,228.894961 L129.179811,222.232738 Z M144.321767,222.232738 L130.126183,222.232738 L130.126183,228.894961 L144.321767,228.894961 L144.321767,222.232738 Z M235.173502,222.232738 L220.977918,222.232738 L220.977918,228.894961 L235.173502,228.894961 L235.173502,222.232738 Z M220.031546,222.232738 L205.835962,222.232738 L205.835962,228.894961 L220.031546,228.894961 L220.031546,222.232738 Z M204.88959,222.232738 L190.694006,222.232738 L190.694006,228.894961 L204.88959,228.894961 L204.88959,222.232738 Z M189.747634,222.232738 L175.55205,222.232738 L175.55205,228.894961 L189.747634,228.894961 L189.747634,222.232738 Z M174.605678,222.232738 L160.410095,222.232738 L160.410095,228.894961 L174.605678,228.894961 L174.605678,222.232738 Z M159.463722,222.232738 L145.268139,222.232738 L145.268139,228.894961 L159.463722,228.894961 L159.463722,222.232738 Z M23.1861199,222.232738 L8.99053628,222.232738 L8.99053628,228.894961 L23.1861199,228.894961 L23.1861199,222.232738 Z M227.602524,214.618768 L213.40694,214.618768 L213.40694,221.280992 L227.602524,221.280992 L227.602524,214.618768 Z M212.460568,214.618768 L198.264984,214.618768 L198.264984,221.280992 L212.460568,221.280992 L212.460568,214.618768 Z M197.318612,214.618768 L183.123028,214.618768 L183.123028,221.280992 L197.318612,221.280992 L197.318612,214.618768 Z M182.176656,214.618768 L167.981073,214.618768 L167.981073,221.280992 L182.176656,221.280992 L182.176656,214.618768 Z M167.0347,214.618768 L152.839117,214.618768 L152.839117,221.280992 L167.0347,221.280992 L167.0347,214.618768 Z M151.892744,214.618768 L137.697161,214.618768 L137.697161,221.280992 L151.892744,221.280992 L151.892744,214.618768 Z M136.750789,214.618768 L122.555205,214.618768 L122.555205,221.280992 L136.750789,221.280992 L136.750789,214.618768 Z M121.608833,214.618768 L107.413249,214.618768 L107.413249,221.280992 L121.608833,221.280992 L121.608833,214.618768 Z M250.315457,214.618768 L228.548896,214.618768 L228.548896,221.280992 L250.315457,221.280992 L250.315457,214.618768 Z M129.179811,207.004799 L114.984227,207.004799 L114.984227,213.667022 L129.179811,213.667022 L129.179811,207.004799 Z M144.321767,207.004799 L130.126183,207.004799 L130.126183,213.667022 L144.321767,213.667022 L144.321767,207.004799 Z M159.463722,207.004799 L145.268139,207.004799 L145.268139,213.667022 L159.463722,213.667022 L159.463722,207.004799 Z M174.605678,207.004799 L160.410095,207.004799 L160.410095,213.667022 L174.605678,213.667022 L174.605678,207.004799 Z M189.747634,207.004799 L175.55205,207.004799 L175.55205,213.667022 L189.747634,213.667022 L189.747634,207.004799 Z M204.88959,207.004799 L190.694006,207.004799 L190.694006,213.667022 L204.88959,213.667022 L204.88959,207.004799 Z M220.031546,207.004799 L205.835962,207.004799 L205.835962,213.667022 L220.031546,213.667022 L220.031546,207.004799 Z M114.037855,207.004799 L99.8422713,207.004799 L99.8422713,213.667022 L114.037855,213.667022 L114.037855,207.004799 Z M235.173502,207.004799 L220.977918,207.004799 L220.977918,213.667022 L235.173502,213.667022 L235.173502,207.004799 Z M38.3280757,207.004799 L24.1324921,207.004799 L24.1324921,213.667022 L38.3280757,213.667022 L38.3280757,207.004799 Z M23.1861199,207.004799 L8.99053628,207.004799 L8.99053628,213.667022 L23.1861199,213.667022 L23.1861199,207.004799 Z M23.1861199,191.77686 L8.99053628,191.77686 L8.99053628,198.439083 L23.1861199,198.439083 L23.1861199,191.77686 Z M23.1861199,176.54892 L8.99053628,176.54892 L8.99053628,183.211144 L23.1861199,183.211144 L23.1861199,176.54892 Z M23.1861199,161.320981 L8.99053628,161.320981 L8.99053628,167.983204 L23.1861199,167.983204 L23.1861199,161.320981 Z M23.1861199,146.093042 L8.99053628,146.093042 L8.99053628,152.755265 L23.1861199,152.755265 L23.1861199,146.093042 Z M23.1861199,130.865103 L8.99053628,130.865103 L8.99053628,137.527326 L23.1861199,137.527326 L23.1861199,130.865103 Z M23.1861199,115.637163 L8.99053628,115.637163 L8.99053628,122.299387 L23.1861199,122.299387 L23.1861199,115.637163 Z M14.0233438,84.2295388 C14.1643533,84.2295388 14.2968454,84.2914023 14.3867508,84.4008531 C14.4766562,84.5093522 14.514511,84.6511624 14.488959,84.791069 L13.1119874,92.4050387 C13.0712934,92.6306025 12.8753943,92.7952546 12.6473186,92.7952546 L8.51735016,92.7952546 C8.25615142,92.7952546 8.04416404,92.5820634 8.04416404,92.3193815 L8.04416404,84.7054119 C8.04416404,84.4427299 8.25615142,84.2295388 8.51735016,84.2295388 L14.0233438,84.2295388 Z M13.4564669,85.181285 L8.99053628,85.181285 L8.99053628,91.8435084 L12.251735,91.8435084 L13.4564669,85.181285 Z M38.8012618,8.08984271 C39.0624606,8.08984271 39.2744479,8.30303386 39.2744479,8.56571581 L39.2744479,8.56571581 L39.2744479,16.1796854 C39.2744479,16.4423674 39.0624606,16.6555585 38.8012618,16.6555585 L38.8012618,16.6555585 L31.70347,16.6555585 L31.70347,23.3177819 L38.8012618,23.3177819 C39.0624606,23.3177819 39.2744479,23.5309731 39.2744479,23.793655 L39.2744479,23.793655 L39.2744479,31.4076246 C39.2744479,31.6703066 39.0624606,31.8834977 38.8012618,31.8834977 L38.8012618,31.8834977 L16.5615142,31.8834977 L16.5615142,38.5457211 L22.2823344,38.5457211 C22.4233438,38.5457211 22.555836,38.6075846 22.6457413,38.7170355 C22.7356467,38.8255345 22.7735016,38.9673447 22.7479495,39.1072514 L22.7479495,39.1072514 L21.3719243,46.721221 C21.3312303,46.9467849 21.1353312,47.111437 20.9063091,47.111437 L20.9063091,47.111437 L16.5615142,47.111437 L16.5615142,53.7736604 L19.5293375,53.7736604 C19.670347,53.7736604 19.8028391,53.8355239 19.8927445,53.9449747 C19.9826498,54.0534737 20.0205047,54.1952839 19.9949527,54.3351906 L19.9949527,54.3351906 L18.6179811,61.9491602 C18.5772871,62.1747241 18.381388,62.3393762 18.1533123,62.3393762 L18.1533123,62.3393762 L16.5615142,62.3393762 L16.5615142,69.0015996 L16.7763407,69.0015996 C16.9164038,69.0015996 17.0498423,69.0634631 17.1397476,69.1729139 C17.229653,69.2804612 17.2675079,69.4232231 17.2419558,69.5631298 L17.2419558,69.5631298 L15.8659306,77.1770994 C15.8252366,77.4026633 15.6293375,77.5673154 15.4003155,77.5673154 L15.4003155,77.5673154 L8.51735016,77.5673154 C8.25615142,77.5673154 8.04416404,77.3541242 8.04416404,77.0914423 L8.04416404,77.0914423 L8.04416404,69.4774727 C8.04416404,69.2147907 8.25615142,69.0015996 8.51735016,69.0015996 L8.51735016,69.0015996 L15.615142,69.0015996 L15.615142,62.3393762 L8.51735016,62.3393762 C8.25615142,62.3393762 8.04416404,62.126185 8.04416404,61.8635031 L8.04416404,61.8635031 L8.04416404,54.2495335 C8.04416404,53.9868515 8.25615142,53.7736604 8.51735016,53.7736604 L8.51735016,53.7736604 L15.615142,53.7736604 L15.615142,47.111437 L8.51735016,47.111437 C8.25615142,47.111437 8.04416404,46.8982458 8.04416404,46.6355638 L8.04416404,46.6355638 L8.04416404,39.0215942 C8.04416404,38.7589123 8.25615142,38.5457211 8.51735016,38.5457211 L8.51735016,38.5457211 L15.615142,38.5457211 L15.615142,31.8834977 L8.51735016,31.8834977 C8.25615142,31.8834977 8.04416404,31.6703066 8.04416404,31.4076246 L8.04416404,31.4076246 L8.04416404,23.793655 C8.04416404,23.5309731 8.25615142,23.3177819 8.51735016,23.3177819 L8.51735016,23.3177819 L15.615142,23.3177819 L15.615142,16.6555585 L8.51735016,16.6555585 C8.25615142,16.6555585 8.04416404,16.4423674 8.04416404,16.1796854 L8.04416404,16.1796854 L8.04416404,8.56571581 C8.04416404,8.30303386 8.25615142,8.08984271 8.51735016,8.08984271 L8.51735016,8.08984271 Z M16.2094637,69.9533458 L8.99053628,69.9533458 L8.99053628,76.6155692 L15.0047319,76.6155692 L16.2094637,69.9533458 Z M18.9624606,54.7254066 L8.99053628,54.7254066 L8.99053628,61.38763 L17.7577287,61.38763 L18.9624606,54.7254066 Z M21.7154574,39.4974673 L8.99053628,39.4974673 L8.99053628,46.1596907 L20.5107256,46.1596907 L21.7154574,39.4974673 Z M23.1861199,24.2695281 L8.99053628,24.2695281 L8.99053628,30.9317515 L23.1861199,30.9317515 L23.1861199,24.2695281 Z M38.3280757,24.2695281 L24.1324921,24.2695281 L24.1324921,30.9317515 L38.3280757,30.9317515 L38.3280757,24.2695281 Z M30.7570978,16.6555585 L16.5615142,16.6555585 L16.5615142,23.3177819 L30.7570978,23.3177819 L30.7570978,16.6555585 Z M23.1861199,9.04158891 L8.99053628,9.04158891 L8.99053628,15.7038123 L23.1861199,15.7038123 L23.1861199,9.04158891 Z M38.3280757,9.04158891 L24.1324921,9.04158891 L24.1324921,15.7038123 L38.3280757,15.7038123 L38.3280757,9.04158891 Z" id="Bricks" fill="#C3C3C3"></path>
                        <path d="M205.362776,41.6988563 C205.623975,41.6988563 205.835962,41.9120475 205.835962,42.1747294 L205.835962,42.1747294 L205.835962,69.0015996 L220.504732,69.0015996 C220.765931,69.0015996 220.977918,69.2147907 220.977918,69.4774727 C220.977918,69.7401546 220.765931,69.9533458 220.504732,69.9533458 L220.504732,69.9533458 L205.835962,69.9533458 L205.835962,92.3193815 C205.835962,92.5820634 205.623975,92.7952546 205.362776,92.7952546 C205.101577,92.7952546 204.88959,92.5820634 204.88959,92.3193815 L204.88959,92.3193815 L204.88959,69.9533458 L190.22082,69.9533458 C189.959621,69.9533458 189.747634,69.7401546 189.747634,69.4774727 C189.747634,69.2147907 189.959621,69.0015996 190.22082,69.0015996 L190.22082,69.0015996 L204.88959,69.0015996 L204.88959,42.1747294 C204.88959,41.9120475 205.101577,41.6988563 205.362776,41.6988563 Z M137.223975,41.6988563 C137.485174,41.6988563 137.697161,41.9120475 137.697161,42.1747294 L137.697161,42.1747294 L137.697161,69.0015996 L152.365931,69.0015996 C152.627129,69.0015996 152.839117,69.2147907 152.839117,69.4774727 C152.839117,69.7401546 152.627129,69.9533458 152.365931,69.9533458 L152.365931,69.9533458 L137.697161,69.9533458 L137.697161,92.3193815 C137.697161,92.5820634 137.485174,92.7952546 137.223975,92.7952546 C136.962776,92.7952546 136.750789,92.5820634 136.750789,92.3193815 L136.750789,92.3193815 L136.750789,69.9533458 L122.082019,69.9533458 C121.82082,69.9533458 121.608833,69.7401546 121.608833,69.4774727 C121.608833,69.2147907 121.82082,69.0015996 122.082019,69.0015996 L122.082019,69.0015996 L136.750789,69.0015996 L136.750789,42.1747294 C136.750789,41.9120475 136.962776,41.6988563 137.223975,41.6988563 Z M69.0851735,41.6988563 C69.3463722,41.6988563 69.5583596,41.9120475 69.5583596,42.1747294 L69.5583596,42.1747294 L69.5583596,69.0015996 L84.2271293,69.0015996 C84.4883281,69.0015996 84.7003155,69.2147907 84.7003155,69.4774727 C84.7003155,69.7401546 84.4883281,69.9533458 84.2271293,69.9533458 L84.2271293,69.9533458 L69.5583596,69.9533458 L69.5583596,92.3193815 C69.5583596,92.5820634 69.3463722,92.7952546 69.0851735,92.7952546 C68.8239748,92.7952546 68.6119874,92.5820634 68.6119874,92.3193815 L68.6119874,92.3193815 L68.6119874,69.9533458 L53.9432177,69.9533458 C53.6820189,69.9533458 53.4700315,69.7401546 53.4700315,69.4774727 C53.4700315,69.2147907 53.6820189,69.0015996 53.9432177,69.0015996 L53.9432177,69.0015996 L68.6119874,69.0015996 L68.6119874,42.1747294 C68.6119874,41.9120475 68.8239748,41.6988563 69.0851735,41.6988563 Z" id="Window-Deets" fill="#FFFFFF"></path>
                        <path d="M46.3722397,0 C46.8946372,0 47.318612,0.426382298 47.318612,0.951746201 L47.318612,0.951746201 L47.318612,8.56571581 C47.318612,9.09107971 46.8946372,9.51746201 46.3722397,9.51746201 L46.3722397,9.51746201 L39.7476341,9.51746201 L39.7476341,30.4558784 L250.788644,30.4558784 C251.245741,30.4558784 251.637539,30.7851826 251.719874,31.2372621 L251.719874,31.2372621 L266.86183,114.990928 C266.911987,115.268838 266.837224,115.554362 266.657413,115.77136 C266.477603,115.987406 266.210726,116.113037 265.930599,116.113037 L265.930599,116.113037 L251.735016,116.113037 L251.735016,205.577179 L265.930599,205.577179 C266.452997,205.577179 266.876972,206.003562 266.876972,206.528926 L266.876972,206.528926 L266.876972,213.191149 L281.072555,213.191149 C281.594953,213.191149 282.018927,213.617531 282.018927,214.142895 L282.018927,214.142895 L282.018927,220.805119 L599.053628,220.805119 C599.576025,220.805119 600,221.231501 600,221.756865 L600,221.756865 L600,229.370834 C600,229.896198 599.576025,230.322581 599.053628,230.322581 L599.053628,230.322581 L8.51735016,230.322581 C7.99495268,230.322581 7.57097792,229.896198 7.57097792,229.370834 L7.57097792,229.370834 L7.57097792,9.51746201 L0.94637224,9.51746201 C0.423974763,9.51746201 0,9.09107971 0,8.56571581 L0,8.56571581 L0,0.951746201 C0,0.426382298 0.423974763,0 0.94637224,0 L0.94637224,0 Z M113.564669,222.708611 L24.6056782,222.708611 L24.6056782,228.419088 L113.564669,228.419088 L113.564669,222.708611 Z M598.107256,222.708611 L251.735016,222.708611 L251.735016,228.419088 L598.107256,228.419088 L598.107256,222.708611 Z M22.7129338,116.113037 L9.4637224,116.113037 L9.4637224,228.419088 L22.7129338,228.419088 L22.7129338,116.113037 Z M249.842271,207.480672 L100.315457,207.480672 L100.315457,213.191149 L106.940063,213.191149 C107.462461,213.191149 107.886435,213.617531 107.886435,214.142895 L107.886435,214.142895 L107.886435,220.805119 L114.511041,220.805119 C115.033438,220.805119 115.457413,221.231501 115.457413,221.756865 L115.457413,221.756865 L115.457413,228.419088 L249.842271,228.419088 L249.842271,207.480672 Z M105.993691,215.094641 L32.1766562,215.094641 L32.1766562,220.805119 L105.993691,220.805119 L105.993691,215.094641 Z M37.8548896,207.480672 L24.6056782,207.480672 L24.6056782,220.805119 L30.2839117,220.805119 L30.2839117,214.142895 C30.2839117,213.617531 30.7078864,213.191149 31.2302839,213.191149 L31.2302839,213.191149 L37.8548896,213.191149 L37.8548896,207.480672 Z M280.126183,215.094641 L251.735016,215.094641 L251.735016,220.805119 L280.126183,220.805119 L280.126183,215.094641 Z M264.984227,207.480672 L251.735016,207.480672 L251.735016,213.191149 L264.984227,213.191149 L264.984227,207.480672 Z M98.4227129,207.480672 L39.7476341,207.480672 L39.7476341,213.191149 L98.4227129,213.191149 L98.4227129,207.480672 Z M249.842271,116.113037 L24.6056782,116.113037 L24.6056782,205.577179 L52.9968454,205.577179 L52.9968454,145.617169 C52.9968454,145.091805 53.4208202,144.665423 53.9432177,144.665423 L53.9432177,144.665423 L84.2271293,144.665423 C84.7495268,144.665423 85.1735016,145.091805 85.1735016,145.617169 L85.1735016,145.617169 L85.1735016,205.577179 L249.842271,205.577179 L249.842271,116.113037 Z M83.2807571,146.568915 L54.8895899,146.568915 L54.8895899,205.577179 L83.2807571,205.577179 L83.2807571,146.568915 Z M144.794953,144.665423 C145.31735,144.665423 145.741325,145.091805 145.741325,145.617169 L145.741325,145.617169 L145.741325,182.735271 L151.419558,182.735271 L151.419558,145.617169 C151.419558,145.091805 151.843533,144.665423 152.365931,144.665423 L152.365931,144.665423 L182.649842,144.665423 C183.17224,144.665423 183.596215,145.091805 183.596215,145.617169 L183.596215,145.617169 L183.596215,182.735271 L189.274448,182.735271 L189.274448,145.617169 C189.274448,145.091805 189.698423,144.665423 190.22082,144.665423 L190.22082,144.665423 L220.504732,144.665423 C221.027129,144.665423 221.451104,145.091805 221.451104,145.617169 L221.451104,145.617169 L221.451104,182.735271 L228.07571,182.735271 C228.598107,182.735271 229.022082,183.161653 229.022082,183.687017 L229.022082,183.687017 L229.022082,191.300986 C229.022082,191.82635 228.598107,192.252733 228.07571,192.252733 L228.07571,192.252733 L106.940063,192.252733 C106.417666,192.252733 105.993691,191.82635 105.993691,191.300986 L105.993691,191.300986 L105.993691,183.687017 C105.993691,183.161653 106.417666,182.735271 106.940063,182.735271 L106.940063,182.735271 L113.564669,182.735271 L113.564669,145.617169 C113.564669,145.091805 113.988644,144.665423 114.511041,144.665423 L114.511041,144.665423 Z M227.129338,184.638763 L107.886435,184.638763 L107.886435,190.34924 L227.129338,190.34924 L227.129338,184.638763 Z M219.55836,169.410824 L191.167192,169.410824 L191.167192,182.735271 L219.55836,182.735271 L219.55836,169.410824 Z M181.70347,169.410824 L153.312303,169.410824 L153.312303,182.735271 L181.70347,182.735271 L181.70347,169.410824 Z M143.84858,169.410824 L115.457413,169.410824 L115.457413,182.735271 L143.84858,182.735271 L143.84858,169.410824 Z M219.55836,146.568915 L206.309148,146.568915 L206.309148,167.507331 L219.55836,167.507331 L219.55836,146.568915 Z M128.706625,146.568915 L115.457413,146.568915 L115.457413,167.507331 L128.706625,167.507331 L128.706625,146.568915 Z M143.84858,146.568915 L130.599369,146.568915 L130.599369,167.507331 L143.84858,167.507331 L143.84858,146.568915 Z M166.561514,146.568915 L153.312303,146.568915 L153.312303,167.507331 L166.561514,167.507331 L166.561514,146.568915 Z M181.70347,146.568915 L168.454259,146.568915 L168.454259,167.507331 L181.70347,167.507331 L181.70347,146.568915 Z M204.416404,146.568915 L191.167192,146.568915 L191.167192,167.507331 L204.416404,167.507331 L204.416404,146.568915 Z M66.8006309,32.3593708 L24.4485804,32.3593708 L9.6511041,114.209544 L264.796845,114.209544 L249.999369,32.3593708 L207.647319,32.3593708 L228.744795,53.5766489 C228.922713,53.7546254 229.022082,53.9973207 229.022082,54.2495335 L229.022082,54.2495335 L229.022082,91.3676353 L235.646688,91.3676353 C236.169085,91.3676353 236.59306,91.7940176 236.59306,92.3193815 L236.59306,92.3193815 L236.59306,99.9333511 C236.59306,100.458715 236.169085,100.885097 235.646688,100.885097 L235.646688,100.885097 L175.078864,100.885097 C174.556467,100.885097 174.132492,100.458715 174.132492,99.9333511 L174.132492,99.9333511 L174.132492,92.3193815 C174.132492,91.7940176 174.556467,91.3676353 175.078864,91.3676353 L175.078864,91.3676353 L181.70347,91.3676353 L181.70347,54.2495335 C181.70347,53.9973207 181.802839,53.7546254 181.980757,53.5766489 L181.980757,53.5766489 L203.078233,32.3593708 L139.508517,32.3593708 L160.605994,53.5766489 C160.783912,53.7546254 160.883281,53.9973207 160.883281,54.2495335 L160.883281,54.2495335 L160.883281,91.3676353 L167.507886,91.3676353 C168.030284,91.3676353 168.454259,91.7940176 168.454259,92.3193815 L168.454259,92.3193815 L168.454259,99.9333511 C168.454259,100.458715 168.030284,100.885097 167.507886,100.885097 L167.507886,100.885097 L106.940063,100.885097 C106.417666,100.885097 105.993691,100.458715 105.993691,99.9333511 L105.993691,99.9333511 L105.993691,92.3193815 C105.993691,91.7940176 106.417666,91.3676353 106.940063,91.3676353 L106.940063,91.3676353 L113.564669,91.3676353 L113.564669,54.2495335 C113.564669,53.9973207 113.664038,53.7546254 113.841956,53.5766489 L113.841956,53.5766489 L134.939432,32.3593708 L71.3697161,32.3593708 L92.4671924,53.5766489 C92.6451104,53.7546254 92.7444795,53.9973207 92.7444795,54.2495335 L92.7444795,54.2495335 L92.7444795,91.3676353 L99.3690852,91.3676353 C99.8914826,91.3676353 100.315457,91.7940176 100.315457,92.3193815 L100.315457,92.3193815 L100.315457,99.9333511 C100.315457,100.458715 99.8914826,100.885097 99.3690852,100.885097 L99.3690852,100.885097 L38.8012618,100.885097 C38.2788644,100.885097 37.8548896,100.458715 37.8548896,99.9333511 L37.8548896,99.9333511 L37.8548896,92.3193815 C37.8548896,91.7940176 38.2788644,91.3676353 38.8012618,91.3676353 L38.8012618,91.3676353 L45.4258675,91.3676353 L45.4258675,54.2495335 C45.4258675,53.9973207 45.5252366,53.7546254 45.7031546,53.5766489 L45.7031546,53.5766489 L66.8006309,32.3593708 Z M37.8548896,9.51746201 L9.4637224,9.51746201 L9.4637224,104.606425 L22.7280757,31.2372621 C22.8104101,30.7851826 23.2022082,30.4558784 23.659306,30.4558784 L23.659306,30.4558784 L37.8548896,30.4558784 L37.8548896,9.51746201 Z M98.4227129,93.2711277 L39.7476341,93.2711277 L39.7476341,98.9816049 L98.4227129,98.9816049 L98.4227129,93.2711277 Z M166.561514,93.2711277 L107.886435,93.2711277 L107.886435,98.9816049 L166.561514,98.9816049 L166.561514,93.2711277 Z M234.700315,93.2711277 L176.025237,93.2711277 L176.025237,98.9816049 L234.700315,98.9816049 L234.700315,93.2711277 Z M205.362776,32.7533938 L183.596215,54.6435564 L183.596215,91.3676353 L189.274448,91.3676353 L189.274448,57.4026686 C189.274448,57.1504559 189.373817,56.9087123 189.551735,56.7297841 L189.551735,56.7297841 L204.693691,41.5018448 C205.063722,41.1306638 205.66183,41.1306638 206.031861,41.5018448 L206.031861,41.5018448 L221.173817,56.7297841 C221.351735,56.9087123 221.451104,57.1504559 221.451104,57.4026686 L221.451104,57.4026686 L221.451104,91.3676353 L227.129338,91.3676353 L227.129338,54.6435564 L205.362776,32.7533938 Z M205.362776,43.5214503 L191.167192,57.7976433 L191.167192,91.3676353 L219.55836,91.3676353 L219.55836,57.7976433 L205.362776,43.5214503 Z M137.223975,32.7533938 L115.457413,54.6435564 L115.457413,91.3676353 L121.135647,91.3676353 L121.135647,57.4026686 C121.135647,57.1504559 121.235016,56.9087123 121.412934,56.7297841 L121.412934,56.7297841 L136.55489,41.5018448 C136.924921,41.1306638 137.523028,41.1306638 137.89306,41.5018448 L137.89306,41.5018448 L153.035016,56.7297841 C153.212934,56.9087123 153.312303,57.1504559 153.312303,57.4026686 L153.312303,57.4026686 L153.312303,91.3676353 L158.990536,91.3676353 L158.990536,54.6435564 L137.223975,32.7533938 Z M137.223975,43.5214503 L123.028391,57.7976433 L123.028391,91.3676353 L151.419558,91.3676353 L151.419558,57.7976433 L137.223975,43.5214503 Z M69.0851735,32.7533938 L47.318612,54.6435564 L47.318612,91.3676353 L52.9968454,91.3676353 L52.9968454,57.4026686 C52.9968454,57.1504559 53.0962145,56.9087123 53.2741325,56.7297841 L53.2741325,56.7297841 L68.4160883,41.5018448 C68.7861199,41.1306638 69.3842271,41.1306638 69.7542587,41.5018448 L69.7542587,41.5018448 L84.8962145,56.7297841 C85.0741325,56.9087123 85.1735016,57.1504559 85.1735016,57.4026686 L85.1735016,57.4026686 L85.1735016,91.3676353 L90.851735,91.3676353 L90.851735,54.6435564 L69.0851735,32.7533938 Z M69.0851735,43.5214503 L54.8895899,57.7976433 L54.8895899,91.3676353 L83.2807571,91.3676353 L83.2807571,57.7976433 L69.0851735,43.5214503 Z M45.4258675,1.9034924 L1.89274448,1.9034924 L1.89274448,7.61396961 L45.4258675,7.61396961 L45.4258675,1.9034924 Z" id="Main" stroke="#FFFFFF" stroke-width="0.75" fill="#7A7A7A"></path>
                    </g>
                    <path d="M227.96371,191.729032 L227.96371,199.354839 L106.995968,199.354839 L106.995968,191.729032 L227.96371,191.729032 Z M250.645161,115.470968 L250.645161,130.722581 L23.8306452,130.722581 L23.8306452,138.348387 L8.70967742,138.348387 L8.70967742,115.470968 L250.645161,115.470968 Z M99.4354839,100.219355 L99.4354839,107.845161 L38.9516129,107.845161 L38.9516129,100.219355 L99.4354839,100.219355 Z M167.479839,100.219355 L167.479839,107.845161 L106.995968,107.845161 L106.995968,100.219355 L167.479839,100.219355 Z M235.524194,100.219355 L235.524194,107.845161 L175.040323,107.845161 L175.040323,100.219355 L235.524194,100.219355 Z M38.9516129,8.70967742 L38.9516129,16.3354839 L8.70967742,16.3354839 L8.70967742,8.70967742 L38.9516129,8.70967742 Z" id="Shadows" fill="#C3C3C3" opacity="0.300000012" style="mix-blend-mode: multiply;"></path>
                    <g id="Bushes" transform="translate(128.709677, 198.387097)">
                        <path d="M17.9032258,23.4819734 L17.9032258,30.9962049 L14.1341256,30.9962049 L14.1341256,23.4819734 L17.9032258,23.4819734 Z M55.5942275,23.4819734 L55.5942275,30.9962049 L51.8251273,30.9962049 L51.8251273,23.4819734 L55.5942275,23.4819734 Z M93.2852292,23.4819734 L93.2852292,30.9962049 L89.516129,30.9962049 L89.516129,23.4819734 L93.2852292,23.4819734 Z" id="Combined-Shape" fill="#E6E6E6"></path>
                        <path d="M16.0186757,0.939278937 L16.3340829,0.942502604 C24.514434,1.10986138 31.0950764,7.77240242 31.0950764,15.9677419 L31.0950764,15.9677419 L31.0950764,21.6034156 C31.0950764,22.6403795 30.250798,23.4819734 29.2105263,23.4819734 L29.2105263,23.4819734 L2.82682513,23.4819734 C1.78655348,23.4819734 0.942275042,22.6403795 0.942275042,21.6034156 L0.942275042,21.6034156 L0.942275042,15.9677419 C0.942275042,7.66733397 7.69273345,0.939278937 16.0186757,0.939278937 L16.0186757,0.939278937 Z M53.7096774,0.939278937 L54.0250846,0.942502604 C62.2054357,1.10986138 68.7860781,7.77240242 68.7860781,15.9677419 L68.7860781,15.9677419 L68.7860781,21.6034156 C68.7860781,22.6403795 67.9417997,23.4819734 66.901528,23.4819734 L66.901528,23.4819734 L40.5178268,23.4819734 C39.4775552,23.4819734 38.6332767,22.6403795 38.6332767,21.6034156 L38.6332767,21.6034156 L38.6332767,15.9677419 C38.6332767,7.66733397 45.3837351,0.939278937 53.7096774,0.939278937 L53.7096774,0.939278937 Z M91.4006791,0.939278937 L91.7160863,0.942502604 C99.8964374,1.10986138 106.47708,7.77240242 106.47708,15.9677419 L106.47708,15.9677419 L106.47708,21.6034156 C106.47708,22.6403795 105.632801,23.4819734 104.59253,23.4819734 L104.59253,23.4819734 L78.2088285,23.4819734 C77.1685569,23.4819734 76.3242784,22.6403795 76.3242784,21.6034156 L76.3242784,21.6034156 L76.3242784,15.9677419 C76.3242784,7.66733397 83.0747368,0.939278937 91.4006791,0.939278937 L91.4006791,0.939278937 Z" id="Combined-Shape" fill="#FFFFFF"></path>
                        <path d="M16.0186757,0 C24.851562,0 32.0373514,7.16294118 32.0373514,15.9677419 L32.0373514,15.9677419 L32.0373514,21.6034156 C32.0373514,23.1569829 30.7690492,24.4212524 29.2105263,24.4212524 L29.2105263,24.4212524 L18.8455008,24.4212524 L18.8455008,30.9962049 C18.8455008,31.5156262 18.4233616,31.9354839 17.9032258,31.9354839 L17.9032258,31.9354839 L14.1341256,31.9354839 C13.6139898,31.9354839 13.1918506,31.5156262 13.1918506,30.9962049 L13.1918506,30.9962049 L13.1918506,24.4212524 L2.82682513,24.4212524 C1.26830221,24.4212524 0,23.1569829 0,21.6034156 L0,21.6034156 L0,15.9677419 C0,7.16294118 7.18578947,0 16.0186757,0 Z M53.7096774,0 C62.5425637,0 69.7283531,7.16294118 69.7283531,15.9677419 L69.7283531,15.9677419 L69.7283531,21.6034156 C69.7283531,23.1569829 68.4600509,24.4212524 66.901528,24.4212524 L66.901528,24.4212524 L56.5365025,24.4212524 L56.5365025,30.9962049 C56.5365025,31.5156262 56.1143633,31.9354839 55.5942275,31.9354839 L55.5942275,31.9354839 L51.8251273,31.9354839 C51.3049915,31.9354839 50.8828523,31.5156262 50.8828523,30.9962049 L50.8828523,30.9962049 L50.8828523,24.4212524 L40.5178268,24.4212524 C38.9593039,24.4212524 37.6910017,23.1569829 37.6910017,21.6034156 L37.6910017,21.6034156 L37.6910017,15.9677419 C37.6910017,7.16294118 44.8767912,0 53.7096774,0 Z M91.4006791,0 C100.233565,0 107.419355,7.16294118 107.419355,15.9677419 L107.419355,15.9677419 L107.419355,21.6034156 C107.419355,23.1569829 106.151053,24.4212524 104.59253,24.4212524 L104.59253,24.4212524 L94.2275042,24.4212524 L94.2275042,30.9962049 C94.2275042,31.5156262 93.805365,31.9354839 93.2852292,31.9354839 L93.2852292,31.9354839 L89.516129,31.9354839 C88.9959932,31.9354839 88.573854,31.5156262 88.573854,30.9962049 L88.573854,30.9962049 L88.573854,24.4212524 L78.2088285,24.4212524 C76.6503056,24.4212524 75.3820034,23.1569829 75.3820034,21.6034156 L75.3820034,21.6034156 L75.3820034,15.9677419 C75.3820034,7.16294118 82.5677929,0 91.4006791,0 Z M16.9609508,24.4212524 L15.0764007,24.4212524 L15.0764007,30.056926 L16.9609508,30.056926 L16.9609508,24.4212524 Z M54.6519525,24.4212524 L52.7674024,24.4212524 L52.7674024,30.056926 L54.6519525,30.056926 L54.6519525,24.4212524 Z M92.3429542,24.4212524 L90.4584041,24.4212524 L90.4584041,30.056926 L92.3429542,30.056926 L92.3429542,24.4212524 Z M16.0186757,1.87855787 C8.22511885,1.87855787 1.88455008,8.19896584 1.88455008,15.9677419 L1.88455008,15.9677419 L1.88455008,21.6034156 C1.88455008,22.1218975 2.30763158,22.5426945 2.82682513,22.5426945 L2.82682513,22.5426945 L29.2105263,22.5426945 C29.7297199,22.5426945 30.1528014,22.1218975 30.1528014,21.6034156 L30.1528014,21.6034156 L30.1528014,15.9677419 C30.1528014,8.19896584 23.8122326,1.87855787 16.0186757,1.87855787 Z M53.7096774,1.87855787 C45.9161205,1.87855787 39.5755518,8.19896584 39.5755518,15.9677419 L39.5755518,15.9677419 L39.5755518,21.6034156 C39.5755518,22.1218975 39.9986333,22.5426945 40.5178268,22.5426945 L40.5178268,22.5426945 L66.901528,22.5426945 C67.4207216,22.5426945 67.8438031,22.1218975 67.8438031,21.6034156 L67.8438031,21.6034156 L67.8438031,15.9677419 C67.8438031,8.19896584 61.5032343,1.87855787 53.7096774,1.87855787 Z M91.4006791,1.87855787 C83.6071222,1.87855787 77.2665535,8.19896584 77.2665535,15.9677419 L77.2665535,15.9677419 L77.2665535,21.6034156 C77.2665535,22.1218975 77.689635,22.5426945 78.2088285,22.5426945 L78.2088285,22.5426945 L104.59253,22.5426945 C105.111723,22.5426945 105.534805,22.1218975 105.534805,21.6034156 L105.534805,21.6034156 L105.534805,15.9677419 C105.534805,8.19896584 99.194236,1.87855787 91.4006791,1.87855787 Z" id="Combined-Shape" fill="#7A7A7A"></path>
                    </g>
                </g>
            </g>
        </g>
    </g>
</svg>