<?xml version="1.0" encoding="UTF-8"?>
<svg width="898px" height="278px" viewBox="0 0 898 278" version="1.1" xmlns="http://www.w3.org/2000/svg" xmlns:xlink="http://www.w3.org/1999/xlink">
    <!-- Generator: sketchtool 59.1 (101010) - https://sketch.com -->
    <title>7D05E2C1-8B54-47B0-B0FE-1C0E1BB54E3D</title>
    <desc>Created with sketchtool.</desc>
    <g id="Comps" stroke="none" stroke-width="1" fill="none" fill-rule="evenodd">
        <g id="KW-home" transform="translate(-203.000000, -843.000000)">
            <g id="Left-House" transform="translate(204.000000, 843.000000)">
                <g id="Fills" transform="translate(1.100000, 46.200000)" fill="#E6E6E6">
                    <path d="M457.6,202.4 C457.6,207.2598 453.6598,211.2 448.8,211.2 L422.4,211.2 C417.5402,211.2 413.6,207.2598 413.6,202.4 L457.6,202.4 Z M611.6,202.4 C611.6,207.2598 607.6598,211.2 602.8,211.2 L580.8,211.2 C575.9402,211.2 572,207.2598 572,202.4 L611.6,202.4 Z M445.74552,167.2 C450.04762,167.2 453.71832,170.3097 454.42562,174.5535 L455.89192,183.3535 C456.78622,188.7171 452.65022,193.6 447.21182,193.6 L423.98862,193.6 C418.55022,193.6 414.41422,188.7171 415.30852,183.3535 L416.77482,174.5535 C417.48212,170.3097 421.15282,167.2 425.45492,167.2 L445.74552,167.2 Z M607.31649,167.00156 C612.08939,167.91676 615.21669,172.52796 614.30149,177.30086 L612.64379,185.94356 C611.74523,190.62968 607.283848,193.730556 602.604648,192.974543 L602.34449,192.92856 L607.31649,167.00156 Z" id="Chairs"></path>
                    <path d="M211.2,123.2 L211.2,202.4 L202.4,202.4 L202.4,211.2 L325.6,211.2 L325.6,202.4 L316.8,202.4 L316.8,123.2 L352,123.2 L352,228.8 L202.4,228.8 L202.4,220 L176,220 L176,149.6 L140.8,149.6 L140.8,220 L105.6,220 L105.6,123.2 L211.2,123.2 Z M96.8,123.2 L96.8,220 L70.4,220 L70.4,123.2 L96.8,123.2 Z M0,26.4 L387.2,88 L387.2,105.6 L0,44 L0,26.4 Z" id="Roof-&amp;-Siding"></path>
                    <path d="M539.8459,91.85594 L589.6187,158.30034 L548.5843,142.41854 L539.8459,91.85594 Z M539.84612,91.85605 L499.34412,123.36115 L458.30972,107.47935 L539.84612,91.85605 Z" id="Umbrella"></path>
                    <path d="M307.38345,33 L307.38345,48.4 C307.38345,50.8299 305.41335,52.8 302.98345,52.8 L294.18345,52.8 C291.75355,52.8 289.78345,50.8299 289.78345,48.4 L289.78345,33 L307.38345,33 Z M246.4,0 L246.726922,0.0029760537 C256.295693,0.177319833 264,7.98960899 264,17.6 L264,17.6 L264,24.2 C264,25.4144 263.0144,26.4 261.8,26.4 L261.8,26.4 L231,26.4 C229.7856,26.4 228.8,25.4144 228.8,24.2 L228.8,24.2 L228.8,17.6 C228.8,7.8804 236.6804,0 246.4,0 L246.4,0 Z" id="Plants"></path>
                    <polygon id="Top-Window" points="272.8 105.6 35.2 105.6 35.2 67.2771"></polygon>
                    <path d="M290.4,184.8 C295.2598,184.8 299.2,188.7402 299.2,193.6 L299.2,193.6 L299.2,202.4 L228.8,202.4 L228.8,193.6 C228.8,188.7402 232.7402,184.8 237.6,184.8 L237.6,184.8 Z M264.00011,122.64989 C264.30371,122.64989 264.55011,122.89629 264.55011,123.19989 L264.55011,123.19989 L264.55011,167.19989 C264.55011,167.20979 264.54461,167.21749 264.54461,167.22739 C269.15031,167.51009 272.80011,171.32379 272.80011,175.99989 L272.80011,175.99989 L255.20011,175.99989 C255.20011,171.32379 258.84991,167.51009 263.45561,167.22739 C263.45561,167.21749 263.45011,167.20979 263.45011,167.19989 L263.45011,167.19989 L263.45011,123.19989 C263.45011,122.89629 263.69651,122.64989 264.00011,122.64989 Z M290.40011,122.64989 C290.70371,122.64989 290.95011,122.89629 290.95011,123.19989 L290.95011,123.19989 L290.95011,167.19989 C290.95011,167.20979 290.94461,167.21749 290.94461,167.22739 C295.55031,167.51009 299.20011,171.32379 299.20011,175.99989 L299.20011,175.99989 L281.60011,175.99989 C281.60011,171.32379 285.24991,167.51009 289.85561,167.22739 C289.85561,167.21749 289.85011,167.20979 289.85011,167.19989 L289.85011,167.19989 L289.85011,123.19989 C289.85011,122.89629 290.09651,122.64989 290.40011,122.64989 Z M237.60011,122.64989 C237.90371,122.64989 238.15011,122.89629 238.15011,123.19989 L238.15011,123.19989 L238.15011,167.19989 C238.15011,167.20979 238.14461,167.21749 238.14461,167.22739 C242.75031,167.51009 246.40011,171.32379 246.40011,175.99989 L246.40011,175.99989 L228.80011,175.99989 C228.80011,171.32379 232.44991,167.51009 237.05561,167.22739 C237.05561,167.21749 237.05011,167.20979 237.05011,167.19989 L237.05011,167.19989 L237.05011,123.19989 C237.05011,122.89629 237.29651,122.64989 237.60011,122.64989 Z" id="Interior"></path>
                </g>
                <path d="M71.5,119.7053 C71.8036,119.7053 72.05,119.9506 72.05,120.2553 L72.05,152.9 C72.05,153.2036 71.8036,153.45 71.5,153.45 C71.1964,153.45 70.95,153.2036 70.95,152.9 L70.95,120.2553 C70.95,119.9506 71.1964,119.7053 71.5,119.7053 Z M106.7,125.3824 C107.0036,125.3824 107.25,125.6288 107.25,125.9324 L107.25,152.9 C107.25,153.2036 107.0036,153.45 106.7,153.45 C106.3964,153.45 106.15,153.2036 106.15,152.9 L106.15,125.9324 C106.15,125.6288 106.3964,125.3824 106.7,125.3824 Z M141.9,131.0595 C142.2036,131.0595 142.45,131.3059 142.45,131.6095 L142.45,152.9 C142.45,153.2036 142.2036,153.45 141.9,153.45 C141.5964,153.45 141.35,153.2036 141.35,152.9 L141.35,131.6095 C141.35,131.3059 141.5964,131.0595 141.9,131.0595 Z M177.1,136.7377 C177.4036,136.7377 177.65,136.983 177.65,137.2877 L177.65,152.9 C177.65,153.2036 177.4036,153.45 177.1,153.45 C176.7964,153.45 176.55,153.2036 176.55,152.9 L176.55,137.2877 C176.55,136.983 176.7964,136.7377 177.1,136.7377 Z M212.3,142.4148 C212.6036,142.4148 212.85,142.6601 212.85,142.9648 L212.85,152.9 C212.85,153.2036 212.6036,153.45 212.3,153.45 C211.9964,153.45 211.75,153.2036 211.75,152.9 L211.75,142.9648 C211.75,142.6601 211.9964,142.4148 212.3,142.4148 Z" id="Window-Deets" fill="#FFFFFF"></path>
                <path d="M353.1,266.75 C353.4036,266.75 353.65,266.9964 353.65,267.3 C353.65,267.6036 353.4036,267.85 353.1,267.85 L353.1,267.85 L203.5,267.85 C203.1964,267.85 202.95,267.6036 202.95,267.3 C202.95,266.9964 203.1964,266.75 203.5,266.75 L203.5,266.75 Z M353.1,257.95 C353.4036,257.95 353.65,258.1964 353.65,258.5 C353.65,258.8036 353.4036,259.05 353.1,259.05 L353.1,259.05 L317.9,259.05 C317.5964,259.05 317.35,258.8036 317.35,258.5 C317.35,258.1964 317.5964,257.95 317.9,257.95 L317.9,257.95 Z M212.3,257.95 C212.6036,257.95 212.85,258.1964 212.85,258.5 C212.85,258.8036 212.6036,259.05 212.3,259.05 L212.3,259.05 L177.1,259.05 C176.7964,259.05 176.55,258.8036 176.55,258.5 C176.55,258.1964 176.7964,257.95 177.1,257.95 L177.1,257.95 Z M141.9,257.95 C142.2036,257.95 142.45,258.1964 142.45,258.5 C142.45,258.8036 142.2036,259.05 141.9,259.05 L141.9,259.05 L106.7,259.05 C106.3964,259.05 106.15,258.8036 106.15,258.5 C106.15,258.1964 106.3964,257.95 106.7,257.95 L106.7,257.95 Z M97.9,257.95 C98.2036,257.95 98.45,258.1964 98.45,258.5 C98.45,258.8036 98.2036,259.05 97.9,259.05 L97.9,259.05 L71.5,259.05 C71.1964,259.05 70.95,258.8036 70.95,258.5 C70.95,258.1964 71.1964,257.95 71.5,257.95 L71.5,257.95 Z M353.1,249.15 C353.4036,249.15 353.65,249.3964 353.65,249.7 C353.65,250.0036 353.4036,250.25 353.1,250.25 L353.1,250.25 L326.7,250.25 C326.3964,250.25 326.15,250.0036 326.15,249.7 C326.15,249.3964 326.3964,249.15 326.7,249.15 L326.7,249.15 Z M203.5,249.15 C203.8036,249.15 204.05,249.3964 204.05,249.7 C204.05,250.0036 203.8036,250.25 203.5,250.25 L203.5,250.25 L177.1,250.25 C176.7964,250.25 176.55,250.0036 176.55,249.7 C176.55,249.3964 176.7964,249.15 177.1,249.15 L177.1,249.15 Z M141.9,249.15 C142.2036,249.15 142.45,249.3964 142.45,249.7 C142.45,250.0036 142.2036,250.25 141.9,250.25 L141.9,250.25 L106.7,250.25 C106.3964,250.25 106.15,250.0036 106.15,249.7 C106.15,249.3964 106.3964,249.15 106.7,249.15 L106.7,249.15 Z M97.9,249.15 C98.2036,249.15 98.45,249.3964 98.45,249.7 C98.45,250.0036 98.2036,250.25 97.9,250.25 L97.9,250.25 L71.5,250.25 C71.1964,250.25 70.95,250.0036 70.95,249.7 C70.95,249.3964 71.1964,249.15 71.5,249.15 L71.5,249.15 Z M353.1,240.35 C353.4036,240.35 353.65,240.5964 353.65,240.9 C353.65,241.2036 353.4036,241.45 353.1,241.45 L353.1,241.45 L317.9,241.45 C317.5964,241.45 317.35,241.2036 317.35,240.9 C317.35,240.5964 317.5964,240.35 317.9,240.35 L317.9,240.35 Z M212.3,240.35 C212.6036,240.35 212.85,240.5964 212.85,240.9 C212.85,241.2036 212.6036,241.45 212.3,241.45 L212.3,241.45 L177.1,241.45 C176.7964,241.45 176.55,241.2036 176.55,240.9 C176.55,240.5964 176.7964,240.35 177.1,240.35 L177.1,240.35 Z M141.9,240.35 C142.2036,240.35 142.45,240.5964 142.45,240.9 C142.45,241.2036 142.2036,241.45 141.9,241.45 L141.9,241.45 L106.7,241.45 C106.3964,241.45 106.15,241.2036 106.15,240.9 C106.15,240.5964 106.3964,240.35 106.7,240.35 L106.7,240.35 Z M97.9,240.35 C98.2036,240.35 98.45,240.5964 98.45,240.9 C98.45,241.2036 98.2036,241.45 97.9,241.45 L97.9,241.45 L71.5,241.45 C71.1964,241.45 70.95,241.2036 70.95,240.9 C70.95,240.5964 71.1964,240.35 71.5,240.35 L71.5,240.35 Z M353.1,231.55 C353.4036,231.55 353.65,231.7964 353.65,232.1 C353.65,232.4036 353.4036,232.65 353.1,232.65 L353.1,232.65 L317.9,232.65 C317.5964,232.65 317.35,232.4036 317.35,232.1 C317.35,231.7964 317.5964,231.55 317.9,231.55 L317.9,231.55 Z M212.3,231.55 C212.6036,231.55 212.85,231.7964 212.85,232.1 C212.85,232.4036 212.6036,232.65 212.3,232.65 L212.3,232.65 L177.1,232.65 C176.7964,232.65 176.55,232.4036 176.55,232.1 C176.55,231.7964 176.7964,231.55 177.1,231.55 L177.1,231.55 Z M141.9,231.55 C142.2036,231.55 142.45,231.7964 142.45,232.1 C142.45,232.4036 142.2036,232.65 141.9,232.65 L141.9,232.65 L106.7,232.65 C106.3964,232.65 106.15,232.4036 106.15,232.1 C106.15,231.7964 106.3964,231.55 106.7,231.55 L106.7,231.55 Z M97.9,231.55 C98.2036,231.55 98.45,231.7964 98.45,232.1 C98.45,232.4036 98.2036,232.65 97.9,232.65 L97.9,232.65 L71.5,232.65 C71.1964,232.65 70.95,232.4036 70.95,232.1 C70.95,231.7964 71.1964,231.55 71.5,231.55 L71.5,231.55 Z M141.9,222.75 C142.2036,222.75 142.45,222.9964 142.45,223.3 C142.45,223.6036 142.2036,223.85 141.9,223.85 L141.9,223.85 L106.7,223.85 C106.3964,223.85 106.15,223.6036 106.15,223.3 C106.15,222.9964 106.3964,222.75 106.7,222.75 L106.7,222.75 Z M97.9,222.75 C98.2036,222.75 98.45,222.9964 98.45,223.3 C98.45,223.6036 98.2036,223.85 97.9,223.85 L97.9,223.85 L71.5,223.85 C71.1964,223.85 70.95,223.6036 70.95,223.3 C70.95,222.9964 71.1964,222.75 71.5,222.75 L71.5,222.75 Z M353.1,222.75 C353.4036,222.75 353.65,222.9964 353.65,223.3 C353.65,223.6036 353.4036,223.85 353.1,223.85 L353.1,223.85 L317.9,223.85 C317.5964,223.85 317.35,223.6036 317.35,223.3 C317.35,222.9964 317.5964,222.75 317.9,222.75 L317.9,222.75 Z M212.3,222.75 C212.6036,222.75 212.85,222.9964 212.85,223.3 C212.85,223.6036 212.6036,223.85 212.3,223.85 L212.3,223.85 L177.1,223.85 C176.7964,223.85 176.55,223.6036 176.55,223.3 C176.55,222.9964 176.7964,222.75 177.1,222.75 L177.1,222.75 Z M353.1,213.95 C353.4036,213.95 353.65,214.1964 353.65,214.5 C353.65,214.8036 353.4036,215.05 353.1,215.05 L353.1,215.05 L317.9,215.05 C317.5964,215.05 317.35,214.8036 317.35,214.5 C317.35,214.1964 317.5964,213.95 317.9,213.95 L317.9,213.95 Z M212.3,213.95 C212.6036,213.95 212.85,214.1964 212.85,214.5 C212.85,214.8036 212.6036,215.05 212.3,215.05 L212.3,215.05 L177.1,215.05 C176.7964,215.05 176.55,214.8036 176.55,214.5 C176.55,214.1964 176.7964,213.95 177.1,213.95 L177.1,213.95 Z M141.9,213.95 C142.2036,213.95 142.45,214.1964 142.45,214.5 C142.45,214.8036 142.2036,215.05 141.9,215.05 L141.9,215.05 L106.7,215.05 C106.3964,215.05 106.15,214.8036 106.15,214.5 C106.15,214.1964 106.3964,213.95 106.7,213.95 L106.7,213.95 Z M97.9,213.95 C98.2036,213.95 98.45,214.1964 98.45,214.5 C98.45,214.8036 98.2036,215.05 97.9,215.05 L97.9,215.05 L71.5,215.05 C71.1964,215.05 70.95,214.8036 70.95,214.5 C70.95,214.1964 71.1964,213.95 71.5,213.95 L71.5,213.95 Z M353.1,205.15 C353.4036,205.15 353.65,205.3964 353.65,205.7 C353.65,206.0036 353.4036,206.25 353.1,206.25 L353.1,206.25 L317.9,206.25 C317.5964,206.25 317.35,206.0036 317.35,205.7 C317.35,205.3964 317.5964,205.15 317.9,205.15 L317.9,205.15 Z M212.3,205.15 C212.6036,205.15 212.85,205.3964 212.85,205.7 C212.85,206.0036 212.6036,206.25 212.3,206.25 L212.3,206.25 L177.1,206.25 C176.7964,206.25 176.55,206.0036 176.55,205.7 C176.55,205.3964 176.7964,205.15 177.1,205.15 L177.1,205.15 Z M141.9,205.15 C142.2036,205.15 142.45,205.3964 142.45,205.7 C142.45,206.0036 142.2036,206.25 141.9,206.25 L141.9,206.25 L106.7,206.25 C106.3964,206.25 106.15,206.0036 106.15,205.7 C106.15,205.3964 106.3964,205.15 106.7,205.15 L106.7,205.15 Z M97.9,205.15 C98.2036,205.15 98.45,205.3964 98.45,205.7 C98.45,206.0036 98.2036,206.25 97.9,206.25 L97.9,206.25 L71.5,206.25 C71.1964,206.25 70.95,206.0036 70.95,205.7 C70.95,205.3964 71.1964,205.15 71.5,205.15 L71.5,205.15 Z M353.1,196.35 C353.4036,196.35 353.65,196.5964 353.65,196.9 C353.65,197.2036 353.4036,197.45 353.1,197.45 L353.1,197.45 L317.9,197.45 C317.5964,197.45 317.35,197.2036 317.35,196.9 C317.35,196.5964 317.5964,196.35 317.9,196.35 L317.9,196.35 Z M97.9,196.35 C98.2036,196.35 98.45,196.5964 98.45,196.9 C98.45,197.2036 98.2036,197.45 97.9,197.45 L97.9,197.45 L71.5,197.45 C71.1964,197.45 70.95,197.2036 70.95,196.9 C70.95,196.5964 71.1964,196.35 71.5,196.35 L71.5,196.35 Z M212.3,196.35 C212.6036,196.35 212.85,196.5964 212.85,196.9 C212.85,197.2036 212.6036,197.45 212.3,197.45 L212.3,197.45 L106.7,197.45 C106.3964,197.45 106.15,197.2036 106.15,196.9 C106.15,196.5964 106.3964,196.35 106.7,196.35 L106.7,196.35 Z M353.1,187.55 C353.4036,187.55 353.65,187.7964 353.65,188.1 C353.65,188.4036 353.4036,188.65 353.1,188.65 L353.1,188.65 L317.9,188.65 C317.5964,188.65 317.35,188.4036 317.35,188.1 C317.35,187.7964 317.5964,187.55 317.9,187.55 L317.9,187.55 Z M97.9,187.55 C98.2036,187.55 98.45,187.7964 98.45,188.1 C98.45,188.4036 98.2036,188.65 97.9,188.65 L97.9,188.65 L71.5,188.65 C71.1964,188.65 70.95,188.4036 70.95,188.1 C70.95,187.7964 71.1964,187.55 71.5,187.55 L71.5,187.55 Z M212.3,187.55 C212.6036,187.55 212.85,187.7964 212.85,188.1 C212.85,188.4036 212.6036,188.65 212.3,188.65 L212.3,188.65 L106.7,188.65 C106.3964,188.65 106.15,188.4036 106.15,188.1 C106.15,187.7964 106.3964,187.55 106.7,187.55 L106.7,187.55 Z M353.1,178.75 C353.4036,178.75 353.65,178.9964 353.65,179.3 C353.65,179.6036 353.4036,179.85 353.1,179.85 L353.1,179.85 L317.9,179.85 C317.5964,179.85 317.35,179.6036 317.35,179.3 C317.35,178.9964 317.5964,178.75 317.9,178.75 L317.9,178.75 Z M97.9,178.75 C98.2036,178.75 98.45,178.9964 98.45,179.3 C98.45,179.6036 98.2036,179.85 97.9,179.85 L97.9,179.85 L71.5,179.85 C71.1964,179.85 70.95,179.6036 70.95,179.3 C70.95,178.9964 71.1964,178.75 71.5,178.75 L71.5,178.75 Z M212.3,178.75 C212.6036,178.75 212.85,178.9964 212.85,179.3 C212.85,179.6036 212.6036,179.85 212.3,179.85 L212.3,179.85 L106.7,179.85 C106.3964,179.85 106.15,179.6036 106.15,179.3 C106.15,178.9964 106.3964,178.75 106.7,178.75 L106.7,178.75 Z" id="Siding" fill="#C3C3C3"></path>
                <path d="M299.15061,0.9669 C299.27271,0.4774 300.09441,0.4774 300.21651,0.9669 L300.21651,0.9669 L317.81651,71.3669 C317.85831,71.5308 317.82091,71.7057 317.71641,71.8388 C317.61301,71.9719 317.45241,72.05 317.28301,72.05 L317.28301,72.05 L300.23301,72.05 L300.23301,79.75 L308.48301,79.75 C308.78771,79.75 309.03301,79.9964 309.03301,80.3 L309.03301,80.3 L309.03301,95.7 C309.03301,98.4291 306.81321,100.65 304.08301,100.65 L304.08301,100.65 L295.28301,100.65 C292.55391,100.65 290.33301,98.4291 290.33301,95.7 L290.33301,95.7 L290.33301,80.3 C290.33301,79.9964 290.57941,79.75 290.88301,79.75 L290.88301,79.75 L299.13301,79.75 L299.13301,72.05 L282.08301,72.05 C281.91471,72.05 281.75411,71.9719 281.64961,71.8388 C281.54621,71.7057 281.50881,71.5308 281.55061,71.3669 L281.55061,71.3669 Z M247.5,46.75 C257.5078,46.75 265.65,54.8922 265.65,64.9 L265.65,64.9 L265.65,71.5 C265.65,73.0158 264.4158,74.25 262.9,74.25 L262.9,74.25 L248.05,74.25 L248.05,81.95 L265.1,81.95 C265.2694,81.95 265.4289,82.0281 265.5334,82.1612 C265.6379,82.2943 265.6742,82.4692 265.6335,82.6331 L265.6335,82.6331 L262.9,93.5682 C261.8572,97.7383 258.1271,100.65 253.8294,100.65 L253.8294,100.65 L241.1706,100.65 C236.8729,100.65 233.1428,97.7383 232.1,93.5682 L232.1,93.5682 L229.3665,82.6331 C229.3258,82.4692 229.3621,82.2943 229.4666,82.1612 C229.5711,82.0281 229.7306,81.95 229.9,81.95 L229.9,81.95 L246.95,81.95 L246.95,74.25 L232.1,74.25 C230.5842,74.25 229.35,73.0158 229.35,71.5 L229.35,71.5 L229.35,64.9 C229.35,54.8922 237.4922,46.75 247.5,46.75 Z M307.93301,80.85 L291.43301,80.85 L291.43301,95.7 C291.43301,97.823 293.16111,99.55 295.28301,99.55 L295.28301,99.55 L304.08301,99.55 C306.20601,99.55 307.93301,97.823 307.93301,95.7 L307.93301,95.7 L307.93301,80.85 Z M264.396,83.05 L230.604,83.05 L233.167,93.3009 C234.0877,96.9804 237.3778,99.55 241.1706,99.55 L241.1706,99.55 L253.8294,99.55 C257.6222,99.55 260.9123,96.9804 261.833,93.3009 L261.833,93.3009 L264.396,83.05 Z M247.5,47.85 C238.0983,47.85 230.45,55.4983 230.45,64.9 L230.45,64.9 L230.45,71.5 C230.45,72.4097 231.1903,73.15 232.1,73.15 L232.1,73.15 L262.9,73.15 C263.8097,73.15 264.55,72.4097 264.55,71.5 L264.55,71.5 L264.55,64.9 C264.55,55.4983 256.9017,47.85 247.5,47.85 Z M299.68301,3.3682 L282.78811,70.95 L316.57901,70.95 L299.68301,3.3682 Z M308.48345,53.35 C308.78705,53.35 309.03345,53.5964 309.03345,53.9 C309.03345,54.2036 308.78705,54.45 308.48345,54.45 L308.48345,54.45 L290.88345,54.45 C290.57985,54.45 290.33345,54.2036 290.33345,53.9 C290.33345,53.5964 290.57985,53.35 290.88345,53.35 L290.88345,53.35 Z M304.08345,35.75 C304.38705,35.75 304.63345,35.9964 304.63345,36.3 C304.63345,36.6036 304.38705,36.85 304.08345,36.85 L304.08345,36.85 L295.28345,36.85 C294.97985,36.85 294.73345,36.6036 294.73345,36.3 C294.73345,35.9964 294.97985,35.75 295.28345,35.75 L295.28345,35.75 Z" id="Plants" fill="#C3C3C3"></path>
                <path d="M168.3,249.15 C168.6036,249.15 168.85,249.3964 168.85,249.7 L168.85,249.7 L168.85,267.3 C168.85,267.6036 168.6036,267.85 168.3,267.85 L168.3,267.85 L150.7,267.85 C150.3964,267.85 150.15,267.6036 150.15,267.3 L150.15,267.3 L150.15,249.7 C150.15,249.3964 150.3964,249.15 150.7,249.15 L150.7,249.15 Z M167.75,250.25 L151.25,250.25 L151.25,266.75 L167.75,266.75 L167.75,250.25 Z M170.5,229.9 C171.7144,229.9 172.7,230.8856 172.7,232.1 C172.7,233.3144 171.7144,234.3 170.5,234.3 C169.2856,234.3 168.3,233.3144 168.3,232.1 C168.3,230.8856 169.2856,229.9 170.5,229.9 Z M159.5,205.15 C164.6557,205.15 168.85,209.3443 168.85,214.5 C168.85,219.6557 164.6557,223.85 159.5,223.85 C154.3443,223.85 150.15,219.6557 150.15,214.5 C150.15,209.3443 154.3443,205.15 159.5,205.15 Z M159.5,206.25 C154.9504,206.25 151.25,209.9504 151.25,214.5 C151.25,219.0496 154.9504,222.75 159.5,222.75 C164.0496,222.75 167.75,219.0496 167.75,214.5 C167.75,209.9504 164.0496,206.25 159.5,206.25 Z" id="Door-Deets" fill="#0093E9"></path>
                <path d="M1.13636414,72.6002992 L1.2727,72.61331 L167.1318,99.00011 L353.1,99.00011 C353.7072,99.00011 354.2,99.49291 354.2,100.10011 L354.2,100.10011 L354.2,128.76061 L388.4727,134.21331 C389.0073,134.29911 389.4,134.75891 389.4,135.30011 L389.4,135.30011 L389.4,152.90011 C389.4,153.22131 389.2592,153.52821 389.0139,153.73721 C388.8137,153.90771 388.5596,154.00011 388.3,154.00011 C388.2428,154.00011 388.1845,153.99571 388.1273,153.98691 L388.1273,153.98691 L371.8,151.38871 L371.8,170.50011 C371.8,171.10731 371.3072,171.60011 370.7,171.60011 L370.7,171.60011 L354.2,171.60011 L354.2,276.10011 C354.2,276.70731 353.7072,277.20011 353.1,277.20011 L353.1,277.20011 L18.7,277.20011 C18.0928,277.20011 17.6,276.70731 17.6,276.10011 L17.6,276.10011 L17.6,267.30011 C17.6,266.69291 18.0928,266.20011 18.7,266.20011 L18.7,266.20011 L35.2,266.20011 L35.2,171.60011 L18.7,171.60011 C18.0928,171.60011 17.6,171.10731 17.6,170.50011 L17.6,170.50011 L17.6,95.03901 L0.9273,92.38691 C0.3927,92.30111 -1.70530257e-13,91.84131 -1.70530257e-13,91.30011 L-1.70530257e-13,91.30011 L-1.70530257e-13,73.70011 C-1.70530257e-13,73.37781 0.1408,73.07201 0.3861,72.86301 C0.6314,72.65511 0.9548,72.56271 1.2727,72.61331 Z M540.977759,138.059425 L541.0713,138.0654 C541.0856,138.0665 541.0999,138.0731 541.1142,138.0753 C541.1274,138.0764 541.1395,138.0808 541.1516,138.0841 C541.1824,138.0896 541.211,138.0962 541.2407,138.105 C541.3078,138.1237 541.3694,138.1479 541.4321,138.1787 C541.4629,138.1941 541.4915,138.2106 541.5212,138.2282 C541.5278,138.2326 541.5355,138.2359 541.5421,138.2403 L541.5421,138.2403 L541.5905,138.2667 C541.6642,138.3206 541.7291,138.3866 541.7885,138.4592 L541.7885,138.4592 L541.8149,138.4812 C541.816,138.4834 541.8171,138.4856 541.8182,138.4878 C541.8204,138.4911 541.8237,138.4933 541.8259,138.4966 L541.8259,138.4966 L591.5987,204.941 C591.8935,205.3337 591.8913,205.8738 591.5954,206.2643 C591.3831,206.5448 591.0553,206.6999 590.7187,206.6999 C590.5856,206.6999 590.4514,206.6757 590.3216,206.6262 L590.3216,206.6262 L549.307,190.7521 C549.3059,190.751 549.3059,190.751 549.3048,190.751 L549.3048,190.751 L525.6933,181.6133 L523.2667,187.8833 C524.7858,188.8623 525.8,190.5618 525.8,192.5 C525.8,195.1565 523.9069,197.3774 521.4,197.8889 L521.4,197.8889 L521.4,231 L564.3,231 C564.9072,231 565.4,231.4928 565.4,232.1 C565.4,237.5582 560.9582,242 555.5,242 L555.5,242 L525.8,242 L525.8,266.2 L529.1,266.2 C529.3915,266.2 529.672,266.3155 529.8777,266.5223 L529.8777,266.5223 L538.6777,275.3223 C538.9923,275.6369 539.0869,276.1099 538.9164,276.5213 C538.7459,276.9316 538.3444,277.2 537.9,277.2 L537.9,277.2 L502.7,277.2 C502.2556,277.2 501.8541,276.9316 501.6836,276.5213 C501.5131,276.1099 501.6077,275.6369 501.9223,275.3223 L501.9223,275.3223 L510.7223,266.5223 C510.928,266.3155 511.2085,266.2 511.5,266.2 L511.5,266.2 L514.8,266.2 L514.8,242 L485.1,242 C479.6418,242 475.2,237.5582 475.2,232.1 C475.2,231.4928 475.6928,231 476.3,231 L476.3,231 L519.2,231 L519.2,197.8889 C516.6931,197.3774 514.8,195.1565 514.8,192.5 C514.8,189.4673 517.2673,187 520.3,187 C520.6124,187 520.9149,187.0418 521.2141,187.0924 L521.2141,187.0924 L523.6418,180.818 L459.0135,155.8051 C458.5559,155.628 458.2699,155.1693 458.3139,154.6809 C458.3579,154.1914 458.7209,153.7921 459.2038,153.6997 L459.2038,153.6997 L540.7391,138.0753 L540.7391,138.0753 L540.7501,138.0753 C540.7534,138.0742 540.7556,138.0731 540.7589,138.072 C540.7688,138.0709 540.7798,138.0742 540.7897,138.0731 C540.8843,138.059229 540.9778,138.0544 541.0713,138.0654 Z M607.33651,214.09366 C607.45091,213.49746 608.02731,213.10916 608.62351,213.22136 C611.22061,213.71856 613.46901,215.19916 614.95291,217.38706 C616.43681,219.57606 616.98021,222.21166 616.48191,224.80876 L616.48191,224.80876 L614.82421,233.45036 C614.32591,236.04746 612.84751,238.29586 610.65851,239.77976 C610.11841,240.14606 609.54421,240.43316 608.95791,240.68286 L608.95791,240.68286 L607.43881,248.59956 L612.70011,248.59956 C613.30731,248.59956 613.80011,249.09236 613.80011,249.69956 C613.80011,255.15886 609.35831,259.59956 603.90011,259.59956 L603.90011,259.59956 L603.25001,259.59956 C604.87911,260.91626 606.09571,262.74776 606.63361,264.89826 L606.63361,264.89826 L609.36711,275.83336 C609.51451,276.42296 609.15591,277.02026 608.56741,277.16766 C608.47721,277.18966 608.38701,277.19956 608.29901,277.19956 C607.80621,277.19956 607.35741,276.86626 607.23311,276.36686 L607.23311,276.36686 L604.49961,265.43286 C603.64051,261.99866 600.56931,259.59956 597.02951,259.59956 L597.02951,259.59956 L588.77071,259.59956 C585.23091,259.59956 582.15971,261.99866 581.30061,265.43286 L581.30061,265.43286 L578.56711,276.36686 C578.41971,276.95646 577.82021,277.31506 577.23281,277.16766 C576.64431,277.02026 576.28571,276.42296 576.43311,275.83336 L576.43311,275.83336 L579.16661,264.89826 C579.70451,262.74776 580.92111,260.91626 582.55021,259.59956 L582.55021,259.59956 L581.90011,259.59956 C576.44081,259.59956 572.00011,255.15886 572.00011,249.69956 C572.00011,249.09236 572.49291,248.59956 573.10011,248.59956 L573.10011,248.59956 L605.19921,248.59956 L606.58411,241.38026 C606.10231,241.45286 605.61391,241.48916 605.12331,241.48916 C604.49631,241.48916 603.86601,241.42976 603.23681,241.30876 C602.64061,241.19436 602.25011,240.61796 602.36451,240.02176 L602.36451,240.02176 Z M446.8453,213.4 C451.7051,213.4 455.8114,216.8793 456.6111,221.672 L456.6111,221.672 L458.0774,230.472 C458.557,233.3485 457.7507,236.2734 455.8664,238.4987 C454.5772,240.0211 452.8766,241.0848 451,241.6139 L451,241.6139 L451,248.6 L458.7,248.6 C459.3072,248.6 459.8,249.0928 459.8,249.7 C459.8,255.1582 455.3582,259.6 449.9,259.6 L449.9,259.6 L449.2499,259.6 C450.879,260.9167 452.0956,262.7471 452.6335,264.8987 L452.6335,264.8987 L455.367,275.8327 C455.5144,276.4223 455.1558,277.0196 454.5673,277.167 C454.4771,277.1901 454.388,277.200112 454.2989,277.200112 C453.8061,277.200112 453.3584,276.8667 453.233,276.3673 L453.233,276.3673 L450.4995,265.4322 C449.6404,261.998 446.5692,259.6 443.0294,259.6 L443.0294,259.6 L430.3706,259.6 C426.8308,259.6 423.7596,261.998 422.9005,265.4322 L422.9005,265.4322 L420.167,276.3673 C420.0196,276.9558 419.4234,277.3144 418.8327,277.167 C418.2442,277.0196 417.8856,276.4223 418.033,275.8327 L418.033,275.8327 L420.7665,264.8987 C421.3044,262.7471 422.521,260.9167 424.1501,259.6 L424.1501,259.6 L423.5,259.6 C418.0418,259.6 413.6,255.1582 413.6,249.7 C413.6,249.0928 414.0928,248.6 414.7,248.6 L414.7,248.6 L422.4,248.6 L422.4,241.6139 C420.5234,241.0848 418.8228,240.0211 417.5336,238.4987 C415.6493,236.2734 414.843,233.3485 415.3226,230.472 L415.3226,230.472 L416.7889,221.672 C417.5886,216.8793 421.6949,213.4 426.5547,213.4 L426.5547,213.4 Z M528.6446,268.4 L511.9554,268.4 L505.3554,275 L535.2446,275 L528.6446,268.4 Z M202.4,268.40011 L19.8,268.40011 L19.8,275.00011 L202.4,275.00011 L202.4,268.40011 Z M211.2,171.60011 L107.8,171.60011 L107.8,266.20011 L140.8,266.20011 L140.8,196.90011 C140.8,196.29291 141.2928,195.80011 141.9,195.80011 L141.9,195.80011 L177.1,195.80011 C177.7072,195.80011 178.2,196.29291 178.2,196.90011 L178.2,196.90011 L178.2,266.20011 L203.5,266.20011 C204.1072,266.20011 204.6,266.69291 204.6,267.30011 L204.6,267.30011 L204.6,275.00011 L352,275.00011 L352,171.60011 L319,171.60011 L319,248.60011 L326.7,248.60011 C327.3072,248.60011 327.8,249.09291 327.8,249.70011 L327.8,249.70011 L327.8,258.50011 C327.8,259.10731 327.3072,259.60011 326.7,259.60011 L326.7,259.60011 L203.5,259.60011 C202.8928,259.60011 202.4,259.10731 202.4,258.50011 L202.4,258.50011 L202.4,249.70011 C202.4,249.09291 202.8928,248.60011 203.5,248.60011 L203.5,248.60011 L211.2,248.60011 L211.2,171.60011 Z M96.8,171.60011 L72.6,171.60011 L72.6,266.20011 L96.8,266.20011 L96.8,171.60011 Z M523.6,242 L517,242 L517,266.2 L523.6,266.2 L523.6,242 Z M176,198.00011 L143,198.00011 L143,266.20011 L176,266.20011 L176,198.00011 Z M105.6,171.60011 L99,171.60011 L99,266.20011 L105.6,266.20011 L105.6,171.60011 Z M70.4,171.60011 L46.2,171.60011 L46.2,266.20011 L70.4,266.20011 L70.4,171.60011 Z M44,171.60011 L37.4,171.60011 L37.4,266.20011 L44,266.20011 L44,171.60011 Z M325.6,250.80011 L204.6,250.80011 L204.6,257.40011 L325.6,257.40011 L325.6,250.80011 Z M457.5219,250.8 L415.8781,250.8 C416.4138,254.5268 419.6269,257.4 423.5,257.4 L423.5,257.4 L449.9,257.4 C453.7731,257.4 456.9862,254.5268 457.5219,250.8 L457.5219,250.8 Z M611.52201,250.79956 L574.27821,250.79956 C574.81391,254.52636 578.02701,257.39956 581.90011,257.39956 L581.90011,257.39956 L603.90011,257.39956 C607.77211,257.39956 610.98631,254.52636 611.52201,250.79956 L611.52201,250.79956 Z M316.8,198.00011 L283.8,198.00011 L283.8,248.60011 L316.8,248.60011 L316.8,198.00011 Z M448.8,241.9736 C448.6372,241.9813 448.4755,242 448.3116,242 L448.3116,242 L425.0884,242 C424.9245,242 424.7628,241.9813 424.6,241.9736 L424.6,241.9736 L424.6,248.6 L448.8,248.6 Z M281.6,198.00011 L248.6,198.00011 L248.6,248.60011 L281.6,248.60011 L281.6,198.00011 Z M246.4,198.00011 L213.4,198.00011 L213.4,248.60011 L246.4,248.60011 L246.4,198.00011 Z M446.8453,215.6 L426.5547,215.6 C422.7751,215.6 419.5807,218.306 418.9592,222.0339 L418.9592,222.0339 L417.4929,230.8339 C417.12,233.0713 417.747,235.3461 419.2133,237.0764 C420.6785,238.8078 422.8202,239.8 425.0884,239.8 L425.0884,239.8 L448.3116,239.8 C450.5798,239.8 452.7215,238.8078 454.1867,237.0764 C455.653,235.3461 456.28,233.0713 455.9071,230.8339 L455.9071,230.8339 L454.4408,222.0339 C453.8193,218.306 450.6249,215.6 446.8453,215.6 L446.8453,215.6 Z M563.1219,233.2 L477.4781,233.2 C478.0138,236.9268 481.2269,239.8 485.1,239.8 L485.1,239.8 L555.5,239.8 C559.3731,239.8 562.5862,236.9268 563.1219,233.2 L563.1219,233.2 Z M609.27471,215.66446 L604.74601,239.27926 C606.39931,239.35626 608.02731,238.90526 609.42321,237.95926 C611.12601,236.80426 612.27661,235.05636 612.66381,233.03566 L612.66381,233.03566 L614.32151,224.39406 C614.70871,222.37446 614.28631,220.32406 613.13131,218.62126 C612.18641,217.22646 610.84111,216.20236 609.27471,215.66446 L609.27471,215.66446 Z M542.8093,143.4785 L550.6633,188.9173 L587.5386,203.1898 L542.8093,143.4785 Z M316.8,171.60011 L213.4,171.60011 L213.4,195.80011 L316.8,195.80011 L316.8,171.60011 Z M520.3,189.2 C518.4806,189.2 517,190.6806 517,192.5 C517,194.3194 518.4806,195.8 520.3,195.8 C522.1194,195.8 523.6,194.3194 523.6,192.5 C523.6,190.6806 522.1194,189.2 520.3,189.2 Z M540.1737,141.1498 L502.6538,170.3372 L548.2697,187.9911 L540.1737,141.1498 Z M536.6592,141.0981 L463.3838,155.1385 L500.2602,169.4099 L536.6592,141.0981 Z M19.8,95.38881 L19.8,169.40011 L369.6,169.40011 L369.6,151.03891 L19.8,95.38881 Z M36.3374064,113.478015 L36.4749,113.49074 L274.0749,151.81364 C274.6414,151.90494 275.0429,152.41644 274.9967,152.98844 C274.9505,153.55934 274.4731,154.00044 273.9,154.00044 L273.9,154.00044 L36.3,154.00044 C35.6928,154.00044 35.2,153.50764 35.2,152.90044 L35.2,152.90044 L35.2,114.57754 C35.2,114.25524 35.3408,113.94834 35.5872,113.73934 C35.8314,113.53144 36.1537,113.44124 36.4749,113.49074 Z M37.4,115.86894 L37.4,151.80044 L260.172,151.80044 L37.4,115.86894 Z M2.2,74.98931 L2.2,90.36071 L387.2,151.61091 L387.2,136.23841 L2.2,74.98931 Z M352,101.20011 L180.9599,101.20011 L352,128.41081 L352,101.20011 Z" id="Main" stroke="#FFFFFF" stroke-width="0.75" fill="#7A7A7A"></path>
                <path d="M326.7,256.325429 L326.7,265.1 L203.5,265.1 L203.5,256.325429 L326.7,256.325429 Z M524.7,238.776288 L524.7,256.325429 L515.9,256.325429 L515.9,238.776288 L524.7,238.776288 Z M353.1,168.579724 L353.1,194.903436 L71.5,194.903436 L71.5,168.579724 L353.1,168.579724 Z M45.1,168.579724 L45.1,177.354295 L36.3,177.354295 L36.3,168.579724 L45.1,168.579724 Z M18.7,92.4 L370.7,148.646094 L370.7,161.998796 L18.7,101.174571 L18.7,92.4 Z" id="Shadows" fill="#C3C3C3" opacity="0.300000012" style="mix-blend-mode: multiply;"></path>
                <g id="tree" opacity="0.5" transform="translate(700.000000, 151.500000)">
                    <path d="M76.2203868,74.3376564 C72.8291682,77.2698106 68.9126658,79.858411 65.3067086,81.9304448 L65.3067086,65.5 C63.1708851,65.9358274 60.9648585,66.1813407 58.6993659,66.1813407 C56.4346992,66.1813407 54.2286727,65.9358274 52.0920232,65.5008239 L52.0920232,92.41337 L52.0920232,92.4281997 L52.0920232,92.6877188 C50.3435552,91.207224 48.495977,89.5347673 46.656658,87.6868263 C44.7644802,85.7861576 42.7715405,83.5765375 40.8876219,81.1329383 C37.1809026,83.745431 32.774631,85.434365 28,85.8528911 C35.8140086,97.303864 46.7186018,105.614243 52.0920232,109.294472 L52.0920232,125.5 L65.3067086,125.5 L65.3067086,96.8087179 C68.7375713,95.1675683 73.8574359,92.4776319 79.0070336,88.8814382 C83.4314755,85.7911008 87.0861619,82.5928364 90,79.3006509 C84.8693984,78.9686311 80.1377151,77.1791849 76.2203868,74.3376564" id="Fill-1" fill="#E6E6E6"></path>
                    <path d="M91.7773807,26.9617327 C91.5577702,26.9617327 91.3414374,26.9733097 91.1234657,26.9790982 C88.0931679,11.8727565 74.8624516,0.5 58.9996866,0.5 C40.8965661,0.5 26.2219924,15.3086472 26.2219924,33.5771659 C11.1229476,33.5771659 -0.994965942,46.4549334 0.0645730215,61.9201623 C0.951209648,74.8640843 11.2720861,85.3925462 24.088984,86.4146306 C37.5237413,87.4871577 49.0319898,78.3313982 51.8033438,65.8447681 C54.1199073,66.3682142 56.5257901,66.6543317 58.9996866,66.6543317 C62.2454977,66.6543317 65.3774064,66.1714051 68.3380516,65.284937 C72.9933036,74.633371 82.9708337,80.818801 94.2619299,79.769428 C106.934606,78.5927078 117.058816,68.1146886 117.93562,55.3022484 C118.99352,39.8378464 106.875606,26.9617327 91.7773807,26.9617327" id="Fill-3" fill="#FFFFFF"></path>
                    <line x1="58.5" y1="72.5" x2="58.5" y2="85.5" id="Stroke-5" stroke="#C3C3C3" stroke-linecap="round" stroke-linejoin="round"></line>
                    <line x1="58.5" y1="92.5" x2="58.5" y2="118.5" id="Stroke-7" stroke="#C3C3C3" stroke-linecap="round" stroke-linejoin="round"></line>
                    <path d="M65,85.5 C65,89.36925 61.86925,92.5 58,92.5" id="Stroke-9" stroke="#C3C3C3" stroke-linecap="round" stroke-linejoin="round"></path>
                    <path d="M52,99.5 C52,103.36925 55.13075,106.5 59,106.5" id="Stroke-11" stroke="#C3C3C3" stroke-linecap="round" stroke-linejoin="round"></path>
                    <path d="M91.4998985,48.0993517 C89.2175503,48.0993517 87.0765794,47.5160963 85.2126752,46.5 C84.8031688,48.0673486 84.907983,49.8395167 86.2153159,51.7452974 C87.0465164,52.9550121 88.2717855,53.8847002 89.7050579,54.2631361 C94.0666261,55.4144453 98,52.2093414 98,48.0993517 C98,47.5464992 97.9203738,47.0120486 97.7871217,46.5 C95.9232176,47.5160963 93.7822466,48.0993517 91.4998985,48.0993517" id="Fill-13" fill="#C3C3C3"></path>
                    <path d="M45.4998985,27.0993517 C43.2175503,27.0993517 41.0765794,26.5160963 39.2126752,25.5 C38.8031688,27.0673486 38.907983,28.8395167 40.2153159,30.7460974 C41.0465164,31.9550121 42.2717855,32.8847002 43.7050579,33.2631361 C48.0666261,34.4144453 52,31.2093414 52,27.0993517 C52,26.5464992 51.9203738,26.0128486 51.7871217,25.5 C49.9232176,26.5160963 47.7822466,27.0993517 45.4998985,27.0993517" id="Fill-15" fill="#C3C3C3"></path>
                    <g id="Group-23" transform="translate(28.000000, 65.500000)" fill="#C3C3C3">
                        <path d="M52.5666184,12.0736821 C52.0469605,11.8390154 51.5379079,11.5862974 51.0370132,11.3196308 C51.0051974,11.3032205 50.97175,11.2884513 50.9399342,11.2704 C50.4398553,11.0012718 49.9503816,10.7149128 49.4698816,10.4146051 C49.4413289,10.3965538 49.4111447,10.3809641 49.3834079,10.3629128 C48.8759868,10.0429128 48.3808026,9.70732308 47.8978553,9.35450256 C45.6780921,11.2892718 43.2307237,13.0706051 40.7947763,14.6550154 C43.1091711,18.5598359 46.4074079,21.800041 50.3395132,24.0523487 C50.3411447,24.0523487 50.3435921,24.0523487 50.3468553,24.0515282 C54.8549079,20.9089641 58.5651184,17.6515282 61.5084868,14.2972718 C58.3546447,14.0913231 55.3541711,13.3233231 52.6057763,12.0900923 C52.5927237,12.0835282 52.5796711,12.0794256 52.5666184,12.0736821" id="Fill-17"></path>
                        <path d="M9.09956053,31.5416615 C13.1246658,29.6265846 16.5819816,26.7072 19.1566132,23.1043282 C19.0040605,22.9517128 18.8506921,22.804841 18.6973237,22.6489436 C16.82835,20.7560205 14.85985,18.5554051 12.9982184,16.1217641 C12.08535,16.7699692 11.1308763,17.361559 10.1380605,17.8891487 C10.1331658,17.8924308 10.1274553,17.8957128 10.1225605,17.8981744 C9.63063947,18.1590974 9.13056053,18.4052513 8.62150789,18.6349949 C8.60600789,18.6423795 8.58887632,18.6489436 8.57256053,18.6563282 C8.08308684,18.8754051 7.58708684,19.0805333 7.08211316,19.2700718 C7.05600789,19.2799179 7.03153421,19.2897641 7.00624474,19.2996103 C6.50861316,19.4850462 6.00445526,19.6532513 5.49377105,19.8075077 C5.41790263,19.8313026 5.34203421,19.8526359 5.26535,19.8739692 C4.78729737,20.0142769 4.30435,20.1430974 3.81487632,20.2563282 C3.77898158,20.2645333 3.74308684,20.2752 3.70637632,20.2825846 C3.20303421,20.3966359 2.69398158,20.4918154 2.18085,20.5763282 C2.06582368,20.5952 1.94998158,20.6124308 1.83577105,20.6296615 C1.31774474,20.7076103 0.796455263,20.7757128 0.269455263,20.8224821 C2.96237632,24.8003282 6.02566579,28.3876103 9.09956053,31.5416615" id="Fill-19"></path>
                        <path d="M27.6778605,1.08570256 C27.5293868,1.07175385 27.3809132,1.06436923 27.2332553,1.04795897 C26.7225711,0.994625641 26.2167816,0.925702564 25.7134395,0.848574359 C25.6905974,0.845292308 25.6693868,0.842830769 25.6473605,0.839548718 C25.1154658,0.757497436 24.5892816,0.660676923 24.0655447,0.554010256 L24.0655447,13.6822154 C26.1759921,14.1146256 28.3549658,14.3591385 30.5918605,14.3591385 C32.8295711,14.3591385 35.0085447,14.1146256 37.1181763,13.6813949 L37.1181763,0.553189744 C36.2762816,0.726317949 35.4213342,0.862523077 34.5574132,0.968369231 C34.19765,1.01431795 33.8370711,1.05534359 33.4740447,1.08898462 C33.1991237,1.11277949 32.9242026,1.13657436 32.6468342,1.15462564 C31.9672816,1.19975385 31.28365,1.23093333 30.5918605,1.23093333 C30.0150974,1.23093333 29.4424132,1.21288205 28.8738079,1.18170256 C28.4724395,1.16036923 28.07515,1.12262564 27.6778605,1.08570256" id="Fill-21"></path>
                    </g>
                    <path d="M91.7777778,72.4090909 C81.5224306,72.4090909 72.6486667,66.528 68.3383889,57.9632727 C65.3777361,58.8403636 62.2458194,59.3181818 59,59.3181818 C56.5260972,59.3181818 54.1202083,59.0350909 51.8036389,58.5171818 C49.1805972,70.2122727 38.7269444,78.9545455 26.2222222,78.9545455 C12.8513472,78.9545455 1.82572222,68.9596364 0.211416667,56.0454545 C0.0770277778,57.1189091 0,58.2095455 0,59.3181818 C0,73.7779091 11.7401806,85.5 26.2222222,85.5 C38.7269444,85.5 49.1805972,76.7577273 51.8036389,65.0626364 C54.1202083,65.5805455 56.5260972,65.8636364 59,65.8636364 C62.2458194,65.8636364 65.3777361,65.3858182 68.3383889,64.5087273 C72.6486667,73.0734545 81.5224306,78.9545455 91.7777778,78.9545455 C106.259819,78.9545455 118,67.2324545 118,52.7727273 C118,51.6640909 117.922972,50.5734545 117.788583,49.5 C116.174278,62.4141818 105.148653,72.4090909 91.7777778,72.4090909" id="Fill-24" fill="#C3C3C3"></path>
                    <path d="M91.7773807,26.9617327 C91.5577702,26.9617327 91.3414374,26.9733097 91.1234657,26.9790982 C88.0931679,11.8727565 74.8624516,0.5 58.9996866,0.5 C40.8965661,0.5 26.2219924,15.3086472 26.2219924,33.5771659 C11.1229476,33.5771659 -0.994965942,46.4549334 0.0645730215,61.9201623 C0.951209648,74.8640843 11.2720861,85.3925462 24.088984,86.4146306 C37.5237413,87.4871577 49.0319898,78.3313982 51.8033438,65.8447681 C54.1199073,66.3682142 56.5257901,66.6543317 58.9996866,66.6543317 C62.2454977,66.6543317 65.3774064,66.1714051 68.3380516,65.284937 C72.9933036,74.633371 82.9708337,80.818801 94.2619299,79.769428 C106.934606,78.5927078 117.058816,68.1146886 117.93562,55.3022484 C118.99352,39.8378464 106.875606,26.9617327 91.7773807,26.9617327 Z" id="Stroke-26" stroke="#7A7A7A" stroke-linecap="round" stroke-linejoin="round"></path>
                    <path d="M76.2203868,74.3376564 C72.8291682,77.2698106 68.9126658,79.858411 65.3067086,81.9304448 L65.3067086,65.5 C63.1708851,65.9358274 60.9648585,66.1813407 58.6993659,66.1813407 C56.4346992,66.1813407 54.2286727,65.9358274 52.0920232,65.5008239 L52.0920232,92.41337 L52.0920232,92.4281997 L52.0920232,92.6877188 C50.3435552,91.207224 48.495977,89.5347673 46.656658,87.6868263 C44.7644802,85.7861576 42.7715405,83.5765375 40.8876219,81.1329383 C37.1809026,83.745431 32.774631,85.434365 28,85.8528911 C35.8140086,97.303864 46.7186018,105.614243 52.0920232,109.294472 L52.0920232,125.5 L65.3067086,125.5 L65.3067086,96.8087179 C68.7375713,95.1675683 73.8574359,92.4776319 79.0070336,88.8814382 C83.4314755,85.7911008 87.0861619,82.5928364 90,79.3006509 C84.8693984,78.9686311 80.1377151,77.1791849 76.2203868,74.3376564 Z" id="Stroke-28" stroke="#7A7A7A" stroke-linecap="round" stroke-linejoin="round"></path>
                </g>
                <g id="tree" opacity="0.300000012" transform="translate(822.000000, 196.500000)">
                    <path d="M48.3321788,47.0971824 C46.1989929,48.9542134 43.7353866,50.5936603 41.4671231,51.9059483 L41.4671231,41.5 C40.1236213,41.776024 38.7359594,41.9315158 37.3108915,41.9315158 C35.886343,41.9315158 34.4986812,41.776024 33.1546598,41.5005218 L33.1546598,58.5451344 L33.1546598,58.5545265 L33.1546598,58.7188886 C32.054817,57.7812418 30.8926307,56.7220193 29.7356397,55.5516567 C28.5453988,54.3478998 27.2917755,52.9484738 26.1067299,51.4008609 C23.7750839,53.0554396 21.0033969,54.1250978 18,54.3901644 C22.9152635,61.6424472 29.7746044,66.9056875 33.1546598,69.2364988 L33.1546598,79.5 L41.4671231,79.5 L41.4671231,61.3288547 C43.6252464,60.28946 46.8458065,58.5858336 50.0850695,56.3082442 C52.8681862,54.3510305 55.1671018,52.3254631 57,50.2404122 C53.7726861,50.0301331 50.7963047,48.8968171 48.3321788,47.0971824" id="Fill-1" fill="#E6E6E6"></path>
                    <path d="M57.5553065,17.4232011 C57.4175847,17.4232011 57.2819184,17.430605 57.1452243,17.434307 C55.244868,7.77327454 46.9476392,0.5 36.9998034,0.5 C25.6469991,0.5 16.4443003,9.97064643 16.4443003,21.6540014 C6.97540781,21.6540014 -0.623961692,29.889783 0.0404949457,39.7803364 C0.596521305,48.058426 7.06893535,54.7917446 15.106651,55.4454033 C23.5318378,56.1313218 30.7488749,50.2758942 32.4868427,42.2902586 C33.9396029,42.6250207 35.4483768,42.8080028 36.9998034,42.8080028 C39.0353121,42.8080028 40.9993905,42.4991544 42.8560663,41.9322272 C45.7754616,47.9108768 52.0325567,51.8666751 59.1134137,51.1955644 C67.0606851,50.4430108 73.4097661,43.741952 73.9596258,35.5479495 C74.6230547,25.657925 67.0236852,17.4232011 57.5553065,17.4232011" id="Fill-3" fill="#FFFFFF"></path>
                    <line x1="36.5" y1="46.5" x2="36.5" y2="54.5" id="Stroke-5" stroke="#C3C3C3" stroke-linecap="round" stroke-linejoin="round"></line>
                    <line x1="36.5" y1="58.5" x2="36.5" y2="75.5" id="Stroke-7" stroke="#C3C3C3" stroke-linecap="round" stroke-linejoin="round"></line>
                    <path d="M41,54.5 C41,56.711 39.211,58.5 37,58.5" id="Stroke-9" stroke="#C3C3C3" stroke-linecap="round" stroke-linejoin="round"></path>
                    <path d="M33,63.5 C33,65.711 34.789,67.5 37,67.5" id="Stroke-11" stroke="#C3C3C3" stroke-linecap="round" stroke-linejoin="round"></path>
                    <path d="M56.9999375,30.4995948 C55.5954156,30.4995948 54.277895,30.1350602 53.1308771,29.5 C52.8788731,30.4795929 52.9433741,31.5871979 53.7478867,32.7783109 C54.2593947,33.5343825 55.0134065,34.1154376 55.8954203,34.3519601 C58.5794622,35.0715283 61,33.0683384 61,30.4995948 C61,30.154062 60.9509992,29.8200303 60.868998,29.5 C59.72198,30.1350602 58.4044595,30.4995948 56.9999375,30.4995948" id="Fill-13" fill="#C3C3C3"></path>
                    <path d="M28.9999375,17.4995948 C27.5954156,17.4995948 26.277895,17.1350602 25.1308771,16.5 C24.8788731,17.4795929 24.9433741,18.5871979 25.7478867,19.7788109 C26.2593947,20.5343825 27.0134065,21.1154376 27.8954203,21.3519601 C30.5794622,22.0715283 33,20.0683384 33,17.4995948 C33,17.154062 32.9509992,16.8205304 32.868998,16.5 C31.72198,17.1350602 30.4044595,17.4995948 28.9999375,17.4995948" id="Fill-15" fill="#C3C3C3"></path>
                    <g id="Group-23" transform="translate(18.000000, 41.500000)" fill="#C3C3C3">
                        <path d="M33.0660987,7.54605128 C32.7392171,7.39938462 32.4190066,7.2414359 32.1039276,7.07476923 C32.0839145,7.06451282 32.062875,7.05528205 32.0428618,7.044 C31.7282961,6.87579487 31.4204013,6.69682051 31.1181513,6.50912821 C31.1001908,6.49784615 31.0812039,6.48810256 31.0637566,6.47682051 C30.7445724,6.27682051 30.4330855,6.06707692 30.1292961,5.8465641 C28.7329934,7.05579487 27.1935197,8.16912821 25.6612303,9.15938462 C27.1170592,11.5998974 29.1917566,13.6250256 31.6651776,15.0327179 C31.6662039,15.0327179 31.6677434,15.0327179 31.6697961,15.0322051 C34.5055066,13.0681026 36.8393487,11.0322051 38.6908224,8.93579487 C36.7069539,8.80707692 34.8195592,8.32707692 33.0907303,7.55630769 C33.0825197,7.55220513 33.0743092,7.54964103 33.0660987,7.54605128" id="Fill-17"></path>
                        <path d="M5.72391711,19.7135385 C8.25583816,18.5166154 10.4306013,16.692 12.0501276,14.4402051 C11.9541671,14.3448205 11.8576934,14.2530256 11.7612197,14.1555897 C10.585575,12.9725128 9.347325,11.5971282 8.17629868,10.0761026 C7.602075,10.4812308 7.00168026,10.8509744 6.37716711,11.1807179 C6.37408816,11.1827692 6.37049605,11.1848205 6.36741711,11.186359 C6.05798289,11.3494359 5.74341711,11.5032821 5.42320658,11.6468718 C5.41345658,11.6514872 5.40268026,11.6555897 5.39241711,11.6602051 C5.08452237,11.7971282 4.77252237,11.9253333 4.45487763,12.0437949 C4.43845658,12.0499487 4.42306184,12.0561026 4.40715395,12.0622564 C4.09412763,12.1781538 3.77699605,12.2832821 3.45575921,12.3796923 C3.40803553,12.3945641 3.36031184,12.4078974 3.312075,12.4212308 C3.01136447,12.5089231 2.707575,12.5894359 2.39968026,12.6602051 C2.37710132,12.6653333 2.35452237,12.672 2.33143026,12.6766154 C2.01481184,12.7478974 1.69460132,12.8073846 1.371825,12.8602051 C1.29946974,12.872 1.22660132,12.8827692 1.15475921,12.8935385 C0.828903947,12.9422564 0.500996053,12.9848205 0.169496053,13.0140513 C1.86343026,15.5002051 3.79033816,17.7422564 5.72391711,19.7135385" id="Fill-19"></path>
                        <path d="M17.4102671,0.678564103 C17.3168724,0.669846154 17.2234776,0.665230769 17.1305961,0.654974359 C16.8093592,0.621641026 16.4912013,0.578564103 16.1745829,0.530358974 C16.1602145,0.528307692 16.1468724,0.526769231 16.1330171,0.524717949 C15.7984382,0.473435897 15.4674513,0.412923077 15.1380039,0.34625641 L15.1380039,8.55138462 C16.4655434,8.82164103 17.8361882,8.97446154 19.2432671,8.97446154 C20.6508592,8.97446154 22.0215039,8.82164103 23.3485303,8.55087179 L23.3485303,0.34574359 C22.8189513,0.453948718 22.2811618,0.539076923 21.7377276,0.605230769 C21.511425,0.633948718 21.2846092,0.659589744 21.0562539,0.680615385 C20.8833197,0.695487179 20.7103855,0.710358974 20.5359118,0.721641026 C20.1084513,0.749846154 19.678425,0.769333333 19.2432671,0.769333333 C18.8804645,0.769333333 18.5202276,0.758051282 18.1625566,0.738564103 C17.9100829,0.725230769 17.660175,0.701641026 17.4102671,0.678564103" id="Fill-21"></path>
                    </g>
                    <path d="M57.5555556,46.1363636 C51.1242361,46.1363636 45.5593333,42.379 42.8562778,36.9070909 C40.9995972,37.4674545 39.0355139,37.7727273 37,37.7727273 C35.4485694,37.7727273 33.9397917,37.5918636 32.4870278,37.2609773 C30.8420694,44.7328409 24.2863889,50.3181818 16.4444444,50.3181818 C8.05931944,50.3181818 1.14494444,43.9325455 0.132583333,35.6818182 C0.0483055556,36.3676364 0,37.0644318 0,37.7727273 C0,47.0108864 7.36248611,54.5 16.4444444,54.5 C24.2863889,54.5 30.8420694,48.9146591 32.4870278,41.4427955 C33.9397917,41.7736818 35.4485694,41.9545455 37,41.9545455 C39.0355139,41.9545455 40.9995972,41.6492727 42.8562778,41.0889091 C45.5593333,46.5608182 51.1242361,50.3181818 57.5555556,50.3181818 C66.6375139,50.3181818 74,42.8290682 74,33.5909091 C74,32.8826136 73.9516944,32.1858182 73.8674167,31.5 C72.8550556,39.7507273 65.9406806,46.1363636 57.5555556,46.1363636" id="Fill-24" fill="#C3C3C3"></path>
                    <path d="M57.5553065,17.4232011 C57.4175847,17.4232011 57.2819184,17.430605 57.1452243,17.434307 C55.244868,7.77327454 46.9476392,0.5 36.9998034,0.5 C25.6469991,0.5 16.4443003,9.97064643 16.4443003,21.6540014 C6.97540781,21.6540014 -0.623961692,29.889783 0.0404949457,39.7803364 C0.596521305,48.058426 7.06893535,54.7917446 15.106651,55.4454033 C23.5318378,56.1313218 30.7488749,50.2758942 32.4868427,42.2902586 C33.9396029,42.6250207 35.4483768,42.8080028 36.9998034,42.8080028 C39.0353121,42.8080028 40.9993905,42.4991544 42.8560663,41.9322272 C45.7754616,47.9108768 52.0325567,51.8666751 59.1134137,51.1955644 C67.0606851,50.4430108 73.4097661,43.741952 73.9596258,35.5479495 C74.6230547,25.657925 67.0236852,17.4232011 57.5553065,17.4232011 Z" id="Stroke-26" stroke="#7A7A7A" stroke-linecap="round" stroke-linejoin="round"></path>
                    <path d="M48.3321788,47.0971824 C46.1989929,48.9542134 43.7353866,50.5936603 41.4671231,51.9059483 L41.4671231,41.5 C40.1236213,41.776024 38.7359594,41.9315158 37.3108915,41.9315158 C35.886343,41.9315158 34.4986812,41.776024 33.1546598,41.5005218 L33.1546598,58.5451344 L33.1546598,58.5545265 L33.1546598,58.7188886 C32.054817,57.7812418 30.8926307,56.7220193 29.7356397,55.5516567 C28.5453988,54.3478998 27.2917755,52.9484738 26.1067299,51.4008609 C23.7750839,53.0554396 21.0033969,54.1250978 18,54.3901644 C22.9152635,61.6424472 29.7746044,66.9056875 33.1546598,69.2364988 L33.1546598,79.5 L41.4671231,79.5 L41.4671231,61.3288547 C43.6252464,60.28946 46.8458065,58.5858336 50.0850695,56.3082442 C52.8681862,54.3510305 55.1671018,52.3254631 57,50.2404122 C53.7726861,50.0301331 50.7963047,48.8968171 48.3321788,47.0971824 Z" id="Stroke-28" stroke="#7A7A7A" stroke-linecap="round" stroke-linejoin="round"></path>
                </g>
            </g>
        </g>
    </g>
</svg>