<?xml version="1.0" encoding="UTF-8"?>
<svg width="327px" height="182px" viewBox="0 0 327 182" version="1.1" xmlns="http://www.w3.org/2000/svg" xmlns:xlink="http://www.w3.org/1999/xlink">
    <!-- Generator: Sketch 62 (91390) - https://sketch.com -->
    <title>trees</title>
    <desc>Created with Sketch.</desc>
    <g id="Comps" stroke="none" stroke-width="1" fill="none" fill-rule="evenodd" opacity="0.699999988">
        <g id="KW-Q8" transform="translate(-199.000000, -818.000000)">
            <g id="bg" transform="translate(200.000000, -298.000000)">
                <g id="trees" transform="translate(0.000000, 1116.000000)">
                    <g id="tree-2" transform="translate(152.000000, 0.000000)">
                        <path d="M112.45668,108.48048 C107.52948,112.75128 101.83908,116.52168 96.59988,119.53968 L96.59988,95.60808 C93.49668,96.24288 90.29148,96.60048 86.99988,96.60048 C83.70948,96.60048 80.50428,96.24288 77.39988,95.60928 L77.39988,134.80848 L77.39988,134.83008 L77.39988,135.20808 C74.85948,133.05168 72.17508,130.61568 69.50268,127.92408 C66.75348,125.15568 63.85788,121.93728 61.12068,118.37808 C55.73508,122.18328 49.33308,124.64328 42.39588,125.25288 C53.74908,141.93168 69.59268,154.03608 77.39988,159.39648 L77.39988,183.00048 L96.59988,183.00048 L96.59988,141.21048 C101.58468,138.82008 109.02348,134.90208 116.50548,129.66408 C122.93388,125.16288 128.24388,120.50448 132.47748,115.70928 C125.02308,115.22568 118.14828,112.61928 112.45668,108.48048" id="Fill-1" fill="#E6E6E6"></path>
                        <path d="M135,39 C134.6784,39 134.3616,39.0168 134.0424,39.0252 C129.6048,17.1036 110.2296,0.6 87,0.6 C60.4896,0.6 39,22.0896 39,48.6 C16.8888,48.6 -0.8568,67.2876 0.6948,89.73 C1.9932,108.5136 17.1072,123.792 35.8764,125.2752 C55.5504,126.8316 72.4032,113.5452 76.4616,95.4252 C79.854,96.1848 83.3772,96.6 87,96.6 C91.7532,96.6 96.3396,95.8992 100.6752,94.6128 C107.4924,108.1788 122.1036,117.1548 138.6384,115.632 C157.1964,113.9244 172.0224,98.7192 173.3064,80.1264 C174.8556,57.6852 157.11,39 135,39" id="Fill-3" fill="#FFFFFF"></path>
                        <line x1="87" y1="106.2" x2="87" y2="125.4" id="Stroke-5" stroke="#C3C3C3" stroke-width="1.2" stroke-linecap="round" stroke-linejoin="round"></line>
                        <line x1="87" y1="135" x2="87" y2="173.4" id="Stroke-7" stroke="#C3C3C3" stroke-width="1.2" stroke-linecap="round" stroke-linejoin="round"></line>
                        <path d="M96.6,125.4 C96.6,130.7064 92.3064,135 87,135" id="Stroke-9" stroke="#C3C3C3" stroke-width="1.2" stroke-linecap="round" stroke-linejoin="round"></path>
                        <path d="M77.4,144.6 C77.4,149.9064 81.6936,154.2 87,154.2" id="Stroke-11" stroke="#C3C3C3" stroke-width="1.2" stroke-linecap="round" stroke-linejoin="round"></path>
                        <path d="M135,70.1988 C131.6292,70.1988 128.4672,69.324 125.7144,67.8 C125.1096,70.1508 125.2644,72.8088 127.1952,75.6672 C128.4228,77.4816 130.2324,78.876 132.3492,79.4436 C138.7908,81.1704 144.6,76.3632 144.6,70.1988 C144.6,69.3696 144.4824,68.568 144.2856,67.8 C141.5328,69.324 138.3708,70.1988 135,70.1988" id="Fill-13" fill="#C3C3C3"></path>
                        <path d="M67.8,39 C64.4292,39 61.2672,38.1252 58.5144,36.6012 C57.9096,38.952 58.0644,41.61 59.9952,44.4696 C61.2228,46.2828 63.0324,47.6772 65.1492,48.2448 C71.5908,49.9716 77.4,45.1644 77.4,39 C77.4,38.1708 77.2824,37.3704 77.0856,36.6012 C74.3328,38.1252 71.1708,39 67.8,39" id="Fill-15" fill="#C3C3C3"></path>
                        <g id="Group-23" transform="translate(42.000000, 94.800000)" fill="#C3C3C3">
                            <path d="M77.3238,17.65776 C76.5594,17.31456 75.8106,16.94496 75.0738,16.55496 C75.027,16.53096 74.9778,16.50936 74.931,16.48296 C74.1954,16.08936 73.4754,15.67056 72.7686,15.23136 C72.7266,15.20496 72.6822,15.18216 72.6414,15.15576 C71.895,14.68776 71.1666,14.19696 70.4562,13.68096 C67.191,16.51056 63.591,19.11576 60.0078,21.43296 C63.4122,27.14376 68.2638,31.88256 74.0478,35.17656 C74.0502,35.17656 74.0538,35.17656 74.0586,35.17536 C80.6898,30.57936 86.1474,25.81536 90.477,20.90976 C85.8378,20.60856 81.4242,19.48536 77.3814,17.68176 C77.3622,17.67216 77.343,17.66616 77.3238,17.65776" id="Fill-17"></path>
                            <path d="M13.38516,46.12968 C19.30596,43.32888 24.39156,39.05928 28.17876,33.79008 C27.95436,33.56688 27.72876,33.35208 27.50316,33.12408 C24.75396,30.35568 21.85836,27.13728 19.11996,23.57808 C17.77716,24.52608 16.37316,25.39128 14.91276,26.16288 C14.90556,26.16768 14.89716,26.17248 14.88996,26.17608 C14.16636,26.55768 13.43076,26.91768 12.68196,27.25368 C12.65916,27.26448 12.63396,27.27408 12.60996,27.28488 C11.88996,27.60528 11.16036,27.90528 10.41756,28.18248 C10.37916,28.19688 10.34316,28.21128 10.30596,28.22568 C9.57396,28.49688 8.83236,28.74288 8.08116,28.96848 C7.96956,29.00328 7.85796,29.03448 7.74516,29.06568 C7.04196,29.27088 6.33156,29.45928 5.61156,29.62488 C5.55876,29.63688 5.50596,29.65248 5.45196,29.66328 C4.71156,29.83008 3.96276,29.96928 3.20796,30.09288 C3.03876,30.12048 2.86836,30.14568 2.70036,30.17088 C1.93836,30.28488 1.17156,30.38448 0.39636,30.45288 C4.35756,36.27048 8.86356,41.51688 13.38516,46.12968" id="Fill-19"></path>
                            <path d="M40.71324,1.58784 C40.49484,1.56744 40.27644,1.55664 40.05924,1.53264 C39.30804,1.45464 38.56404,1.35384 37.82364,1.24104 C37.79004,1.23624 37.75884,1.23264 37.72644,1.22784 C36.94404,1.10784 36.17004,0.96624 35.39964,0.81024 L35.39964,20.01024 C38.50404,20.64264 41.70924,21.00024 44.99964,21.00024 C48.29124,21.00024 51.49644,20.64264 54.59964,20.00904 L54.59964,0.80904 C53.36124,1.06224 52.10364,1.26144 50.83284,1.41624 C50.30364,1.48344 49.77324,1.54344 49.23924,1.59264 C48.83484,1.62744 48.43044,1.66224 48.02244,1.68864 C47.02284,1.75464 46.01724,1.80024 44.99964,1.80024 C44.15124,1.80024 43.30884,1.77384 42.47244,1.72824 C41.88204,1.69704 41.29764,1.64184 40.71324,1.58784" id="Fill-21"></path>
                        </g>
                        <path d="M135,106.2 C119.982,106.2 106.9872,97.5744 100.6752,85.0128 C96.3396,86.2992 91.7532,87 87,87 C83.3772,87 79.854,86.5848 76.4616,85.8252 C72.6204,102.978 57.312,115.8 39,115.8 C19.4196,115.8 3.2736,101.1408 0.9096,82.2 C0.7128,83.7744 0.6,85.374 0.6,87 C0.6,108.2076 17.7924,125.4 39,125.4 C57.312,125.4 72.6204,112.578 76.4616,95.4252 C79.854,96.1848 83.3772,96.6 87,96.6 C91.7532,96.6 96.3396,95.8992 100.6752,94.6128 C106.9872,107.1744 119.982,115.8 135,115.8 C156.2076,115.8 173.4,98.6076 173.4,77.4 C173.4,75.774 173.2872,74.1744 173.0904,72.6 C170.7264,91.5408 154.5804,106.2 135,106.2" id="Fill-24" fill="#C3C3C3"></path>
                        <path d="M135,39 C134.6784,39 134.3616,39.0168 134.0424,39.0252 C129.6048,17.1036 110.2296,0.6 87,0.6 C60.4896,0.6 39,22.0896 39,48.6 C16.8888,48.6 -0.8568,67.2876 0.6948,89.73 C1.9932,108.5136 17.1072,123.792 35.8764,125.2752 C55.5504,126.8316 72.4032,113.5452 76.4616,95.4252 C79.854,96.1848 83.3772,96.6 87,96.6 C91.7532,96.6 96.3396,95.8992 100.6752,94.6128 C107.4924,108.1788 122.1036,117.1548 138.6384,115.632 C157.1964,113.9244 172.0224,98.7192 173.3064,80.1264 C174.8556,57.6852 157.11,39 135,39 Z" id="Stroke-26" stroke="#7A7A7A" stroke-width="1.2" stroke-linecap="round" stroke-linejoin="round"></path>
                        <path d="M112.45668,108.48048 C107.52948,112.75128 101.83908,116.52168 96.59988,119.53968 L96.59988,95.60808 C93.49668,96.24288 90.29148,96.60048 86.99988,96.60048 C83.70948,96.60048 80.50428,96.24288 77.39988,95.60928 L77.39988,134.80848 L77.39988,134.83008 L77.39988,135.20808 C74.85948,133.05168 72.17508,130.61568 69.50268,127.92408 C66.75348,125.15568 63.85788,121.93728 61.12068,118.37808 C55.73508,122.18328 49.33308,124.64328 42.39588,125.25288 C53.74908,141.93168 69.59268,154.03608 77.39988,159.39648 L77.39988,183.00048 L96.59988,183.00048 L96.59988,141.21048 C101.58468,138.82008 109.02348,134.90208 116.50548,129.66408 C122.93388,125.16288 128.24388,120.50448 132.47748,115.70928 C125.02308,115.22568 118.14828,112.61928 112.45668,108.48048 Z" id="Stroke-28" stroke="#7A7A7A" stroke-width="1.2" stroke-linecap="round" stroke-linejoin="round"></path>
                    </g>
                    <g id="tree" transform="translate(0.000000, 39.000000)">
                        <g id="Group-5">
                            <path d="M64,120 C61.082,120 58.355,119.206 56,117.842 L56,144 L72,144 L72,117.842 C69.645,119.206 66.918,120 64,120" id="Fill-1" fill="#E6E6E6"></path>
                            <path d="M113.2402,53.0479 C117.3262,50.1489 120.0002,45.3909 120.0002,39.9999 C120.0002,31.1629 112.8362,23.9999 104.0002,23.9999 C100.8782,23.9999 97.9732,24.9079 95.5112,26.4549 C92.8852,11.4269 79.7812,-0.0001 64.0002,-0.0001 C48.2192,-0.0001 35.1152,11.4269 32.4882,26.4549 C30.0262,24.9079 27.1222,23.9999 24.0002,23.9999 C15.1642,23.9999 8.0002,31.1629 8.0002,39.9999 C8.0002,45.3909 10.6742,50.1489 14.7602,53.0479 C5.8862,58.7349 0.0002,68.6769 0.0002,79.9999 C0.0002,97.6729 14.3272,111.9999 32.0002,111.9999 C37.9922,111.9999 43.5962,110.3489 48.3912,107.4839 C49.9822,114.6429 56.3612,119.9999 64.0002,119.9999 C71.6382,119.9999 78.0172,114.6429 79.6082,107.4839 C84.4032,110.3489 90.0082,111.9999 96.0002,111.9999 C113.6732,111.9999 128.0002,97.6729 128.0002,79.9999 C128.0002,68.6769 122.1132,58.7349 113.2402,53.0479" id="Fill-3" fill="#FFFFFF"></path>
                        </g>
                        <g id="Group-16" transform="translate(0.000000, 38.000000)" fill="#C3C3C3">
                            <path d="M62.3164,81.9023 C62.0594,81.8753 61.8044,81.8423 61.5504,81.8033 C61.3704,81.7753 61.1894,81.7453 61.0104,81.7123 C60.8094,81.6733 60.6114,81.6283 60.4124,81.5823 C60.2064,81.5353 59.9994,81.4893 59.7954,81.4343 C59.7594,81.4243 59.7244,81.4123 59.6884,81.4013 C59.0944,81.2353 58.5174,81.0323 57.9544,80.8003 C57.9024,80.7803 57.8494,80.7603 57.7984,80.7393 C57.5234,80.6233 57.2534,80.4973 56.9854,80.3653 C56.9264,80.3373 56.8684,80.3073 56.8094,80.2773 C56.5394,80.1403 56.2714,79.9993 56.0104,79.8473 C56.0064,79.8453 56.0044,79.8433 56.0004,79.8413 L56.0004,87.8413 C58.3554,89.2063 61.0824,90.0003 64.0004,90.0003 C66.9184,90.0003 69.6444,89.2063 72.0004,87.8413 L72.0004,79.8413 C71.9964,79.8433 71.9934,79.8453 71.9894,79.8473 C71.7284,79.9993 71.4614,80.1403 71.1904,80.2773 C71.1314,80.3073 71.0734,80.3373 71.0144,80.3653 C70.7474,80.4973 70.4764,80.6233 70.2014,80.7393 C70.1504,80.7603 70.0974,80.7803 70.0454,80.8003 C69.4824,81.0323 68.9054,81.2353 68.3114,81.4013 C68.2754,81.4123 68.2404,81.4243 68.2044,81.4343 C68.0014,81.4893 67.7944,81.5353 67.5874,81.5823 C67.3884,81.6283 67.1904,81.6733 66.9894,81.7123 C66.8104,81.7453 66.6294,81.7753 66.4494,81.8033 C66.1954,81.8423 65.9404,81.8753 65.6834,81.9023 C65.5384,81.9183 65.3934,81.9353 65.2464,81.9473 C64.8354,81.9783 64.4204,82.0003 64.0004,82.0003 C63.5804,82.0003 63.1654,81.9783 62.7534,81.9473 C62.6064,81.9353 62.4624,81.9183 62.3164,81.9023" id="Fill-6"></path>
                            <path d="M32,42 C29.191,42 26.556,41.271 24.262,40.001 C24.098,40.642 24,41.309 24,42 C24,46.418 27.582,50 32,50 C36.418,50 40,46.418 40,42 C40,41.309 39.902,40.642 39.738,40.001 C37.444,41.271 34.809,42 32,42" id="Fill-8"></path>
                            <path d="M64,2 C61.191,2 58.556,1.271 56.262,0.001 C56.098,0.642 56,1.309 56,2 C56,6.418 59.582,10 64,10 C68.418,10 72,6.418 72,2 C72,1.309 71.902,0.642 71.738,0.001 C69.444,1.271 66.809,2 64,2" id="Fill-10"></path>
                            <path d="M96,34 C93.191,34 90.556,33.271 88.262,32.001 C88.098,32.642 88,33.309 88,34 C88,38.418 91.582,42 96,42 C100.418,42 104,38.418 104,34 C104,33.309 103.902,32.642 103.738,32.001 C101.444,33.271 98.809,34 96,34" id="Fill-12"></path>
                            <path d="M96,66 C90.008,66 84.403,64.349 79.608,61.483 C78.018,68.643 71.639,74 64,74 C56.361,74 49.982,68.643 48.392,61.483 C43.597,64.349 37.992,66 32,66 C15.676,66 2.216,53.773 0.255,37.979 C0.09,39.297 0,40.638 0,42 C0,59.673 14.327,74 32,74 C37.992,74 43.597,72.349 48.392,69.483 C49.982,76.643 56.361,82 64,82 C71.639,82 78.018,76.643 79.608,69.483 C84.403,72.349 90.008,74 96,74 C113.673,74 128,59.673 128,42 C128,40.638 127.91,39.297 127.745,37.979 C125.784,53.773 112.324,66 96,66" id="Fill-14"></path>
                        </g>
                        <g id="Group-27" stroke="#7A7A7A" stroke-linecap="round" stroke-linejoin="round">
                            <polyline id="Stroke-17" points="72 117.8516 72 143.9996 56 143.9996 56 117.8526"></polyline>
                            <path d="M113.2402,53.0479 C117.3262,50.1489 120.0002,45.3909 120.0002,39.9999 C120.0002,31.1629 112.8362,23.9999 104.0002,23.9999 C100.8782,23.9999 97.9732,24.9079 95.5112,26.4549 C92.8852,11.4269 79.7812,-0.0001 64.0002,-0.0001 C48.2192,-0.0001 35.1152,11.4269 32.4882,26.4549 C30.0262,24.9079 27.1222,23.9999 24.0002,23.9999 C15.1642,23.9999 8.0002,31.1629 8.0002,39.9999 C8.0002,45.3909 10.6742,50.1489 14.7602,53.0479 C5.8862,58.7349 0.0002,68.6769 0.0002,79.9999 C0.0002,97.6729 14.3272,111.9999 32.0002,111.9999 C37.9922,111.9999 43.5962,110.3489 48.3912,107.4839 C49.9822,114.6429 56.3612,119.9999 64.0002,119.9999 C71.6382,119.9999 78.0172,114.6429 79.6082,107.4839 C84.4032,110.3489 90.0082,111.9999 96.0002,111.9999 C113.6732,111.9999 128.0002,97.6729 128.0002,79.9999 C128.0002,68.6769 122.1132,58.7349 113.2402,53.0479 Z" id="Stroke-19"></path>
                            <path d="M24,56 C15.163,56 8,48.837 8,40" id="Stroke-21"></path>
                            <path d="M88,40 C88,31.163 95.163,24 104,24" id="Stroke-23"></path>
                            <path d="M72,101.166 C77.863,107.81 86.442,112 96,112 C113.673,112 128,97.673 128,80" id="Stroke-25"></path>
                        </g>
                    </g>
                </g>
            </g>
        </g>
    </g>
</svg>