<?xml version="1.0" encoding="UTF-8"?>
<svg width="101px" height="156px" viewBox="0 0 101 156" version="1.1" xmlns="http://www.w3.org/2000/svg" xmlns:xlink="http://www.w3.org/1999/xlink">
    <!-- Generator: Sketch 52.1 (67048) - http://www.bohemiancoding.com/sketch -->
    <title>Illos</title>
    <desc>Created with Sketch.</desc>
    <g id="💰-Purchase-and-Renewal" stroke="none" stroke-width="1" fill="none" fill-rule="evenodd">
        <g id="Purchase-Plan---Review-&amp;-Pay---By-Phone" transform="translate(-250.000000, -284.000000)">
            <g id="Phone-group" transform="translate(24.000000, 250.000000)">
                <g id="Illos" transform="translate(226.000000, 35.000000)">
                    <path d="M108.166667,22.4 C108.166667,16.2148 103.141917,11.2 96.9444444,11.2 C96.6253125,11.2 96.3117917,11.2217 95.9989722,11.2476 C93.7012222,4.6984 87.4574583,0 80.1111111,0 C74.1493056,0 68.9155417,3.0961 65.9241181,7.7623 C63.4839861,6.3875 60.6686111,5.6 57.6666667,5.6 C48.3697569,5.6 40.8333333,13.1215 40.8333333,22.4 L29.6111111,22.4 C26.5095694,22.4 24,24.9046 24,28 L125,28 C125,24.9046 122.490431,22.4 119.388889,22.4 L108.166667,22.4 Z" id="Cloud-1" stroke="#C3C3C3" stroke-linecap="round" stroke-linejoin="round"></path>
                    <g id="Back-Topiary-1-Copy" transform="translate(21.500000, 139.000000) scale(-1, 1) translate(-21.500000, -139.000000) translate(0.000000, 122.000000)">
                        <polygon id="Fill" fill="#E6E6E6" points="19.1756757 33.4137931 23.8243243 33.4137931 23.8243243 28.7241379 19.1756757 28.7241379"></polygon>
                        <path d="M28.472973,24.0343655 L12.2027027,24.0343655 C6.58016216,24.0343655 1.89141892,20.0065379 0.814094595,14.6550552 C0.661851351,15.4130207 0.581081081,16.1967793 0.581081081,16.9998828 C0.581081081,23.4751241 5.78408108,28.7240207 12.2027027,28.7240207 L28.472973,28.7240207 C36.1752027,28.7240207 42.4189189,22.4252276 42.4189189,14.6550552 C42.4189189,13.8560552 42.3497703,13.073469 42.2225135,12.3102276 C41.1155541,18.9642621 35.3831892,24.0343655 28.472973,24.0343655" id="Shadow" fill="#C3C3C3" opacity="0.300000012" style="mix-blend-mode: multiply;"></path>
                        <path d="M28.472973,28.4309172 L23.8243243,28.4309172 L19.1756757,28.4309172 L12.2027027,28.4309172 C5.95491892,28.4309172 0.871621622,23.3027793 0.871621622,16.9998828 C0.871621622,10.6969862 5.95491892,5.56884828 12.2027027,5.56884828 C13.7663919,5.56884828 15.2894054,5.89829655 16.7351351,6.5396069 C15.1604054,8.85043448 14.2364865,11.645469 14.2364865,14.6550552 C14.2364865,14.8168483 14.3666486,14.9481586 14.527027,14.9481586 C14.6874054,14.9481586 14.8175676,14.8168483 14.8175676,14.6550552 C14.8175676,11.5927103 15.8141216,8.76191724 17.4957703,6.4721931 C17.5614324,6.38308966 17.63,6.29574483 17.6968243,6.20898621 C17.8444189,6.01846897 17.9966622,5.83146897 18.1523919,5.64974483 C18.2290946,5.56005517 18.3040541,5.46977931 18.3830811,5.38302069 C18.4644324,5.29215862 18.5504324,5.2054 18.6341081,5.11688276 C18.7253378,5.02191724 18.8154054,4.92695172 18.9083784,4.83550345 C18.9850811,4.75871034 19.063527,4.68426207 19.141973,4.60981379 C19.257027,4.50253793 19.3726622,4.39584828 19.4906216,4.29208966 C19.5522162,4.23757241 19.6138108,4.18364138 19.6759865,4.13029655 C19.8543784,3.97846897 20.0350946,3.83074483 20.2204595,3.68888276 C20.2256892,3.68477931 20.2297568,3.68067586 20.2349865,3.67715862 C21.9358108,2.38105517 23.9219459,1.49529655 26.0266216,1.10488276 C26.0446351,1.10195172 26.0632297,1.09843448 26.0818243,1.09491724 C26.3078649,1.05388276 26.5362297,1.01988276 26.7657568,0.990572414 C26.8122432,0.985296552 26.8581486,0.978262069 26.9046351,0.972986207 C27.1115,0.948365517 27.3201081,0.93077931 27.5281351,0.915537931 C27.5850811,0.91202069 27.6408649,0.906158621 27.6978108,0.902641379 C27.9552297,0.887986207 28.2138108,0.879193103 28.472973,0.879193103 C36.0026216,0.879193103 42.1283784,7.05898621 42.1283784,14.6550552 C42.1283784,22.2511241 36.0026216,28.4309172 28.472973,28.4309172 Z M19.4662162,33.1205724 L23.5337838,33.1205724 L23.5337838,29.0171241 L19.4662162,29.0171241 L19.4662162,33.1205724 Z M28.472973,0.292986207 C28.2050946,0.292986207 27.9383784,0.302365517 27.6739865,0.31702069 C27.6176216,0.319951724 27.5618378,0.3264 27.505473,0.329331034 C27.2881486,0.344572414 27.0725676,0.363331034 26.8587297,0.387951724 C26.8134054,0.393227586 26.7675,0.399675862 26.7215946,0.405537931 C26.4868378,0.434848276 26.2532432,0.47002069 26.0213919,0.510468966 C26.0010541,0.513986207 25.9812973,0.518089655 25.9609595,0.521606897 C23.4896216,0.967124138 21.2367703,2.05571034 19.3813784,3.61267586 C19.343027,3.64433103 19.307,3.67833103 19.2692297,3.71057241 C19.1198919,3.83836552 18.9722973,3.96908966 18.8281892,4.10274483 C18.7450946,4.18012414 18.6637432,4.25984828 18.5823919,4.33898621 C18.4876757,4.4316069 18.3935405,4.52481379 18.3017297,4.62036552 C18.2087568,4.71591724 18.1169459,4.81264138 18.0257162,4.91112414 C17.9501757,4.99436552 17.8752162,5.07936552 17.8008378,5.16495172 C17.7061216,5.27222759 17.6119865,5.38067586 17.5195946,5.49146897 C17.4550946,5.5706069 17.3929189,5.65208966 17.329,5.7324 C17.2464865,5.83791724 17.1599054,5.93991724 17.0802973,6.04777931 C15.5270676,5.34081379 13.8872568,4.98264138 12.2027027,4.98264138 C5.63416216,4.98264138 0.290540541,10.3734 0.290540541,16.9998828 C0.290540541,23.6263655 5.63416216,29.0171241 12.2027027,29.0171241 L18.8851351,29.0171241 L18.8851351,33.4136759 C18.8851351,33.575469 19.0152973,33.7067793 19.1756757,33.7067793 L23.8243243,33.7067793 C23.9847027,33.7067793 24.1148649,33.575469 24.1148649,33.4136759 L24.1148649,29.0171241 L28.472973,29.0171241 C36.3233784,29.0171241 42.7094595,22.5747103 42.7094595,14.6550552 C42.7094595,6.7354 36.3233784,0.292986207 28.472973,0.292986207 Z" id="Outline" fill="#C3C3C3"></path>
                    </g>
                    <g id="Back-Deciduous-2" transform="translate(43.000000, 68.000000)">
                        <path d="M54.2052575,52.5331747 C51.8429014,54.5899994 49.1146274,56.4058305 46.6026822,57.8593045 L46.6026822,46.3338045 C45.1148466,46.6401032 43.5781068,46.8117461 41.9999425,46.8117461 C40.4223534,46.8117461 38.8856137,46.6395253 37.3972027,46.3343825 L37.3972027,65.2127851 L37.3972027,65.2237656 L37.3972027,65.4052331 C36.1792027,64.3667071 34.8921616,63.1935253 33.610874,61.897824 C32.2927644,60.5645578 30.904463,59.0139929 29.5921068,57.299876 C27.0099699,59.1330448 23.9405178,60.3177851 20.614463,60.6107916 C26.0577781,68.6433305 33.6540247,74.4728305 37.3972027,77.0544084 L37.3972027,88.4221357 L46.6026822,88.4221357 L46.6026822,68.2959994 C48.9926548,67.1447786 52.5592027,65.2584409 56.146463,62.7352331 C59.2285726,60.5680253 61.774463,58.3245318 63.8042712,56.0145773 C60.2302438,55.7816747 56.9341068,54.5264279 54.2052575,52.5331747" id="Fill" fill="#E6E6E6"></path>
                        <path d="M62.6684877,55.9014201 C62.8945973,55.9303162 63.1218575,55.954589 63.3508438,55.9753942 C63.1218575,55.954589 62.8945973,55.9303162 62.6684877,55.9014201 Z M60.1059123,55.3853357 C60.3400767,55.4506409 60.5765425,55.5113227 60.8147342,55.5673812 C60.5765425,55.5113227 60.3400767,55.4506409 60.1059123,55.3853357 Z M58.8252,54.9802123 C59.0938849,55.0761474 59.3648712,55.1668812 59.6387342,55.2512578 C59.3648712,55.1668812 59.0938849,55.0761474 58.8252,54.9802123 Z M57.5283781,54.4618162 C57.8229534,54.5930045 58.1221315,54.7143682 58.423611,54.8305305 C58.1221315,54.7143682 57.8229534,54.5930045 57.5283781,54.4618162 Z M61.2606247,55.6679396 C61.5730356,55.7326669 61.8877479,55.7904591 62.2041863,55.8395825 C61.8877479,55.791037 61.5730356,55.7326669 61.2606247,55.6679396 Z M56.3500767,53.8833162 C56.370789,53.8942968 56.3926521,53.9035435 56.4133644,53.914524 C56.3926521,53.9041214 56.3713644,53.8942968 56.3506521,53.8838942 C56.3506521,53.8833162 56.3500767,53.8833162 56.3500767,53.8833162 Z M55.2517479,53.2435565 C55.2615288,53.2499136 55.2724603,53.2551149 55.2810904,53.2614721 L55.2523233,53.2441344 C55.2517479,53.2441344 55.2517479,53.2435565 55.2517479,53.2435565 Z M44.0325699,46.7118812 L44.0319945,46.7118812 C44.2218575,46.6945435 44.4105699,46.6702708 44.5992822,46.6488877 C44.4105699,46.6714266 44.2224329,46.6939656 44.0325699,46.7118812 Z M41.9998849,46.8112838 C41.5931178,46.8112838 41.1892274,46.7991474 40.7882137,46.7771864 C41.1898027,46.7985695 41.5931178,46.8112838 41.9998849,46.8112838 C42.4877753,46.8112838 42.969337,46.7881669 43.4491726,46.7586929 C42.9699123,46.7899006 42.4877753,46.8112838 41.9998849,46.8112838 Z M38.520789,46.5373487 C38.5340219,46.5390825 38.5466795,46.5408162 38.559337,46.5431279 L38.559337,46.54255 C38.5466795,46.5408162 38.5334466,46.5390825 38.520789,46.5373487 Z M27.5748986,58.5454136 C27.5737479,58.5459916 27.5720219,58.5465695 27.5708712,58.5471474 C27.5720219,58.5465695 27.5737479,58.5459916 27.5748986,58.5448357 L27.5748986,58.5454136 Z M26.4926795,59.0753682 C26.4972822,59.0736344 26.5018849,59.0719006 26.5059123,59.069589 C26.5059123,59.069589 26.505337,59.069589 26.505337,59.0701669 C26.5013096,59.0719006 26.4972822,59.0736344 26.4926795,59.0753682 Z M25.3650082,59.5388617 C25.3770904,59.5342383 25.3880219,59.529037 25.4001041,59.5255695 C25.3880219,59.5296149 25.3770904,59.5342383 25.3655836,59.5382838 C25.3650082,59.5382838 25.3650082,59.5382838 25.3650082,59.5388617 Z M23.0383233,60.2312123 C23.0642137,60.2248552 23.0895288,60.2184981 23.1159945,60.2121409 L23.1154192,60.2121409 C23.0895288,60.2184981 23.0642137,60.2248552 23.0383233,60.2312123 Z M21.719063,60.4750955 C21.8001863,60.463537 21.8813096,60.4508227 21.9624329,60.4381084 C21.8813096,60.4508227 21.8001863,60.463537 21.719063,60.4750955 Z M83.2761041,35.2528422 C82.1432548,44.3753422 74.4020219,51.4346604 65.0135836,51.4346604 C57.8137479,51.4346604 51.582789,47.2811344 48.557063,41.2308682 C46.4777753,41.8509786 44.2788164,42.1879071 41.9998849,42.1879071 C40.2635014,42.1879071 38.5737205,41.9891019 36.9472274,41.6226994 C35.1055562,49.8835175 27.7659123,56.058037 18.9861863,56.058037 C9.59832329,56.058037 1.85709041,48.9987188 0.723665753,39.8762188 C0.629309589,40.6344526 0.575227397,41.4048227 0.575227397,42.1879071 C0.575227397,52.4021019 8.8181589,60.6814136 18.9861863,60.6814136 C19.535063,60.6814136 20.0787616,60.6577188 20.6144055,60.6103292 C22.513611,63.4126734 24.6745973,65.9393487 26.8419123,68.1608812 C29.6806521,66.812589 32.1189534,64.7557643 33.9353096,62.2186864 C33.8271452,62.1106149 33.7195562,62.0071669 33.6108164,61.8979396 C32.2927068,60.5646734 30.9044055,59.0141084 29.5920493,57.2999916 L29.5920493,57.3005695 C29.591474,57.3005695 29.5908986,57.3011474 29.5903233,57.3011474 C33.2552548,54.6999201 35.9340493,50.7896994 36.9472274,46.246076 C37.0962411,46.2795955 37.2475562,46.3044461 37.3971452,46.3344981 L37.3971452,55.5812513 C38.8855562,55.8863942 40.4222959,56.058037 41.9998849,56.058037 C43.5780493,56.058037 45.114789,55.8869721 46.6026247,55.5806734 L46.6026247,46.3339201 C47.2636932,46.1986864 47.9172822,46.0443812 48.557063,45.8542448 C49.8849534,48.5097968 51.831337,50.799524 54.2052,52.5332903 C52.6391178,53.8966084 50.9130904,55.1506994 49.1956932,56.2666669 C50.8279397,59.017576 53.1540493,61.2992123 55.9260493,62.8856084 C55.9996932,62.8347513 56.0727616,62.7873617 56.1464055,62.7353487 C59.2285151,60.5681409 61.7744055,58.3240695 63.8042137,56.0146929 C64.2040767,56.0406994 64.6068164,56.058037 65.0135836,56.058037 C75.181611,56.058037 83.4245425,47.7787253 83.4245425,37.5645305 C83.4245425,36.7814461 83.3704603,36.011076 83.2761041,35.2528422 Z" id="Shadow" fill="#C3C3C3" opacity="0.300000012" style="mix-blend-mode: multiply;"></path>
                        <path d="M42.2123288,60.9706636 C41.9363288,60.9706636 41.7123288,60.8412091 41.7123288,60.6817026 L41.7123288,51.4349494 C41.7123288,51.2754429 41.9363288,51.1459883 42.2123288,51.1459883 C42.4883288,51.1459883 42.7123288,51.2754429 42.7123288,51.4349494 L42.7123288,60.6817026 C42.7123288,60.8412091 42.4883288,60.9706636 42.2123288,60.9706636 Z M46.6027397,60.3927416 C46.7615342,60.3927416 46.890411,60.5221961 46.890411,60.6817026 C46.890411,63.2927545 44.8496712,65.4287545 42.2876712,65.5795922 L42.2876712,83.7985857 C42.2876712,83.9580922 42.1587945,84.0875468 42,84.0875468 C41.8412055,84.0875468 41.7123288,83.9580922 41.7123288,83.7985857 L41.7123288,74.8263455 C39.1503288,74.6755078 37.109589,72.5395078 37.109589,69.9284558 C37.109589,69.7689494 37.2384658,69.6394948 37.3972603,69.6394948 C37.5560548,69.6394948 37.6849315,69.7689494 37.6849315,69.9284558 C37.6849315,72.2210727 39.4673425,74.0987416 41.7123288,74.2484234 L41.7123288,65.3050792 C41.7123288,65.1455727 41.8412055,65.0161182 42,65.0161182 C44.3796164,65.0161182 46.3150685,63.0719883 46.3150685,60.6817026 C46.3150685,60.5221961 46.4439452,60.3927416 46.6027397,60.3927416 Z M65.0136986,55.7693649 C75.0068219,55.7693649 83.1369863,47.6027481 83.1369863,37.5648195 C83.1369863,27.5268909 75.0068219,19.360274 65.0136986,19.360274 C64.9141644,19.360274 64.8152055,19.3637416 64.7168219,19.3672091 L64.5620548,19.3724104 C64.4372055,19.3706766 64.3008493,19.2776312 64.2726575,19.1406636 C62.1387123,8.55197532 52.7715616,0.866767532 42,0.866767532 C29.4690411,0.866767532 19.2739726,11.1075468 19.2739726,23.6946896 C19.2739726,23.8541961 19.1450959,23.9836506 18.9863014,23.9836506 C8.99317808,23.9836506 0.863013699,32.1502675 0.863013699,42.1881961 C0.863013699,52.2261247 8.99317808,60.3927416 18.9863014,60.3927416 C19.6295342,60.3927416 20.2664384,60.3540208 20.895863,60.2852481 C21.0863014,60.2650208 21.2761644,60.2419039 21.4666027,60.2158974 C21.6656712,60.1881571 21.8647397,60.1581052 22.0626575,60.1234299 C22.0977534,60.1170727 22.1328493,60.1095597 22.1673699,60.1032026 C29.211863,58.8184818 35.0665479,53.3588519 36.666,46.1827935 C36.6832603,46.1082416 36.7287123,46.0429364 36.7931507,46.0024818 C36.857589,45.9602935 36.9358356,45.9481571 37.0100548,45.963761 C37.2194795,46.0111506 37.4306301,46.0435143 37.6406301,46.0845468 C38.1475068,46.1845273 38.6526575,46.2637026 39.1560822,46.3284299 C39.3609041,46.3544364 39.565726,46.3862221 39.7705479,46.4064494 C39.9310685,46.4220532 40.091589,46.4307221 40.2515342,46.4434364 C40.5507123,46.4665532 40.8504658,46.4867805 41.1502192,46.4989169 C41.2917534,46.5041182 41.4327123,46.5070078 41.5742466,46.5098974 C41.8901096,46.5156766 42.2059726,46.5145208 42.5218356,46.5075857 C42.6604932,46.5041182 42.799726,46.5023844 42.9383836,46.4966052 C43.2369863,46.4844688 43.535589,46.4613519 43.8336164,46.4376571 C44.7225205,46.3631052 45.6125753,46.2405857 46.5066575,46.0573844 C47.167726,45.9238844 47.8264932,45.7707351 48.4749041,45.5771312 C48.6112603,45.5384104 48.7510685,45.5996701 48.8137808,45.7245013 C50.1456986,48.3875662 52.0546849,50.6131442 54.3428219,52.2896961 C54.3531781,52.2954753 54.3646849,52.2925857 54.3744658,52.2995208 C57.138411,54.3187805 60.4057808,55.5035208 63.8227397,55.7265987 C63.8244658,55.7265987 63.8256164,55.7277545 63.8267671,55.7283325 C64.2203014,55.753761 64.6155616,55.7693649 65.0136986,55.7693649 Z M48.4087397,46.1983974 C47.9070411,46.3423 47.4001644,46.4653974 46.890411,46.5757805 L46.890411,57.3569169 C49.4736986,55.8329364 51.8228219,54.1823909 53.7375616,52.5514948 C51.557589,50.8922805 49.7233973,48.7470338 48.4087397,46.1983974 Z M29.9868493,57.3343779 C31.1398356,58.8213714 32.424,60.2875597 33.8146027,61.6942221 C34.8352603,62.7263909 35.9416438,63.7614494 37.109589,64.7774364 L37.109589,46.7930792 C36.0227671,51.1165143 33.4331507,54.804813 29.9868493,57.3343779 Z M63.2019452,56.2559753 C63.1265753,56.2484623 63.0529315,56.2351701 62.9775616,56.2265013 C62.6772329,56.1941377 62.3797808,56.1571506 62.0829041,56.1109169 C61.9966027,56.0964688 61.909726,56.080287 61.8234247,56.065839 C61.4908767,56.0086247 61.1606301,55.9450532 60.8326849,55.8705013 C60.8010411,55.8629883 60.7693973,55.8543195 60.7377534,55.8473844 C58.3753973,55.2954688 56.1609041,54.2997091 54.2099178,52.9109623 C52.1467397,54.6805597 49.5715068,56.4750078 46.7465753,58.1099494 C46.6568219,58.1608065 46.5475068,58.1613844 46.4589041,58.1093714 C46.369726,58.0579364 46.3150685,57.9625792 46.3150685,57.8591312 L46.3150685,46.6855857 C46.3006849,46.6884753 46.2863014,46.6902091 46.2719178,46.6930987 C45.9428219,46.7543584 45.6125753,46.8115727 45.2806027,46.8583844 C45.1833699,46.8722545 45.0867123,46.8826571 44.9900548,46.8959494 C44.6483014,46.9398714 44.3059726,46.980326 43.9619178,47.0092221 C43.6236164,47.039274 43.2853151,47.0623909 42.9470137,47.076261 C42.8204384,47.0814623 42.6932877,47.0826182 42.5655616,47.0855078 C42.2525753,47.0930208 41.939589,47.0947545 41.6260274,47.0895532 C41.4890959,47.0878195 41.3527397,47.0849299 41.2158082,47.0803065 C40.9206575,47.069326 40.6243562,47.0519883 40.3292055,47.0300273 C40.1773151,47.0190468 40.0254247,47.0115338 39.8746849,46.9970857 C39.6290137,46.9739688 39.3833425,46.9416052 39.1376712,46.9103974 C38.7050137,46.8566506 38.2746575,46.7907675 37.8443014,46.7121701 C37.7919452,46.7029234 37.7384384,46.6959883 37.6849315,46.6855857 L37.6849315,65.4056377 C37.6849315,65.5183325 37.6199178,65.6206247 37.5180822,65.6680143 C37.4156712,65.7136701 37.2965753,65.6986442 37.2114247,65.625826 C35.8553425,64.4699818 34.5757808,63.2840857 33.4066849,62.1016571 C32.0011233,60.6799688 30.6979726,59.1981766 29.5317534,57.6938455 C27.150411,59.3322545 24.420411,60.3846506 21.5759178,60.7834169 C21.4936438,60.7943974 21.4125205,60.8088455 21.3296712,60.8192481 C21.2617808,60.8279169 21.1950411,60.8406312 21.1271507,60.8487221 C26.4663288,68.5564688 33.6891781,74.1467091 37.5600822,76.8161312 C37.6383288,76.8698779 37.6849315,76.9588779 37.6849315,77.0542351 L37.6849315,88.1330013 L46.3150685,88.1330013 L46.3150685,68.2964039 C46.3150685,68.1848649 46.3783562,68.0843065 46.4784658,68.035761 C48.8379452,66.8989883 52.4021918,65.0155403 55.9813973,62.4992675 C58.8155342,60.5060143 61.2411781,58.4081571 63.2019452,56.2559753 Z M65.0136986,18.7823519 C75.324411,18.7823519 83.7123288,27.2078779 83.7123288,37.5648195 C83.7123288,47.921761 75.324411,56.347287 65.0136986,56.347287 C64.6483562,56.347287 64.2864658,56.3305273 63.9251507,56.3103 C61.8855616,58.6110078 59.3264384,60.8521896 56.3116438,62.9720078 C52.7819178,65.4541831 49.2688767,67.324339 46.890411,68.4778714 L46.890411,88.4219623 C46.890411,88.5814688 46.7615342,88.7109234 46.6027397,88.7109234 L37.3972603,88.7109234 C37.2384658,88.7109234 37.109589,88.5814688 37.109589,88.4219623 L37.109589,77.2062286 C33.1316712,74.4489623 25.8242466,68.747761 20.4718356,60.9082481 C19.9810685,60.9481247 19.4851233,60.9706636 18.9863014,60.9706636 C8.67558904,60.9706636 0.287671233,52.5451377 0.287671233,42.1881961 C0.287671233,31.9277675 8.5219726,23.5623455 18.7003562,23.4080403 C18.8545479,10.6336506 29.2475342,0.288845455 42,0.288845455 C52.9631507,0.288845455 62.5069315,8.05380649 64.7870137,18.7863974 C64.8623836,18.7840857 64.9377534,18.7823519 65.0136986,18.7823519 Z" id="Outline" fill="#C3C3C3"></path>
                    </g>
                </g>
            </g>
        </g>
    </g>
</svg>
