<?xml version="1.0" encoding="UTF-8"?>
<svg width="40px" height="40px" viewBox="0 0 40 40" version="1.1" xmlns="http://www.w3.org/2000/svg" xmlns:xlink="http://www.w3.org/1999/xlink">
    <!-- Generator: Sketch 55.2 (78181) - https://sketchapp.com -->
    <title>Elements/Carrier Logo/Small / Acuity</title>
    <desc>Created with Sketch.</desc>
    <g id="Elements/Carrier-Logo/Small-/-Acuity" stroke="none" stroke-width="1" fill="none" fill-rule="evenodd">
        <circle id="Mask" fill="#EA1B2A" fill-rule="nonzero" cx="20" cy="20" r="20"></circle>
        <g id="Acuity_Insurance_logo-Copy" transform="translate(5.000000, 9.000000)" fill-rule="nonzero">
            <path d="M29.4007444,9.80185185 C28.78567,12.4046296 24.6085608,21.1731481 19.5334988,24.3046296 C19.9308313,24.0240741 20.292804,23.6425926 20.6073201,23.1490741 C23.3011787,18.9351852 19.8368486,11.5398148 14.9590571,6.90462963 C14.9525434,6.89537037 14.9404467,6.88703704 14.9330025,6.87777778 C16.9903846,2.9712963 20.005273,0 23.2555831,0 C23.9962779,0 24.748139,0.155555556 25.5046526,0.487037037 C29.6612903,2.31574074 30.2465881,6.23518519 29.4007444,9.80185185 Z" id="Path" fill-opacity="0.4" fill="#FFFFFF"></path>
            <path d="M14.9599876,6.90462963 C19.8377792,11.5398148 23.3021092,18.9351852 20.6073201,23.1490741 C20.292804,23.6425926 19.9308313,24.0240741 19.5325682,24.3046296 C19.5241935,24.3111111 19.5130273,24.3157407 19.5055831,24.3222222 C19.3771712,24.3953704 19.2459677,24.462037 19.1156948,24.5240741 C18.9193548,24.6203704 18.7230149,24.7018519 18.5238834,24.7666667 C18.4792184,24.7824074 18.4354839,24.7981481 18.3889578,24.812963 C18.3508065,24.8240741 18.310794,24.8333333 18.2717122,24.8444444 C18.1730769,24.8731481 18.0725806,24.8981481 17.9730149,24.9175926 C17.9590571,24.9203704 17.9441687,24.9240741 17.9283499,24.9268519 C17.8808933,24.9333333 17.8306452,24.9398148 17.7813275,24.9444444 C17.2918734,24.9907407 16.7763648,24.9601852 16.2450372,24.8574074 C16.2301489,24.8537037 16.2152605,24.8509259 16.2003722,24.8462963 C15.7369727,24.7064815 15.2763648,24.462037 14.8204094,24.1 C10.9094293,20.9731481 11.7980769,12.862037 14.9153226,6.91111111 C14.9218362,6.9 14.9274194,6.88888889 14.9330025,6.87962963 C14.9404467,6.88703704 14.9525434,6.89537037 14.9599876,6.90462963 Z" id="Path" fill-opacity="0.9" fill="#FFFFFF"></path>
            <path d="M19.5037221,24.3268519 C19.3743797,24.3981481 19.2431762,24.4648148 19.1156948,24.5268519 C19.2450372,24.462037 19.3762407,24.3953704 19.5055831,24.3222222 C19.5139578,24.3157407 19.523263,24.3111111 19.5334988,24.3046296 C19.521402,24.3111111 19.5139578,24.3203704 19.5037221,24.3268519 Z" id="Path" fill="#FF3C35"></path>
            <path d="M18.3889578,24.8111111 C18.4345533,24.7981481 18.4801489,24.7824074 18.5248139,24.7666667 C18.4801489,24.7842593 18.4345533,24.7981481 18.3889578,24.8111111 Z" id="Path" fill="#FF3C35"></path>
            <path d="M17.9730149,24.9175926 C18.0725806,24.8981481 18.1730769,24.8759259 18.2717122,24.8444444 C18.1730769,24.8759259 18.0725806,24.8981481 17.9730149,24.9175926 Z" id="Path" fill="#FF3C35"></path>
            <path d="M16.2478288,24.862037 C16.2320099,24.8574074 16.2152605,24.8537037 16.2013027,24.8462963 C16.2152605,24.8509259 16.2292184,24.8537037 16.2450372,24.8574074 C16.7763648,24.9601852 17.2909429,24.9907407 17.780397,24.9425926 C17.2909429,24.9935185 16.7763648,24.9601852 16.2478288,24.862037 Z" id="Path" fill="#CE2627"></path>
            <path d="M16.2003722,24.8462963 C10.3836849,23.5 3.60204715,16.5398148 2.18021092,14.2777778 C0.227977667,11.1712963 -0.487593052,7.27314815 2.85856079,4.21111111 C3.97704715,3.18703704 5.27791563,2.73796296 6.66346154,2.73796296 C9.34336228,2.73796296 12.3349876,4.41574074 14.933933,6.87962963 C14.9274194,6.88888889 14.9227667,6.9 14.9153226,6.91111111 C11.7980769,12.862037 10.9094293,20.9731481 14.8222705,24.1 C15.2754342,24.462037 15.7369727,24.7064815 16.2003722,24.8462963 Z" id="Path" fill-opacity="0.7" fill="#FFFFFF"></path>
        </g>
    </g>
</svg>