<?xml version="1.0" encoding="UTF-8"?>
<svg width="40px" height="40px" viewBox="0 0 40 40" version="1.1" xmlns="http://www.w3.org/2000/svg" xmlns:xlink="http://www.w3.org/1999/xlink">
    <!-- Generator: Sketch 55.2 (78181) - https://sketchapp.com -->
    <title>Elements/Carrier Logo/Small / BristolWest</title>
    <desc>Created with Sketch.</desc>
    <defs>
        <circle id="path-1" cx="20" cy="20" r="20"></circle>
    </defs>
    <g id="Elements/Carrier-Logo/Small-/-BristolWest" stroke="none" stroke-width="1" fill="none" fill-rule="evenodd">
        <g id="Group-3">
            <mask id="mask-2" fill="white">
                <use xlink:href="#path-1"></use>
            </mask>
            <use id="Mask" fill="#0A2363" fill-rule="nonzero" xlink:href="#path-1"></use>
            <path d="M26.0026115,14.034649 L26,14.034649 L26,15.6902039 C26,18.066076 26.1006623,18.1741121 28.5350754,17.887782 C29.8956783,17.7276859 31.0832085,17.2068553 31.6221316,15.8705712 C32.2422493,14.3329576 32.1206949,12.8167669 31.0969783,11.4772578 C30.0986648,10.1716108 28.6229175,9.93158186 27.0519685,10.0147397 C26.3098214,10.0541302 25.9995252,10.4498786 26.0018993,11.1374855 C26.0047482,12.1031299 26.0026115,13.0690046 26.0026115,14.034649 L26.0026115,14.034649 Z M26,23.3597593 C26.067563,24.5079619 26.0944455,25.6597394 26.2162492,26.8028032 C26.3080778,27.6668039 26.7117905,28.3853522 27.6533904,28.7321143 C29.8177856,29.5297565 32.2864521,28.4879062 32.8105412,26.3802986 C33.0669952,25.3491728 33.0446328,24.1940439 32.8538386,23.1419158 C32.5647927,21.5477485 31.3681662,20.5626492 29.7195337,20.201811 C28.8183765,20.004523 27.8567931,20.0297705 26.9209028,20.0007247 C26.3340087,19.982627 26.0506723,20.304365 26.0589987,20.8656192 C26.0713694,21.6958821 26.0623293,22.5263684 26.0623293,23.3568547 C26.0413942,23.3577484 26.0206971,23.3586421 26,23.3597593 Z M1.24478236,17.999847 C6.93968187,17.999847 12.6345814,18.0003155 18.3294809,17.9996128 C19.8605623,17.9993786 19.9946224,17.8665792 19.996069,16.3577713 C19.9975157,14.7290457 20.0059548,13.1003202 19.9924523,11.4718289 C19.9818432,10.1752191 19.8251184,10.010098 18.4956093,10.0075217 C13.1474334,9.99721626 7.79949861,9.99229776 2.45180496,10.0281325 C2.11520817,10.0304747 1.08388262,10.3568675 0.908350765,10.6463563 C-0.457325633,12.8955152 -0.701740518,15.2977178 -1,17.999847 L1.24478236,17.999847 Z M-0.960742763,20.0002038 C-0.97756574,20.3359052 -1.00159856,20.5763769 -1,20.8161636 C-0.980209351,23.4579275 -0.754734037,25.7572138 0.402686806,28.1489145 C0.639169802,28.6371658 1.38221733,29.0027086 1.96116808,28.9999835 C7.37888778,28.9759895 12.7968478,28.9869512 18.2145675,28.9851242 C19.6284186,28.9846675 19.953102,28.7053731 19.9742509,27.3584572 C20.0050129,25.4145866 20.0009274,23.470031 19.9980434,21.5259321 C19.9958805,20.1246645 19.8545675,20.0008889 18.3505933,20.0006606 C12.2409686,19.9995187 6.13158417,20.0002038 0.0221997721,20.0002038 L-0.960742763,20.0002038 Z M36.3844748,29.8246914 C33.6470187,31.5052426 29.8281262,31.0708642 26.5548915,31.0730864 C18.9098521,31.0782716 11.2648127,31.0745679 3.61977327,31.0745679 L2.576033,31.0745679 C1.63612355,30.9851989 -1,29.4339181 -1,19.2677584 C-1,9.10159867 1.10144075,7.60388085 3.33401665,7.80839506 L4.43505644,7.80839506 C11.6649213,7.80839506 18.8947862,7.80666667 26.1246511,7.80938272 C29.3097137,7.81061728 32.5167576,7.65185185 35.6958927,9.1817284 C37.0297502,10.0237672 38.7903134,11.7014815 38.1908914,14.1787654 C37.5914693,16.6560494 35.6781101,17.5688889 33.584702,18.3316049 C35.6623033,18.9071605 37.5513191,19.9189353 38.6821359,21.4666667 C39.1219309,22.0686072 39.3337443,23.4095494 39.3337443,23.9792548 C39.3337443,24.7431229 39.1219309,28.1441401 36.3844748,29.8246914 Z" id="Fill-1" fill="#FFFFFF" mask="url(#mask-2)"></path>
        </g>
    </g>
</svg>