<?xml version="1.0" encoding="UTF-8"?>
<svg width="40px" height="40px" viewBox="0 0 40 40" version="1.1" xmlns="http://www.w3.org/2000/svg" xmlns:xlink="http://www.w3.org/1999/xlink">
    <!-- Generator: Sketch 55.2 (78181) - https://sketchapp.com -->
    <title>Elements/Carrier Logo/Small / CSE</title>
    <desc>Created with Sketch.</desc>
    <g id="Elements/Carrier-Logo/Small-/-CSE" stroke="none" stroke-width="1" fill="none" fill-rule="evenodd">
        <circle id="Mask" fill="#7DA2D5" fill-rule="nonzero" cx="20" cy="20" r="20"></circle>
        <g id="cse-insurance-group-logo-vector" transform="translate(4.000000, 14.000000)" fill="#FFFFFF" fill-rule="nonzero">
            <g id="Group">
                <path d="M9.21990369,8.07866109 L9.13772071,8.14895397 C8.21316212,8.97238494 7.42728732,9.44937238 6.16886035,9.44937238 C4.31974318,9.44937238 2.92263242,7.96820084 2.92263242,6 L2.92263242,5.96987448 C2.92263242,4.02175732 4.31974318,2.55062762 6.16886035,2.55062762 C7.19101124,2.55062762 8.0847512,2.93723849 9.05553772,3.80083682 L9.14285714,3.87615063 L10.9149278,1.87782427 L10.8378812,1.80251046 C9.55890851,0.572384937 8.12070626,0.020083682 6.18426966,0.020083682 C2.67094703,0.020083682 0.0205457464,2.59079498 0.0205457464,5.99497908 L0.0205457464,6.0251046 C0.0205457464,7.641841 0.631781701,9.13807531 1.74638844,10.2426778 C2.87126806,11.3573222 4.41219904,11.9698745 6.08154093,11.9698745 C8.12070626,11.9698745 9.52295345,11.3723849 10.9200642,9.91129707 L10.9971108,9.83096234 L9.21990369,8.07866109 Z" id="Path"></path>
                <path d="M17.6179775,4.76987448 C15.6096308,4.26778243 15.2038523,4.03682008 15.2038523,3.38912134 L15.2038523,3.35899582 C15.2038523,2.82677824 15.7431782,2.48535565 16.5804173,2.48535565 C17.4741573,2.48535565 18.4398074,2.841841 19.5287319,3.58493724 L19.6263242,3.65020921 L21.0799358,1.5916318 L20.9977528,1.52635983 C19.7598716,0.552301255 18.2857143,0.060251046 16.6163724,0.060251046 C14.1560193,0.060251046 12.4404494,1.51129707 12.4404494,3.58995816 L12.4404494,3.62008368 C12.4404494,6.0251046 14.1457464,6.6376569 16.3698234,7.19497908 C18.30626,7.68200837 18.6195827,7.9832636 18.6195827,8.52552301 L18.6195827,8.55564854 C18.6195827,9.15313808 18.0391653,9.50962343 17.0632424,9.50962343 C15.8921348,9.50962343 14.8186196,9.07782427 13.6731942,8.15899582 L13.5858748,8.08870293 L11.9319422,10.0267782 L12.0141252,10.0970711 C13.3752809,11.2870293 15.152488,11.939749 17.011878,11.939749 C19.7085072,11.939749 21.388122,10.548954 21.388122,8.30962343 L21.388122,8.27949791 C21.3829856,6.16569038 19.8780096,5.34728033 17.6179775,4.76987448" id="Path"></path>
                <rect id="Rectangle" x="27.3258427" y="4.73472803" width="3.8317817" height="2.44518828"></rect>
                <polygon id="Path" points="25.6873194 9.33389121 25.6873194 2.66108787 31.9024077 2.66108787 31.9024077 0.215899582 22.9187801 0.215899582 22.9187801 11.7790795 31.9845907 11.7790795 31.9845907 9.33389121"></polygon>
            </g>
        </g>
    </g>
</svg>