<?xml version="1.0" encoding="UTF-8"?>
<svg width="40px" height="40px" viewBox="0 0 40 40" version="1.1" xmlns="http://www.w3.org/2000/svg" xmlns:xlink="http://www.w3.org/1999/xlink">
    <!-- Generator: Sketch 55.2 (78181) - https://sketchapp.com -->
    <title>Elements / Carrier Logo / Small / Liberty</title>
    <desc>Created with Sketch.</desc>
    <g id="Elements-/-Carrier-Logo-/-Small-/-Liberty" stroke="none" stroke-width="1" fill="none" fill-rule="evenodd">
        <g id="Liberty" fill-rule="nonzero">
            <circle id="Mask" fill="#002663" cx="20" cy="20" r="20"></circle>
            <g id="logo" transform="translate(9.000000, 5.000000)">
                <path d="M22.9596988,12.6664439 C22.8850987,12.5698529 22.7008126,12.6493984 22.7008126,12.6493984 L19.7542782,13.7212567 C19.5338804,13.1873519 19.2691058,12.6721351 18.9626313,12.1808155 L19.9167634,9.6263369 C19.9167634,9.6263369 20.0359873,9.37266043 19.9252794,9.30949198 C19.8155934,9.24565508 19.6364168,9.41544118 19.6364168,9.41544118 L17.9032415,10.8101604 C17.2274121,10.0999332 16.434062,9.52707219 15.5225098,9.12132353 C15.1779219,8.97163286 14.8228644,8.8463132 14.4600543,8.74632353 L13.922184,6.72526738 C13.922184,6.72526738 13.875857,6.52272727 13.7375572,6.52272727 C13.5995981,6.52272727 13.5621277,6.71423797 13.5621277,6.71423797 L13.2174002,8.49966578 C12.8303562,8.45106386 12.440569,8.42650513 12.0503683,8.42613636 C10.7576402,8.42613636 9.60934337,8.66677807 8.60411529,9.10929144 C8.17843755,9.29632469 7.77201231,9.52296277 7.39041565,9.78609626 C7.32739728,9.82954545 7.26778532,9.87667112 7.20612951,9.92179144 C6.84845771,9.01838235 6.56708923,8.28108289 6.51429006,8.05949198 C6.71288307,7.88268717 7.13016683,7.23830214 7.23201814,6.80347594 C7.37338366,6.19518717 7.3301224,5.90741979 7.18092217,5.44719251 C7.07293935,5.11062834 6.85595179,4.79578877 6.87025866,4.58322193 C6.88115913,4.42446524 6.967341,4.31082888 7.04023792,4.23763369 C7.00072371,4.01437166 6.85254539,3.9171123 6.67643461,3.89471925 C6.51429006,3.87332888 6.38791269,3.92012032 6.24348141,3.92647059 C6.20737359,3.86096257 6.13481731,3.87332888 6.18931968,3.64304813 C6.27175451,3.29411765 6.95371541,3.13034759 7.5123647,2.91811497 C8.21919231,2.64906417 8.61399385,2.1493984 8.63783863,1.34759358 C8.65487063,0.764371658 8.32376873,0.332887701 7.9085288,0.138368984 C7.82507205,0.373663102 7.4806852,0.690173797 7.24121541,0.819184492 C7.00549266,0.946858289 6.67847845,0.99565508 6.44207442,0.941510695 C6.49385167,0.512700535 6.2921929,0.147393048 5.9730134,-1.13686838e-13 C5.87082145,0.182820856 5.48692039,0.434826203 4.90987655,0.417446524 C4.33283271,0.399398396 4.29570297,0.265374332 3.48498022,0.268048128 C2.33089254,0.270053476 1.37505724,0.953208556 1.2575365,1.95588235 C1.18191446,2.6072861 1.43705368,3.15374332 1.62951518,3.43683155 C1.48576518,3.54278075 1.14853176,3.86129679 1.08823852,3.95688503 C1.00478176,3.86129679 0.77587181,3.73429144 0.499953564,3.91109626 C0.559565531,4.05347594 0.570806644,4.22660428 0.52379835,4.3927139 C0.476108777,4.55681818 0.0550779714,5.35962567 0.00704775808,6.00735294 C-0.0747057964,7.10394385 0.570806644,7.84625668 1.11242394,8.0584893 C0.992859369,8.23562834 0.967992663,8.42379679 1.05247134,8.57787433 C1.10799563,8.67981283 1.22006612,8.77840909 1.44931672,8.77840909 C1.31714847,8.9197861 1.26707442,9.13335561 1.35291565,9.34391711 C1.44931672,9.57954545 1.72489432,9.92212567 1.96572667,9.92212567 C1.95380427,10.1223262 2.0498647,10.5932487 2.09823555,10.7824198 C2.01443816,10.9358289 1.92961885,11.0518048 1.94222252,11.3345588 C1.95414491,11.6293449 2.14660641,11.8673128 2.38641683,11.9144385 C2.44671008,12.056484 2.49201518,12.2118984 2.57547193,12.3061497 C2.65960996,12.4007353 2.73455072,12.5153743 2.91543046,12.6330214 C3.09528828,12.7510027 3.29967217,12.8459225 3.54050451,12.8459225 C3.78065558,12.8459225 3.9921929,12.8572861 4.10051636,12.8221925 C4.10562596,12.8897059 4.12810818,13.5137032 4.15604065,14.2065508 C3.55174563,15.8569519 3.25027939,17.7703877 3.25027939,19.822861 L3.25027939,19.8238636 C3.25062003,23.5026738 4.3198884,26.7800802 6.36134278,28.8923797 C6.36134278,28.8923797 6.47886352,29.0344251 6.80655901,29.2423128 C6.80655901,29.2423128 7.4455993,28.1707888 8.41744468,26.9522059 C8.67450871,26.634194 8.95479944,26.3349424 9.25609989,26.0568182 C9.70437075,25.6733534 10.1692038,25.3089363 10.6493167,24.9645722 C11.9055963,24.125 13.359447,23.4852941 14.7029305,23.2132353 C13.1622166,23.9923128 12.2888161,24.4100936 10.840075,25.6286765 C9.92341328,26.4004011 8.46206849,27.7616979 7.46331257,29.6273396 C7.67110285,29.7891043 7.95110878,29.9552139 8.28118875,29.9879679 C8.49238544,29.7446524 9.57834515,27.7907754 11.245777,26.2199198 C14.6187924,23.1209893 18.5920152,22.4044118 20.6723025,22.443516 C20.789142,21.6032754 20.8494352,20.7272727 20.8494352,19.822861 C20.8494352,18.3412433 20.6920596,16.9341578 20.3779897,15.6447193 L22.8615946,12.9328209 C22.8615946,12.9318182 23.033277,12.7637032 22.9596988,12.6664439 L22.9596988,12.6664439 Z" id="Path" fill="#FFFFFF"></path>
                <path d="M4.48884574,11.4421791 C4.34509574,11.3596257 3.94825036,11.1701203 3.63588366,11.1828209 C3.3119352,11.1955214 3.03840143,11.2596925 2.78292157,11.4184492 C2.67493875,11.3472594 2.64121541,11.2058824 2.71070593,11.0407754 C2.77951518,10.8763369 2.87932264,10.852607 2.87932264,10.852607 L2.78769053,9.30748663 C2.78769053,9.30748663 3.23018164,8.9986631 3.34974622,8.96356952 C3.46965143,8.92847594 3.5241538,8.83622995 3.5241538,8.71858289 C3.72002169,8.84926471 4.00922489,9.13870321 4.164216,9.35561497 C4.30898792,9.55614973 4.39312596,9.77941176 4.40504835,10.0274064 C4.41697074,10.2747326 4.41935522,10.5698529 4.36859989,10.8763369 C4.46738544,10.9592246 4.56072074,11.0294118 4.57298378,11.1587567 C4.58490617,11.2894385 4.5372166,11.3358957 4.48884574,11.4421791 L4.48884574,11.4421791 Z M18.8382978,16.2526738 C18.8209251,15.9515374 18.4646159,15.138369 18.2486502,14.9612299 L21.9868315,13.3345588 L18.8382978,16.2526738 L18.8382978,16.2526738 Z M8.58367691,10.1758021 L11.7475395,12.9919786 C11.4419856,13.1604278 10.983825,13.6139706 10.8581289,13.9846257 L8.58367691,10.1758021 Z M10.4350543,15.7540107 C10.3270715,15.9194519 10.2882385,16.0187166 10.2521307,16.2185829 C10.2156822,16.4197861 10.2425928,16.5310829 10.2674595,16.6961898 L9.29629539,16.0391043 C9.30821778,15.8158422 9.24860581,15.4518717 9.23327702,15.2616979 C9.23157382,15.2409759 9.22476103,15.2075535 9.21931079,15.1791444 L10.4350543,15.7540107 L10.4350543,15.7540107 Z" id="Shape" fill="#002663"></path>
                <path d="M5.08973437,16.0280749 C5.02978176,15.9221257 4.75352288,10.1918449 4.74160048,9.99231283 L5.05396719,9.76871658 L5.05396719,9.7092246 C4.82607916,9.69719251 4.56106138,9.61497326 4.47794527,9.48429144 L4.3934666,7.72860963 C4.08041861,7.70487968 3.75851399,7.60762032 3.63860878,7.49030749 C3.4890679,7.34291444 3.37222845,7.16209893 3.54084515,6.84358289 C3.69651754,6.95053476 4.15263425,7.07987968 4.54947963,7.07987968 C4.63327702,7.07987968 4.81006909,7.26537433 4.91055783,7.30414439 C5.02535345,7.34893048 5.21781494,7.45320856 5.30876577,7.49231283 C5.39051932,7.52740642 5.44127465,7.71590909 5.46546008,7.78676471 C5.48930487,7.85762032 8.38235878,15.2269385 8.43107027,15.3091578 C8.47944112,15.3917112 8.64805783,16.6290107 8.6589583,16.7235963 C8.67190262,16.8178476 9.10417454,17.8074866 9.18797193,17.9024064 C8.80373022,17.8910428 8.17388721,18.1069519 7.65713662,18.6032754 C7.15230842,19.0868984 6.70572963,20.1500668 6.60421897,20.6403743 C6.56811115,20.3806818 5.15036826,16.1340241 5.08973437,16.0280749 L5.08973437,16.0280749 Z M8.76660048,23.0778743 C8.64090439,24.2105615 8.35987655,25.1931818 7.93748318,25.8950535 C7.66599326,26.3469251 6.90296008,27.2630348 6.63589847,27.608623 C6.92510167,27.0434492 7.14822074,25.6778075 7.12948555,24.6163102 C7.11756316,23.927139 6.90432264,22.4067513 7.09031198,21.3987299 C7.29026754,20.3171791 7.60365617,19.7092246 8.341482,19.0427807 C8.71754835,18.7028743 9.4880756,18.2687166 10.5876609,18.5618316 L11.4774121,20.2035428 C11.0011976,20.1143048 10.3720359,20.1945187 9.95236766,20.5110294 C9.16344586,21.105615 8.89774681,21.9074198 8.76660048,23.0778743 L8.76660048,23.0778743 Z" id="Shape" fill="#002663"></path>
                <path d="M8.85346363,25.3104947 C9.06976991,24.8325535 9.35420416,23.4705882 9.43391387,23.0147059 C9.53678709,22.4301471 9.63216624,21.5765374 10.3420596,21.0023396 C10.6908748,20.7199198 11.2638309,20.6831551 11.491719,20.7483289 L12.4983096,22.7593583 C12.5882385,22.9722594 12.8839139,23.0474599 13.0818256,23.035762 C12.1389346,23.3362299 9.76160937,24.443516 8.85346363,25.3104947 L8.85346363,25.3104947 Z M17.4151046,18.8900401 C17.2533007,19.1380348 17.3112095,19.3760027 17.4007978,19.5421123 C17.5029897,19.7292781 18.0354097,20.6945187 18.0354097,20.6945187 C18.2033452,21.1323529 18.3344915,21.352607 18.4945922,21.6346925 C18.7831141,21.6346925 19.0954808,21.6273396 19.4252202,21.6346925 C19.0733392,20.861631 18.2697699,19.3673128 18.2697699,19.3673128 L18.2118611,18.1617647 C17.9778416,18.3004679 17.5769085,18.6427139 17.4151046,18.8900401 L17.4151046,18.8900401 Z M13.1254275,12.4886364 C13.5219322,12.4184492 14.4198588,12.4989973 14.7076994,12.6407086 L13.7961473,7.57687166 L13.1254275,12.4886364 Z M5.46511944,7.78676471 C5.44093401,7.71624332 5.3912006,7.52740642 5.30842513,7.49231283 C5.21815558,7.45254011 5.02501281,7.34792781 4.91021719,7.30314171 C4.81075036,7.26470588 4.63327702,7.07987968 4.54947963,7.07987968 C4.15297489,7.07987968 3.69617691,6.95053476 3.54050451,6.84358289 C3.37188781,7.16209893 3.48872726,7.34291444 3.63826814,7.49030749 C3.75851399,7.60762032 4.08007797,7.70354278 4.39312596,7.72860963 L4.47760463,9.48429144 C4.56106138,9.61497326 4.82573852,9.69652406 5.05362655,9.7078877 L5.05362655,9.76671123 L4.74125984,9.99164439 C4.75318224,10.1911765 5.02944112,15.9214572 5.09007501,16.0274064 C5.14968698,16.1333556 6.56777051,20.3800134 6.60353769,20.6390374 C6.70470771,20.1497326 7.15162714,19.0858957 7.65645534,18.6022727 C8.17320593,18.1069519 8.80304894,17.8907086 9.18729065,17.9020722 C9.10349326,17.8071524 8.67122134,16.8175134 8.65827702,16.723262 C8.64737655,16.6286765 8.47875984,15.391377 8.43107027,15.3088235 C8.38269942,15.2266043 5.48896423,7.85762032 5.46511944,7.78676471 L5.46511944,7.78676471 Z" id="Shape" fill="#002663"></path>
                <path d="M3.61714847,6.38168449 C4.43434337,6.38335561 4.82165084,6.71657754 5.01309041,6.89338235 C5.0369352,6.6223262 4.9933333,6.38335561 4.73649089,6.17914439 C4.52290972,6.00902406 4.14752465,5.85862299 3.57116209,5.85862299 C3.18657975,5.85862299 2.79995356,5.96925134 2.55946186,6.16911765 C2.3390679,6.35294118 2.30296008,6.56049465 2.35064965,6.86731283 C2.42252465,6.64338235 2.9440442,6.3790107 3.61714847,6.38168449 L3.61714847,6.38168449 Z M2.1534192,2.17513369 C2.13536529,2.4809492 2.21814077,2.80013369 2.36291269,2.98897059 C2.44500688,3.09625668 2.63951221,3.30314171 2.78326221,3.29512032 C2.98798674,3.28241979 3.18010759,2.89872995 3.66006909,2.91744652 C3.97243579,2.92947861 4.17681968,3.36229947 4.44149681,3.37700535 C4.6458807,3.38970588 4.75386352,3.18917112 4.96063188,3.16744652 C5.13742394,3.14906417 5.19873911,3.23629679 5.30706257,3.34191176 C5.37927821,3.17747326 5.48317335,3.06550802 5.75125688,2.8709893 C6.07554598,2.63469251 7.18126281,2.41076203 7.65032382,1.99832888 C7.88502465,1.79177807 7.93816446,1.41009358 7.86390499,1.15307487 C7.686091,1.3980615 7.1931852,1.65675134 6.71322371,1.68014706 C6.47239136,1.69184492 5.89534752,1.58756684 5.69096363,1.48161765 C5.79349622,1.30915775 5.82721956,1.11296791 5.74274089,0.924131016 C5.58638721,1.04244652 4.91055783,1.10661765 4.64554006,1.10661765 C4.38120356,1.10661765 3.86581553,1.00100267 3.46590439,1.02272727 C2.58841624,1.06818182 2.18237359,1.67981283 2.1534192,2.17513369 L2.1534192,2.17513369 Z" id="Shape" fill="#002663"></path>
                <path d="M3.66756316,4.85093583 C5.5666301,4.88669786 6.42367987,5.74699198 6.44820593,6.45454545 C6.544607,6.24164439 6.53166269,6.04177807 6.51974029,5.80581551 C6.51054302,5.61798128 6.2203179,5.08723262 6.20737359,4.91009358 C6.19545119,4.73328877 6.24348141,4.61564171 6.27958923,4.45053476 C6.15968401,4.47393048 5.73933449,4.63903743 5.55879539,4.49766043 C5.36565262,4.34592246 5.49918342,3.96758021 5.24642868,3.87299465 C4.99367394,3.77774064 4.59785048,4.07319519 4.34509574,4.0381016 C4.09302228,4.00233957 3.876716,3.66143048 3.61306079,3.66143048 C3.34736174,3.66143048 3.21553413,3.97894385 2.89124503,4.05013369 C2.64121541,4.10494652 2.33804598,3.95688503 2.18986766,3.96791444 C2.02636055,3.97927807 1.92757501,4.10427807 1.85535937,4.25735294 C1.78348437,4.41143048 1.72523496,4.47426471 1.53345475,4.52139037 C1.38016683,4.55949198 1.1607948,4.42780749 1.05247134,4.45120321 C1.13626873,4.53375668 1.17850807,4.86898396 1.10254539,5.06417112 C1.00648496,5.31183155 0.800397877,5.57152406 0.77587181,5.88034759 C0.755433422,6.15307487 0.84808745,6.27874332 0.92064373,6.47894385 C0.872272877,5.47593583 2.00932856,4.81985294 3.66756316,4.85093583 L3.66756316,4.85093583 Z M2.47055487,8.42312834 C2.33872726,8.44685829 2.06212773,8.65942513 1.92757501,8.88068182 C1.96674859,9.02339572 2.12242098,9.35561497 2.2757089,9.44652406 C2.31045416,9.29311497 2.48247726,9.03743316 2.56763721,8.97794118 C2.68686115,8.8940508 2.80676636,8.83656417 2.90282679,8.79010695 C2.99888721,8.74231283 3.03465439,8.69518717 3.03465439,8.58790107 C3.03465439,8.48295455 3.02068816,8.43282086 2.97265795,8.32687166 C3.06803709,8.31550802 3.24585108,8.32987968 3.30716624,8.24665775 C3.36677821,8.16477273 3.39573259,8.05782086 3.39573259,7.95220588 C3.39573259,7.84558824 3.3470211,7.82185829 3.23971956,7.81049465 C3.04705175,7.79584041 2.85362167,7.79338434 2.66063188,7.80314171 L2.97538307,7.64505348 C3.04691743,7.61062834 3.07144349,7.53977273 3.08370653,7.48061497 C3.09528828,7.42179144 3.09256316,7.28877005 3.0595211,7.12733957 C2.6984429,7.13870321 2.06178709,7.45688503 1.89351103,7.59826203 L2.02636055,7.91744652 L1.78552821,7.90775401 C1.74976103,8.06918449 1.77360581,8.31818182 1.84582145,8.4592246 C2.06212773,8.42312834 2.31420119,8.41176471 2.47055487,8.42312834 L2.47055487,8.42312834 Z M18.0136088,15.8098262 C17.9693256,15.5808824 17.3837658,14.8960561 16.3853505,14.1540775 C15.6073292,13.5735294 14.4651639,13.0013369 13.5253386,13.0063176 C11.9393197,13.0153743 11.2842693,14.0838904 11.1647047,14.6417112 C11.0924891,14.9789439 11.1098617,15.3439171 11.1820774,15.5444519 C10.9300039,15.7566845 10.8339435,15.9274733 10.785232,16.1691176 C10.751168,16.3432487 10.785232,16.5932487 10.9480578,16.746992 C10.9300039,16.5167112 11.0894234,16.2503342 11.2185258,16.0748663 C11.3632978,15.8800134 11.6031082,15.8041444 11.8204364,15.6754679 L11.8562036,16.1006016 C11.6507978,16.2165775 11.3973617,16.4639037 11.3803297,16.5932487 L11.3973617,17.2957888 L11.9427261,16.9769385 L12.0479838,17.1898396 L11.8497314,18.4274733 L12.1559666,18.3739973 L12.7142752,18.6006016 L12.1736799,19.0457888 L12.1736799,19.2235963 C12.1736799,19.2235963 12.2557741,19.1139706 12.4461917,19.1223262 C12.63695,19.1306818 13.1288339,19.3469251 13.1288339,19.3469251 L13.1111206,19.453877 L12.1559666,19.453877 C12.1195181,19.5772059 12.2315886,19.6724599 12.3041449,19.7252674 C12.4295004,19.690508 12.5599654,19.6266711 12.6318404,19.6266711 C12.7030341,19.6266711 12.8699476,19.6684492 13.0140383,19.6861631 L12.8413339,19.9134358 C12.8413339,19.9134358 12.7520863,19.9802807 12.5885792,19.9481952 C12.4986502,19.9308155 12.409062,20.0541444 12.409062,20.1554144 C12.409062,20.2623663 12.4788931,20.5277406 12.4788931,20.5277406 C12.5674595,20.9261364 12.9820181,20.8449198 13.0348173,20.8412433 C13.2984725,20.8188503 14.1565442,20.5143717 14.1565442,20.5143717 L13.3318552,21.6493984 L13.6922521,22.8629679 C14.2365946,22.6433824 15.8624684,22.0762032 17.6280045,21.7924465 C17.4352024,21.4786096 17.4038635,21.3532754 17.1671188,20.885361 L16.2661265,18.8519385 L16.3921633,18.5514706 C16.5904156,18.6223262 16.8963102,18.4802807 17.0945626,18.3215241 C17.2931556,18.1620989 17.5271751,17.8790107 17.617104,17.7018717 C17.4910673,17.6316845 17.3837658,17.6483957 17.2751017,17.720254 C17.1671188,17.7914439 17.0829808,17.9274733 16.9330993,17.8612968 C16.7699328,17.7914439 16.8496425,17.6169786 16.8676965,17.4572193 C16.8857504,17.2984626 16.6803446,17.296123 16.5365946,17.4187834 C16.3921633,17.5424465 16.0852468,17.4899733 15.8869944,17.296123 C15.6887421,17.1009358 14.73461,16.3225267 14.3915857,16.1296791 C13.8986799,15.8516043 13.2381793,15.7804144 12.751405,15.8666444 C12.4673114,15.9157754 12.2646307,16.0397727 12.1563072,15.986631 L11.7996574,15.4455214 L11.8565442,15.410762 C11.9825809,15.4639037 12.1014642,15.5625 12.2642901,15.5096925 C12.426094,15.4565508 12.9476135,15.3395722 13.4176965,15.3332219 C14.1395122,15.3211898 15.0159784,15.5798797 15.4009014,15.7406417 C15.4186147,16.1998663 16.3618463,16.7834225 16.7883274,16.8358957 C17.1483837,16.8803476 17.3663931,16.7834225 17.5816775,16.6590909 L16.6622906,15.8666444 L17.1490649,15.2620321 C17.1490649,15.2620321 17.9243611,15.986631 18.0326846,16.1296791 C18.0670892,16.0454545 18.032344,15.907754 18.0136088,15.8098262 L18.0136088,15.8098262 Z M12.4812776,16.7296123 C12.4812776,16.7296123 12.8771011,16.5063503 13.249761,16.4281417 C13.7995537,16.3128342 14.4089583,16.6370321 14.8412302,16.9699198 L14.7587954,17.0979278 L14.1391716,17.2416444 C14.0185851,17.1366979 13.7903564,17.0895722 13.5437332,17.1006016 C13.3243611,17.1112968 13.1475691,17.1898396 13.1475691,17.1898396 L13.2695181,17.3836898 L12.9847433,17.4545455 C12.8587065,17.2957888 12.6604542,17.1006016 12.480937,17.0477941 L12.480937,16.7296123 L12.4812776,16.7296123 Z M11.5428149,15.3328877 C11.3806704,14.799131 11.8139642,14.2713904 12.0111947,14.0775401 L12.3174299,14.7667112 C12.0844322,14.8907086 11.723354,15.1604278 11.5428149,15.3328877 Z M14.3909044,14.7312834 C14.1023825,14.5364305 13.1475691,14.5715241 12.7507237,14.6604278 L12.4622018,13.8459225 C12.6791893,13.6871658 13.0934074,13.5812166 13.4715175,13.5812166 C13.850309,13.5812166 14.264527,13.6707888 14.5523677,13.8114973 L14.3909044,14.7312834 L14.3909044,14.7312834 Z M16.2657859,15.565508 C15.8689405,15.3151738 15.0933037,14.9438503 14.8603061,14.8723262 L15.2016271,14.0063503 C15.4908303,14.1483957 16.5539672,14.7837567 16.7161117,14.9438503 L16.2657859,15.565508 L16.2657859,15.565508 Z M16.1428149,13.2630348 C16.4994648,13.3873663 17.2536414,14.0093583 17.4341805,14.1510695 L19.3441479,10.1557487 L16.1428149,13.2630348 L16.1428149,13.2630348 Z" id="Shape" fill="#002663"></path>
            </g>
        </g>
    </g>
</svg>