<?xml version="1.0" encoding="UTF-8"?>
<svg width="40px" height="40px" viewBox="0 0 40 40" version="1.1" xmlns="http://www.w3.org/2000/svg" xmlns:xlink="http://www.w3.org/1999/xlink">
    <!-- Generator: Sketch 55.2 (78181) - https://sketchapp.com -->
    <title>Elements/Carrier Logo/Small / State Farm</title>
    <desc>Created with Sketch.</desc>
    <defs>
        <circle id="path-1" cx="20" cy="20" r="20"></circle>
    </defs>
    <g id="Elements/Carrier-Logo/Small-/-State-Farm" stroke="none" stroke-width="1" fill="none" fill-rule="evenodd">
        <g id="State_Farm_logo">
            <mask id="mask-2" fill="white">
                <use xlink:href="#path-1"></use>
            </mask>
            <use id="Mask" fill="#D7211E" fill-rule="nonzero" xlink:href="#path-1"></use>
            <path d="M16.5385695,17.6895931 C17.5285585,18.2866403 18.9195558,18.6661865 20.4852571,18.6661865 C22.0487468,18.6661865 23.4530128,18.2866403 24.4577448,17.6895931 C25.4661626,17.0932661 26.0603034,16.2880807 26.0625149,15.4382427 C26.0603034,14.5862441 25.4698483,13.7889809 24.4658534,13.1976954 C23.4648072,12.60713 22.0642269,12.2355059 20.4963143,12.2326251 C18.9313502,12.2355059 17.5381414,12.60713 16.5437295,13.1976954 C15.5485804,13.7897011 14.9640224,14.5840835 14.961811,15.4360821 C14.9640224,16.2902413 15.5471061,17.0932661 16.5385695,17.6895931 L16.5385695,17.6895931 Z M16.7884625,22.2960029 C15.7874162,21.7047173 14.3860988,21.3323731 12.8211347,21.3323731 C11.2546963,21.3323731 9.86148761,21.7047173 8.86781281,22.2931221 C7.87192657,22.8851278 7.28736862,23.6766295 7.28515718,24.528628 C7.28736862,25.3835074 7.86897798,26.1865322 8.86265278,26.78574 C9.85190469,27.378466 11.242902,27.7587324 12.8093404,27.7616133 C14.3757788,27.7580122 15.7800447,27.378466 16.7840396,26.7828592 C17.7902459,26.1865322 18.3843867,25.3835074 18.3873353,24.5315088 C18.3836496,23.6823911 17.7924573,22.8880086 16.7884625,22.2960029 L16.7884625,22.2960029 Z M32.1071242,22.2960029 C31.1046036,21.7047173 29.7025491,21.3323731 28.1368479,21.3323731 C26.5718838,21.3323731 25.1764636,21.7047173 24.1850002,22.2931221 C23.189114,22.8844076 22.6060303,23.6766295 22.604556,24.5307886 C22.6060303,25.3827872 23.1861654,26.185812 24.1805774,26.7850198 C25.1705664,27.3777458 26.5608266,27.7580122 28.1257907,27.7608931 C29.6907547,27.757292 31.096495,27.3777458 32.1019641,26.782139 C33.1081704,26.185812 33.7023113,25.3827872 33.7037856,24.5307886 C33.7023113,23.6823911 33.111119,22.8880086 32.1071242,22.2960029 L32.1071242,22.2960029 Z M28.1198935,19.1004681 C27.4122319,19.1004681 26.7288962,19.1660065 26.0794693,19.2848398 C27.4984781,18.2952827 28.3719979,16.9333813 28.3719979,15.4303205 C28.3719979,12.4061937 24.8572787,10 20.4933657,10 C16.1301898,10.0007202 12.6515908,12.4069139 12.6515908,15.4310407 C12.6515908,16.9362622 13.5088933,18.2981635 14.9138964,19.2877206 C14.251938,19.1660065 13.5575451,19.1004681 12.8410377,19.1004681 C8.4778618,19.1004681 5,21.5073821 5,24.528628 C5,27.5477134 8.45943311,30 12.8240833,30 C16.5385695,30 19.6522804,28.2254231 20.5,25.8343536 C21.3263423,28.2254231 24.3862415,30 28.1014648,30 C32.4653778,30 36,27.5484336 36,24.528628 C36,21.5073821 32.4815951,19.1004681 28.1198935,19.1004681 L28.1198935,19.1004681 Z M14.0742854,15.4281599 C14.0794455,14.0662586 15.1379893,13.146561 15.7586674,12.7180411 C17.0000238,11.8559597 18.6821943,11.3914296 20.4941028,11.3914296 C22.3119085,11.3914296 23.9999762,11.8581203 25.2509155,12.7180411 C25.8767537,13.1494418 26.947829,14.0705798 26.952989,15.4281599 C26.9323489,17.6982355 23.949113,19.5052215 20.474937,19.5102629 C18.6704,19.5102629 16.9956009,19.0385308 15.7594046,18.1699676 C14.6824321,17.4159165 14.0742854,16.4443644 14.0742854,15.4281599 L14.0742854,15.4281599 Z M12.8240833,28.6078502 C11.0173349,28.6078502 9.34401008,28.1353979 8.10412803,27.2653943 C7.03231559,26.514224 6.42269463,25.5426719 6.42269463,24.528628 C6.42859181,23.1667267 7.48639844,22.2448686 8.10486517,21.8156284 C9.34769582,20.9593086 11.0291292,20.4918977 12.8417749,20.4890169 C14.6603177,20.4918977 16.3483854,20.9585884 17.5993247,21.8192294 C18.2259,22.24991 19.2984496,23.1696075 19.3043468,24.528628 C19.2829695,26.7958228 16.2975222,28.6028088 12.8240833,28.6078502 L12.8240833,28.6078502 Z M20.5022114,23.2265034 C20.160175,22.2635938 19.4495648,21.403673 18.4802159,20.7230825 C19.1163742,20.8390349 19.7834927,20.9009723 20.4712512,20.9009723 C21.1789128,20.9009723 21.8622485,20.8361541 22.5138869,20.7166006 C21.5474866,21.3979114 20.8376135,22.2585524 20.5022114,23.2265034 L20.5022114,23.2265034 Z M28.1007276,28.6078502 C26.2961906,28.6078502 24.6213915,28.1353979 23.3829838,27.2653943 C22.3089599,26.514224 21.6978647,25.5426719 21.6978647,24.528628 C21.7022875,23.1667267 22.7637799,22.2470292 23.3844581,21.8156284 C24.6243401,20.9593086 26.3072478,20.4918977 28.1191563,20.4890169 C29.9376991,20.4918977 31.6250297,20.9585884 32.8796547,21.8192294 C33.5054929,22.24991 34.5736196,23.1717681 34.5765682,24.528628 C34.5596138,26.7958228 31.5749037,28.6028088 28.1007276,28.6078502 L28.1007276,28.6078502 Z" id="Shape" fill="#FFFFFF" fill-rule="nonzero" mask="url(#mask-2)"></path>
        </g>
    </g>
</svg>