<?xml version="1.0" encoding="UTF-8"?>
<svg width="40px" height="40px" viewBox="0 0 40 40" version="1.1" xmlns="http://www.w3.org/2000/svg" xmlns:xlink="http://www.w3.org/1999/xlink">
    <!-- Generator: Sketch 55.2 (78181) - https://sketchapp.com -->
    <title>Elements/Carrier Logo/Small / Stillwater</title>
    <desc>Created with Sketch.</desc>
    <g id="Elements/Carrier-Logo/Small-/-Stillwater" stroke="none" stroke-width="1" fill="none" fill-rule="evenodd">
        <circle id="Mask" fill="#00A1E3" fill-rule="nonzero" cx="20" cy="20" r="20"></circle>
        <g id="Group-32" transform="translate(11.000000, 8.000000)" fill="#FFFFFF">
            <path d="M0.642382688,24 C0.882775607,23.7973984 1.04483799,23.6557398 1.12856983,23.5750244 C4.36635754,20.4516098 7.2377095,17.054439 9.432,13.1494634 C9.55096089,12.9378537 9.64659218,12.7139512 9.75298324,12.4957073 C10.1580445,11.6955751 10.5024615,10.8833073 10.8637542,10.0482927 C11.0587813,9.51218539 11.2787598,8.97853659 11.3973184,8.41629268 C11.6311173,7.72 11.7477697,6.60856181 11.7766559,6.20770678 C11.805542,5.80685174 11.8373631,5.3067627 11.8373631,4.99717073 C12.4185922,5.68087805 12.6511844,6.508 12.8620559,7.34370732 C12.9017765,7.50097561 12.9332514,7.66029268 12.9685475,7.81853659 C13.0187829,8.41629268 13.0187829,9.07209954 13.0284365,9.68673369 C13.0380902,10.3013678 13.0303076,10.6579977 12.9685475,11.0777781 C12.9195533,11.3977975 12.8210105,11.815554 12.6729191,12.3310475 C12.5074015,12.8766581 12.3739664,13.2700587 12.2726138,13.5112494 C11.9575903,14.318292 11.5054489,15.0612685 11.1191899,15.7270396 C10.7329308,16.3928107 10.335193,17.0770071 9.98243996,17.6596194 C9.25928264,18.853997 8.90109747,19.4421721 7.9898349,20.667538 C7.38232652,21.4844486 6.46206498,22.5952692 5.22905028,24 L0.642382688,24 Z" id="Fill-1"></path>
            <path d="M11.7766559,6.27367805 C11.7686112,7.00762927 11.6311475,7.72001951 11.3971475,8.41601951 C11.0412704,8.20206829 10.6587453,8.04353171 10.2650581,7.91172683 C8.55787374,7.34040976 6.79216425,7.00997073 5.01468939,6.73884878 C3.35074525,6.48509268 1.68177318,6.26197073 3.01675977e-05,6.14636098 L3.01675977e-05,3.02440976 C2.47035419,3.29699512 4.91392961,3.70919024 7.31285698,4.35153171 C8.84386257,4.76148293 10.3563654,5.21387317 11.651762,6.15709268 L11.7766559,6.27367805 Z" id="Fill-3" fill-opacity="0.5"></path>
            <path d="M8.24581006,24 C9.44959777,22.465561 10.6022011,20.8979512 11.5418212,19.1934634 C12.424324,17.5926829 13.2070726,15.952878 13.5894972,14.1601951 C13.6396178,13.9222802 13.6909286,13.6958041 13.7275324,13.4757745 C13.8589359,12.6858931 13.8991975,12.5579665 13.9355471,12.0417469 C13.9718967,11.5255274 13.9688215,11.1378259 13.9667098,10.9684601 C13.9667098,10.8789359 13.9563222,10.759424 13.9355471,10.6099243 C14.0596852,10.8008366 14.1432402,10.9269919 14.1862123,10.9883902 C14.6747263,11.686439 14.9082235,12.4887805 15.178324,13.276 L15.1760112,13.2733659 C15.3110615,14.1601951 15.2860223,14.7670244 15.3110615,15.3318049 C15.2884358,15.6381463 15.281095,15.9462439 15.2409721,16.2502439 C14.9695642,18.3113171 14.2111508,20.2133659 13.2453855,22.0523902 C12.900067,22.7096585 12.5646405,23.3180505 12.1675978,24 L8.24581006,24 Z" id="Fill-5"></path>
            <path d="M10.8637743,10.0483024 C10.5889475,10.9047902 10.2122547,11.7178634 9.75300335,12.4956195 C6.53764022,11.8362049 3.26113743,11.7461561 2.01117318e-05,11.5122049 L2.01117318e-05,8.39025366 C1.6373162,8.55337561 3.27843352,8.6879122 4.91120447,8.88693659 C6.92277989,9.13220488 8.93566257,9.39113171 10.8637743,10.0483024" id="Fill-7" fill-opacity="0.5"></path>
            <path d="M11.805542,4.89880371 C11.774002,4.86693241 11.6091557,4.6793704 11.3110031,4.33611769 C10.8637743,3.82123862 10.3241564,3.60618537 9.49324022,3.22218537 C6.92165363,2.03379512 4.16926257,1.45077073 1.38630168,0.977112195 C0.926547486,0.898868293 0.462268156,0.845404878 0,0.780526829 C0,0.513229275 0,0.253066673 0,3.90243899e-05 C0.275510608,3.90243899e-05 0.543667032,3.90243899e-05 0.804469274,3.90243899e-05 L7.44134078,3.90243899e-05 C8.23017733,0.363090558 8.84705028,0.801014634 9.48378771,1.30140488 C10.5696201,2.15486829 11.1528018,3.09252257 11.4647288,3.65891867 C11.6726802,4.03651608 11.7862846,4.44981109 11.805542,4.89880371 Z" id="Fill-9" fill-opacity="0.5"></path>
            <g id="Group-13" transform="translate(14.681564, 15.390244)">
                <path d="M0,8.6097561 C0.306399979,7.87407492 0.530533207,7.27541463 0.822871508,6.53863415 C1.39486245,5.09704485 1.67369832,3.52019512 1.70818994,1.93756098 C1.71254749,1.73866667 1.71254749,1.38181092 1.70818994,0.866993749 C1.83735251,1.04265117 1.96838044,1.22383212 2.10127374,1.41053659 C2.3006137,1.69059329 2.54671262,2.1873179 2.68813408,2.6444878 C2.86258518,3.20843185 2.97359191,3.62755756 3.06020112,4.14655084 C3.22953451,5.16125697 3.24947983,6.2336258 3.06020112,7.27541463 C2.97935196,7.72029268 2.89719553,8.16497561 2.81564246,8.6097561 L0,8.6097561 Z" id="Fill-11"></path>
            </g>
            <path d="M13.9011587,10.510439 C13.5452182,10.075151 13.3645777,9.84097561 12.9972369,9.66253659 C12.9876838,9.04770732 12.9781307,8.43307317 12.9685777,7.81853659 C13.1240998,8.07823928 13.2638927,8.35026464 13.3892359,8.62743728 C13.4994657,8.87118945 13.6427603,9.16345672 13.7315103,9.41029036 C13.812271,9.66253659 13.9155734,9.93787585 13.9011587,10.510439 Z" id="Fill-14" fill-opacity="0.5"></path>
            <path d="M16.0684713,15.1978169 C16.1143964,15.3155348 16.1896974,15.5900188 16.2943743,16.0212688 C15.909067,15.6144652 15.5812961,15.3846569 15.3110615,15.3318439 C15.2860223,14.7669659 15.2032626,13.840878 15.178324,13.276 C15.2306519,13.3473053 15.3110615,13.4918671 15.3747151,13.6639415 C15.4475196,13.792039 15.9995838,15.02124 16.0684713,15.1978169 Z" id="Fill-16" fill-opacity="0.5"></path>
            <path d="M12.9355471,10.7249892 C13.368509,10.8776098 14.225306,11.5225893 14.2676764,12 C14.3100469,12.4774107 13.8420201,12.7141951 13.7299978,13.5145854 C13.7004335,13.726 13.7453832,13.9690244 13.5894168,14.1601463 C13.4281541,13.9211868 13.2182721,13.763613 12.9837308,13.64733 C12.7340283,13.5235302 12.4563753,13.4465319 12.1796849,13.3679512 C12.4057408,12.5529268 12.6317966,11.7379024 12.8579531,10.922878" id="Fill-28" fill-opacity="0.5"></path>
        </g>
    </g>
</svg>