<?xml version="1.0" encoding="UTF-8"?>
<svg width="40px" height="40px" viewBox="0 0 40 40" version="1.1" xmlns="http://www.w3.org/2000/svg" xmlns:xlink="http://www.w3.org/1999/xlink">
    <!-- Generator: Sketch 55.2 (78181) - https://sketchapp.com -->
    <title>Elements/Carrier Logo/Small / Universal</title>
    <desc>Created with Sketch.</desc>
    <defs>
        <polygon id="path-1" points="0 0.0238095238 31.8361379 0.0238095238 31.8361379 18.8058201 0 18.8058201"></polygon>
    </defs>
    <g id="Elements/Carrier-Logo/Small-/-Universal" stroke="none" stroke-width="1" fill="none" fill-rule="evenodd">
        <circle id="Mask" fill="#A90401" fill-rule="nonzero" cx="20" cy="20" r="20"></circle>
        <g id="logo" transform="translate(4.000000, 10.000000)">
            <g id="Group">
                <g id="Clipped">
                    <mask id="mask-2" fill="white">
                        <use xlink:href="#path-1"></use>
                    </mask>
                    <g id="a"></g>
                    <path d="M21.6424828,16.5502646 C21.6424828,16.5502646 23.0935172,16.3851852 24.4568276,17.0481481 C24.4568276,17.0481481 25.2,17.4740741 26.8126897,17.3142857 C28.0331034,17.1925926 29.5492414,16.6037037 30.6228966,15.3375661 C32.0551724,13.6497354 32.1125517,10.8645503 31.3484138,9.43915344 C30.5848276,8.01428571 28.4077241,5.77777778 28.1026207,4.96613757 C27.7969655,4.15502646 27.8350345,3.19047619 28.2554483,2.75185185 C28.6747586,2.31322751 29.8593103,2.35714286 30.2411034,2.31322751 C30.6228966,2.26984127 30.6228966,1.87460317 30.3172414,1.83068783 C30.0121379,1.78677249 29.9735172,1.45820106 29.9928276,1.08571429 C30.0121379,0.712698413 30.1075862,0.668783069 30.393931,0.427513228 C30.6802759,0.186243386 30.5655172,-0.120634921 30.1842759,0.0989417989 C29.801931,0.317989418 29.7064828,0.361904762 28.8088276,0.34021164 C27.9117241,0.317989418 26.3646897,1.47989418 25.792,2.86137566 C25.4664828,3.64444444 25.4223448,4.72539683 25.6507586,5.6984127 C25.9293793,6.88835979 27.0438621,8.37671958 27.0438621,8.37671958 C28.432,10.1068783 27.8449655,12.0100529 27.8449655,12.0100529 C27.6634483,12.3275132 27.4256552,12.5957672 27.1856552,12.6846561 C26.9670964,12.7607367 26.7288568,12.7675982 26.505931,12.7042328 C26.2135172,12.621164 26.0237241,12.3285714 26.0237241,12.3285714 C25.5354483,11.6164021 24.9324138,10.8650794 24.2157241,10.1973545 C21.9823448,8.11640212 21.6943448,6.8957672 21.6943448,6.8957672 C21.6943448,6.8957672 19.2628966,-0.12010582 11.3809655,1.91851852 C11.3809655,1.91851852 12.8342069,2.15238095 13.7555862,3.38412698 C13.7555862,3.38412698 8.50317241,0.572486772 5.04827586,0.726984127 C5.04827586,0.726984127 3.51448276,0.880952381 3.1177931,2.11851852 C2.72165517,3.35661376 2.08937931,4.17566138 2.08937931,4.17566138 C2.08937931,4.17566138 0.893241379,6.44338624 0.0689655172,9.46137566 C-0.755310345,12.4783069 6.14841379,17.1068783 6.14841379,17.1068783 C6.14841379,17.1068783 12.5903448,20.7486772 14.1782069,17.3677249 C14.1782069,17.3677249 13.5713103,15.9746032 13.9448276,14.757672 C13.9448276,14.757672 17.3693793,16.9396825 18.5765517,15.7169312 C18.5765517,15.7169312 20.6637241,16.789418 20.6637241,16.789418 C20.6637241,16.789418 22.105931,16.0269841 21.6424828,16.5502646 Z" id="Path" fill="#FFFFFF" fill-rule="nonzero" mask="url(#mask-2)"></path>
                </g>
            </g>
            <path d="M18,8.96807257 C18,8.96807257 17.4138634,8.70186194 17.2553895,8.49779804 C17.2553895,8.49779804 16.8309832,7.79748783 15.8280384,8.05813309 C14.826179,8.3197059 15.0139598,9.00795779 15.0139598,9.00795779 C15.0139598,9.00795779 15.1984843,10.1646291 16.6616548,9.98004401 C16.6616548,9.98004401 17.6537453,9.77041473 18,8.96714501" id="Shape" fill="#A90401" fill-rule="nonzero"></path>
            <path d="M21.2206099,17.4310592 C21.2206099,17.4310592 20.239322,16.6986447 20.376851,16.0160543 C20.5149109,15.3334639 21.1691029,15.2412893 21.1691029,15.2412893 C21.1691029,15.2412893 21.7794019,15.4941928 23,16 C24.5321057,17.0015385 25.2981585,17.5023077 25.2981585,17.5023077 C29.3411922,18.3483212 31.030303,17.5072901 31.030303,17.5072901 C31.030303,17.5072901 28.7108952,19.5869488 24.8606146,18.9133267 C22.6989138,18.5346634 21.2206099,17.4310592 21.2206099,17.4310592 Z" id="Path" fill="#FFFFFF" fill-rule="nonzero"></path>
        </g>
    </g>
</svg>