<?xml version="1.0" encoding="UTF-8"?>
<svg width="831px" height="156px" viewBox="0 0 831 156" version="1.1" xmlns="http://www.w3.org/2000/svg" xmlns:xlink="http://www.w3.org/1999/xlink">
    <!-- Generator: sketchtool 59.1 (101010) - https://sketch.com -->
    <title>61136EA8-F0D4-4FEF-B142-6607A30BCAB7</title>
    <desc>Created with sketchtool.</desc>
    <g id="Comps" stroke="none" stroke-width="1" fill="none" fill-rule="evenodd">
        <g id="KW-home" transform="translate(0.000000, -732.000000)">
            <g id="bg-images" transform="translate(-101.000000, -22.000000)">
                <g id="clouds" transform="translate(57.000000, 754.000000)">
                    <path d="M707.469531,147.425361 C707.99084,138.202556 715.128203,130.499833 724.242695,129.372056 C727.372148,128.984583 730.371074,129.364806 733.090527,130.336306 C733.077715,129.96575 733.0625,129.596 733.0625,129.222222 C733.0625,111.426694 747.403691,97 765.09375,97 C775.962754,97 785.560918,102.451194 791.351367,110.778222 C793.173945,110.201444 795.112637,109.888889 797.125,109.888889 C807.739355,109.888889 816.34375,118.544583 816.34375,129.222222 C816.34375,129.597611 816.330137,129.968972 816.309316,130.338722 C818.324082,129.618556 820.490195,129.222222 822.75,129.222222 C833.364355,129.222222 841.96875,137.877917 841.96875,148.555556 L867.59375,148.555556 C871.134805,148.555556 874,151.437833 874,155 L669,155 C669,151.437833 671.865195,148.555556 675.40625,148.555556 L707.4375,148.555556" id="Cloud-2" stroke="#C3C3C3" stroke-width="0.8" stroke-linecap="round" stroke-linejoin="round"></path>
                    <path d="M489.336094,36.5149167 C489.720082,29.8363333 494.977359,24.2585 501.690961,23.4418333 C503.99607,23.16125 506.205035,23.4365833 508.208145,24.1400833 C508.198707,23.87175 508.1875,23.604 508.1875,23.3333333 C508.1875,10.4469167 518.751012,0 531.78125,0 C539.787199,0 546.857066,3.94741667 551.122227,9.97733333 C552.464711,9.55966667 553.892723,9.33333333 555.375,9.33333333 C563.193379,9.33333333 569.53125,15.60125 569.53125,23.3333333 C569.53125,23.6051667 569.521223,23.8740833 569.505887,24.1418333 C570.989934,23.6203333 572.585461,23.3333333 574.25,23.3333333 C582.068379,23.3333333 588.40625,29.60125 588.40625,37.3333333 L607.28125,37.3333333 C609.889539,37.3333333 612,39.4205 612,42 L461,42 C461,39.4205 463.110461,37.3333333 465.71875,37.3333333 L489.3125,37.3333333" id="Cloud-2-Copy-5" fill="#EDEDED"></path>
                    <path d="M33.5904687,123.470139 C34.0456602,115.519444 40.2777969,108.879167 48.2363047,107.906944 C50.9688516,107.572917 53.5874258,107.900694 55.9619727,108.738194 C55.9507852,108.41875 55.9375,108.1 55.9375,107.777778 C55.9375,92.4368056 68.4598086,80 83.90625,80 C93.3967461,80 101.777582,84.6993056 106.833633,91.8777778 C108.425055,91.3805556 110.117863,91.1111111 111.875,91.1111111 C121.143145,91.1111111 128.65625,98.5729167 128.65625,107.777778 C128.65625,108.101389 128.644363,108.421528 128.626184,108.740278 C130.385418,108.119444 132.276805,107.777778 134.25,107.777778 C143.518145,107.777778 151.03125,115.239583 151.03125,124.444444 L173.40625,124.444444 C176.498195,124.444444 179,126.929167 179,130 L0,130 C0,126.929167 2.50180469,124.444444 5.59375,124.444444 L33.5625,124.444444" id="Cloud-2-Copy-2" stroke="#C3C3C3" stroke-linecap="round" stroke-linejoin="round"></path>
                </g>
            </g>
        </g>
    </g>
</svg>