<?xml version="1.0" encoding="UTF-8"?>
<svg width="545px" height="396px" viewBox="0 0 545 396" version="1.1" xmlns="http://www.w3.org/2000/svg" xmlns:xlink="http://www.w3.org/1999/xlink">
    <!-- Generator: Sketch 64 (93537) - https://sketch.com -->
    <title>hero-clouds</title>
    <desc>Created with Sketch.</desc>
    <g id="Reference-WFs" stroke="none" stroke-width="1" fill="none" fill-rule="evenodd">
        <g id="KW-home" transform="translate(-860.000000, -376.000000)" fill="#FFFFFF">
            <g id="hero-clouds" transform="translate(860.000000, 376.000000)">
                <path d="M20.6421875,212.429097 C20.9219141,206.863611 24.7517187,202.215417 29.6424219,201.534861 C31.3216406,201.301042 32.9308203,201.530486 34.3900391,202.116736 C34.3831641,201.893125 34.375,201.67 34.375,201.444444 C34.375,190.705764 42.0702734,182 51.5625,182 C57.3946484,182 62.5448828,185.289514 65.6519531,190.314444 C66.6299219,189.966389 67.6701953,189.777778 68.75,189.777778 C74.4455078,189.777778 79.0625,195.001042 79.0625,201.444444 C79.0625,201.670972 79.0551953,201.895069 79.0440234,202.118194 C80.1251172,201.683611 81.2874219,201.444444 82.5,201.444444 C88.1955078,201.444444 92.8125,206.667708 92.8125,213.111111 L106.5625,213.111111 C108.462578,213.111111 110,214.850417 110,217 L0,217 C0,214.850417 1.53742187,213.111111 3.4375,213.111111 L20.625,213.111111" id="Cloud-2-Copy-4"></path>
                <path d="M439.395312,390.514917 C439.725898,383.836333 444.252031,378.2585 450.031953,377.441833 C452.016484,377.16125 453.918242,377.436583 455.642773,378.140083 C455.634648,377.87175 455.625,377.604 455.625,377.333333 C455.625,364.446917 464.719414,354 475.9375,354 C482.830039,354 488.91668,357.947417 492.588672,363.977333 C493.744453,363.559667 494.973867,363.333333 496.25,363.333333 C502.981055,363.333333 508.4375,369.60125 508.4375,377.333333 C508.4375,377.605167 508.428867,377.874083 508.415664,378.141833 C509.69332,377.620333 511.066953,377.333333 512.5,377.333333 C519.231055,377.333333 524.6875,383.60125 524.6875,391.333333 L540.9375,391.333333 C543.183047,391.333333 545,393.4205 545,396 L415,396 C415,393.4205 416.816953,391.333333 419.0625,391.333333 L439.375,391.333333" id="Cloud-2-Copy-3"></path>
                <path d="M371.076719,25.2126806 C371.308129,20.6012778 374.476422,16.7499167 378.522367,16.1860278 C379.911539,15.9922917 381.24277,16.1824028 382.449941,16.6681528 C382.444254,16.482875 382.4375,16.298 382.4375,16.1111111 C382.4375,7.21334722 388.80359,0 396.65625,0 C401.481027,0 405.741676,2.72559722 408.31207,6.88911111 C409.121117,6.60072222 409.981707,6.44444444 410.875,6.44444444 C415.586738,6.44444444 419.40625,10.7722917 419.40625,16.1111111 C419.40625,16.2988056 419.400207,16.4844861 419.390965,16.6693611 C420.285324,16.3092778 421.246867,16.1111111 422.25,16.1111111 C426.961738,16.1111111 430.78125,20.4389583 430.78125,25.7777778 L442.15625,25.7777778 C443.728133,25.7777778 445,27.2189167 445,29 L354,29 C354,27.2189167 355.271867,25.7777778 356.84375,25.7777778 L371.0625,25.7777778" id="Cloud-2-Copy-7" opacity="0.400000006"></path>
                <path d="M305.395312,227.514917 C305.725898,220.836333 310.252031,215.2585 316.031953,214.441833 C318.016484,214.16125 319.918242,214.436583 321.642773,215.140083 C321.634648,214.87175 321.625,214.604 321.625,214.333333 C321.625,201.446917 330.719414,191 341.9375,191 C348.830039,191 354.91668,194.947417 358.588672,200.977333 C359.744453,200.559667 360.973867,200.333333 362.25,200.333333 C368.981055,200.333333 374.4375,206.60125 374.4375,214.333333 C374.4375,214.605167 374.428867,214.874083 374.415664,215.141833 C375.69332,214.620333 377.066953,214.333333 378.5,214.333333 C385.231055,214.333333 390.6875,220.60125 390.6875,228.333333 L406.9375,228.333333 C409.183047,228.333333 411,230.4205 411,233 L281,233 C281,230.4205 282.816953,228.333333 285.0625,228.333333 L305.375,228.333333" id="Cloud-2-Copy-6" opacity="0.200000003"></path>
            </g>
        </g>
    </g>
</svg>