<?xml version="1.0" encoding="UTF-8"?>
<svg width="416px" height="757px" viewBox="0 0 416 757" version="1.1" xmlns="http://www.w3.org/2000/svg" xmlns:xlink="http://www.w3.org/1999/xlink">
    <!-- Generator: sketchtool 59.1 (101010) - https://sketch.com -->
    <title>E5BA8388-4806-44BF-9A2C-1E27D71905C3</title>
    <desc>Created with sketchtool.</desc>
    <defs>
        <path d="M0,58.651907 C0,26.2593532 26.2667977,0 58.6607132,0 L273.871233,0 C306.268651,0 332.531946,26.2673632 332.531946,58.651907 L332.531946,614.710763 C332.531946,647.103317 306.265149,673.36267 273.871233,673.36267 L58.6607132,673.36267 C26.2632959,673.36267 0,647.095307 0,614.710763 L0,58.651907 Z" id="path-1"></path>
        <filter x="-18.0%" y="-8.9%" width="139.7%" height="119.6%" filterUnits="objectBoundingBox" id="filter-2">
            <feOffset dx="6" dy="6" in="SourceAlpha" result="shadowOffsetOuter1"></feOffset>
            <feGaussianBlur stdDeviation="21" in="shadowOffsetOuter1" result="shadowBlurOuter1"></feGaussianBlur>
            <feComposite in="shadowBlurOuter1" in2="SourceAlpha" operator="out" result="shadowBlurOuter1"></feComposite>
            <feColorMatrix values="0 0 0 0 0   0 0 0 0 0   0 0 0 0 0  0 0 0 0.15 0" type="matrix" in="shadowBlurOuter1"></feColorMatrix>
        </filter>
        <path d="M9.02450841,0.0647704907 L0.284141882,4.27743435 C0.110044715,4.36145894 0,4.5330491 0,4.720795 L0,4.720795 L0,6.04335235 C0,6.31969661 0.301666388,6.49932775 0.558105776,6.37576218 L0.558105776,6.37576218 L9.02450841,2.29499996 C9.16921951,2.22521308 9.33964342,2.22521308 9.48427799,2.29499996 L9.48427799,2.29499996 L17.9508337,6.37576218 C18.20712,6.49932775 18.5088629,6.31969661 18.5088629,6.04335235 L18.5088629,6.04335235 L18.5088629,4.720795 C18.5088629,4.5330491 18.3988182,4.36145894 18.2246445,4.27743435 L18.2246445,4.27743435 L9.48427799,0.0647704907 C9.4119607,0.0298770487 9.33321522,0.0123934425 9.2543932,0.0123934425 L9.2543932,0.0123934425 C9.17564771,0.0123934425 9.0968257,0.0298770487 9.02450841,0.0647704907" id="path-3"></path>
        <polygon id="path-5" points="0 0.0467040964 18.5088466 0.0467040964 18.5088466 13.3699874 0 13.3699874"></polygon>
        <polygon id="path-7" points="0.0565681854 0.0123934425 3.88383258 0.0123934425 3.88383258 6.26675921 0.0565681854 6.26675921"></polygon>
        <polygon id="path-9" points="0.0657513328 0.0123934425 0.50126208 0.0123934425 0.50126208 6.26677384 0.0657513328 6.26677384"></polygon>
        <polygon id="path-11" points="0.0348117796 0.0123934425 0.470246006 0.0123934425 0.470246006 6.26677384 0.0348117796 6.26677384"></polygon>
    </defs>
    <g id="Comps" stroke="none" stroke-width="1" fill="none" fill-rule="evenodd">
        <g id="KW-home" transform="translate(-829.000000, -161.000000)">
            <g id="Top-hero" transform="translate(181.000000, 196.000000)">
                <g id="phne" transform="translate(683.548200, 0.696000)">
                    <g id="phone">
                        <g id="Body-Shape">
                            <use fill="black" fill-opacity="1" filter="url(#filter-2)" xlink:href="#path-1"></use>
                            <path stroke="#FFFFFF" stroke-width="21" d="M10.5,58.651907 L10.5,614.710763 C10.5,641.298952 32.0649212,662.86267 58.6607132,662.86267 L273.871233,662.86267 C300.467818,662.86267 322.031946,641.302668 322.031946,614.710763 L322.031946,58.651907 C322.031946,32.0637178 300.467025,10.5 273.871233,10.5 L58.6607132,10.5 C32.0641284,10.5 10.5,32.0600021 10.5,58.651907 Z" stroke-linejoin="square" fill="#1D253C" fill-rule="evenodd"></path>
                        </g>
                        <text id="8-custom-quotes-for" font-family="Effra-Bold, Effra" font-size="20" font-weight="bold" letter-spacing="-0.434782609" fill="#FFFFFF">
                            <tspan x="51.4518" y="125.304">8 custom quotes for you</tspan>
                        </text>
                        <g id="global-/-icons-/-dog-circle" transform="translate(259.000000, 57.000000)">
                            <g id="dog">
                                <circle id="Oval" fill="#FFDF2A" cx="15.1090909" cy="15.1090909" r="14.7272727"></circle>
                                <g id="Scaleable-Doggo" transform="translate(4.309091, 7.745454)">
                                    <path d="M3.81182827,10.0829041 C3.81182827,11.9406869 5.4255973,13.4438861 7.42003181,13.4438861 C7.42003181,14.3719373 8.22781838,15.1243771 9.22413358,15.1243771 L12.8323371,15.1243771 C13.8286523,15.1243771 14.6364389,14.3719373 14.6364389,13.4438861 C16.6308734,13.4438861 18.2446424,11.9406869 18.2446424,10.0829041 L18.9338093,10.0829041 C20.5462253,10.0829041 21.852846,8.86580845 21.852846,7.36386961 C21.852846,6.94164624 21.747306,6.52530459 21.5443446,6.14803436 L21.4717295,6.01233471 C19.4944339,2.32743804 15.4509908,-4.20122735e-05 11.0282353,-4.20122735e-05 C6.60547986,-4.20122735e-05 2.56203676,2.32743804 0.584741224,6.01233471 L0.512126128,6.14803436 C0.309164679,6.52530459 0.203624725,6.94164624 0.203624725,7.36386961 C0.203624725,8.86580845 1.51024543,10.0829041 3.12266139,10.0829041 L3.81182827,10.0829041 Z" id="Fill-1" fill="#FFDF2A"></path>
                                    <g id="Nose" transform="translate(9.224134, 9.118439)">
                                        <polygon id="Fill-3" fill="#1D253C" points="0 0.0454466302 3.60820354 0.0454466302 1.80410177 1.72593764"></polygon>
                                        <polygon id="Stroke-5" stroke="#1D253C" stroke-width="1.280448" stroke-linecap="round" stroke-linejoin="round" points="0 0.0454466302 3.60820354 0.0454466302 1.80410177 1.72593764"></polygon>
                                    </g>
                                    <path d="M8.32208269,5.04143091 C8.82001478,5.04143091 9.22413358,5.41786089 9.22413358,5.88167641 C9.22413358,6.34549193 8.82001478,6.72192192 8.32208269,6.72192192 C7.8241506,6.72192192 7.42003181,6.34549193 7.42003181,5.88167641 C7.42003181,5.41786089 7.8241506,5.04143091 8.32208269,5.04143091 Z M13.734388,5.04143091 C14.2323201,5.04143091 14.6364389,5.41786089 14.6364389,5.88167641 C14.6364389,6.34549193 14.2323201,6.72192192 13.734388,6.72192192 C13.2364559,6.72192192 12.8323371,6.34549193 12.8323371,5.88167641 C12.8323371,5.41786089 13.2364559,5.04143091 13.734388,5.04143091 Z" id="Eyes" fill="#1D253C"></path>
                                    <line x1="17.3425921" y1="5.04143091" x2="18.244643" y2="10.0829039" id="Stroke-11" stroke="#1D253C" stroke-width="1.280448" stroke-linecap="round" stroke-linejoin="round"></line>
                                    <line x1="3.81182827" y1="10.0829039" x2="4.71387915" y2="5.04143091" id="Stroke-13" stroke="#1D253C" stroke-width="1.280448" stroke-linecap="round" stroke-linejoin="round"></line>
                                    <path d="M18.2446424,10.0829041 L18.9338093,10.0829041 C20.5462253,10.0829041 21.852846,8.86580845 21.852846,7.36386961 C21.852846,6.94164624 21.747306,6.52530459 21.5443446,6.14803436 L21.4717295,6.01233471 C19.4944339,2.32743804 15.4509908,-4.20122735e-05 11.0282353,-4.20122735e-05 C6.60547986,-4.20122735e-05 2.56203676,2.32743804 0.584741224,6.01233471 L0.512126128,6.14803436 C0.309164679,6.52530459 0.203624725,6.94164624 0.203624725,7.36386961 C0.203624725,8.86580845 1.51024543,10.0829041 3.12266139,10.0829041 L3.81182827,10.0829041" id="Stroke-15" stroke="#1D253C" stroke-width="1.280448" stroke-linecap="round" stroke-linejoin="round"></path>
                                    <path d="M3.81182827,10.0829045 C3.81182827,11.9406873 5.4255973,13.4438865 7.42003181,13.4438865 C9.41446632,13.4438865 11.0282353,11.9406873 11.0282353,10.0829045" id="Stroke-17" stroke="#1D253C" stroke-width="1.280448" stroke-linecap="round" stroke-linejoin="round"></path>
                                    <path d="M18.2446424,10.0829045 C18.2446424,11.9406873 16.6308734,13.4438865 14.6364389,13.4438865 C12.6420044,13.4438865 11.0282353,11.9406873 11.0282353,10.0829045" id="Stroke-19" stroke="#1D253C" stroke-width="1.280448" stroke-linecap="round" stroke-linejoin="round"></path>
                                    <path d="M14.6364389,13.4438855 L14.6364389,13.4438855 C14.6364389,14.3719366 13.8286523,15.1243765 12.8323371,15.1243765 L9.22413358,15.1243765 C8.22781838,15.1243765 7.42003181,14.3719366 7.42003181,13.4438855" id="Stroke-21" stroke="#1D253C" stroke-width="1.280448" stroke-linecap="round" stroke-linejoin="round"></path>
                                </g>
                            </g>
                        </g>
                        <text id="Type-somethingsfdj-s" font-family="Flow-Circular, Flow" font-size="10" font-weight="normal" letter-spacing="-0.217391304" fill="#6A6A6A">
                            <tspan x="53.4518" y="144.304">Type somethingsfdj sdkjsd sdjs skjds</tspan>
                            <tspan x="53.4518" y="156.304">sdkjs sdksjk s sdkjs</tspan>
                        </text>
                        <g id="global-/-logo-/-kc---white" transform="translate(50.000000, 64.000000)">
                            <g id="Group-39">
                                <g id="Group-3" transform="translate(0.000000, 0.061377)">
                                    <mask id="mask-4" fill="white">
                                        <use xlink:href="#path-3"></use>
                                    </mask>
                                    <g id="Clip-2"></g>
                                    <path d="M9.02450841,0.0647704907 L0.284141882,4.27743435 C0.110044715,4.36145894 0,4.5330491 0,4.720795 L0,4.720795 L0,6.04335235 C0,6.31969661 0.301666388,6.49932775 0.558105776,6.37576218 L0.558105776,6.37576218 L9.02450841,2.29499996 C9.16921951,2.22521308 9.33964342,2.22521308 9.48427799,2.29499996 L9.48427799,2.29499996 L17.9508337,6.37576218 C18.20712,6.49932775 18.5088629,6.31969661 18.5088629,6.04335235 L18.5088629,6.04335235 L18.5088629,4.720795 C18.5088629,4.5330491 18.3988182,4.36145894 18.2246445,4.27743435 L18.2246445,4.27743435 L9.48427799,0.0647704907 C9.4119607,0.0298770487 9.33321522,0.0123934425 9.2543932,0.0123934425 L9.2543932,0.0123934425 C9.17564771,0.0123934425 9.0968257,0.0298770487 9.02450841,0.0647704907" id="Fill-1" fill="#FFFFFF" mask="url(#mask-4)"></path>
                                </g>
                                <g id="Group-38" transform="translate(0.000000, 0.061377)">
                                    <g id="Group-6" transform="translate(0.000000, 4.426230)">
                                        <mask id="mask-6" fill="white">
                                            <use xlink:href="#path-5"></use>
                                        </mask>
                                        <g id="Clip-5"></g>
                                        <path d="M-1.53052447e-05,4.75514282 L-1.53052447e-05,6.07770025 C-1.53052447e-05,6.35397075 0.301651083,6.53367568 0.558013945,6.41018387 L1.94160814,5.74329859 C2.1124912,5.66089695 2.31360213,5.78070023 2.31360213,5.96490516 L2.31360213,13.1221923 C2.31360213,13.2590366 2.42869757,13.3699874 2.57065372,13.3699874 L4.37016796,13.3699874 C4.51212411,13.3699874 4.62721956,13.2590366 4.62721956,13.1221923 L4.62721956,4.75514282 C4.62721956,4.56739691 4.73726427,4.39573296 4.91143797,4.31185591 L9.02449311,2.32934763 C9.16920421,2.25956074 9.33962811,2.25956074 9.48433921,2.32934763 L13.5974709,4.31185591 C13.771568,4.39573296 13.8816128,4.56739691 13.8816128,4.75514282 L13.8816128,13.1221923 C13.8816128,13.2590366 13.9967082,13.3699874 14.1386644,13.3699874 L15.9381786,13.3699874 C16.0801347,13.3699874 16.1952302,13.2590366 16.1952302,13.1221923 L16.1952302,5.96490516 C16.1952302,5.78070023 16.3963411,5.66089695 16.5673007,5.74329859 L17.9508184,6.41018387 C18.2071812,6.53367568 18.5088476,6.35397075 18.5088476,6.07770025 L18.5088476,4.75514282 C18.5088476,4.56739691 18.3988029,4.39573296 18.2246292,4.31185591 L9.48433921,0.0990442625 C9.33962811,0.0292573744 9.16920421,0.0292573744 9.02449311,0.0990442625 L0.284203103,4.31185591 C0.11002941,4.39573296 -1.53052447e-05,4.56739691 -1.53052447e-05,4.75514282" id="Fill-4" fill="#FFFFFF" mask="url(#mask-6)"></path>
                                    </g>
                                    <path d="M8.35471984,17.7961724 L10.154234,17.7961724 C10.2961902,17.7961724 10.4112856,17.6852216 10.4112856,17.5483773 L10.4112856,13.8312297 C10.4112856,13.5575412 10.1810947,13.3356396 9.8971059,13.3356396 L8.61177143,13.3356396 C8.32785914,13.3356396 8.09766825,13.5575412 8.09766825,13.8312297 L8.09766825,17.5483773 C8.09766825,17.6852216 8.2127637,17.7961724 8.35471984,17.7961724" id="Fill-7" fill="#FFFFFF"></path>
                                    <g id="Group-11" transform="translate(25.100602, 0.000000)">
                                        <mask id="mask-8" fill="white">
                                            <use xlink:href="#path-7"></use>
                                        </mask>
                                        <g id="Clip-10"></g>
                                        <path d="M3.37390364,6.24831622 L1.59413316,4.13346382 L0.492078949,5.20439002 L0.492078949,6.21688999 C0.492078949,6.24440639 0.468968028,6.26675885 0.440347218,6.26675885 L0.108299915,6.26675885 C0.0797556325,6.26675885 0.0565681854,6.24440639 0.0565681854,6.21688999 L0.0565681854,0.0622180316 C0.0565681854,0.0347016389 0.0797556325,0.0123491805 0.108299915,0.0123491805 L0.440347218,0.0123491805 C0.468968028,0.0123491805 0.492078949,0.0347016389 0.492078949,0.0622180316 L0.492078949,4.69891463 L3.28528627,1.91245569 C3.2950051,1.90271798 3.30847371,1.89725897 3.32247801,1.89725897 L3.7545451,1.89725897 C3.80046083,1.89725897 3.82357176,1.95059503 3.79135421,1.98209503 L1.8962587,3.83358678 L3.87224244,6.18553754 C3.8995623,6.21814409 3.87553306,6.26675885 3.83198964,6.26675885 L3.41400338,6.26675885 C3.39846856,6.26675885 3.383699,6.25997196 3.37390364,6.24831622" id="Fill-9" fill="#FFFFFF" mask="url(#mask-8)"></path>
                                    </g>
                                    <g id="Group-14" transform="translate(34.742906, 0.000000)">
                                        <mask id="mask-10" fill="white">
                                            <use xlink:href="#path-9"></use>
                                        </mask>
                                        <g id="Clip-13"></g>
                                        <path d="M0.0657513328,6.21690475 L0.0657513328,0.062232786 C0.0657513328,0.0347163933 0.088938779,0.0123639349 0.117483061,0.0123639349 L0.449530352,0.0123639349 C0.478074634,0.0123639349 0.50126208,0.0347163933 0.50126208,0.062232786 L0.50126208,6.21690475 C0.50126208,6.24442114 0.478074634,6.2667736 0.449530352,6.2667736 L0.117483061,6.2667736 C0.088938779,6.2667736 0.0657513328,6.24442114 0.0657513328,6.21690475" id="Fill-12" fill="#FFFFFF" mask="url(#mask-10)"></path>
                                    </g>
                                    <g id="Group-17" transform="translate(36.809114, 0.000000)">
                                        <mask id="mask-12" fill="white">
                                            <use xlink:href="#path-11"></use>
                                        </mask>
                                        <g id="Clip-16"></g>
                                        <path d="M0.0348117796,6.21690475 L0.0348117796,0.062232786 C0.0348117796,0.0347163933 0.0579226999,0.0123639349 0.0864669822,0.0123639349 L0.418590803,0.0123639349 C0.447135086,0.0123639349 0.470246006,0.0347163933 0.470246006,0.062232786 L0.470246006,6.21690475 C0.470246006,6.24442114 0.447135086,6.2667736 0.418590803,6.2667736 L0.0864669822,6.2667736 C0.0579226999,6.2667736 0.0348117796,6.24442114 0.0348117796,6.21690475" id="Fill-15" fill="#FFFFFF" mask="url(#mask-12)"></path>
                                    </g>
                                    <path d="M42.2651059,3.87641796 C42.2028901,2.99390157 41.6785324,2.17991798 40.638694,2.17991798 C39.7410413,2.17991798 39.0477902,2.90818026 38.9678203,3.87641796 L42.2651059,3.87641796 Z M42.6296768,4.25338524 L41.0844592,4.25338524 L38.9678203,4.25338524 C39.0477902,5.34142624 39.8565959,5.97548363 40.7453715,5.97548363 C41.4265314,5.97548363 41.8985452,5.69316395 42.267019,5.32423772 C42.286074,5.30520493 42.316761,5.30380329 42.3373466,5.3212869 L42.5622572,5.51257379 C42.5843732,5.53138526 42.5859803,5.56465576 42.5656243,5.58523772 C42.1115177,6.04497543 41.5752984,6.3695656 40.7275409,6.3695656 C39.5366398,6.3695656 38.5056784,5.45281969 38.5056784,4.09057376 L38.5056784,4.07345901 C38.5056784,2.80534423 39.4299622,1.7943934 40.656448,1.7943934 C41.9273956,1.7943934 42.7361247,2.78822948 42.7361247,4.08201639 L42.7361247,4.09920491 C42.7361247,4.09920491 42.7481394,4.25338524 42.6296768,4.25338524 L42.6296768,4.25338524 Z" id="Fill-18" fill="#FFFFFF"></path>
                                    <path d="M33.1779156,3.87641796 C33.1156998,2.99390157 32.5913421,2.17991798 31.5515037,2.17991798 C30.653851,2.17991798 29.9605999,2.90818026 29.88063,3.87641796 L33.1779156,3.87641796 Z M33.5424864,4.25338524 L31.9972689,4.25338524 L29.88063,4.25338524 C29.9605999,5.34142624 30.7694056,5.97548363 31.6581812,5.97548363 C32.3393411,5.97548363 32.8114314,5.69316395 33.1798287,5.32423772 C33.1988837,5.30520493 33.2295707,5.30380329 33.2501563,5.3212869 L33.4750668,5.51257379 C33.4971829,5.53138526 33.49879,5.56465576 33.478434,5.58523772 C33.0243274,6.04497543 32.4881081,6.3695656 31.6403506,6.3695656 C30.4494494,6.3695656 29.4184881,5.45281969 29.4184881,4.09057376 L29.4184881,4.07345901 C29.4184881,2.80534423 30.3427719,1.7943934 31.5692577,1.7943934 C32.8402053,1.7943934 33.6489344,2.78822948 33.6489344,4.08201639 L33.6489344,4.09920491 C33.6489344,4.09920491 33.660949,4.25338524 33.5424864,4.25338524 L33.5424864,4.25338524 Z" id="Fill-20" fill="#FFFFFF"></path>
                                    <path d="M46.2287345,2.29132625 C45.1800192,2.29132625 44.2646125,3.05381807 44.2646125,4.47611319 L44.2646125,6.21687553 C44.2646125,6.24439192 44.241425,6.26674438 44.2128807,6.26674438 L43.8808334,6.26674438 C43.8522892,6.26674438 43.8291017,6.24439192 43.8291017,6.21687553 L43.8291017,1.94703935 C43.8291017,1.91952296 43.8522892,1.89724427 43.8808334,1.89724427 L44.2128807,1.89724427 C44.241425,1.89724427 44.2646125,1.91952296 44.2646125,1.94703935 L44.2646125,3.13953938 C44.6131894,2.37505576 45.3463106,1.81646558 46.2209289,1.82738361 C46.2495497,1.8276787 46.2731963,1.85113771 46.2731963,1.87865411 L46.2731963,2.29132625 L46.2287345,2.29132625 Z" id="Fill-22" fill="#FFFFFF"></path>
                                    <path d="M29.4690086,17.9262002 C26.8221196,17.9262002 24.8664155,15.9271674 24.8664155,13.473192 C24.8664155,11.0191428 26.8221196,8.97134775 29.4858444,8.97134775 C31.0447601,8.97134775 32.0559776,9.48552808 32.8525391,10.2568723 C32.9622777,10.3631019 32.9608237,10.5359461 32.8552175,10.6459379 L31.9867214,11.5500691 C31.8765236,11.664856 31.6887283,11.6737822 31.5717197,11.5654133 C31.0061909,11.0418641 30.3845684,10.69411 29.4690086,10.69411 C27.9853948,10.69411 26.9064515,11.9292494 26.9064515,13.4406592 C26.9064515,14.9846019 28.0022305,16.2197412 29.5701763,16.2197412 C30.4341574,16.2197412 31.0937369,15.8650527 31.6836775,15.3327986 C31.7967833,15.2307002 31.975319,15.2379297 32.0856698,15.3428314 L32.9066431,16.123397 C33.0201315,16.2312494 33.0261771,16.4091838 32.9153671,16.519692 C32.0795477,17.3538888 31.0783551,17.9262002 29.4690086,17.9262002" id="Fill-24" fill="#FFFFFF"></path>
                                    <path d="M38.6231228,10.6941028 C36.9877573,10.6941028 35.9424856,11.9292421 35.9424856,13.4406519 C35.9424856,14.9683651 37.0720892,16.2197339 38.6567944,16.2197339 C40.3089956,16.2197339 41.3542674,14.9845946 41.3542674,13.4731847 C41.3542674,11.9454716 40.2247403,10.6941028 38.6231228,10.6941028 M38.6231227,17.9261929 C35.9088141,17.9261929 33.902526,15.9272339 33.902526,13.4731847 C33.902526,11.002906 35.9256498,8.97134043 38.6567942,8.97134043 C41.3880152,8.97134043 43.3942266,10.9703732 43.3942266,13.4406519 C43.3942266,15.8947011 41.3711794,17.9261929 38.6231227,17.9261929" id="Fill-26" fill="#FFFFFF"></path>
                                    <path d="M50.9833026,9.15010802 L52.4822218,9.15010802 C52.6909854,9.15010802 52.8334007,9.35400967 52.7548082,9.54050148 L49.3522992,17.6192558 C49.3072252,17.726223 49.1993232,17.7962312 49.0795597,17.7962312 L47.6378056,17.7962312 C47.5182716,17.7962312 47.4105227,17.7264443 47.3653722,17.6196984 L43.9470222,9.5409441 C43.8680472,9.35437852 44.0103859,9.15010802 44.2194556,9.15010802 L45.7676577,9.15010802 C45.891171,9.15010802 46.0015218,9.22454245 46.0439939,9.33630475 L48.3672536,15.4559361 L50.7072725,9.33571459 C50.7498211,9.22424737 50.8600954,9.15010802 50.9833026,9.15010802" id="Fill-28" fill="#FFFFFF"></path>
                                    <path d="M59.9154278,12.839356 C59.7805121,11.5716839 59.0050719,10.580356 57.6562972,10.580356 C56.4087667,10.580356 55.5320822,11.5066921 55.3465827,12.839356 L59.9154278,12.839356 Z M57.9260523,16.3173396 C58.8292148,16.3173396 59.4961409,16.0224789 60.1411804,15.4694215 C60.2545158,15.3724133 60.4234857,15.3674707 60.536821,15.4644051 L61.3138684,16.1290773 C61.435392,16.2330199 61.4501616,16.4156019 61.3393516,16.5300937 C60.5143989,17.383692 59.4053808,17.9262002 57.8923042,17.9262002 C55.3128346,17.9262002 53.3234588,16.1222904 53.3234588,13.4568887 C53.3234588,10.98661 55.1274881,8.97134775 57.6731331,8.97134775 C60.5055218,8.97134775 61.938552,11.1165937 61.938552,13.6031756 C61.938552,13.6957576 61.9340369,13.7839871 61.9273026,13.8745773 C61.9162828,14.0233724 61.7877188,14.1394871 61.6329827,14.1394871 L55.363495,14.1394871 C55.5995019,15.5371429 56.6110256,16.3173396 57.9260523,16.3173396 L57.9260523,16.3173396 Z" id="Fill-30" fill="#FFFFFF"></path>
                                    <path d="M68.7320042,11.0678535 C66.9448872,11.0678535 65.6973566,12.1892387 65.6973566,14.464542 L65.6973566,17.4475257 C65.6973566,17.6042142 65.5655784,17.7311732 65.4030367,17.7311732 L63.9516403,17.7311732 C63.7890986,17.7311732 63.6573204,17.6042142 63.6573204,17.4475257 L63.6573204,9.43383709 C63.6573204,9.27714856 63.7890986,9.15011578 63.9516403,9.15011578 L65.4030367,9.15011578 C65.5655784,9.15011578 65.6973566,9.27714856 65.6973566,9.43383709 L65.6973566,11.0841568 C66.2152861,9.88885349 67.1424014,9.04573053 68.5329594,8.98745184 C68.7040721,8.9802961 68.8500076,9.10622233 68.8500076,9.27124692 L68.8500076,10.9434764 C68.8500076,10.9434764 68.8663077,11.0678535 68.7320042,11.0678535" id="Fill-32" fill="#FFFFFF"></path>
                                    <path d="M76.4749091,12.839356 C76.3399933,11.5716839 75.5645531,10.580356 74.2157784,10.580356 C72.9682479,10.580356 72.0915634,11.5066921 71.9061404,12.839356 L76.4749091,12.839356 Z M74.4855332,16.3173396 C75.3886957,16.3173396 76.0556217,16.0224789 76.7006612,15.4694215 C76.8139966,15.3724133 76.9829665,15.3674707 77.0963018,15.4644051 L77.8733491,16.1290773 C77.9948727,16.2330199 78.0097188,16.4156019 77.8989088,16.5300937 C77.0738796,17.383692 75.9649381,17.9262002 74.4517851,17.9262002 C71.8723157,17.9262002 69.8830165,16.1222904 69.8830165,13.4568887 C69.8830165,10.98661 71.6869692,8.97134775 74.232614,8.97134775 C77.0650026,8.97134775 78.4979561,11.1165937 78.4979561,13.6031756 C78.4979561,13.6957576 78.4935176,13.7839871 78.4867833,13.8745773 C78.4757635,14.0233724 78.347276,14.1394871 78.19254,14.1394871 L71.9229761,14.1394871 C72.1589829,15.5371429 73.1705066,16.3173396 74.4855332,16.3173396 L74.4855332,16.3173396 Z" id="Fill-34" fill="#FFFFFF"></path>
                                    <path d="M84.381092,10.6778211 C82.98181,10.6778211 81.8185348,11.717985 81.8185348,13.4406735 C81.8185348,15.1308293 82.9986458,16.203526 84.381092,16.203526 C85.7467026,16.203526 86.960485,15.1146735 86.960485,13.4406735 C86.960485,11.7667473 85.7467026,10.6778211 84.381092,10.6778211 M86.9268135,17.4475918 L86.9268135,16.3010508 C86.2693002,17.1949279 85.3421084,17.9099853 83.892166,17.9099853 C81.8016225,17.9099853 79.7616629,16.3010508 79.7616629,13.4406737 C79.7616629,10.5803704 81.767951,8.97136221 83.892166,8.97136221 C85.3588677,8.97136221 86.2862125,9.68649336 86.9268135,10.4827721 L86.9268135,6.15089495 C86.9268135,5.99420643 87.0585152,5.86724741 87.2210569,5.86724741 L88.6724533,5.86724741 C88.834995,5.86724741 88.9667732,5.99420643 88.9667732,6.15089495 L88.9667732,17.4475918 C88.9667732,17.6042066 88.834995,17.7311656 88.6724533,17.7311656 L87.2210569,17.7311656 C87.0585152,17.7311656 86.9268135,17.6042066 86.9268135,17.4475918" id="Fill-36" fill="#FFFFFF"></path>
                                </g>
                            </g>
                        </g>
                    </g>
                </g>
            </g>
        </g>
    </g>
</svg>