<?xml version="1.0" encoding="UTF-8"?>
<svg width="375px" height="453px" viewBox="0 0 375 453" version="1.1" xmlns="http://www.w3.org/2000/svg" xmlns:xlink="http://www.w3.org/1999/xlink">
    <!-- Generator: sketchtool 59.1 (101010) - https://sketch.com -->
    <title>51F146F1-6B6C-41B8-93D1-11B463CD2C76</title>
    <desc>Created with sketchtool.</desc>
    <g id="Comps" stroke="none" stroke-width="1" fill="none" fill-rule="evenodd">
        <g id="KW-home-mobile" transform="translate(0.000000, -413.000000)">
            <g id="bg-images" transform="translate(-185.000000, 413.000000)">
                <g id="clouds" transform="translate(92.000000, 0.000000)">
                    <path d="M23.4817187,345.255217 C23.7945039,339.721533 28.0769219,335.0999 33.5456172,334.423233 C35.4232891,334.19075 37.2226445,334.418883 38.8543164,335.001783 C38.8466289,334.77945 38.8375,334.5576 38.8375,334.333333 C38.8375,323.656017 47.4422148,315 58.05625,315 C64.5776523,315 70.3365508,318.270717 73.8108203,323.266933 C74.9043672,322.920867 76.067582,322.733333 77.275,322.733333 C83.6436133,322.733333 88.80625,327.92675 88.80625,334.333333 C88.80625,334.558567 88.798082,334.781383 88.7855898,335.003233 C89.9944492,334.571133 91.2941172,334.333333 92.65,334.333333 C99.0186133,334.333333 104.18125,339.52675 104.18125,345.933333 L119.55625,345.933333 C121.680883,345.933333 123.4,347.6627 123.4,349.8 L0.4,349.8 C0.4,347.6627 2.11911719,345.933333 4.24375,345.933333 L23.4625,345.933333" id="Cloud-2" stroke="#C3C3C3" stroke-width="0.5" stroke-linecap="round" stroke-linejoin="round"></path>
                    <path d="M413.154281,299.082083 C413.427396,294.311667 417.166678,290.3275 421.941783,289.744167 C423.581311,289.54375 425.152455,289.740417 426.577184,290.242917 C426.570471,290.05125 426.5625,289.86 426.5625,289.666667 C426.5625,280.462083 434.075885,273 443.34375,273 C449.038048,273 454.066549,275.819583 457.10018,280.126667 C458.055033,279.828333 459.070718,279.666667 460.125,279.666667 C465.685887,279.666667 470.19375,284.14375 470.19375,289.666667 C470.19375,289.860833 470.186618,290.052917 470.17571,290.244167 C471.231251,289.871667 472.366083,289.666667 473.55,289.666667 C479.110887,289.666667 483.61875,294.14375 483.61875,299.666667 L497.04375,299.666667 C498.898917,299.666667 500.4,301.1575 500.4,303 L393,303 C393,301.1575 394.501083,299.666667 396.35625,299.666667 L413.1375,299.666667" id="Cloud-2-Copy-3" fill="#FFFFFF"></path>
                    <path d="M413.474219,18.2574583 C413.664941,14.9181667 416.276172,12.12925 419.610742,11.7209167 C420.755664,11.580625 421.852832,11.7182917 422.847754,12.0700417 C422.843066,11.935875 422.8375,11.802 422.8375,11.6666667 C422.8375,5.22345833 428.084277,0 434.55625,0 C438.532715,0 442.044238,1.97370833 444.162695,4.98866667 C444.829492,4.77983333 445.53877,4.66666667 446.275,4.66666667 C450.158301,4.66666667 453.30625,7.800625 453.30625,11.6666667 C453.30625,11.8025833 453.30127,11.9370417 453.293652,12.0709167 C454.030762,11.8101667 454.823242,11.6666667 455.65,11.6666667 C459.533301,11.6666667 462.68125,14.800625 462.68125,18.6666667 L472.05625,18.6666667 C473.351758,18.6666667 474.4,19.71025 474.4,21 L399.4,21 C399.4,19.71025 400.448242,18.6666667 401.74375,18.6666667 L413.4625,18.6666667" id="Cloud-2-Copy-7" fill="#FFFFFF" opacity="0.400000006"></path>
                    <path d="M359.554281,164.082083 C359.827396,159.311667 363.566678,155.3275 368.341783,154.744167 C369.981311,154.54375 371.552455,154.740417 372.977184,155.242917 C372.970471,155.05125 372.9625,154.86 372.9625,154.666667 C372.9625,145.462083 380.475885,138 389.74375,138 C395.438048,138 400.466549,140.819583 403.50018,145.126667 C404.455033,144.828333 405.470718,144.666667 406.525,144.666667 C412.085887,144.666667 416.59375,149.14375 416.59375,154.666667 C416.59375,154.860833 416.586618,155.052917 416.57571,155.244167 C417.631251,154.871667 418.766083,154.666667 419.95,154.666667 C425.510887,154.666667 430.01875,159.14375 430.01875,164.666667 L443.44375,164.666667 C445.298917,164.666667 446.8,166.1575 446.8,168 L339.4,168 C339.4,166.1575 340.901083,164.666667 342.75625,164.666667 L359.5375,164.666667" id="Cloud-2-Copy-6" fill="#FFFFFF" opacity="0.200000003"></path>
                    <path d="M110.001656,146.90895 C110.232049,142.9018 113.386416,139.5551 117.414577,139.0651 C118.797642,138.89675 120.123021,139.06195 121.324887,139.48405 C121.319224,139.32305 121.3125,139.1624 121.3125,139 C121.3125,131.26815 127.650607,125 135.46875,125 C140.27232,125 144.51424,127.36845 147.073336,130.9864 C147.878827,130.7358 148.735634,130.6 149.625,130.6 C154.316027,130.6 158.11875,134.36075 158.11875,139 C158.11875,139.1631 158.112734,139.32445 158.103532,139.4851 C158.99396,139.1722 159.951277,139 160.95,139 C165.641027,139 169.44375,142.76075 169.44375,147.4 L180.76875,147.4 C182.333723,147.4 183.6,148.6523 183.6,150.2 L93,150.2 C93,148.6523 94.2662766,147.4 95.83125,147.4 L109.9875,147.4" id="Cloud-2-Copy-5" fill="#EDEDED"></path>
                    <path d="M142.047531,449.64925 C142.21079,446.787 144.446003,444.3965 147.300395,444.0465 C148.280448,443.92625 149.219624,444.04425 150.071277,444.34575 C150.067265,444.23075 150.0625,444.116 150.0625,444 C150.0625,438.47725 154.553741,434 160.09375,434 C163.497604,434 166.503468,435.69175 168.316867,438.276 C168.887645,438.097 169.494787,438 170.125,438 C173.449105,438 176.14375,440.68625 176.14375,444 C176.14375,444.1165 176.139487,444.23175 176.132966,444.3465 C176.763932,444.123 177.442295,444 178.15,444 C181.474105,444 184.16875,446.68625 184.16875,450 L192.19375,450 C193.302705,450 194.2,450.8945 194.2,452 L130,452 C130,450.8945 130.897295,450 132.00625,450 L142.0375,450" id="Cloud-2-Copy-2" stroke="#C3C3C3" stroke-width="0.5" stroke-linecap="round" stroke-linejoin="round"></path>
                </g>
            </g>
        </g>
    </g>
</svg>