<?xml version="1.0" encoding="UTF-8"?>
<svg width="119px" height="110px" viewBox="0 0 119 110" version="1.1" xmlns="http://www.w3.org/2000/svg" xmlns:xlink="http://www.w3.org/1999/xlink">
    <!-- Generator: Sketch 64 (93537) - https://sketch.com -->
    <title>Group 243</title>
    <desc>Created with Sketch.</desc>
    <defs>
        <polygon id="path-1" points="0 109 118.189 109 118.189 0.9 0 0.9"></polygon>
    </defs>
    <g id="E&amp;O-Landing-Page" stroke="none" stroke-width="1" fill="none" fill-rule="evenodd">
        <g id="E&amp;O_Landing_Desktop_01" transform="translate(-385.000000, -1715.000000)">
            <g id="Group-6" transform="translate(314.000000, 1610.000000)">
                <g id="Group-243" transform="translate(71.000000, 105.000000)">
                    <g id="Group-4" transform="translate(0.000000, 1.100000)" stroke="#7A7A7A" stroke-linejoin="round" stroke-width="0.75">
                        <polygon id="Stroke-1" points="0.375 107.625 14.08 107.625 14.08 65.657 0.375 65.657"></polygon>
                        <polygon id="Stroke-3" points="73.1202 107.6247 55.2282 107.6247 37.3362 107.6247 37.3362 0.2747 55.2282 0.2747 73.1202 13.4567"></polygon>
                    </g>
                    <polygon id="Fill-5" fill="#FEFEFE" points="14.08 108.725 49.864 108.725 49.864 26.769 14.08 26.769"></polygon>
                    <polygon id="Stroke-6" stroke="#7A7A7A" stroke-width="0.75" stroke-linejoin="round" points="14.08 108.725 49.864 108.725 49.864 26.769 14.08 26.769"></polygon>
                    <polygon id="Fill-8" fill="#E5E5E5" points="46.7599 37.5285 17.1839 37.5285 17.1839 33.4145 31.9719 33.4145 46.7599 33.4145"></polygon>
                    <polygon id="Stroke-9" stroke="#7A7A7A" stroke-width="0.75" stroke-linejoin="round" points="46.7599 37.5285 17.1839 37.5285 17.1839 33.4145 31.9719 33.4145 46.7599 33.4145"></polygon>
                    <polygon id="Fill-10" fill="#E5E5E5" points="31.9718 37.528 17.1838 37.528 17.1838 33.414 24.5778 33.414 31.9718 33.414"></polygon>
                    <polygon id="Stroke-11" stroke="#7A7A7A" stroke-width="0.75" stroke-linejoin="round" points="31.9718 37.528 17.1838 37.528 17.1838 33.414 24.5778 33.414 31.9718 33.414"></polygon>
                    <polygon id="Fill-12" fill="#E5E5E5" points="24.5778 37.528 17.1838 37.528 17.1838 33.414 20.8808 33.414 24.5778 33.414"></polygon>
                    <polygon id="Stroke-13" stroke="#7A7A7A" stroke-width="0.75" stroke-linejoin="round" points="24.5778 37.528 17.1838 37.528 17.1838 33.414 20.8808 33.414 24.5778 33.414"></polygon>
                    <g id="Group-16" transform="translate(31.000000, 33.100000)">
                        <polyline id="Fill-14" fill="#E5E5E5" points="4.6686 0.3142 8.3656 0.3142 8.3656 4.4282 0.9716 4.4282"></polyline>
                        <polyline id="Stroke-15" stroke="#7A7A7A" stroke-width="0.75" stroke-linejoin="round" points="4.6686 0.3142 8.3656 0.3142 8.3656 4.4282 0.9716 4.4282"></polyline>
                    </g>
                    <polygon id="Fill-17" fill="#E5E5E5" points="60.9083 24.7223 58.4823 24.7223 58.4823 9.6543 59.6953 9.6543 60.9083 9.6543"></polygon>
                    <polygon id="Stroke-18" stroke="#7A7A7A" stroke-width="0.75" stroke-linejoin="round" points="60.9083 24.7223 58.4823 24.7223 58.4823 9.6543 59.6953 9.6543 60.9083 9.6543"></polygon>
                    <polygon id="Fill-19" fill="#E5E5E5" points="52.0773 24.7218 49.6503 24.7218 49.6503 3.9538 50.8643 3.9538 52.0773 3.9538"></polygon>
                    <polygon id="Stroke-20" stroke="#7A7A7A" stroke-width="0.75" stroke-linejoin="round" points="52.0773 24.7218 49.6503 24.7218 49.6503 3.9538 50.8643 3.9538 52.0773 3.9538"></polygon>
                    <polygon id="Fill-21" fill="#E5E5E5" points="47.2076 24.7218 44.7806 24.7218 44.7806 3.9538 45.9946 3.9538 47.2076 3.9538"></polygon>
                    <polygon id="Stroke-22" stroke="#7A7A7A" stroke-width="0.75" stroke-linejoin="round" points="47.2076 24.7218 44.7806 24.7218 44.7806 3.9538 45.9946 3.9538 47.2076 3.9538"></polygon>
                    <polygon id="Fill-23" fill="#E5E5E5" points="42.338 24.7218 39.912 24.7218 39.912 3.9538 41.125 3.9538 42.338 3.9538"></polygon>
                    <polygon id="Stroke-24" stroke="#7A7A7A" stroke-width="0.75" stroke-linejoin="round" points="42.338 24.7218 39.912 24.7218 39.912 3.9538 41.125 3.9538 42.338 3.9538"></polygon>
                    <polygon id="Fill-25" fill="#E5E5E5" points="65.4113 24.7223 62.9853 24.7223 62.9853 13.0423 64.1983 13.0423 65.4113 13.0423"></polygon>
                    <polygon id="Stroke-26" stroke="#7A7A7A" stroke-width="0.75" stroke-linejoin="round" points="65.4113 24.7223 62.9853 24.7223 62.9853 13.0423 64.1983 13.0423 65.4113 13.0423"></polygon>
                    <polygon id="Fill-27" fill="#E5E5E5" points="69.9142 24.7223 67.4882 24.7223 67.4882 16.0243 68.7012 16.0243 69.9142 16.0243"></polygon>
                    <polygon id="Stroke-28" stroke="#7A7A7A" stroke-width="0.75" stroke-linejoin="round" points="69.9142 24.7223 67.4882 24.7223 67.4882 16.0243 68.7012 16.0243 69.9142 16.0243"></polygon>
                    <polygon id="Fill-29" fill="#E5E5E5" points="69.9142 31.0929 67.4872 31.0929 67.4872 28.6549 68.7012 28.6549 69.9142 28.6549"></polygon>
                    <polygon id="Stroke-30" stroke="#7A7A7A" stroke-width="0.75" stroke-linejoin="round" points="69.9142 31.0929 67.4872 31.0929 67.4872 28.6549 68.7012 28.6549 69.9142 28.6549"></polygon>
                    <polygon id="Fill-31" fill="#E5E5E5" points="65.4113 31.0929 62.9853 31.0929 62.9853 28.6549 64.1983 28.6549 65.4113 28.6549"></polygon>
                    <polygon id="Stroke-32" stroke="#7A7A7A" stroke-width="0.75" stroke-linejoin="round" points="65.4113 31.0929 62.9853 31.0929 62.9853 28.6549 64.1983 28.6549 65.4113 28.6549"></polygon>
                    <polygon id="Fill-33" fill="#E5E5E5" points="70.3116 31.0939 58.4816 31.0939 58.4816 28.6559 64.3966 28.6559 70.3116 28.6559"></polygon>
                    <polygon id="Stroke-34" stroke="#7A7A7A" stroke-width="0.75" stroke-linejoin="round" points="70.3116 31.0939 58.4816 31.0939 58.4816 28.6559 64.3966 28.6559 70.3116 28.6559"></polygon>
                    <polygon id="Fill-35" fill="#E5E5E5" points="70.3116 36.6901 58.4816 36.6901 58.4816 34.2521 64.3966 34.2521 70.3116 34.2521"></polygon>
                    <polygon id="Stroke-36" stroke="#7A7A7A" stroke-width="0.75" stroke-linejoin="round" points="70.3116 36.6901 58.4816 36.6901 58.4816 34.2521 64.3966 34.2521 70.3116 34.2521"></polygon>
                    <polygon id="Fill-37" fill="#E5E5E5" points="70.3116 42.2858 58.4816 42.2858 58.4816 39.8478 64.3966 39.8478 70.3116 39.8478"></polygon>
                    <polygon id="Stroke-38" stroke="#7A7A7A" stroke-width="0.75" stroke-linejoin="round" points="70.3116 42.2858 58.4816 42.2858 58.4816 39.8478 64.3966 39.8478 70.3116 39.8478"></polygon>
                    <polygon id="Fill-39" fill="#E5E5E5" points="70.3116 47.8815 58.4816 47.8815 58.4816 45.4435 64.3966 45.4435 70.3116 45.4435"></polygon>
                    <polygon id="Stroke-40" stroke="#7A7A7A" stroke-width="0.75" stroke-linejoin="round" points="70.3116 47.8815 58.4816 47.8815 58.4816 45.4435 64.3966 45.4435 70.3116 45.4435"></polygon>
                    <polygon id="Fill-41" fill="#E5E5E5" points="70.3116 53.4777 58.4816 53.4777 58.4816 51.0397 64.3966 51.0397 70.3116 51.0397"></polygon>
                    <polygon id="Stroke-42" stroke="#7A7A7A" stroke-width="0.75" stroke-linejoin="round" points="70.3116 53.4777 58.4816 53.4777 58.4816 51.0397 64.3966 51.0397 70.3116 51.0397"></polygon>
                    <polygon id="Fill-43" fill="#E5E5E5" points="70.3116 59.0734 58.4816 59.0734 58.4816 56.6354 64.3966 56.6354 70.3116 56.6354"></polygon>
                    <polygon id="Stroke-44" stroke="#7A7A7A" stroke-width="0.75" stroke-linejoin="round" points="70.3116 59.0734 58.4816 59.0734 58.4816 56.6354 64.3966 56.6354 70.3116 56.6354"></polygon>
                    <polygon id="Fill-45" fill="#E5E5E5" points="70.3116 64.6696 58.4816 64.6696 58.4816 62.2316 64.3966 62.2316 70.3116 62.2316"></polygon>
                    <polygon id="Stroke-46" stroke="#7A7A7A" stroke-width="0.75" stroke-linejoin="round" points="70.3116 64.6696 58.4816 64.6696 58.4816 62.2316 64.3966 62.2316 70.3116 62.2316"></polygon>
                    <polygon id="Fill-47" fill="#E5E5E5" points="70.3116 70.2653 58.4816 70.2653 58.4816 67.8273 64.3966 67.8273 70.3116 67.8273"></polygon>
                    <polygon id="Stroke-48" stroke="#7A7A7A" stroke-width="0.75" stroke-linejoin="round" points="70.3116 70.2653 58.4816 70.2653 58.4816 67.8273 64.3966 67.8273 70.3116 67.8273"></polygon>
                    <polygon id="Fill-49" fill="#E5E5E5" points="70.3116 75.8615 58.4816 75.8615 58.4816 73.4235 64.3966 73.4235 70.3116 73.4235"></polygon>
                    <polygon id="Stroke-50" stroke="#7A7A7A" stroke-width="0.75" stroke-linejoin="round" points="70.3116 75.8615 58.4816 75.8615 58.4816 73.4235 64.3966 73.4235 70.3116 73.4235"></polygon>
                    <polygon id="Fill-51" fill="#E5E5E5" points="70.3116 81.4572 58.4816 81.4572 58.4816 79.0192 64.3966 79.0192 70.3116 79.0192"></polygon>
                    <polygon id="Stroke-52" stroke="#7A7A7A" stroke-width="0.75" stroke-linejoin="round" points="70.3116 81.4572 58.4816 81.4572 58.4816 79.0192 64.3966 79.0192 70.3116 79.0192"></polygon>
                    <polygon id="Fill-53" fill="#E5E5E5" points="70.3116 87.0529 58.4816 87.0529 58.4816 84.6149 64.3966 84.6149 70.3116 84.6149"></polygon>
                    <polygon id="Stroke-54" stroke="#7A7A7A" stroke-width="0.75" stroke-linejoin="round" points="70.3116 87.0529 58.4816 87.0529 58.4816 84.6149 64.3966 84.6149 70.3116 84.6149"></polygon>
                    <polygon id="Fill-55" fill="#E5E5E5" points="70.3116 92.6491 58.4816 92.6491 58.4816 90.2111 64.3966 90.2111 70.3116 90.2111"></polygon>
                    <polygon id="Stroke-56" stroke="#7A7A7A" stroke-width="0.75" stroke-linejoin="round" points="70.3116 92.6491 58.4816 92.6491 58.4816 90.2111 64.3966 90.2111 70.3116 90.2111"></polygon>
                    <polygon id="Fill-57" fill="#E5E5E5" points="70.3116 98.2448 58.4816 98.2448 58.4816 95.8068 64.3966 95.8068 70.3116 95.8068"></polygon>
                    <polygon id="Stroke-58" stroke="#7A7A7A" stroke-width="0.75" stroke-linejoin="round" points="70.3116 98.2448 58.4816 98.2448 58.4816 95.8068 64.3966 95.8068 70.3116 95.8068"></polygon>
                    <polygon id="Fill-59" fill="#E5E5E5" points="70.3116 103.841 58.4816 103.841 58.4816 101.403 64.3966 101.403 70.3116 101.403"></polygon>
                    <polygon id="Stroke-60" stroke="#7A7A7A" stroke-width="0.75" stroke-linejoin="round" points="70.3116 103.841 58.4816 103.841 58.4816 101.403 64.3966 101.403 70.3116 101.403"></polygon>
                    <polygon id="Fill-61" fill="#E5E5E5" points="10.7604 73.5392 3.6944 73.5392 3.6944 70.8142 7.2274 70.8142 10.7604 70.8142"></polygon>
                    <polygon id="Stroke-62" stroke="#7A7A7A" stroke-width="0.75" stroke-linejoin="round" points="10.7604 73.5392 3.6944 73.5392 3.6944 70.8142 7.2274 70.8142 10.7604 70.8142"></polygon>
                    <polygon id="Fill-63" fill="#E5E5E5" points="10.7604 80.0514 3.6944 80.0514 3.6944 77.3264 7.2274 77.3264 10.7604 77.3264"></polygon>
                    <polygon id="Stroke-64" stroke="#7A7A7A" stroke-width="0.75" stroke-linejoin="round" points="10.7604 80.0514 3.6944 80.0514 3.6944 77.3264 7.2274 77.3264 10.7604 77.3264"></polygon>
                    <polygon id="Fill-65" fill="#E5E5E5" points="10.7604 86.5631 3.6944 86.5631 3.6944 83.8381 7.2274 83.8381 10.7604 83.8381"></polygon>
                    <polygon id="Stroke-66" stroke="#7A7A7A" stroke-width="0.75" stroke-linejoin="round" points="10.7604 86.5631 3.6944 86.5631 3.6944 83.8381 7.2274 83.8381 10.7604 83.8381"></polygon>
                    <polygon id="Fill-67" fill="#E5E5E5" points="10.7604 93.0753 3.6944 93.0753 3.6944 90.3503 7.2274 90.3503 10.7604 90.3503"></polygon>
                    <polygon id="Stroke-68" stroke="#7A7A7A" stroke-width="0.75" stroke-linejoin="round" points="10.7604 93.0753 3.6944 93.0753 3.6944 90.3503 7.2274 90.3503 10.7604 90.3503"></polygon>
                    <polygon id="Fill-69" fill="#E5E5E5" points="10.7604 99.587 3.6944 99.587 3.6944 96.862 7.2274 96.862 10.7604 96.862"></polygon>
                    <polygon id="Stroke-70" stroke="#7A7A7A" stroke-width="0.75" stroke-linejoin="round" points="10.7604 99.587 3.6944 99.587 3.6944 96.862 7.2274 96.862 10.7604 96.862"></polygon>
                    <polygon id="Fill-71" fill="#E5E5E5" points="10.7604 106.0988 3.6944 106.0988 3.6944 103.3738 7.2274 103.3738 10.7604 103.3738"></polygon>
                    <polygon id="Stroke-72" stroke="#7A7A7A" stroke-width="0.75" stroke-linejoin="round" points="10.7604 106.0988 3.6944 106.0988 3.6944 103.3738 7.2274 103.3738 10.7604 103.3738"></polygon>
                    <polygon id="Fill-73" fill="#E5E5E5" points="46.7599 44.8693 17.1839 44.8693 17.1839 40.7553 31.9719 40.7553 46.7599 40.7553"></polygon>
                    <polygon id="Stroke-74" stroke="#7A7A7A" stroke-width="0.75" stroke-linejoin="round" points="46.7599 44.8693 17.1839 44.8693 17.1839 40.7553 31.9719 40.7553 46.7599 40.7553"></polygon>
                    <polygon id="Fill-75" fill="#E5E5E5" points="31.9718 44.8693 17.1838 44.8693 17.1838 40.7553 24.5778 40.7553 31.9718 40.7553"></polygon>
                    <polygon id="Stroke-76" stroke="#7A7A7A" stroke-width="0.75" stroke-linejoin="round" points="31.9718 44.8693 17.1838 44.8693 17.1838 40.7553 24.5778 40.7553 31.9718 40.7553"></polygon>
                    <polygon id="Fill-77" fill="#E5E5E5" points="24.5778 44.8693 17.1838 44.8693 17.1838 40.7553 20.8808 40.7553 24.5778 40.7553"></polygon>
                    <polygon id="Stroke-78" stroke="#7A7A7A" stroke-width="0.75" stroke-linejoin="round" points="24.5778 44.8693 17.1838 44.8693 17.1838 40.7553 20.8808 40.7553 24.5778 40.7553"></polygon>
                    <polygon id="Fill-79" fill="#E5E5E5" points="39.3658 44.8693 31.9718 44.8693 31.9718 40.7553 35.6688 40.7553 39.3658 40.7553"></polygon>
                    <polygon id="Stroke-80" stroke="#7A7A7A" stroke-width="0.75" stroke-linejoin="round" points="39.3658 44.8693 31.9718 44.8693 31.9718 40.7553 35.6688 40.7553 39.3658 40.7553"></polygon>
                    <polygon id="Fill-81" fill="#E5E5E5" points="46.7599 52.2106 17.1839 52.2106 17.1839 48.0966 31.9719 48.0966 46.7599 48.0966"></polygon>
                    <polygon id="Stroke-82" stroke="#7A7A7A" stroke-width="0.75" stroke-linejoin="round" points="46.7599 52.2106 17.1839 52.2106 17.1839 48.0966 31.9719 48.0966 46.7599 48.0966"></polygon>
                    <polygon id="Fill-83" fill="#E5E5E5" points="31.9718 52.2106 17.1838 52.2106 17.1838 48.0966 24.5778 48.0966 31.9718 48.0966"></polygon>
                    <polygon id="Stroke-84" stroke="#7A7A7A" stroke-width="0.75" stroke-linejoin="round" points="31.9718 52.2106 17.1838 52.2106 17.1838 48.0966 24.5778 48.0966 31.9718 48.0966"></polygon>
                    <polygon id="Fill-85" fill="#E5E5E5" points="24.5778 52.2101 17.1838 52.2101 17.1838 48.0961 20.8808 48.0961 24.5778 48.0961"></polygon>
                    <polygon id="Stroke-86" stroke="#7A7A7A" stroke-width="0.75" stroke-linejoin="round" points="24.5778 52.2101 17.1838 52.2101 17.1838 48.0961 20.8808 48.0961 24.5778 48.0961"></polygon>
                    <polygon id="Fill-87" fill="#E5E5E5" points="39.3658 52.2101 31.9718 52.2101 31.9718 48.0961 35.6688 48.0961 39.3658 48.0961"></polygon>
                    <polygon id="Stroke-88" stroke="#7A7A7A" stroke-width="0.75" stroke-linejoin="round" points="39.3658 52.2101 31.9718 52.2101 31.9718 48.0961 35.6688 48.0961 39.3658 48.0961"></polygon>
                    <polygon id="Fill-89" fill="#E5E5E5" points="46.7599 59.5519 17.1839 59.5519 17.1839 55.4379 31.9719 55.4379 46.7599 55.4379"></polygon>
                    <polygon id="Stroke-90" stroke="#7A7A7A" stroke-width="0.75" stroke-linejoin="round" points="46.7599 59.5519 17.1839 59.5519 17.1839 55.4379 31.9719 55.4379 46.7599 55.4379"></polygon>
                    <polygon id="Fill-91" fill="#E5E5E5" points="31.9718 59.5519 17.1838 59.5519 17.1838 55.4379 24.5778 55.4379 31.9718 55.4379"></polygon>
                    <polygon id="Stroke-92" stroke="#7A7A7A" stroke-width="0.75" stroke-linejoin="round" points="31.9718 59.5519 17.1838 59.5519 17.1838 55.4379 24.5778 55.4379 31.9718 55.4379"></polygon>
                    <polygon id="Fill-93" fill="#E5E5E5" points="24.5778 59.5514 17.1838 59.5514 17.1838 55.4374 20.8808 55.4374 24.5778 55.4374"></polygon>
                    <polygon id="Stroke-94" stroke="#7A7A7A" stroke-width="0.75" stroke-linejoin="round" points="24.5778 59.5514 17.1838 59.5514 17.1838 55.4374 20.8808 55.4374 24.5778 55.4374"></polygon>
                    <polygon id="Fill-95" fill="#E5E5E5" points="39.3658 59.5514 31.9718 59.5514 31.9718 55.4374 35.6688 55.4374 39.3658 55.4374"></polygon>
                    <polygon id="Stroke-96" stroke="#7A7A7A" stroke-width="0.75" stroke-linejoin="round" points="39.3658 59.5514 31.9718 59.5514 31.9718 55.4374 35.6688 55.4374 39.3658 55.4374"></polygon>
                    <polygon id="Fill-97" fill="#E5E5E5" points="46.7599 66.8932 17.1839 66.8932 17.1839 62.7792 31.9719 62.7792 46.7599 62.7792"></polygon>
                    <polygon id="Stroke-98" stroke="#7A7A7A" stroke-width="0.75" stroke-linejoin="round" points="46.7599 66.8932 17.1839 66.8932 17.1839 62.7792 31.9719 62.7792 46.7599 62.7792"></polygon>
                    <polygon id="Fill-99" fill="#E5E5E5" points="31.9718 66.8927 17.1838 66.8927 17.1838 62.7787 24.5778 62.7787 31.9718 62.7787"></polygon>
                    <polygon id="Stroke-100" stroke="#7A7A7A" stroke-width="0.75" stroke-linejoin="round" points="31.9718 66.8927 17.1838 66.8927 17.1838 62.7787 24.5778 62.7787 31.9718 62.7787"></polygon>
                    <polygon id="Fill-101" fill="#E5E5E5" points="24.5778 66.8927 17.1838 66.8927 17.1838 62.7787 20.8808 62.7787 24.5778 62.7787"></polygon>
                    <polygon id="Stroke-102" stroke="#7A7A7A" stroke-width="0.75" stroke-linejoin="round" points="24.5778 66.8927 17.1838 66.8927 17.1838 62.7787 20.8808 62.7787 24.5778 62.7787"></polygon>
                    <polygon id="Fill-103" fill="#E5E5E5" points="39.3658 66.8927 31.9718 66.8927 31.9718 62.7787 35.6688 62.7787 39.3658 62.7787"></polygon>
                    <polygon id="Stroke-104" stroke="#7A7A7A" stroke-width="0.75" stroke-linejoin="round" points="39.3658 66.8927 31.9718 66.8927 31.9718 62.7787 35.6688 62.7787 39.3658 62.7787"></polygon>
                    <polygon id="Fill-105" fill="#E5E5E5" points="46.7599 74.2345 17.1839 74.2345 17.1839 70.1205 31.9719 70.1205 46.7599 70.1205"></polygon>
                    <polygon id="Stroke-106" stroke="#7A7A7A" stroke-width="0.75" stroke-linejoin="round" points="46.7599 74.2345 17.1839 74.2345 17.1839 70.1205 31.9719 70.1205 46.7599 70.1205"></polygon>
                    <polygon id="Fill-107" fill="#E5E5E5" points="31.9718 74.234 17.1838 74.234 17.1838 70.12 24.5778 70.12 31.9718 70.12"></polygon>
                    <polygon id="Stroke-108" stroke="#7A7A7A" stroke-width="0.75" stroke-linejoin="round" points="31.9718 74.234 17.1838 74.234 17.1838 70.12 24.5778 70.12 31.9718 70.12"></polygon>
                    <polygon id="Fill-109" fill="#E5E5E5" points="24.5778 74.234 17.1838 74.234 17.1838 70.12 20.8808 70.12 24.5778 70.12"></polygon>
                    <polygon id="Stroke-110" stroke="#7A7A7A" stroke-width="0.75" stroke-linejoin="round" points="24.5778 74.234 17.1838 74.234 17.1838 70.12 20.8808 70.12 24.5778 70.12"></polygon>
                    <polygon id="Fill-111" fill="#E5E5E5" points="39.3658 74.234 31.9718 74.234 31.9718 70.12 35.6688 70.12 39.3658 70.12"></polygon>
                    <polygon id="Stroke-112" stroke="#7A7A7A" stroke-width="0.75" stroke-linejoin="round" points="39.3658 74.234 31.9718 74.234 31.9718 70.12 35.6688 70.12 39.3658 70.12"></polygon>
                    <polygon id="Fill-113" fill="#E5E5E5" points="46.7599 81.5753 17.1839 81.5753 17.1839 77.4613 31.9719 77.4613 46.7599 77.4613"></polygon>
                    <polygon id="Stroke-114" stroke="#7A7A7A" stroke-width="0.75" stroke-linejoin="round" points="46.7599 81.5753 17.1839 81.5753 17.1839 77.4613 31.9719 77.4613 46.7599 77.4613"></polygon>
                    <polygon id="Fill-115" fill="#E5E5E5" points="31.9718 81.5753 17.1838 81.5753 17.1838 77.4613 24.5778 77.4613 31.9718 77.4613"></polygon>
                    <polygon id="Stroke-116" stroke="#7A7A7A" stroke-width="0.75" stroke-linejoin="round" points="31.9718 81.5753 17.1838 81.5753 17.1838 77.4613 24.5778 77.4613 31.9718 77.4613"></polygon>
                    <polygon id="Fill-117" fill="#E5E5E5" points="24.5778 81.5753 17.1838 81.5753 17.1838 77.4613 20.8808 77.4613 24.5778 77.4613"></polygon>
                    <polygon id="Stroke-118" stroke="#7A7A7A" stroke-width="0.75" stroke-linejoin="round" points="24.5778 81.5753 17.1838 81.5753 17.1838 77.4613 20.8808 77.4613 24.5778 77.4613"></polygon>
                    <polygon id="Fill-119" fill="#E5E5E5" points="39.3658 81.5753 31.9718 81.5753 31.9718 77.4613 35.6688 77.4613 39.3658 77.4613"></polygon>
                    <polygon id="Stroke-120" stroke="#7A7A7A" stroke-width="0.75" stroke-linejoin="round" points="39.3658 81.5753 31.9718 81.5753 31.9718 77.4613 35.6688 77.4613 39.3658 77.4613"></polygon>
                    <polygon id="Fill-121" fill="#E5E5E5" points="46.7599 88.9166 17.1839 88.9166 17.1839 84.8026 31.9719 84.8026 46.7599 84.8026"></polygon>
                    <polygon id="Stroke-122" stroke="#7A7A7A" stroke-width="0.75" stroke-linejoin="round" points="46.7599 88.9166 17.1839 88.9166 17.1839 84.8026 31.9719 84.8026 46.7599 84.8026"></polygon>
                    <polygon id="Fill-123" fill="#E5E5E5" points="31.9718 88.9166 17.1838 88.9166 17.1838 84.8026 24.5778 84.8026 31.9718 84.8026"></polygon>
                    <polygon id="Stroke-124" stroke="#7A7A7A" stroke-width="0.75" stroke-linejoin="round" points="31.9718 88.9166 17.1838 88.9166 17.1838 84.8026 24.5778 84.8026 31.9718 84.8026"></polygon>
                    <polygon id="Fill-125" fill="#E5E5E5" points="24.5778 88.9161 17.1838 88.9161 17.1838 84.8021 20.8808 84.8021 24.5778 84.8021"></polygon>
                    <polygon id="Stroke-126" stroke="#7A7A7A" stroke-width="0.75" stroke-linejoin="round" points="24.5778 88.9161 17.1838 88.9161 17.1838 84.8021 20.8808 84.8021 24.5778 84.8021"></polygon>
                    <polygon id="Fill-127" fill="#E5E5E5" points="39.3658 88.9161 31.9718 88.9161 31.9718 84.8021 35.6688 84.8021 39.3658 84.8021"></polygon>
                    <polygon id="Stroke-128" stroke="#7A7A7A" stroke-width="0.75" stroke-linejoin="round" points="39.3658 88.9161 31.9718 88.9161 31.9718 84.8021 35.6688 84.8021 39.3658 84.8021"></polygon>
                    <polygon id="Fill-129" fill="#E5E5E5" points="46.7599 96.2579 17.1839 96.2579 17.1839 92.1439 31.9719 92.1439 46.7599 92.1439"></polygon>
                    <polygon id="Stroke-130" stroke="#7A7A7A" stroke-width="0.75" stroke-linejoin="round" points="46.7599 96.2579 17.1839 96.2579 17.1839 92.1439 31.9719 92.1439 46.7599 92.1439"></polygon>
                    <polygon id="Fill-131" fill="#E5E5E5" points="31.9718 96.2579 17.1838 96.2579 17.1838 92.1439 24.5778 92.1439 31.9718 92.1439"></polygon>
                    <polygon id="Stroke-132" stroke="#7A7A7A" stroke-width="0.75" stroke-linejoin="round" points="31.9718 96.2579 17.1838 96.2579 17.1838 92.1439 24.5778 92.1439 31.9718 92.1439"></polygon>
                    <polygon id="Fill-133" fill="#E5E5E5" points="24.5778 96.2575 17.1838 96.2575 17.1838 92.1435 20.8808 92.1435 24.5778 92.1435"></polygon>
                    <polygon id="Stroke-134" stroke="#7A7A7A" stroke-width="0.75" stroke-linejoin="round" points="24.5778 96.2575 17.1838 96.2575 17.1838 92.1435 20.8808 92.1435 24.5778 92.1435"></polygon>
                    <polygon id="Fill-135" fill="#E5E5E5" points="39.3658 96.2575 31.9718 96.2575 31.9718 92.1435 35.6688 92.1435 39.3658 92.1435"></polygon>
                    <polygon id="Stroke-136" stroke="#7A7A7A" stroke-width="0.75" stroke-linejoin="round" points="39.3658 96.2575 31.9718 96.2575 31.9718 92.1435 35.6688 92.1435 39.3658 92.1435"></polygon>
                    <polygon id="Fill-137" fill="#E5E5E5" points="46.7599 103.5993 17.1839 103.5993 17.1839 99.4853 31.9719 99.4853 46.7599 99.4853"></polygon>
                    <polygon id="Stroke-138" stroke="#7A7A7A" stroke-width="0.75" stroke-linejoin="round" points="46.7599 103.5993 17.1839 103.5993 17.1839 99.4853 31.9719 99.4853 46.7599 99.4853"></polygon>
                    <polygon id="Fill-139" fill="#E5E5E5" points="31.9718 103.5988 17.1838 103.5988 17.1838 99.4848 24.5778 99.4848 31.9718 99.4848"></polygon>
                    <polygon id="Stroke-140" stroke="#7A7A7A" stroke-width="0.75" stroke-linejoin="round" points="31.9718 103.5988 17.1838 103.5988 17.1838 99.4848 24.5778 99.4848 31.9718 99.4848"></polygon>
                    <polygon id="Fill-141" fill="#E5E5E5" points="24.5778 103.5988 17.1838 103.5988 17.1838 99.4848 20.8808 99.4848 24.5778 99.4848"></polygon>
                    <polygon id="Stroke-142" stroke="#7A7A7A" stroke-width="0.75" stroke-linejoin="round" points="24.5778 103.5988 17.1838 103.5988 17.1838 99.4848 20.8808 99.4848 24.5778 99.4848"></polygon>
                    <polygon id="Fill-143" fill="#E5E5E5" points="39.3658 103.5988 31.9718 103.5988 31.9718 99.4848 35.6688 99.4848 39.3658 99.4848"></polygon>
                    <polygon id="Stroke-144" stroke="#7A7A7A" stroke-width="0.75" stroke-linejoin="round" points="39.3658 103.5988 31.9718 103.5988 31.9718 99.4848 35.6688 99.4848 39.3658 99.4848"></polygon>
                    <polygon id="Stroke-145" stroke="#7A7A7A" stroke-width="0.75" stroke-linejoin="round" points="97.021 108.725 107.942 108.725 107.942 81.888 97.021 81.888"></polygon>
                    <polygon id="Fill-147" fill="#E5E5E5" points="104.2482 89.1481 100.7152 89.1481 100.7152 85.3441 102.4812 85.3441 104.2482 85.3441"></polygon>
                    <polygon id="Stroke-148" stroke="#7A7A7A" stroke-width="0.75" stroke-linejoin="round" points="104.2482 89.1481 100.7152 89.1481 100.7152 85.3441 102.4812 85.3441 104.2482 85.3441"></polygon>
                    <polygon id="Fill-149" fill="#E5E5E5" points="104.2482 97.3063 100.7152 97.3063 100.7152 93.5023 102.4812 93.5023 104.2482 93.5023"></polygon>
                    <polygon id="Stroke-150" stroke="#7A7A7A" stroke-width="0.75" stroke-linejoin="round" points="104.2482 97.3063 100.7152 97.3063 100.7152 93.5023 102.4812 93.5023 104.2482 93.5023"></polygon>
                    <polygon id="Fill-151" fill="#E5E5E5" points="104.2482 105.4645 100.7152 105.4645 100.7152 101.6605 102.4812 101.6605 104.2482 101.6605"></polygon>
                    <polygon id="Stroke-152" stroke="#7A7A7A" stroke-width="0.75" stroke-linejoin="round" points="104.2482 105.4645 100.7152 105.4645 100.7152 101.6605 102.4812 101.6605 104.2482 101.6605"></polygon>
                    <g id="Group-242" transform="translate(0.000000, 0.100000)">
                        <path d="M117.799,101.0744 C117.653,97.3214 114.572,94.3224 110.784,94.3224 C106.996,94.3224 103.916,97.3214 103.77,101.0744 L103.756,101.0744 L103.756,104.7184 L117.814,104.7184 L117.814,101.0744 L117.799,101.0744 Z" id="Fill-153" fill="#FEFEFE"></path>
                        <path d="M117.799,101.0744 C117.653,97.3214 114.572,94.3224 110.784,94.3224 C106.996,94.3224 103.916,97.3214 103.77,101.0744 L103.756,101.0744 L103.756,104.7184 L117.814,104.7184 L117.814,101.0744 L117.799,101.0744 Z" id="Stroke-155" stroke="#7A7A7A" stroke-width="0.75" stroke-linejoin="round"></path>
                        <mask id="mask-2" fill="white">
                            <use xlink:href="#path-1"></use>
                        </mask>
                        <g id="Clip-158"></g>
                        <polygon id="Fill-157" fill="#FEFEFE" mask="url(#mask-2)" points="109.861 108.42 111.707 108.42 111.707 104.718 109.861 104.718"></polygon>
                        <polygon id="Stroke-159" stroke="#7A7A7A" stroke-width="0.75" stroke-linejoin="round" mask="url(#mask-2)" points="109.861 108.42 111.707 108.42 111.707 104.718 109.861 104.718"></polygon>
                        <line x1="55.2281" y1="1.2751" x2="55.2281" y2="108.6251" id="Stroke-160" stroke="#7A7A7A" stroke-width="0.75" stroke-linejoin="round" mask="url(#mask-2)"></line>
                        <polygon id="Stroke-161" stroke="#7A7A7A" stroke-width="0.75" stroke-linejoin="round" mask="url(#mask-2)" points="97.0211 108.6252 67.1991 108.6252 67.1991 54.9502 86.8071 54.9502 97.0211 42.7122"></polygon>
                        <polygon id="Fill-162" fill="#E5E5E5" mask="url(#mask-2)" points="95.549 58.675 88.483 58.675 88.483 55.95 92.016 55.95 95.549 55.95"></polygon>
                        <polygon id="Stroke-163" stroke="#7A7A7A" stroke-width="0.75" stroke-linejoin="round" mask="url(#mask-2)" points="95.549 58.675 88.483 58.675 88.483 55.95 92.016 55.95 95.549 55.95"></polygon>
                        <polygon id="Fill-164" fill="#E5E5E5" mask="url(#mask-2)" points="95.549 65.4333 88.483 65.4333 88.483 62.7083 92.016 62.7083 95.549 62.7083"></polygon>
                        <polygon id="Stroke-165" stroke="#7A7A7A" stroke-width="0.75" stroke-linejoin="round" mask="url(#mask-2)" points="95.549 65.4333 88.483 65.4333 88.483 62.7083 92.016 62.7083 95.549 62.7083"></polygon>
                        <polygon id="Fill-166" fill="#E5E5E5" mask="url(#mask-2)" points="95.549 72.1916 88.483 72.1916 88.483 69.4666 92.016 69.4666 95.549 69.4666"></polygon>
                        <polygon id="Stroke-167" stroke="#7A7A7A" stroke-width="0.75" stroke-linejoin="round" mask="url(#mask-2)" points="95.549 72.1916 88.483 72.1916 88.483 69.4666 92.016 69.4666 95.549 69.4666"></polygon>
                        <polygon id="Fill-168" fill="#E5E5E5" mask="url(#mask-2)" points="95.549 78.9499 88.483 78.9499 88.483 76.2249 92.016 76.2249 95.549 76.2249"></polygon>
                        <polygon id="Stroke-169" stroke="#7A7A7A" stroke-width="0.75" stroke-linejoin="round" mask="url(#mask-2)" points="95.549 78.9499 88.483 78.9499 88.483 76.2249 92.016 76.2249 95.549 76.2249"></polygon>
                        <polygon id="Fill-170" fill="#E5E5E5" mask="url(#mask-2)" points="95.549 85.7082 88.483 85.7082 88.483 82.9832 92.016 82.9832 95.549 82.9832"></polygon>
                        <polygon id="Stroke-171" stroke="#7A7A7A" stroke-width="0.75" stroke-linejoin="round" mask="url(#mask-2)" points="95.549 85.7082 88.483 85.7082 88.483 82.9832 92.016 82.9832 95.549 82.9832"></polygon>
                        <polygon id="Fill-172" fill="#E5E5E5" mask="url(#mask-2)" points="95.549 92.4665 88.483 92.4665 88.483 89.7415 92.016 89.7415 95.549 89.7415"></polygon>
                        <polygon id="Stroke-173" stroke="#7A7A7A" stroke-width="0.75" stroke-linejoin="round" mask="url(#mask-2)" points="95.549 92.4665 88.483 92.4665 88.483 89.7415 92.016 89.7415 95.549 89.7415"></polygon>
                        <polygon id="Fill-174" fill="#E5E5E5" mask="url(#mask-2)" points="95.549 99.2248 88.483 99.2248 88.483 96.4998 92.016 96.4998 95.549 96.4998"></polygon>
                        <polygon id="Stroke-175" stroke="#7A7A7A" stroke-width="0.75" stroke-linejoin="round" mask="url(#mask-2)" points="95.549 99.2248 88.483 99.2248 88.483 96.4998 92.016 96.4998 95.549 96.4998"></polygon>
                        <polygon id="Fill-176" fill="#E5E5E5" mask="url(#mask-2)" points="95.549 105.9831 88.483 105.9831 88.483 103.2581 92.016 103.2581 95.549 103.2581"></polygon>
                        <polygon id="Stroke-177" stroke="#7A7A7A" stroke-width="0.75" stroke-linejoin="round" mask="url(#mask-2)" points="95.549 105.9831 88.483 105.9831 88.483 103.2581 92.016 103.2581 95.549 103.2581"></polygon>
                        <polygon id="Fill-178" fill="#FEFEFE" mask="url(#mask-2)" points="67.199 108.625 86.807 108.625 86.807 54.95 67.199 54.95"></polygon>
                        <polygon id="Stroke-179" stroke="#7A7A7A" stroke-width="0.75" stroke-linejoin="round" mask="url(#mask-2)" points="67.199 108.625 86.807 108.625 86.807 54.95 67.199 54.95"></polygon>
                        <polygon id="Fill-180" fill="#E5E5E5" mask="url(#mask-2)" points="70.6251 63.696 70.6251 58.421 75.6441 58.421 75.6441 61.058 75.6441 63.696"></polygon>
                        <polygon id="Stroke-181" stroke="#7A7A7A" stroke-width="0.75" stroke-linejoin="round" mask="url(#mask-2)" points="70.6251 63.696 70.6251 58.421 75.6441 58.421 75.6441 61.058 75.6441 63.696"></polygon>
                        <polygon id="Fill-182" fill="#FEFEFE" mask="url(#mask-2)" points="69.171 65.2073 69.171 63.5673 75.644 63.5673 75.644 64.3873 75.644 65.2073"></polygon>
                        <polygon id="Stroke-183" stroke="#7A7A7A" stroke-width="0.75" stroke-linejoin="round" mask="url(#mask-2)" points="69.171 65.2073 69.171 63.5673 75.644 63.5673 75.644 64.3873 75.644 65.2073"></polygon>
                        <polygon id="Fill-184" fill="#FEFEFE" mask="url(#mask-2)" points="73.8864 65.2073 73.8864 63.5673 75.6434 63.5673 75.6434 64.3873 75.6434 65.2073"></polygon>
                        <polygon id="Stroke-185" stroke="#7A7A7A" stroke-width="0.75" stroke-linejoin="round" mask="url(#mask-2)" points="73.8864 65.2073 73.8864 63.5673 75.6434 63.5673 75.6434 64.3873 75.6434 65.2073"></polygon>
                        <polygon id="Fill-186" fill="#E5E5E5" mask="url(#mask-2)" points="83.8678 63.5676 78.5928 63.5676 78.5928 58.5496 81.2298 58.5496 83.8678 58.5496"></polygon>
                        <polygon id="Stroke-187" stroke="#7A7A7A" stroke-width="0.75" stroke-linejoin="round" mask="url(#mask-2)" points="83.8678 63.5676 78.5928 63.5676 78.5928 58.5496 81.2298 58.5496 83.8678 58.5496"></polygon>
                        <polygon id="Fill-188" fill="#FEFEFE" mask="url(#mask-2)" points="77.3951 65.2073 77.3951 63.5673 83.8681 63.5673 83.8681 64.3873 83.8681 65.2073"></polygon>
                        <polygon id="Stroke-189" stroke="#7A7A7A" stroke-width="0.75" stroke-linejoin="round" mask="url(#mask-2)" points="77.3951 65.2073 77.3951 63.5673 83.8681 63.5673 83.8681 64.3873 83.8681 65.2073"></polygon>
                        <polygon id="Fill-190" fill="#FEFEFE" mask="url(#mask-2)" points="81.8536 65.2073 81.8536 63.5673 83.6106 63.5673 83.6106 64.3873 83.6106 65.2073"></polygon>
                        <polygon id="Stroke-191" stroke="#7A7A7A" stroke-width="0.75" stroke-linejoin="round" mask="url(#mask-2)" points="81.8536 65.2073 81.8536 63.5673 83.6106 63.5673 83.6106 64.3873 83.6106 65.2073"></polygon>
                        <polygon id="Fill-192" fill="#E5E5E5" mask="url(#mask-2)" points="70.6251 73.9592 70.6251 68.6842 75.6441 68.6842 75.6441 71.3222 75.6441 73.9592"></polygon>
                        <polygon id="Stroke-193" stroke="#7A7A7A" stroke-width="0.75" stroke-linejoin="round" mask="url(#mask-2)" points="70.6251 73.9592 70.6251 68.6842 75.6441 68.6842 75.6441 71.3222 75.6441 73.9592"></polygon>
                        <polygon id="Fill-194" fill="#FEFEFE" mask="url(#mask-2)" points="69.171 75.4704 69.171 73.8304 75.644 73.8304 75.644 74.6504 75.644 75.4704"></polygon>
                        <polygon id="Stroke-195" stroke="#7A7A7A" stroke-width="0.75" stroke-linejoin="round" mask="url(#mask-2)" points="69.171 75.4704 69.171 73.8304 75.644 73.8304 75.644 74.6504 75.644 75.4704"></polygon>
                        <polygon id="Fill-196" fill="#FEFEFE" mask="url(#mask-2)" points="73.8864 75.4704 73.8864 73.8304 75.6434 73.8304 75.6434 74.6504 75.6434 75.4704"></polygon>
                        <polygon id="Stroke-197" stroke="#7A7A7A" stroke-width="0.75" stroke-linejoin="round" mask="url(#mask-2)" points="73.8864 75.4704 73.8864 73.8304 75.6434 73.8304 75.6434 74.6504 75.6434 75.4704"></polygon>
                        <polygon id="Fill-198" fill="#E5E5E5" mask="url(#mask-2)" points="83.8678 73.8308 78.5928 73.8308 78.5928 68.8128 81.2298 68.8128 83.8678 68.8128"></polygon>
                        <polygon id="Stroke-199" stroke="#7A7A7A" stroke-width="0.75" stroke-linejoin="round" mask="url(#mask-2)" points="83.8678 73.8308 78.5928 73.8308 78.5928 68.8128 81.2298 68.8128 83.8678 68.8128"></polygon>
                        <polygon id="Fill-200" fill="#FEFEFE" mask="url(#mask-2)" points="77.3951 75.4704 77.3951 73.8304 83.8681 73.8304 83.8681 74.6504 83.8681 75.4704"></polygon>
                        <polygon id="Stroke-201" stroke="#7A7A7A" stroke-width="0.75" stroke-linejoin="round" mask="url(#mask-2)" points="77.3951 75.4704 77.3951 73.8304 83.8681 73.8304 83.8681 74.6504 83.8681 75.4704"></polygon>
                        <polygon id="Fill-202" fill="#FEFEFE" mask="url(#mask-2)" points="81.8536 75.4704 81.8536 73.8304 83.6106 73.8304 83.6106 74.6504 83.6106 75.4704"></polygon>
                        <polygon id="Stroke-203" stroke="#7A7A7A" stroke-width="0.75" stroke-linejoin="round" mask="url(#mask-2)" points="81.8536 75.4704 81.8536 73.8304 83.6106 73.8304 83.6106 74.6504 83.6106 75.4704"></polygon>
                        <polygon id="Fill-204" fill="#E5E5E5" mask="url(#mask-2)" points="70.6251 84.2224 70.6251 78.9474 75.6441 78.9474 75.6441 81.5854 75.6441 84.2224"></polygon>
                        <polygon id="Stroke-205" stroke="#7A7A7A" stroke-width="0.75" stroke-linejoin="round" mask="url(#mask-2)" points="70.6251 84.2224 70.6251 78.9474 75.6441 78.9474 75.6441 81.5854 75.6441 84.2224"></polygon>
                        <polygon id="Fill-206" fill="#FEFEFE" mask="url(#mask-2)" points="69.171 85.7336 69.171 84.0946 75.644 84.0946 75.644 84.9136 75.644 85.7336"></polygon>
                        <polygon id="Stroke-207" stroke="#7A7A7A" stroke-width="0.75" stroke-linejoin="round" mask="url(#mask-2)" points="69.171 85.7336 69.171 84.0946 75.644 84.0946 75.644 84.9136 75.644 85.7336"></polygon>
                        <polygon id="Fill-208" fill="#FEFEFE" mask="url(#mask-2)" points="73.8864 85.7336 73.8864 84.0946 75.6434 84.0946 75.6434 84.9136 75.6434 85.7336"></polygon>
                        <polygon id="Stroke-209" stroke="#7A7A7A" stroke-width="0.75" stroke-linejoin="round" mask="url(#mask-2)" points="73.8864 85.7336 73.8864 84.0946 75.6434 84.0946 75.6434 84.9136 75.6434 85.7336"></polygon>
                        <polygon id="Fill-210" fill="#E5E5E5" mask="url(#mask-2)" points="83.8678 84.0945 78.5928 84.0945 78.5928 79.0755 81.2298 79.0755 83.8678 79.0755"></polygon>
                        <polygon id="Stroke-211" stroke="#7A7A7A" stroke-width="0.75" stroke-linejoin="round" mask="url(#mask-2)" points="83.8678 84.0945 78.5928 84.0945 78.5928 79.0755 81.2298 79.0755 83.8678 79.0755"></polygon>
                        <polygon id="Fill-212" fill="#FEFEFE" mask="url(#mask-2)" points="77.3951 85.7336 77.3951 84.0946 83.8681 84.0946 83.8681 84.9136 83.8681 85.7336"></polygon>
                        <polygon id="Stroke-213" stroke="#7A7A7A" stroke-width="0.75" stroke-linejoin="round" mask="url(#mask-2)" points="77.3951 85.7336 77.3951 84.0946 83.8681 84.0946 83.8681 84.9136 83.8681 85.7336"></polygon>
                        <polygon id="Fill-214" fill="#FEFEFE" mask="url(#mask-2)" points="81.8536 85.7336 81.8536 84.0946 83.6106 84.0946 83.6106 84.9136 83.6106 85.7336"></polygon>
                        <polygon id="Stroke-215" stroke="#7A7A7A" stroke-width="0.75" stroke-linejoin="round" mask="url(#mask-2)" points="81.8536 85.7336 81.8536 84.0946 83.6106 84.0946 83.6106 84.9136 83.6106 85.7336"></polygon>
                        <polygon id="Fill-216" fill="#E5E5E5" mask="url(#mask-2)" points="70.6251 94.4856 70.6251 89.2106 75.6441 89.2106 75.6441 91.8486 75.6441 94.4856"></polygon>
                        <polygon id="Stroke-217" stroke="#7A7A7A" stroke-width="0.75" stroke-linejoin="round" mask="url(#mask-2)" points="70.6251 94.4856 70.6251 89.2106 75.6441 89.2106 75.6441 91.8486 75.6441 94.4856"></polygon>
                        <polygon id="Fill-218" fill="#FEFEFE" mask="url(#mask-2)" points="69.171 95.9968 69.171 94.3578 75.644 94.3578 75.644 95.1768 75.644 95.9968"></polygon>
                        <polygon id="Stroke-219" stroke="#7A7A7A" stroke-width="0.75" stroke-linejoin="round" mask="url(#mask-2)" points="69.171 95.9968 69.171 94.3578 75.644 94.3578 75.644 95.1768 75.644 95.9968"></polygon>
                        <polygon id="Fill-220" fill="#FEFEFE" mask="url(#mask-2)" points="73.8864 95.9968 73.8864 94.3578 75.6434 94.3578 75.6434 95.1768 75.6434 95.9968"></polygon>
                        <polygon id="Stroke-221" stroke="#7A7A7A" stroke-width="0.75" stroke-linejoin="round" mask="url(#mask-2)" points="73.8864 95.9968 73.8864 94.3578 75.6434 94.3578 75.6434 95.1768 75.6434 95.9968"></polygon>
                        <polygon id="Fill-222" fill="#E5E5E5" mask="url(#mask-2)" points="83.8678 94.3577 78.5928 94.3577 78.5928 89.3387 81.2298 89.3387 83.8678 89.3387"></polygon>
                        <polygon id="Stroke-223" stroke="#7A7A7A" stroke-width="0.75" stroke-linejoin="round" mask="url(#mask-2)" points="83.8678 94.3577 78.5928 94.3577 78.5928 89.3387 81.2298 89.3387 83.8678 89.3387"></polygon>
                        <polygon id="Fill-224" fill="#FEFEFE" mask="url(#mask-2)" points="77.3951 95.9968 77.3951 94.3578 83.8681 94.3578 83.8681 95.1768 83.8681 95.9968"></polygon>
                        <polygon id="Stroke-225" stroke="#7A7A7A" stroke-width="0.75" stroke-linejoin="round" mask="url(#mask-2)" points="77.3951 95.9968 77.3951 94.3578 83.8681 94.3578 83.8681 95.1768 83.8681 95.9968"></polygon>
                        <polygon id="Fill-226" fill="#FEFEFE" mask="url(#mask-2)" points="81.8536 95.9968 81.8536 94.3578 83.6106 94.3578 83.6106 95.1768 83.6106 95.9968"></polygon>
                        <polygon id="Stroke-227" stroke="#7A7A7A" stroke-width="0.75" stroke-linejoin="round" mask="url(#mask-2)" points="81.8536 95.9968 81.8536 94.3578 83.6106 94.3578 83.6106 95.1768 83.6106 95.9968"></polygon>
                        <polygon id="Fill-228" fill="#E5E5E5" mask="url(#mask-2)" points="70.6251 104.7488 70.6251 99.4738 75.6441 99.4738 75.6441 102.1118 75.6441 104.7488"></polygon>
                        <polygon id="Stroke-229" stroke="#7A7A7A" stroke-width="0.75" stroke-linejoin="round" mask="url(#mask-2)" points="70.6251 104.7488 70.6251 99.4738 75.6441 99.4738 75.6441 102.1118 75.6441 104.7488"></polygon>
                        <polygon id="Fill-230" fill="#FEFEFE" mask="url(#mask-2)" points="69.171 106.26 69.171 104.621 75.644 104.621 75.644 105.441 75.644 106.26"></polygon>
                        <polygon id="Stroke-231" stroke="#7A7A7A" stroke-width="0.75" stroke-linejoin="round" mask="url(#mask-2)" points="69.171 106.26 69.171 104.621 75.644 104.621 75.644 105.441 75.644 106.26"></polygon>
                        <polygon id="Fill-232" fill="#FEFEFE" mask="url(#mask-2)" points="73.8864 106.26 73.8864 104.621 75.6434 104.621 75.6434 105.44 75.6434 106.26"></polygon>
                        <polygon id="Stroke-233" stroke="#7A7A7A" stroke-width="0.75" stroke-linejoin="round" mask="url(#mask-2)" points="73.8864 106.26 73.8864 104.621 75.6434 104.621 75.6434 105.44 75.6434 106.26"></polygon>
                        <polygon id="Fill-234" fill="#E5E5E5" mask="url(#mask-2)" points="83.8678 104.6208 78.5928 104.6208 78.5928 99.6018 81.2298 99.6018 83.8678 99.6018"></polygon>
                        <polygon id="Stroke-235" stroke="#7A7A7A" stroke-width="0.75" stroke-linejoin="round" mask="url(#mask-2)" points="83.8678 104.6208 78.5928 104.6208 78.5928 99.6018 81.2298 99.6018 83.8678 99.6018"></polygon>
                        <polygon id="Fill-236" fill="#FEFEFE" mask="url(#mask-2)" points="77.3951 106.26 77.3951 104.621 83.8681 104.621 83.8681 105.441 83.8681 106.26"></polygon>
                        <polygon id="Stroke-237" stroke="#7A7A7A" stroke-width="0.75" stroke-linejoin="round" mask="url(#mask-2)" points="77.3951 106.26 77.3951 104.621 83.8681 104.621 83.8681 105.441 83.8681 106.26"></polygon>
                        <polygon id="Fill-238" fill="#FEFEFE" mask="url(#mask-2)" points="81.8536 106.26 81.8536 104.621 83.6106 104.621 83.6106 105.44 83.6106 106.26"></polygon>
                        <polygon id="Stroke-239" stroke="#7A7A7A" stroke-width="0.75" stroke-linejoin="round" mask="url(#mask-2)" points="81.8536 106.26 81.8536 104.621 83.6106 104.621 83.6106 105.44 83.6106 106.26"></polygon>
                        <polygon id="Fill-240" fill="#E5E5E5" mask="url(#mask-2)" points="67.1993 54.9499 86.8073 54.9499 97.0213 42.7119 77.0033 42.7119"></polygon>
                        <polygon id="Stroke-241" stroke="#7A7A7A" stroke-width="0.75" stroke-linejoin="round" mask="url(#mask-2)" points="67.1993 54.9499 86.8073 54.9499 97.0213 42.7119 77.0033 42.7119"></polygon>
                    </g>
                </g>
            </g>
        </g>
    </g>
</svg>