<?xml version="1.0" encoding="UTF-8"?>
<svg width="129px" height="95px" viewBox="0 0 129 95" version="1.1" xmlns="http://www.w3.org/2000/svg" xmlns:xlink="http://www.w3.org/1999/xlink">
    <!-- Generator: Sketch 64 (93537) - https://sketch.com -->
    <title>Group 87</title>
    <desc>Created with Sketch.</desc>
    <defs>
        <polygon id="path-1" points="0 94.4257 128.582 94.4257 128.582 -0.0003 0 -0.0003"></polygon>
    </defs>
    <g id="Pearl-Form-V3" stroke="none" stroke-width="1" fill="none" fill-rule="evenodd">
        <g id="KW_Pearl_Desktop_14" transform="translate(-1153.000000, -312.000000)">
            <g id="Group-87" transform="translate(1153.000000, 312.000000)">
                <path d="M115.4554,72.4302 L74.4874,72.4302 C74.4004,72.4302 74.3304,72.3602 74.3304,72.2732 L74.3304,70.3182 C74.3304,70.2312 74.4004,70.1612 74.4874,70.1612 L115.4554,70.1612 C115.5424,70.1612 115.6124,70.2312 115.6124,70.3182 L115.6124,72.2732 C115.6124,72.3602 115.5424,72.4302 115.4554,72.4302" id="Fill-1" fill="#E5E5E5"></path>
                <polygon id="Fill-3" fill="#E5E5E5" points="6.0291 58.1162 3.9751 58.1462 16.7621 37.4942 38.8501 22.1042 60.9371 37.3512 74.1351 58.2342 71.9651 58.1932 59.1471 38.8022 38.8101 24.4892 18.2061 38.8562"></polygon>
                <line x1="81.618" y1="69.8164" x2="81.618" y2="94.0494" id="Stroke-5" stroke="#7A7A7A" stroke-width="0.75" stroke-linejoin="round"></line>
                <line x1="90.4554" y1="69.8164" x2="90.4554" y2="94.0494" id="Stroke-7" stroke="#7A7A7A" stroke-width="0.75" stroke-linejoin="round"></line>
                <line x1="99.2923" y1="69.8164" x2="99.2923" y2="94.0494" id="Stroke-9" stroke="#7A7A7A" stroke-width="0.75" stroke-linejoin="round"></line>
                <line x1="108.1297" y1="69.8164" x2="108.1297" y2="94.0504" id="Stroke-11" stroke="#7A7A7A" stroke-width="0.75" stroke-linejoin="round"></line>
                <line x1="29.3396" y1="28.7305" x2="29.3396" y2="94.0495" id="Stroke-13" stroke="#7A7A7A" stroke-width="0.75" stroke-linejoin="round"></line>
                <line x1="47.9441" y1="28.3823" x2="47.9441" y2="94.0493" id="Stroke-15" stroke="#7A7A7A" stroke-width="0.75" stroke-linejoin="round"></line>
                <line x1="38.8103" y1="22.1045" x2="38.8103" y2="90.6665" id="Stroke-17" stroke="#7A7A7A" stroke-width="0.75" stroke-linejoin="round"></line>
                <path d="M86.2518,12.6118 C86.2518,5.9198 80.8268,0.4948 74.1348,0.4948 C67.4428,0.4948 62.0188,5.9198 62.0188,12.6118 L86.2518,12.6118 Z" id="Fill-19" fill="#E5E5E5"></path>
                <mask id="mask-2" fill="white">
                    <use xlink:href="#path-1"></use>
                </mask>
                <g id="Clip-22"></g>
                <polygon id="Fill-21" fill="#FEFEFE" mask="url(#mask-2)" points="27.092 55.2757 38.81 55.2757 38.81 40.8077 27.092 40.8077"></polygon>
                <polygon id="Stroke-23" stroke="#7A7A7A" stroke-width="0.75" stroke-linejoin="round" mask="url(#mask-2)" points="27.092 55.2757 38.81 55.2757 38.81 40.8077 27.092 40.8077"></polygon>
                <polygon id="Fill-24" fill="#FEFEFE" mask="url(#mask-2)" points="38.811 55.2757 50.529 55.2757 50.529 40.8077 38.811 40.8077"></polygon>
                <polygon id="Stroke-25" stroke="#7A7A7A" stroke-width="0.75" stroke-linejoin="round" mask="url(#mask-2)" points="38.811 55.2757 50.529 55.2757 50.529 40.8077 38.811 40.8077"></polygon>
                <g id="Group-28" mask="url(#mask-2)">
                    <g transform="translate(38.000000, 40.425700)">
                        <polyline id="Fill-26" stroke="none" fill="#FEFEFE" fill-rule="evenodd" points="0.8103 0.3814 12.5283 14.8494 12.5283 0.3814 0.8103 14.8494"></polyline>
                        <polyline id="Stroke-27" stroke="#7A7A7A" stroke-width="0.75" fill="none" stroke-linejoin="round" points="0.8103 0.3814 12.5283 14.8494 12.5283 0.3814 0.8103 14.8494"></polyline>
                    </g>
                </g>
                <polygon id="Stroke-29" stroke="#7A7A7A" stroke-width="0.75" stroke-linejoin="round" mask="url(#mask-2)" points="74.135 94.0497 115.576 94.0497 115.576 69.8167 74.135 69.8167"></polygon>
                <polygon id="Stroke-30" stroke="#7A7A7A" stroke-width="0.75" stroke-linejoin="round" mask="url(#mask-2)" points="74.1351 94.0498 3.5641 94.0498 3.5641 58.0768 16.7621 37.4938 38.8501 22.1048 60.9371 37.3518 74.1351 58.0768"></polygon>
                <polygon id="Fill-31" fill="#E5E5E5" mask="url(#mask-2)" points="27.577 35.5864 38.81 27.2404 50.079 35.3934 50.079 40.4084 27.577 40.4084"></polygon>
                <polyline id="Stroke-32" stroke="#7A7A7A" stroke-width="0.75" stroke-linejoin="round" mask="url(#mask-2)" points="27.0921 55.2754 38.8101 40.8074 38.8101 55.2754 27.0921 40.8074 32.9511 40.8074 50.5291 40.8074 50.5291 35.2284 38.8101 26.9064 27.0921 35.3424 27.0921 40.8074"></polyline>
                <line x1="38.8103" y1="26.9067" x2="38.8103" y2="40.8067" id="Stroke-33" stroke="#7A7A7A" stroke-width="0.75" stroke-linejoin="round" mask="url(#mask-2)"></line>
                <line x1="44.6697" y1="31.0679" x2="44.6697" y2="40.8069" id="Stroke-34" stroke="#7A7A7A" stroke-width="0.75" stroke-linejoin="round" mask="url(#mask-2)"></line>
                <line x1="32.951" y1="31.0679" x2="32.951" y2="40.8069" id="Stroke-35" stroke="#7A7A7A" stroke-width="0.75" stroke-linejoin="round" mask="url(#mask-2)"></line>
                <polyline id="Stroke-36" stroke="#7A7A7A" stroke-width="0.75" stroke-linecap="round" stroke-linejoin="round" mask="url(#mask-2)" points="74.1351 58.0772 77.3241 58.0772 62.7891 35.9372 38.8501 18.6842 14.4821 35.9372 0.3751 58.0772 3.5641 58.0772"></polyline>
                <path d="M61.8987,35.2949 L61.8987,12.6119 C61.8987,5.8539 67.3777,0.3749 74.1347,0.3749 C80.8937,0.3749 86.3717,5.8539 86.3717,12.6119 L86.3717,48.0409" id="Stroke-37" stroke="#7A7A7A" stroke-width="0.75" stroke-linecap="round" stroke-linejoin="round" mask="url(#mask-2)"></path>
                <polyline id="Stroke-38" stroke="#7A7A7A" stroke-width="0.75" stroke-linecap="round" stroke-linejoin="round" mask="url(#mask-2)" points="70.7356 48.041 115.6126 48.041 115.6126 67.219 115.6126 69.816"></polyline>
                <line x1="74.1351" y1="67.2188" x2="115.6131" y2="67.2188" id="Stroke-39" stroke="#7A7A7A" stroke-width="0.75" stroke-linecap="round" stroke-linejoin="round" mask="url(#mask-2)"></line>
                <line x1="62.0184" y1="12.6118" x2="83.3954" y2="12.6118" id="Stroke-40" stroke="#7A7A7A" stroke-width="0.75" stroke-linecap="round" stroke-linejoin="round" mask="url(#mask-2)"></line>
                <line x1="81.3186" y1="12.6118" x2="86.3716" y2="12.6118" id="Stroke-41" stroke="#7A7A7A" stroke-width="0.75" stroke-linecap="round" stroke-linejoin="round" mask="url(#mask-2)"></line>
                <line x1="61.8987" y1="18.022" x2="86.2517" y2="18.022" id="Stroke-42" stroke="#7A7A7A" stroke-width="0.75" stroke-linecap="round" stroke-linejoin="round" mask="url(#mask-2)"></line>
                <line x1="61.8987" y1="23.314" x2="86.3717" y2="23.314" id="Stroke-43" stroke="#7A7A7A" stroke-width="0.75" stroke-linecap="round" stroke-linejoin="round" mask="url(#mask-2)"></line>
                <line x1="61.8987" y1="28.606" x2="86.3717" y2="28.606" id="Stroke-44" stroke="#7A7A7A" stroke-width="0.75" stroke-linecap="round" stroke-linejoin="round" mask="url(#mask-2)"></line>
                <line x1="61.8987" y1="34.3052" x2="86.2517" y2="34.3052" id="Stroke-45" stroke="#7A7A7A" stroke-width="0.75" stroke-linecap="round" stroke-linejoin="round" mask="url(#mask-2)"></line>
                <line x1="74.9388" y1="54.4434" x2="115.5768" y2="54.4434" id="Stroke-46" stroke="#7A7A7A" stroke-width="0.75" stroke-linejoin="round" mask="url(#mask-2)"></line>
                <line x1="74.1302" y1="61.7686" x2="115.5762" y2="61.7686" id="Stroke-47" stroke="#7A7A7A" stroke-width="0.75" stroke-linejoin="round" mask="url(#mask-2)"></line>
                <line x1="65.2386" y1="39.6675" x2="86.2516" y2="39.6675" id="Stroke-48" stroke="#7A7A7A" stroke-width="0.75" stroke-linecap="round" stroke-linejoin="round" mask="url(#mask-2)"></line>
                <line x1="68.7229" y1="44.9756" x2="86.2519" y2="44.9756" id="Stroke-49" stroke="#7A7A7A" stroke-width="0.75" stroke-linecap="round" stroke-linejoin="round" mask="url(#mask-2)"></line>
                <path d="M3.9754,58.146 L17.2344,37.884 L3.9754,58.146 Z" id="Fill-50" fill="#E5E5E5" mask="url(#mask-2)"></path>
                <path d="M128.1897,85.4775 C128.0197,81.0985 124.4247,77.5995 120.0047,77.5995 C115.5837,77.5995 111.9897,81.0985 111.8187,85.4775 L111.8017,85.4775 L111.8017,89.7285 L128.2067,89.7285 L128.2067,85.4775 L128.1897,85.4775 Z" id="Fill-51" fill="#FEFEFE" mask="url(#mask-2)"></path>
                <path d="M128.1897,85.4775 C128.0197,81.0985 124.4247,77.5995 120.0047,77.5995 C115.5837,77.5995 111.9897,81.0985 111.8187,85.4775 L111.8017,85.4775 L111.8017,89.7285 L128.2067,89.7285 L128.2067,85.4775 L128.1897,85.4775 Z" id="Stroke-52" stroke="#7A7A7A" stroke-width="0.75" stroke-linejoin="round" mask="url(#mask-2)"></path>
                <polygon id="Fill-53" fill="#FEFEFE" mask="url(#mask-2)" points="118.927 94.0497 121.081 94.0497 121.081 89.7297 118.927 89.7297"></polygon>
                <polygon id="Stroke-54" stroke="#7A7A7A" stroke-width="0.75" stroke-linejoin="round" mask="url(#mask-2)" points="118.927 94.0497 121.081 94.0497 121.081 89.7297 118.927 89.7297"></polygon>
                <polygon id="Fill-55" fill="#FEFEFE" mask="url(#mask-2)" points="27.093 94.0507 51.219 94.0507 51.219 70.6297 27.093 70.6297"></polygon>
                <polygon id="Stroke-56" stroke="#7A7A7A" stroke-width="0.75" stroke-linejoin="round" mask="url(#mask-2)" points="27.093 94.0507 51.219 94.0507 51.219 70.6297 27.093 70.6297"></polygon>
                <polygon id="Fill-57" fill="#FEFEFE" mask="url(#mask-2)" points="23.3 67.2187 54.166 67.2187 54.166 61.6357 23.3 61.6357"></polygon>
                <polygon id="Stroke-58" stroke="#7A7A7A" stroke-width="0.75" stroke-linejoin="round" mask="url(#mask-2)" points="23.3 67.2187 54.166 67.2187 54.166 61.6357 23.3 61.6357"></polygon>
                <line x1="20.2669" y1="35.0523" x2="20.2669" y2="89.0003" id="Stroke-59" stroke="#7A7A7A" stroke-width="0.75" stroke-linejoin="round" mask="url(#mask-2)"></line>
                <line x1="58.032" y1="35.0523" x2="58.032" y2="89.0003" id="Stroke-60" stroke="#7A7A7A" stroke-width="0.75" stroke-linejoin="round" mask="url(#mask-2)"></line>
                <line x1="10.699" y1="46.9502" x2="10.699" y2="94.0502" id="Stroke-61" stroke="#7A7A7A" stroke-width="0.75" stroke-linejoin="round" mask="url(#mask-2)"></line>
                <line x1="66.6868" y1="46.4487" x2="66.6868" y2="94.0497" id="Stroke-62" stroke="#7A7A7A" stroke-width="0.75" stroke-linejoin="round" mask="url(#mask-2)"></line>
                <polygon id="Fill-63" fill="#E5E5E5" mask="url(#mask-2)" points="19.577 94.0497 27.092 94.0497 27.092 70.6287 19.577 70.6287"></polygon>
                <polygon id="Stroke-64" stroke="#7A7A7A" stroke-width="0.75" stroke-linejoin="round" mask="url(#mask-2)" points="19.577 94.0497 27.092 94.0497 27.092 70.6287 19.577 70.6287"></polygon>
                <polygon id="Fill-65" fill="#E5E5E5" mask="url(#mask-2)" points="51.218 94.0497 58.733 94.0497 58.733 70.6287 51.218 70.6287"></polygon>
                <polygon id="Stroke-66" stroke="#7A7A7A" stroke-width="0.75" stroke-linejoin="round" mask="url(#mask-2)" points="51.218 94.0497 58.733 94.0497 58.733 70.6287 51.218 70.6287"></polygon>
                <g id="Group-69" mask="url(#mask-2)">
                    <g transform="translate(38.000000, 70.425700)">
                        <line x1="0.7327" y1="0.2042" x2="0.7327" y2="23.6252" id="Fill-67" stroke="none" fill="#FEFEFE" fill-rule="evenodd"></line>
                        <line x1="0.7327" y1="0.2042" x2="0.7327" y2="23.6252" id="Stroke-68" stroke="#7A7A7A" stroke-width="0.75" fill="none" stroke-linejoin="round"></line>
                    </g>
                </g>
                <line x1="77.4876" y1="69.8164" x2="77.4876" y2="94.0494" id="Stroke-70" stroke="#7A7A7A" stroke-width="0.75" stroke-linejoin="round" mask="url(#mask-2)"></line>
                <line x1="86.2518" y1="69.8164" x2="86.2518" y2="94.0494" id="Stroke-71" stroke="#7A7A7A" stroke-width="0.75" stroke-linejoin="round" mask="url(#mask-2)"></line>
                <line x1="94.8533" y1="69.8164" x2="94.8533" y2="94.0494" id="Stroke-72" stroke="#7A7A7A" stroke-width="0.75" stroke-linejoin="round" mask="url(#mask-2)"></line>
                <line x1="103.4373" y1="69.8164" x2="103.4373" y2="94.0494" id="Stroke-73" stroke="#7A7A7A" stroke-width="0.75" stroke-linejoin="round" mask="url(#mask-2)"></line>
                <line x1="111.802" y1="69.8164" x2="111.802" y2="94.0494" id="Stroke-74" stroke="#7A7A7A" stroke-width="0.75" stroke-linejoin="round" mask="url(#mask-2)"></line>
                <polygon id="Fill-75" fill="#FEFEFE" mask="url(#mask-2)" points="84.879 86.6367 95.152 86.6367 95.152 74.1117 84.879 74.1117"></polygon>
                <polygon id="Stroke-76" stroke="#7A7A7A" stroke-width="0.75" stroke-linejoin="round" mask="url(#mask-2)" points="84.879 86.6367 95.152 86.6367 95.152 74.1117 84.879 74.1117"></polygon>
                <g id="Group-79" mask="url(#mask-2)">
                    <g transform="translate(84.000000, 73.425700)">
                        <line x1="11.1517" y1="0.6856" x2="0.8787" y2="13.2106" id="Fill-77" stroke="none" fill="#FEFEFE" fill-rule="evenodd"></line>
                        <line x1="11.1517" y1="0.6856" x2="0.8787" y2="13.2106" id="Stroke-78" stroke="#7A7A7A" stroke-width="0.75" fill="none" stroke-linejoin="round"></line>
                    </g>
                </g>
                <g id="Group-82" mask="url(#mask-2)">
                    <g transform="translate(84.000000, 73.425700)">
                        <line x1="0.8787" y1="0.6856" x2="11.1517" y2="13.2106" id="Fill-80" stroke="none" fill="#FEFEFE" fill-rule="evenodd"></line>
                        <line x1="0.8787" y1="0.6856" x2="11.1517" y2="13.2106" id="Stroke-81" stroke="#7A7A7A" stroke-width="0.75" fill="none" stroke-linejoin="round"></line>
                    </g>
                </g>
                <polygon id="Fill-83" fill="#FEFEFE" mask="url(#mask-2)" points="95.152 86.6367 105.425 86.6367 105.425 74.1117 95.152 74.1117"></polygon>
                <polygon id="Stroke-84" stroke="#7A7A7A" stroke-width="0.75" stroke-linejoin="round" mask="url(#mask-2)" points="95.152 86.6367 105.425 86.6367 105.425 74.1117 95.152 74.1117"></polygon>
                <line x1="105.4246" y1="74.1113" x2="95.1516" y2="86.6363" id="Stroke-85" stroke="#7A7A7A" stroke-width="0.75" stroke-linejoin="round" mask="url(#mask-2)"></line>
                <line x1="95.1517" y1="74.1113" x2="105.4247" y2="86.6363" id="Stroke-86" stroke="#7A7A7A" stroke-width="0.75" stroke-linejoin="round" mask="url(#mask-2)"></line>
            </g>
        </g>
    </g>
</svg>