<?xml version="1.0" encoding="UTF-8"?>
<svg width="115px" height="101px" viewBox="0 0 115 101" version="1.1" xmlns="http://www.w3.org/2000/svg" xmlns:xlink="http://www.w3.org/1999/xlink">
    <!-- Generator: Sketch 64 (93537) - https://sketch.com -->
    <title>Group 65</title>
    <desc>Created with Sketch.</desc>
    <defs>
        <path d="M0.328,10.896 L0.328,35.537 L21.035,35.537 L21.035,10.896 C21.035,5.052 16.4,0.314 10.682,0.314 L10.682,0.314 C4.963,0.314 0.328,5.052 0.328,10.896 L0.328,10.896 Z" id="path-1"></path>
        <polygon id="path-3" points="0 183 195.792 183 195.792 0.949 0 0.949"></polygon>
    </defs>
    <g id="Pearl-Form-V3" stroke="none" stroke-width="1" fill="none" fill-rule="evenodd">
        <g id="KW_Pearl_Desktop_14" transform="translate(-971.000000, -478.000000)">
            <g id="Group-65" transform="translate(931.000000, 408.000000)">
                <polygon id="Fill-1" fill="#E5E5E5" points="46.778 104.805 148.455 104.805 148.455 103.183 46.778 103.183"></polygon>
                <polygon id="Stroke-2" stroke="#7A7A7A" stroke-width="0.75" stroke-linejoin="round" points="46.4359 103.1825 148.8339 103.1825 148.8339 111.0435 46.4359 111.0435 46.4359 107.1135"></polygon>
                <polygon id="Fill-3" fill="#E5E5E5" points="50.175 114.203 60.738 114.203 60.738 111.044 50.175 111.044"></polygon>
                <polygon id="Stroke-4" stroke="#7A7A7A" stroke-width="0.75" stroke-linejoin="round" points="50.175 114.203 60.738 114.203 60.738 111.044 50.175 111.044"></polygon>
                <polygon id="Stroke-5" stroke="#7A7A7A" stroke-width="0.75" stroke-linejoin="round" points="123.369 140.728 129.068 140.728 129.068 119.787 123.369 119.787"></polygon>
                <polygon id="Stroke-6" stroke="#7A7A7A" stroke-width="0.75" stroke-linejoin="round" points="129.068 140.728 134.767 140.728 134.767 119.787 129.068 119.787"></polygon>
                <polygon id="Stroke-7" stroke="#7A7A7A" stroke-width="0.75" stroke-linejoin="round" points="61.85 140.728 67.549 140.728 67.549 119.787 61.85 119.787"></polygon>
                <polygon id="Stroke-8" stroke="#7A7A7A" stroke-width="0.75" stroke-linejoin="round" points="67.55 140.728 73.249 140.728 73.249 119.787 67.55 119.787"></polygon>
                <polygon id="Fill-9" fill="#E5E5E5" points="50.175 153.903 60.738 153.903 60.738 150.743 50.175 150.743"></polygon>
                <polygon id="Stroke-10" stroke="#7A7A7A" stroke-width="0.75" stroke-linejoin="round" points="50.175 153.903 60.738 153.903 60.738 150.743 50.175 150.743"></polygon>
                <polygon id="Fill-11" fill="#E5E5E5" points="74.362 114.203 84.925 114.203 84.925 111.044 74.362 111.044"></polygon>
                <polygon id="Stroke-12" stroke="#7A7A7A" stroke-width="0.75" stroke-linejoin="round" points="74.362 114.203 84.925 114.203 84.925 111.044 74.362 111.044"></polygon>
                <polygon id="Fill-13" fill="#E5E5E5" points="74.362 153.903 84.925 153.903 84.925 150.743 74.362 150.743"></polygon>
                <polygon id="Stroke-14" stroke="#7A7A7A" stroke-width="0.75" stroke-linejoin="round" points="74.362 153.903 84.925 153.903 84.925 150.743 74.362 150.743"></polygon>
                <polygon id="Fill-15" fill="#E5E5E5" points="136.011 153.903 146.574 153.903 146.574 150.743 136.011 150.743"></polygon>
                <polygon id="Stroke-16" stroke="#7A7A7A" stroke-width="0.75" stroke-linejoin="round" points="136.011 153.903 146.574 153.903 146.574 150.743 136.011 150.743"></polygon>
                <polygon id="Fill-17" fill="#E5E5E5" points="136.011 114.191 146.574 114.191 146.574 111.032 136.011 111.032"></polygon>
                <polygon id="Stroke-18" stroke="#7A7A7A" stroke-width="0.75" stroke-linejoin="round" points="136.011 114.191 146.574 114.191 146.574 111.032 136.011 111.032"></polygon>
                <polygon id="Fill-19" fill="#E5E5E5" points="111.561 114.203 122.124 114.203 122.124 111.044 111.561 111.044"></polygon>
                <polygon id="Stroke-20" stroke="#7A7A7A" stroke-width="0.75" stroke-linejoin="round" points="111.561 114.203 122.124 114.203 122.124 111.044 111.561 111.044"></polygon>
                <polygon id="Fill-21" fill="#E5E5E5" points="111.561 153.653 122.124 153.653 122.124 150.493 111.561 150.493"></polygon>
                <polygon id="Stroke-22" stroke="#7A7A7A" stroke-width="0.75" stroke-linejoin="round" points="111.561 153.653 122.124 153.653 122.124 150.493 111.561 150.493"></polygon>
                <polygon id="Stroke-23" stroke="#7A7A7A" stroke-width="0.75" stroke-linejoin="round" points="45.746 159.336 149.617 159.336 149.617 153.903 45.746 153.903"></polygon>
                <polygon id="Stroke-24" stroke="#7A7A7A" stroke-width="0.75" stroke-linejoin="round" points="43.657 164.77 151.952 164.77 151.952 159.337 43.657 159.337"></polygon>
                <polygon id="Stroke-25" stroke="#7A7A7A" stroke-width="0.75" stroke-linejoin="round" points="41.161 170.202 153.796 170.202 153.796 164.77 41.161 164.77"></polygon>
                <polygon id="Stroke-26" stroke="#7A7A7A" stroke-width="0.75" stroke-linejoin="round" points="114.015 150.493 119.671 150.493 119.671 114.191 114.015 114.191"></polygon>
                <polygon id="Stroke-27" stroke="#7A7A7A" stroke-width="0.75" stroke-linejoin="round" points="52.629 150.735 58.285 150.735 58.285 114.2 52.629 114.2"></polygon>
                <polygon id="Stroke-28" stroke="#7A7A7A" stroke-width="0.75" stroke-linejoin="round" points="76.815 150.735 82.471 150.735 82.471 114.2 76.815 114.2"></polygon>
                <polygon id="Stroke-29" stroke="#7A7A7A" stroke-width="0.75" stroke-linejoin="round" points="138.464 150.735 144.12 150.735 144.12 114.2 138.464 114.2"></polygon>
                <g id="Group-33" transform="translate(87.000000, 118.051000)">
                    <mask id="mask-2" fill="white">
                        <use xlink:href="#path-1"></use>
                    </mask>
                    <g id="Clip-31"></g>
                    <polygon id="Fill-30" fill="#E5E5E5" mask="url(#mask-2)" points="-8.492 44.549 29.855 44.549 29.855 -8.698 -8.492 -8.698"></polygon>
                    <polygon id="Fill-32" fill="#E5E5E5" mask="url(#mask-2)" points="-8.492 44.549 29.855 44.549 29.855 -8.698 -8.492 -8.698"></polygon>
                </g>
                <g id="Group-64" transform="translate(0.000000, 0.051000)">
                    <path d="M97.6815,118.3141 C91.9625,118.3141 87.3275,123.0511 87.3275,128.8971 L87.3275,153.5371 L108.0355,153.5371 L108.0355,128.8971 C108.0355,123.0511 103.3995,118.3141 97.6815,118.3141 Z" id="Stroke-34" stroke="#7A7A7A" stroke-width="0.75" stroke-linejoin="round"></path>
                    <path d="M90.7845,153.5358 L90.7845,128.8958 C90.7845,125.0098 93.8785,121.8488 97.6815,121.8488 C101.4845,121.8488 104.5775,125.0098 104.5775,128.8958 L104.5775,153.5358 L90.7845,153.5358 Z" id="Stroke-36" stroke="#7A7A7A" stroke-width="0.75" stroke-linejoin="round"></path>
                    <mask id="mask-4" fill="white">
                        <use xlink:href="#path-3"></use>
                    </mask>
                    <g id="Clip-39"></g>
                    <polygon id="Fill-38" fill="#E5E5E5" mask="url(#mask-4)" points="138.845 115.779 143.737 115.779 143.737 114.528 138.845 114.528"></polygon>
                    <path d="M136.2196,144.5612 L121.9116,144.5612 C121.8246,144.5612 121.7546,144.4912 121.7546,144.4042 L121.7546,142.7232 C121.7546,142.6362 121.8246,142.5652 121.9116,142.5652 L136.2196,142.5652 C136.3066,142.5652 136.3766,142.6362 136.3766,142.7232 L136.3766,144.4042 C136.3766,144.4912 136.3066,144.5612 136.2196,144.5612" id="Fill-40" fill="#E5E5E5" mask="url(#mask-4)"></path>
                    <polygon id="Fill-41" fill="#E5E5E5" mask="url(#mask-4)" points="74.743 112.398 84.552 112.398 84.552 111.368 74.743 111.368"></polygon>
                    <polygon id="Fill-42" fill="#E5E5E5" mask="url(#mask-4)" points="111.934 112.41 121.747 112.41 121.747 111.381 111.934 111.381"></polygon>
                    <polygon id="Fill-43" fill="#E5E5E5" mask="url(#mask-4)" points="136.405 112.393 146.206 112.393 146.206 111.363 136.405 111.363"></polygon>
                    <polygon id="Fill-44" fill="#E5E5E5" mask="url(#mask-4)" points="50.554 112.404 60.366 112.404 60.366 111.374 50.554 111.374"></polygon>
                    <polygon id="Fill-45" fill="#E5E5E5" mask="url(#mask-4)" points="114.375 115.758 119.306 115.758 119.306 114.508 114.375 114.508"></polygon>
                    <polygon id="Fill-46" fill="#E5E5E5" mask="url(#mask-4)" points="77.193 115.776 82.092 115.776 82.092 114.525 77.193 114.525"></polygon>
                    <polygon id="Fill-47" fill="#E5E5E5" mask="url(#mask-4)" points="53.008 115.774 57.909 115.774 57.909 114.523 53.008 114.523"></polygon>
                    <polygon id="Stroke-48" stroke="#7A7A7A" stroke-width="0.75" stroke-linejoin="round" mask="url(#mask-4)" points="97.6351 79.6398 56.3251 99.9758 138.9441 99.9758"></polygon>
                    <polygon id="Stroke-49" stroke="#7A7A7A" stroke-width="0.75" stroke-linejoin="round" mask="url(#mask-4)" points="97.8046 75.2248 45.9916 100.1468 45.9916 103.1318 149.6166 103.1318 149.6166 100.0308"></polygon>
                    <polygon id="Stroke-50" stroke="#7A7A7A" stroke-width="0.75" stroke-linejoin="round" mask="url(#mask-4)" points="97.8046 70.7433 44.1846 97.0783 45.9916 100.1473 149.6166 100.0313 151.3286 96.3693"></polygon>
                    <polygon id="Fill-51" fill="#E5E5E5" mask="url(#mask-4)" points="63.2684 99.6008 97.6814 82.8708 132.9554 99.5798 137.2624 99.6438 97.6354 80.0958 58.0564 99.5628"></polygon>
                    <polygon id="Stroke-52" stroke="#7A7A7A" stroke-width="0.75" stroke-linejoin="round" mask="url(#mask-4)" points="122.124 142.642 136.01 142.642 136.01 140.677 122.124 140.677"></polygon>
                    <polygon id="Fill-53" fill="#FEFEFE" mask="url(#mask-4)" points="122.124 121.701 136.01 121.701 136.01 119.736 122.124 119.736"></polygon>
                    <polygon id="Stroke-54" stroke="#7A7A7A" stroke-width="0.75" stroke-linejoin="round" mask="url(#mask-4)" points="122.124 121.701 136.01 121.701 136.01 119.736 122.124 119.736"></polygon>
                    <path d="M74.5731,144.5612 L60.2651,144.5612 C60.1781,144.5612 60.1081,144.4912 60.1081,144.4042 L60.1081,142.7232 C60.1081,142.6362 60.1781,142.5652 60.2651,142.5652 L74.5731,142.5652 C74.6601,142.5652 74.7301,142.6362 74.7301,142.7232 L74.7301,144.4042 C74.7301,144.4912 74.6601,144.5612 74.5731,144.5612" id="Fill-55" fill="#E5E5E5" mask="url(#mask-4)"></path>
                    <polygon id="Stroke-56" stroke="#7A7A7A" stroke-width="0.75" stroke-linejoin="round" mask="url(#mask-4)" points="60.478 142.642 74.364 142.642 74.364 140.677 60.478 140.677"></polygon>
                    <polygon id="Fill-57" fill="#FEFEFE" mask="url(#mask-4)" points="60.478 121.701 74.364 121.701 74.364 119.736 60.478 119.736"></polygon>
                    <polygon id="Stroke-58" stroke="#7A7A7A" stroke-width="0.75" stroke-linejoin="round" mask="url(#mask-4)" points="60.478 121.701 74.364 121.701 74.364 119.736 60.478 119.736"></polygon>
                    <line x1="55.4564" y1="114.1486" x2="55.4564" y2="150.6836" id="Stroke-59" stroke="#7A7A7A" stroke-width="0.75" stroke-linecap="round" stroke-linejoin="round" mask="url(#mask-4)"></line>
                    <line x1="79.6469" y1="114.1486" x2="79.6469" y2="150.6836" id="Stroke-60" stroke="#7A7A7A" stroke-width="0.75" stroke-linecap="round" stroke-linejoin="round" mask="url(#mask-4)"></line>
                    <line x1="116.8402" y1="114.1486" x2="116.8402" y2="150.6836" id="Stroke-61" stroke="#7A7A7A" stroke-width="0.75" stroke-linecap="round" stroke-linejoin="round" mask="url(#mask-4)"></line>
                    <line x1="141.2909" y1="114.1486" x2="141.2909" y2="150.6836" id="Stroke-62" stroke="#7A7A7A" stroke-width="0.75" stroke-linecap="round" stroke-linejoin="round" mask="url(#mask-4)"></line>
                    <line x1="148.8339" y1="109.0622" x2="46.4359" y2="109.0622" id="Stroke-63" stroke="#7B7A7A" mask="url(#mask-4)"></line>
                </g>
            </g>
        </g>
    </g>
</svg>