<?xml version="1.0" encoding="UTF-8"?>
<svg width="126px" height="88px" viewBox="0 0 126 88" version="1.1" xmlns="http://www.w3.org/2000/svg" xmlns:xlink="http://www.w3.org/1999/xlink">
    <!-- Generator: Sketch 64 (93537) - https://sketch.com -->
    <title>Group 77</title>
    <desc>Created with Sketch.</desc>
    <g id="Pearl-Form-V3" stroke="none" stroke-width="1" fill="none" fill-rule="evenodd">
        <g id="KW_Pearl_Desktop_14" transform="translate(-786.000000, -491.000000)">
            <g id="Group-77" transform="translate(786.000000, 491.000000)">
                <polygon id="Fill-1" fill="#E5E5E5" points="3.5729 25.732 3.5729 30.281 24.3149 9.538 45.0579 30.281 45.0579 25.732 24.3149 4.99"></polygon>
                <polygon id="Stroke-2" stroke="#E5E5E5" stroke-width="0.75" stroke-linejoin="round" points="45.0581 25.7324 24.3151 4.9894 3.5731 25.7324 3.5731 30.2804 24.3151 9.5384 45.0581 30.2804"></polygon>
                <polygon id="Fill-3" fill="#E5E5E5" points="8.813 86.6674 24.169 86.6674 24.169 84.2984 8.813 84.2984"></polygon>
                <polygon id="Stroke-4" stroke="#E5E5E5" stroke-width="0.75" stroke-linejoin="round" points="8.812 86.6664 24.169 86.6664 24.169 84.2984 8.812 84.2984"></polygon>
                <polygon id="Fill-5" fill="#E5E5E5" points="13.984 38.3184 34.569 38.3184 34.569 35.8214 13.984 35.8214"></polygon>
                <polygon id="Stroke-6" stroke="#E5E5E5" stroke-width="0.75" stroke-linejoin="round" points="13.984 38.3184 34.568 38.3184 34.568 35.8224 13.984 35.8224"></polygon>
                <polygon id="Stroke-7" stroke="#7A7A7A" stroke-width="0.75" stroke-linejoin="round" points="11.4785 13.2119 6.2815 18.4419 6.2815 7.7649 11.4785 7.7649"></polygon>
                <polygon id="Fill-8" fill="#FEFEFE" points="16.5599 23.014 16.5599 28.169 16.5599 33.326 24.3149 33.326 32.0709 33.326 32.0709 28.169 32.0709 23.014 24.3149 15.524"></polygon>
                <polygon id="Stroke-9" stroke="#7A7A7A" stroke-width="0.75" stroke-linejoin="round" points="32.0703 33.3262 24.3153 33.3262 16.5603 33.3262 16.5603 28.1692 16.5603 23.0132 24.3153 15.5242 32.0703 23.0132 32.0703 28.1692"></polygon>
                <polygon id="Stroke-10" stroke="#7A7A7A" stroke-width="0.75" stroke-linejoin="round" points="45.0581 25.666 24.3151 4.989 3.5731 25.666 3.5731 86.667 45.0581 86.667"></polygon>
                <polygon id="Fill-11" fill="#FEFEFE" points="11.517 81.7204 21.756 81.7204 21.756 66.4414 11.517 66.4414"></polygon>
                <polygon id="Stroke-12" stroke="#7A7A7A" stroke-width="0.75" stroke-linejoin="round" points="11.518 81.7194 21.757 81.7194 21.757 66.4404 11.518 66.4404"></polygon>
                <polygon id="Fill-13" fill="#E5E5E5" points="29.487 86.6674 39.727 86.6674 39.727 66.4404 29.487 66.4404"></polygon>
                <polygon id="Stroke-14" stroke="#7A7A7A" stroke-width="0.75" stroke-linejoin="round" points="29.486 86.6674 39.726 86.6674 39.726 66.4404 29.486 66.4404"></polygon>
                <polygon id="Stroke-15" stroke="#7A7A7A" stroke-width="0.75" stroke-linejoin="round" points="45.0581 21.1182 24.3151 0.3752 0.8391 23.8512 0.8391 28.3992 24.3151 4.9242 45.0581 25.6662"></polygon>
                <polygon id="Stroke-17" stroke="#7A7A7A" stroke-width="0.75" stroke-linejoin="round" points="14.023 35.8224 34.608 35.8224 34.608 33.3264 14.023 33.3264"></polygon>
                <polygon id="Stroke-18" stroke="#7A7A7A" stroke-width="0.75" stroke-linejoin="round" points="8.958 84.2984 24.315 84.2984 24.315 81.7194 8.958 81.7194"></polygon>
                <polygon id="Fill-19" fill="#E5E5E5" points="45.0584 25.732 45.0584 30.281 65.8004 9.538 86.5434 30.281 86.5434 25.732 65.8004 4.99"></polygon>
                <polygon id="Stroke-20" stroke="#E5E5E5" stroke-width="0.75" stroke-linejoin="round" points="86.5434 25.7324 65.8004 4.9894 45.0584 25.7324 45.0584 30.2804 65.8004 9.5384 86.5434 30.2804"></polygon>
                <polygon id="Fill-21" fill="#E5E5E5" points="50.336 86.6674 65.694 86.6674 65.694 84.2984 50.336 84.2984"></polygon>
                <polygon id="Stroke-22" stroke="#E5E5E5" stroke-width="0.75" stroke-linejoin="round" points="50.337 86.6664 65.694 86.6664 65.694 84.2984 50.337 84.2984"></polygon>
                <polygon id="Stroke-23" stroke="#7A7A7A" stroke-width="0.75" stroke-linejoin="round" points="52.9643 13.2119 47.7673 18.4419 47.7673 7.7649 52.9643 7.7649"></polygon>
                <polygon id="Fill-24" fill="#FEFEFE" points="58.0463 23.014 58.0463 28.169 58.0463 33.326 65.8013 33.326 73.5563 33.326 73.5563 28.169 73.5563 23.014 65.8013 15.524"></polygon>
                <polygon id="Stroke-25" stroke="#7A7A7A" stroke-width="0.75" stroke-linejoin="round" points="73.5561 33.3262 65.8011 33.3262 58.0461 33.3262 58.0461 28.1692 58.0461 23.0132 65.8011 15.5242 73.5561 23.0132 73.5561 28.1692"></polygon>
                <polygon id="Stroke-26" stroke="#7A7A7A" stroke-width="0.75" stroke-linejoin="round" points="86.5434 25.666 65.8004 4.989 45.0584 25.666 45.0584 86.667 86.5434 86.667"></polygon>
                <polygon id="Fill-27" fill="#FEFEFE" points="53.003 81.7204 63.241 81.7204 63.241 66.4414 53.003 66.4414"></polygon>
                <polygon id="Stroke-28" stroke="#7A7A7A" stroke-width="0.75" stroke-linejoin="round" points="53.002 81.7194 63.241 81.7194 63.241 66.4404 53.002 66.4404"></polygon>
                <polygon id="Fill-29" fill="#E5E5E5" points="70.973 86.6674 81.211 86.6674 81.211 66.4404 70.973 66.4404"></polygon>
                <polygon id="Stroke-30" stroke="#7A7A7A" stroke-width="0.75" stroke-linejoin="round" points="70.973 86.6674 81.212 86.6674 81.212 66.4404 70.973 66.4404"></polygon>
                <polygon id="Stroke-31" stroke="#7A7A7A" stroke-width="0.75" stroke-linejoin="round" points="50.444 84.2984 65.801 84.2984 65.801 81.7194 50.444 81.7194"></polygon>
                <polygon id="Stroke-32" stroke="#7A7A7A" stroke-width="0.75" stroke-linejoin="round" points="65.8008 0.375 45.0578 21.118 45.0578 25.666 65.8008 4.923 89.2038 28.399 89.2038 23.852"></polygon>
                <polygon id="Fill-34" fill="#E5E5E5" points="55.509 38.3184 76.094 38.3184 76.094 35.8214 55.509 35.8214"></polygon>
                <polygon id="Stroke-35" stroke="#E5E5E5" stroke-width="0.75" stroke-linejoin="round" points="55.509 38.3184 76.093 38.3184 76.093 35.8224 55.509 35.8224"></polygon>
                <polygon id="Stroke-36" stroke="#7A7A7A" stroke-width="0.75" stroke-linejoin="round" points="55.509 35.8224 76.093 35.8224 76.093 33.3264 55.509 33.3264"></polygon>
                <polygon id="Fill-37" fill="#FEFEFE" points="12.381 56.1884 22.309 56.1884 22.309 40.9874 12.381 40.9874"></polygon>
                <polygon id="Stroke-38" stroke="#7A7A7A" stroke-width="0.75" stroke-linejoin="round" points="12.381 56.1884 22.309 56.1884 22.309 40.9884 12.381 40.9884"></polygon>
                <polygon id="Fill-39" fill="#FEFEFE" points="28.116 56.1884 38.044 56.1884 38.044 40.9874 28.116 40.9874"></polygon>
                <polygon id="Stroke-40" stroke="#7A7A7A" stroke-width="0.75" stroke-linejoin="round" points="28.116 56.1884 38.044 56.1884 38.044 40.9884 28.116 40.9884"></polygon>
                <polygon id="Fill-41" fill="#E5E5E5" points="9.817 61.2454 40.61 61.2454 40.61 58.7174 9.817 58.7174"></polygon>
                <polygon id="Stroke-42" stroke="#E5E5E5" stroke-width="0.75" stroke-linejoin="round" points="9.817 61.2444 40.609 61.2444 40.609 58.7164 9.817 58.7164"></polygon>
                <polygon id="Stroke-43" stroke="#7A7A7A" stroke-width="0.75" stroke-linejoin="round" points="9.855 58.7164 40.648 58.7164 40.648 56.1884 9.855 56.1884"></polygon>
                <polygon id="Stroke-44" stroke="#E5E5E5" stroke-width="0.75" stroke-linejoin="round" points="50.366 63.3734 81.159 63.3734 81.159 60.8454 50.366 60.8454"></polygon>
                <polygon id="Fill-45" fill="#FEFEFE" points="52.97 58.3164 78.633 58.3164 78.633 43.1164 52.97 43.1164"></polygon>
                <polygon id="Fill-46" fill="#E5E5E5" points="50.367 63.3734 81.16 63.3734 81.16 60.8454 50.367 60.8454"></polygon>
                <polygon id="Stroke-47" stroke="#7A7A7A" stroke-width="0.75" stroke-linejoin="round" points="52.971 58.3164 78.634 58.3164 78.634 43.1164 52.971 43.1164"></polygon>
                <polygon id="Stroke-48" stroke="#7A7A7A" stroke-width="0.75" stroke-linejoin="round" points="50.445 60.8454 81.237 60.8454 81.237 58.3164 50.445 58.3164"></polygon>
                <polygon id="Fill-49" fill="#FEFEFE" points="124.8984 78.2383 120.4054 82.7173 98.8294 61.0803 103.3214 56.5993"></polygon>
                <polygon id="Stroke-50" stroke="#7A7A7A" stroke-width="0.75" stroke-linejoin="round" points="124.8984 78.2383 120.4054 82.7173 98.8294 61.0803 103.3214 56.5993"></polygon>
                <polygon id="Fill-52" fill="#FEFEFE" points="92.0034 66.9404 87.9594 70.9724 76.6514 59.6324 80.6954 55.6004"></polygon>
                <polygon id="Stroke-53" stroke="#7A7A7A" stroke-width="0.75" stroke-linejoin="round" points="92.0034 66.9404 87.9594 70.9724 76.6514 59.6324 80.6954 55.6004"></polygon>
                <polygon id="Fill-54" fill="#E5E5E5" points="93.0356 63.2139 92.2586 63.9889 83.5976 55.3039 84.3746 54.5279"></polygon>
                <polygon id="Fill-55" fill="#E5E5E5" points="105.7353 50.5147 104.9573 51.2897 96.2963 42.6047 97.0743 41.8287"></polygon>
                <polygon id="Fill-56" fill="#FEFEFE" points="106.8091 53.1465 94.8831 65.0395 82.5211 52.6425 94.4471 40.7505"></polygon>
                <polygon id="Stroke-57" stroke="#7A7A7A" stroke-width="0.75" stroke-linejoin="round" points="106.8091 53.1465 94.8831 65.0395 82.5211 52.6425 94.4471 40.7505"></polygon>
                <polygon id="Fill-58" fill="#E5E5E5" points="104.5102 58.2744 100.5142 62.2584 99.3162 61.0574 103.3122 57.0734"></polygon>
                <polygon id="Fill-59" fill="#FEFEFE" points="107.3296 48.9209 104.9556 51.2879 96.2946 42.6029 98.6686 40.2349"></polygon>
                <polygon id="Stroke-60" stroke="#7A7A7A" stroke-width="0.75" stroke-linejoin="round" points="107.3296 48.9209 104.9556 51.2879 96.2946 42.6029 98.6686 40.2349"></polygon>
                <polygon id="Fill-61" fill="#FEFEFE" points="93.0356 63.2139 90.6616 65.5819 82.0006 56.8959 84.3746 54.5279"></polygon>
                <polygon id="Stroke-62" stroke="#7A7A7A" stroke-width="0.75" stroke-linejoin="round" points="93.0356 63.2139 90.6616 65.5819 82.0006 56.8959 84.3746 54.5279"></polygon>
                <polygon id="Fill-63" fill="#FEFEFE" points="112.729 46.2148 108.686 50.2468 97.377 38.9068 101.421 34.8748"></polygon>
                <polygon id="Stroke-64" stroke="#7A7A7A" stroke-width="0.75" stroke-linejoin="round" points="112.729 46.2148 108.686 50.2468 97.377 38.9068 101.421 34.8748"></polygon>
                <polygon id="Fill-65" fill="#E5E5E5" points="109.8686 49.0732 108.6886 50.2502 97.3806 38.9102 98.5606 37.7332"></polygon>
                <polygon id="Stroke-66" stroke="#7A7A7A" stroke-width="0.75" stroke-linejoin="round" points="109.8686 49.0732 108.6886 50.2502 97.3806 38.9102 98.5606 37.7332"></polygon>
                <polygon id="Fill-67" fill="#E5E5E5" points="92.0019 66.9395 90.8219 68.1165 79.5139 56.7765 80.6939 55.5995"></polygon>
                <polygon id="Stroke-68" stroke="#7A7A7A" stroke-width="0.75" stroke-linejoin="round" points="92.0019 66.9395 90.8219 68.1165 79.5139 56.7765 80.6939 55.5995"></polygon>
                <polygon id="Fill-69" fill="#FEFEFE" points="71.125 80.6294 93.919 80.6294 93.919 73.7144 71.125 73.7144"></polygon>
                <polygon id="Stroke-70" stroke="#7A7A7A" stroke-width="0.75" stroke-linejoin="round" points="71.125 80.6294 93.919 80.6294 93.919 73.7144 71.125 73.7144"></polygon>
                <polygon id="Fill-71" fill="#FEFEFE" points="63.888 86.8154 101.155 86.8154 101.155 80.6284 63.888 80.6284"></polygon>
                <polygon id="Stroke-72" stroke="#7A7A7A" stroke-width="0.75" stroke-linejoin="round" points="63.888 86.8154 101.155 86.8154 101.155 80.6284 63.888 80.6284"></polygon>
                <polygon id="Fill-73" fill="#E5E5E5" points="63.888 82.1294 101.155 82.1294 101.155 80.6294 63.888 80.6294"></polygon>
                <polygon id="Stroke-74" stroke="#7A7A7A" stroke-width="0.75" stroke-linejoin="round" points="63.888 82.1294 101.155 82.1294 101.155 80.6294 63.888 80.6294"></polygon>
                <polygon id="Fill-75" fill="#E5E5E5" points="71.125 75.2084 93.919 75.2084 93.919 73.7154 71.125 73.7154"></polygon>
                <polygon id="Stroke-76" stroke="#7A7A7A" stroke-width="0.75" stroke-linejoin="round" points="71.125 75.2084 93.919 75.2084 93.919 73.7154 71.125 73.7154"></polygon>
            </g>
        </g>
    </g>
</svg>