<?xml version="1.0" encoding="UTF-8"?>
<svg width="135px" height="62px" viewBox="0 0 135 62" version="1.1" xmlns="http://www.w3.org/2000/svg" xmlns:xlink="http://www.w3.org/1999/xlink">
    <!-- Generator: sketchtool 59.1 (101010) - https://sketch.com -->
    <title>39FC27F3-8EBF-4332-B29E-9DA691879010</title>
    <desc>Created with sketchtool.</desc>
    <g id="Comps" stroke="none" stroke-width="1" fill="none" fill-rule="evenodd">
        <g id="KW-home" transform="translate(-1168.000000, -4183.000000)" fill="#FFFFFF">
            <g id="global-/-footer" transform="translate(0.000000, 4058.000000)">
                <g id="Footer">
                    <g id="Group-2" transform="translate(1168.000000, 125.000000)">
                        <path d="M133.660554,59.2990283 C134.396674,59.2990283 135,59.9038044 135,60.6479654 C135,61.3936752 134.396674,62 133.660554,62 C132.919829,62 132.318038,61.3936752 132.318038,60.6479654 C132.318038,59.9038044 132.919829,59.2990283 133.660554,59.2990283 Z M128.091684,48.0041965 C129.180128,48.0041965 130.570235,48.453326 131.190448,49.2021332 L131.190448,50.3590288 C130.336119,49.2439487 129.120256,48.9798916 128.188401,48.9798916 C126.567249,48.9798916 125.339872,50.1003922 125.339872,51.5825194 C125.339872,55.2134989 131.771514,53.4789299 131.771514,58.252092 C131.771514,60.3482877 130.051343,61.9845128 127.850661,61.9845128 C126.743028,61.9845128 125.555565,61.6794145 124.385757,60.7858017 L124.385757,59.5483726 C125.702942,60.8082582 126.743028,61.0080434 127.791557,61.0080434 C129.397356,61.0080434 130.63855,59.827917 130.63855,58.2915844 C130.63855,54.4166812 124.209979,56.1117578 124.209979,51.6220118 C124.209979,49.6071241 125.947804,48.0103914 128.091684,48.0041965 Z M63.851258,48.063048 L67.4988486,59.3307771 L71.7750959,48.1327405 L72.9134328,48.1327405 L67.7237527,61.8838458 L67.2332623,61.8838458 L63.4413646,49.761222 L59.713177,61.8838458 L59.2242217,61.8838458 L54.0084435,48.1327405 L55.1222175,48.1327405 L59.4598721,59.3400694 L63.0606397,48.063048 L63.851258,48.063048 Z M133.660554,59.4693878 C133.014243,59.4693878 132.488443,60.0005995 132.488443,60.6479654 C132.488443,61.3015262 133.014243,61.8257687 133.660554,61.8257687 C134.30226,61.8257687 134.825757,61.3015262 134.825757,60.6479654 C134.825757,60.0005995 134.30226,59.4693878 133.660554,59.4693878 Z M49.1234968,48.1629406 C51.8622601,48.1629406 53.5440512,49.6210626 53.5647761,51.9813154 C53.5816631,53.3472885 53.4127932,54.1897934 51.9236674,55.4318687 L51.9236674,55.4318687 L54.4283156,61.8064097 L52.4179957,61.8064097 L49.9732196,55.7052182 C49.74876,55.7066854 49.4350472,55.7075348 49.1108354,55.7080104 L47.6566311,55.7083156 L47.6566311,61.8110559 L45.7123241,61.8110559 L45.7123241,48.1629406 Z M30.3282729,48.1629406 L30.3282729,60.0462868 L35.3375693,60.0462868 L35.3375693,61.8095072 L28.3839659,61.8095072 L28.3839659,48.1629406 L30.3282729,48.1629406 Z M44.2677186,48.1629406 L44.2677186,49.9230635 L38.5345842,49.9230635 L38.5345842,54.0449879 L44.0719829,54.0449879 L44.0719829,55.8082082 L38.5345842,55.8082082 L38.5345842,60.0462868 L44.4465672,60.0462868 L44.4465672,61.8095072 L36.5910448,61.8095072 L36.5910448,48.1629406 L44.2677186,48.1629406 Z M22.1281023,48.1629406 L22.1281023,60.0462868 L27.1381663,60.0462868 L27.1381663,61.8095072 L20.1845629,61.8095072 L20.1845629,48.1629406 L22.1281023,48.1629406 Z M18.7384222,48.1629406 L18.7384222,49.9215148 L13.0168017,49.9215148 L13.0168017,54.0356956 L18.5396162,54.0356956 L18.5396162,55.792721 L13.0168017,55.792721 L13.0168017,60.0261534 L18.9157356,60.0261534 L18.9157356,61.7870507 L11.0747974,61.7870507 L11.0747974,48.1629406 L18.7384222,48.1629406 Z M87.0079318,48.1203507 L87.0079318,60.8911148 L92.5821748,60.8911148 L92.5821748,61.7715635 L85.9632409,61.7715635 L85.9632409,48.1203507 L87.0079318,48.1203507 Z M95.4767591,48.1218994 L95.4767591,61.7715635 L94.4282303,61.7715635 L94.4282303,48.1218994 L95.4767591,48.1218994 Z M75.485629,48.1218994 L75.485629,61.7715635 L74.4309595,61.7715635 L74.4309595,48.1218994 L75.485629,48.1218994 Z M111.164009,48.1474534 L116.311471,54.4832763 L121.458934,48.1474534 L122.508998,48.1474534 L122.508998,61.7715635 L121.458934,61.7715635 L121.458934,49.6907551 L121.415949,49.6907551 L116.311471,56.0560038 L111.203156,49.6907551 L111.164009,49.6907551 L111.164009,61.7715635 L110.113177,61.7715635 L110.113177,48.1474534 L111.164009,48.1474534 Z M78.4615778,48.1203507 L78.4615778,60.8911148 L84.0335181,60.8911148 L84.0335181,61.7715635 L77.413049,61.7715635 L77.413049,48.1203507 L78.4615778,48.1203507 Z M103.067463,48.0491095 L108.660896,61.7715635 L107.679915,61.7715635 L105.767846,57.055704 L99.8527932,57.055704 L97.9353518,61.7715635 L96.9605117,61.7715635 L102.55548,48.0491095 L103.067463,48.0491095 Z M1.9473774,48.1629406 L1.9473774,54.3802863 L6.92827292,48.9132965 L7.61449893,48.1629406 L10.0262687,48.1629406 L5.48904051,53.1738316 L8.22933902,60.0067944 L8.93552239,61.7607224 L8.93552239,61.7622711 L6.93287846,61.7622711 L4.10584222,54.7055179 L1.9473774,57.092099 L1.9473774,61.7591737 L0.00690831557,61.7591737 L0.00690831557,48.1629406 L1.9473774,48.1629406 Z M133.601858,59.9231634 C133.899848,59.9231634 134.084648,60.0819074 134.086188,60.3405441 C134.086188,60.4892214 134.066938,60.5782729 133.907548,60.7145605 L133.907548,60.7145605 L134.180898,61.4099368 L133.959138,61.4099368 L133.692718,60.7432119 L133.436308,60.7432119 L133.436308,61.4114855 L133.226098,61.4114855 L133.226098,59.9231634 Z M133.576448,60.1051383 L133.436308,60.1051383 L133.436308,60.5736268 L133.576448,60.5736268 C133.802058,60.5736268 133.866738,60.4543751 133.866738,60.3320261 C133.865968,60.1926411 133.778958,60.1051383 133.576448,60.1051383 L133.576448,60.1051383 Z M102.800341,49.7658682 L100.21049,56.1814503 L105.411684,56.1814503 L102.800341,49.7658682 Z M48.9055011,49.844853 L47.6566311,49.844853 L47.6566311,54.1278445 L48.9055011,54.1278445 C50.9879744,54.1278445 51.5843923,53.0476107 51.564435,51.9046537 C51.54371,50.6269578 50.789936,49.844853 48.9055011,49.844853 L48.9055011,49.844853 Z M5.70933902,0 L5.70933902,23.6838358 L15.8837527,13.4398122 L23.4775267,13.4398122 L30.7189765,30.330952 L37.7616205,13.4398122 L41.8022175,13.4398122 L48.7872921,30.330952 L55.9880597,13.4398122 L61.8463113,13.4398122 L49.8826439,41.2796443 L47.7165032,41.2796443 L39.7350959,22.3689706 L31.8795736,41.2796443 L29.6819616,41.2796443 L19.2120256,16.8291909 L13.8135608,22.8622387 L21.5040512,41.2796443 L15.7194883,41.2796443 L9.89654584,27.3992206 L5.70933902,31.5970324 L5.70933902,41.2796443 L0,41.2796443 L0,0 L5.70933902,0 Z" id="keller-williams-white"></path>
                    </g>
                </g>
            </g>
        </g>
    </g>
</svg>