<?xml version="1.0" encoding="UTF-8"?>
<svg width="22px" height="20px" viewBox="0 0 22 20" version="1.1" xmlns="http://www.w3.org/2000/svg" xmlns:xlink="http://www.w3.org/1999/xlink">
    <!-- Generator: Sketch 52.1 (67048) - http://www.bohemiancoding.com/sketch -->
    <title>Right Accessory</title>
    <desc>Created with Sketch.</desc>
    <g id="💱-Symbols" stroke="none" stroke-width="1" fill="none" fill-rule="evenodd">
        <g id="Components-/-Header-with-edit" transform="translate(-305.000000, -27.000000)" fill="#343342" fill-rule="nonzero">
            <g id="icons-/-header-/-menu" transform="translate(303.000000, 25.000000)">
                <path d="M3,2 L23,2 C23.5522847,2 24,2.44771525 24,3 C24,3.55228475 23.5522847,4 23,4 L3,4 C2.44771525,4 2,3.55228475 2,3 C2,2.44771525 2.44771525,2 3,2 Z M3,11 L23,11 C23.5522847,11 24,11.4477153 24,12 C24,12.5522847 23.5522847,13 23,13 L3,13 C2.44771525,13 2,12.5522847 2,12 C2,11.4477153 2.44771525,11 3,11 Z M11,20 L23,20 C23.5522847,20 24,20.4477153 24,21 C24,21.5522847 23.5522847,22 23,22 L11,22 C10.4477153,22 10,21.5522847 10,21 C10,20.4477153 10.4477153,20 11,20 Z" id="Combined-Shape"></path>
            </g>
        </g>
    </g>
</svg>