<?xml version="1.0" encoding="UTF-8"?>
<svg width="95px" height="43px" viewBox="0 0 95 43" version="1.1" xmlns="http://www.w3.org/2000/svg" xmlns:xlink="http://www.w3.org/1999/xlink">
    <!-- Generator: sketchtool 59.1 (101010) - https://sketch.com -->
    <title>E90345CB-66E0-4366-BCE0-EEDC1CD86654</title>
    <desc>Created with sketchtool.</desc>
    <g id="Comps" stroke="none" stroke-width="1" fill="none" fill-rule="evenodd">
        <g id="KW-home" transform="translate(-613.000000, -4161.000000)" fill="#FFFFFF">
            <g id="global-/-footer" transform="translate(0.000000, 4058.000000)">
                <g id="Footer">
                    <g id="LABS-message" transform="translate(613.000000, 103.000000)">
                        <g id="Labs-logo">
                            <path d="M91.8896,-1.84741111e-13 C93.6074265,-1.85056671e-13 95,1.39257351 95,3.1104 L95,39.8896 C95,41.6074265 93.6074265,43 91.8896,43 L3.1104,43 C1.39257351,43 4.0178402e-14,41.6074265 4.26325641e-14,39.8896 L4.26325641e-14,3.1104 C4.33103695e-14,1.39257351 1.39257351,-1.83537373e-13 3.1104,-1.84741111e-13 L91.8896,-1.84741111e-13 Z M35.3953388,8.323078 C35.1563492,8.29810345 34.9148375,8.25497472 34.6789753,8.33671872 C34.5370342,8.38566482 34.3924702,8.40612589 34.2443753,8.42287589 C34.1260406,8.43621571 34.0005433,8.45457049 33.8969375,8.50712737 C33.8047312,8.55396718 33.7380482,8.65075609 33.6490702,8.73631147 C33.5983265,8.72838782 33.5333585,8.72477704 33.4722239,8.70772614 C33.2759074,8.65306298 33.0802971,8.59669472 32.8860991,8.5353115 C32.5131381,8.41735942 32.1310977,8.35126213 31.7411885,8.32468279 C31.5507231,8.31154357 31.3947595,8.36590584 31.2846971,8.52909294 C31.1999562,8.65526956 31.1962235,8.78666176 31.2593757,8.92427252 C31.0930212,9.19578295 31.0218993,9.48695207 31.0431854,9.79968555 C31.0452031,9.82706729 31.0451022,9.85545201 31.0403607,9.88243255 C30.9987973,10.1172334 31.058923,10.341904 31.1179391,10.5639669 C31.1583928,10.7157198 31.2238652,10.8566405 31.3856801,10.9317647 C31.4494375,10.961353 31.5040147,11.0217333 31.5482011,11.0793051 C31.7537987,11.3468036 32.0217415,11.5434907 32.2911975,11.739576 C32.3732147,11.7993544 32.4592671,11.8573275 32.5283713,11.9303454 C32.8742959,12.2956358 33.1686698,12.6963318 33.3321996,13.1772674 C33.4364108,13.4829799 33.5030939,13.7991236 33.5492978,14.1182762 C33.5801678,14.3314124 33.5566622,14.5416399 33.4785795,14.7439438 C33.4453893,14.8298 33.4104841,14.9152551 33.3727542,14.999306 C33.3346208,15.0845605 33.3453143,15.1593838 33.4086682,15.2280889 C33.4334852,15.2550694 33.4600172,15.2819497 33.478983,15.3128419 C33.4926021,15.3349078 33.4945189,15.3636937 33.5040018,15.3970934 C33.4569907,15.4518568 33.4096771,15.5070215 33.3446081,15.5830484 C33.3668022,15.8582699 33.3732586,16.1501412 33.5237747,16.4193447 C33.5922736,16.4281711 33.651794,16.4357938 33.7137356,16.4437175 C33.6452367,16.4788222 33.5803695,16.5121216 33.5137874,16.546424 C33.49694,16.59196 33.4673816,16.6349884 33.4677851,16.6780168 C33.4697019,16.9485243 33.2940662,17.1345796 33.1581781,17.3395916 L33.1581781,17.3395916 L33.0743451,17.4494194 L32.9783371,17.6040402 C32.8279994,17.8655198 32.7287567,18.1463162 32.7213587,18.4528145 C32.7118758,18.8460883 32.6325825,19.2225119 32.4888255,19.5843921 C32.372105,19.8774669 32.2898861,20.1782648 32.2262295,20.4856824 C32.2002019,20.6112572 32.1602526,20.7317168 32.1040613,20.8461584 C32.1036578,21.0857736 32.165902,21.3316074 32.1971754,21.5640011 L32.1971754,21.5640011 L32.2154351,21.7181613 C32.2240101,21.7129457 32.2328877,21.7072286 32.2422697,21.7007092 C32.2718282,21.7776388 32.3041104,21.8345085 32.3149048,21.89529 C32.3410333,22.0403229 32.3597973,22.1868603 32.3762411,22.3332974 C32.3988387,22.534498 32.4123569,22.7360997 32.4679429,22.933188 C32.5674126,23.2855398 32.5576271,23.6445113 32.5026464,24.0017777 C32.4579556,24.2918435 32.4002511,24.5801039 32.345573,24.8686653 C32.2456997,25.3939331 32.1417912,25.9182983 32.0437338,26.4437668 C31.9827002,26.7712443 31.8992707,27.0902966 31.7651984,27.3974134 C31.5728163,27.8376274 31.4133218,28.2886737 31.3330196,28.7656976 C31.2962986,28.983247 31.2320367,29.1962829 31.1783674,29.4110238 C31.0955432,29.74141 31.000815,30.0694893 30.9296931,30.4024833 C30.829719,30.8714832 30.6409686,31.2943454 30.3308571,31.6624441 C30.2414756,31.7684606 30.1495721,31.8722705 30.061502,31.9792899 C29.9674799,32.0933303 29.8717428,32.206468 29.7856904,32.3261252 C29.6460697,32.5196027 29.5871545,32.7396595 29.5901639,32.9770682 C29.5917951,33.0887014 29.6407229,33.1703451 29.7399909,33.2233032 C30.0224607,33.3738526 30.3193566,33.4054469 30.6279548,33.3255083 C30.7268193,33.2998316 30.8175123,33.2579065 30.8951914,33.1850891 C30.9480537,33.1355412 31.0160482,33.1009379 31.0796039,33.0636266 L31.0796039,33.0636266 L31.464469,32.8418646 L31.5236001,32.8043041 C31.5812589,32.7635747 31.6342787,32.7108987 31.6806592,32.6243153 C31.6025765,32.4890114 31.7030551,32.3702569 31.7831554,32.2451836 C31.8341009,32.1660474 31.8493341,32.0762794 31.8690061,31.9854082 C31.9171268,31.763245 31.9213639,31.5298484 32.0613882,31.330052 C32.1104169,31.260043 32.1132416,31.1551299 32.1269615,31.0644592 C32.1406815,30.973588 32.1426991,30.880811 32.147945,30.7887362 C32.157327,30.6222392 32.2081716,30.4665746 32.2632532,30.3047917 C32.3309451,30.2882423 32.3926849,30.2724953 32.4549291,30.2580521 C32.6327842,30.2167288 32.6911949,30.1606614 32.7083449,29.980624 C32.7178278,29.8809265 32.7090511,29.7784205 32.699669,29.6779205 C32.6811067,29.478425 32.7230737,29.2945762 32.8216355,29.1203562 C32.934926,28.9197574 33.0489228,28.7191587 33.1517216,28.513244 C33.3080888,28.2000091 33.4496264,27.8792516 33.6075068,27.5666184 C33.8781734,27.03112 34.1398615,26.4919105 34.3601879,25.9337444 C34.3805661,25.8821905 34.4002381,25.8299346 34.4262657,25.78149 C34.446543,25.7434765 34.4765049,25.7105783 34.4989008,25.6795858 C34.5332007,25.6918223 34.5565044,25.692725 34.5656847,25.70446 C34.7201351,25.8998432 34.8740812,26.0953267 35.024799,26.2933177 L35.024799,26.2933177 L35.3530693,26.7377443 L35.5748963,27.020902 L35.5748963,27.020902 L35.7975557,27.3035331 C35.813495,27.3240945 35.8170259,27.3541843 35.8293335,27.3884867 C35.8086527,27.4437517 35.7862569,27.5033295 35.7588169,27.576849 C35.8168241,27.7049313 35.8111747,27.8459522 35.7919063,27.9964013 C35.7520578,28.3066273 35.7227012,28.6198623 35.8469879,28.9244715 C35.8730155,28.9886631 35.8739234,29.0725134 35.859699,29.14172 C35.8044156,29.4068113 35.8190435,29.6760148 35.8202541,29.9412064 C35.8221709,30.3714908 35.7317806,30.7817152 35.6280738,31.1935445 C35.5496884,31.5056762 35.449916,31.8141971 35.4410384,32.1408722 C35.4391217,32.2110818 35.40805,32.2806896 35.3953388,32.3313407 C35.2995009,32.4095743 35.2040664,32.4110788 35.1141805,32.4298347 C34.9962494,32.4543078 34.8787218,32.4813886 34.7596809,32.4995428 C34.544903,32.5320398 34.3902508,32.6565114 34.2499238,32.8093676 C34.1878813,32.8766685 34.1216018,32.9414619 34.0498747,32.9985323 C33.7374429,33.2467732 33.6584522,33.5442612 33.8123983,33.9347267 C33.9025869,33.9859797 33.9985257,34.0408435 34.111211,34.105336 C34.1994828,34.0914947 34.2994569,34.073842 34.3999355,34.0608031 C34.4919399,34.0489677 34.5861638,34.0271025 34.6760497,34.0372327 C34.7967046,34.0509737 34.9117102,34.0604019 35.0319616,34.028607 C35.1434363,33.9991189 35.227572,34.0469617 35.2805351,34.1537806 C35.3169535,34.2271997 35.3662848,34.2944003 35.4044182,34.3558838 C35.5207353,34.4048299 35.6231306,34.4473569 35.7247188,34.491288 C35.7951345,34.5218793 35.8677696,34.5368239 35.9408082,34.5084392 C36.1903904,34.4121518 36.458535,34.3659138 36.6890505,34.2168689 C36.816969,34.1342222 36.922996,34.0394393 36.9916967,33.9032327 C37.0161102,33.8548884 37.0426422,33.7986205 37.0848109,33.7701354 C37.2334102,33.6696355 37.3498281,33.5403495 37.4540393,33.398125 C37.5238497,33.3029409 37.6158541,33.2580068 37.7336844,33.2389499 C38.0835434,33.1828825 38.4352183,33.1865936 38.7866914,33.1947179 C39.07017,33.201137 39.2781889,33.1012388 39.4694613,32.8358467 C39.4538245,32.8018452 39.4419205,32.7562089 39.4151867,32.7223078 C39.3637369,32.6572135 39.3069402,32.5956296 39.2466128,32.5386596 C39.135239,32.432944 39.0878244,32.3179006 39.1537004,32.1668498 C39.2026282,32.0542135 39.2024264,31.9335534 39.1794253,31.8131941 C39.1727671,31.7772869 39.1661089,31.7393738 39.1703459,31.7035669 C39.177105,31.645995 39.1991982,31.5954442 39.2902947,31.5959457 C39.308857,31.6239292 39.3448719,31.6573289 39.3536486,31.6966462 C39.3699915,31.7679591 39.360206,31.8452899 39.3782639,31.9159007 C39.4458549,32.1812929 39.5380611,32.4297344 39.8497867,32.5051596 C39.9022453,32.5177973 39.9444141,32.5443766 39.9792184,32.5794814 C40.1004786,32.5861012 40.214778,32.6792793 40.318283,32.7313347 C40.4600223,32.802447 40.622846,32.8115742 40.7677126,32.8773706 C40.7805247,32.8784739 40.7935384,32.8794769 40.8061487,32.8815832 C40.945366,32.9043511 41.0829691,32.8985338 41.2212784,32.8727568 C41.2658683,32.864432 41.3143926,32.8607209 41.3583772,32.8691461 C41.3896506,32.8749634 41.4165861,32.9047523 41.4548204,32.9303287 C41.3449598,33.1452703 41.1756797,33.3131714 41.1164619,33.5403495 C41.0562353,33.7719408 41.0974961,33.9973135 41.1405728,34.1930979 C41.2341913,34.3423434 41.3113661,34.4654108 41.3921726,34.5943958 C41.4618822,34.5721293 41.528767,34.5508659 41.5933315,34.5304048 C41.6747433,34.5936937 41.7458652,34.6487581 41.8258647,34.7108434 C42.0024083,34.5440455 42.221625,34.4714287 42.4020022,34.357288 C42.4835149,34.3972072 42.5469697,34.4285006 42.6000337,34.4544781 C42.7175613,34.3370276 42.8169301,34.2289048 42.9263872,34.1319153 C42.9876226,34.0776534 43.0733723,34.0506728 43.1342042,33.9960097 C43.278163,33.8666234 43.418389,33.7326235 43.5514525,33.5923046 C43.7995215,33.3308241 44.0574769,33.0800757 44.3251171,32.8380532 C44.4479914,32.7268212 44.55533,32.5985383 44.6695285,32.4778782 C44.8745208,32.2612315 44.9387827,31.9980459 44.9117463,31.7112899 C44.8954034,31.5376717 44.8591868,31.3658589 44.8384051,31.2343664 C44.7610285,31.0981598 44.6875864,31.0011703 44.6477379,30.8920446 C44.5844849,30.7194293 44.5434259,30.5388904 44.493691,30.3615611 C44.4589876,30.2379923 44.475734,30.1241525 44.5600714,30.0237528 C44.5900334,29.9884474 44.622921,29.9554489 44.6500582,29.9185387 C44.7758582,29.7475283 44.9088207,29.580931 45.0228175,29.4024984 C45.1753512,29.1638861 45.210559,28.9089251 45.0972684,28.6379162 C45.0629685,28.555771 45.0615562,28.4597845 45.0474327,28.3697156 C45.0406736,28.327289 45.0396648,28.2839596 45.0363357,28.243539 C44.9434233,28.2135495 44.8631212,28.193289 44.7875605,28.161795 C44.7034248,28.1264896 44.6238289,28.081054 44.5320262,28.034816 C44.5276883,27.937325 44.5244601,27.8463534 44.5191133,27.7553819 C44.4844099,27.1653206 44.3287488,26.6131725 44.0042112,26.1123776 C43.883758,25.9265229 43.767441,25.73796 43.6530407,25.5482939 C43.38076,25.0974482 43.1321866,24.6355695 42.9439407,24.1416953 C42.8524406,23.9011774 42.7287592,23.672896 42.6166792,23.4403017 C42.5566544,23.3157299 42.4790761,23.1987808 42.4291394,23.0705982 C42.3077783,22.7595698 42.150604,22.4686013 41.9668978,22.1902705 C41.8140615,21.9588798 41.6824104,21.7168574 41.5785018,21.4580849 C41.4962829,21.2535745 41.3932823,21.0562856 41.2889703,20.8615042 C41.1141417,20.5349294 40.9643318,20.201133 40.8895782,19.8350403 C40.8644585,19.711672 40.8055434,19.590711 40.7413824,19.4805823 C40.625368,19.2813877 40.4930107,19.0916212 40.3690267,18.8971407 C40.2897334,18.7726692 40.2049924,18.6508054 40.1369979,18.5203159 C40.0347035,18.3241303 39.9402779,18.1235316 39.8515017,17.9209268 C39.7509222,17.6916424 39.6314779,17.4745945 39.4798521,17.2744973 C39.3451746,17.0966665 39.2406607,16.9023866 39.1770041,16.6871441 C39.1168784,16.4839375 39.0485813,16.2831381 38.9905741,16.0793298 C38.9374092,15.8935753 38.8959467,15.7044107 38.7612691,15.5670005 C38.8123155,15.3951877 38.8592256,15.237517 38.9073464,15.0758344 C38.9676738,15.0347117 39.0275978,14.9941907 39.0782406,14.9596877 C39.1096149,14.8772417 39.0826794,14.8194692 39.035971,14.7709243 C38.929036,14.6603944 38.8755685,14.5248899 38.8415713,14.3792552 L38.8415713,14.3792552 L38.7583435,14.0300127 L38.701435,13.709702 C38.6569508,13.3879525 38.644145,13.0625499 38.6126698,12.7394605 C38.5916864,12.5246193 38.5441709,12.3229172 38.4484338,12.1303424 C38.4158489,12.0647466 38.3927469,11.994537 38.3668202,11.9259322 C38.3312089,11.8314502 38.2961019,11.736567 38.2625082,11.6413829 C38.2444503,11.590832 38.2298224,11.5390775 38.210453,11.4778949 C38.3093175,11.3827108 38.4060634,11.2902347 38.5421533,11.2843171 C38.7406892,11.2756913 38.8882797,11.1627542 39.0485813,11.0725851 C39.1664115,11.0064878 39.2043432,10.9011734 39.2045449,10.7707842 C39.2046458,10.5147199 39.0866138,10.3130178 38.925606,10.1267619 C38.8476242,10.0365927 38.7663132,9.94732625 38.7021522,9.84752836 C38.6145866,9.71162269 38.5118887,9.60209576 38.3569338,9.54181583 C38.217313,9.48745357 38.103518,9.39497753 37.9949689,9.29086677 C37.8267985,9.12958536 37.6329032,9.00360933 37.4014797,8.94714078 C37.2683154,8.91464378 37.1649112,8.84704199 37.1013555,8.72247015 C37.0896532,8.69960189 37.0629195,8.68405549 37.0326549,8.65486837 C36.8651906,8.61384592 36.6915726,8.55296419 36.5035284,8.55396718 C36.3627979,8.55476958 36.2311468,8.51715731 36.1010089,8.46139085 C36.0089036,8.42207349 35.9069118,8.40231451 35.807543,8.38375913 C35.6710495,8.35838338 35.5333455,8.33752111 35.3953388,8.323078 Z M72.4322761,12.4337349 C71.6026892,12.4337349 70.7738133,12.5450784 69.9448358,12.7676647 C69.1153505,12.9901504 68.3722974,13.3321267 67.7163875,13.7935935 C67.0597666,14.2555632 66.5282744,14.8333019 66.122825,15.5259044 C65.7162584,16.2187081 65.5136352,17.0358302 65.5136352,17.9767678 C65.5136352,18.8152131 65.6733977,19.5291389 65.9928212,20.1193497 C66.3123462,20.7094599 66.731507,21.2015034 67.2497956,21.5947761 C67.7681859,21.9880488 68.3552344,22.3094059 69.0118552,22.5570369 C69.6683745,22.8051709 70.3419568,23.0145811 71.0326021,23.185368 C71.7068954,23.374159 72.371743,23.5448454 73.0282623,23.6985336 C73.6842738,23.8530264 74.2719317,24.0324633 74.7902204,24.2375485 C75.3086106,24.4432372 75.727162,24.6995182 76.0465854,25.0077998 C76.3660089,25.3153772 76.5263808,25.7174005 76.5263808,26.213769 C76.5263808,26.6752358 76.4052131,27.0565393 76.1633857,27.3554668 C75.9209489,27.6548972 75.6191979,27.8899556 75.2562028,28.0612454 C74.8938172,28.2325353 74.5049229,28.3476003 74.0908404,28.4076473 C73.676047,28.4675937 73.2870512,28.4969634 72.9246655,28.4969634 C72.388806,28.4969634 71.8704158,28.4332955 71.3697995,28.3050544 C70.8684723,28.1763104 70.4322485,27.9799758 70.0611283,27.7149442 C69.6898048,27.449812 69.3919133,27.1035108 69.1671489,26.6752358 C68.9423844,26.2481678 68.8306624,25.7260505 68.8306624,25.1102921 L68.8306624,25.1102921 L64.8917498,25.1102921 C64.8740774,26.2394172 65.0817788,27.2140496 65.5136352,28.0355972 C65.9454917,28.8565414 66.5282744,29.5323469 67.2631007,30.0625106 C67.9967082,30.5932779 68.8432565,30.982125 69.8022378,31.2303596 C70.7605082,31.4779906 71.7492482,31.6024096 72.7687625,31.6024096 C74.0294949,31.6024096 75.1400119,31.456768 76.0983838,31.1659876 C77.0573651,30.8753078 77.8603418,30.4689595 78.5081265,29.9468422 C79.1565206,29.425429 79.6438318,28.805245 79.972193,28.0868937 C80.3003511,27.3685424 80.4644809,26.590144 80.4644809,25.7516987 C80.4644809,24.7251664 80.2441853,23.8829996 79.8042037,23.2239912 C79.3636126,22.5657875 78.8407535,22.0399487 78.2360326,21.6460725 C77.6312101,21.2527998 77.0226297,20.9658415 76.409682,20.7864046 C75.7960234,20.6069676 75.3168374,20.4826492 74.9714132,20.4144551 C73.8135667,20.1236747 72.8767266,19.8841907 72.1601821,19.6953997 C71.4430282,19.5078157 70.8817774,19.3197287 70.4758201,19.1315412 C70.0699645,18.9433537 69.797769,18.737665 69.6595383,18.5150787 C69.5212061,18.2930959 69.4525479,18.0023155 69.4525479,17.6429386 C69.4525479,17.2496659 69.5382691,16.9245873 69.7112352,16.6676022 C69.8836934,16.4112206 70.1039889,16.1973849 70.3722233,16.026095 C70.63995,15.8555092 70.9380447,15.7354152 71.2662027,15.6673217 C71.5939546,15.5991276 71.9222142,15.5641253 72.2504739,15.5641253 C72.7516995,15.5641253 73.2132131,15.6072746 73.6368427,15.6929699 C74.059863,15.7785645 74.4360615,15.9236027 74.7643212,16.1286879 C75.092073,16.3342759 75.3559401,16.6163058 75.5541959,16.9757832 C75.7530612,17.3347577 75.8691505,17.7885803 75.9045969,18.3356417 L75.9045969,18.3356417 L79.842697,18.3356417 C79.842697,17.2753142 79.6393629,16.3724968 79.2341166,15.6284973 C78.82755,14.8844978 78.2789948,14.2730643 77.5882479,13.7935935 C76.8976026,13.3153296 76.10722,12.9689278 75.2176079,12.7544886 C74.3275896,12.5406528 73.3994842,12.4337349 72.4322761,12.4337349 Z M18.5704122,12.9518072 L14.5355191,12.9518072 L14.5355191,31.0843373 L27.5136612,31.0843373 L27.5136612,27.7319953 L18.5704122,27.7319953 L18.5704122,12.9518072 Z M56.7377368,12.9518072 L48.2786885,12.9518072 L48.2786885,31.0843373 L56.9891705,31.0843373 C57.7945874,31.0843373 58.5790844,30.9829021 59.3433522,30.7793346 C60.1063371,30.5763645 60.7866292,30.2631992 61.3821562,29.8400378 C61.9777818,29.4167769 62.4525258,28.8710769 62.804612,28.2021414 C63.1572902,27.5333056 63.3333333,26.7419311 63.3333333,25.8274207 C63.3333333,24.6932168 63.0603876,23.7236586 62.5150882,22.9192438 C61.9697888,22.1154263 61.1429586,21.5524056 60.0352883,21.2306795 C60.8411986,20.8415622 61.4490604,20.3421501 61.86065,19.7326424 C62.2716474,19.1225375 62.4776889,18.3609266 62.4776889,17.4470135 C62.4776889,16.6004916 62.3390451,15.8890509 62.0618562,15.3134878 C61.7851606,14.7381236 61.3950831,14.2764387 60.8914262,13.9293289 C60.3879666,13.582916 59.7837559,13.3328615 59.0789915,13.1800615 C58.373635,13.0278588 57.5932825,12.9518072 56.7377368,12.9518072 L56.7377368,12.9518072 Z M56.5359385,23.0083356 C57.392175,23.0083356 58.0797693,23.2076226 58.6004977,23.6054003 C59.120634,24.0032775 59.3807514,24.667833 59.3807514,25.5990668 C59.3807514,26.0729956 59.3010189,26.4622125 59.1415539,26.7673148 C58.9820888,27.0716207 58.7679557,27.3130148 58.4999439,27.4906012 C58.2312414,27.6688844 57.9208963,27.7956039 57.5682181,27.871755 C57.2154411,27.9478066 56.8462835,27.9862306 56.4604492,27.9862306 L56.4604492,27.9862306 L52.2312704,27.9862306 L52.2312704,23.0083356 Z M55.9317278,16.0498144 C56.2844061,16.0498144 56.6242561,16.0795781 56.9517712,16.1389063 C57.2786943,16.198334 57.5682181,16.3042488 57.8202439,16.456352 C58.0717763,16.6085547 58.2729825,16.8207824 58.4244546,17.0912434 C58.5754332,17.3622021 58.6508239,17.7094114 58.6508239,18.1325728 C58.6508239,18.8942832 58.4244546,19.4449604 57.9712226,19.7834099 C57.5178919,20.1218593 56.938943,20.2907854 56.2340798,20.2907854 L56.2340798,20.2907854 L52.2312704,20.2907854 L52.2312704,16.0498144 Z" id="labs-icon"></path>
                        </g>
                    </g>
                </g>
            </g>
        </g>
    </g>
</svg>