<?xml version="1.0" encoding="UTF-8"?>
<svg width="19px" height="19px" viewBox="0 0 19 19" version="1.1" xmlns="http://www.w3.org/2000/svg" xmlns:xlink="http://www.w3.org/1999/xlink">
    <!-- Generator: sketchtool 59.1 (101010) - https://sketch.com -->
    <title>496923A3-0AD0-49A6-A5BC-1FFA941800E5</title>
    <desc>Created with sketchtool.</desc>
    <g id="Comps" stroke="none" stroke-width="1" fill="none" fill-rule="evenodd">
        <g id="KW-home" transform="translate(-450.000000, -4250.000000)" fill="#FFFFFF" fill-rule="nonzero">
            <g id="global-/-footer" transform="translate(0.000000, 4058.000000)">
                <g id="Footer">
                    <g id="social" transform="translate(449.000000, 102.000000)">
                        <path d="M1,96.2181818 L5.15774648,96.2181818 L5.15774648,108.654545 L1,108.654545 L1,96.2181818 Z M3.06854089,94.1454545 L3.04374321,94.1454545 C1.80385854,94.1454545 1,93.2321256 1,92.0755427 C1,90.8953101 1.827623,90 3.09230535,90 C4.35595438,90 5.1329488,90.8930577 5.15774648,92.0721642 C5.15774648,93.2287471 4.35595438,94.1454545 3.06854089,94.1454545 L3.06854089,94.1454545 Z M19.7098592,108.654545 L15.5384262,108.654545 L15.5384262,102.279632 C15.5384262,100.611311 14.8859115,99.4735555 13.4510451,99.4735555 C12.3535332,99.4735555 11.7431878,100.24096 11.4590998,100.982823 C11.3525668,101.247525 11.3692126,101.617876 11.3692126,101.989388 L11.3692126,108.654545 L7.23661972,108.654545 C7.23661972,108.654545 7.2898862,97.3629031 7.23661972,96.3366012 L11.3692126,96.3366012 L11.3692126,98.2696245 C11.6133507,97.4244347 12.9339161,96.2181818 15.0412721,96.2181818 C17.6557696,96.2181818 19.7098592,97.9909905 19.7098592,101.804793 L19.7098592,108.654545 L19.7098592,108.654545 Z" id="linkedin"></path>
                    </g>
                </g>
            </g>
        </g>
    </g>
</svg>