<?xml version="1.0" encoding="UTF-8"?>
<svg width="624px" height="227px" viewBox="0 0 624 227" version="1.1" xmlns="http://www.w3.org/2000/svg" xmlns:xlink="http://www.w3.org/1999/xlink">
    <!-- Generator: Sketch 64 (93537) - https://sketch.com -->
    <title>Group 2</title>
    <desc>Created with Sketch.</desc>
    <g id="Victor-Form" stroke="none" stroke-width="1" fill="none" fill-rule="evenodd">
        <g id="KW-home-Copy" transform="translate(-300.000000, -794.000000)">
            <g id="illos---on-white" transform="translate(-436.000000, 779.000000)">
                <g id="Group-2">
                    <g transform="translate(736.000120, -86.599760)">
                        <path d="M519.362,327 L495.362,327 L495.434,326.7132 C496.802,321.24 501.7196,317.4 507.362,317.4 C513.0044,317.4 517.922,321.24 519.29,326.7132 L519.362,327 Z" id="Fill-18" fill="#E6E6E6"></path>
                        <path d="M491.53592,262.09344 C489.47072,263.85384 488.16152,266.47344 488.16152,269.40024 C488.16152,270.04824 488.22632,270.68064 488.34872,271.29384 L497.94872,319.29384 C498.07832,319.93944 498.27992,320.55984 498.53192,321.15144 C500.79032,318.81864 503.94032,317.40024 507.36152,317.40024 C510.78752,317.40024 513.93872,318.81984 516.19832,321.15744 C516.68912,320.00304 516.96152,318.73344 516.96152,317.40024 C516.96152,316.75224 516.89792,316.11864 516.77552,315.50664 L507.17552,267.50664 C506.96072,266.43264 506.56592,265.42224 506.02472,264.51024 L491.53592,262.09344" id="Fill-20" fill="#E6E6E6"></path>
                        <path d="M468.962,269.4 L468.962,269.4 L468.962,240.6 L478.562,240.6 L478.562,259.8 C478.562,265.1016 474.2636,269.4 468.962,269.4" id="Fill-22" fill="#E6E6E6"></path>
                        <path d="M537.75164,250.33128 L480.15164,240.73128 C479.63444,240.64488 479.10404,240.60048 478.56164,240.60048 L478.56164,259.80048 L478.55564,259.93248 L534.57284,269.26848 C535.08884,269.35608 535.62044,269.40048 536.16164,269.40048 C541.46444,269.40048 545.76164,265.10208 545.76164,259.80048 C545.76164,255.04008 542.29844,251.08848 537.75164,250.33128" id="Fill-24" fill="#E6E6E6"></path>
                        <polygon id="Fill-26" fill="#E6E6E6" points="152.16188 240.59976 180.96188 240.59976 180.96188 230.99976 152.16188 230.99976"></polygon>
                        <path d="M401.762,231 C401.762,236.982 392.87,246.276 380.732,249.2508 C377.666,230.3796 371.5868,211.9224 369.1784,205.032 L369.1712,205.032 C371.4716,203.28 372.962,200.52 372.962,197.4 L374.7956,197.4 C379.0856,197.4 382.562,193.9236 382.562,189.6324 C382.562,188.4276 382.2812,187.2384 381.7424,186.1608 L381.548,185.7732 C376.2872,175.248 365.5292,168.6 353.762,168.6 C341.9948,168.6 331.238,175.248 325.976,185.7732 L325.7816,186.1608 C325.2428,187.2384 324.962,188.4276 324.962,189.6324 C324.962,193.9236 328.4384,197.4 332.7284,197.4 L334.562,197.4 C334.562,200.52 336.0524,203.28 338.3528,205.032 L338.3456,205.032 C335.0648,214.4196 324.962,245.2764 324.962,269.4 L382.562,269.4 C382.562,265.806 382.334,262.0608 381.9416,258.2604 L381.956,258.3708 C393.4628,254.5968 401.762,243.7764 401.762,231" id="Fill-28" fill="#FFDF2A"></path>
                        <g id="Group" transform="translate(0.000000, 268.200000)">
                            <polygon id="Fill-29" fill="#E6E6E6" points="66.162 30 56.562 39.6 56.562 58.8 75.762 58.8 75.762 39.6"></polygon>
                            <path d="M25.7616,39.6 C20.85,50.0532 8.562,51.6 8.562,51.6 L2.1096,53.214 C1.0284,53.4828 0.8664,54.9528 1.8636,55.4508 C7.2468,58.1424 13.4496,58.8024 19.2432,57.174 C24.1992,55.7808 27.762,54 27.762,54 L27.762,58.8 L46.962,58.8 L46.962,34.8 L25.7616,39.6 Z" id="Fill-30" fill="#E6E6E6"></path>
                            <path d="M65.7378,29.5758 L56.1378,39.1758 C55.9038,39.4098 55.9038,39.7902 56.1378,40.0242 C56.3718,40.2582 56.7522,40.2582 56.9862,40.0242 L66.5862,30.4242 C66.8202,30.1902 66.8202,29.8098 66.5862,29.5758 C66.3522,29.3418 65.9718,29.3418 65.7378,29.5758" id="Fill-91" fill="#C3C3C3"></path>
                            <path d="M76.1862,39.1758 L66.5862,29.5758 C66.3522,29.3418 65.9718,29.3418 65.7378,29.5758 C65.5038,29.8098 65.5038,30.1902 65.7378,30.4242 L75.3378,40.0242 C75.5718,40.2582 75.9522,40.2582 76.1862,40.0242 C76.4202,39.7902 76.4202,39.4098 76.1862,39.1758" id="Fill-92" fill="#C3C3C3"></path>
                            <path d="M25.6398,40.74852 L47.1078,35.38092 C47.4294,35.30172 47.625,34.97532 47.5446,34.65492 C47.4642,34.33212 47.139,34.13652 46.8162,34.21812 L25.3482,39.58452 C25.0266,39.66612 24.8322,39.99132 24.9126,40.31292 C24.9918,40.63332 25.3182,40.82892 25.6398,40.74852" id="Fill-93" fill="#C3C3C3"></path>
                            <path d="M27.762,54.6 L46.962,54.6 C47.2932,54.6 47.562,54.33 47.562,54 C47.562,53.6688 47.2932,53.4 46.962,53.4 L27.762,53.4 C27.4308,53.4 27.162,53.6688 27.162,54 C27.162,54.33 27.4308,54.6 27.762,54.6" id="Fill-94" fill="#C3C3C3"></path>
                            <path d="M56.562,60 L75.762,60 C76.4244,60 76.962,59.4624 76.962,58.8 C76.962,58.1364 76.4244,57.6 75.762,57.6 L56.562,57.6 C55.8996,57.6 55.362,58.1364 55.362,58.8 C55.362,59.4624 55.8996,60 56.562,60" id="Fill-179" fill="#7A7A7A"></path>
                            <path d="M55.362,1.2 L55.362,58.8 C55.362,59.4624 55.8996,60 56.562,60 C57.2244,60 57.762,59.4624 57.762,58.8 L57.762,1.2 C57.762,0.5364 57.2244,0 56.562,0 C55.8996,0 55.362,0.5364 55.362,1.2" id="Fill-180" fill="#7A7A7A"></path>
                            <path d="M76.962,58.8 L76.962,1.2 C76.962,0.5364 76.4244,0 75.762,0 C75.0996,0 74.562,0.5364 74.562,1.2 L74.562,58.8 C74.562,59.4624 75.0996,60 75.762,60 C76.4244,60 76.962,59.4624 76.962,58.8" id="Fill-181" fill="#7A7A7A"></path>
                            <path d="M67.3620146,10.8 C67.3656,8.202 66.702,6.1392 65.6604,4.584 C64.0956,2.2416 61.7904,1.11 59.9448,0.5568 C58.0884,0.0024 56.6376,0.0012 56.562,0 C55.8996,0 55.362,0.5364 55.362,1.2 C55.362,1.8624 55.8996,2.4 56.562,2.4 L56.562,2.0724 L56.5596,2.4 L56.562,2.4 L56.562,2.0724 L56.5596,2.4 C56.604,2.3928 58.8516,2.4432 60.924,3.5232 C61.9644,4.062 62.9568,4.8324 63.6996,5.97 C64.4388,7.1076 64.9596,8.6316 64.962,10.8 C64.962,11.4624 65.4996,12 66.162,12 C66.8244,12 67.3620146,11.4624 67.3620146,10.8" id="Fill-182" fill="#7A7A7A"></path>
                            <path d="M67.362,10.8 C67.3656,8.5968 67.902,7.0596 68.6604,5.916 C69.7956,4.2072 71.5404,3.3144 73.0692,2.8548 C73.8288,2.6268 74.5212,2.5116 75.0132,2.4552 C75.2604,2.4264 75.4572,2.4132 75.5868,2.406 L75.7308,2.4 L75.7608,2.4 L75.762,2.4 C76.4244,2.4 76.962,1.8624 76.962,1.2 C76.962,0.5364 76.4244,0 75.762,0 C75.6624,0.006 73.1148,-0.0084 70.4256,1.326 C69.0852,1.9956 67.7016,3.0252 66.6636,4.584 C65.6232,6.1392 64.9584,8.202 64.9619855,10.8 C64.9619855,11.4624 65.4996,12 66.162,12 C66.8244,12 67.362,11.4624 67.362,10.8" id="Fill-183" fill="#7A7A7A"></path>
                            <path d="M57.762,58.8 C57.762,56.4756 58.7004,54.384 60.222,52.86 C61.746,51.3372 63.8388,50.4 66.162,50.4 C68.4864,50.4 70.578,51.3372 72.102,52.86 C73.6236,54.384 74.562,56.4756 74.562,58.8 C74.562,59.4624 75.0996,60 75.762,60 C76.4244,60 76.962,59.4624 76.962,58.8 C76.962,52.8348 72.1272,48 66.162,48 C60.1968,48 55.3632,52.8348 55.362,58.8 C55.362,59.4624 55.8996,60 56.562,60 C57.2244,60 57.762,59.4624 57.762,58.8" id="Fill-184" fill="#7A7A7A"></path>
                            <path d="M45.762,57.6 L28.962,57.6 L28.962,54 C28.962,53.5824 28.7472,53.1984 28.3932,52.9776 C28.038,52.7604 27.5988,52.7388 27.2256,52.926 L27.192,52.9428 C26.8272,53.1228 23.4612,54.7428 18.918,56.0184 C16.9212,56.5788 14.8728,56.8548 12.8268,56.8548 C9.24,56.8548 5.6628,56.0088 2.4012,54.3768 L8.7972,52.7772 C9.4728,52.68 14.088,51.954 18.798,49.0176 C21.318,47.442 23.868,45.2184 25.7844,42.1032 C27.702,38.9916 28.9644,34.9992 28.962,30 L28.962,6 C28.9644,5.67 29.0856,5.3244 29.4324,4.9068 C29.9472,4.2864 30.9864,3.6216 32.3784,3.1572 C33.768,2.6856 35.496,2.3988 37.362,2.39998137 C39.8496,2.3964 42.0936,2.9148 43.614,3.6792 C44.3748,4.0572 44.9472,4.4952 45.2916,4.9068 C45.6396,5.3244 45.7608,5.67 45.762,6 L45.762,57.6 Z M47.124,3.3564 C46.1808,2.2524 44.7864,1.4532 43.1136,0.882 C41.4384,0.318 39.4728,0 37.362,0 C34.548,0.0024 31.992,0.5592 30.0372,1.5324 C29.0604,2.0232 28.2276,2.6184 27.6,3.3564 C26.9772,4.0872 26.5608,5.004 26.562,6 L26.562,30 C26.5596,34.6008 25.422,38.1072 23.7396,40.8456 C21.2196,44.946 17.4,47.3508 14.1672,48.7236 C12.5556,49.4088 11.0976,49.8336 10.0536,50.0844 C9.5316,50.2104 9.1116,50.292 8.8284,50.3424 C8.6856,50.3676 8.5776,50.3844 8.5068,50.3952 L8.43,50.4072 L8.4132,50.4096 L8.2704,50.4348 L1.818,52.0488 L1.8204,52.0488 C1.2552,52.1856 0.7704,52.5252 0.4632,52.9524 C0.1524,53.3796 -2.20268248e-13,53.8788 -2.20268248e-13,54.3816 C-2.20268248e-13,54.7944 0.1044,55.2168 0.3288,55.5984 C0.5508,55.9788 0.9,56.3124 1.3272,56.5248 C4.92,58.32 8.862,59.2548 12.8268,59.2548 C15.0876,59.2548 17.3556,58.95 19.5684,58.3284 C22.5456,57.4908 25.0164,56.5248 26.562,55.8612 L26.562,58.8 C26.562,59.1168 26.6904,59.4252 26.9136,59.6484 C27.1368,59.8716 27.4464,60 27.762,60 L46.962,60 C47.2788,60 47.5872,59.8716 47.8104,59.6484 C48.0348,59.4252 48.1620103,59.1168 48.1620103,58.8 L48.1620103,6 C48.1644,5.004 47.748,4.0872 47.124,3.3564 L47.124,3.3564 Z" id="Fill-185" fill="#7A7A7A"></path>
                        </g>
                        <path d="M507.55424,270 L564.36224,270 L564.36224,288 L511.39424,288 C511.06304,288 510.79424,288.2688 510.79424,288.6 C510.79424,288.9312 511.06304,289.2 511.39424,289.2 L564.96224,289.2 C565.12304,289.2 565.27304,289.1364 565.38584,289.0248 C565.49984,288.9108 565.56224,288.7596 565.56224,288.6 L565.56224,269.4 C565.56224,269.2416 565.49864,269.0868 565.38584,268.9752 C565.27544,268.8636 565.12064,268.8 564.96224,268.8 L507.55424,268.8 C507.22304,268.8 506.95424,269.0688 506.95424,269.4 C506.95424,269.73 507.22304,270 507.55424,270" id="Fill-31" fill="#C3C3C3"></path>
                        <path d="M491.81012,288 L431.16212,288 L431.16212,269.9988 L488.16212,270 C488.49332,270 488.76212,269.73 488.76212,269.4 C488.76212,269.0688 488.49332,268.8 488.16212,268.8 L430.56212,268.8 C430.40372,268.8 430.25012,268.8636 430.13732,268.9752 C430.02692,269.0868 429.96212,269.2416 429.96212,269.4 L429.96212,288.6 C429.96212,288.7596 430.02452,288.9108 430.13732,289.0248 C430.25132,289.1364 430.40252,289.2 430.56212,289.2 L491.81012,289.2 C492.14132,289.2 492.41012,288.93 492.41012,288.6 C492.41012,288.2688 492.14132,288 491.81012,288" id="Fill-32" fill="#C3C3C3"></path>
                        <path d="M296.162,269.4 L296.162,270 L429.962,270 L429.962,288 L296.762,288 L296.762,269.4 L296.162,269.4 L296.162,270 L296.162,269.4 L295.562,269.4 L295.562,288.6 C295.562,288.7596 295.6244,288.9108 295.7372,289.0248 C295.8512,289.1364 296.0024,289.2 296.162,289.2 L430.562,289.2 C430.7228,289.2 430.8728,289.1364 430.9868,289.0248 C431.0996,288.9108 431.162,288.7596 431.162,288.6 L431.162,269.4 C431.162,269.2416 431.0984,269.0868 430.9868,268.9752 C430.8752,268.8636 430.7204,268.8 430.562,268.8 L296.162,268.8 C296.0036,268.8 295.85,268.8636 295.7372,268.9752 C295.6268,269.0868 295.562,269.2416 295.562,269.4 L296.162,269.4" id="Fill-33" fill="#C3C3C3"></path>
                        <path d="M588.962,240.6 L589.562,240.6 C589.562,237.618 587.144,235.2 584.162,235.2 C581.18,235.2 578.762,237.618 578.762,240.6 C578.762,243.582 581.18,245.9988 584.162,246 C587.144,245.9988 589.562,243.582 589.562,240.6 L588.962,240.6 L588.362,240.6 C588.3584,242.9196 586.4816,244.7952 584.162,244.8 C581.8424,244.7952 579.9656,242.9196 579.962,240.6 C579.9656,238.2804 581.8424,236.4036 584.162,236.4 C586.4816,236.4036 588.3584,238.2804 588.362,240.6 L588.962,240.6 Z" id="Fill-34" fill="#C3C3C3"></path>
                        <path d="M555.362,327 L555.362,327.6 L564.962,327.6 C565.1204,327.6 565.2752,327.5352 565.3868,327.4248 C565.4984,327.312 565.562,327.1584 565.562,327 L565.562,307.8 C565.562,307.6416 565.4984,307.4868 565.3868,307.3752 C565.2752,307.2636 565.1204,307.2 564.962,307.2 L545.762,307.2 C545.5532,307.2 545.3624,307.3068 545.252,307.4844 C545.1416,307.662 545.132,307.8804 545.2256,308.0688 L554.8256,327.2676 C554.9276,327.4716 555.1352,327.6 555.362,327.6 L555.362,327 L555.8984,326.7312 L546.7328,308.4 L564.362,308.4 L564.362,326.4 L555.362,326.4 L555.362,327 L555.8984,326.7312 L555.362,327" id="Fill-35" fill="#C3C3C3"></path>
                        <path d="M305.762,327 L305.762,326.4 L296.762,326.4 L296.762,308.4 L314.3912,308.4 L305.2256,326.7312 L305.762,327 L305.762,326.4 L305.762,327 L306.2984,327.2676 L315.8984,308.0688 C315.992,307.8804 315.9824,307.662 315.8732,307.4844 C315.7628,307.3068 315.5708,307.2 315.362,307.2 L296.162,307.2 C296.0036,307.2 295.85,307.2636 295.7372,307.3752 C295.6268,307.4868 295.562,307.6416 295.562,307.8 L295.562,327 C295.562,327.1584 295.6268,327.312 295.7372,327.4248 C295.85,327.5352 296.0036,327.6 296.162,327.6 L305.762,327.6 C305.99,327.6 306.1976,327.4716 306.2984,327.2676 L305.762,327" id="Fill-36" fill="#C3C3C3"></path>
                        <path d="M272.162,240.6 L272.762,240.6 C272.7656,238.2804 274.6424,236.4036 276.962,236.4 C279.2816,236.4036 281.1584,238.2804 281.162,240.6 C281.1584,242.9196 279.2816,244.7952 276.962,244.8 C274.6424,244.7952 272.7656,242.9196 272.762,240.6 L272.162,240.6 L271.562,240.6 C271.562,243.582 273.98,245.9988 276.962,246 C279.944,245.9988 282.362,243.582 282.362,240.6 C282.362,237.618 279.944,235.2 276.962,235.2 C273.98,235.2 271.562,237.618 271.562,240.6 L272.162,240.6 Z" id="Fill-37" fill="#C3C3C3"></path>
                        <path d="M565.166,234.99852 C564.6428,236.77332 564.362,238.65492 564.362,240.60012 L564.362,269.40012 C564.362,269.73012 564.6308,270.00012 564.962,270.00012 C565.2932,270.00012 565.562,269.73012 565.562,269.40012 L565.562,240.60012 C565.562,238.77132 565.826,237.00492 566.3168,235.33812 C566.4104,235.02012 566.2292,234.68652 565.9112,234.59292 C565.5932,234.49932 565.2596,234.68052 565.166,234.99852" id="Fill-38" fill="#C3C3C3"></path>
                        <path d="M515.23472,308.39892 L584.16152,308.39892 C584.32232,308.39892 584.47352,308.33652 584.58632,308.22372 C584.70032,308.11092 584.76272,307.95972 584.76272,307.80012 L584.76272,259.80012 L584.16152,259.80012 L584.16152,260.40012 C595.09712,260.39892 603.96152,251.53572 603.96152,240.60012 C603.96152,229.66452 595.09712,220.80012 584.16152,220.80012 C583.79792,220.80012 583.43432,220.80972 583.07432,220.82772 C582.74192,220.84692 582.48872,221.12772 582.50672,221.46012 C582.52472,221.79132 582.80792,222.04452 583.13792,222.02652 C583.47632,222.00972 583.81832,222.00012 584.16152,222.00012 C589.29992,222.00012 593.94632,224.07972 597.31352,227.44692 C600.68192,230.81532 602.76152,235.46172 602.76152,240.60012 C602.76152,245.73732 600.68192,250.38372 597.31352,253.75212 C593.94632,257.11932 589.29992,259.19892 584.16152,259.20012 C584.00432,259.20012 583.84952,259.26372 583.73792,259.37532 C583.62632,259.48692 583.56272,259.64172 583.56272,259.80012 L583.56272,307.20012 L515.23472,307.20012 C514.90232,307.20012 514.63472,307.46892 514.63472,307.80012 C514.63472,308.13012 514.90232,308.40012 515.23472,308.40012 L515.23472,308.39892" id="Fill-39" fill="#C3C3C3"></path>
                        <path d="M296.762,269.4 L296.762,240.6 C296.762,229.6644 287.8976,220.8 276.962,220.8 C266.0276,220.8 257.162,229.6644 257.162,240.6 C257.162,251.5356 266.0276,260.3988 276.962,260.4 L276.962,259.8 L276.362,259.8 L276.362,307.8 C276.362,307.9596 276.4244,308.1108 276.5384,308.2248 C276.6512,308.3364 276.8024,308.3988 276.962,308.3988 L495.65,308.3988 C495.9812,308.3988 496.25,308.13 496.25,307.8 C496.25,307.4688 495.9812,307.2 495.65,307.2 L277.562,307.2 L277.562,259.8 C277.562,259.6416 277.4984,259.4868 277.3868,259.3752 C277.274,259.2636 277.1204,259.2 276.962,259.2 C271.8248,259.1988 267.1784,257.1192 263.81,253.752 C260.4428,250.3836 258.362,245.7372 258.362,240.6 C258.362,235.4616 260.4428,230.8152 263.81,227.4468 C267.1784,224.0796 271.8236,222 276.962,222 C282.1004,222 286.7468,224.0796 290.114,227.4468 C293.4812,230.8152 295.562,235.4616 295.562,240.6 L295.562,269.4 C295.562,269.73 295.8308,270 296.162,270 C296.4932,270 296.762,269.73 296.762,269.4" id="Fill-40" fill="#C3C3C3"></path>
                        <path d="M373.60184,202.8 L401.76224,202.8 C402.09344,202.8 402.36224,202.53 402.36224,202.2 C402.36224,201.8688 402.09344,201.6 401.76224,201.6 L373.60184,201.6 C373.27064,201.6 373.00184,201.8688 373.00184,202.2 C373.00184,202.53 373.27064,202.8 373.60184,202.8" id="Fill-41" fill="#C3C3C3"></path>
                        <path d="M296.762,240.6 L296.762,211.8 C296.762,209.3136 297.7688,207.0672 299.3984,205.4352 C301.0292,203.8068 303.2744,202.8 305.762,202.8 C306.0932,202.8 306.362,202.53 306.362,202.2 C306.362,201.8688 306.0932,201.6 305.762,201.6 C300.128,201.6 295.562,206.1672 295.562,211.8 L295.562,240.6 C295.562,240.93 295.8308,241.2 296.162,241.2 C296.4932,241.2 296.762,240.93 296.762,240.6" id="Fill-42" fill="#C3C3C3"></path>
                        <path d="M497.762,154.2 L497.762,153.6 L383.162,153.6 L383.162,78 L497.162,78 L497.162,154.2 L497.762,154.2 L497.762,153.6 L497.762,154.2 L498.362,154.2 L498.362,77.4 C498.362,77.2416 498.2984,77.0868 498.1868,76.9752 C498.0752,76.8636 497.9204,76.8 497.762,76.8 L382.562,76.8 C382.4048,76.8 382.25,76.8636 382.1372,76.9752 C382.0256,77.0868 381.962,77.2416 381.962,77.4 L381.962,154.2 C381.962,154.3596 382.0244,154.5108 382.1372,154.6248 C382.2512,154.7364 382.4024,154.8 382.562,154.8 L497.762,154.8 C497.9228,154.8 498.0728,154.7364 498.1868,154.6248 C498.2996,154.5108 498.362,154.3596 498.362,154.2 L497.762,154.2 Z" id="Fill-43" fill="#C3C3C3"></path>
                        <path d="M497.7626,163.2 L373.5626,163.2 L373.5626,68.3988 L506.7626,68.3988 L506.7626,147.1692 C506.7626,147.5004 507.0302,147.7692 507.3626,147.7692 C507.6938,147.7692 507.9626,147.5004 507.9626,147.1692 L507.9626,67.8 C507.9626,67.6416 507.8978,67.4868 507.7874,67.3752 C507.6746,67.2636 507.5198,67.2 507.3626,67.2 L372.9626,67.2 C372.8042,67.2 372.6494,67.2636 372.5378,67.3752 C372.4262,67.4868 372.3626,67.6416 372.3626,67.8 L372.3626,163.8 C372.3626,163.9608 372.425,164.1108 372.5378,164.2248 C372.6518,164.3364 372.8018,164.4 372.9626,164.4 L497.7626,164.4 C498.0926,164.4 498.3626,164.13 498.3626,163.8 C498.3626,163.4688 498.0926,163.2 497.7626,163.2" id="Fill-44" fill="#C3C3C3"></path>
                        <path d="M373.3868,164.22432 L382.9868,154.62432 C383.2208,154.39032 383.2208,154.00992 382.9868,153.77592 C382.7516,153.54192 382.3724,153.54192 382.1372,153.77592 L372.5384,163.37592 C372.3044,163.60992 372.3044,163.99032 372.5384,164.22432 C372.7724,164.45832 373.1528,164.45832 373.3868,164.22432" id="Fill-46" fill="#C3C3C3"></path>
                        <path d="M499.88552,155.475 L498.18632,153.7758 C497.95232,153.5418 497.57192,153.5418 497.33792,153.7758 C497.10392,154.0098 497.10392,154.3902 497.33792,154.6242 L499.03712,156.3234 C499.27112,156.5574 499.65152,156.5574 499.88552,156.3234 C500.11952,156.0894 500.11952,155.709 499.88552,155.475" id="Fill-47" fill="#C3C3C3"></path>
                        <path d="M219.962,192.6 L219.962,0.6 C219.962,0.4416 219.8984,0.2868 219.7868,0.1752 C219.6752,0.0636 219.5204,1.84741111e-13 219.362,1.84741111e-13 L51.362,1.84741111e-13 C51.2048,1.84741111e-13 51.05,0.0636 50.9384,0.1752 C50.8268,0.2868 50.762,0.4416 50.762,0.6 L50.762,231 C50.762,231.33 51.0308,231.6 51.362,231.6 C51.6944,231.6 51.962,231.33 51.962,231 L51.962,1.2 L218.762,1.2 L218.762,192.6 C218.762,192.9312 219.0308,193.2 219.362,193.2 C219.6932,193.2 219.962,192.9312 219.962,192.6" id="Fill-49" fill="#C3C3C3"></path>
                        <path d="M71.1626,230.4 L71.1626,20.4 L199.5626,20.4 L199.5626,192.6 C199.5626,192.9312 199.8314,193.2 200.1626,193.2 C200.4938,193.2 200.7626,192.9312 200.7626,192.6 L200.7626,19.8 C200.7626,19.6416 200.6978,19.4868 200.5874,19.3752 C200.4746,19.2636 200.3198,19.2 200.1626,19.2 L70.5626,19.2 C70.4042,19.2 70.2506,19.2636 70.1378,19.3752 C70.0262,19.4868 69.9626,19.6416 69.9626,19.8 L69.9626,231 C69.9626,231.1608 70.025,231.3108 70.1378,231.4248 C70.2518,231.5364 70.403,231.6 70.5626,231.6 L152.1626,231.6 C152.4926,231.6 152.7626,231.33 152.7626,231 C152.7626,230.6688 152.4926,230.4 152.1626,230.4 L71.1626,230.4 Z" id="Fill-199" fill="#C3C3C3"></path>
                        <path d="M190.562,230.4 L180.962,230.4 C180.6308,230.4 180.362,230.6688 180.362,231 C180.362,231.33 180.6308,231.6 180.962,231.6 L190.562,231.6 C190.8932,231.6 191.162,231.33 191.162,231 C191.162,230.6688 190.8932,230.4 190.562,230.4" id="Fill-50" fill="#C3C3C3"></path>
                        <path d="M305.762,202.8 L334.0124,202.8 C334.3448,202.8 334.6124,202.53 334.6124,202.2 C334.6124,201.8688 334.3448,201.6 334.0124,201.6 L305.762,201.6 C305.4308,201.6 305.162,201.8688 305.162,202.2 C305.162,202.53 305.4308,202.8 305.762,202.8" id="Fill-51" fill="#C3C3C3"></path>
                        <path d="M488.69876,212.06844 L498.29876,192.86844 C498.44756,192.57204 498.32636,192.21084 498.02996,192.06324 C497.73356,191.91444 497.37356,192.03564 497.22476,192.33204 L487.62476,211.53204 C487.47716,211.82844 487.59716,212.18844 487.89356,212.33724 C488.18996,212.48484 488.54996,212.36484 488.69876,212.06844" id="Fill-52" fill="#C3C3C3"></path>
                        <path d="M546.3158,215.28756 L536.7158,192.36756 C536.5874,192.06276 536.2358,191.91756 535.931,192.04716 C535.625,192.17436 535.481,192.52596 535.6094,192.83196 L545.2094,215.75196 C545.3366,216.05676 545.6882,216.20076 545.9942,216.07236 C546.299,215.94516 546.443,215.59356 546.3158,215.28756" id="Fill-53" fill="#C3C3C3"></path>
                        <path d="M492.962,202.8 L540.1832,202.8 C540.5144,202.8 540.7832,202.53 540.7832,202.2 C540.7832,201.8688 540.5144,201.6 540.1832,201.6 L492.962,201.6 C492.6308,201.6 492.362,201.8688 492.362,202.2 C492.362,202.53 492.6308,202.8 492.962,202.8" id="Fill-54" fill="#C3C3C3"></path>
                        <path d="M488.162,212.4 L544.2044,212.4 C544.5356,212.4 544.8044,212.13 544.8044,211.8 C544.8044,211.4688 544.5356,211.2 544.2044,211.2 L488.162,211.2 C487.8308,211.2 487.562,211.4688 487.562,211.8 C487.562,212.13 487.8308,212.4 488.162,212.4" id="Fill-55" fill="#C3C3C3"></path>
                        <path d="M489.12176,222 L545.12456,222 C545.45576,222 545.72456,221.73 545.72456,221.4 C545.72456,221.0688 545.45576,220.8 545.12456,220.8 L489.12176,220.8 C488.79056,220.8 488.52176,221.0688 488.52176,221.4 C488.52176,221.73 488.79056,222 489.12176,222" id="Fill-56" fill="#C3C3C3"></path>
                        <path d="M490.08212,231.6 L544.08332,231.6 C544.41572,231.6 544.68332,231.33 544.68332,231 C544.68332,230.6688 544.41572,230.4 544.08332,230.4 L490.08212,230.4 C489.75092,230.4 489.48212,230.6688 489.48212,231 C489.48212,231.33 489.75092,231.6 490.08212,231.6" id="Fill-57" fill="#C3C3C3"></path>
                        <path d="M491.04188,241.2 L543.04268,241.2 C543.37508,241.2 543.64268,240.93 543.64268,240.6 C543.64268,240.2688 543.37508,240 543.04268,240 L491.04188,240 C490.71068,240 490.44188,240.2688 490.44188,240.6 C490.44188,240.93 490.71068,241.2 491.04188,241.2" id="Fill-58" fill="#C3C3C3"></path>
                        <path d="M479.162,211.8 L479.162,192.6 C479.162,192.2688 478.8932,192 478.562,192 C478.2308,192 477.962,192.2688 477.962,192.6 L477.962,211.8 C477.962,212.13 478.2308,212.4 478.562,212.4 C478.8932,212.4 479.162,212.13 479.162,211.8" id="Fill-59" fill="#C3C3C3"></path>
                        <path d="M488.762,211.8 L488.762,192.6 C488.762,192.2688 488.4932,192 488.162,192 C487.8308,192 487.562,192.2688 487.562,192.6 L487.562,211.8 C487.562,212.13 487.8308,212.4 488.162,212.4 C488.4932,212.4 488.762,212.13 488.762,211.8" id="Fill-60" fill="#C3C3C3"></path>
                        <path d="M546.33512,215.69652 L552.01832,197.35212 C552.11672,197.03532 551.93912,196.69932 551.62232,196.60212 C551.30672,196.50372 550.96952,196.68012 550.87232,196.99692 L545.18912,215.34132 C545.09072,215.65812 545.26832,215.99412 545.58512,216.09252 C545.90072,216.18972 546.23672,216.01332 546.33512,215.69652" id="Fill-61" fill="#C3C3C3"></path>
                        <path d="M553.68572,217.76484 L559.21892,199.75044 C559.31612,199.43484 559.13852,199.09764 558.82172,199.00044 C558.50492,198.90324 558.16892,199.08204 558.07172,199.39764 L552.53852,217.41204 C552.44132,217.73004 552.61892,218.06484 552.93572,218.16204 C553.25252,218.25924 553.58852,218.08164 553.68572,217.76484" id="Fill-62" fill="#C3C3C3"></path>
                        <path d="M324.962,135 L324.962,134.4 L267.962,134.4 L267.962,97.2 L324.362,97.2 L324.362,135 L324.962,135 L324.962,134.4 L324.962,135 L325.562,135 L325.562,96.6 C325.562,96.4416 325.4984,96.2868 325.3868,96.1752 C325.2752,96.0636 325.1204,96 324.962,96 L267.362,96 C267.2048,96 267.05,96.0636 266.9372,96.1752 C266.8256,96.2868 266.762,96.4416 266.762,96.6 L266.762,135 C266.762,135.1596 266.8244,135.3108 266.9372,135.4248 C267.0512,135.5364 267.2024,135.6 267.362,135.6 L324.962,135.6 C325.1228,135.6 325.2728,135.5364 325.3868,135.4248 C325.4996,135.3108 325.562,135.1596 325.562,135 L324.962,135 Z" id="Fill-63" fill="#C3C3C3"></path>
                        <path d="M612.962,135 L612.962,134.4 L555.962,134.4 L555.962,97.2 L612.362,97.2 L612.362,135 L612.962,135 L612.962,134.4 L612.962,135 L613.562,135 L613.562,96.6 C613.562,96.4416 613.4984,96.2868 613.3868,96.1752 C613.2752,96.0636 613.1204,96 612.962,96 L555.362,96 C555.2048,96 555.05,96.0636 554.9372,96.1752 C554.8256,96.2868 554.762,96.4416 554.762,96.6 L554.762,135 C554.762,135.1596 554.8244,135.3108 554.9372,135.4248 C555.0512,135.5364 555.2024,135.6 555.362,135.6 L612.962,135.6 C613.1228,135.6 613.2728,135.5364 613.3868,135.4248 C613.4996,135.3108 613.562,135.1596 613.562,135 L612.962,135 Z" id="Fill-64" fill="#C3C3C3"></path>
                        <path d="M334.562,144.6 L334.562,144 L258.362,144 L258.362,87.6 L333.962,87.6 L333.962,144.6 L334.562,144.6 L334.562,144 L334.562,144.6 L335.162,144.6 L335.162,87 C335.162,86.8416 335.0984,86.6868 334.9868,86.5752 C334.8752,86.4636 334.7192,86.4 334.562,86.4 L257.762,86.4 C257.6036,86.4 257.45,86.4636 257.3372,86.5752 C257.2268,86.6868 257.162,86.8416 257.162,87 L257.162,144.6 C257.162,144.7572 257.2268,144.912 257.3372,145.0248 C257.45,145.1352 257.6036,145.2 257.762,145.2 L334.562,145.2 C334.7192,145.2 334.8752,145.1352 334.9868,145.0248 C335.0984,144.912 335.162,144.7572 335.162,144.6 L334.562,144.6" id="Fill-65" fill="#C3C3C3"></path>
                        <path d="M622.562,144.6 L622.562,144 L546.362,144 L546.362,87.6 L621.962,87.6 L621.962,144.6 L622.562,144.6 L622.562,144 L622.562,144.6 L623.162,144.6 L623.162,87 C623.162,86.8416 623.0984,86.6868 622.9868,86.5752 C622.874,86.4636 622.7204,86.4 622.562,86.4 L545.762,86.4 C545.6048,86.4 545.45,86.4636 545.3384,86.5752 C545.2256,86.6868 545.162,86.8416 545.162,87 L545.162,144.6 C545.162,144.7572 545.2256,144.912 545.3384,145.0248 C545.45,145.1352 545.6048,145.2 545.762,145.2 L622.562,145.2 C622.7204,145.2 622.874,145.1352 622.9868,145.0248 C623.0984,144.912 623.162,144.7572 623.162,144.6 L622.562,144.6" id="Fill-66" fill="#C3C3C3"></path>
                        <path d="M554.9378,134.57472 L545.3378,144.17592 C545.1038,144.40992 545.1038,144.79032 545.3378,145.02432 C545.5718,145.25832 545.9522,145.25832 546.1874,145.02432 L555.7862,135.42432 C556.0202,135.19032 556.0202,134.80992 555.7862,134.57472 C555.5522,134.34192 555.1718,134.34192 554.9378,134.57472" id="Fill-68" fill="#C3C3C3"></path>
                        <path d="M622.9862,144.1758 L613.3862,134.5746 C613.1522,134.3418 612.7718,134.3418 612.5378,134.5746 C612.3038,134.8098 612.3038,135.1902 612.5378,135.4242 L622.1378,145.0242 C622.3718,145.2582 622.7522,145.2582 622.9862,145.0242 C623.2202,144.7902 623.2202,144.4098 622.9862,144.1758" id="Fill-69" fill="#C3C3C3"></path>
                        <path d="M334.9868,144.1758 L325.3868,134.5746 C325.1516,134.3418 324.7724,134.3418 324.5372,134.5746 C324.3032,134.8098 324.3032,135.1902 324.5372,135.4242 L334.1372,145.0242 C334.3724,145.2582 334.7528,145.2582 334.9868,145.0242 C335.2208,144.7902 335.2208,144.4098 334.9868,144.1758" id="Fill-71" fill="#C3C3C3"></path>
                        <path d="M266.9378,134.57472 L257.3378,144.17592 C257.1038,144.40992 257.1038,144.79032 257.3378,145.02432 C257.5718,145.25832 257.9522,145.25832 258.1862,145.02432 L267.7874,135.42432 C268.0202,135.19032 268.0202,134.80992 267.7874,134.57472 C267.5522,134.34192 267.1718,134.34192 266.9378,134.57472" id="Fill-74" fill="#C3C3C3"></path>
                        <path d="M219.7862,202.62432 L229.3862,193.02432 C229.6202,192.79032 229.6202,192.40992 229.3862,192.17592 C229.1522,191.94192 228.7718,191.94192 228.5378,192.17592 L218.9378,201.77592 C218.7038,202.00992 218.7038,202.39032 218.9378,202.62432 C219.1718,202.85832 219.5522,202.85832 219.7862,202.62432" id="Fill-75" fill="#4CDDD9"></path>
                        <path d="M229.3862,240.1758 L219.7862,230.5758 C219.5522,230.3418 219.1718,230.3418 218.9378,230.5758 C218.7038,230.8098 218.7038,231.1902 218.9378,231.4242 L228.5378,241.0242 C228.7718,241.2582 229.1522,241.2582 229.3862,241.0242 C229.6202,240.7902 229.6202,240.4098 229.3862,240.1758" id="Fill-76" fill="#4CDDD9"></path>
                        <path d="M190.9862,241.02432 L200.5862,231.42432 C200.8202,231.19032 200.8202,230.80992 200.5862,230.57592 C200.3522,230.34192 199.9718,230.34192 199.7378,230.57592 L190.1378,240.17592 C189.9038,240.40992 189.9038,240.79032 190.1378,241.02432 C190.3718,241.25832 190.7522,241.25832 190.9862,241.02432" id="Fill-77" fill="#4CDDD9"></path>
                        <path d="M200.5862,201.7758 L190.9862,192.1758 C190.7522,191.9418 190.3718,191.9418 190.1378,192.1758 C189.9038,192.4098 189.9038,192.7902 190.1378,193.0242 L199.7378,202.6242 C199.9718,202.8582 200.3522,202.8582 200.5862,202.6242 C200.8202,202.3902 200.8202,202.0098 200.5862,201.7758" id="Fill-78" fill="#4CDDD9"></path>
                        <path d="M70.5626,230.4 L41.7626,230.4 C41.6054,230.4 41.4506,230.4636 41.3378,230.5752 C41.2262,230.6868 41.1626,230.8416 41.1626,231 L41.1626,250.2 C41.1626,250.3596 41.225,250.5108 41.3378,250.6248 C41.4518,250.7376 41.6018,250.8 41.7626,250.8 L142.5626,250.8 C142.8938,250.8 143.1626,250.5312 143.1626,250.2 C143.1626,249.8688 142.8938,249.6 142.5626,249.6 L42.3626,249.6 L42.3626,231.5988 L70.5626,231.6 C70.8938,231.6 71.1626,231.33 71.1626,231 C71.1626,230.6688 70.8938,230.4 70.5626,230.4" id="Fill-79" fill="#C3C3C3"></path>
                        <path d="M219.362,231 L219.362,230.4 L200.762,230.4 L200.762,202.8 L218.762,202.8 L218.762,231 L219.362,231 L219.362,230.4 L219.362,231 L219.962,231 L219.962,202.2 C219.962,202.0416 219.8984,201.8868 219.7868,201.7752 C219.6752,201.6636 219.5204,201.6 219.362,201.6 L200.162,201.6 C200.0048,201.6 199.85,201.6636 199.7372,201.7752 C199.6256,201.8868 199.562,202.0416 199.562,202.2 L199.562,231 C199.562,231.1572 199.6256,231.312 199.7372,231.4248 C199.85,231.5352 200.0048,231.6 200.162,231.6 L219.362,231.6 C219.5204,231.6 219.6752,231.5352 219.7868,231.4248 C219.8984,231.312 219.962,231.1572 219.962,231 L219.362,231 Z" id="Fill-80" fill="#4CDDD9"></path>
                        <path d="M286.562,115.8 L287.162,115.8 C287.162,113.3136 288.1688,111.0672 289.7984,109.4352 C291.4292,107.8068 293.6744,106.8 296.162,106.8 C298.6496,106.8 300.896,107.8068 302.5268,109.4352 C304.1564,111.0672 305.162,113.3136 305.162,115.8 C305.162,118.2864 304.1564,120.5328 302.5268,122.1636 C300.896,123.7932 298.6496,124.7988 296.162,124.8 C293.6744,124.7988 291.4292,123.7932 289.7984,122.1636 C288.1688,120.5328 287.162,118.2864 287.162,115.8 L286.562,115.8 L285.962,115.8 C285.962,121.4328 290.528,125.9988 296.162,126 C301.796,125.9988 306.362,121.4328 306.362,115.8 C306.362,110.1672 301.796,105.6 296.162,105.6 C290.528,105.6 285.962,110.1672 285.962,115.8 L286.562,115.8 Z" id="Fill-82" fill="#C3C3C3"></path>
                        <path d="M574.562,115.8 L575.162,115.8 C575.162,113.3136 576.1688,111.0672 577.7984,109.4352 C579.4292,107.8068 581.6744,106.8 584.162,106.8 C586.6496,106.8 588.896,107.8068 590.5268,109.4352 C592.1564,111.0672 593.162,113.3136 593.162,115.8 C593.162,118.2864 592.1564,120.5328 590.5268,122.1636 C588.896,123.7932 586.6496,124.7988 584.162,124.8 C581.6744,124.7988 579.4292,123.7932 577.7984,122.1636 C576.1688,120.5328 575.162,118.2864 575.162,115.8 L574.562,115.8 L573.962,115.8 C573.962,121.4328 578.528,125.9988 584.162,126 C589.796,125.9988 594.362,121.4328 594.362,115.8 C594.362,110.1672 589.796,105.6 584.162,105.6 C578.528,105.6 573.962,110.1672 573.962,115.8 L574.562,115.8 Z" id="Fill-83" fill="#C3C3C3"></path>
                        <path d="M497.762,144 L382.562,144 C382.2308,144 381.962,144.2688 381.962,144.6 C381.962,144.93 382.2308,145.2 382.562,145.2 L497.762,145.2 C498.0932,145.2 498.362,144.93 498.362,144.6 C498.362,144.2688 498.0932,144 497.762,144" id="Fill-84" fill="#C3C3C3"></path>
                        <path d="M420.962,115.8 L420.962,115.2 L402.362,115.2 L402.362,97.2 L420.362,97.2 L420.362,115.8 L420.962,115.8 L420.962,115.2 L420.962,115.8 L421.562,115.8 L421.562,96.6 C421.562,96.4416 421.4984,96.2868 421.3868,96.1752 C421.2752,96.0636 421.1204,96 420.962,96 L401.762,96 C401.6048,96 401.45,96.0636 401.3372,96.1752 C401.2256,96.2868 401.162,96.4416 401.162,96.6 L401.162,115.8 C401.162,115.9572 401.2256,116.112 401.3372,116.2248 C401.45,116.3352 401.6048,116.4 401.762,116.4 L420.962,116.4 C421.1204,116.4 421.2752,116.3352 421.3868,116.2248 C421.4984,116.112 421.562,115.9572 421.562,115.8 L420.962,115.8 Z" id="Fill-85" fill="#C3C3C3"></path>
                        <path d="M449.762,125.4 L449.762,126 L497.762,126 C497.9228,126 498.0728,125.9364 498.1868,125.8248 C498.2996,125.7108 498.362,125.5596 498.362,125.4 L498.362,77.4 C498.362,77.2416 498.2984,77.0868 498.1868,76.9752 C498.0752,76.8636 497.9204,76.8 497.762,76.8 L449.762,76.8 C449.6048,76.8 449.45,76.8636 449.3372,76.9752 C449.2256,77.0868 449.162,77.2416 449.162,77.4 L449.162,125.4 C449.162,125.5596 449.2244,125.7108 449.3372,125.8248 C449.4512,125.9364 449.6024,126 449.762,126 L449.762,125.4 L450.362,125.4 L450.362,78 L497.162,78 L497.162,124.8 L449.762,124.8 L449.762,125.4 L450.362,125.4 L449.762,125.4 Z" id="Fill-86" fill="#C3C3C3"></path>
                        <path d="M420.962,106.8 L449.762,106.8 C450.0932,106.8 450.362,106.53 450.362,106.2 C450.362,105.8688 450.0932,105.6 449.762,105.6 L420.962,105.6 C420.6308,105.6 420.362,105.8688 420.362,106.2 C420.362,106.53 420.6308,106.8 420.962,106.8" id="Fill-87" fill="#C3C3C3"></path>
                        <path d="M401.162,77.4 L401.162,144.6 C401.162,144.93 401.4308,145.2 401.762,145.2 C402.0932,145.2 402.362,144.93 402.362,144.6 L402.362,77.4 C402.362,77.0688 402.0932,76.8 401.762,76.8 C401.4308,76.8 401.162,77.0688 401.162,77.4" id="Fill-88" fill="#C3C3C3"></path>
                        <path d="M468.362,125.4 L468.362,144.6 C468.362,144.93 468.6308,145.2 468.962,145.2 C469.2932,145.2 469.562,144.93 469.562,144.6 L469.562,125.4 C469.562,125.0688 469.2932,124.8 468.962,124.8 C468.6308,124.8 468.362,125.0688 468.362,125.4" id="Fill-89" fill="#C3C3C3"></path>
                        <path d="M420.362,115.8 L420.362,144.6 C420.362,144.93 420.6308,145.2 420.962,145.2 C421.2932,145.2 421.562,144.93 421.562,144.6 L421.562,115.8 C421.562,115.4688 421.2932,115.2 420.962,115.2 C420.6308,115.2 420.362,115.4688 420.362,115.8" id="Fill-90" fill="#C3C3C3"></path>
                        <polygon id="Fill-95" fill="#EDEDED" points="228.962 250.2 152.162 250.2 152.162 259.8 152.162 269.4 169.9904 269.4 171.362 259.8 209.762 259.8 211.1348 269.4 228.962 269.4"></polygon>
                        <polygon id="Fill-96" fill="#EDEDED" points="564.362 308.4 546.7328 308.4 555.7328 326.4 564.362 326.4"></polygon>
                        <path d="M564.9626,308.39892 L546.0626,308.39892 L555.3626,327.00012 L555.899,326.73132 L555.3626,327.00012 L564.9626,327.00012 L564.9626,308.39892 L564.9626,308.39892 Z M555.7334,326.40012 L546.7334,308.40012 L564.3626,308.40012 L564.3626,326.40012 L555.7334,326.40012 L555.7334,326.40012 Z" id="Fill-97" fill="#B5B5B5"></path>
                        <polygon id="Fill-98" fill="#B5B5B5" points="564.9626 307.8 545.7626 307.8 546.0626 308.3988 564.9626 308.3988"></polygon>
                        <polygon id="Fill-99" fill="#EDEDED" points="314.39168 308.4 296.76248 308.4 296.76248 326.4 305.39168 326.4"></polygon>
                        <path d="M315.0626,308.39892 L296.1626,308.39892 L296.1626,327.00012 L305.7626,327.00012 L315.0626,308.39892 L315.0626,308.39892 Z M296.7626,326.40012 L296.7626,308.40012 L314.3918,308.40012 L305.3918,326.40012 L296.7626,326.40012 Z" id="Fill-100" fill="#B5B5B5"></path>
                        <polygon id="Fill-101" fill="#B5B5B5" points="315.362 307.8 296.162 307.8 296.162 308.3988 315.062 308.3988"></polygon>
                        <polygon id="Fill-102" fill="#EDEDED" points="334.562 145.2 334.562 145.2 257.762 145.2 257.762 154.2 334.562 154.2"></polygon>
                        <path d="M333.7142,144.6 L258.611,144.6 L258.1862,145.0248 C258.0698,145.1412 257.9162,145.2 257.7626,145.2 L334.5626,145.2 C334.409,145.2 334.2554,145.1412 334.1378,145.0248 L333.7142,144.6" id="Fill-103" fill="#B5B5B5"></path>
                        <path d="M334.562,144.6 L333.7136,144.6 L334.1372,145.0248 C334.2548,145.1412 334.4084,145.2 334.562,145.2 L334.562,144.6" id="Fill-104" fill="#B5B5B5"></path>
                        <path d="M258.61052,144.6 L257.76212,144.6 L257.76212,145.2 C257.91572,145.2 258.06932,145.1412 258.18572,145.0248 L258.61052,144.6" id="Fill-105" fill="#B5B5B5"></path>
                        <polygon id="Fill-106" fill="#EDCF27" points="344.16188 268.79976 363.36188 268.79976 363.36188 230.99976 344.16188 230.99976"></polygon>
                        <polygon id="Fill-107" fill="#B5B5B5" points="344.16188 269.39976 363.36188 269.39976 363.36188 268.79976 344.16188 268.79976"></polygon>
                        <polygon id="Fill-110" fill="#EDEDED" points="622.562 145.2 622.562 145.2 545.762 145.2 545.762 154.2 622.562 154.2"></polygon>
                        <path d="M621.7136,144.6 L546.6104,144.6 L546.1868,145.0248 C546.0692,145.1412 545.9156,145.2 545.7632,145.2 L545.762,145.2 L622.562,145.2 C622.4084,145.2 622.2548,145.1412 622.1384,145.0248 L621.7136,144.6" id="Fill-111" fill="#B5B5B5"></path>
                        <path d="M546.61052,144.6 L545.76212,144.6 L545.76212,145.2 L545.76212,145.2 C545.91572,145.2 546.06932,145.1412 546.18692,145.0248 L546.61052,144.6" id="Fill-112" fill="#B5B5B5"></path>
                        <path d="M622.562,144.6 L621.7136,144.6 L622.1372,145.0248 C622.2548,145.1412 622.4084,145.2 622.562,145.2 L622.562,144.6" id="Fill-113" fill="#B5B5B5"></path>
                        <polygon id="Fill-114" fill="#EDEDED" points="497.7626 164.4 497.7626 164.4 372.9626 164.4 372.9626 173.4 497.7626 173.4"></polygon>
                        <path d="M497.7626,163.8 L373.811,163.8 L373.3874,164.2248 C373.2698,164.3412 373.1162,164.4 372.9626,164.4 L372.9626,164.4 L497.7626,164.4 L497.7626,163.8" id="Fill-115" fill="#B5B5B5"></path>
                        <path d="M373.81112,163.8 L372.96152,163.8 L372.96152,164.4 L372.96272,164.4 C373.11632,164.4 373.26992,164.3412 373.38632,164.2248 L373.81112,163.8" id="Fill-116" fill="#B5B5B5"></path>
                        <path d="M506.02556,264.51096 C506.56676,265.42416 506.96156,266.43336 507.17516,267.50616 L507.43676,268.81176 C507.47516,268.80336 507.51356,268.79976 507.55436,268.79976 L531.07196,268.79976 L506.25596,264.54816 L506.02556,264.51096 M545.76236,269.99976 L507.67436,269.99976 L511.27676,288.01176 C511.31516,288.00336 511.35356,287.99976 511.39436,287.99976 L539.51036,287.99976 C543.16196,286.64016 545.76236,283.12416 545.76236,278.99976 L545.76236,269.99976" id="Fill-117" fill="#EDEDED"></path>
                        <path d="M506.02496,264.50976 C506.02496,264.50976 506.02496,264.50976 506.02496,264.51096 L506.25536,264.54816 L506.02496,264.50976" id="Fill-118" fill="#D6D6D6"></path>
                        <path d="M531.07196,268.8 L507.55436,268.8 C507.51356,268.8 507.47396,268.8036 507.43676,268.812 L507.55196,269.394 L507.55436,269.4 L507.67436,270 L545.76236,270 L545.76236,269.4 L534.57236,269.4 L531.07196,268.8 M539.51036,288 L511.39436,288 C511.35356,288 511.31516,288.0036 511.27676,288.012 L511.39436,288.6 L536.16236,288.6 C537.33956,288.6 538.46876,288.3876 539.51036,288" id="Fill-119" fill="#B5B5B5"></path>
                        <path d="M152.1626,250.2 L143.1626,250.2 C143.1626,250.5312 142.8938,250.8 142.5626,250.8 L41.7626,250.8 L41.7626,259.8 L152.1626,259.8 L152.1626,250.2" id="Fill-120" fill="#EDEDED"></path>
                        <path d="M143.162,250.2 L41.762,250.2 L41.762,250.8 L142.562,250.8 C142.8932,250.8 143.162,250.5312 143.162,250.2" id="Fill-121" fill="#B5B5B5"></path>
                        <path d="M491.53232,262.09464 C489.61112,263.73504 488.34632,266.11944 488.18072,268.80024 C488.34632,266.11944 489.61232,263.73384 491.53352,262.09464 L491.53232,262.09464 M507.67352,270.00024 L507.67352,270.00024 L508.58192,274.53744 L507.67352,270.00024" id="Fill-122" fill="#EDEDED"></path>
                        <path d="M491.53352,262.09464 C489.61232,263.73384 488.34632,266.11944 488.18072,268.80024 C488.50352,268.80984 488.76152,269.07384 488.76152,269.40024 C488.76152,269.72424 488.50472,269.98824 488.18192,270.00024 C488.20832,270.39384 488.25872,270.78144 488.32952,271.16184 L508.58192,274.53744 L507.67352,270.00024 L507.55472,270.00024 C507.22352,270.00024 506.95472,269.73024 506.95472,269.40024 C506.95472,269.13024 507.13112,268.90344 507.37592,268.82664 L506.02472,264.51144 L491.53352,262.09464" id="Fill-123" fill="#D6D6D6"></path>
                        <path d="M491.53592,262.09224 C491.53472,262.09344 491.53352,262.09464 491.53232,262.09464 L491.53352,262.09464 L506.02472,264.51144 L506.02472,264.51024 L491.53592,262.09224" id="Fill-124" fill="#D6D6D6"></path>
                        <path d="M507.37556,268.827 C507.13076,268.9026 506.95436,269.1306 506.95436,269.4006 C506.95436,269.7306 507.22316,270.0006 507.55436,270.0006 L507.67436,270.0006 L507.55196,269.3946 L507.37556,268.827" id="Fill-125" fill="#B5B5B5"></path>
                        <path d="M488.18084,268.8 C488.16884,268.998 488.16164,269.1984 488.16164,269.4 C488.16164,269.6016 488.16884,269.8008 488.18204,270 C488.50484,269.988 488.76164,269.7252 488.76164,269.4 C488.76164,269.0748 488.50364,268.8096 488.18084,268.8" id="Fill-126" fill="#B5B5B5"></path>
                        <path d="M506.02556,264.51096 C506.56676,265.42416 506.96156,266.43336 507.17516,267.50616 L507.43676,268.81176 L507.17516,267.50616 C506.96156,266.43336 506.56676,265.42416 506.02556,264.51096" id="Fill-127" fill="#DCDCDC"></path>
                        <path d="M506.02496,264.51096 L507.37496,268.82736 C507.39536,268.82136 507.41576,268.81536 507.43616,268.81176 L507.17456,267.50616 C506.96096,266.43336 506.56736,265.42416 506.02496,264.51096 L506.02496,264.51096" id="Fill-128" fill="#C7C7C7"></path>
                        <path d="M506.02496,264.50976 L506.02496,264.51096 L506.02496,264.51096 C506.02496,264.50976 506.02496,264.50976 506.02496,264.50976" id="Fill-129" fill="#C7C7C7"></path>
                        <path d="M507.4364,268.81176 L507.4364,268.81176 C507.4148,268.81536 507.3956,268.82136 507.3752,268.82736 L507.5528,269.39376 L507.4364,268.81176" id="Fill-130" fill="#A8A8A8"></path>
                        <polygon id="Fill-131" fill="#7A7999" points="358.562 194.775 348.962 194.775 353.762 199.575"></polygon>
                        <path d="M358.562,194.775 L358.562,193.575 L348.962,193.575 C348.4772,193.575 348.0392,193.8666 347.8532,194.3154 C347.6672,194.763 347.7704,195.2802 348.1136,195.6234 L352.9136,200.4234 C353.1404,200.6502 353.4416,200.775 353.762,200.775 C354.0824,200.775 354.3848,200.6502 354.6104,200.4234 L359.4104,195.6234 C359.7536,195.2802 359.8568,194.763 359.6708,194.3154 C359.4848,193.8666 359.0468,193.575 358.562,193.575 L358.562,194.775 L357.7136,193.9266 L353.762,197.8782 L351.86,195.975 L358.562,195.975 L358.562,194.775 L357.7136,193.9266 L358.562,194.775 Z" id="Fill-132" fill="#7A7A7A"></path>
                        <path d="M358.562,185.4 C358.562,186.7248 359.6372,187.8 360.962,187.8 C362.2868,187.8 363.362,186.7248 363.362,185.4 C363.362,184.0752 362.2868,183 360.962,183 C359.6372,183 358.562,184.0752 358.562,185.4" id="Fill-133" fill="#7A7A7A"></path>
                        <path d="M344.162,185.4 C344.162,186.7248 345.2372,187.8 346.562,187.8 C347.8868,187.8 348.962,186.7248 348.962,185.4 C348.962,184.0752 347.8868,183 346.562,183 C345.2372,183 344.162,184.0752 344.162,185.4" id="Fill-134" fill="#7A7A7A"></path>
                        <path d="M335.77844,182.802 L333.37844,197.202 C333.26924,197.856 333.71084,198.4752 334.36484,198.5832 C335.01884,198.6924 335.63684,198.2508 335.74604,197.5968 L338.14604,183.1968 C338.25404,182.5428 337.81364,181.926 337.15964,181.8168 C336.50564,181.7076 335.88764,182.1492 335.77844,182.802" id="Fill-135" fill="#7A7A7A"></path>
                        <path d="M374.14568,197.202 L371.74568,182.802 C371.63648,182.1492 371.01848,181.7076 370.36568,181.8168 C369.71168,181.926 369.27008,182.5428 369.37808,183.1968 L371.77808,197.5968 C371.88728,198.2508 372.50528,198.6924 373.15928,198.5832 C373.81328,198.4752 374.25488,197.856 374.14568,197.202" id="Fill-136" fill="#7A7A7A"></path>
                        <path d="M334.562,196.2 L332.7284,196.2 C330.9116,196.1988 329.2772,195.4668 328.0856,194.2764 C326.8952,193.0836 326.162,191.4504 326.162,189.6336 C326.162,188.6148 326.3996,187.608 326.8556,186.6972 L327.0488,186.3096 C332.108,176.1912 342.4496,169.8 353.762,169.8 C365.0744,169.8 375.416,176.1912 380.4752,186.3096 L380.6684,186.6972 C381.1244,187.608 381.362,188.6148 381.362,189.6336 C381.362,191.4504 380.6288,193.0836 379.4384,194.2764 C378.2468,195.4668 376.6124,196.1988 374.7956,196.2 L372.962,196.2 C372.2996,196.2 371.762,196.7364 371.762,197.4 C371.762,198.0624 372.2996,198.6 372.962,198.6 L374.7956,198.6 C379.748,198.5988 383.762,194.586 383.762,189.6336 C383.762,188.2416 383.438,186.8688 382.8152,185.6244 L382.622,185.2356 C377.156,174.3048 365.984,167.4 353.762,167.4 C341.54,167.4 330.368,174.3048 324.902,185.2356 L324.7088,185.6244 C324.086,186.8688 323.762,188.2416 323.762,189.6336 C323.7632,194.586 327.776,198.5988 332.7284,198.6 L334.562,198.6 C335.2244,198.6 335.762,198.0624 335.762,197.4 C335.762,196.7364 335.2244,196.2 334.562,196.2" id="Fill-137" fill="#7A7A7A"></path>
                        <path d="M371.762,197.4 C371.762,199.7256 370.8248,201.8184 369.3032,203.3412 C367.7804,204.8628 365.6876,205.7988 363.362,205.8 C361.0364,205.7988 358.9436,204.8628 357.4208,203.3412 C355.8992,201.8184 354.962,199.7256 354.962,197.4 C354.962,196.7364 354.4244,196.2 353.762,196.2 C353.0996,196.2 352.562,196.7364 352.562,197.4 C352.562,203.3688 357.3932,208.2 363.362,208.2 C369.3308,208.2 374.162,203.3688 374.162,197.4 C374.162,196.7364 373.6244,196.2 372.962,196.2 C372.2996,196.2 371.762,196.7364 371.762,197.4" id="Fill-138" fill="#7A7A7A"></path>
                        <path d="M333.362,197.4 C333.362,203.3688 338.1932,208.2 344.162,208.2 C350.1308,208.2 354.962,203.3688 354.962,197.4 C354.962,196.7364 354.4244,196.2 353.762,196.2 C353.0996,196.2 352.562,196.7364 352.562,197.4 C352.562,199.7256 351.6248,201.8184 350.1032,203.3412 C348.5804,204.8628 346.4876,205.7988 344.162,205.8 C341.8364,205.7988 339.7436,204.8628 338.2208,203.3412 C336.6992,201.8184 335.762,199.7256 335.762,197.4 C335.762,196.7364 335.2244,196.2 334.562,196.2 C333.8996,196.2 333.362,196.7364 333.362,197.4" id="Fill-139" fill="#7A7A7A"></path>
                        <path d="M342.962,207 C342.9632,210.3144 345.6476,212.9988 348.962,213 L358.562,213 C361.8764,212.9988 364.562,210.3144 364.562,207 C364.562,206.3364 364.0244,205.8 363.362,205.8 C362.6996,205.8 362.162,206.3364 362.162,207 C362.1584,208.9872 360.5492,210.5964 358.562,210.6 L348.962,210.6 C346.9748,210.5964 345.3656,208.9872 345.362,207 C345.362,206.3364 344.8244,205.8 344.162,205.8 C343.4996,205.8 342.962,206.3364 342.962,207" id="Fill-140" fill="#7A7A7A"></path>
                        <path d="M142.562,240.6 L142.562,241.8 L237.362,241.8 L237.362,249 L143.762,249 L143.762,240.6 L142.562,240.6 L142.562,241.8 L142.562,240.6 L141.362,240.6 L141.362,250.2 C141.362,250.5156 141.4904,250.8252 141.7136,251.0484 C141.9368,251.2716 142.2464,251.4 142.562,251.4 L238.562,251.4 C238.8776,251.4 239.1872,251.2716 239.4104,251.0484 C239.6348,250.8252 239.762,250.5156 239.762,250.2 L239.762,240.6 C239.762,240.2832 239.6348,239.9748 239.4104,239.7516 C239.1872,239.5272 238.8788,239.4 238.562,239.4 L142.562,239.4 C142.2464,239.4 141.9368,239.5272 141.7136,239.7516 C141.4904,239.9748 141.362,240.2832 141.362,240.6 L142.562,240.6 Z" id="Fill-141" fill="#7A7A7A"></path>
                        <path d="M150.962,250.2 L150.962,327 C150.962,327.3156 151.0904,327.6252 151.3136,327.8484 C151.5368,328.0716 151.8464,328.2 152.162,328.2 L161.762,328.2 C162.3596,328.2 162.8648,327.7608 162.95,327.1692 L172.4024,261 L208.7216,261 L218.174,327.1692 C218.2592,327.7608 218.7644,328.2 219.362,328.2 L228.962,328.2 C229.2788,328.2 229.5872,328.0716 229.8104,327.8484 C230.0348,327.6252 230.162,327.3156 230.162,327 L230.162,250.2 C230.162,249.5364 229.6244,249 228.962,249 C228.2996,249 227.762,249.5364 227.762,250.2 L227.762,325.8 L220.4036,325.8 L210.95,259.6296 C210.8648,259.038 210.3596,258.6 209.762,258.6 L171.362,258.6 C170.7644,258.6 170.2592,259.038 170.174,259.6296 L160.7216,325.8 L153.362,325.8 L153.362,250.2 C153.362,249.5364 152.8244,249 152.162,249 C151.4996,249 150.962,249.5364 150.962,250.2" id="Fill-142" fill="#7A7A7A"></path>
                        <path d="M324.962,269.4 L326.162,269.4 C326.162,267.0756 327.1004,264.984 328.622,263.46 C330.146,261.9372 332.2388,261 334.562,261 C336.8864,261 338.978,261.9372 340.502,263.46 C342.0236,264.984 342.962,267.0756 342.962,269.4 L344.162,269.4 L344.162,268.2 L324.962,268.2 L324.962,269.4 L326.162,269.4 L324.962,269.4 L324.962,270.6 L344.162,270.6 C344.4788,270.6 344.7872,270.4716 345.0104,270.2484 C345.2348,270.0252 345.362,269.7156 345.362,269.4 C345.362,263.4348 340.5272,258.6 334.562,258.6 C328.5968,258.6 323.7632,263.4348 323.762,269.4 C323.762,269.7156 323.8904,270.0252 324.1136,270.2484 C324.3368,270.4716 324.6464,270.6 324.962,270.6 L324.962,269.4 Z" id="Fill-143" fill="#7A7A7A"></path>
                        <path d="M363.362,269.4 L364.562,269.4 C364.562,267.0756 365.5004,264.984 367.022,263.46 C368.546,261.9372 370.6388,261 372.962,261 C375.2864,261 377.378,261.9372 378.902,263.46 C380.4236,264.984 381.362,267.0756 381.362,269.4 L382.562,269.4 L382.562,268.2 L363.362,268.2 L363.362,269.4 L364.562,269.4 L363.362,269.4 L363.362,270.6 L382.562,270.6 C382.8788,270.6 383.1872,270.4716 383.4104,270.2484 C383.6348,270.0252 383.762,269.7156 383.762,269.4 C383.762,263.4348 378.9272,258.6 372.962,258.6 C366.9968,258.6 362.1632,263.4348 362.162,269.4 C362.162,269.7156 362.2904,270.0252 362.5136,270.2484 C362.7368,270.4716 363.0464,270.6 363.362,270.6 L363.362,269.4 Z" id="Fill-144" fill="#7A7A7A"></path>
                        <path d="M337.2134,204.63636 C335.5634,209.35476 332.2082,219.44676 329.2586,231.40236 C326.3114,243.36156 323.7638,257.17356 323.7626,269.40036 C323.7626,270.06156 324.299,270.60036 324.9626,270.60036 C325.625,270.60036 326.1626,270.06156 326.1626,269.40036 C326.1602,257.50236 328.6646,243.82476 331.589,231.97716 C334.5122,220.12596 337.847,210.09636 339.479,205.42836 C339.6974,204.80316 339.3674,204.11796 338.7422,203.89956 C338.1158,203.68116 337.4318,204.01116 337.2134,204.63636" id="Fill-145" fill="#7A7A7A"></path>
                        <path d="M368.04548,205.4286 C369.67748,210.0966 373.01348,220.1262 375.93548,231.9774 C378.85988,243.825 381.36428,257.5026 381.36188,269.4006 C381.36188,270.0618 381.89948,270.6006 382.56188,270.6006 C383.22428,270.6006 383.76188,270.0618 383.76188,269.4006 C383.75948,257.1738 381.21308,243.3606 378.26588,231.4026 C375.31748,219.447 371.95988,209.3538 370.31108,204.6366 C370.09268,204.0102 369.40748,203.6802 368.78228,203.8998 C368.15708,204.1182 367.82708,204.8034 368.04548,205.4286" id="Fill-146" fill="#7A7A7A"></path>
                        <path d="M345.362,269.4 L345.362,231 C345.362,230.3364 344.8244,229.8 344.162,229.8 C343.4996,229.8 342.962,230.3364 342.962,231 L342.962,269.4 C342.962,270.0624 343.4996,270.6 344.162,270.6 C344.8244,270.6 345.362,270.0624 345.362,269.4" id="Fill-147" fill="#7A7A7A"></path>
                        <path d="M364.562,269.4 L364.562,231 C364.562,230.3364 364.0244,229.8 363.362,229.8 C362.6996,229.8 362.162,230.3364 362.162,231 L362.162,269.4 C362.162,270.0624 362.6996,270.6 363.362,270.6 C364.0244,270.6 364.562,270.0624 364.562,269.4" id="Fill-148" fill="#7A7A7A"></path>
                        <path d="M400.562,231 C400.5632,243.246 392.6084,253.614 381.5828,257.2296 C380.9528,257.436 380.6096,258.114 380.816,258.744 C381.0224,259.374 381.7004,259.7172 382.3304,259.5108 C394.3196,255.5808 402.9608,244.308 402.962,231 C402.962,230.3364 402.4244,229.8 401.762,229.8 C401.0996,229.8 400.562,230.3364 400.562,231" id="Fill-149" fill="#7A7A7A"></path>
                        <path d="M400.562,231 C400.5668,232.1964 400.0988,233.7228 399.1448,235.3548 C397.7216,237.8064 395.2424,240.4752 392.018,242.7744 C388.7936,245.0748 384.8276,247.0152 380.4356,248.088 C379.7912,248.2452 379.3976,248.8956 379.5548,249.5388 C379.712,250.182 380.3624,250.5768 381.0056,250.4208 C387.2936,248.8788 392.7152,245.7204 396.608,242.1396 C398.5544,240.3468 400.1204,238.4484 401.2196,236.562 C402.314,234.6756 402.9572,232.7952 402.962,231 C402.962,230.3364 402.4244,229.8 401.762,229.8 C401.0996,229.8 400.562,230.3364 400.562,231" id="Fill-150" fill="#7A7A7A"></path>
                        <path d="M470.162,211.8 L470.162,192.6 C470.162,191.9364 469.6244,191.4 468.962,191.4 C468.2996,191.4 467.762,191.9364 467.762,192.6 L467.762,211.8 C467.762,212.4624 468.2996,213 468.962,213 C469.6244,213 470.162,212.4624 470.162,211.8" id="Fill-151" fill="#7A7A7A"></path>
                        <path d="M561.64388,220.71564 L567.63188,202.56564 C567.83948,201.93684 567.49748,201.25764 566.86868,201.05004 C566.23868,200.84244 565.56068,201.18564 565.35188,201.81444 L559.36508,219.96444 C559.15748,220.59324 559.49828,221.27244 560.12828,221.48004 C560.75828,221.68764 561.43628,221.34564 561.64388,220.71564" id="Fill-152" fill="#7A7A7A"></path>
                        <path d="M542.99696,252.16416 L546.95456,215.64816 C547.02656,214.98936 546.55016,214.39776 545.89136,214.32696 C545.23256,214.25496 544.64096,214.73136 544.56896,215.38896 L540.61136,251.90496 C540.53936,252.56496 541.01576,253.15656 541.67456,253.22856 C542.33336,253.29936 542.92496,252.82296 542.99696,252.16416" id="Fill-153" fill="#7A7A7A"></path>
                        <path d="M583.32008,213.08088 C582.84488,209.05608 580.10768,205.46568 576.00728,204.09648 L539.57768,191.95368 L539.51528,191.93448 L539.45528,191.91768 L539.13848,193.07568 L539.50928,191.93448 C539.25848,191.85288 539.01968,191.79168 538.80008,191.73648 L538.80968,191.73888 L538.48688,191.65608 L538.43528,191.64408 C538.22288,191.59968 538.03928,191.57328 537.88688,191.54928 L537.89408,191.55048 C537.74648,191.52648 537.56408,191.49168 537.34328,191.46528 L537.33608,191.46528 C537.15728,191.44728 537.03488,191.44488 536.96648,191.44008 C536.74448,191.42208 536.49968,191.40528 536.22968,191.40408 L536.22368,192.60408 L536.29208,191.40528 L536.23088,191.40168 L536.16248,191.40048 L526.56248,191.40048 C526.24568,191.40048 525.93728,191.52768 525.71408,191.75208 C525.49088,191.97408 525.36248,192.28368 525.36248,192.60048 C525.36128,194.92248 524.42408,197.01528 522.90128,198.53928 C521.37848,200.06088 519.28568,200.99928 516.96248,201.00048 C514.63928,200.99928 512.54648,200.06088 511.02248,198.53928 C509.50088,197.01528 508.56248,194.92248 508.56248,192.60048 C508.56248,192.28368 508.43408,191.97408 508.21088,191.75208 C507.98768,191.52768 507.67808,191.40048 507.36248,191.40048 L497.76248,191.40048 L459.36248,191.40048 L420.96248,191.40048 L411.36248,191.40048 C405.39608,191.40048 400.56248,196.23528 400.56248,202.20048 C400.56248,202.51488 400.69088,202.82448 400.91408,203.04888 C401.13728,203.27088 401.44568,203.40048 401.76248,203.40048 L420.81488,203.40048 L456.10928,212.22288 C458.17088,212.74008 460.29008,213.00048 462.41528,213.00048 L487.07648,213.00048 L490.04528,242.69928 C490.11248,243.35688 490.70048,243.83928 491.35928,243.77328 C492.01928,243.70608 492.50048,243.11928 492.43448,242.45928 L489.35648,211.68048 C489.29528,211.06728 488.77808,210.60048 488.16248,210.60048 L462.41528,210.60048 C460.48568,210.60048 458.56328,210.36288 456.69128,209.89488 L421.25288,201.03528 L420.96248,201.00048 L401.76248,201.00048 L401.76248,202.20048 L402.96248,202.20048 C402.96248,199.87608 403.90088,197.78448 405.42248,196.25928 C406.94648,194.73768 409.03928,193.80048 411.36248,193.80048 L420.96248,193.80048 L459.36248,193.80048 L497.76248,193.80048 L507.36248,193.80048 L507.36248,192.60048 L506.16248,192.60048 C506.16368,198.56448 510.99608,203.39928 516.96248,203.40048 C522.92768,203.39928 527.76128,198.56448 527.76248,192.60048 L526.56248,192.60048 L526.56248,193.80048 L536.13368,193.80048 L536.15528,193.80168 L536.21768,193.80408 C536.38328,193.80408 536.57288,193.81608 536.78768,193.83288 C536.94128,193.84368 537.03968,193.84728 537.07808,193.85208 L537.07088,193.85088 C537.18008,193.86168 537.32408,193.88928 537.50528,193.91808 L537.51248,193.91928 C537.68768,193.94688 537.83048,193.96848 537.93848,193.99248 L538.18688,192.81768 L537.88808,193.97928 L538.21088,194.06208 L538.22048,194.06448 C538.42208,194.11488 538.60688,194.16408 538.76768,194.21688 L538.82048,194.23248 L538.84688,194.23968 L575.24768,206.37288 C578.43968,207.43728 580.56488,210.22968 580.93688,213.36288 C581.01488,214.02168 581.61128,214.49208 582.27008,214.41408 C582.92768,214.33608 583.39808,213.73968 583.32008,213.08208 L583.32008,213.08088 Z" id="Fill-154" fill="#7A7A7A"></path>
                        <path d="M545.3894,216.65976 L567.3746,223.84896 C568.0046,224.05536 568.6826,223.71096 568.889,223.08216 C569.0942,222.45096 568.751,221.77416 568.121,221.56776 L546.1358,214.37856 C545.5058,214.17336 544.8278,214.51656 544.6214,215.14536 C544.415,215.77656 544.7594,216.45336 545.3894,216.65976" id="Fill-155" fill="#7A7A7A"></path>
                        <path d="M519.362,327 L519.362,325.8 L495.362,325.8 L495.362,327 L496.5272,327.2892 L496.598,327.0024 C497.8328,322.0656 502.2704,318.6 507.362,318.6 C512.4536,318.6 516.8912,322.0656 518.126,327.0036 L518.198,327.2892 L519.362,327 L519.362,325.8 L519.362,327 L520.5272,326.7096 L520.4552,326.4228 C518.9528,320.4144 513.5552,316.2 507.362,316.2 C501.1688,316.2 495.7724,320.4144 494.2688,326.4216 L494.198,326.7096 C494.1092,327.0672 494.1896,327.4476 494.4164,327.738 C494.6432,328.0284 494.9936,328.2 495.362,328.2 L519.362,328.2 C519.7304,328.2 520.0808,328.0284 520.3076,327.738 C520.5344,327.4476 520.616,327.0672 520.5272,326.7096 L519.362,327 Z" id="Fill-156" fill="#7A7A7A"></path>
                        <path d="M490.75652,261.18048 C488.43692,263.15568 486.96092,266.11128 486.962119,269.40048 C486.962119,270.12768 487.03412,270.83928 487.17212,271.52688 L496.77212,319.52808 C496.91972,320.26488 497.14772,320.96328 497.42732,321.62088 C497.58452,321.99048 497.91812,322.25688 498.31292,322.33128 C498.70652,322.40448 499.11452,322.27368 499.39292,321.98568 C501.43532,319.87848 504.27452,318.60048 507.36212,318.60048 C510.45212,318.60048 513.29252,319.87968 515.33492,321.99168 C515.61452,322.27968 516.02252,322.40928 516.41612,322.33608 C516.81092,322.26288 517.14572,321.99648 517.30292,321.62568 C517.85492,320.32848 518.16212,318.89808 518.16212,317.40048 C518.16212,316.67208 518.09012,315.95928 517.95212,315.27048 L508.35212,267.27048 C508.10972,266.06208 507.66572,264.92448 507.05732,263.89728 C506.71892,263.32728 505.98212,263.14008 505.41332,263.47728 C504.84332,263.81448 504.65492,264.55248 504.99332,265.12128 C505.46612,265.92048 505.81052,266.80368 505.99892,267.74088 L515.59892,315.74088 C515.70572,316.27728 515.76212,316.83168 515.76212,317.40048 C515.76212,318.56928 515.52332,319.67688 515.09372,320.68728 L516.19772,321.15648 L517.06052,320.32248 C514.58372,317.75928 511.12172,316.20048 507.36212,316.20048 C503.60612,316.20048 500.14532,317.75808 497.66972,320.31528 L498.53132,321.15168 L499.63532,320.68128 C499.41092,320.15448 499.23572,319.61208 499.12532,319.05648 L489.52532,271.05768 C489.41852,270.52248 489.36212,269.96808 489.36212,269.40048 C489.36212,266.83608 490.50572,264.55128 492.31412,263.00568 C492.81812,262.57608 492.87812,261.81888 492.44852,261.31368 C492.01892,260.80968 491.26052,260.75088 490.75652,261.18048 Z" id="Fill-157" fill="#7A7A7A"></path>
                        <path d="M530.162,163.8 L530.162,173.4 C530.162,177.048 528.6872,180.3408 526.2956,182.7324 C523.904,185.124 520.6112,186.5988 516.962,186.6 C513.3128,186.5988 510.0212,185.124 507.6284,182.7324 C505.238,180.3408 503.762,177.048 503.762,173.4 L503.762,163.8 C503.762,163.1364 503.2244,162.6 502.562,162.6 C501.8996,162.6 501.362,163.1364 501.362,163.8 L501.362,173.4 C501.3632,182.016 508.346,188.9988 516.962,189 C525.578,188.9988 532.562,182.016 532.562,173.4 L532.562,163.8 C532.562,163.1364 532.0244,162.6 531.362,162.6 C530.6996,162.6 530.162,163.1364 530.162,163.8" id="Fill-158" fill="#7A7A7A"></path>
                        <path d="M508.562,192.6 L508.562,184.0584 C508.562,183.3948 508.0244,182.8584 507.362,182.8584 C506.6996,182.8584 506.162,183.3948 506.162,184.0584 L506.162,192.6 C506.162,193.2624 506.6996,193.8 507.362,193.8 C508.0244,193.8 508.562,193.2624 508.562,192.6" id="Fill-159" fill="#7A7A7A"></path>
                        <path d="M527.762,192.6 L527.762,184.0584 C527.762,183.3948 527.2244,182.8584 526.562,182.8584 C525.8996,182.8584 525.362,183.3948 525.362,184.0584 L525.362,192.6 C525.362,193.2624 525.8996,193.8 526.562,193.8 C527.2244,193.8 527.762,193.2624 527.762,192.6" id="Fill-160" fill="#7A7A7A"></path>
                        <path d="M498.962,163.8 C498.962,158.8212 500.9732,154.3284 504.2312,151.0692 C507.4904,147.8112 511.9832,145.8 516.962,145.8 C517.6244,145.8 518.162,145.2624 518.162,144.6 C518.162,143.9364 517.6244,143.4 516.962,143.4 C505.6868,143.4 496.562,152.5248 496.562,163.8 C496.562,164.4624 497.0996,165 497.762,165 C498.4244,165 498.962,164.4624 498.962,163.8" id="Fill-161" fill="#7A7A7A"></path>
                        <path d="M537.362,163.8 C537.362,152.5248 528.2372,143.4 516.962,143.4 C516.2996,143.4 515.762,143.9364 515.762,144.6 C515.762,145.2624 516.2996,145.8 516.962,145.8 C521.9408,145.8 526.4336,147.8112 529.6928,151.0692 C532.9508,154.3284 534.962,158.8212 534.962,163.8 C534.962,164.4624 535.4996,165 536.162,165 C536.8244,165 537.362,164.4624 537.362,163.8" id="Fill-162" fill="#7A7A7A"></path>
                        <path d="M525.362,154.2 C525.362,156.5256 524.4248,158.6184 522.9032,160.1412 C521.3804,161.6628 519.2876,162.5988 516.962,162.6 C516.2996,162.6 515.762,163.1364 515.762,163.8 C515.762,164.4624 516.2996,165 516.962,165 C522.9308,165 527.762,160.1688 527.762,154.2 C527.762,153.5364 527.2244,153 526.562,153 C525.8996,153 525.362,153.5364 525.362,154.2" id="Fill-163" fill="#7A7A7A"></path>
                        <path d="M502.562,172.2 C500.5748,172.1964 498.9656,170.5872 498.962,168.6 C498.9656,166.6128 500.5748,165.0036 502.562,165 C503.2244,165 503.762,164.4624 503.762,163.8 C503.762,163.1364 503.2244,162.6 502.562,162.6 C499.2476,162.6 496.5632,165.2856 496.562,168.6 C496.5632,171.9144 499.2476,174.5988 502.562,174.6 C503.2244,174.6 503.762,174.0624 503.762,173.4 C503.762,172.7364 503.2244,172.2 502.562,172.2" id="Fill-164" fill="#7A7A7A"></path>
                        <path d="M531.362,165 C533.3492,165.0036 534.9584,166.6128 534.962,168.6 C534.9584,170.5872 533.3492,172.1964 531.362,172.2 C530.6996,172.2 530.162,172.7364 530.162,173.4 C530.162,174.0624 530.6996,174.6 531.362,174.6 C534.6764,174.5988 537.362,171.9144 537.362,168.6 C537.362,165.2856 534.6764,162.6 531.362,162.6 C530.6996,162.6 530.162,163.1364 530.162,163.8 C530.162,164.4624 530.6996,165 531.362,165" id="Fill-165" fill="#7A7A7A"></path>
                        <path d="M515.762,154.2 C515.762,156.5256 514.8248,158.6184 513.3032,160.1412 C511.7804,161.6628 509.6876,162.5988 507.362,162.6 C506.6996,162.6 506.162,163.1364 506.162,163.8 C506.162,164.4624 506.6996,165 507.362,165 C513.3308,165 518.162,160.1688 518.162,154.2 C518.162,153.5364 517.6244,153 516.962,153 C516.2996,153 515.762,153.5364 515.762,154.2" id="Fill-166" fill="#7A7A7A"></path>
                        <path d="M468.962,269.4 L470.162,269.4 L470.162,241.8 L477.362,241.8 L477.362,259.8 C477.362,262.1232 476.4236,264.216 474.902,265.7388 C473.378,267.2616 471.2864,268.1988 468.962,268.2 L468.962,269.4 L470.162,269.4 L468.962,269.4 L468.962,270.6 C474.9272,270.5988 479.762,265.7652 479.762,259.8 L479.762,240.6 C479.762,240.2832 479.6348,239.9748 479.4104,239.7516 C479.1872,239.5272 478.8788,239.4 478.562,239.4 L468.962,239.4 C468.6464,239.4 468.3368,239.5272 468.1136,239.7516 C467.8904,239.9748 467.762,240.2832 467.762,240.6 L467.762,269.4 C467.762,269.7156 467.8904,270.0252 468.1136,270.2484 C468.3368,270.4716 468.6464,270.6 468.962,270.6 L468.962,269.4 Z" id="Fill-167" fill="#7A7A7A"></path>
                        <path d="M496.562,163.8 L496.562,168.6 C496.562,169.2624 497.0996,169.8 497.762,169.8 C498.4244,169.8 498.962,169.2624 498.962,168.6 L498.962,163.8 C498.962,163.1364 498.4244,162.6 497.762,162.6 C497.0996,162.6 496.562,163.1364 496.562,163.8" id="Fill-168" fill="#7A7A7A"></path>
                        <path d="M534.962,163.8 L534.962,168.6 C534.962,169.2624 535.4996,169.8 536.162,169.8 C536.8244,169.8 537.362,169.2624 537.362,168.6 L537.362,163.8 C537.362,163.1364 536.8244,162.6 536.162,162.6 C535.4996,162.6 534.962,163.1364 534.962,163.8" id="Fill-169" fill="#7A7A7A"></path>
                        <path d="M344.162,270.6 L363.362,270.6 C364.0244,270.6 364.562,270.0624 364.562,269.4 C364.562,268.7364 364.0244,268.2 363.362,268.2 L344.162,268.2 C343.4996,268.2 342.962,268.7364 342.962,269.4 C342.962,270.0624 343.4996,270.6 344.162,270.6" id="Fill-170" fill="#7A7A7A"></path>
                        <path d="M537.75164,250.33128 L537.94964,249.14808 L480.34964,239.54808 C479.76764,239.44968 479.17004,239.40048 478.56164,239.40048 C478.24604,239.40048 477.93644,239.52768 477.71324,239.75208 C477.49004,239.97408 477.36164,240.28368 477.36164,240.60048 L477.36164,259.76808 L477.35684,259.86768 C477.32444,260.47968 477.75404,261.01488 478.35764,261.11568 L534.37604,270.45288 C534.95684,270.55008 535.55444,270.60048 536.16164,270.60048 C542.12684,270.59928 546.96164,265.76448 546.96164,259.80048 C546.95924,254.44488 543.06764,250.00008 537.94964,249.14808 L537.75164,250.33128 L537.55484,251.51448 C541.52684,252.17568 544.56524,255.63528 544.56164,259.80048 C544.56164,262.12248 543.62444,264.21528 542.10164,265.73928 C540.57764,267.26088 538.48604,268.19928 536.16164,268.20048 C535.68644,268.20048 535.22204,268.15968 534.77084,268.08528 L478.75244,258.74928 L478.55444,259.93248 L479.75324,259.99608 L479.76044,259.86288 L479.76164,259.80048 L479.76164,240.60048 L478.56164,240.60048 L478.56164,241.80048 C479.03804,241.80048 479.50244,241.83888 479.95244,241.91448 L537.55484,251.51448 L537.75164,250.33128 Z" id="Fill-171" fill="#7A7A7A"></path>
                        <path d="M564.69608,226.6008 C564.09608,227.9448 563.76248,229.4364 563.76248,231 C563.76368,236.9652 568.59608,241.7988 574.56248,241.8 C580.52768,241.7988 585.36128,236.9652 585.36248,231 L585.36008,230.9292 L585.29408,229.7904 L585.28688,229.7208 L583.32008,213.0816 C583.24208,212.424 582.64568,211.9524 581.98808,212.0304 C581.32928,212.1084 580.85888,212.7048 580.93688,213.3636 L582.89888,229.9644 L582.96488,231.0708 L584.16248,231 L582.96248,231 C582.96128,233.3232 582.02408,235.416 580.50128,236.9388 C578.97848,238.4616 576.88568,239.3988 574.56248,239.4 C572.23928,239.3988 570.14648,238.4616 568.62248,236.9388 C567.10088,235.416 566.16248,233.3232 566.16248,231 C566.16248,229.7772 566.42168,228.624 566.88848,227.5776 C567.15728,226.9728 566.88608,226.2636 566.28128,225.9936 C565.67528,225.7236 564.96608,225.9948 564.69608,226.6008" id="Fill-172" fill="#7A7A7A"></path>
                        <path d="M568.66628,217.70868 L564.69548,226.59948 C564.42548,227.20548 564.69668,227.91468 565.30268,228.18468 C565.90748,228.45468 566.61668,228.18348 566.88788,227.57868 L570.85748,218.68668 C571.12748,218.08308 570.85628,217.37268 570.25148,217.10268 C569.64668,216.83268 568.93628,217.10388 568.66628,217.70868" id="Fill-173" fill="#7A7A7A"></path>
                        <path d="M333.362,265.8 L333.362,269.4 C333.362,270.0624 333.8996,270.6 334.562,270.6 C335.2244,270.6 335.762,270.0624 335.762,269.4 L335.762,265.8 C335.762,265.1364 335.2244,264.6 334.562,264.6 C333.8996,264.6 333.362,265.1364 333.362,265.8" id="Fill-174" fill="#7A7A7A"></path>
                        <path d="M371.762,265.8 L371.762,269.4 C371.762,270.0624 372.2996,270.6 372.962,270.6 C373.6244,270.6 374.162,270.0624 374.162,269.4 L374.162,265.8 C374.162,265.1364 373.6244,264.6 372.962,264.6 C372.2996,264.6 371.762,265.1364 371.762,265.8" id="Fill-175" fill="#7A7A7A"></path>
                        <path d="M228.962,240.6 L228.962,239.4 L191.762,239.4 L191.762,193.8 L227.762,193.8 L227.762,240.6 L228.962,240.6 L228.962,239.4 L228.962,240.6 L230.162,240.6 L230.162,192.6 C230.162,192.2832 230.0348,191.9748 229.8104,191.7516 C229.5872,191.5272 229.2788,191.4 228.962,191.4 L190.562,191.4 C190.2464,191.4 189.9368,191.5272 189.7136,191.7516 C189.4904,191.9748 189.362,192.2832 189.362,192.6 L189.362,240.6 C189.362,240.9156 189.4904,241.2252 189.7136,241.4484 C189.9368,241.6716 190.2464,241.8 190.562,241.8 L228.962,241.8 C229.2788,241.8 229.5872,241.6716 229.8104,241.4484 C230.0348,241.2252 230.162,240.9156 230.162,240.6 L228.962,240.6 Z" id="Fill-176" fill="#7A7A7A"></path>
                        <path d="M180.962,240.6 L180.962,239.4 L153.362,239.4 L153.362,232.2 L179.762,232.2 L179.762,240.6 L180.962,240.6 L180.962,239.4 L180.962,240.6 L182.162,240.6 L182.162,231 C182.162,230.6832 182.0348,230.3748 181.8104,230.1516 C181.5872,229.9272 181.2788,229.8 180.962,229.8 L152.162,229.8 C151.8464,229.8 151.5368,229.9272 151.3136,230.1516 C151.0904,230.3748 150.962,230.6832 150.962,231 L150.962,240.6 C150.962,240.9156 151.0904,241.2252 151.3136,241.4484 C151.5368,241.6716 151.8464,241.8 152.162,241.8 L180.962,241.8 C181.2776,241.8 181.5872,241.6716 181.8104,241.4484 C182.0348,241.2252 182.162,240.9156 182.162,240.6 L180.962,240.6 Z" id="Fill-177" fill="#7A7A7A"></path>
                        <path d="M176.162,231 L176.162,229.8 L148.562,229.8 L148.562,222.6 L174.962,222.6 L174.962,231 L176.162,231 L176.162,229.8 L176.162,231 L177.362,231 L177.362,221.4 C177.362,221.0832 177.2348,220.7748 177.0104,220.5516 C176.7872,220.3272 176.4788,220.2 176.162,220.2 L147.362,220.2 C147.0464,220.2 146.7368,220.3272 146.5136,220.5516 C146.2904,220.7748 146.162,221.0832 146.162,221.4 L146.162,231 C146.162,231.3156 146.2904,231.6252 146.5136,231.8484 C146.7368,232.0716 147.0464,232.2 147.362,232.2 L176.162,232.2 C176.4776,232.2 176.7872,232.0716 177.0104,231.8484 C177.2348,231.6252 177.362,231.3156 177.362,231 L176.162,231 Z" id="Fill-178" fill="#7A7A7A"></path>
                    </g>
                </g>
            </g>
        </g>
    </g>
</svg>