<svg width="62" height="62" viewBox="0 0 62 62" fill="none" xmlns="http://www.w3.org/2000/svg">
<path fill-rule="evenodd" clip-rule="evenodd" d="M5.76322 14.9808L37.9399 6L40.0594 7.05173L44 19.837L42.9125 21.8838L10.9849 31L8.94063 29.9453L5 17.1606" fill="#FEFEFE"/>
<mask id="mask0" mask-type="alpha" maskUnits="userSpaceOnUse" x="0" y="0" width="62" height="62">
<path fill-rule="evenodd" clip-rule="evenodd" d="M0 0.12207H61.5163V61.3333H0V0.12207Z" fill="white"/>
</mask>
<g mask="url(#mask0)">
<path fill-rule="evenodd" clip-rule="evenodd" d="M6.99311 15.3338V15.6644C6.99311 16.279 6.68802 16.8598 6.15703 17.2585L5.90964 17.4431L9.83406 30.5948H10.1643C10.7211 30.5948 11.2883 30.907 11.6806 31.4302L11.869 31.6798L16.1298 30.3495L18.0696 24.21C18.1095 23.9953 18.2311 23.9254 18.3336 23.9254C18.3624 23.9254 18.3907 23.9316 18.4177 23.9414L28.3279 26.9541L43.6603 22.3019V21.9738C43.6603 21.3586 43.9654 20.7784 44.4964 20.381L44.7437 20.1964L40.8193 7.04403H40.4891C39.8746 7.04403 39.2933 6.73982 38.8949 6.20806L38.7095 5.96272L6.99311 15.3338ZM0.726198 13.4981L7.68554 36.7821L14.888 34.5551L15.8892 31.1094L11.7868 32.4434L11.6456 32.4366C11.6186 32.4366 11.5486 32.4366 11.5062 32.4336L11.4989 32.4262L11.4074 32.39C11.4221 32.3894 11.3435 32.3397 11.2963 32.2207C11.2785 31.8724 11.0256 31.5265 10.6622 31.3842C10.4927 31.2768 10.284 31.2167 10.0649 31.2167C9.93351 31.2167 9.80153 31.2382 9.66279 31.2817C9.46267 31.2787 9.31657 31.1664 9.25028 31.0008L5.13065 17.2517C5.10855 17.1297 5.20677 16.9383 5.41733 16.8543C6.13309 16.6169 6.52228 15.8944 6.29638 15.213C6.27735 15.1032 6.37925 14.9125 6.58673 14.8291L38.979 5.10528C39.0097 5.09608 39.0305 5.0924 39.0551 5.0924C39.1165 5.0924 39.1957 5.11448 39.2773 5.15558C39.3811 5.1936 39.3884 5.19667 39.4461 5.3684C39.6383 5.94555 40.1459 6.33379 40.7094 6.33379C40.8304 6.33379 40.9513 6.31539 41.0692 6.27859C41.2693 6.28227 41.4148 6.39512 41.4817 6.56011L45.6007 20.3086C45.6216 20.3736 45.6203 20.3938 45.5577 20.5729L45.5264 20.6643C45.5135 20.7042 45.5086 20.7183 45.3386 20.7747C45.0059 20.8864 44.7272 21.1065 44.5534 21.396C44.3613 21.7144 44.3196 22.0805 44.4344 22.4258C44.454 22.535 44.3521 22.727 44.1446 22.8092L29.5194 27.2773L34.4867 28.7444L49.8492 24.2198L42.8917 0.938911L0.726198 13.4981ZM11.5615 47.9742L53.727 60.6126L60.6857 37.4108L18.5202 24.7724L11.5615 47.9742ZM53.7853 61.3332L11.0704 48.5777C10.9451 48.5354 10.8893 48.4489 10.8715 48.414C10.8021 48.2024 10.8003 48.1815 10.8175 48.13L14.6437 35.4156L7.58487 37.5052L7.4357 37.4991C7.26321 37.4991 7.11588 37.4102 7.08519 37.2881L0 13.4061C0.0165743 13.3657 0.0834852 13.1645 0.132594 13.0167C0.15101 12.9602 0.155307 12.9474 0.32596 12.8916C0.748297 12.7652 43.1035 0.146485 43.1888 0.121338C43.3687 0.124405 43.5191 0.238485 43.586 0.406538L50.6669 24.2812C50.689 24.3462 50.6878 24.3676 50.6251 24.5443L50.5938 24.6369C50.5803 24.6761 50.576 24.6909 50.406 24.7473L35.6703 29.1388L61.2548 36.8066C61.3395 36.8355 61.4125 36.8919 61.4653 36.9403C61.5236 37.1078 61.5243 37.1293 61.5077 37.1783L54.3316 61.1032C54.2703 61.2136 54.0984 61.3332 53.9756 61.3332H53.7853Z" fill="#7B7A7B"/>
</g>
<path fill-rule="evenodd" clip-rule="evenodd" d="M23.8586 15.4094C23.47 15.9142 23.3602 16.4809 23.5308 17.0961C23.699 17.6971 24.1975 18.1473 24.8304 18.2694L25.548 18.3491L24.4025 14.8433L23.8586 15.4094ZM27.4822 22.399L27.966 21.9414C28.4153 21.5158 28.5872 20.8166 28.4036 20.1603C28.2342 19.5519 27.6824 19.0428 27.0617 18.9226L26.373 18.8821L27.4822 22.399ZM27.4951 24.0188C27.4896 24.0182 27.4073 24.0243 27.3282 23.9844C27.2619 23.9519 27.2146 23.8924 27.1986 23.8219L26.969 23.1754L26.6621 23.1718C25.5701 23.1595 24.6155 22.467 24.4424 21.5599L24.4246 21.4906C24.3356 21.2962 24.4258 21.1778 24.4903 21.1343C24.5148 21.1177 24.5412 21.1067 24.5695 21.0999L24.6333 21.0834C24.7407 21.0337 24.8205 21.0331 24.8924 21.0686C24.9586 21.1018 25.0053 21.1612 25.0206 21.2312C25.1373 21.7697 25.567 22.2542 26.0912 22.4364L26.8831 22.6332L25.8144 19.0667L25.4767 19.0753C24.3399 19.1004 23.3436 18.389 22.9986 17.3046C22.6561 16.227 23.063 15.1064 24.0366 14.4502L24.3006 14.2723L24.1496 13.7276C24.0606 13.5222 24.122 13.3946 24.2061 13.337C24.2312 13.321 24.2576 13.3087 24.2852 13.3032L24.3485 13.286C24.4571 13.2364 24.5363 13.2358 24.6069 13.2713C24.6738 13.3044 24.7199 13.3639 24.7352 13.4332L24.904 14.0386L25.2576 14.019C25.6652 13.9975 26.1182 14.1024 26.4675 14.2993C27.0832 14.6127 27.5154 15.126 27.7223 15.7866C27.8082 15.9823 27.7456 16.1068 27.6609 16.1638C27.6357 16.181 27.6087 16.1926 27.5805 16.1982L27.5191 16.2147C27.4104 16.265 27.3312 16.2656 27.2606 16.23C27.1937 16.1963 27.1458 16.1374 27.1311 16.0669C27.028 15.5903 26.7118 15.1806 26.241 14.9157L26.2195 14.904L26.1545 14.8758C26.0458 14.8267 25.966 14.7832 25.8487 14.7599L25.1281 14.6176L26.195 18.1743L26.559 18.1363C27.6566 18.0216 28.7106 18.7478 29.0654 19.8647C29.3821 20.9178 28.9825 22.0751 28.0918 22.6762L27.6995 22.9405L27.8506 23.4852C27.8647 23.6207 27.791 23.8194 27.6891 23.8881L27.4951 24.0188Z" fill="#7B7A7B"/>
<path fill-rule="evenodd" clip-rule="evenodd" d="M20.6711 30.8002L22.7816 29.7177L54.4973 39.2476L55.5796 41.3563L51.6552 54.4282L49.5453 55.512L17.8289 45.9808L16.7461 43.8734L20.6711 30.8002Z" fill="#FEFEFE"/>
<path fill-rule="evenodd" clip-rule="evenodd" d="M36.9193 39.0018C36.3147 39.2023 35.9059 39.6108 35.7033 40.2156C35.505 40.8087 35.6664 41.46 36.1225 41.9151L36.6732 42.3825L37.6867 38.8362L36.9193 39.0018ZM36.0071 46.8212L36.664 46.712C37.2748 46.6096 37.8088 46.1269 38.0249 45.4804C38.2256 44.8812 38.0531 44.1513 37.6056 43.7042L37.0575 43.2853L36.0071 46.8212ZM35.1103 48.1699C35.106 48.1656 35.0348 48.1251 34.9912 48.0485C34.9544 47.9834 34.9488 47.908 34.9752 47.8411L35.1465 47.1769L34.8942 47.0021C33.9961 46.3814 33.5934 45.2737 33.9581 44.4255L33.982 44.3574C34.017 44.1464 34.1582 44.0992 34.2362 44.0992C34.2656 44.0992 34.2939 44.1047 34.3215 44.1151L34.3829 44.1366C34.5007 44.1562 34.5664 44.2004 34.6057 44.2691C34.6419 44.3341 34.6481 44.4095 34.6217 44.4758C34.416 44.9873 34.5013 45.6295 34.8334 46.0729L35.3792 46.6795L36.4915 43.1265L36.2073 42.9443C35.2503 42.3297 34.8236 41.1834 35.1453 40.0911C35.4645 39.0067 36.4301 38.3057 37.6044 38.3057H37.923L38.1029 37.7702C38.144 37.5506 38.2662 37.4789 38.3681 37.4789C38.3981 37.4789 38.427 37.4838 38.4528 37.4948L38.5148 37.5157C38.632 37.5353 38.6983 37.5795 38.737 37.6482C38.7738 37.7132 38.7793 37.788 38.7523 37.8542L38.5541 38.4498L38.8573 38.6313C39.2078 38.8417 39.524 39.1815 39.7032 39.5409C40.0378 40.1444 40.1084 40.8111 39.9095 41.4747C39.872 41.6845 39.7499 41.7526 39.6473 41.7526C39.6179 41.7526 39.5884 41.7483 39.562 41.7366L39.5012 41.7164C39.384 41.6968 39.3177 41.6526 39.279 41.5839C39.2422 41.5189 39.2361 41.4429 39.2624 41.3766C39.4448 40.924 39.4122 40.4075 39.1698 39.9249L39.1587 39.9028L39.1213 39.8433C39.0586 39.7421 39.0163 39.6605 38.9322 39.5765L38.4153 39.0558L37.3067 42.599L37.6296 42.7713C38.6032 43.2902 39.0703 44.4819 38.7388 45.6055C38.411 46.6556 37.4313 47.391 36.357 47.391H35.8838L35.7039 47.9264C35.6394 48.046 35.4676 48.1699 35.3442 48.1699H35.1103Z" fill="#7B7A7B"/>
<path fill-rule="evenodd" clip-rule="evenodd" d="M16.7456 43.8736L16.9917 44.0595C17.5239 44.4563 17.8284 45.0371 17.8284 45.6517V45.981L49.5448 55.5122L49.7302 55.2645C50.1292 54.7333 50.7099 54.4285 51.325 54.4285H51.654L55.579 41.3565L55.3323 41.1701C54.8007 40.772 54.4962 40.1912 54.4962 39.5766V39.2479L22.7804 29.7179L22.5944 29.9645C22.196 30.4956 21.6147 30.8004 20.9996 30.8004H20.6706L16.7456 43.8736ZM49.6522 56.2703L17.3858 46.5533C17.2164 46.5214 17.1648 46.4582 17.139 46.4128C17.1022 46.3478 17.0967 46.2724 17.1237 46.2055L17.1433 46.1448C17.2655 45.4131 16.8788 44.7476 16.2281 44.5311C16.1182 44.4864 16.058 44.3986 16.0488 44.3668L16.0642 44.3465L16.1071 44.2711L20.2538 30.4349C20.2918 30.2257 20.414 30.157 20.5165 30.157C20.5454 30.157 20.5742 30.1632 20.6025 30.1736L20.6614 30.1938C20.7762 30.2135 20.8609 30.2196 20.9438 30.2196C21.5631 30.2196 22.0862 29.851 22.2777 29.2794C22.3182 29.0598 22.4404 28.9886 22.5423 28.9886C22.5717 28.9886 22.6 28.9942 22.6276 29.0052L54.94 38.6756C55.1088 38.7081 55.1604 38.7719 55.1862 38.8167C55.223 38.8817 55.2279 38.9565 55.2015 39.0228L55.1806 39.0835C55.0597 39.8152 55.4465 40.4813 56.0965 40.6978C56.2758 40.7334 56.3273 40.7935 56.355 40.8419C56.3918 40.9069 56.3979 40.9824 56.3709 41.0486L52.2261 54.8725C52.1881 55.0811 52.0665 55.1504 51.9646 55.1504C51.9352 55.1504 51.9063 55.1442 51.8787 55.1332L51.8185 55.1124C51.7031 55.094 51.6203 55.0866 51.5374 55.0866C50.9174 55.0866 50.3938 55.4558 50.2035 56.0274C50.1396 56.147 49.9671 56.2703 49.8437 56.2703H49.6522Z" fill="#7B7A7B"/>
</svg>
