<svg width="57" height="63" viewBox="0 0 57 63" fill="none" xmlns="http://www.w3.org/2000/svg">
<path fill-rule="evenodd" clip-rule="evenodd" d="M12 5H57V62H12V14.2705V5Z" stroke="#7A7A7A" stroke-width="0.75" stroke-linejoin="round"/>
<path fill-rule="evenodd" clip-rule="evenodd" d="M17 11H51V56H17V18.3191V11Z" stroke="#7A7A7A" stroke-width="0.75" stroke-linejoin="round"/>
<path fill-rule="evenodd" clip-rule="evenodd" d="M26 5H41V10H26V5.8132V5Z" fill="#E4E4E3"/>
<path fill-rule="evenodd" clip-rule="evenodd" d="M26 5H41V10H26V5.8132V5Z" stroke="#7A7A7A" stroke-width="0.75" stroke-linejoin="round"/>
<path fill-rule="evenodd" clip-rule="evenodd" d="M10.9894 0.36145C10.9894 0.36145 6.43093 5.2424 0.469894 6.19538C0.469894 6.19538 -2.21842 19.4692 9.99587 24.6478C9.99587 24.6478 21.5673 21.5525 21.6257 6.19538C21.6257 6.19538 14.905 4.70728 10.9894 0.36145Z" fill="#FEFEFE"/>
<path fill-rule="evenodd" clip-rule="evenodd" d="M10.9894 0.36145C10.9894 0.36145 6.43093 5.2424 0.469894 6.19538C0.469894 6.19538 -2.21842 19.4692 9.99587 24.6478C9.99587 24.6478 21.5673 21.5525 21.6257 6.19538C21.6257 6.19538 14.905 4.70728 10.9894 0.36145Z" stroke="#7B7A7B" stroke-width="0.75" stroke-linecap="round" stroke-linejoin="round"/>
<path d="M7.01562 13.2783L9.06108 15.3616L15.0221 9.64734" stroke="#7B7A7B" stroke-width="0.75" stroke-linecap="round" stroke-linejoin="round"/>
<path fill-rule="evenodd" clip-rule="evenodd" d="M44.8461 23.3718H24.4336V20.923H34.6398H44.8461V23.3718Z" fill="#E4E4E3"/>
<path fill-rule="evenodd" clip-rule="evenodd" d="M44.8461 23.3718H24.4336V20.923H34.6398H44.8461V23.3718Z" stroke="#7A7A7A" stroke-width="0.75" stroke-linejoin="round"/>
<path fill-rule="evenodd" clip-rule="evenodd" d="M44.8461 30.1578H24.4336V27.709H34.6398H44.8461V30.1578Z" fill="#E4E4E3"/>
<path fill-rule="evenodd" clip-rule="evenodd" d="M44.8461 30.1578H24.4336V27.709H34.6398H44.8461V30.1578Z" stroke="#7A7A7A" stroke-width="0.75" stroke-linejoin="round"/>
<path fill-rule="evenodd" clip-rule="evenodd" d="M44.8461 36.9431H24.4336V34.4949H34.6398H44.8461V36.9431Z" fill="#E4E4E3"/>
<path fill-rule="evenodd" clip-rule="evenodd" d="M44.8461 36.9431H24.4336V34.4949H34.6398H44.8461V36.9431Z" stroke="#7A7A7A" stroke-width="0.75" stroke-linejoin="round"/>
<path fill-rule="evenodd" clip-rule="evenodd" d="M44.8461 43.7291H24.4336V41.2803H34.6398H44.8461V43.7291Z" fill="#E4E4E3"/>
<path fill-rule="evenodd" clip-rule="evenodd" d="M44.8461 43.7291H24.4336V41.2803H34.6398H44.8461V43.7291Z" stroke="#7A7A7A" stroke-width="0.75" stroke-linejoin="round"/>
<path fill-rule="evenodd" clip-rule="evenodd" d="M44.8461 49.7251H24.4336V47.2762H34.6398H44.8461V49.7251Z" fill="#E4E4E3"/>
<path fill-rule="evenodd" clip-rule="evenodd" d="M44.8461 49.7251H24.4336V47.2762H34.6398H44.8461V49.7251Z" stroke="#7A7A7A" stroke-width="0.75" stroke-linejoin="round"/>
</svg>
