<svg width="55" height="56" viewBox="0 0 55 56" fill="none" xmlns="http://www.w3.org/2000/svg">
<path fill-rule="evenodd" clip-rule="evenodd" d="M1 0H51V52H1V8.45792V0Z" stroke="#7A7A7A" stroke-width="0.75" stroke-linejoin="round"/>
<path d="M9 11.1773L11.0438 13L17 8" stroke="#7B7A7B" stroke-width="1.5" stroke-linecap="round" stroke-linejoin="round"/>
<path fill-rule="evenodd" clip-rule="evenodd" d="M45 12H25V10H34.9997H45V12Z" fill="#E4E4E3"/>
<path fill-rule="evenodd" clip-rule="evenodd" d="M45 12H25V10H34.9997H45V12Z" stroke="#7A7A7A" stroke-width="0.75" stroke-linejoin="round"/>
<path fill-rule="evenodd" clip-rule="evenodd" d="M44.1886 23.2638H24.4336V20.8842H34.3108H44.1886V23.2638Z" fill="#E4E4E3"/>
<path fill-rule="evenodd" clip-rule="evenodd" d="M44.1886 23.2638H24.4336V20.8842H34.3108H44.1886V23.2638Z" stroke="#7A7A7A" stroke-width="0.75" stroke-linejoin="round"/>
<path d="M8.80469 32.7589L10.8427 34.7839L16.7819 29.2296" stroke="#7B7A7B" stroke-width="1.5" stroke-linecap="round" stroke-linejoin="round"/>
<path d="M8.80469 22.5293L10.8427 24.5543L16.7819 19" stroke="#7B7A7B" stroke-width="1.5" stroke-linecap="round" stroke-linejoin="round"/>
<path fill-rule="evenodd" clip-rule="evenodd" d="M44.1886 33.556H24.4336V31.1758H34.3108H44.1886V33.556Z" fill="#E4E4E3"/>
<path fill-rule="evenodd" clip-rule="evenodd" d="M44.1886 33.556H24.4336V31.1758H34.3108H44.1886V33.556Z" stroke="#7A7A7A" stroke-width="0.75" stroke-linejoin="round"/>
<path d="M8.80469 43.0511L10.8427 45.0761L16.7819 39.5212" stroke="#7B7A7B" stroke-width="1.5" stroke-linecap="round" stroke-linejoin="round"/>
<path fill-rule="evenodd" clip-rule="evenodd" d="M44.1886 43.8484H24.4336V41.4681H34.3108H44.1886V43.8484Z" fill="#E4E4E3"/>
<path fill-rule="evenodd" clip-rule="evenodd" d="M44.1886 43.8484H24.4336V41.4681H34.3108H44.1886V43.8484Z" stroke="#7A7A7A" stroke-width="0.75" stroke-linejoin="round"/>
<path fill-rule="evenodd" clip-rule="evenodd" d="M40.4265 31.9379L27.1523 54.7828H53.7007L40.4265 31.9379Z" fill="#FEFEFE"/>
<path fill-rule="evenodd" clip-rule="evenodd" d="M40.4265 31.9379L27.1523 54.7828H53.7007L40.4265 31.9379Z" stroke="#7A7A7A" stroke-width="0.75" stroke-linejoin="round"/>
<path d="M40.0782 39.4656V47.5019" stroke="#7A7A7A" stroke-width="2" stroke-linecap="round" stroke-linejoin="round"/>
<path fill-rule="evenodd" clip-rule="evenodd" d="M41.1562 51.3562C41.1562 51.9081 40.708 52.3562 40.1559 52.3562C39.603 52.3562 39.1562 51.9081 39.1562 51.3562C39.1562 50.8043 39.603 50.3562 40.1559 50.3562C40.708 50.3562 41.1562 50.8043 41.1562 51.3562Z" fill="#7A7A7A"/>
</svg>
