<?xml version="1.0" encoding="utf-8"?>
<!-- Generator: Adobe Illustrator 24.2.1, SVG Export Plug-In . SVG Version: 6.00 Build 0)  -->
<svg version="1.1" xmlns="http://www.w3.org/2000/svg" xmlns:xlink="http://www.w3.org/1999/xlink" x="0px" y="0px"
	 viewBox="0 0 315.78 90.47" style="enable-background:new 0 0 315.78 90.47;" xml:space="preserve">
<style type="text/css">
	.st0{fill:#39B2E2;}
	.st1{fill:#29454D;}
</style>
<g id="Layer_1">
	<g>
		<g>
			<g>
				<path class="st0" d="M132.52,46.16c5.68,0,9.39,1.83,13.09,4.59l-3.34,6.15c-2.66-2.03-5.58-3.55-9.7-3.55
					c-7.4,0-11.89,5.11-11.89,11.63s4.48,11.63,11.89,11.63c4.12,0,7.04-1.51,9.7-3.54l3.34,6.15c-3.7,2.76-7.4,4.59-13.09,4.59
					c-12.36,0-20.02-8.66-20.02-18.82S120.16,46.16,132.52,46.16z"/>
				<path class="st0" d="M160.89,55.91c7.82,0,14.7,5.63,14.7,13.92c0,8.34-6.88,13.97-14.7,13.97c-7.77,0-14.7-5.58-14.7-13.97
					C146.18,61.49,153.12,55.91,160.89,55.91z M160.89,77.13c3.86,0,7.14-3.13,7.14-7.3c0-4.12-3.28-7.25-7.14-7.25
					c-3.81,0-7.14,3.08-7.14,7.25C153.74,74.05,157.08,77.13,160.89,77.13z"/>
				<path class="st0" d="M193.58,83.23h-7.72l-11.21-26.75h8.5l6.52,18.04l6.57-18.04h8.5L193.58,83.23z"/>
				<path class="st0" d="M231.67,78.54c-3.81,4.17-8.86,5.27-12.46,5.27c-9.91,0-15.33-6.2-15.33-13.82
					c0-7.87,6.15-14.08,14.76-14.08c7.4,0,14.49,5.11,14.49,15.75h-21.53c0.16,3.34,3.23,5.79,8.19,5.79c2.76,0,5.53-1.41,7.4-3.18
					L231.67,78.54z M211.75,66.96h13.4c-0.52-3.44-4.01-4.74-6.62-4.74C216.03,62.22,212.69,63.36,211.75,66.96z"/>
				<path class="st0" d="M243.61,62.32c0.89-4.85,5.01-6.41,7.35-6.41c0.89,0,1.15,0.05,1.98,0.21v7.66
					c-1.09-0.26-2.5-0.36-3.28-0.36c-2.92,0-5.84,1.72-5.84,5.27v14.55h-7.77V56.48h7.56V62.32z"/>
				<path class="st0" d="M282.56,78.54c-3.81,4.17-8.86,5.27-12.46,5.27c-9.91,0-15.33-6.2-15.33-13.82
					c0-7.87,6.15-14.08,14.76-14.08c7.4,0,14.49,5.11,14.49,15.75h-21.53c0.16,3.34,3.23,5.79,8.19,5.79c2.76,0,5.53-1.41,7.4-3.18
					L282.56,78.54z M262.64,66.96h13.4c-0.52-3.44-4.01-4.74-6.62-4.74C266.92,62.22,263.58,63.36,262.64,66.96z"/>
				<path class="st0" d="M315.78,45.53v37.7h-7.77v-3.91c-1.93,2.76-4.48,4.48-8.39,4.48c-8.13,0-13.03-6.26-13.03-14.08
					c0-7.51,4.54-13.82,12.88-13.82c3.6,0,6.73,1.77,8.55,4.22v-14.6H315.78z M301.23,77.49c3.81,0,6.99-2.45,6.99-7.3
					c0-4.95-2.97-7.98-7.2-7.98c-4.28,0-6.67,3.44-6.67,7.56C294.35,74.05,296.96,77.49,301.23,77.49z"/>
			</g>
		</g>
		<g>
			<polygon class="st1" points="139.48,18.89 139.48,36.97 148.77,36.97 148.77,34.64 142.07,34.64 142.07,18.89 			"/>
			<polygon class="st1" points="150.44,18.89 150.44,36.97 159.74,36.97 159.74,34.64 153.04,34.64 153.04,18.89 			"/>
			<polygon class="st1" points="161.41,18.89 161.41,36.97 171.92,36.97 171.92,34.64 164.01,34.64 164.01,29.02 171.42,29.02 
				171.42,26.68 164.01,26.68 164.01,21.22 171.68,21.22 171.68,18.89 			"/>
			<g>
				<path class="st1" d="M176.21,26.79v-5.68h1.67c2.52,0,3.53,1.04,3.56,2.73c0.03,1.52-0.77,2.95-3.56,2.95H176.21z M185.26,36.97
					l-3.35-8.45c1.99-1.65,2.22-2.76,2.2-4.57c-0.03-3.13-2.28-5.06-5.94-5.06h-4.56v18.09h2.6v-8.09c0,0,2.15,0,3.1,0l3.27,8.09
					H185.26z"/>
			</g>
			<polygon class="st1" points="127.3,18.89 127.3,36.94 137.78,36.94 137.78,34.61 129.89,34.61 129.89,29 137.28,29 137.28,26.67 
				129.89,26.67 129.89,21.22 137.54,21.22 137.54,18.89 			"/>
			<polygon class="st1" points="122.67,18.89 121.75,19.88 115.09,27.13 115.09,18.89 112.5,18.89 112.5,36.91 115.09,36.91 
				115.09,30.72 117.98,27.56 121.76,36.91 124.44,36.91 124.44,36.91 123.49,34.58 119.83,25.53 123.77,21.21 125.89,18.89 			"/>
		</g>
		<path class="st0" d="M6.74,66.44c0.12,0.36,0.24,0.73,0.38,1.09c5,13.72,18.06,22.95,32.5,22.95c14.48,0,27.55-9.25,32.53-23.03
			c0.12-0.33,0.24-0.67,0.35-1.01l-6.58,0c-4.38,10.69-14.8,17.78-26.3,17.78c-11.5,0-21.93-7.08-26.31-17.78H6.74z"/>
		<g>
			<path class="st1" d="M58.85,28.08c-0.73-0.53-1.46-1.07-2.19-1.61c-3.75-2.75-7.49-5.5-10.31-7.56
				c-4.91-3.59-5.73-4.18-6.72-4.12c-0.98-0.07-1.81,0.52-6.72,4.12c-0.26,0.19-0.53,0.39-0.8,0.58c-0.13,0.1-0.26,0.19-0.4,0.29
				c-3.53,2.59-8.23,6.04-12.93,9.49C9.38,36.16,0,43.07,0,43.07l4,5.44c0.74-0.54,1.49-1.1,2.26-1.66l0.47-0.35v15.14h6.75V41.55
				l0.03-0.02c7.42-5.46,16.66-12.25,22.44-16.49c1.48-1.09,2.73-2,3.67-2.68c2.91,2.12,8.85,6.48,15.6,11.44
				c3.56,2.62,7.21,5.3,10.51,7.73v20.1h6.75V46.49l0.04,0.03l0.46,0.34c0.76,0.56,1.51,1.11,2.23,1.64l4-5.44
				c0,0-9.38-6.9-18.76-13.8C59.92,28.87,59.38,28.48,58.85,28.08z"/>
			<path class="st1" d="M39.62,7.57c5.75,4.19,23.35,17.13,35.59,26.14l4-5.44c0,0-9.38-6.9-18.76-13.8
				c-4.7-3.45-9.39-6.9-12.92-9.49c-5.89-4.31-6.89-5.05-7.9-4.99c-1.05-0.05-2.02,0.67-7.92,4.99c-3.53,2.59-8.23,6.04-12.93,9.49
				C9.38,21.38,0,28.28,0,28.28l4,5.44C16.26,24.7,33.87,11.76,39.62,7.57z"/>
			<path class="st1" d="M47.58,42.24H32.02c-2.41,0-4.38,1.96-4.38,4.38v19.83h6.75V48.99h10.42v17.45h6.75V46.23
				C51.57,44.03,49.78,42.24,47.58,42.24z"/>
		</g>
	</g>
</g>
<g id="Layer_2">
</g>
<g id="Layer_3">
</g>
<g id="Layer_4">
</g>
<g id="Layer_5">
</g>
<g id="Layer_6">
</g>
<g id="Layer_7">
</g>
<g id="Layer_8">
</g>
<g id="Layer_9">
</g>
<g id="Layer_10">
</g>
<g id="Layer_11">
</g>
<g id="Layer_12">
</g>
<g id="Layer_13">
</g>
<g id="Layer_14">
</g>
<g id="Layer_15">
</g>
<g id="Layer_16">
</g>
<g id="Layer_17">
</g>
<g id="Layer_18">
</g>
<g id="Layer_19">
</g>
<g id="Layer_20">
</g>
<g id="Layer_21">
</g>
<g id="Layer_22">
</g>
<g id="Layer_23">
</g>
<g id="Layer_24">
</g>
<g id="Layer_25">
</g>
<g id="Layer_27">
</g>
</svg>
