<?xml version="1.0" encoding="UTF-8"?>
<svg width="238px" height="52px" viewBox="0 0 238 52" version="1.1" xmlns="http://www.w3.org/2000/svg" xmlns:xlink="http://www.w3.org/1999/xlink">
    <title>PGR_HOME_SVG_White</title>
    <desc>Created with Sketch.</desc>
    <g id="Comps" stroke="none" stroke-width="1" fill="none" fill-rule="evenodd">
        <g id="Group-37" transform="translate(-345.000000, -34.000000)" fill="#FFFFFF" fill-rule="nonzero">
            <g id="PGR_HOME_SVG_White" transform="translate(345.000000, 34.000000)">
                <path d="M123.821115,2.1027862 C124.385128,3.04918786 124.782883,4.77193464 123.485093,7.59709149 C123.473167,7.62888467 122.164153,10.6107893 121.317432,12.453315 C120.2792,14.7150671 118.445458,15.9882731 115.880744,16.2714542 C116.897229,16.933196 118.498772,18.2685096 117.198176,21.6518956 C117.184847,21.6925613 115.629604,25.8027541 115.1161,27.1062745 C114.548579,28.5377071 114.296738,29.9861452 114.296738,29.9861452 L107.527885,29.9802302 C107.527885,29.9802302 108.806734,26.201278 110.4188,22.5576315 C111.088741,21.0426495 111.2094,19.8958769 110.777973,19.1483674 C110.297439,18.3210053 109.266924,18.2685096 109.262715,18.2685096 L105.682217,18.2603765 L100.591371,29.9513945 L93.918625,29.9513945 L107.211505,0.167099044 L120.054016,0.167099044 C121.317432,0.167099044 122.970186,0.675789938 123.821115,2.1027862 Z M117.041038,7.24440899 C117.381971,6.47767577 117.453525,5.88839286 117.250789,5.53644974 C117.034023,5.16824034 116.561207,5.15049531 116.561207,5.15049531 L111.466854,5.15049531 L107.937566,13.2533202 L112.59067,13.2533202 C113.741845,13.2533202 114.613118,12.6152384 115.177832,11.3590381 L117.041038,7.24440899 Z M52.5787443,2.1027862 C53.1420554,3.04918786 53.5405121,4.77193464 52.2434234,7.59709149 C52.2307962,7.62888467 50.9210803,10.6107893 50.0743599,12.453315 C49.0368292,14.7150671 47.2023851,15.9882731 44.637671,16.2714542 C45.6541564,16.933196 47.2556998,18.2685096 45.954402,21.6518956 C45.9403718,21.6925613 44.386531,25.8027541 43.871624,27.1062745 C43.3041038,28.5377071 43.0536654,29.9861452 43.0536654,29.9861452 L36.2841108,29.9802302 C36.2841108,29.9802302 37.5608558,26.201278 39.1750263,22.5576315 C39.8463697,21.0426495 39.9670291,19.8958769 39.533497,19.1483674 C39.0543669,18.3210053 38.0224483,18.2685096 38.0182392,18.2685096 L34.4384427,18.2603765 L29.3468958,29.9513945 L22.6755524,29.9513945 L35.9663276,0.167099044 L48.8095405,0.167099044 C50.0743599,0.167099044 51.7292178,0.675789938 52.5787443,2.1027862 Z M45.7979656,7.24440899 C46.1381971,6.47767577 46.2104525,5.88839286 46.0063136,5.53644974 C45.7909505,5.16824034 45.3174325,5.15049531 45.3174325,5.15049531 L40.3240968,5.15049531 L36.6923886,13.2533202 L41.3461943,13.2533202 C42.5001754,13.2533202 43.3686426,12.6152384 43.9333567,11.3590381 L44.6278499,9.82483228 L45.7979656,7.24440899 Z M68.5766398,24.1694719 C66.5941775,28.5243983 64.0701508,30.0512103 58.9379165,29.9979753 L53.8176079,29.9979753 C51.3090144,29.9979753 46.2146615,28.7573018 49.620484,21.2030942 L53.0326201,13.6681103 C54.6383725,10.1213222 56.0273588,7.05808616 56.8579446,5.18524599 C58.4019642,1.69686861 60.8109435,0 64.2209751,0 L72.3030516,0 C75.6752017,0 78.3304104,2.29428466 75.9796563,7.57195269 L73.701859,12.6973092 C71.7467555,17.0988163 69.9024904,21.2563293 68.5766398,24.1694719 Z M59.5019291,24.4667012 C60.9547527,24.4667012 61.5959313,24.1118005 62.5408629,22.0045781 L69.3230445,6.73793622 C69.8905647,5.46399086 69.2697299,5.05955202 68.5654156,5.08986645 L64.9309014,5.08986645 C64.0315679,5.08986645 63.3412838,5.38857448 62.6755524,6.87767835 C61.6983515,9.06105656 56.9182743,19.9210157 55.7769204,22.5140083 C54.9807085,24.3195653 56.0259558,24.4940581 56.5633111,24.4667012 L59.5019291,24.4667012 Z M95.576289,0 C99.9635216,0.0635863618 101.844967,2.30907219 99.7292178,7.11427876 L98.2827078,10.3926733 L91.9179235,10.3423957 C91.9179235,10.3423957 93.3707471,7.02629298 93.5019291,6.75642063 C94.085584,5.53866787 93.6141705,5.10687211 92.7428972,5.11278712 L89.1315328,5.11278712 C88.0336724,5.11278712 87.6064539,5.35012691 86.8965275,6.9227803 C86.8965275,6.9227803 80.6201333,20.7380265 79.8267275,22.5140083 C79.1967731,23.9210414 79.573483,24.4770524 80.6103122,24.4667012 L84.1017187,24.4667012 C85.4577341,24.4667012 85.8484742,24.2042226 86.425114,22.898484 L88.3998597,18.3942036 L84.8853034,18.3868098 L87.1034725,13.4108073 L97.1904595,13.4263342 L92.2385128,24.8637462 C90.2988425,29.3406697 88.2104525,30.0438166 83.9628201,29.9979753 L78.6467906,29.9979753 C72.6909856,29.9979753 71.4303753,26.0260458 73.6078569,21.2030942 C73.6078569,21.2030942 79.5608558,8.01262097 80.8130481,5.18524599 C82.2749912,1.88984582 85.1357418,0 88.6643283,0 L95.576289,0 Z M176.609611,29.8907657 L169.749562,29.8907657 L183.061382,0.0776345115 L190,0.0776345115 L176.609611,29.8907657 Z M206.998948,0.0850282745 L214.21396,0.0850282745 L194.824272,29.8907657 L185.541214,29.8907657 L192.137496,0.0850282745 L199.325149,0.0850282745 L191.46966,26.3469351 L206.998948,0.0850282745 Z M153.877938,19.5498488 C154.244826,26.057839 150.954051,29.901117 145.37215,29.901117 L136.949842,29.901117 L139.317432,24.4940581 L144.597685,24.4940581 C146.614521,24.4911006 147.443704,23.4300956 147.346194,21.1609497 C147.346194,21.1609497 146.959663,11.7457319 146.814451,8.85181307 C146.570326,4.11684724 148.702911,0.0909432849 154.961066,0.0850282745 L162.857243,0.0850282745 L160.480533,5.39892574 L155.84637,5.39892574 C153.540512,5.39892574 153.231147,7.20522205 153.300596,8.53092375 L153.877938,19.5498488 Z M169.670993,19.5498488 C169.991582,25.2711426 167.304805,29.901117 161.165205,29.901117 L152.877587,29.901117 L155.245177,24.4940581 L160.392845,24.4940581 C162.409681,24.4911006 163.238162,23.4300956 163.138548,21.1609497 C163.138548,21.1609497 162.754823,11.7457319 162.606805,8.85181307 C162.310768,3.0728479 165.563662,0.0894645323 170.75342,0.0850282745 L178.652403,0.0850282745 L176.272185,5.39892574 L171.640126,5.39892574 C169.334269,5.39892574 169.024202,7.20522205 169.09295,8.53092375 L169.670993,19.5498488 Z M130.974395,0.124215218 L146.484041,0.119778961 C146.484041,0.119778961 144.17187,5.40631951 144.15363,5.40631951 L135.242371,5.39005323 L132.500877,11.5778935 L141.117503,11.5778935 L138.914065,16.5672048 L130.33041,16.5672048 L126.750614,24.5044093 L136.909856,24.5044093 L134.474921,29.8966807 L117.754472,29.8966807 L130.974395,0.124215218 Z M216.491056,0.124215218 L232,0.119778961 C232,0.119778961 229.687127,5.40631951 229.670291,5.40631951 L220.760435,5.39005323 L218.018941,11.5778935 L226.63276,11.5778935 L224.431428,16.5672048 L215.845668,16.5672048 L212.268678,24.5044093 L222.425114,24.5044093 L219.992283,29.8966807 L203.272536,29.8966807 L216.491056,0.124215218 Z M6.85373553,29.9861452 L0,29.9861452 L13.1820414,0.173014054 L25.8779376,0.173014054 C28.7990179,0.184844075 31.5173623,2.57598703 29.3041038,7.73239735 C28.0462995,10.6610669 26.9379165,13.1912126 26.3781129,14.4074866 C24.636268,18.1834814 22.4019642,19.5757269 18.131182,19.5468913 C15.3307611,19.52471 11.4570326,19.5468913 11.4570326,19.5468913 L6.85373553,29.9861452 Z M18.0147317,14.339464 C19.2185198,14.3490759 20.0056121,13.7938043 20.5640126,12.5398221 C20.6657313,12.3150517 21.6071554,10.2536705 22.8425114,7.49283943 C23.7088741,5.56232791 23.0347247,5.05955202 22.0904946,5.05955202 L17.7804279,5.05363701 L13.7151877,14.3305915 L18.0147317,14.339464 L18.0147317,14.339464 Z" id="Fill-1"></path>
                <path d="M234,2.49483969 C234,1.11944406 234.896286,0 236.007703,0 C237.110867,0 238,1.11944406 238,2.49483969 C238,3.88193202 237.110867,5 236.007703,5 C234.896286,5 234,3.88193202 234,2.49483969 Z M237.76011,2.49483969 C237.76011,1.28319802 236.974415,0.302050365 236.007703,0.302050365 C235.031637,0.302050365 234.245942,1.28319802 234.245942,2.49483969 C234.245942,3.71817807 235.031637,4.69932572 236.007703,4.69932572 C236.974415,4.69932572 237.76011,3.71817807 237.76011,2.49483969 Z M236.999175,3.89431677 L236.676204,3.89431677 L236.036314,2.60561442 L235.535626,2.60561442 L235.535626,3.89431677 L235.262724,3.89431677 L235.262724,1.09949085 L236.236589,1.09949085 C236.423109,1.09949085 236.61238,1.11256364 236.782393,1.23778726 C236.949106,1.35475437 237.033838,1.60451355 237.033838,1.83982386 C237.033838,2.3881932 236.722971,2.59322967 236.325722,2.60561442 L236.999175,3.89431677 Z M235.952682,2.33659006 C236.2674,2.33659006 236.754333,2.40264208 236.754333,1.83294344 C236.754333,1.40016513 236.450069,1.34787395 236.173865,1.34787395 L235.535626,1.34787395 L235.535626,2.33659006 L235.952682,2.33659006 L235.952682,2.33659006 Z" id="Fill-2"></path>
                <polyline id="Fill-3" points="170.365729 52 168.075109 52 171.037683 45.3022855 165.253194 45.3022855 162.289891 52 160 52 166.634271 37 168.924891 37 166.236346 43.0762367 172.021564 43.0762367 174.70938 37 177 37 170.365729 52"></polyline>
                <path d="M183.913825,39.1226559 C182.883039,39.1226559 181.869737,39.5917385 180.903987,40.5169792 C179.92565,41.4543842 179.043119,42.8137354 178.280869,44.5585403 C177.526312,46.2843386 177.224908,47.6246832 177.383652,48.5430816 C177.534704,49.421186 178.092055,49.8484541 179.087875,49.8484541 C180.113765,49.8484541 181.125669,49.3763305 182.097712,48.4442473 C183.080944,47.5022808 183.962077,46.1490117 184.717334,44.4216929 C185.471891,42.6958946 185.773994,41.3532691 185.617348,40.4310694 C185.465597,39.5506842 184.908945,39.1226559 183.913825,39.1226559 Z M178.286464,52 C176.60322,52 175.550756,51.2967562 175.158442,49.9107957 C174.77522,48.5598074 175.087812,46.7131272 176.089226,44.4216929 C177.087843,42.1371009 178.368982,40.3117081 179.896978,38.9964521 C181.434065,37.6713127 183.050874,37 184.701949,37 C186.391486,37 187.447447,37.6979219 187.84046,39.073999 C188.225781,40.4143436 187.912489,42.2595033 186.907578,44.5585403 C185.915255,46.8294475 184.633416,48.6548403 183.096329,49.983781 C181.549452,51.3210846 179.931944,52 178.286464,52 L178.286464,52 Z" id="Fill-4"></path>
                <path d="M197.838704,52 L195.864571,52 L200.594503,40.4830933 C199.781705,41.6916093 199.321502,42.374139 199.212543,42.532248 L192.693913,52 L191.165771,52 L192.462458,42.3952724 C192.466519,42.3616155 192.509832,42.0641828 192.591044,41.5029743 L192.65263,41.0818723 C192.689852,40.8282718 192.725721,40.5840639 192.760913,40.3461177 L187.974132,52 L186,52 L192.16062,37 L195.12351,37 L193.953378,45.5292736 C193.886378,46.0184721 193.804489,46.5507201 193.709742,47.1103632 C193.652893,47.446149 193.591984,47.7866312 193.527691,48.1271133 C193.737489,47.8061991 193.954055,47.4774577 194.178065,47.1416719 C194.548257,46.5875078 194.940783,46.0122104 195.354965,45.4196932 L201.144039,37 L204,37 L197.838704,52" id="Fill-5"></path>
                <polyline id="Fill-6" points="210.226105 52 202 52 208.05109 37 216 37 215.130526 39.156387 209.270215 39.156387 207.680832 43.0965874 211.877974 43.0965874 211.0198 45.2224483 206.822658 45.2224483 204.978681 49.7935191 211.114857 49.7935191 210.226105 52"></polyline>
            </g>
        </g>
    </g>
</svg>