<?xml version="1.0" encoding="UTF-8"?>
<svg width="111px" height="102px" viewBox="0 0 111 102" version="1.1" xmlns="http://www.w3.org/2000/svg" xmlns:xlink="http://www.w3.org/1999/xlink">
    <!-- Generator: sketchtool 59.1 (101010) - https://sketch.com -->
    <title>DDBB45D3-606A-4A80-943A-E05CE881A43F</title>
    <desc>Created with sketchtool.</desc>
    <defs>
        <polygon id="path-1" points="0 101 110.756 101 110.756 0.25 0 0.25"></polygon>
    </defs>
    <g id="Asset-Artboard-Page" stroke="none" stroke-width="1" fill="none" fill-rule="evenodd">
        <g id="icons-/-building-/-apartment-default">
            <g id="Group-168">
                <polygon id="Fill-1" fill="#E6E6E6" points="4.417 17.055 6.377 17.055 6.377 15.095 4.417 15.095"></polygon>
                <polygon id="Stroke-2" stroke="#E6E6E6" stroke-width="0.75" stroke-linejoin="round" points="4.417 17.055 6.377 17.055 6.377 15.095 4.417 15.095"></polygon>
                <polygon id="Fill-3" fill="#E6E6E6" points="104.379 17.055 106.418 17.055 106.418 15.095 104.379 15.095"></polygon>
                <polygon id="Stroke-4" stroke="#E6E6E6" stroke-width="0.75" stroke-linejoin="round" points="104.379 17.055 106.418 17.055 106.418 15.095 104.379 15.095"></polygon>
                <g id="Group-167" transform="translate(0.000000, 0.750000)">
                    <path d="M41.4945,12.2626 C41.4945,11.2476 40.6725,10.4256 39.6565,10.4256 C38.6425,10.4256 37.8195,11.2476 37.8195,12.2626 L37.8195,14.2226 C37.8195,13.2076 38.6425,12.3856 39.6565,12.3856 C40.6725,12.3856 41.4945,13.2076 41.4945,14.2226 L41.4945,12.2626 Z" id="Fill-5" fill="#E6E6E6"></path>
                    <path d="M41.4945,12.2626 C41.4945,11.2476 40.6725,10.4256 39.6565,10.4256 C38.6425,10.4256 37.8195,11.2476 37.8195,12.2626 L37.8195,14.2226 C37.8195,13.2076 38.6425,12.3856 39.6565,12.3856 C40.6725,12.3856 41.4945,13.2076 41.4945,14.2226 L41.4945,12.2626 Z" id="Stroke-7" stroke="#E6E6E6" stroke-width="0.75" stroke-linejoin="round"></path>
                    <mask id="mask-2" fill="white">
                        <use xlink:href="#path-1"></use>
                    </mask>
                    <g id="Clip-10"></g>
                    <polygon id="Fill-9" fill="#E6E6E6" mask="url(#mask-2)" points="25.774 16.305 29.96 16.305 29.96 14.345 25.774 14.345"></polygon>
                    <polygon id="Stroke-11" stroke="#E6E6E6" stroke-width="0.75" stroke-linejoin="round" mask="url(#mask-2)" points="25.774 16.305 29.96 16.305 29.96 14.345 25.774 14.345"></polygon>
                    <path d="M33.6342,12.2626 C33.6342,11.2476 32.8122,10.4256 31.7972,10.4256 C30.7812,10.4256 29.9592,11.2476 29.9592,12.2626 L29.9592,14.2226 C29.9592,13.2076 30.7812,12.3856 31.7972,12.3856 C32.8122,12.3856 33.6342,13.2076 33.6342,14.2226 L33.6342,12.2626 Z" id="Fill-12" fill="#E6E6E6" mask="url(#mask-2)"></path>
                    <path d="M33.6342,12.2626 C33.6342,11.2476 32.8122,10.4256 31.7972,10.4256 C30.7812,10.4256 29.9592,11.2476 29.9592,12.2626 L29.9592,14.2226 C29.9592,13.2076 30.7812,12.3856 31.7972,12.3856 C32.8122,12.3856 33.6342,13.2076 33.6342,14.2226 L33.6342,12.2626 Z" id="Stroke-13" stroke="#E6E6E6" stroke-width="0.75" stroke-linejoin="round" mask="url(#mask-2)"></path>
                    <polygon id="Fill-14" fill="#E6E6E6" mask="url(#mask-2)" points="33.634 16.305 37.82 16.305 37.82 14.345 33.634 14.345"></polygon>
                    <polygon id="Stroke-15" stroke="#E6E6E6" stroke-width="0.75" stroke-linejoin="round" mask="url(#mask-2)" points="33.634 16.305 37.82 16.305 37.82 14.345 33.634 14.345"></polygon>
                    <path d="M57.2152,12.2626 C57.2152,11.2476 56.3932,10.4256 55.3782,10.4256 C54.3632,10.4256 53.5402,11.2476 53.5402,12.2626 L53.5402,14.2226 C53.5402,13.2076 54.3632,12.3856 55.3782,12.3856 C56.3932,12.3856 57.2152,13.2076 57.2152,14.2226 L57.2152,12.2626 Z" id="Fill-16" fill="#E6E6E6" mask="url(#mask-2)"></path>
                    <path d="M57.2152,12.2626 C57.2152,11.2476 56.3932,10.4256 55.3782,10.4256 C54.3632,10.4256 53.5402,11.2476 53.5402,12.2626 L53.5402,14.2226 C53.5402,13.2076 54.3632,12.3856 55.3782,12.3856 C56.3932,12.3856 57.2152,13.2076 57.2152,14.2226 L57.2152,12.2626 Z" id="Stroke-17" stroke="#E6E6E6" stroke-width="0.75" stroke-linejoin="round" mask="url(#mask-2)"></path>
                    <path d="M49.3559,12.2626 C49.3559,11.2476 48.5329,10.4256 47.5179,10.4256 C46.5019,10.4256 45.6799,11.2476 45.6799,12.2626 L45.6799,14.2226 C45.6799,13.2076 46.5019,12.3856 47.5179,12.3856 C48.5329,12.3856 49.3559,13.2076 49.3559,14.2226 L49.3559,12.2626 Z" id="Fill-18" fill="#E6E6E6" mask="url(#mask-2)"></path>
                    <path d="M49.3559,12.2626 C49.3559,11.2476 48.5329,10.4256 47.5179,10.4256 C46.5019,10.4256 45.6799,11.2476 45.6799,12.2626 L45.6799,14.2226 C45.6799,13.2076 46.5019,12.3856 47.5179,12.3856 C48.5329,12.3856 49.3559,13.2076 49.3559,14.2226 L49.3559,12.2626 Z" id="Stroke-19" stroke="#E6E6E6" stroke-width="0.75" stroke-linejoin="round" mask="url(#mask-2)"></path>
                    <polygon id="Fill-20" fill="#E6E6E6" mask="url(#mask-2)" points="49.356 16.305 53.541 16.305 53.541 14.345 49.356 14.345"></polygon>
                    <polygon id="Stroke-21" stroke="#E6E6E6" stroke-width="0.75" stroke-linejoin="round" mask="url(#mask-2)" points="49.356 16.305 53.541 16.305 53.541 14.345 49.356 14.345"></polygon>
                    <path d="M10.0531,12.2626 C10.0531,11.2476 9.2301,10.4256 8.2151,10.4256 C7.2001,10.4256 6.3771,11.2476 6.3771,12.2626 L6.3771,14.2226 C6.3771,13.2076 7.2001,12.3856 8.2151,12.3856 C9.2301,12.3856 10.0531,13.2076 10.0531,14.2226 L10.0531,12.2626 Z" id="Fill-22" fill="#E6E6E6" mask="url(#mask-2)"></path>
                    <path d="M10.0531,12.2626 C10.0531,11.2476 9.2301,10.4256 8.2151,10.4256 C7.2001,10.4256 6.3771,11.2476 6.3771,12.2626 L6.3771,14.2226 C6.3771,13.2076 7.2001,12.3856 8.2151,12.3856 C9.2301,12.3856 10.0531,13.2076 10.0531,14.2226 L10.0531,12.2626 Z" id="Stroke-23" stroke="#E6E6E6" stroke-width="0.75" stroke-linejoin="round" mask="url(#mask-2)"></path>
                    <polygon id="Fill-24" fill="#E6E6E6" mask="url(#mask-2)" points="10.053 16.305 14.239 16.305 14.239 14.345 10.053 14.345"></polygon>
                    <polygon id="Stroke-25" stroke="#E6E6E6" stroke-width="0.75" stroke-linejoin="round" mask="url(#mask-2)" points="10.053 16.305 14.239 16.305 14.239 14.345 10.053 14.345"></polygon>
                    <path d="M25.7738,12.2626 C25.7738,11.2476 24.9518,10.4256 23.9358,10.4256 C22.9208,10.4256 22.0978,11.2476 22.0978,12.2626 L22.0978,14.2226 C22.0978,13.2076 22.9208,12.3856 23.9358,12.3856 C24.9518,12.3856 25.7738,13.2076 25.7738,14.2226 L25.7738,12.2626 Z" id="Fill-26" fill="#E6E6E6" mask="url(#mask-2)"></path>
                    <path d="M25.7738,12.2626 C25.7738,11.2476 24.9518,10.4256 23.9358,10.4256 C22.9208,10.4256 22.0978,11.2476 22.0978,12.2626 L22.0978,14.2226 C22.0978,13.2076 22.9208,12.3856 23.9358,12.3856 C24.9518,12.3856 25.7738,13.2076 25.7738,14.2226 L25.7738,12.2626 Z" id="Stroke-27" stroke="#E6E6E6" stroke-width="0.75" stroke-linejoin="round" mask="url(#mask-2)"></path>
                    <polygon id="Fill-28" fill="#E6E6E6" mask="url(#mask-2)" points="17.913 16.305 22.098 16.305 22.098 14.345 17.913 14.345"></polygon>
                    <polygon id="Stroke-29" stroke="#E6E6E6" stroke-width="0.75" stroke-linejoin="round" mask="url(#mask-2)" points="17.913 16.305 22.098 16.305 22.098 14.345 17.913 14.345"></polygon>
                    <path d="M17.9135,12.2626 C17.9135,11.2476 17.0905,10.4256 16.0755,10.4256 C15.0605,10.4256 14.2385,11.2476 14.2385,12.2626 L14.2385,14.2226 C14.2385,13.2076 15.0605,12.3856 16.0755,12.3856 C17.0905,12.3856 17.9135,13.2076 17.9135,14.2226 L17.9135,12.2626 Z" id="Fill-30" fill="#E6E6E6" mask="url(#mask-2)"></path>
                    <path d="M17.9135,12.2626 C17.9135,11.2476 17.0905,10.4256 16.0755,10.4256 C15.0605,10.4256 14.2385,11.2476 14.2385,12.2626 L14.2385,14.2226 C14.2385,13.2076 15.0605,12.3856 16.0755,12.3856 C17.0905,12.3856 17.9135,13.2076 17.9135,14.2226 L17.9135,12.2626 Z" id="Stroke-31" stroke="#E6E6E6" stroke-width="0.75" stroke-linejoin="round" mask="url(#mask-2)"></path>
                    <polygon id="Fill-32" fill="#E6E6E6" mask="url(#mask-2)" points="41.495 16.305 45.681 16.305 45.681 14.345 41.495 14.345"></polygon>
                    <polygon id="Stroke-33" stroke="#E6E6E6" stroke-width="0.75" stroke-linejoin="round" mask="url(#mask-2)" points="41.495 16.305 45.681 16.305 45.681 14.345 41.495 14.345"></polygon>
                    <path d="M96.518,12.2626 C96.518,11.2476 95.696,10.4256 94.681,10.4256 C93.666,10.4256 92.843,11.2476 92.843,12.2626 L92.843,14.2226 C92.843,13.2076 93.666,12.3856 94.681,12.3856 C95.696,12.3856 96.518,13.2076 96.518,14.2226 L96.518,12.2626 Z" id="Fill-34" fill="#E6E6E6" mask="url(#mask-2)"></path>
                    <path d="M96.518,12.2626 C96.518,11.2476 95.696,10.4256 94.681,10.4256 C93.666,10.4256 92.843,11.2476 92.843,12.2626 L92.843,14.2226 C92.843,13.2076 93.666,12.3856 94.681,12.3856 C95.696,12.3856 96.518,13.2076 96.518,14.2226 L96.518,12.2626 Z" id="Stroke-35" stroke="#E6E6E6" stroke-width="0.75" stroke-linejoin="round" mask="url(#mask-2)"></path>
                    <path d="M88.6576,12.2626 C88.6576,11.2476 87.8356,10.4256 86.8206,10.4256 C85.8046,10.4256 84.9826,11.2476 84.9826,12.2626 L84.9826,14.2226 C84.9826,13.2076 85.8046,12.3856 86.8206,12.3856 C87.8356,12.3856 88.6576,13.2076 88.6576,14.2226 L88.6576,12.2626 Z" id="Fill-36" fill="#E6E6E6" mask="url(#mask-2)"></path>
                    <path d="M88.6576,12.2626 C88.6576,11.2476 87.8356,10.4256 86.8206,10.4256 C85.8046,10.4256 84.9826,11.2476 84.9826,12.2626 L84.9826,14.2226 C84.9826,13.2076 85.8046,12.3856 86.8206,12.3856 C87.8356,12.3856 88.6576,13.2076 88.6576,14.2226 L88.6576,12.2626 Z" id="Stroke-37" stroke="#E6E6E6" stroke-width="0.75" stroke-linejoin="round" mask="url(#mask-2)"></path>
                    <polygon id="Fill-38" fill="#E6E6E6" mask="url(#mask-2)" points="96.518 16.305 100.704 16.305 100.704 14.345 96.518 14.345"></polygon>
                    <polygon id="Stroke-39" stroke="#E6E6E6" stroke-width="0.75" stroke-linejoin="round" mask="url(#mask-2)" points="96.518 16.305 100.704 16.305 100.704 14.345 96.518 14.345"></polygon>
                    <polygon id="Fill-40" fill="#E6E6E6" mask="url(#mask-2)" points="88.658 16.305 92.844 16.305 92.844 14.345 88.658 14.345"></polygon>
                    <polygon id="Stroke-41" stroke="#E6E6E6" stroke-width="0.75" stroke-linejoin="round" mask="url(#mask-2)" points="88.658 16.305 92.844 16.305 92.844 14.345 88.658 14.345"></polygon>
                    <path d="M104.3793,12.2626 C104.3793,11.2476 103.5563,10.4256 102.5413,10.4256 C101.5263,10.4256 100.7033,11.2476 100.7033,12.2626 L100.7033,14.2226 C100.7033,13.2076 101.5263,12.3856 102.5413,12.3856 C103.5563,12.3856 104.3793,13.2076 104.3793,14.2226 L104.3793,12.2626 Z" id="Fill-42" fill="#E6E6E6" mask="url(#mask-2)"></path>
                    <path d="M104.3793,12.2626 C104.3793,11.2476 103.5563,10.4256 102.5413,10.4256 C101.5263,10.4256 100.7033,11.2476 100.7033,12.2626 L100.7033,14.2226 C100.7033,13.2076 101.5263,12.3856 102.5413,12.3856 C103.5563,12.3856 104.3793,13.2076 104.3793,14.2226 L104.3793,12.2626 Z" id="Stroke-43" stroke="#E6E6E6" stroke-width="0.75" stroke-linejoin="round" mask="url(#mask-2)"></path>
                    <polygon id="Fill-44" fill="#E6E6E6" mask="url(#mask-2)" points="57.215 16.305 61.401 16.305 61.401 14.345 57.215 14.345"></polygon>
                    <polygon id="Stroke-45" stroke="#E6E6E6" stroke-width="0.75" stroke-linejoin="round" mask="url(#mask-2)" points="57.215 16.305 61.401 16.305 61.401 14.345 57.215 14.345"></polygon>
                    <polygon id="Fill-46" fill="#E6E6E6" mask="url(#mask-2)" points="65.077 16.305 69.263 16.305 69.263 14.345 65.077 14.345"></polygon>
                    <polygon id="Stroke-47" stroke="#E6E6E6" stroke-width="0.75" stroke-linejoin="round" mask="url(#mask-2)" points="65.077 16.305 69.263 16.305 69.263 14.345 65.077 14.345"></polygon>
                    <path d="M72.9369,12.2626 C72.9369,11.2476 72.1139,10.4256 71.0989,10.4256 C70.0839,10.4256 69.2619,11.2476 69.2619,12.2626 L69.2619,14.2226 C69.2619,13.2076 70.0839,12.3856 71.0989,12.3856 C72.1139,12.3856 72.9369,13.2076 72.9369,14.2226 L72.9369,12.2626 Z" id="Fill-48" fill="#E6E6E6" mask="url(#mask-2)"></path>
                    <path d="M72.9369,12.2626 C72.9369,11.2476 72.1139,10.4256 71.0989,10.4256 C70.0839,10.4256 69.2619,11.2476 69.2619,12.2626 L69.2619,14.2226 C69.2619,13.2076 70.0839,12.3856 71.0989,12.3856 C72.1139,12.3856 72.9369,13.2076 72.9369,14.2226 L72.9369,12.2626 Z" id="Stroke-49" stroke="#E6E6E6" stroke-width="0.75" stroke-linejoin="round" mask="url(#mask-2)"></path>
                    <polygon id="Fill-50" fill="#E6E6E6" mask="url(#mask-2)" points="80.797 16.305 84.983 16.305 84.983 14.345 80.797 14.345"></polygon>
                    <polygon id="Stroke-51" stroke="#E6E6E6" stroke-width="0.75" stroke-linejoin="round" mask="url(#mask-2)" points="80.797 16.305 84.983 16.305 84.983 14.345 80.797 14.345"></polygon>
                    <path d="M65.0766,12.2626 C65.0766,11.2476 64.2536,10.4256 63.2386,10.4256 C62.2236,10.4256 61.4006,11.2476 61.4006,12.2626 L61.4006,14.2226 C61.4006,13.2076 62.2236,12.3856 63.2386,12.3856 C64.2536,12.3856 65.0766,13.2076 65.0766,14.2226 L65.0766,12.2626 Z" id="Fill-52" fill="#E6E6E6" mask="url(#mask-2)"></path>
                    <path d="M65.0766,12.2626 C65.0766,11.2476 64.2536,10.4256 63.2386,10.4256 C62.2236,10.4256 61.4006,11.2476 61.4006,12.2626 L61.4006,14.2226 C61.4006,13.2076 62.2236,12.3856 63.2386,12.3856 C64.2536,12.3856 65.0766,13.2076 65.0766,14.2226 L65.0766,12.2626 Z" id="Stroke-53" stroke="#E6E6E6" stroke-width="0.75" stroke-linejoin="round" mask="url(#mask-2)"></path>
                    <polygon id="Fill-54" fill="#E6E6E6" mask="url(#mask-2)" points="72.937 16.305 77.123 16.305 77.123 14.345 72.937 14.345"></polygon>
                    <polygon id="Stroke-55" stroke="#E6E6E6" stroke-width="0.75" stroke-linejoin="round" mask="url(#mask-2)" points="72.937 16.305 77.123 16.305 77.123 14.345 72.937 14.345"></polygon>
                    <path d="M80.7973,12.2626 C80.7973,11.2476 79.9753,10.4256 78.9593,10.4256 C77.9443,10.4256 77.1223,11.2476 77.1223,12.2626 L77.1223,14.2226 C77.1223,13.2076 77.9443,12.3856 78.9593,12.3856 C79.9753,12.3856 80.7973,13.2076 80.7973,14.2226 L80.7973,12.2626 Z" id="Fill-56" fill="#E6E6E6" mask="url(#mask-2)"></path>
                    <path d="M80.7973,12.2626 C80.7973,11.2476 79.9753,10.4256 78.9593,10.4256 C77.9443,10.4256 77.1223,11.2476 77.1223,12.2626 L77.1223,14.2226 C77.1223,13.2076 77.9443,12.3856 78.9593,12.3856 C79.9753,12.3856 80.7973,13.2076 80.7973,14.2226 L80.7973,12.2626 Z" id="Stroke-57" stroke="#E6E6E6" stroke-width="0.75" stroke-linejoin="round" mask="url(#mask-2)"></path>
                    <path d="M55.3783,22.1996 C52.1503,22.1996 49.5343,24.8036 49.5103,28.0256 L51.5083,28.0026 L51.5083,28.0706 C51.5083,25.9366 53.2443,24.1996 55.3783,24.1996 C57.5123,24.1996 59.2483,25.9366 59.2483,28.0706 L59.2483,28.0036 L61.2463,28.0256 C61.2223,24.8036 58.6063,22.1996 55.3783,22.1996" id="Fill-58" fill="#E6E6E6" mask="url(#mask-2)"></path>
                    <path d="M55.3783,22.1996 C52.1503,22.1996 49.5343,24.8036 49.5103,28.0256 L51.5083,28.0026 L51.5083,28.0706 C51.5083,25.9366 53.2443,24.1996 55.3783,24.1996 C57.5123,24.1996 59.2483,25.9366 59.2483,28.0706 L59.2483,28.0036 L61.2463,28.0256 C61.2223,24.8036 58.6063,22.1996 55.3783,22.1996 Z" id="Stroke-59" stroke="#E6E6E6" stroke-width="0.75" stroke-linejoin="round" mask="url(#mask-2)"></path>
                    <path d="M55.3783,43.7816 C52.1503,43.7816 49.5343,46.3856 49.5103,49.6066 L51.5083,49.5846 L51.5083,49.6526 C51.5083,47.5186 53.2443,45.7816 55.3783,45.7816 C57.5123,45.7816 59.2483,47.5186 59.2483,49.6526 L59.2483,49.5856 L61.2463,49.6076 C61.2223,46.3856 58.6063,43.7816 55.3783,43.7816" id="Fill-60" fill="#E6E6E6" mask="url(#mask-2)"></path>
                    <path d="M55.3783,43.7816 C52.1503,43.7816 49.5343,46.3856 49.5103,49.6066 L51.5083,49.5846 L51.5083,49.6526 C51.5083,47.5186 53.2443,45.7816 55.3783,45.7816 C57.5123,45.7816 59.2483,47.5186 59.2483,49.6526 L59.2483,49.5856 L61.2463,49.6076 C61.2223,46.3856 58.6063,43.7816 55.3783,43.7816 Z" id="Stroke-61" stroke="#E6E6E6" stroke-width="0.75" stroke-linejoin="round" mask="url(#mask-2)"></path>
                    <polygon id="Fill-62" fill="#E6E6E6" mask="url(#mask-2)" points="16.208 39.773 27.908 39.773 27.908 37.808 16.208 37.808"></polygon>
                    <polygon id="Stroke-63" stroke="#E6E6E6" stroke-width="0.75" stroke-linejoin="round" mask="url(#mask-2)" points="16.208 39.773 27.908 39.773 27.908 37.808 16.208 37.808"></polygon>
                    <polygon id="Fill-64" fill="#E6E6E6" mask="url(#mask-2)" points="31.888 39.773 43.588 39.773 43.588 37.808 31.888 37.808"></polygon>
                    <polygon id="Stroke-65" stroke="#E6E6E6" stroke-width="0.75" stroke-linejoin="round" mask="url(#mask-2)" points="31.888 39.773 43.588 39.773 43.588 37.808 31.888 37.808"></polygon>
                    <polygon id="Fill-66" fill="#E6E6E6" mask="url(#mask-2)" points="82.849 39.773 94.548 39.773 94.548 37.808 82.849 37.808"></polygon>
                    <polygon id="Stroke-67" stroke="#E6E6E6" stroke-width="0.75" stroke-linejoin="round" mask="url(#mask-2)" points="82.849 39.773 94.548 39.773 94.548 37.808 82.849 37.808"></polygon>
                    <polygon id="Fill-68" fill="#E6E6E6" mask="url(#mask-2)" points="67.168 39.773 78.868 39.773 78.868 37.808 67.168 37.808"></polygon>
                    <polygon id="Stroke-69" stroke="#E6E6E6" stroke-width="0.75" stroke-linejoin="round" mask="url(#mask-2)" points="67.168 39.773 78.868 39.773 78.868 37.808 67.168 37.808"></polygon>
                    <polygon id="Fill-70" fill="#E6E6E6" mask="url(#mask-2)" points="47.574 39.773 63.183 39.773 63.183 37.808 47.574 37.808"></polygon>
                    <polygon id="Stroke-71" stroke="#E6E6E6" stroke-width="0.75" stroke-linejoin="round" mask="url(#mask-2)" points="47.574 39.773 63.183 39.773 63.183 37.808 47.574 37.808"></polygon>
                    <polygon id="Fill-72" fill="#E6E6E6" mask="url(#mask-2)" points="16.208 61.355 27.908 61.355 27.908 59.39 16.208 59.39"></polygon>
                    <polygon id="Stroke-73" stroke="#E6E6E6" stroke-width="0.75" stroke-linejoin="round" mask="url(#mask-2)" points="16.208 61.355 27.908 61.355 27.908 59.39 16.208 59.39"></polygon>
                    <polygon id="Fill-74" fill="#E6E6E6" mask="url(#mask-2)" points="31.888 61.355 43.588 61.355 43.588 59.39 31.888 59.39"></polygon>
                    <polygon id="Stroke-75" stroke="#E6E6E6" stroke-width="0.75" stroke-linejoin="round" mask="url(#mask-2)" points="31.888 61.355 43.588 61.355 43.588 59.39 31.888 59.39"></polygon>
                    <polygon id="Fill-76" fill="#E6E6E6" mask="url(#mask-2)" points="82.849 61.355 94.548 61.355 94.548 59.39 82.849 59.39"></polygon>
                    <polygon id="Stroke-77" stroke="#E6E6E6" stroke-width="0.75" stroke-linejoin="round" mask="url(#mask-2)" points="82.849 61.355 94.548 61.355 94.548 59.39 82.849 59.39"></polygon>
                    <polygon id="Fill-78" fill="#E6E6E6" mask="url(#mask-2)" points="67.168 61.355 78.868 61.355 78.868 59.39 67.168 59.39"></polygon>
                    <polygon id="Stroke-79" stroke="#E6E6E6" stroke-width="0.75" stroke-linejoin="round" mask="url(#mask-2)" points="67.168 61.355 78.868 61.355 78.868 59.39 67.168 59.39"></polygon>
                    <polygon id="Fill-80" fill="#E6E6E6" mask="url(#mask-2)" points="47.574 61.355 63.183 61.355 63.183 59.39 47.574 59.39"></polygon>
                    <polygon id="Stroke-81" stroke="#E6E6E6" stroke-width="0.75" stroke-linejoin="round" mask="url(#mask-2)" points="47.574 61.355 63.183 61.355 63.183 59.39 47.574 59.39"></polygon>
                    <polygon id="Fill-82" fill="#E6E6E6" mask="url(#mask-2)" points="16.208 82.937 27.908 82.937 27.908 80.972 16.208 80.972"></polygon>
                    <polygon id="Stroke-83" stroke="#E6E6E6" stroke-width="0.75" stroke-linejoin="round" mask="url(#mask-2)" points="16.208 82.937 27.908 82.937 27.908 80.972 16.208 80.972"></polygon>
                    <polygon id="Fill-84" fill="#E6E6E6" mask="url(#mask-2)" points="31.888 82.937 43.588 82.937 43.588 80.972 31.888 80.972"></polygon>
                    <polygon id="Stroke-85" stroke="#E6E6E6" stroke-width="0.75" stroke-linejoin="round" mask="url(#mask-2)" points="31.888 82.937 43.588 82.937 43.588 80.972 31.888 80.972"></polygon>
                    <polygon id="Fill-86" fill="#E6E6E6" mask="url(#mask-2)" points="82.849 82.937 94.548 82.937 94.548 80.972 82.849 80.972"></polygon>
                    <polygon id="Stroke-87" stroke="#E6E6E6" stroke-width="0.75" stroke-linejoin="round" mask="url(#mask-2)" points="82.849 82.937 94.548 82.937 94.548 80.972 82.849 80.972"></polygon>
                    <polygon id="Fill-88" fill="#E6E6E6" mask="url(#mask-2)" points="67.168 82.937 78.868 82.937 78.868 80.972 67.168 80.972"></polygon>
                    <polygon id="Stroke-89" stroke="#E6E6E6" stroke-width="0.75" stroke-linejoin="round" mask="url(#mask-2)" points="67.168 82.937 78.868 82.937 78.868 80.972 67.168 80.972"></polygon>
                    <polygon id="Fill-90" fill="#E6E6E6" mask="url(#mask-2)" points="61.248 100.625 106.339 100.625 106.339 84.904 61.248 84.904"></polygon>
                    <polygon id="Stroke-91" stroke="#7A7A7A" stroke-width="0.75" stroke-linejoin="round" mask="url(#mask-2)" points="61.248 100.625 106.339 100.625 106.339 84.904 61.248 84.904"></polygon>
                    <polygon id="Fill-92" fill="#E6E6E6" mask="url(#mask-2)" points="4.417 100.625 49.508 100.625 49.508 84.904 4.417 84.904"></polygon>
                    <polygon id="Stroke-93" stroke="#7A7A7A" stroke-width="0.75" stroke-linejoin="round" mask="url(#mask-2)" points="4.417 100.625 49.508 100.625 49.508 84.904 4.417 84.904"></polygon>
                    <path d="M104.3793,14.3451 L104.3793,12.2621 C104.3793,11.2481 103.5563,10.4251 102.5413,10.4251 C101.5263,10.4251 100.7033,11.2481 100.7033,12.2621 L100.7033,14.3451 L96.5183,14.3451 L96.5183,12.2621 C96.5183,11.2481 95.6953,10.4251 94.6813,10.4251 C93.6663,10.4251 92.8433,11.2481 92.8433,12.2621 L92.8433,14.3451 L88.6573,14.3451 L88.6573,12.2621 C88.6573,11.2481 87.8353,10.4251 86.8203,10.4251 C85.8053,10.4251 84.9833,11.2481 84.9833,12.2621 L84.9833,14.3451 L80.7973,14.3451 L80.7973,12.2621 C80.7973,11.2481 79.9753,10.4251 78.9593,10.4251 C77.9443,10.4251 77.1223,11.2481 77.1223,12.2621 L77.1223,14.3451 L72.9373,14.3451 L72.9373,12.2621 C72.9373,11.2481 72.1133,10.4251 71.0993,10.4251 C70.0843,10.4251 69.2623,11.2481 69.2623,12.2621 L69.2623,14.3451 L65.0763,14.3451 L65.0763,12.2621 C65.0763,11.2481 64.2533,10.4251 63.2383,10.4251 C62.2243,10.4251 61.4003,11.2481 61.4003,12.2621 L61.4003,14.3451 L57.2163,14.3451 L57.2163,12.2621 C57.2163,11.2481 56.3933,10.4251 55.3783,10.4251 C54.3633,10.4251 53.5403,11.2481 53.5403,12.2621 L53.5403,14.3451 L49.3553,14.3451 L49.3553,12.2621 C49.3553,11.2481 48.5323,10.4251 47.5183,10.4251 C46.5033,10.4251 45.6803,11.2481 45.6803,12.2621 L45.6803,14.3451 L41.4943,14.3451 L41.4943,12.2621 C41.4943,11.2481 40.6723,10.4251 39.6573,10.4251 C38.6423,10.4251 37.8193,11.2481 37.8193,12.2621 L37.8193,14.3451 L33.6343,14.3451 L33.6343,12.2621 C33.6343,11.2481 32.8123,10.4251 31.7963,10.4251 C30.7813,10.4251 29.9593,11.2481 29.9593,12.2621 L29.9593,14.3451 L25.7743,14.3451 L25.7743,12.2621 C25.7743,11.2481 24.9503,10.4251 23.9363,10.4251 C22.9213,10.4251 22.0993,11.2481 22.0993,12.2621 L22.0993,14.3451 L17.9133,14.3451 L17.9133,12.2621 C17.9133,11.2481 17.0903,10.4251 16.0753,10.4251 C15.0613,10.4251 14.2373,11.2481 14.2373,12.2621 L14.2373,14.3451 L10.0523,14.3451 L10.0523,12.2621 C10.0523,11.2481 9.2303,10.4251 8.2153,10.4251 C7.2003,10.4251 6.3773,11.2481 6.3773,12.2621 L6.3773,14.3451 L4.4173,14.3451 L4.4173,100.6251 L106.3393,100.6251 L106.3393,14.3451 L104.3793,14.3451 Z" id="Stroke-94" stroke="#7A7A7A" stroke-width="0.75" stroke-linejoin="round" mask="url(#mask-2)"></path>
                    <polygon id="Stroke-95" stroke="#7A7A7A" stroke-width="0.75" stroke-linejoin="round" mask="url(#mask-2)" points="0.497 8.465 110.259 8.465 110.259 0.625 0.497 0.625"></polygon>
                    <polygon id="Fill-96" fill="#E6E6E6" mask="url(#mask-2)" points="2.212 9.827 108.457 9.827 108.457 8.465 2.212 8.465"></polygon>
                    <polygon id="Stroke-97" stroke="#E6E6E6" stroke-width="0.75" stroke-linejoin="round" mask="url(#mask-2)" points="2.212 9.827 108.457 9.827 108.457 8.465 2.212 8.465"></polygon>
                    <path d="M2.2123,8.4652 L2.2123,14.3452 L6.3773,14.3452 L6.3773,12.2622 C6.3773,11.2482 7.2003,10.4252 8.2153,10.4252 C9.2303,10.4252 10.0523,11.2482 10.0523,12.2622 L10.0523,14.3452 L14.2373,14.3452 L14.2373,12.2622 C14.2373,11.2482 15.0613,10.4252 16.0753,10.4252 C17.0903,10.4252 17.9133,11.2482 17.9133,12.2622 L17.9133,14.3452 L22.0993,14.3452 L22.0993,12.2622 C22.0993,11.2482 22.9213,10.4252 23.9363,10.4252 C24.9503,10.4252 25.7743,11.2482 25.7743,12.2622 L25.7743,14.3452 L29.9593,14.3452 L29.9593,12.2622 C29.9593,11.2482 30.7813,10.4252 31.7963,10.4252 C32.8123,10.4252 33.6343,11.2482 33.6343,12.2622 L33.6343,14.3452 L37.8193,14.3452 L37.8193,12.2622 C37.8193,11.2482 38.6423,10.4252 39.6573,10.4252 C40.6723,10.4252 41.4943,11.2482 41.4943,12.2622 L41.4943,14.3452 L45.6803,14.3452 L45.6803,12.2622 C45.6803,11.2482 46.5033,10.4252 47.5183,10.4252 C48.5323,10.4252 49.3553,11.2482 49.3553,12.2622 L49.3553,14.3452 L53.5403,14.3452 L53.5403,12.2622 C53.5403,11.2482 54.3633,10.4252 55.3783,10.4252 C56.3933,10.4252 57.2163,11.2482 57.2163,12.2622 L57.2163,14.3452 L61.4003,14.3452 L61.4003,12.2622 C61.4003,11.2482 62.2243,10.4252 63.2383,10.4252 C64.2533,10.4252 65.0763,11.2482 65.0763,12.2622 L65.0763,14.3452 L69.2623,14.3452 L69.2623,12.2622 C69.2623,11.2482 70.0843,10.4252 71.0993,10.4252 C72.1133,10.4252 72.9373,11.2482 72.9373,12.2622 L72.9373,14.3452 L77.1223,14.3452 L77.1223,12.2622 C77.1223,11.2482 77.9443,10.4252 78.9593,10.4252 C79.9753,10.4252 80.7973,11.2482 80.7973,12.2622 L80.7973,14.3452 L84.9833,14.3452 L84.9833,12.2622 C84.9833,11.2482 85.8053,10.4252 86.8203,10.4252 C87.8353,10.4252 88.6573,11.2482 88.6573,12.2622 L88.6573,14.3452 L92.8433,14.3452 L92.8433,12.2622 C92.8433,11.2482 93.6663,10.4252 94.6813,10.4252 C95.6953,10.4252 96.5183,11.2482 96.5183,12.2622 L96.5183,14.3452 L100.7033,14.3452 L100.7033,12.2622 C100.7033,11.2482 101.5263,10.4252 102.5413,10.4252 C103.5563,10.4252 104.3793,11.2482 104.3793,12.2622 L104.3793,14.3452 L108.4573,14.3452 L108.4573,8.4652 L2.2123,8.4652 Z" id="Stroke-98" stroke="#7A7A7A" stroke-width="0.75" stroke-linejoin="round" mask="url(#mask-2)"></path>
                    <polygon id="Stroke-99" stroke="#7A7A7A" stroke-width="0.75" stroke-linejoin="round" mask="url(#mask-2)" points="0.375 100.625 110.381 100.625 110.381 92.764 0.375 92.764"></polygon>
                    <line x1="67.14" y1="100.6249" x2="67.14" y2="92.7639" id="Stroke-100" stroke="#7A7A7A" stroke-width="0.75" stroke-linejoin="round" mask="url(#mask-2)"></line>
                    <line x1="71.059" y1="100.6249" x2="71.059" y2="92.7639" id="Stroke-101" stroke="#7A7A7A" stroke-width="0.75" stroke-linejoin="round" mask="url(#mask-2)"></line>
                    <line x1="74.9779" y1="100.6249" x2="74.9779" y2="92.7639" id="Stroke-102" stroke="#7A7A7A" stroke-width="0.75" stroke-linejoin="round" mask="url(#mask-2)"></line>
                    <line x1="78.8969" y1="100.6249" x2="78.8969" y2="92.7639" id="Stroke-103" stroke="#7A7A7A" stroke-width="0.75" stroke-linejoin="round" mask="url(#mask-2)"></line>
                    <line x1="82.8158" y1="100.6249" x2="82.8158" y2="92.7639" id="Stroke-104" stroke="#7A7A7A" stroke-width="0.75" stroke-linejoin="round" mask="url(#mask-2)"></line>
                    <line x1="86.7348" y1="100.6249" x2="86.7348" y2="92.7639" id="Stroke-105" stroke="#7A7A7A" stroke-width="0.75" stroke-linejoin="round" mask="url(#mask-2)"></line>
                    <line x1="90.6537" y1="100.6249" x2="90.6537" y2="92.7639" id="Stroke-106" stroke="#7A7A7A" stroke-width="0.75" stroke-linejoin="round" mask="url(#mask-2)"></line>
                    <line x1="94.5736" y1="100.6249" x2="94.5736" y2="92.7639" id="Stroke-107" stroke="#7A7A7A" stroke-width="0.75" stroke-linejoin="round" mask="url(#mask-2)"></line>
                    <line x1="98.4926" y1="100.6249" x2="98.4926" y2="92.7639" id="Stroke-108" stroke="#7A7A7A" stroke-width="0.75" stroke-linejoin="round" mask="url(#mask-2)"></line>
                    <line x1="102.4115" y1="100.6249" x2="102.4115" y2="92.7639" id="Stroke-109" stroke="#7A7A7A" stroke-width="0.75" stroke-linejoin="round" mask="url(#mask-2)"></line>
                    <line x1="43.6166" y1="100.6249" x2="43.6166" y2="92.7639" id="Stroke-110" stroke="#7A7A7A" stroke-width="0.75" stroke-linejoin="round" mask="url(#mask-2)"></line>
                    <line x1="39.6977" y1="100.6249" x2="39.6977" y2="92.7639" id="Stroke-111" stroke="#7A7A7A" stroke-width="0.75" stroke-linejoin="round" mask="url(#mask-2)"></line>
                    <line x1="35.7787" y1="100.6249" x2="35.7787" y2="92.7639" id="Stroke-112" stroke="#7A7A7A" stroke-width="0.75" stroke-linejoin="round" mask="url(#mask-2)"></line>
                    <line x1="31.8598" y1="100.6249" x2="31.8598" y2="92.7639" id="Stroke-113" stroke="#7A7A7A" stroke-width="0.75" stroke-linejoin="round" mask="url(#mask-2)"></line>
                    <line x1="27.9408" y1="100.6249" x2="27.9408" y2="92.7639" id="Stroke-114" stroke="#7A7A7A" stroke-width="0.75" stroke-linejoin="round" mask="url(#mask-2)"></line>
                    <line x1="24.0209" y1="100.6249" x2="24.0209" y2="92.7639" id="Stroke-115" stroke="#7A7A7A" stroke-width="0.75" stroke-linejoin="round" mask="url(#mask-2)"></line>
                    <line x1="20.1019" y1="100.6249" x2="20.1019" y2="92.7639" id="Stroke-116" stroke="#7A7A7A" stroke-width="0.75" stroke-linejoin="round" mask="url(#mask-2)"></line>
                    <line x1="16.183" y1="100.6249" x2="16.183" y2="92.7639" id="Stroke-117" stroke="#7A7A7A" stroke-width="0.75" stroke-linejoin="round" mask="url(#mask-2)"></line>
                    <line x1="12.2641" y1="100.6249" x2="12.2641" y2="92.7639" id="Stroke-118" stroke="#7A7A7A" stroke-width="0.75" stroke-linejoin="round" mask="url(#mask-2)"></line>
                    <line x1="8.3451" y1="100.6249" x2="8.3451" y2="92.7639" id="Stroke-119" stroke="#7A7A7A" stroke-width="0.75" stroke-linejoin="round" mask="url(#mask-2)"></line>
                    <polygon id="Stroke-120" stroke="#7A7A7A" stroke-width="0.75" stroke-linejoin="round" mask="url(#mask-2)" points="18.157 35.843 25.958 35.843 25.958 24.203 18.157 24.203"></polygon>
                    <polygon id="Stroke-121" stroke="#7A7A7A" stroke-width="0.75" stroke-linejoin="round" mask="url(#mask-2)" points="16.208 37.808 27.908 37.808 27.908 35.843 16.208 35.843"></polygon>
                    <polygon id="Stroke-122" stroke="#7A7A7A" stroke-width="0.75" stroke-linejoin="round" mask="url(#mask-2)" points="33.837 35.843 41.638 35.843 41.638 24.203 33.837 24.203"></polygon>
                    <polygon id="Stroke-123" stroke="#7A7A7A" stroke-width="0.75" stroke-linejoin="round" mask="url(#mask-2)" points="31.888 37.808 43.588 37.808 43.588 35.843 31.888 35.843"></polygon>
                    <polygon id="Stroke-124" stroke="#7A7A7A" stroke-width="0.75" stroke-linejoin="round" mask="url(#mask-2)" points="84.798 35.843 92.599 35.843 92.599 24.203 84.798 24.203"></polygon>
                    <polygon id="Stroke-125" stroke="#7A7A7A" stroke-width="0.75" stroke-linejoin="round" mask="url(#mask-2)" points="82.849 37.808 94.548 37.808 94.548 35.843 82.849 35.843"></polygon>
                    <polygon id="Stroke-126" stroke="#7A7A7A" stroke-width="0.75" stroke-linejoin="round" mask="url(#mask-2)" points="69.119 35.843 76.919 35.843 76.919 24.203 69.119 24.203"></polygon>
                    <polygon id="Stroke-127" stroke="#7A7A7A" stroke-width="0.75" stroke-linejoin="round" mask="url(#mask-2)" points="67.168 37.808 78.868 37.808 78.868 35.843 67.168 35.843"></polygon>
                    <polygon id="Stroke-128" stroke="#7A7A7A" stroke-width="0.75" stroke-linejoin="round" mask="url(#mask-2)" points="47.574 37.808 63.183 37.808 63.183 35.843 47.574 35.843"></polygon>
                    <path d="M55.3783,22.2001 C52.1363,22.2001 49.5083,24.8281 49.5083,28.0701 L49.5083,35.8431 L61.2483,35.8431 L61.2483,28.0701 C61.2483,24.8281 58.6203,22.2001 55.3783,22.2001 Z" id="Stroke-129" stroke="#7A7A7A" stroke-width="0.75" stroke-linejoin="round" mask="url(#mask-2)"></path>
                    <polygon id="Stroke-130" stroke="#7A7A7A" stroke-width="0.75" stroke-linejoin="round" mask="url(#mask-2)" points="18.157 57.425 25.958 57.425 25.958 45.785 18.157 45.785"></polygon>
                    <polygon id="Stroke-131" stroke="#7A7A7A" stroke-width="0.75" stroke-linejoin="round" mask="url(#mask-2)" points="16.208 59.39 27.908 59.39 27.908 57.425 16.208 57.425"></polygon>
                    <polygon id="Stroke-132" stroke="#7A7A7A" stroke-width="0.75" stroke-linejoin="round" mask="url(#mask-2)" points="33.837 57.425 41.638 57.425 41.638 45.785 33.837 45.785"></polygon>
                    <polygon id="Stroke-133" stroke="#7A7A7A" stroke-width="0.75" stroke-linejoin="round" mask="url(#mask-2)" points="31.888 59.39 43.588 59.39 43.588 57.425 31.888 57.425"></polygon>
                    <polygon id="Stroke-134" stroke="#7A7A7A" stroke-width="0.75" stroke-linejoin="round" mask="url(#mask-2)" points="84.798 57.425 92.599 57.425 92.599 45.785 84.798 45.785"></polygon>
                    <polygon id="Stroke-135" stroke="#7A7A7A" stroke-width="0.75" stroke-linejoin="round" mask="url(#mask-2)" points="82.849 59.39 94.548 59.39 94.548 57.425 82.849 57.425"></polygon>
                    <polygon id="Stroke-136" stroke="#7A7A7A" stroke-width="0.75" stroke-linejoin="round" mask="url(#mask-2)" points="69.119 57.425 76.919 57.425 76.919 45.785 69.119 45.785"></polygon>
                    <polygon id="Stroke-137" stroke="#7A7A7A" stroke-width="0.75" stroke-linejoin="round" mask="url(#mask-2)" points="67.168 59.39 78.868 59.39 78.868 57.425 67.168 57.425"></polygon>
                    <polygon id="Stroke-138" stroke="#7A7A7A" stroke-width="0.75" stroke-linejoin="round" mask="url(#mask-2)" points="47.574 59.39 63.183 59.39 63.183 57.425 47.574 57.425"></polygon>
                    <path d="M55.3783,43.7816 C52.1363,43.7816 49.5083,46.4096 49.5083,49.6526 L49.5083,57.4246 L61.2483,57.4246 L61.2483,49.6526 C61.2483,46.4096 58.6203,43.7816 55.3783,43.7816 Z" id="Stroke-139" stroke="#7A7A7A" stroke-width="0.75" stroke-linejoin="round" mask="url(#mask-2)"></path>
                    <polygon id="Stroke-140" stroke="#7A7A7A" stroke-width="0.75" stroke-linejoin="round" mask="url(#mask-2)" points="18.157 79.006 25.958 79.006 25.958 67.366 18.157 67.366"></polygon>
                    <polygon id="Stroke-141" stroke="#7A7A7A" stroke-width="0.75" stroke-linejoin="round" mask="url(#mask-2)" points="16.208 80.972 27.908 80.972 27.908 79.007 16.208 79.007"></polygon>
                    <polygon id="Stroke-142" stroke="#7A7A7A" stroke-width="0.75" stroke-linejoin="round" mask="url(#mask-2)" points="33.837 79.006 41.638 79.006 41.638 67.366 33.837 67.366"></polygon>
                    <polygon id="Stroke-143" stroke="#7A7A7A" stroke-width="0.75" stroke-linejoin="round" mask="url(#mask-2)" points="31.888 80.972 43.588 80.972 43.588 79.007 31.888 79.007"></polygon>
                    <polygon id="Stroke-144" stroke="#7A7A7A" stroke-width="0.75" stroke-linejoin="round" mask="url(#mask-2)" points="84.798 79.006 92.599 79.006 92.599 67.366 84.798 67.366"></polygon>
                    <polygon id="Stroke-145" stroke="#7A7A7A" stroke-width="0.75" stroke-linejoin="round" mask="url(#mask-2)" points="82.849 80.972 94.548 80.972 94.548 79.007 82.849 79.007"></polygon>
                    <polygon id="Stroke-146" stroke="#7A7A7A" stroke-width="0.75" stroke-linejoin="round" mask="url(#mask-2)" points="69.119 79.006 76.919 79.006 76.919 67.366 69.119 67.366"></polygon>
                    <polygon id="Stroke-147" stroke="#7A7A7A" stroke-width="0.75" stroke-linejoin="round" mask="url(#mask-2)" points="67.168 80.972 78.868 80.972 78.868 79.007 67.168 79.007"></polygon>
                    <polygon id="Stroke-148" stroke="#7A7A7A" stroke-width="0.75" stroke-linejoin="round" mask="url(#mask-2)" points="49.508 86.869 61.248 86.869 61.248 84.904 49.508 84.904"></polygon>
                    <polygon id="Stroke-149" stroke="#7A7A7A" stroke-width="0.75" stroke-linejoin="round" mask="url(#mask-2)" points="49.508 88.834 61.248 88.834 61.248 86.869 49.508 86.869"></polygon>
                    <polygon id="Stroke-150" stroke="#7A7A7A" stroke-width="0.75" stroke-linejoin="round" mask="url(#mask-2)" points="49.508 90.799 61.248 90.799 61.248 88.834 49.508 88.834"></polygon>
                    <polygon id="Stroke-151" stroke="#7A7A7A" stroke-width="0.75" stroke-linejoin="round" mask="url(#mask-2)" points="49.508 92.764 61.248 92.764 61.248 90.799 49.508 90.799"></polygon>
                    <polygon id="Stroke-152" stroke="#7A7A7A" stroke-width="0.75" stroke-linejoin="round" mask="url(#mask-2)" points="49.508 94.729 61.248 94.729 61.248 92.764 49.508 92.764"></polygon>
                    <polygon id="Stroke-153" stroke="#7A7A7A" stroke-width="0.75" stroke-linejoin="round" mask="url(#mask-2)" points="49.508 96.695 61.248 96.695 61.248 94.73 49.508 94.73"></polygon>
                    <polygon id="Stroke-154" stroke="#7A7A7A" stroke-width="0.75" stroke-linejoin="round" mask="url(#mask-2)" points="49.508 98.66 61.248 98.66 61.248 96.695 49.508 96.695"></polygon>
                    <polygon id="Stroke-155" stroke="#7A7A7A" stroke-width="0.75" stroke-linejoin="round" mask="url(#mask-2)" points="49.508 100.625 61.248 100.625 61.248 98.66 49.508 98.66"></polygon>
                    <path d="M55.3783,65.3631 C52.1363,65.3631 49.5083,67.9911 49.5083,71.2341 L49.5083,84.9041 L61.2483,84.9041 L61.2483,71.2341 C61.2483,67.9911 58.6203,65.3631 55.3783,65.3631" id="Fill-156" fill="#E6E6E6" mask="url(#mask-2)"></path>
                    <path d="M55.3783,65.3631 C52.1363,65.3631 49.5083,67.9911 49.5083,71.2341 L49.5083,84.9041 L61.2483,84.9041 L61.2483,71.2341 C61.2483,67.9911 58.6203,65.3631 55.3783,65.3631 Z" id="Stroke-157" stroke="#7A7A7A" stroke-width="0.75" stroke-linejoin="round" mask="url(#mask-2)"></path>
                    <path d="M51.4682,84.9037 L51.4682,71.2337 C51.4682,69.0777 53.2222,67.3237 55.3782,67.3237 C57.5342,67.3237 59.2882,69.0777 59.2882,71.2337 L59.2882,84.9037 L51.4682,84.9037 Z" id="Stroke-158" stroke="#7A7A7A" stroke-width="0.75" stroke-linejoin="round" mask="url(#mask-2)"></path>
                    <line x1="49.5082" y1="84.9037" x2="4.4172" y2="84.9037" id="Stroke-159" stroke="#7A7A7A" stroke-width="0.75" stroke-linejoin="round" mask="url(#mask-2)"></line>
                    <line x1="106.3393" y1="84.9037" x2="61.2483" y2="84.9037" id="Stroke-160" stroke="#7A7A7A" stroke-width="0.75" stroke-linejoin="round" mask="url(#mask-2)"></line>
                    <path d="M49.5082,49.6522 C49.5082,46.4102 52.1362,43.7812 55.3782,43.7812 C58.6202,43.7812 61.2482,46.4102 61.2482,49.6522 L61.2482,49.9052 L63.1292,48.5512 C62.5932,44.7532 59.3222,41.8212 55.3782,41.8212 C51.4342,41.8212 48.1632,44.7532 47.6262,48.5512 L49.5082,49.9052 L49.5082,49.6522 Z" id="Stroke-161" stroke="#7A7A7A" stroke-width="0.75" stroke-linejoin="round" mask="url(#mask-2)"></path>
                    <path d="M49.5082,28.0702 C49.5082,24.8282 52.1362,22.2002 55.3782,22.2002 C58.6202,22.2002 61.2482,24.8282 61.2482,28.0702 L61.2482,28.3242 L63.1292,26.9692 C62.5932,23.1712 59.3222,20.2392 55.3782,20.2392 C51.4342,20.2392 48.1632,23.1712 47.6262,26.9692 L49.5082,28.3242 L49.5082,28.0702 Z" id="Stroke-162" stroke="#7A7A7A" stroke-width="0.75" stroke-linejoin="round" mask="url(#mask-2)"></path>
                    <path d="M48.5277,89.8094 C47.9867,89.8094 47.5487,90.2524 47.5487,90.7994 L47.5487,100.6244 L49.5077,100.6244 L49.5077,90.7994 C49.5077,90.2524 49.0687,89.8094 48.5277,89.8094" id="Fill-163" fill="#FFFFFF" mask="url(#mask-2)"></path>
                    <path d="M48.5277,89.8094 C47.9867,89.8094 47.5487,90.2524 47.5487,90.7994 L47.5487,100.6244 L49.5077,100.6244 L49.5077,90.7994 C49.5077,90.2524 49.0687,89.8094 48.5277,89.8094 Z" id="Stroke-164" stroke="#7A7A7A" stroke-width="0.75" stroke-linejoin="round" mask="url(#mask-2)"></path>
                    <path d="M62.2289,89.8094 C61.6869,89.8094 61.2489,90.2524 61.2489,90.7994 L61.2489,100.6244 L63.2079,100.6244 L63.2079,90.7994 C63.2079,90.2524 62.7699,89.8094 62.2289,89.8094" id="Fill-165" fill="#FFFFFF" mask="url(#mask-2)"></path>
                    <path d="M62.2289,89.8094 C61.6869,89.8094 61.2489,90.2524 61.2489,90.7994 L61.2489,100.6244 L63.2079,100.6244 L63.2079,90.7994 C63.2079,90.2524 62.7699,89.8094 62.2289,89.8094 Z" id="Stroke-166" stroke="#7A7A7A" stroke-width="0.75" stroke-linejoin="round" mask="url(#mask-2)"></path>
                </g>
            </g>
        </g>
    </g>
</svg>