<?xml version="1.0" encoding="UTF-8"?>
<svg width="119px" height="101px" viewBox="0 0 119 101" version="1.1" xmlns="http://www.w3.org/2000/svg" xmlns:xlink="http://www.w3.org/1999/xlink">
    <!-- Generator: sketchtool 59.1 (101010) - https://sketch.com -->
    <title>7C533259-2186-4F0A-A9F0-1365904AADB9</title>
    <desc>Created with sketchtool.</desc>
    <g id="Asset-Artboard-Page" stroke="none" stroke-width="1" fill="none" fill-rule="evenodd">
        <g id="icons-/-building-/-condo-selected">
            <g id="condo-selected">
                <g id="Group-91">
                    <polygon id="Fill-1" fill="#FFFFFF" points="13.6107 0.3748 13.6107 9.1988 0.3757 9.1988 0.3757 100.3758 22.4297 100.3758 95.9667 100.3758 118.0217 100.3758 118.0217 9.1988 104.7867 9.1988 104.7867 0.3748"></polygon>
                    <polygon id="Fill-2" fill="#E6E6E6" points="13.59 35.318 40.081 35.318 40.081 32.728 13.59 32.728"></polygon>
                    <polygon id="Stroke-3" stroke="#E6E6E6" stroke-width="0.75" stroke-linejoin="round" points="13.59 35.318 40.081 35.318 40.081 32.728 13.59 32.728"></polygon>
                    <polygon id="Fill-4" fill="#E6E6E6" points="78.317 35.318 104.807 35.318 104.807 32.728 78.317 32.728"></polygon>
                    <polygon id="Stroke-5" stroke="#E6E6E6" stroke-width="0.75" stroke-linejoin="round" points="78.317 35.318 104.807 35.318 104.807 32.728 78.317 32.728"></polygon>
                    <polygon id="Fill-6" fill="#E6E6E6" points="13.59 79.436 40.081 79.436 40.081 76.846 13.59 76.846"></polygon>
                    <polygon id="Stroke-7" stroke="#E6E6E6" stroke-width="0.75" stroke-linejoin="round" points="13.59 79.436 40.081 79.436 40.081 76.846 13.59 76.846"></polygon>
                    <polygon id="Fill-8" fill="#E6E6E6" points="78.317 79.436 104.807 79.436 104.807 76.846 78.317 76.846"></polygon>
                    <polygon id="Stroke-9" stroke="#E6E6E6" stroke-width="0.75" stroke-linejoin="round" points="78.317 79.436 104.807 79.436 104.807 76.846 78.317 76.846"></polygon>
                    <polygon id="Fill-10" fill="#E6E6E6" points="78.317 21.832 104.807 21.832 104.807 18.052 78.317 18.052"></polygon>
                    <polygon id="Stroke-11" stroke="#E6E6E6" stroke-width="0.75" stroke-linejoin="round" points="78.317 21.832 104.807 21.832 104.807 18.052 78.317 18.052"></polygon>
                    <polygon id="Fill-12" fill="#E6E6E6" points="13.59 21.832 40.081 21.832 40.081 18.052 13.59 18.052"></polygon>
                    <polygon id="Stroke-13" stroke="#E6E6E6" stroke-width="0.75" stroke-linejoin="round" points="13.59 21.832 40.081 21.832 40.081 18.052 13.59 18.052"></polygon>
                    <polygon id="Fill-14" fill="#E6E6E6" points="78.317 65.869 95.963 65.869 95.963 62.089 78.317 62.089"></polygon>
                    <polygon id="Stroke-15" stroke="#E6E6E6" stroke-width="0.75" stroke-linejoin="round" points="78.317 65.869 95.963 65.869 95.963 62.089 78.317 62.089"></polygon>
                    <polygon id="Fill-16" fill="#E6E6E6" points="22.434 65.869 40.081 65.869 40.081 62.089 22.434 62.089"></polygon>
                    <polygon id="Stroke-17" stroke="#E6E6E6" stroke-width="0.75" stroke-linejoin="round" points="22.434 65.869 40.081 65.869 40.081 62.089 22.434 62.089"></polygon>
                    <g id="Group-22" transform="translate(0.000000, 8.750000)" stroke="#7A7A7A" stroke-linejoin="round" stroke-width="0.75">
                        <polygon id="Stroke-18" points="40.0812 75.5124 40.0812 53.3894 22.4342 53.3894 22.4342 31.3304 40.0812 31.3304 40.0812 9.2724 13.6102 9.2724 13.6102 0.4484 0.3752 0.4484 0.3752 91.6254 22.4302 91.6254 22.4302 75.5124"></polygon>
                        <polygon id="Stroke-20" points="104.7872 0.4484 104.7872 9.2724 78.3162 9.2724 78.3162 31.3304 95.9632 31.3304 95.9632 53.3894 78.3162 53.3894 78.3162 75.5124 95.9672 75.5124 95.9672 91.6254 118.0212 91.6254 118.0212 0.4484"></polygon>
                    </g>
                    <polygon id="Fill-23" fill="#E6E6E6" points="13.6107 0.3748 13.6107 18.0218 40.0817 18.0218 40.0817 40.0808 22.4337 40.0808 22.4337 62.1398 40.0817 62.1398 40.0817 84.2618 22.4297 84.2618 22.4297 100.3758 95.9667 100.3758 95.9667 84.2618 78.3167 84.2618 78.3167 62.1398 95.9637 62.1398 95.9637 40.0808 78.3167 40.0808 78.3167 18.0218 104.7867 18.0218 104.7867 0.3748"></polygon>
                    <polygon id="Stroke-24" stroke="#7A7A7A" stroke-width="0.75" stroke-linejoin="round" points="104.7872 18.0222 104.7872 0.3752 13.6102 0.3752 13.6102 18.0222 40.0812 18.0222 40.0812 40.0812 22.4332 40.0812 22.4332 62.1402 40.0812 62.1402 40.0812 84.2622 22.4302 84.2622 22.4302 100.3752 95.9672 100.3752 95.9672 84.2622 78.3162 84.2622 78.3162 62.1402 95.9632 62.1402 95.9632 40.0812 78.3162 40.0812 78.3162 18.0222"></polygon>
                    <polygon id="Fill-26" fill="#FFDF2A" points="16.552 15.082 101.846 15.082 101.846 3.317 16.552 3.317"></polygon>
                    <polygon id="Stroke-27" stroke="#7A7A7A" stroke-width="0.75" stroke-linejoin="round" points="16.552 15.082 101.846 15.082 101.846 3.317 16.552 3.317"></polygon>
                    <line x1="35.6691" y1="3.3171" x2="35.6691" y2="15.0821" id="Stroke-28" stroke="#7A7A7A" stroke-width="0.75" stroke-linejoin="round"></line>
                    <line x1="82.7277" y1="3.3171" x2="82.7277" y2="15.0821" id="Stroke-29" stroke="#7A7A7A" stroke-width="0.75" stroke-linejoin="round"></line>
                    <line x1="59.1984" y1="3.3171" x2="59.1984" y2="15.0821" id="Stroke-30" stroke="#7A7A7A" stroke-width="0.75" stroke-linejoin="round"></line>
                    <polygon id="Fill-31" fill="#FFFFFF" points="43.022 32.728 57.728 32.728 57.728 20.963 43.022 20.963"></polygon>
                    <polygon id="Stroke-32" stroke="#7A7A7A" stroke-width="0.75" stroke-linejoin="round" points="43.022 32.728 57.728 32.728 57.728 20.963 43.022 20.963"></polygon>
                    <polygon id="Stroke-33" stroke="#7A7A7A" stroke-width="0.75" stroke-linejoin="round" points="3.317 54.787 18.022 54.787 18.022 43.022 3.317 43.022"></polygon>
                    <polygon id="Fill-34" fill="#FFDF2A" points="3.316 100.376 18.021 100.376 18.021 87.142 3.316 87.142"></polygon>
                    <polygon id="Stroke-35" stroke="#7A7A7A" stroke-width="0.75" stroke-linejoin="round" points="3.317 100.375 18.022 100.375 18.022 87.141 3.317 87.141"></polygon>
                    <polygon id="Fill-37" fill="#FFDF2A" points="100.375 100.376 115.081 100.376 115.081 87.142 100.375 87.142"></polygon>
                    <polygon id="Stroke-38" stroke="#7A7A7A" stroke-width="0.75" stroke-linejoin="round" points="100.375 100.375 115.081 100.375 115.081 87.141 100.375 87.141"></polygon>
                    <polygon id="Fill-40" fill="#FFDF2A" points="100.375 54.787 115.081 54.787 115.081 43.022 100.375 43.022"></polygon>
                    <polygon id="Stroke-41" stroke="#7A7A7A" stroke-width="0.75" stroke-linejoin="round" points="100.375 54.787 115.081 54.787 115.081 43.022 100.375 43.022"></polygon>
                    <polygon id="Fill-42" fill="#FFDF2A" points="60.669 32.728 75.375 32.728 75.375 20.963 60.669 20.963"></polygon>
                    <polygon id="Stroke-43" stroke="#7A7A7A" stroke-width="0.75" stroke-linejoin="round" points="60.669 32.728 75.375 32.728 75.375 20.963 60.669 20.963"></polygon>
                    <polygon id="Fill-44" fill="#FFFFFF" points="43.022 76.845 57.728 76.845 57.728 65.08 43.022 65.08"></polygon>
                    <polygon id="Stroke-45" stroke="#7A7A7A" stroke-width="0.75" stroke-linejoin="round" points="43.022 76.845 57.728 76.845 57.728 65.08 43.022 65.08"></polygon>
                    <polygon id="Fill-46" fill="#FFFFFF" points="60.669 76.845 75.375 76.845 75.375 65.08 60.669 65.08"></polygon>
                    <polygon id="Stroke-47" stroke="#7A7A7A" stroke-width="0.75" stroke-linejoin="round" points="60.669 76.845 75.375 76.845 75.375 65.08 60.669 65.08"></polygon>
                    <polygon id="Stroke-48" stroke="#7A7A7A" stroke-width="0.75" stroke-linejoin="round" points="13.59 26.8454 35.669 26.8454 35.669 20.9634 3.317 20.9634 3.317 32.7274 13.59 32.7274"></polygon>
                    <polygon id="Stroke-49" stroke="#7A7A7A" stroke-width="0.75" stroke-linejoin="round" points="13.59 32.728 40.081 32.728 40.081 26.846 13.59 26.846"></polygon>
                    <line x1="18.0216" y1="20.9631" x2="18.0216" y2="26.8451" id="Stroke-50" stroke="#7A7A7A" stroke-width="0.75" stroke-linejoin="round"></line>
                    <line x1="13.59" y1="32.7277" x2="40.081" y2="32.7277" id="Stroke-51" stroke="#7A7A7A" stroke-width="0.75" stroke-linejoin="round"></line>
                    <polygon id="Fill-52" fill="#FFDF2A" points="13.59 70.9631 35.669 70.9631 35.669 65.0811 3.317 65.0811 3.317 76.8451 13.59 76.8451"></polygon>
                    <polygon id="Stroke-53" stroke="#7A7A7A" stroke-width="0.75" stroke-linejoin="round" points="13.59 70.9631 35.669 70.9631 35.669 65.0811 3.317 65.0811 3.317 76.8451 13.59 76.8451"></polygon>
                    <polygon id="Stroke-54" stroke="#7A7A7A" stroke-width="0.75" stroke-linejoin="round" points="13.59 76.845 40.081 76.845 40.081 70.963 13.59 70.963"></polygon>
                    <line x1="18.0216" y1="65.0808" x2="18.0216" y2="70.9628" id="Stroke-55" stroke="#7A7A7A" stroke-width="0.75" stroke-linejoin="round"></line>
                    <line x1="13.59" y1="76.8454" x2="40.081" y2="76.8454" id="Stroke-56" stroke="#7A7A7A" stroke-width="0.75" stroke-linejoin="round"></line>
                    <polygon id="Stroke-57" stroke="#7A7A7A" stroke-width="0.75" stroke-linejoin="round" points="104.8068 26.8454 82.7278 26.8454 82.7278 20.9634 115.0808 20.9634 115.0808 32.7274 104.8068 32.7274"></polygon>
                    <polygon id="Stroke-58" stroke="#7A7A7A" stroke-width="0.75" stroke-linejoin="round" points="78.317 32.728 104.807 32.728 104.807 26.846 78.317 26.846"></polygon>
                    <line x1="100.3751" y1="20.9631" x2="100.3751" y2="26.8451" id="Stroke-59" stroke="#7A7A7A" stroke-width="0.75" stroke-linejoin="round"></line>
                    <line x1="104.8068" y1="32.7277" x2="78.3168" y2="32.7277" id="Stroke-60" stroke="#7A7A7A" stroke-width="0.75" stroke-linejoin="round"></line>
                    <polygon id="Fill-61" fill="#FFDF2A" points="47.4542 48.9348 25.3752 48.9348 25.3752 43.0528 57.7272 43.0528 57.7272 54.8168 47.4542 54.8168"></polygon>
                    <polygon id="Stroke-62" stroke="#7A7A7A" stroke-width="0.75" stroke-linejoin="round" points="47.4542 48.9348 25.3752 48.9348 25.3752 43.0528 57.7272 43.0528 57.7272 54.8168 47.4542 54.8168"></polygon>
                    <polygon id="Fill-63" fill="#FFDF2A" points="25.375 95.963 53.316 95.963 53.316 87.141 25.375 87.141"></polygon>
                    <polygon id="Stroke-64" stroke="#7A7A7A" stroke-width="0.75" stroke-linejoin="round" points="25.375 95.963 53.316 95.963 53.316 87.141 25.375 87.141"></polygon>
                    <polygon id="Fill-65" fill="#FFDF2A" points="53.317 100.376 59.199 100.376 59.199 87.142 53.317 87.142"></polygon>
                    <polygon id="Stroke-66" stroke="#7A7A7A" stroke-width="0.75" stroke-linejoin="round" points="53.317 100.375 59.199 100.375 59.199 87.141 53.317 87.141"></polygon>
                    <polygon id="Fill-68" fill="#FFDF2A" points="65.082 95.963 93.022 95.963 93.022 87.141 65.082 87.141"></polygon>
                    <polygon id="Stroke-69" stroke="#7A7A7A" stroke-width="0.75" stroke-linejoin="round" points="65.082 95.963 93.022 95.963 93.022 87.141 65.082 87.141"></polygon>
                    <polygon id="Fill-70" fill="#FFDF2A" points="59.198 100.376 65.08 100.376 65.08 87.142 59.198 87.142"></polygon>
                    <polygon id="Stroke-71" stroke="#7A7A7A" stroke-width="0.75" stroke-linejoin="round" points="59.198 100.375 65.081 100.375 65.081 87.141 59.198 87.141"></polygon>
                    <line x1="43.0216" y1="43.0524" x2="43.0216" y2="48.9344" id="Stroke-73" stroke="#7A7A7A" stroke-width="0.75" stroke-linejoin="round"></line>
                    <polygon id="Fill-74" fill="#FFFFFF" points="70.9435 48.9348 93.0215 48.9348 93.0215 43.0528 60.6695 43.0528 60.6695 54.8168 70.9435 54.8168"></polygon>
                    <polygon id="Stroke-75" stroke="#7A7A7A" stroke-width="0.75" stroke-linejoin="round" points="70.9435 48.9348 93.0215 48.9348 93.0215 43.0528 60.6695 43.0528 60.6695 54.8168 70.9435 54.8168"></polygon>
                    <line x1="75.3751" y1="43.0524" x2="75.3751" y2="48.9344" id="Stroke-76" stroke="#7A7A7A" stroke-width="0.75" stroke-linejoin="round"></line>
                    <polygon id="Stroke-77" stroke="#7A7A7A" stroke-width="0.75" stroke-linejoin="round" points="104.8068 70.9631 82.7278 70.9631 82.7278 65.0811 115.0808 65.0811 115.0808 76.8451 104.8068 76.8451"></polygon>
                    <polygon id="Stroke-78" stroke="#7A7A7A" stroke-width="0.75" stroke-linejoin="round" points="78.317 76.845 104.807 76.845 104.807 70.963 78.317 70.963"></polygon>
                    <line x1="100.3751" y1="65.0808" x2="100.3751" y2="70.9628" id="Stroke-79" stroke="#7A7A7A" stroke-width="0.75" stroke-linejoin="round"></line>
                    <polygon id="Fill-80" fill="#CCCCCC" points="25.375 57.284 47.454 57.284 47.454 54.694 25.375 54.694"></polygon>
                    <polygon id="Stroke-81" stroke="#CCCCCC" stroke-width="0.75" stroke-linejoin="round" points="25.375 57.284 47.454 57.284 47.454 54.694 25.375 54.694"></polygon>
                    <polygon id="Fill-82" fill="#CCCCCC" points="70.944 57.284 93.022 57.284 93.022 54.694 70.944 54.694"></polygon>
                    <polygon id="Stroke-83" stroke="#CCCCCC" stroke-width="0.75" stroke-linejoin="round" points="70.944 57.284 93.022 57.284 93.022 54.694 70.944 54.694"></polygon>
                    <line x1="104.8068" y1="76.8454" x2="78.3168" y2="76.8454" id="Stroke-84" stroke="#7A7A7A" stroke-width="0.75" stroke-linejoin="round"></line>
                    <polygon id="Fill-85" fill="#FFFFFF" points="25.375 54.787 47.454 54.787 47.454 48.935 25.375 48.935"></polygon>
                    <polygon id="Stroke-86" stroke="#7A7A7A" stroke-width="0.75" stroke-linejoin="round" points="25.375 54.787 47.454 54.787 47.454 48.935 25.375 48.935"></polygon>
                    <polygon id="Fill-87" fill="#FFFFFF" points="70.944 54.787 93.022 54.787 93.022 48.935 70.944 48.935"></polygon>
                    <polygon id="Stroke-88" stroke="#7A7A7A" stroke-width="0.75" stroke-linejoin="round" points="70.944 54.787 93.022 54.787 93.022 48.935 70.944 48.935"></polygon>
                    <line x1="47.4542" y1="54.8171" x2="25.3752" y2="54.8171" id="Stroke-89" stroke="#7A7A7A" stroke-width="0.75" stroke-linejoin="round"></line>
                    <line x1="70.9435" y1="54.8171" x2="93.0215" y2="54.8171" id="Stroke-90" stroke="#7A7A7A" stroke-width="0.75" stroke-linejoin="round"></line>
                </g>
            </g>
        </g>
    </g>
</svg>