<?xml version="1.0" encoding="UTF-8"?>
<svg width="125px" height="55px" viewBox="0 0 125 55" version="1.1" xmlns="http://www.w3.org/2000/svg" xmlns:xlink="http://www.w3.org/1999/xlink">
    <!-- Generator: sketchtool 59.1 (101010) - https://sketch.com -->
    <title>13C3D96C-AA58-46EF-82B5-C3CC13C3C316</title>
    <desc>Created with sketchtool.</desc>
    <g id="Asset-Artboard-Page" stroke="none" stroke-width="1" fill="none" fill-rule="evenodd">
        <g id="icons-/-building-/-other-selected">
            <g id="other-selected">
                <g id="Group-42">
                    <path d="M20.4347,2.6134 L94.2147,2.6134 C103.6367,2.6134 111.2747,10.2514 111.2747,19.6734 L111.2747,45.2114 L3.3747,45.2114 L3.3747,19.6734 C3.3747,10.2514 11.0127,2.6134 20.4347,2.6134" id="Fill-1" fill="#FFFFFF"></path>
                    <path d="M20.4347,2.6134 L94.2147,2.6134 C103.6367,2.6134 111.2747,10.2514 111.2747,19.6734 L111.2747,45.2114 L3.3747,45.2114 L3.3747,19.6734 C3.3747,10.2514 11.0127,2.6134 20.4347,2.6134 Z" id="Stroke-3" stroke="#7A7A7A" stroke-width="0.75" stroke-linejoin="round"></path>
                    <path d="M20.4347,5.2834 L94.2147,5.2834 C103.6367,5.2834 111.2747,12.4424 111.2747,21.2734 L111.2747,45.2114 L3.3747,45.2114 L3.3747,21.2734 C3.3747,12.4424 11.0127,5.2834 20.4347,5.2834 Z" id="Stroke-5" stroke="#7A7A7A" stroke-width="0.75" stroke-linejoin="round"></path>
                    <path d="M92.7072,9.6872 L94.2152,9.6872 C103.6372,9.6872 111.2742,16.0572 111.2742,23.9142 L111.2742,45.2112 L3.3752,45.2112 L3.3752,23.9142 C3.3752,16.0572 11.0132,9.6872 20.4352,9.6872 L22.7052,9.6872" id="Stroke-7" stroke="#7A7A7A" stroke-width="0.75" stroke-linejoin="round"></path>
                    <path d="M92.7072,17.0373 L94.2152,17.0373 C103.6372,17.0373 111.2742,22.0893 111.2742,28.3203 L111.2742,45.2113 L3.3752,45.2113 L3.3752,28.3203 C3.3752,22.0893 11.0132,17.0373 20.4352,17.0373 L22.3662,17.0373" id="Stroke-9" stroke="#7A7A7A" stroke-width="0.75" stroke-linejoin="round"></path>
                    <path d="M74.0743,12.1154 L79.5653,12.1154 C82.8923,12.1154 85.5893,14.8124 85.5893,18.1384 L85.5893,45.2114 L68.0513,45.2114 L68.0513,18.1384 C68.0513,14.8124 70.7473,12.1154 74.0743,12.1154" id="Fill-11" fill="#E6E6E6"></path>
                    <path d="M74.0743,12.1154 L79.5653,12.1154 C82.8923,12.1154 85.5893,14.8124 85.5893,18.1384 L85.5893,45.2114 L68.0513,45.2114 L68.0513,18.1384 C68.0513,14.8124 70.7473,12.1154 74.0743,12.1154 Z" id="Stroke-13" stroke="#7A7A7A" stroke-width="0.75" stroke-linejoin="round"></path>
                    <path d="M38.6564,26.2253 L37.1734,26.2253 C35.1244,26.2253 33.4644,24.5643 33.4644,22.5163 L33.4644,18.8243 C33.4644,16.7753 35.1244,15.1153 37.1734,15.1153 L38.6564,15.1153 C40.7044,15.1153 42.3654,16.7753 42.3654,18.8243 L42.3654,22.5163 C42.3654,24.5643 40.7044,26.2253 38.6564,26.2253" id="Fill-15" fill="#FFDF2A"></path>
                    <path d="M38.6564,26.2253 L37.1734,26.2253 C35.1244,26.2253 33.4644,24.5643 33.4644,22.5163 L33.4644,18.8243 C33.4644,16.7753 35.1244,15.1153 37.1734,15.1153 L38.6564,15.1153 C40.7044,15.1153 42.3654,16.7753 42.3654,18.8243 L42.3654,22.5163 C42.3654,24.5643 40.7044,26.2253 38.6564,26.2253 Z" id="Stroke-17" stroke="#7A7A7A" stroke-width="0.75" stroke-linejoin="round"></path>
                    <path d="M49.4982,26.2253 L48.0152,26.2253 C45.9662,26.2253 44.3062,24.5643 44.3062,22.5163 L44.3062,18.8243 C44.3062,16.7753 45.9662,15.1153 48.0152,15.1153 L49.4982,15.1153 C51.5472,15.1153 53.2072,16.7753 53.2072,18.8243 L53.2072,22.5163 C53.2072,24.5643 51.5472,26.2253 49.4982,26.2253" id="Fill-19" fill="#FFDF2A"></path>
                    <path d="M49.4982,26.2253 L48.0152,26.2253 C45.9662,26.2253 44.3062,24.5643 44.3062,22.5163 L44.3062,18.8243 C44.3062,16.7753 45.9662,15.1153 48.0152,15.1153 L49.4982,15.1153 C51.5472,15.1153 53.2072,16.7753 53.2072,18.8243 L53.2072,22.5163 C53.2072,24.5643 51.5472,26.2253 49.4982,26.2253 Z" id="Stroke-21" stroke="#7A7A7A" stroke-width="0.75" stroke-linejoin="round"></path>
                    <line x1="22.3663" y1="2.6134" x2="22.3663" y2="45.2114" id="Stroke-23" stroke="#7A7A7A" stroke-width="0.75" stroke-linejoin="round"></line>
                    <line x1="92.7072" y1="2.6134" x2="92.7072" y2="45.2114" id="Stroke-25" stroke="#7A7A7A" stroke-width="0.75" stroke-linejoin="round"></line>
                    <polyline id="Stroke-27" stroke="#7A7A7A" stroke-width="2" stroke-linejoin="round" points="111.2745 40.5353 123.2255 40.5353 123.2255 35.8813"></polyline>
                    <line x1="92.7072" y1="26.2253" x2="111.2742" y2="26.2253" id="Stroke-29" stroke="#7A7A7A" stroke-width="0.75" stroke-linejoin="round"></line>
                    <line x1="3.3751" y1="26.2253" x2="21.9421" y2="26.2253" id="Stroke-31" stroke="#7A7A7A" stroke-width="0.75" stroke-linejoin="round"></line>
                    <polygon id="Fill-33" fill="#E6E6E6" points="0.376 47.4096 114.275 47.4096 114.275 45.2106 0.376 45.2106"></polygon>
                    <polygon id="Stroke-35" stroke="#7A7A7A" stroke-width="0.75" stroke-linejoin="round" points="0.376 47.4096 114.275 47.4096 114.275 45.2106 0.376 45.2106"></polygon>
                    <path d="M49.1368,46.7824 C49.1368,49.7024 46.7698,52.0694 43.8498,52.0694 C40.9298,52.0694 38.5628,49.7024 38.5628,46.7824 C38.5628,43.8624 40.9298,41.4954 43.8498,41.4954 C46.7698,41.4954 49.1368,43.8624 49.1368,46.7824" id="Fill-36" fill="#FFFFFF"></path>
                    <path d="M43.8497,43.4953 C42.0377,43.4953 40.5627,44.9703 40.5627,46.7823 C40.5627,48.5953 42.0377,50.0693 43.8497,50.0693 C45.6617,50.0693 47.1367,48.5953 47.1367,46.7823 C47.1367,44.9703 45.6617,43.4953 43.8497,43.4953 M43.8497,54.0693 C39.8307,54.0693 36.5627,50.8003 36.5627,46.7823 C36.5627,42.7643 39.8307,39.4953 43.8497,39.4953 C47.8687,39.4953 51.1367,42.7643 51.1367,46.7823 C51.1367,50.8003 47.8687,54.0693 43.8497,54.0693" id="Fill-37" fill="#7A7A7A"></path>
                    <polygon id="Fill-38" fill="#E6E6E6" points="68.05 2.6136 76.819 2.6136 76.819 0.3756 68.05 0.3756"></polygon>
                    <polygon id="Stroke-39" stroke="#7A7A7A" stroke-width="0.75" stroke-linejoin="round" points="68.05 2.6136 76.819 2.6136 76.819 0.3756 68.05 0.3756"></polygon>
                    <polygon id="Fill-40" fill="#7A7A7A" points="111.8663 47.4098 108.2383 54.0248 115.4933 54.0248"></polygon>
                    <polygon id="Stroke-41" stroke="#7A7A7A" stroke-width="0.75" stroke-linejoin="round" points="111.8663 47.4098 108.2383 54.0248 115.4933 54.0248"></polygon>
                </g>
            </g>
        </g>
    </g>
</svg>