<?xml version="1.0" encoding="UTF-8"?>
<svg width="143px" height="96px" viewBox="0 0 143 96" version="1.1" xmlns="http://www.w3.org/2000/svg" xmlns:xlink="http://www.w3.org/1999/xlink">
    <!-- Generator: sketchtool 59.1 (101010) - https://sketch.com -->
    <title>1EFC7BC2-C69E-45B8-8E33-A5AE6A868568</title>
    <desc>Created with sketchtool.</desc>
    <g id="Asset-Artboard-Page" stroke="none" stroke-width="1" fill="none" fill-rule="evenodd">
        <g id="icons-/-building-/-townhouse-selected">
            <g id="townhouse-selected">
                <g id="Group-82">
                    <polygon id="Fill-1" fill="#FFFFFF" points="102.7368 14.4111 102.7368 8.4561 97.0528 8.4561 97.0528 20.0951 94.0918 23.0561 71.4098 0.3751 57.3738 14.4121 57.3738 8.4561 51.6908 8.4561 51.6908 20.0951 48.7288 23.0561 26.0458 0.3751 12.0098 14.4111 12.0098 8.4561 6.3258 8.4561 6.3258 20.0951 0.3748 26.0461 0.3748 31.0191 3.3638 28.0311 3.3638 94.7331 48.7288 94.7331 94.0918 94.7331 139.4558 94.7331 139.4558 28.0311 142.4448 31.0191 142.4448 26.0461 116.7728 0.3751"></polygon>
                    <polygon id="Fill-2" fill="#E6E6E6" points="139.4558 28.1026 116.7728 5.4206 94.0918 28.1026 94.0918 33.0756 116.7728 10.3946 139.4558 33.0756"></polygon>
                    <polygon id="Stroke-3" stroke="#E6E6E6" stroke-width="0.75" stroke-linejoin="round" points="139.4558 28.1026 116.7728 5.4206 94.0918 28.1026 94.0918 33.0756 116.7728 10.3946 139.4558 33.0756"></polygon>
                    <polygon id="Fill-4" fill="#E6E6E6" points="94.0916 28.1026 71.4096 5.4206 48.7286 28.1026 48.7286 33.0756 71.4096 10.3946 94.0916 33.0756"></polygon>
                    <polygon id="Stroke-5" stroke="#E6E6E6" stroke-width="0.75" stroke-linejoin="round" points="94.0916 28.1026 71.4096 5.4206 48.7286 28.1026 48.7286 33.0756 71.4096 10.3946 94.0916 33.0756"></polygon>
                    <polygon id="Fill-6" fill="#E6E6E6" points="48.7283 28.1026 26.0453 5.4206 3.3643 28.1026 3.3643 33.0756 26.0453 10.3946 48.7283 33.0756"></polygon>
                    <polygon id="Stroke-7" stroke="#E6E6E6" stroke-width="0.75" stroke-linejoin="round" points="48.7283 28.1026 26.0453 5.4206 3.3643 28.1026 3.3643 33.0756 26.0453 10.3946 48.7283 33.0756"></polygon>
                    <polygon id="Fill-8" fill="#E6E6E6" points="9.094 94.7337 25.887 94.7337 25.887 92.1447 9.094 92.1447"></polygon>
                    <polygon id="Stroke-9" stroke="#E6E6E6" stroke-width="0.75" stroke-linejoin="round" points="9.093 94.7337 25.886 94.7337 25.886 92.1447 9.093 92.1447"></polygon>
                    <polygon id="Fill-11" fill="#E6E6E6" points="14.749 41.8657 37.258 41.8657 37.258 39.1357 14.749 39.1357"></polygon>
                    <polygon id="Stroke-12" stroke="#E6E6E6" stroke-width="0.75" stroke-linejoin="round" points="14.749 41.8657 37.258 41.8657 37.258 39.1357 14.749 39.1357"></polygon>
                    <polygon id="Fill-13" fill="#E6E6E6" points="9.168 66.9347 42.84 66.9347 42.84 64.1697 9.168 64.1697"></polygon>
                    <polygon id="Stroke-14" stroke="#E6E6E6" stroke-width="0.75" stroke-linejoin="round" points="9.168 66.9347 42.84 66.9347 42.84 64.1697 9.168 64.1697"></polygon>
                    <polygon id="Fill-15" fill="#E6E6E6" points="99.98 94.7337 116.773 94.7337 116.773 92.1447 99.98 92.1447"></polygon>
                    <polygon id="Stroke-16" stroke="#E6E6E6" stroke-width="0.75" stroke-linejoin="round" points="99.98 94.7337 116.773 94.7337 116.773 92.1447 99.98 92.1447"></polygon>
                    <polygon id="Fill-18" fill="#E6E6E6" points="54.499 94.7337 71.292 94.7337 71.292 92.1447 54.499 92.1447"></polygon>
                    <polygon id="Stroke-19" stroke="#E6E6E6" stroke-width="0.75" stroke-linejoin="round" points="54.5 94.7337 71.293 94.7337 71.293 92.1447 54.5 92.1447"></polygon>
                    <polygon id="Stroke-21" stroke="#7A7A7A" stroke-width="0.75" stroke-linejoin="round" points="12.0095 14.4117 6.3255 20.1317 6.3255 8.4557 12.0095 8.4557"></polygon>
                    <polygon id="Fill-22" fill="#FFFFFF" points="34.5261 36.4063 26.0461 36.4063 17.5661 36.4063 17.5661 30.7673 17.5661 25.1293 26.0461 16.9403 34.5261 25.1293 34.5261 30.7673"></polygon>
                    <polygon id="Stroke-23" stroke="#7A7A7A" stroke-width="0.75" stroke-linejoin="round" points="34.5261 36.4063 26.0461 36.4063 17.5661 36.4063 17.5661 30.7673 17.5661 25.1293 26.0461 16.9403 34.5261 25.1293 34.5261 30.7673"></polygon>
                    <polygon id="Stroke-24" stroke="#7A7A7A" stroke-width="0.75" stroke-linejoin="round" points="48.7283 28.0304 26.0453 5.4204 3.3643 28.0304 3.3643 94.7334 48.7283 94.7334"></polygon>
                    <polygon id="Fill-26" fill="#FFFFFF" points="12.015 61.4057 40.077 61.4057 40.077 44.7847 12.015 44.7847"></polygon>
                    <polygon id="Stroke-27" stroke="#7A7A7A" stroke-width="0.75" stroke-linejoin="round" points="12.015 61.4057 40.077 61.4057 40.077 44.7847 12.015 44.7847"></polygon>
                    <polygon id="Fill-28" fill="#FFDF2A" points="12.052 89.3237 23.248 89.3237 23.248 72.6167 12.052 72.6167"></polygon>
                    <polygon id="Stroke-29" stroke="#7A7A7A" stroke-width="0.75" stroke-linejoin="round" points="12.052 89.3237 23.248 89.3237 23.248 72.6167 12.052 72.6167"></polygon>
                    <polygon id="Fill-30" fill="#E6E6E6" points="31.701 94.7337 42.898 94.7337 42.898 72.6157 31.701 72.6157"></polygon>
                    <g id="Group-34" transform="translate(0.000000, 0.108700)" stroke="#7A7A7A" stroke-linejoin="round" stroke-width="0.75">
                        <polygon id="Stroke-31" points="31.701 94.625 42.897 94.625 42.897 72.508 31.701 72.508"></polygon>
                        <polygon id="Stroke-33" points="48.7283 22.948 26.0453 0.266 0.3743 25.937 0.3743 30.91 26.0453 5.24 48.7283 27.922"></polygon>
                    </g>
                    <polygon id="Stroke-35" stroke="#7A7A7A" stroke-width="0.75" stroke-linejoin="round" points="102.7371 14.4117 97.0531 20.1317 97.0531 8.4557 102.7371 8.4557"></polygon>
                    <polygon id="Fill-36" fill="#FFFFFF" points="125.2537 36.4063 116.7737 36.4063 108.2937 36.4063 108.2937 30.7673 108.2937 25.1293 116.7737 16.9403 125.2537 25.1293 125.2537 30.7673"></polygon>
                    <polygon id="Stroke-37" stroke="#7A7A7A" stroke-width="0.75" stroke-linejoin="round" points="125.2537 36.4063 116.7737 36.4063 108.2937 36.4063 108.2937 30.7673 108.2937 25.1293 116.7737 16.9403 125.2537 25.1293 125.2537 30.7673"></polygon>
                    <polygon id="Stroke-38" stroke="#7A7A7A" stroke-width="0.75" stroke-linejoin="round" points="139.4558 28.0304 116.7728 5.4204 94.0918 28.0304 94.0918 94.7334 139.4558 94.7334"></polygon>
                    <polygon id="Fill-40" fill="#FFDF2A" points="102.742 61.4057 130.804 61.4057 130.804 44.7847 102.742 44.7847"></polygon>
                    <polygon id="Stroke-41" stroke="#7A7A7A" stroke-width="0.75" stroke-linejoin="round" points="102.742 61.4057 130.804 61.4057 130.804 44.7847 102.742 44.7847"></polygon>
                    <polygon id="Fill-42" fill="#FFFFFF" points="102.779 89.3237 113.975 89.3237 113.975 72.6167 102.779 72.6167"></polygon>
                    <polygon id="Stroke-43" stroke="#7A7A7A" stroke-width="0.75" stroke-linejoin="round" points="102.779 89.3237 113.975 89.3237 113.975 72.6167 102.779 72.6167"></polygon>
                    <polygon id="Fill-44" fill="#E6E6E6" points="122.429 94.7337 133.625 94.7337 133.625 72.6157 122.429 72.6157"></polygon>
                    <polygon id="Stroke-45" stroke="#7A7A7A" stroke-width="0.75" stroke-linejoin="round" points="122.429 94.7337 133.625 94.7337 133.625 72.6167 122.429 72.6167"></polygon>
                    <polygon id="Stroke-47" stroke="#7A7A7A" stroke-width="0.75" stroke-linejoin="round" points="99.98 92.1437 116.773 92.1437 116.773 89.3227 99.98 89.3227"></polygon>
                    <polygon id="Stroke-48" stroke="#7A7A7A" stroke-width="0.75" stroke-linejoin="round" points="57.3728 14.4117 51.6898 20.1317 51.6898 8.4557 57.3728 8.4557"></polygon>
                    <polygon id="Fill-49" fill="#FFDF2A" points="79.8894 36.4063 71.4104 36.4063 62.9294 36.4063 62.9294 30.7673 62.9294 25.1293 71.4104 16.9403 79.8894 25.1293 79.8894 30.7673"></polygon>
                    <polygon id="Stroke-50" stroke="#7A7A7A" stroke-width="0.75" stroke-linejoin="round" points="79.8894 36.4063 71.4104 36.4063 62.9294 36.4063 62.9294 30.7673 62.9294 25.1293 71.4104 16.9403 79.8894 25.1293 79.8894 30.7673"></polygon>
                    <polygon id="Stroke-51" stroke="#7A7A7A" stroke-width="0.75" stroke-linejoin="round" points="94.0916 28.0304 71.4096 5.4204 48.7286 28.0304 48.7286 94.7334 94.0916 94.7334"></polygon>
                    <polygon id="Fill-53" fill="#FFFFFF" points="57.415 89.3237 68.611 89.3237 68.611 72.6167 57.415 72.6167"></polygon>
                    <polygon id="Stroke-54" stroke="#7A7A7A" stroke-width="0.75" stroke-linejoin="round" points="57.415 89.3237 68.611 89.3237 68.611 72.6167 57.415 72.6167"></polygon>
                    <polygon id="Fill-55" fill="#E6E6E6" points="77.064 94.7337 88.261 94.7337 88.261 72.6157 77.064 72.6157"></polygon>
                    <polygon id="Stroke-56" stroke="#7A7A7A" stroke-width="0.75" stroke-linejoin="round" points="77.064 94.7337 88.261 94.7337 88.261 72.6167 77.064 72.6167"></polygon>
                    <polygon id="Stroke-58" stroke="#7A7A7A" stroke-width="0.75" stroke-linejoin="round" points="54.617 92.1437 71.41 92.1437 71.41 89.3227 54.617 89.3227"></polygon>
                    <polygon id="Stroke-59" stroke="#7A7A7A" stroke-width="0.75" stroke-linejoin="round" points="71.4099 0.3751 48.7279 23.0571 48.7279 28.0301 71.4099 5.3481 94.0919 28.0301 94.0919 23.0571"></polygon>
                    <polygon id="Fill-61" fill="#FFFFFF" points="57.379 61.4057 68.235 61.4057 68.235 44.7847 57.379 44.7847"></polygon>
                    <polygon id="Stroke-62" stroke="#7A7A7A" stroke-width="0.75" stroke-linejoin="round" points="57.379 61.4057 68.235 61.4057 68.235 44.7847 57.379 44.7847"></polygon>
                    <polygon id="Fill-63" fill="#FFFFFF" points="74.585 61.4057 85.441 61.4057 85.441 44.7847 74.585 44.7847"></polygon>
                    <polygon id="Stroke-64" stroke="#7A7A7A" stroke-width="0.75" stroke-linejoin="round" points="74.585 61.4057 85.441 61.4057 85.441 44.7847 74.585 44.7847"></polygon>
                    <polygon id="Stroke-65" stroke="#7A7A7A" stroke-width="0.75" stroke-linejoin="round" points="14.792 39.1357 37.301 39.1357 37.301 36.4067 14.792 36.4067"></polygon>
                    <polygon id="Stroke-66" stroke="#7A7A7A" stroke-width="0.75" stroke-linejoin="round" points="9.253 64.1707 42.925 64.1707 42.925 61.4057 9.253 61.4057"></polygon>
                    <polygon id="Stroke-67" stroke="#7A7A7A" stroke-width="0.75" stroke-linejoin="round" points="9.253 92.1437 26.046 92.1437 26.046 89.3227 9.253 89.3227"></polygon>
                    <polygon id="Fill-68" fill="#E6E6E6" points="105.519 41.8657 128.028 41.8657 128.028 39.1357 105.519 39.1357"></polygon>
                    <polygon id="Stroke-69" stroke="#E6E6E6" stroke-width="0.75" stroke-linejoin="round" points="105.519 41.8657 128.028 41.8657 128.028 39.1357 105.519 39.1357"></polygon>
                    <polygon id="Fill-70" fill="#E6E6E6" points="60.155 41.8657 82.665 41.8657 82.665 39.1357 60.155 39.1357"></polygon>
                    <polygon id="Stroke-71" stroke="#E6E6E6" stroke-width="0.75" stroke-linejoin="round" points="60.155 41.8657 82.665 41.8657 82.665 39.1357 60.155 39.1357"></polygon>
                    <polygon id="Fill-72" fill="#E6E6E6" points="99.98 66.9347 133.652 66.9347 133.652 64.1697 99.98 64.1697"></polygon>
                    <polygon id="Stroke-73" stroke="#E6E6E6" stroke-width="0.75" stroke-linejoin="round" points="99.98 66.9347 133.652 66.9347 133.652 64.1697 99.98 64.1697"></polygon>
                    <polygon id="Fill-74" fill="#E6E6E6" points="54.574 66.9347 88.246 66.9347 88.246 64.1697 54.574 64.1697"></polygon>
                    <polygon id="Stroke-75" stroke="#E6E6E6" stroke-width="0.75" stroke-linejoin="round" points="54.574 66.9347 88.246 66.9347 88.246 64.1697 54.574 64.1697"></polygon>
                    <polygon id="Stroke-76" stroke="#7A7A7A" stroke-width="0.75" stroke-linejoin="round" points="60.155 39.1357 82.665 39.1357 82.665 36.4067 60.155 36.4067"></polygon>
                    <polygon id="Stroke-77" stroke="#7A7A7A" stroke-width="0.75" stroke-linejoin="round" points="54.617 64.1707 88.288 64.1707 88.288 61.4057 54.617 61.4057"></polygon>
                    <polygon id="Stroke-78" stroke="#7A7A7A" stroke-width="0.75" stroke-linejoin="round" points="105.519 39.1357 128.028 39.1357 128.028 36.4067 105.519 36.4067"></polygon>
                    <polygon id="Stroke-79" stroke="#7A7A7A" stroke-width="0.75" stroke-linejoin="round" points="99.98 64.1707 133.652 64.1707 133.652 61.4057 99.98 61.4057"></polygon>
                    <polygon id="Stroke-80" stroke="#7A7A7A" stroke-width="0.75" stroke-linejoin="round" points="94.0916 23.0567 116.7736 0.3747 142.4446 26.0457 142.4446 31.0187 116.7736 5.3487 94.0916 28.0307"></polygon>
                </g>
            </g>
        </g>
    </g>
</svg>