<?xml version="1.0" encoding="UTF-8"?>
<svg width="143px" height="96px" viewBox="0 0 143 96" version="1.1" xmlns="http://www.w3.org/2000/svg" xmlns:xlink="http://www.w3.org/1999/xlink">
    <!-- Generator: sketchtool 59.1 (101010) - https://sketch.com -->
    <title>81AC4205-E045-4DBE-8EB5-4EEFCD6A9745</title>
    <desc>Created with sketchtool.</desc>
    <g id="Asset-Artboard-Page" stroke="none" stroke-width="1" fill="none" fill-rule="evenodd">
        <g id="icons-/-building-/-townhouse-default">
            <g id="Group-81">
                <polygon id="Fill-1" fill="#E6E6E6" points="139.4555 28.1023 116.7735 5.4203 94.0915 28.1023 94.0915 33.0763 116.7735 10.3943 139.4555 33.0763"></polygon>
                <polygon id="Stroke-2" stroke="#E6E6E6" stroke-width="0.75" stroke-linejoin="round" points="139.4555 28.1023 116.7735 5.4203 94.0915 28.1023 94.0915 33.0763 116.7735 10.3943 139.4555 33.0763"></polygon>
                <polygon id="Fill-3" fill="#E6E6E6" points="94.0913 28.1023 71.4093 5.4203 48.7283 28.1023 48.7283 33.0763 71.4093 10.3943 94.0913 33.0763"></polygon>
                <polygon id="Stroke-4" stroke="#E6E6E6" stroke-width="0.75" stroke-linejoin="round" points="94.0913 28.1023 71.4093 5.4203 48.7283 28.1023 48.7283 33.0763 71.4093 10.3943 94.0913 33.0763"></polygon>
                <polygon id="Fill-5" fill="#E6E6E6" points="48.728 28.1023 26.046 5.4203 3.364 28.1023 3.364 33.0763 26.046 10.3943 48.728 33.0763"></polygon>
                <polygon id="Stroke-6" stroke="#E6E6E6" stroke-width="0.75" stroke-linejoin="round" points="48.728 28.1023 26.046 5.4203 3.364 28.1023 3.364 33.0763 26.046 10.3943 48.728 33.0763"></polygon>
                <polygon id="Fill-7" fill="#E6E6E6" points="9.094 94.7337 25.886 94.7337 25.886 92.1447 9.094 92.1447"></polygon>
                <polygon id="Stroke-8" stroke="#E6E6E6" stroke-width="0.75" stroke-linejoin="round" points="9.093 94.7337 25.886 94.7337 25.886 92.1447 9.093 92.1447"></polygon>
                <polygon id="Fill-10" fill="#E6E6E6" points="14.749 41.8657 37.258 41.8657 37.258 39.1357 14.749 39.1357"></polygon>
                <polygon id="Stroke-11" stroke="#E6E6E6" stroke-width="0.75" stroke-linejoin="round" points="14.749 41.8657 37.258 41.8657 37.258 39.1357 14.749 39.1357"></polygon>
                <polygon id="Fill-12" fill="#E6E6E6" points="9.167 66.9357 42.839 66.9357 42.839 64.1707 9.167 64.1707"></polygon>
                <polygon id="Stroke-13" stroke="#E6E6E6" stroke-width="0.75" stroke-linejoin="round" points="9.167 66.9357 42.839 66.9357 42.839 64.1707 9.167 64.1707"></polygon>
                <polygon id="Fill-14" fill="#E6E6E6" points="99.98 94.7337 116.774 94.7337 116.774 92.1447 99.98 92.1447"></polygon>
                <polygon id="Stroke-15" stroke="#E6E6E6" stroke-width="0.75" stroke-linejoin="round" points="99.98 94.7337 116.774 94.7337 116.774 92.1447 99.98 92.1447"></polygon>
                <polygon id="Fill-17" fill="#E6E6E6" points="54.499 94.7337 71.292 94.7337 71.292 92.1447 54.499 92.1447"></polygon>
                <polygon id="Stroke-18" stroke="#E6E6E6" stroke-width="0.75" stroke-linejoin="round" points="54.5 94.7337 71.293 94.7337 71.293 92.1447 54.5 92.1447"></polygon>
                <polygon id="Stroke-20" stroke="#7A7A7A" stroke-width="0.75" stroke-linejoin="round" points="12.0092 14.4118 6.3262 20.1318 6.3262 8.4558 12.0092 8.4558"></polygon>
                <polygon id="Fill-21" fill="#FFFFFF" points="34.5259 36.4065 26.0459 36.4065 17.5659 36.4065 17.5659 30.7675 17.5659 25.1295 26.0459 16.9405 34.5259 25.1295 34.5259 30.7675"></polygon>
                <polygon id="Stroke-22" stroke="#7A7A7A" stroke-width="0.75" stroke-linejoin="round" points="34.5259 36.4065 26.0459 36.4065 17.5659 36.4065 17.5659 30.7675 17.5659 25.1295 26.0459 16.9405 34.5259 25.1295 34.5259 30.7675"></polygon>
                <polygon id="Stroke-23" stroke="#7A7A7A" stroke-width="0.75" stroke-linejoin="round" points="48.728 28.0305 26.046 5.4205 3.364 28.0305 3.364 94.7335 48.728 94.7335"></polygon>
                <polygon id="Fill-25" fill="#FFFFFF" points="12.015 61.4057 40.077 61.4057 40.077 44.7847 12.015 44.7847"></polygon>
                <polygon id="Stroke-26" stroke="#7A7A7A" stroke-width="0.75" stroke-linejoin="round" points="12.015 61.4057 40.077 61.4057 40.077 44.7847 12.015 44.7847"></polygon>
                <polygon id="Fill-27" fill="#FFFFFF" points="12.052 89.3237 23.248 89.3237 23.248 72.6167 12.052 72.6167"></polygon>
                <polygon id="Stroke-28" stroke="#7A7A7A" stroke-width="0.75" stroke-linejoin="round" points="12.052 89.3237 23.248 89.3237 23.248 72.6167 12.052 72.6167"></polygon>
                <polygon id="Fill-29" fill="#E6E6E6" points="31.701 94.7337 42.898 94.7337 42.898 72.6167 31.701 72.6167"></polygon>
                <g id="Group-33" transform="translate(0.000000, 0.108700)" stroke="#7A7A7A" stroke-linejoin="round" stroke-width="0.75">
                    <polygon id="Stroke-30" points="31.7 94.625 42.897 94.625 42.897 72.508 31.7 72.508"></polygon>
                    <polygon id="Stroke-32" points="48.728 22.9482 26.046 0.2662 0.375 25.9372 0.375 30.9102 26.046 5.2402 48.728 27.9212"></polygon>
                </g>
                <polygon id="Stroke-34" stroke="#7A7A7A" stroke-width="0.75" stroke-linejoin="round" points="102.7368 14.4118 97.0538 20.1318 97.0538 8.4558 102.7368 8.4558"></polygon>
                <polygon id="Fill-35" fill="#FFFFFF" points="125.2534 36.4065 116.7744 36.4065 108.2934 36.4065 108.2934 30.7675 108.2934 25.1295 116.7744 16.9405 125.2534 25.1295 125.2534 30.7675"></polygon>
                <polygon id="Stroke-36" stroke="#7A7A7A" stroke-width="0.75" stroke-linejoin="round" points="125.2534 36.4065 116.7744 36.4065 108.2934 36.4065 108.2934 30.7675 108.2934 25.1295 116.7744 16.9405 125.2534 25.1295 125.2534 30.7675"></polygon>
                <polygon id="Stroke-37" stroke="#7A7A7A" stroke-width="0.75" stroke-linejoin="round" points="139.4555 28.0305 116.7735 5.4205 94.0915 28.0305 94.0915 94.7335 139.4555 94.7335"></polygon>
                <polygon id="Fill-39" fill="#FFFFFF" points="102.742 61.4057 130.804 61.4057 130.804 44.7847 102.742 44.7847"></polygon>
                <polygon id="Stroke-40" stroke="#7A7A7A" stroke-width="0.75" stroke-linejoin="round" points="102.742 61.4057 130.804 61.4057 130.804 44.7847 102.742 44.7847"></polygon>
                <polygon id="Fill-41" fill="#FFFFFF" points="102.779 89.3237 113.975 89.3237 113.975 72.6167 102.779 72.6167"></polygon>
                <polygon id="Stroke-42" stroke="#7A7A7A" stroke-width="0.75" stroke-linejoin="round" points="102.779 89.3237 113.975 89.3237 113.975 72.6167 102.779 72.6167"></polygon>
                <polygon id="Fill-43" fill="#E6E6E6" points="122.428 94.7337 133.625 94.7337 133.625 72.6167 122.428 72.6167"></polygon>
                <polygon id="Stroke-44" stroke="#7A7A7A" stroke-width="0.75" stroke-linejoin="round" points="122.428 94.7337 133.624 94.7337 133.624 72.6167 122.428 72.6167"></polygon>
                <polygon id="Stroke-46" stroke="#7A7A7A" stroke-width="0.75" stroke-linejoin="round" points="99.98 92.1447 116.774 92.1447 116.774 89.3237 99.98 89.3237"></polygon>
                <polygon id="Stroke-47" stroke="#7A7A7A" stroke-width="0.75" stroke-linejoin="round" points="57.373 14.4118 51.69 20.1318 51.69 8.4558 57.373 8.4558"></polygon>
                <polygon id="Fill-48" fill="#FFFFFF" points="79.8901 36.4065 71.4101 36.4065 62.9301 36.4065 62.9301 30.7675 62.9301 25.1295 71.4101 16.9405 79.8901 25.1295 79.8901 30.7675"></polygon>
                <polygon id="Stroke-49" stroke="#7A7A7A" stroke-width="0.75" stroke-linejoin="round" points="79.8901 36.4065 71.4101 36.4065 62.9301 36.4065 62.9301 30.7675 62.9301 25.1295 71.4101 16.9405 79.8901 25.1295 79.8901 30.7675"></polygon>
                <polygon id="Stroke-50" stroke="#7A7A7A" stroke-width="0.75" stroke-linejoin="round" points="94.0913 28.0305 71.4093 5.4205 48.7283 28.0305 48.7283 94.7335 94.0913 94.7335"></polygon>
                <polygon id="Fill-52" fill="#FFFFFF" points="57.415 89.3237 68.611 89.3237 68.611 72.6167 57.415 72.6167"></polygon>
                <polygon id="Stroke-53" stroke="#7A7A7A" stroke-width="0.75" stroke-linejoin="round" points="57.415 89.3237 68.611 89.3237 68.611 72.6167 57.415 72.6167"></polygon>
                <polygon id="Fill-54" fill="#E6E6E6" points="77.065 94.7337 88.261 94.7337 88.261 72.6167 77.065 72.6167"></polygon>
                <polygon id="Stroke-55" stroke="#7A7A7A" stroke-width="0.75" stroke-linejoin="round" points="77.065 94.7337 88.261 94.7337 88.261 72.6167 77.065 72.6167"></polygon>
                <polygon id="Stroke-57" stroke="#7A7A7A" stroke-width="0.75" stroke-linejoin="round" points="54.617 92.1447 71.41 92.1447 71.41 89.3237 54.617 89.3237"></polygon>
                <polygon id="Stroke-58" stroke="#7A7A7A" stroke-width="0.75" stroke-linejoin="round" points="71.4097 0.3752 48.7277 23.0572 48.7277 28.0302 71.4097 5.3482 94.0917 28.0302 94.0917 23.0572"></polygon>
                <polygon id="Fill-60" fill="#FFFFFF" points="57.379 61.4057 68.235 61.4057 68.235 44.7847 57.379 44.7847"></polygon>
                <polygon id="Stroke-61" stroke="#7A7A7A" stroke-width="0.75" stroke-linejoin="round" points="57.379 61.4057 68.235 61.4057 68.235 44.7847 57.379 44.7847"></polygon>
                <polygon id="Fill-62" fill="#FFFFFF" points="74.585 61.4057 85.441 61.4057 85.441 44.7847 74.585 44.7847"></polygon>
                <polygon id="Stroke-63" stroke="#7A7A7A" stroke-width="0.75" stroke-linejoin="round" points="74.585 61.4057 85.441 61.4057 85.441 44.7847 74.585 44.7847"></polygon>
                <polygon id="Stroke-64" stroke="#7A7A7A" stroke-width="0.75" stroke-linejoin="round" points="14.792 39.1357 37.301 39.1357 37.301 36.4067 14.792 36.4067"></polygon>
                <polygon id="Stroke-65" stroke="#7A7A7A" stroke-width="0.75" stroke-linejoin="round" points="9.253 64.1707 42.924 64.1707 42.924 61.4057 9.253 61.4057"></polygon>
                <polygon id="Stroke-66" stroke="#7A7A7A" stroke-width="0.75" stroke-linejoin="round" points="9.253 92.1447 26.046 92.1447 26.046 89.3237 9.253 89.3237"></polygon>
                <polygon id="Fill-67" fill="#E6E6E6" points="105.519 41.8657 128.028 41.8657 128.028 39.1357 105.519 39.1357"></polygon>
                <polygon id="Stroke-68" stroke="#E6E6E6" stroke-width="0.75" stroke-linejoin="round" points="105.519 41.8657 128.028 41.8657 128.028 39.1357 105.519 39.1357"></polygon>
                <polygon id="Fill-69" fill="#E6E6E6" points="60.156 41.8657 82.665 41.8657 82.665 39.1357 60.156 39.1357"></polygon>
                <polygon id="Stroke-70" stroke="#E6E6E6" stroke-width="0.75" stroke-linejoin="round" points="60.156 41.8657 82.665 41.8657 82.665 39.1357 60.156 39.1357"></polygon>
                <polygon id="Fill-71" fill="#E6E6E6" points="99.98 66.9357 133.652 66.9357 133.652 64.1707 99.98 64.1707"></polygon>
                <polygon id="Stroke-72" stroke="#E6E6E6" stroke-width="0.75" stroke-linejoin="round" points="99.98 66.9357 133.652 66.9357 133.652 64.1707 99.98 64.1707"></polygon>
                <polygon id="Fill-73" fill="#E6E6E6" points="54.575 66.9357 88.246 66.9357 88.246 64.1707 54.575 64.1707"></polygon>
                <polygon id="Stroke-74" stroke="#E6E6E6" stroke-width="0.75" stroke-linejoin="round" points="54.575 66.9357 88.246 66.9357 88.246 64.1707 54.575 64.1707"></polygon>
                <polygon id="Stroke-75" stroke="#7A7A7A" stroke-width="0.75" stroke-linejoin="round" points="60.156 39.1357 82.665 39.1357 82.665 36.4067 60.156 36.4067"></polygon>
                <polygon id="Stroke-76" stroke="#7A7A7A" stroke-width="0.75" stroke-linejoin="round" points="54.617 64.1707 88.289 64.1707 88.289 61.4057 54.617 61.4057"></polygon>
                <polygon id="Stroke-77" stroke="#7A7A7A" stroke-width="0.75" stroke-linejoin="round" points="105.519 39.1357 128.028 39.1357 128.028 36.4067 105.519 36.4067"></polygon>
                <polygon id="Stroke-78" stroke="#7A7A7A" stroke-width="0.75" stroke-linejoin="round" points="99.98 64.1707 133.652 64.1707 133.652 61.4057 99.98 61.4057"></polygon>
                <polygon id="Stroke-79" stroke="#7A7A7A" stroke-width="0.75" stroke-linejoin="round" points="94.0913 23.0569 116.7743 0.3749 142.4453 26.0459 142.4453 31.0189 116.7743 5.3489 94.0913 28.0299"></polygon>
            </g>
        </g>
    </g>
</svg>