<?xml version="1.0" encoding="UTF-8"?>
<svg width="967px" height="421px" viewBox="0 0 967 421" version="1.1" xmlns="http://www.w3.org/2000/svg" xmlns:xlink="http://www.w3.org/1999/xlink">
    <!-- Generator: Sketch 62 (91390) - https://sketch.com -->
    <title>bg-graphics</title>
    <desc>Created with Sketch.</desc>
    <g id="Comps" stroke="none" stroke-width="1" fill="none" fill-rule="evenodd">
        <g id="KW-quote-detail-" transform="translate(-293.000000, -1026.000000)">
            <g id="bg-graphics" transform="translate(294.000000, 1026.000000)">
                <path d="M403.04,124.597 C403.691,113.148 412.604,103.586 423.986,102.186 C427.894,101.705 431.639,102.177 435.035,103.383 C435.019,102.923 435,102.464 435,102 C435,79.909 452.909,62 475,62 C488.573,62 500.559,68.767 507.79,79.104 C510.066,78.388 512.487,78 515,78 C528.255,78 539,88.745 539,102 C539,102.466 538.983,102.927 538.957,103.386 C541.473,102.492 544.178,102 547,102 C560.255,102 571,112.745 571,126 L603,126 C607.422,126 611,129.578 611,134 L355,134 C355,129.578 358.578,126 363,126 L403,126" id="Cloud-2" stroke="#C3C3C3" stroke-linecap="round" stroke-linejoin="round"></path>
                <path d="M241.336094,36.5149167 C241.720082,29.8363333 246.977359,24.2585 253.690961,23.4418333 C255.99607,23.16125 258.205035,23.4365833 260.208145,24.1400833 C260.198707,23.87175 260.1875,23.604 260.1875,23.3333333 C260.1875,10.4469167 270.751012,0 283.78125,0 C291.787199,0 298.857066,3.94741667 303.122227,9.97733333 C304.464711,9.55966667 305.892723,9.33333333 307.375,9.33333333 C315.193379,9.33333333 321.53125,15.60125 321.53125,23.3333333 C321.53125,23.6051667 321.521223,23.8740833 321.505887,24.1418333 C322.989934,23.6203333 324.585461,23.3333333 326.25,23.3333333 C334.068379,23.3333333 340.40625,29.60125 340.40625,37.3333333 L359.28125,37.3333333 C361.889539,37.3333333 364,39.4205 364,42 L213,42 C213,39.4205 215.110461,37.3333333 217.71875,37.3333333 L241.3125,37.3333333" id="Cloud-2-Copy-5" fill="#EDEDED"></path>
                <g id="Left-House" transform="translate(0.000000, 143.000000)">
                    <g id="Fills" transform="translate(1.100000, 46.200000)" fill="#E6E6E6">
                        <path d="M457.6,202.4 C457.6,207.2598 453.6598,211.2 448.8,211.2 L422.4,211.2 C417.5402,211.2 413.6,207.2598 413.6,202.4 L457.6,202.4 Z M611.6,202.4 C611.6,207.2598 607.6598,211.2 602.8,211.2 L580.8,211.2 C575.9402,211.2 572,207.2598 572,202.4 L611.6,202.4 Z M445.74552,167.2 C450.04762,167.2 453.71832,170.3097 454.42562,174.5535 L455.89192,183.3535 C456.78622,188.7171 452.65022,193.6 447.21182,193.6 L423.98862,193.6 C418.55022,193.6 414.41422,188.7171 415.30852,183.3535 L416.77482,174.5535 C417.48212,170.3097 421.15282,167.2 425.45492,167.2 L445.74552,167.2 Z M607.31649,167.00156 C612.08939,167.91676 615.21669,172.52796 614.30149,177.30086 L612.64379,185.94356 C611.74523,190.62968 607.283848,193.730556 602.604648,192.974543 L602.34449,192.92856 L607.31649,167.00156 Z" id="Chairs"></path>
                        <path d="M211.2,123.2 L211.2,202.4 L202.4,202.4 L202.4,211.2 L325.6,211.2 L325.6,202.4 L316.8,202.4 L316.8,123.2 L352,123.2 L352,228.8 L202.4,228.8 L202.4,220 L176,220 L176,149.6 L140.8,149.6 L140.8,220 L105.6,220 L105.6,123.2 L211.2,123.2 Z M96.8,123.2 L96.8,220 L70.4,220 L70.4,123.2 L96.8,123.2 Z M0,26.4 L387.2,88 L387.2,105.6 L0,44 L0,26.4 Z" id="Roof-&amp;-Siding"></path>
                        <path d="M539.8459,91.85594 L589.6187,158.30034 L548.5843,142.41854 L539.8459,91.85594 Z M539.84612,91.85605 L499.34412,123.36115 L458.30972,107.47935 L539.84612,91.85605 Z" id="Umbrella"></path>
                        <path d="M307.38345,33 L307.38345,48.4 C307.38345,50.8299 305.41335,52.8 302.98345,52.8 L294.18345,52.8 C291.75355,52.8 289.78345,50.8299 289.78345,48.4 L289.78345,33 L307.38345,33 Z M246.4,0 L246.726922,0.0029760537 C256.295693,0.177319833 264,7.98960899 264,17.6 L264,17.6 L264,24.2 C264,25.4144 263.0144,26.4 261.8,26.4 L261.8,26.4 L231,26.4 C229.7856,26.4 228.8,25.4144 228.8,24.2 L228.8,24.2 L228.8,17.6 C228.8,7.8804 236.6804,0 246.4,0 L246.4,0 Z" id="Plants"></path>
                        <polygon id="Top-Window" points="272.8 105.6 35.2 105.6 35.2 67.2771"></polygon>
                        <path d="M290.4,184.8 C295.2598,184.8 299.2,188.7402 299.2,193.6 L299.2,193.6 L299.2,202.4 L228.8,202.4 L228.8,193.6 C228.8,188.7402 232.7402,184.8 237.6,184.8 L237.6,184.8 Z M264.00011,122.64989 C264.30371,122.64989 264.55011,122.89629 264.55011,123.19989 L264.55011,123.19989 L264.55011,167.19989 C264.55011,167.20979 264.54461,167.21749 264.54461,167.22739 C269.15031,167.51009 272.80011,171.32379 272.80011,175.99989 L272.80011,175.99989 L255.20011,175.99989 C255.20011,171.32379 258.84991,167.51009 263.45561,167.22739 C263.45561,167.21749 263.45011,167.20979 263.45011,167.19989 L263.45011,167.19989 L263.45011,123.19989 C263.45011,122.89629 263.69651,122.64989 264.00011,122.64989 Z M290.40011,122.64989 C290.70371,122.64989 290.95011,122.89629 290.95011,123.19989 L290.95011,123.19989 L290.95011,167.19989 C290.95011,167.20979 290.94461,167.21749 290.94461,167.22739 C295.55031,167.51009 299.20011,171.32379 299.20011,175.99989 L299.20011,175.99989 L281.60011,175.99989 C281.60011,171.32379 285.24991,167.51009 289.85561,167.22739 C289.85561,167.21749 289.85011,167.20979 289.85011,167.19989 L289.85011,167.19989 L289.85011,123.19989 C289.85011,122.89629 290.09651,122.64989 290.40011,122.64989 Z M237.60011,122.64989 C237.90371,122.64989 238.15011,122.89629 238.15011,123.19989 L238.15011,123.19989 L238.15011,167.19989 C238.15011,167.20979 238.14461,167.21749 238.14461,167.22739 C242.75031,167.51009 246.40011,171.32379 246.40011,175.99989 L246.40011,175.99989 L228.80011,175.99989 C228.80011,171.32379 232.44991,167.51009 237.05561,167.22739 C237.05561,167.21749 237.05011,167.20979 237.05011,167.19989 L237.05011,167.19989 L237.05011,123.19989 C237.05011,122.89629 237.29651,122.64989 237.60011,122.64989 Z" id="Interior"></path>
                    </g>
                    <path d="M71.5,119.7053 C71.8036,119.7053 72.05,119.9506 72.05,120.2553 L72.05,152.9 C72.05,153.2036 71.8036,153.45 71.5,153.45 C71.1964,153.45 70.95,153.2036 70.95,152.9 L70.95,120.2553 C70.95,119.9506 71.1964,119.7053 71.5,119.7053 Z M106.7,125.3824 C107.0036,125.3824 107.25,125.6288 107.25,125.9324 L107.25,152.9 C107.25,153.2036 107.0036,153.45 106.7,153.45 C106.3964,153.45 106.15,153.2036 106.15,152.9 L106.15,125.9324 C106.15,125.6288 106.3964,125.3824 106.7,125.3824 Z M141.9,131.0595 C142.2036,131.0595 142.45,131.3059 142.45,131.6095 L142.45,152.9 C142.45,153.2036 142.2036,153.45 141.9,153.45 C141.5964,153.45 141.35,153.2036 141.35,152.9 L141.35,131.6095 C141.35,131.3059 141.5964,131.0595 141.9,131.0595 Z M177.1,136.7377 C177.4036,136.7377 177.65,136.983 177.65,137.2877 L177.65,152.9 C177.65,153.2036 177.4036,153.45 177.1,153.45 C176.7964,153.45 176.55,153.2036 176.55,152.9 L176.55,137.2877 C176.55,136.983 176.7964,136.7377 177.1,136.7377 Z M212.3,142.4148 C212.6036,142.4148 212.85,142.6601 212.85,142.9648 L212.85,152.9 C212.85,153.2036 212.6036,153.45 212.3,153.45 C211.9964,153.45 211.75,153.2036 211.75,152.9 L211.75,142.9648 C211.75,142.6601 211.9964,142.4148 212.3,142.4148 Z" id="Window-Deets" fill="#FFFFFF"></path>
                    <path d="M353.1,266.75 C353.4036,266.75 353.65,266.9964 353.65,267.3 C353.65,267.6036 353.4036,267.85 353.1,267.85 L353.1,267.85 L203.5,267.85 C203.1964,267.85 202.95,267.6036 202.95,267.3 C202.95,266.9964 203.1964,266.75 203.5,266.75 L203.5,266.75 Z M353.1,257.95 C353.4036,257.95 353.65,258.1964 353.65,258.5 C353.65,258.8036 353.4036,259.05 353.1,259.05 L353.1,259.05 L317.9,259.05 C317.5964,259.05 317.35,258.8036 317.35,258.5 C317.35,258.1964 317.5964,257.95 317.9,257.95 L317.9,257.95 Z M212.3,257.95 C212.6036,257.95 212.85,258.1964 212.85,258.5 C212.85,258.8036 212.6036,259.05 212.3,259.05 L212.3,259.05 L177.1,259.05 C176.7964,259.05 176.55,258.8036 176.55,258.5 C176.55,258.1964 176.7964,257.95 177.1,257.95 L177.1,257.95 Z M141.9,257.95 C142.2036,257.95 142.45,258.1964 142.45,258.5 C142.45,258.8036 142.2036,259.05 141.9,259.05 L141.9,259.05 L106.7,259.05 C106.3964,259.05 106.15,258.8036 106.15,258.5 C106.15,258.1964 106.3964,257.95 106.7,257.95 L106.7,257.95 Z M97.9,257.95 C98.2036,257.95 98.45,258.1964 98.45,258.5 C98.45,258.8036 98.2036,259.05 97.9,259.05 L97.9,259.05 L71.5,259.05 C71.1964,259.05 70.95,258.8036 70.95,258.5 C70.95,258.1964 71.1964,257.95 71.5,257.95 L71.5,257.95 Z M353.1,249.15 C353.4036,249.15 353.65,249.3964 353.65,249.7 C353.65,250.0036 353.4036,250.25 353.1,250.25 L353.1,250.25 L326.7,250.25 C326.3964,250.25 326.15,250.0036 326.15,249.7 C326.15,249.3964 326.3964,249.15 326.7,249.15 L326.7,249.15 Z M203.5,249.15 C203.8036,249.15 204.05,249.3964 204.05,249.7 C204.05,250.0036 203.8036,250.25 203.5,250.25 L203.5,250.25 L177.1,250.25 C176.7964,250.25 176.55,250.0036 176.55,249.7 C176.55,249.3964 176.7964,249.15 177.1,249.15 L177.1,249.15 Z M141.9,249.15 C142.2036,249.15 142.45,249.3964 142.45,249.7 C142.45,250.0036 142.2036,250.25 141.9,250.25 L141.9,250.25 L106.7,250.25 C106.3964,250.25 106.15,250.0036 106.15,249.7 C106.15,249.3964 106.3964,249.15 106.7,249.15 L106.7,249.15 Z M97.9,249.15 C98.2036,249.15 98.45,249.3964 98.45,249.7 C98.45,250.0036 98.2036,250.25 97.9,250.25 L97.9,250.25 L71.5,250.25 C71.1964,250.25 70.95,250.0036 70.95,249.7 C70.95,249.3964 71.1964,249.15 71.5,249.15 L71.5,249.15 Z M353.1,240.35 C353.4036,240.35 353.65,240.5964 353.65,240.9 C353.65,241.2036 353.4036,241.45 353.1,241.45 L353.1,241.45 L317.9,241.45 C317.5964,241.45 317.35,241.2036 317.35,240.9 C317.35,240.5964 317.5964,240.35 317.9,240.35 L317.9,240.35 Z M212.3,240.35 C212.6036,240.35 212.85,240.5964 212.85,240.9 C212.85,241.2036 212.6036,241.45 212.3,241.45 L212.3,241.45 L177.1,241.45 C176.7964,241.45 176.55,241.2036 176.55,240.9 C176.55,240.5964 176.7964,240.35 177.1,240.35 L177.1,240.35 Z M141.9,240.35 C142.2036,240.35 142.45,240.5964 142.45,240.9 C142.45,241.2036 142.2036,241.45 141.9,241.45 L141.9,241.45 L106.7,241.45 C106.3964,241.45 106.15,241.2036 106.15,240.9 C106.15,240.5964 106.3964,240.35 106.7,240.35 L106.7,240.35 Z M97.9,240.35 C98.2036,240.35 98.45,240.5964 98.45,240.9 C98.45,241.2036 98.2036,241.45 97.9,241.45 L97.9,241.45 L71.5,241.45 C71.1964,241.45 70.95,241.2036 70.95,240.9 C70.95,240.5964 71.1964,240.35 71.5,240.35 L71.5,240.35 Z M353.1,231.55 C353.4036,231.55 353.65,231.7964 353.65,232.1 C353.65,232.4036 353.4036,232.65 353.1,232.65 L353.1,232.65 L317.9,232.65 C317.5964,232.65 317.35,232.4036 317.35,232.1 C317.35,231.7964 317.5964,231.55 317.9,231.55 L317.9,231.55 Z M212.3,231.55 C212.6036,231.55 212.85,231.7964 212.85,232.1 C212.85,232.4036 212.6036,232.65 212.3,232.65 L212.3,232.65 L177.1,232.65 C176.7964,232.65 176.55,232.4036 176.55,232.1 C176.55,231.7964 176.7964,231.55 177.1,231.55 L177.1,231.55 Z M141.9,231.55 C142.2036,231.55 142.45,231.7964 142.45,232.1 C142.45,232.4036 142.2036,232.65 141.9,232.65 L141.9,232.65 L106.7,232.65 C106.3964,232.65 106.15,232.4036 106.15,232.1 C106.15,231.7964 106.3964,231.55 106.7,231.55 L106.7,231.55 Z M97.9,231.55 C98.2036,231.55 98.45,231.7964 98.45,232.1 C98.45,232.4036 98.2036,232.65 97.9,232.65 L97.9,232.65 L71.5,232.65 C71.1964,232.65 70.95,232.4036 70.95,232.1 C70.95,231.7964 71.1964,231.55 71.5,231.55 L71.5,231.55 Z M141.9,222.75 C142.2036,222.75 142.45,222.9964 142.45,223.3 C142.45,223.6036 142.2036,223.85 141.9,223.85 L141.9,223.85 L106.7,223.85 C106.3964,223.85 106.15,223.6036 106.15,223.3 C106.15,222.9964 106.3964,222.75 106.7,222.75 L106.7,222.75 Z M97.9,222.75 C98.2036,222.75 98.45,222.9964 98.45,223.3 C98.45,223.6036 98.2036,223.85 97.9,223.85 L97.9,223.85 L71.5,223.85 C71.1964,223.85 70.95,223.6036 70.95,223.3 C70.95,222.9964 71.1964,222.75 71.5,222.75 L71.5,222.75 Z M353.1,222.75 C353.4036,222.75 353.65,222.9964 353.65,223.3 C353.65,223.6036 353.4036,223.85 353.1,223.85 L353.1,223.85 L317.9,223.85 C317.5964,223.85 317.35,223.6036 317.35,223.3 C317.35,222.9964 317.5964,222.75 317.9,222.75 L317.9,222.75 Z M212.3,222.75 C212.6036,222.75 212.85,222.9964 212.85,223.3 C212.85,223.6036 212.6036,223.85 212.3,223.85 L212.3,223.85 L177.1,223.85 C176.7964,223.85 176.55,223.6036 176.55,223.3 C176.55,222.9964 176.7964,222.75 177.1,222.75 L177.1,222.75 Z M353.1,213.95 C353.4036,213.95 353.65,214.1964 353.65,214.5 C353.65,214.8036 353.4036,215.05 353.1,215.05 L353.1,215.05 L317.9,215.05 C317.5964,215.05 317.35,214.8036 317.35,214.5 C317.35,214.1964 317.5964,213.95 317.9,213.95 L317.9,213.95 Z M212.3,213.95 C212.6036,213.95 212.85,214.1964 212.85,214.5 C212.85,214.8036 212.6036,215.05 212.3,215.05 L212.3,215.05 L177.1,215.05 C176.7964,215.05 176.55,214.8036 176.55,214.5 C176.55,214.1964 176.7964,213.95 177.1,213.95 L177.1,213.95 Z M141.9,213.95 C142.2036,213.95 142.45,214.1964 142.45,214.5 C142.45,214.8036 142.2036,215.05 141.9,215.05 L141.9,215.05 L106.7,215.05 C106.3964,215.05 106.15,214.8036 106.15,214.5 C106.15,214.1964 106.3964,213.95 106.7,213.95 L106.7,213.95 Z M97.9,213.95 C98.2036,213.95 98.45,214.1964 98.45,214.5 C98.45,214.8036 98.2036,215.05 97.9,215.05 L97.9,215.05 L71.5,215.05 C71.1964,215.05 70.95,214.8036 70.95,214.5 C70.95,214.1964 71.1964,213.95 71.5,213.95 L71.5,213.95 Z M353.1,205.15 C353.4036,205.15 353.65,205.3964 353.65,205.7 C353.65,206.0036 353.4036,206.25 353.1,206.25 L353.1,206.25 L317.9,206.25 C317.5964,206.25 317.35,206.0036 317.35,205.7 C317.35,205.3964 317.5964,205.15 317.9,205.15 L317.9,205.15 Z M212.3,205.15 C212.6036,205.15 212.85,205.3964 212.85,205.7 C212.85,206.0036 212.6036,206.25 212.3,206.25 L212.3,206.25 L177.1,206.25 C176.7964,206.25 176.55,206.0036 176.55,205.7 C176.55,205.3964 176.7964,205.15 177.1,205.15 L177.1,205.15 Z M141.9,205.15 C142.2036,205.15 142.45,205.3964 142.45,205.7 C142.45,206.0036 142.2036,206.25 141.9,206.25 L141.9,206.25 L106.7,206.25 C106.3964,206.25 106.15,206.0036 106.15,205.7 C106.15,205.3964 106.3964,205.15 106.7,205.15 L106.7,205.15 Z M97.9,205.15 C98.2036,205.15 98.45,205.3964 98.45,205.7 C98.45,206.0036 98.2036,206.25 97.9,206.25 L97.9,206.25 L71.5,206.25 C71.1964,206.25 70.95,206.0036 70.95,205.7 C70.95,205.3964 71.1964,205.15 71.5,205.15 L71.5,205.15 Z M353.1,196.35 C353.4036,196.35 353.65,196.5964 353.65,196.9 C353.65,197.2036 353.4036,197.45 353.1,197.45 L353.1,197.45 L317.9,197.45 C317.5964,197.45 317.35,197.2036 317.35,196.9 C317.35,196.5964 317.5964,196.35 317.9,196.35 L317.9,196.35 Z M97.9,196.35 C98.2036,196.35 98.45,196.5964 98.45,196.9 C98.45,197.2036 98.2036,197.45 97.9,197.45 L97.9,197.45 L71.5,197.45 C71.1964,197.45 70.95,197.2036 70.95,196.9 C70.95,196.5964 71.1964,196.35 71.5,196.35 L71.5,196.35 Z M212.3,196.35 C212.6036,196.35 212.85,196.5964 212.85,196.9 C212.85,197.2036 212.6036,197.45 212.3,197.45 L212.3,197.45 L106.7,197.45 C106.3964,197.45 106.15,197.2036 106.15,196.9 C106.15,196.5964 106.3964,196.35 106.7,196.35 L106.7,196.35 Z M353.1,187.55 C353.4036,187.55 353.65,187.7964 353.65,188.1 C353.65,188.4036 353.4036,188.65 353.1,188.65 L353.1,188.65 L317.9,188.65 C317.5964,188.65 317.35,188.4036 317.35,188.1 C317.35,187.7964 317.5964,187.55 317.9,187.55 L317.9,187.55 Z M97.9,187.55 C98.2036,187.55 98.45,187.7964 98.45,188.1 C98.45,188.4036 98.2036,188.65 97.9,188.65 L97.9,188.65 L71.5,188.65 C71.1964,188.65 70.95,188.4036 70.95,188.1 C70.95,187.7964 71.1964,187.55 71.5,187.55 L71.5,187.55 Z M212.3,187.55 C212.6036,187.55 212.85,187.7964 212.85,188.1 C212.85,188.4036 212.6036,188.65 212.3,188.65 L212.3,188.65 L106.7,188.65 C106.3964,188.65 106.15,188.4036 106.15,188.1 C106.15,187.7964 106.3964,187.55 106.7,187.55 L106.7,187.55 Z M353.1,178.75 C353.4036,178.75 353.65,178.9964 353.65,179.3 C353.65,179.6036 353.4036,179.85 353.1,179.85 L353.1,179.85 L317.9,179.85 C317.5964,179.85 317.35,179.6036 317.35,179.3 C317.35,178.9964 317.5964,178.75 317.9,178.75 L317.9,178.75 Z M97.9,178.75 C98.2036,178.75 98.45,178.9964 98.45,179.3 C98.45,179.6036 98.2036,179.85 97.9,179.85 L97.9,179.85 L71.5,179.85 C71.1964,179.85 70.95,179.6036 70.95,179.3 C70.95,178.9964 71.1964,178.75 71.5,178.75 L71.5,178.75 Z M212.3,178.75 C212.6036,178.75 212.85,178.9964 212.85,179.3 C212.85,179.6036 212.6036,179.85 212.3,179.85 L212.3,179.85 L106.7,179.85 C106.3964,179.85 106.15,179.6036 106.15,179.3 C106.15,178.9964 106.3964,178.75 106.7,178.75 L106.7,178.75 Z" id="Siding" fill="#C3C3C3"></path>
                    <path d="M299.15061,0.9669 C299.27271,0.4774 300.09441,0.4774 300.21651,0.9669 L300.21651,0.9669 L317.81651,71.3669 C317.85831,71.5308 317.82091,71.7057 317.71641,71.8388 C317.61301,71.9719 317.45241,72.05 317.28301,72.05 L317.28301,72.05 L300.23301,72.05 L300.23301,79.75 L308.48301,79.75 C308.78771,79.75 309.03301,79.9964 309.03301,80.3 L309.03301,80.3 L309.03301,95.7 C309.03301,98.4291 306.81321,100.65 304.08301,100.65 L304.08301,100.65 L295.28301,100.65 C292.55391,100.65 290.33301,98.4291 290.33301,95.7 L290.33301,95.7 L290.33301,80.3 C290.33301,79.9964 290.57941,79.75 290.88301,79.75 L290.88301,79.75 L299.13301,79.75 L299.13301,72.05 L282.08301,72.05 C281.91471,72.05 281.75411,71.9719 281.64961,71.8388 C281.54621,71.7057 281.50881,71.5308 281.55061,71.3669 L281.55061,71.3669 Z M247.5,46.75 C257.5078,46.75 265.65,54.8922 265.65,64.9 L265.65,64.9 L265.65,71.5 C265.65,73.0158 264.4158,74.25 262.9,74.25 L262.9,74.25 L248.05,74.25 L248.05,81.95 L265.1,81.95 C265.2694,81.95 265.4289,82.0281 265.5334,82.1612 C265.6379,82.2943 265.6742,82.4692 265.6335,82.6331 L265.6335,82.6331 L262.9,93.5682 C261.8572,97.7383 258.1271,100.65 253.8294,100.65 L253.8294,100.65 L241.1706,100.65 C236.8729,100.65 233.1428,97.7383 232.1,93.5682 L232.1,93.5682 L229.3665,82.6331 C229.3258,82.4692 229.3621,82.2943 229.4666,82.1612 C229.5711,82.0281 229.7306,81.95 229.9,81.95 L229.9,81.95 L246.95,81.95 L246.95,74.25 L232.1,74.25 C230.5842,74.25 229.35,73.0158 229.35,71.5 L229.35,71.5 L229.35,64.9 C229.35,54.8922 237.4922,46.75 247.5,46.75 Z M307.93301,80.85 L291.43301,80.85 L291.43301,95.7 C291.43301,97.823 293.16111,99.55 295.28301,99.55 L295.28301,99.55 L304.08301,99.55 C306.20601,99.55 307.93301,97.823 307.93301,95.7 L307.93301,95.7 L307.93301,80.85 Z M264.396,83.05 L230.604,83.05 L233.167,93.3009 C234.0877,96.9804 237.3778,99.55 241.1706,99.55 L241.1706,99.55 L253.8294,99.55 C257.6222,99.55 260.9123,96.9804 261.833,93.3009 L261.833,93.3009 L264.396,83.05 Z M247.5,47.85 C238.0983,47.85 230.45,55.4983 230.45,64.9 L230.45,64.9 L230.45,71.5 C230.45,72.4097 231.1903,73.15 232.1,73.15 L232.1,73.15 L262.9,73.15 C263.8097,73.15 264.55,72.4097 264.55,71.5 L264.55,71.5 L264.55,64.9 C264.55,55.4983 256.9017,47.85 247.5,47.85 Z M299.68301,3.3682 L282.78811,70.95 L316.57901,70.95 L299.68301,3.3682 Z M308.48345,53.35 C308.78705,53.35 309.03345,53.5964 309.03345,53.9 C309.03345,54.2036 308.78705,54.45 308.48345,54.45 L308.48345,54.45 L290.88345,54.45 C290.57985,54.45 290.33345,54.2036 290.33345,53.9 C290.33345,53.5964 290.57985,53.35 290.88345,53.35 L290.88345,53.35 Z M304.08345,35.75 C304.38705,35.75 304.63345,35.9964 304.63345,36.3 C304.63345,36.6036 304.38705,36.85 304.08345,36.85 L304.08345,36.85 L295.28345,36.85 C294.97985,36.85 294.73345,36.6036 294.73345,36.3 C294.73345,35.9964 294.97985,35.75 295.28345,35.75 L295.28345,35.75 Z" id="Plants" fill="#C3C3C3"></path>
                    <path d="M168.3,249.15 C168.6036,249.15 168.85,249.3964 168.85,249.7 L168.85,249.7 L168.85,267.3 C168.85,267.6036 168.6036,267.85 168.3,267.85 L168.3,267.85 L150.7,267.85 C150.3964,267.85 150.15,267.6036 150.15,267.3 L150.15,267.3 L150.15,249.7 C150.15,249.3964 150.3964,249.15 150.7,249.15 L150.7,249.15 Z M167.75,250.25 L151.25,250.25 L151.25,266.75 L167.75,266.75 L167.75,250.25 Z M170.5,229.9 C171.7144,229.9 172.7,230.8856 172.7,232.1 C172.7,233.3144 171.7144,234.3 170.5,234.3 C169.2856,234.3 168.3,233.3144 168.3,232.1 C168.3,230.8856 169.2856,229.9 170.5,229.9 Z M159.5,205.15 C164.6557,205.15 168.85,209.3443 168.85,214.5 C168.85,219.6557 164.6557,223.85 159.5,223.85 C154.3443,223.85 150.15,219.6557 150.15,214.5 C150.15,209.3443 154.3443,205.15 159.5,205.15 Z M159.5,206.25 C154.9504,206.25 151.25,209.9504 151.25,214.5 C151.25,219.0496 154.9504,222.75 159.5,222.75 C164.0496,222.75 167.75,219.0496 167.75,214.5 C167.75,209.9504 164.0496,206.25 159.5,206.25 Z" id="Door-Deets" fill="#0093E9"></path>
                    <path d="M1.13636414,72.6002992 L1.2727,72.61331 L167.1318,99.00011 L353.1,99.00011 C353.7072,99.00011 354.2,99.49291 354.2,100.10011 L354.2,100.10011 L354.2,128.76061 L388.4727,134.21331 C389.0073,134.29911 389.4,134.75891 389.4,135.30011 L389.4,135.30011 L389.4,152.90011 C389.4,153.22131 389.2592,153.52821 389.0139,153.73721 C388.8137,153.90771 388.5596,154.00011 388.3,154.00011 C388.2428,154.00011 388.1845,153.99571 388.1273,153.98691 L388.1273,153.98691 L371.8,151.38871 L371.8,170.50011 C371.8,171.10731 371.3072,171.60011 370.7,171.60011 L370.7,171.60011 L354.2,171.60011 L354.2,276.10011 C354.2,276.70731 353.7072,277.20011 353.1,277.20011 L353.1,277.20011 L18.7,277.20011 C18.0928,277.20011 17.6,276.70731 17.6,276.10011 L17.6,276.10011 L17.6,267.30011 C17.6,266.69291 18.0928,266.20011 18.7,266.20011 L18.7,266.20011 L35.2,266.20011 L35.2,171.60011 L18.7,171.60011 C18.0928,171.60011 17.6,171.10731 17.6,170.50011 L17.6,170.50011 L17.6,95.03901 L0.9273,92.38691 C0.3927,92.30111 -1.70530257e-13,91.84131 -1.70530257e-13,91.30011 L-1.70530257e-13,91.30011 L-1.70530257e-13,73.70011 C-1.70530257e-13,73.37781 0.1408,73.07201 0.3861,72.86301 C0.6314,72.65511 0.9548,72.56271 1.2727,72.61331 Z M540.977759,138.059425 L541.0713,138.0654 C541.0856,138.0665 541.0999,138.0731 541.1142,138.0753 C541.1274,138.0764 541.1395,138.0808 541.1516,138.0841 C541.1824,138.0896 541.211,138.0962 541.2407,138.105 C541.3078,138.1237 541.3694,138.1479 541.4321,138.1787 C541.4629,138.1941 541.4915,138.2106 541.5212,138.2282 C541.5278,138.2326 541.5355,138.2359 541.5421,138.2403 L541.5421,138.2403 L541.5905,138.2667 C541.6642,138.3206 541.7291,138.3866 541.7885,138.4592 L541.7885,138.4592 L541.8149,138.4812 C541.816,138.4834 541.8171,138.4856 541.8182,138.4878 C541.8204,138.4911 541.8237,138.4933 541.8259,138.4966 L541.8259,138.4966 L591.5987,204.941 C591.8935,205.3337 591.8913,205.8738 591.5954,206.2643 C591.3831,206.5448 591.0553,206.6999 590.7187,206.6999 C590.5856,206.6999 590.4514,206.6757 590.3216,206.6262 L590.3216,206.6262 L549.307,190.7521 C549.3059,190.751 549.3059,190.751 549.3048,190.751 L549.3048,190.751 L525.6933,181.6133 L523.2667,187.8833 C524.7858,188.8623 525.8,190.5618 525.8,192.5 C525.8,195.1565 523.9069,197.3774 521.4,197.8889 L521.4,197.8889 L521.4,231 L564.3,231 C564.9072,231 565.4,231.4928 565.4,232.1 C565.4,237.5582 560.9582,242 555.5,242 L555.5,242 L525.8,242 L525.8,266.2 L529.1,266.2 C529.3915,266.2 529.672,266.3155 529.8777,266.5223 L529.8777,266.5223 L538.6777,275.3223 C538.9923,275.6369 539.0869,276.1099 538.9164,276.5213 C538.7459,276.9316 538.3444,277.2 537.9,277.2 L537.9,277.2 L502.7,277.2 C502.2556,277.2 501.8541,276.9316 501.6836,276.5213 C501.5131,276.1099 501.6077,275.6369 501.9223,275.3223 L501.9223,275.3223 L510.7223,266.5223 C510.928,266.3155 511.2085,266.2 511.5,266.2 L511.5,266.2 L514.8,266.2 L514.8,242 L485.1,242 C479.6418,242 475.2,237.5582 475.2,232.1 C475.2,231.4928 475.6928,231 476.3,231 L476.3,231 L519.2,231 L519.2,197.8889 C516.6931,197.3774 514.8,195.1565 514.8,192.5 C514.8,189.4673 517.2673,187 520.3,187 C520.6124,187 520.9149,187.0418 521.2141,187.0924 L521.2141,187.0924 L523.6418,180.818 L459.0135,155.8051 C458.5559,155.628 458.2699,155.1693 458.3139,154.6809 C458.3579,154.1914 458.7209,153.7921 459.2038,153.6997 L459.2038,153.6997 L540.7391,138.0753 L540.7391,138.0753 L540.7501,138.0753 C540.7534,138.0742 540.7556,138.0731 540.7589,138.072 C540.7688,138.0709 540.7798,138.0742 540.7897,138.0731 C540.8843,138.059229 540.9778,138.0544 541.0713,138.0654 Z M607.33651,214.09366 C607.45091,213.49746 608.02731,213.10916 608.62351,213.22136 C611.22061,213.71856 613.46901,215.19916 614.95291,217.38706 C616.43681,219.57606 616.98021,222.21166 616.48191,224.80876 L616.48191,224.80876 L614.82421,233.45036 C614.32591,236.04746 612.84751,238.29586 610.65851,239.77976 C610.11841,240.14606 609.54421,240.43316 608.95791,240.68286 L608.95791,240.68286 L607.43881,248.59956 L612.70011,248.59956 C613.30731,248.59956 613.80011,249.09236 613.80011,249.69956 C613.80011,255.15886 609.35831,259.59956 603.90011,259.59956 L603.90011,259.59956 L603.25001,259.59956 C604.87911,260.91626 606.09571,262.74776 606.63361,264.89826 L606.63361,264.89826 L609.36711,275.83336 C609.51451,276.42296 609.15591,277.02026 608.56741,277.16766 C608.47721,277.18966 608.38701,277.19956 608.29901,277.19956 C607.80621,277.19956 607.35741,276.86626 607.23311,276.36686 L607.23311,276.36686 L604.49961,265.43286 C603.64051,261.99866 600.56931,259.59956 597.02951,259.59956 L597.02951,259.59956 L588.77071,259.59956 C585.23091,259.59956 582.15971,261.99866 581.30061,265.43286 L581.30061,265.43286 L578.56711,276.36686 C578.41971,276.95646 577.82021,277.31506 577.23281,277.16766 C576.64431,277.02026 576.28571,276.42296 576.43311,275.83336 L576.43311,275.83336 L579.16661,264.89826 C579.70451,262.74776 580.92111,260.91626 582.55021,259.59956 L582.55021,259.59956 L581.90011,259.59956 C576.44081,259.59956 572.00011,255.15886 572.00011,249.69956 C572.00011,249.09236 572.49291,248.59956 573.10011,248.59956 L573.10011,248.59956 L605.19921,248.59956 L606.58411,241.38026 C606.10231,241.45286 605.61391,241.48916 605.12331,241.48916 C604.49631,241.48916 603.86601,241.42976 603.23681,241.30876 C602.64061,241.19436 602.25011,240.61796 602.36451,240.02176 L602.36451,240.02176 Z M446.8453,213.4 C451.7051,213.4 455.8114,216.8793 456.6111,221.672 L456.6111,221.672 L458.0774,230.472 C458.557,233.3485 457.7507,236.2734 455.8664,238.4987 C454.5772,240.0211 452.8766,241.0848 451,241.6139 L451,241.6139 L451,248.6 L458.7,248.6 C459.3072,248.6 459.8,249.0928 459.8,249.7 C459.8,255.1582 455.3582,259.6 449.9,259.6 L449.9,259.6 L449.2499,259.6 C450.879,260.9167 452.0956,262.7471 452.6335,264.8987 L452.6335,264.8987 L455.367,275.8327 C455.5144,276.4223 455.1558,277.0196 454.5673,277.167 C454.4771,277.1901 454.388,277.200112 454.2989,277.200112 C453.8061,277.200112 453.3584,276.8667 453.233,276.3673 L453.233,276.3673 L450.4995,265.4322 C449.6404,261.998 446.5692,259.6 443.0294,259.6 L443.0294,259.6 L430.3706,259.6 C426.8308,259.6 423.7596,261.998 422.9005,265.4322 L422.9005,265.4322 L420.167,276.3673 C420.0196,276.9558 419.4234,277.3144 418.8327,277.167 C418.2442,277.0196 417.8856,276.4223 418.033,275.8327 L418.033,275.8327 L420.7665,264.8987 C421.3044,262.7471 422.521,260.9167 424.1501,259.6 L424.1501,259.6 L423.5,259.6 C418.0418,259.6 413.6,255.1582 413.6,249.7 C413.6,249.0928 414.0928,248.6 414.7,248.6 L414.7,248.6 L422.4,248.6 L422.4,241.6139 C420.5234,241.0848 418.8228,240.0211 417.5336,238.4987 C415.6493,236.2734 414.843,233.3485 415.3226,230.472 L415.3226,230.472 L416.7889,221.672 C417.5886,216.8793 421.6949,213.4 426.5547,213.4 L426.5547,213.4 Z M528.6446,268.4 L511.9554,268.4 L505.3554,275 L535.2446,275 L528.6446,268.4 Z M202.4,268.40011 L19.8,268.40011 L19.8,275.00011 L202.4,275.00011 L202.4,268.40011 Z M211.2,171.60011 L107.8,171.60011 L107.8,266.20011 L140.8,266.20011 L140.8,196.90011 C140.8,196.29291 141.2928,195.80011 141.9,195.80011 L141.9,195.80011 L177.1,195.80011 C177.7072,195.80011 178.2,196.29291 178.2,196.90011 L178.2,196.90011 L178.2,266.20011 L203.5,266.20011 C204.1072,266.20011 204.6,266.69291 204.6,267.30011 L204.6,267.30011 L204.6,275.00011 L352,275.00011 L352,171.60011 L319,171.60011 L319,248.60011 L326.7,248.60011 C327.3072,248.60011 327.8,249.09291 327.8,249.70011 L327.8,249.70011 L327.8,258.50011 C327.8,259.10731 327.3072,259.60011 326.7,259.60011 L326.7,259.60011 L203.5,259.60011 C202.8928,259.60011 202.4,259.10731 202.4,258.50011 L202.4,258.50011 L202.4,249.70011 C202.4,249.09291 202.8928,248.60011 203.5,248.60011 L203.5,248.60011 L211.2,248.60011 L211.2,171.60011 Z M96.8,171.60011 L72.6,171.60011 L72.6,266.20011 L96.8,266.20011 L96.8,171.60011 Z M523.6,242 L517,242 L517,266.2 L523.6,266.2 L523.6,242 Z M176,198.00011 L143,198.00011 L143,266.20011 L176,266.20011 L176,198.00011 Z M105.6,171.60011 L99,171.60011 L99,266.20011 L105.6,266.20011 L105.6,171.60011 Z M70.4,171.60011 L46.2,171.60011 L46.2,266.20011 L70.4,266.20011 L70.4,171.60011 Z M44,171.60011 L37.4,171.60011 L37.4,266.20011 L44,266.20011 L44,171.60011 Z M325.6,250.80011 L204.6,250.80011 L204.6,257.40011 L325.6,257.40011 L325.6,250.80011 Z M457.5219,250.8 L415.8781,250.8 C416.4138,254.5268 419.6269,257.4 423.5,257.4 L423.5,257.4 L449.9,257.4 C453.7731,257.4 456.9862,254.5268 457.5219,250.8 L457.5219,250.8 Z M611.52201,250.79956 L574.27821,250.79956 C574.81391,254.52636 578.02701,257.39956 581.90011,257.39956 L581.90011,257.39956 L603.90011,257.39956 C607.77211,257.39956 610.98631,254.52636 611.52201,250.79956 L611.52201,250.79956 Z M316.8,198.00011 L283.8,198.00011 L283.8,248.60011 L316.8,248.60011 L316.8,198.00011 Z M448.8,241.9736 C448.6372,241.9813 448.4755,242 448.3116,242 L448.3116,242 L425.0884,242 C424.9245,242 424.7628,241.9813 424.6,241.9736 L424.6,241.9736 L424.6,248.6 L448.8,248.6 Z M281.6,198.00011 L248.6,198.00011 L248.6,248.60011 L281.6,248.60011 L281.6,198.00011 Z M246.4,198.00011 L213.4,198.00011 L213.4,248.60011 L246.4,248.60011 L246.4,198.00011 Z M446.8453,215.6 L426.5547,215.6 C422.7751,215.6 419.5807,218.306 418.9592,222.0339 L418.9592,222.0339 L417.4929,230.8339 C417.12,233.0713 417.747,235.3461 419.2133,237.0764 C420.6785,238.8078 422.8202,239.8 425.0884,239.8 L425.0884,239.8 L448.3116,239.8 C450.5798,239.8 452.7215,238.8078 454.1867,237.0764 C455.653,235.3461 456.28,233.0713 455.9071,230.8339 L455.9071,230.8339 L454.4408,222.0339 C453.8193,218.306 450.6249,215.6 446.8453,215.6 L446.8453,215.6 Z M563.1219,233.2 L477.4781,233.2 C478.0138,236.9268 481.2269,239.8 485.1,239.8 L485.1,239.8 L555.5,239.8 C559.3731,239.8 562.5862,236.9268 563.1219,233.2 L563.1219,233.2 Z M609.27471,215.66446 L604.74601,239.27926 C606.39931,239.35626 608.02731,238.90526 609.42321,237.95926 C611.12601,236.80426 612.27661,235.05636 612.66381,233.03566 L612.66381,233.03566 L614.32151,224.39406 C614.70871,222.37446 614.28631,220.32406 613.13131,218.62126 C612.18641,217.22646 610.84111,216.20236 609.27471,215.66446 L609.27471,215.66446 Z M542.8093,143.4785 L550.6633,188.9173 L587.5386,203.1898 L542.8093,143.4785 Z M316.8,171.60011 L213.4,171.60011 L213.4,195.80011 L316.8,195.80011 L316.8,171.60011 Z M520.3,189.2 C518.4806,189.2 517,190.6806 517,192.5 C517,194.3194 518.4806,195.8 520.3,195.8 C522.1194,195.8 523.6,194.3194 523.6,192.5 C523.6,190.6806 522.1194,189.2 520.3,189.2 Z M540.1737,141.1498 L502.6538,170.3372 L548.2697,187.9911 L540.1737,141.1498 Z M536.6592,141.0981 L463.3838,155.1385 L500.2602,169.4099 L536.6592,141.0981 Z M19.8,95.38881 L19.8,169.40011 L369.6,169.40011 L369.6,151.03891 L19.8,95.38881 Z M36.3374064,113.478015 L36.4749,113.49074 L274.0749,151.81364 C274.6414,151.90494 275.0429,152.41644 274.9967,152.98844 C274.9505,153.55934 274.4731,154.00044 273.9,154.00044 L273.9,154.00044 L36.3,154.00044 C35.6928,154.00044 35.2,153.50764 35.2,152.90044 L35.2,152.90044 L35.2,114.57754 C35.2,114.25524 35.3408,113.94834 35.5872,113.73934 C35.8314,113.53144 36.1537,113.44124 36.4749,113.49074 Z M37.4,115.86894 L37.4,151.80044 L260.172,151.80044 L37.4,115.86894 Z M2.2,74.98931 L2.2,90.36071 L387.2,151.61091 L387.2,136.23841 L2.2,74.98931 Z M352,101.20011 L180.9599,101.20011 L352,128.41081 L352,101.20011 Z" id="Main" stroke="#FFFFFF" stroke-width="0.75" fill="#7A7A7A"></path>
                    <path d="M326.7,256.325429 L326.7,265.1 L203.5,265.1 L203.5,256.325429 L326.7,256.325429 Z M524.7,238.776288 L524.7,256.325429 L515.9,256.325429 L515.9,238.776288 L524.7,238.776288 Z M353.1,168.579724 L353.1,194.903436 L71.5,194.903436 L71.5,168.579724 L353.1,168.579724 Z M45.1,168.579724 L45.1,177.354295 L36.3,177.354295 L36.3,168.579724 L45.1,168.579724 Z M18.7,92.4 L370.7,148.646094 L370.7,161.998796 L18.7,101.174571 L18.7,92.4 Z" id="Shadows" fill="#C3C3C3" opacity="0.300000012" style="mix-blend-mode: multiply;"></path>
                    <g id="tree" opacity="0.5" transform="translate(700.000000, 100.500000)">
                        <path d="M107.071496,104.426708 C102.307641,108.545686 96.8058877,112.182054 91.7403763,115.092768 L91.7403763,92.0119048 C88.7400528,92.6241385 85.6411108,92.9690262 82.4586331,92.9690262 C79.2773156,92.9690262 76.1783735,92.6241385 73.1768898,92.0130621 L73.1768898,129.818782 L73.1768898,129.839614 L73.1768898,130.204176 C70.7207085,128.124434 68.125301,125.77503 65.5414957,123.179113 C62.8834365,120.509126 60.0838307,117.405136 57.4373736,113.972461 C52.2303156,117.642391 46.0405531,120.014941 39.3333333,120.602871 C50.310155,136.688761 65.6285121,148.362866 73.1768898,153.53271 L73.1768898,176.297619 L91.7403763,176.297619 L91.7403763,135.993199 C96.5599215,133.687775 103.752112,129.909054 110.986071,124.857258 C117.201358,120.51607 122.335323,116.02327 126.428571,111.398533 C119.221298,110.932125 112.574409,108.418379 107.071496,104.426708" id="Fill-1" fill="#E6E6E6"></path>
                        <path d="M128.925368,37.874815 C128.616868,37.874815 128.312972,37.8910779 128.006773,37.8992094 C123.749926,16.6783961 105.16392,0.702380952 82.8805121,0.702380952 C57.4499381,0.702380952 36.835656,21.5050043 36.835656,47.1679235 C15.625093,47.1679235 -1.39769025,65.2581208 0.0907097207,86.9830852 C1.33622308,105.166214 15.8345971,119.956196 33.839287,121.391981 C52.7119224,122.898626 68.8782713,110.036964 72.7713639,92.4962218 C76.0255841,93.231539 79.4052766,93.633466 82.8805121,93.633466 C87.4401039,93.633466 91.8396899,92.955069 95.9986916,91.7097925 C102.538212,104.842116 116.554266,113.531173 132.415568,112.057054 C150.217661,110.404042 164.439766,95.6849197 165.671466,77.6864918 C167.157563,55.962689 150.13478,37.874815 128.925368,37.874815" id="Fill-3" fill="#FFFFFF"></path>
                        <line x1="82.1785714" y1="101.845238" x2="82.1785714" y2="120.107143" id="Stroke-5" stroke="#C3C3C3" stroke-linecap="round" stroke-linejoin="round"></line>
                        <line x1="82.1785714" y1="129.940476" x2="82.1785714" y2="166.464286" id="Stroke-7" stroke="#C3C3C3" stroke-linecap="round" stroke-linejoin="round"></line>
                        <path d="M91.3095238,120.107143 C91.3095238,125.542518 86.9115655,129.940476 81.4761905,129.940476" id="Stroke-9" stroke="#C3C3C3" stroke-linecap="round" stroke-linejoin="round"></path>
                        <path d="M73.047619,139.77381 C73.047619,145.209185 77.4455774,149.607143 82.8809524,149.607143" id="Stroke-11" stroke="#C3C3C3" stroke-linecap="round" stroke-linejoin="round"></path>
                        <path d="M128.535572,67.5681368 C125.329416,67.5681368 122.321861,66.748802 119.70352,65.3214286 C119.128261,67.5231802 119.2755,70.0126544 121.111991,72.6898225 C122.27963,74.3891836 124.000842,75.6951741 126.014248,76.2267864 C132.141213,77.8441017 137.666667,73.3416938 137.666667,67.5681368 C137.666667,66.7915108 137.554811,66.0407349 137.367623,65.3214286 C134.749282,66.748802 131.741727,67.5681368 128.535572,67.5681368" id="Fill-13" fill="#C3C3C3"></path>
                        <path d="M63.916524,38.0681368 C60.7103683,38.0681368 57.7028139,37.248802 55.0844724,35.8214286 C54.5092134,38.0231802 54.6564523,40.5126544 56.4929438,43.1909464 C57.6605826,44.8891836 59.381794,46.1951741 61.3952004,46.7267864 C67.5221652,48.3441017 73.047619,43.8416938 73.047619,38.0681368 C73.047619,37.2915108 72.9357631,36.5418588 72.7485757,35.8214286 C70.1302342,37.248802 67.1226798,38.0681368 63.916524,38.0681368" id="Fill-15" fill="#C3C3C3"></path>
                        <g id="Group-23" transform="translate(39.333333, 92.011905)" fill="#C3C3C3">
                            <path d="M73.843583,16.9606486 C73.1135874,16.6309978 72.3984897,16.2759893 71.6948518,15.9013861 C71.6501582,15.8783336 71.6031726,15.8575863 71.558479,15.8322286 C70.8559872,15.4541675 70.1683932,15.0519013 69.4934051,14.6300405 C69.4532954,14.6046828 69.4108938,14.5827829 69.3719301,14.5574252 C68.6591244,14.1079013 67.9635085,13.6364777 67.2850824,13.1408488 C64.1668437,15.8587389 60.7288737,18.3610882 57.3069477,20.5868073 C60.5581212,26.0721504 65.1913587,30.6238672 70.7150304,33.7878232 C70.7173224,33.7878232 70.7207603,33.7878232 70.7253443,33.7866706 C77.0580849,29.3721162 82.2700473,24.7961944 86.4047791,20.0842628 C81.9743819,19.7949538 77.7594308,18.7160967 73.8985905,16.9837011 C73.8802547,16.9744801 73.8619189,16.968717 73.843583,16.9606486" id="Fill-17"></path>
                            <path d="M12.782716,44.3085245 C18.4370305,41.6182974 23.293736,37.5172571 26.9104804,32.4560801 C26.6961803,32.2416918 26.4807341,32.0353719 26.265288,31.8163731 C23.639825,29.1572669 20.8745512,26.0659263 18.2594021,22.64724 C16.9770393,23.5578139 15.636231,24.3888567 14.2415612,25.1299946 C14.2346853,25.1346051 14.2266633,25.1392156 14.2197874,25.1426735 C13.5287555,25.5092083 12.8262636,25.8549958 12.1111659,26.1777309 C12.089392,26.1881045 12.0653263,26.1973255 12.0424065,26.2076991 C11.3548125,26.5154501 10.6580506,26.8036063 9.94868277,27.0698628 C9.91201109,27.0836943 9.87763139,27.0975258 9.8421057,27.1113573 C9.14305182,27.3718505 8.43483001,27.6081387 7.71744029,27.8248322 C7.61086322,27.8582584 7.50428615,27.8882266 7.3965631,27.9181949 C6.72501297,28.1152938 6.0465869,28.2962559 5.35899292,28.4553182 C5.30856936,28.4668444 5.2581458,28.4818286 5.20657625,28.4922022 C4.49950044,28.6524171 3.78440269,28.7861216 3.063575,28.904842 C2.90199041,28.9313524 2.73925984,28.9555575 2.57882124,28.9797626 C1.85111761,29.089262 1.11883001,29.1849299 0.378520489,29.2506295 C4.1614334,34.8385563 8.46462575,39.8778335 12.782716,44.3085245" id="Fill-19"></path>
                            <path d="M38.8808041,1.5251536 C38.6722339,1.50555897 38.4636637,1.49518535 38.2562395,1.47213284 C37.5388498,1.39721221 36.828336,1.3003917 36.1212602,1.19204493 C36.0891725,1.18743443 36.0593768,1.18397656 36.028435,1.17936606 C35.2812496,1.06410354 34.542086,0.928093773 33.8063605,0.778252503 L33.8063605,19.2202549 C36.7710365,19.8276884 39.8319758,20.1711707 42.9742803,20.1711707 C46.1177308,20.1711707 49.17867,19.8276884 52.1422001,19.2191023 L52.1422001,0.777099878 C50.9595384,1.02030379 49.7585409,1.21163956 48.5449375,1.36032821 C48.039556,1.42487521 47.5330284,1.48250647 47.0230628,1.5297641 C46.6368642,1.56319023 46.2506656,1.59661636 45.861029,1.62197411 C44.9064194,1.6853685 43.9460798,1.72916825 42.9742803,1.72916825 C42.1640654,1.72916825 41.3595804,1.7038105 40.5608254,1.66001074 C39.9969983,1.63004249 39.4389012,1.57702173 38.8808041,1.5251536" id="Fill-21"></path>
                        </g>
                        <path d="M128.925926,101.717532 C114.519605,101.717532 102.054079,93.456 95.9991653,81.4245974 C91.8401531,82.6567013 87.4405559,83.3279221 82.8809524,83.3279221 C79.405708,83.3279221 76.0260069,82.9302468 72.7717784,82.2027078 C69.0870294,98.631526 54.4021362,110.912338 36.8359788,110.912338 C18.053083,110.912338 2.56470503,96.8718701 0.296990079,78.7305195 C0.108205688,80.2384675 0,81.7705519 0,83.3279221 C0,103.640396 16.4921584,120.107143 36.8359788,120.107143 C54.4021362,120.107143 69.0870294,107.826331 72.7717784,91.397513 C76.0260069,92.1250519 79.405708,92.5227273 82.8809524,92.5227273 C87.4405559,92.5227273 91.8401531,91.8515065 95.9991653,90.6194026 C102.054079,102.650805 114.519605,110.912338 128.925926,110.912338 C149.269746,110.912338 165.761905,94.4455909 165.761905,74.1331169 C165.761905,72.5757468 165.653699,71.0436623 165.464915,69.5357143 C163.1972,87.6770649 147.708822,101.717532 128.925926,101.717532" id="Fill-24" fill="#C3C3C3"></path>
                        <path d="M128.925368,37.874815 C128.616868,37.874815 128.312972,37.8910779 128.006773,37.8992094 C123.749926,16.6783961 105.16392,0.702380952 82.8805121,0.702380952 C57.4499381,0.702380952 36.835656,21.5050043 36.835656,47.1679235 C15.625093,47.1679235 -1.39769025,65.2581208 0.0907097207,86.9830852 C1.33622308,105.166214 15.8345971,119.956196 33.839287,121.391981 C52.7119224,122.898626 68.8782713,110.036964 72.7713639,92.4962218 C76.0255841,93.231539 79.4052766,93.633466 82.8805121,93.633466 C87.4401039,93.633466 91.8396899,92.955069 95.9986916,91.7097925 C102.538212,104.842116 116.554266,113.531173 132.415568,112.057054 C150.217661,110.404042 164.439766,95.6849197 165.671466,77.6864918 C167.157563,55.962689 150.13478,37.874815 128.925368,37.874815 Z" id="Stroke-26" stroke="#7A7A7A" stroke-linecap="round" stroke-linejoin="round"></path>
                        <path d="M107.071496,104.426708 C102.307641,108.545686 96.8058877,112.182054 91.7403763,115.092768 L91.7403763,92.0119048 C88.7400528,92.6241385 85.6411108,92.9690262 82.4586331,92.9690262 C79.2773156,92.9690262 76.1783735,92.6241385 73.1768898,92.0130621 L73.1768898,129.818782 L73.1768898,129.839614 L73.1768898,130.204176 C70.7207085,128.124434 68.125301,125.77503 65.5414957,123.179113 C62.8834365,120.509126 60.0838307,117.405136 57.4373736,113.972461 C52.2303156,117.642391 46.0405531,120.014941 39.3333333,120.602871 C50.310155,136.688761 65.6285121,148.362866 73.1768898,153.53271 L73.1768898,176.297619 L91.7403763,176.297619 L91.7403763,135.993199 C96.5599215,133.687775 103.752112,129.909054 110.986071,124.857258 C117.201358,120.51607 122.335323,116.02327 126.428571,111.398533 C119.221298,110.932125 112.574409,108.418379 107.071496,104.426708 Z" id="Stroke-28" stroke="#7A7A7A" stroke-linecap="round" stroke-linejoin="round"></path>
                    </g>
                    <g id="tree" opacity="0.300000012" transform="translate(861.380952, 165.119048)">
                        <path d="M67.8952036,66.1603276 C64.8985853,68.7690141 61.437805,71.0720466 58.2514349,72.9154989 L58.2514349,58.297619 C56.3641346,58.6853671 54.4148001,58.903796 52.412919,58.903796 C50.4117676,58.903796 48.4624331,58.6853671 46.574403,58.298352 L46.574403,82.2419745 L46.574403,82.2551682 L46.574403,82.4860578 C45.0293857,81.1688874 43.3967907,79.6809319 41.7714938,78.036851 C40.0994888,76.3458593 38.3384465,74.3799989 36.6737396,72.2059713 C33.3983322,74.5302604 29.5047719,76.0328755 25.2857143,76.4052309 C32.1904892,86.5929615 41.8262299,93.9865609 46.574403,97.260796 L46.574403,111.678571 L58.2514349,111.678571 L58.2514349,86.1524387 C61.2830843,84.6923366 65.8072043,82.2991471 70.3575977,79.0996764 C74.2672139,76.3502572 77.496643,73.5048172 80.0714286,70.5758172 C75.5378209,70.280425 71.3567137,68.6883859 67.8952036,66.1603276" id="Fill-1" fill="#E6E6E6"></path>
                        <path d="M80.8515021,24.4754492 C80.6580356,24.4754492 80.4674567,24.4858499 80.2754341,24.4910503 C77.605886,10.9195999 65.950255,0.702380952 51.9759143,0.702380952 C36.0279273,0.702380952 23.1003266,14.0063843 23.1003266,30.4187163 C9.79878716,30.4187163 -0.876517616,41.9880285 0.0568857571,55.8819011 C0.837970405,67.510646 9.93017108,76.9693556 21.2212478,77.8875903 C33.0566293,78.8511425 43.1948481,70.6256609 45.6362791,59.4077443 C47.6770612,59.8780053 49.7965294,60.1350516 51.9759143,60.1350516 C54.8353194,60.1350516 57.5943818,59.7011931 60.2025693,58.9047953 C64.3036246,67.3033746 73.0933535,72.8603293 83.0402716,71.9175786 C94.2042957,70.8604199 103.123243,61.4470278 103.895665,49.9364053 C104.827624,36.0432756 94.1523196,24.4754492 80.8515021,24.4754492" id="Fill-3" fill="#FFFFFF"></path>
                        <line x1="51.2738095" y1="65.3214286" x2="51.2738095" y2="76.5595238" id="Stroke-5" stroke="#C3C3C3" stroke-linecap="round" stroke-linejoin="round"></line>
                        <line x1="51.2738095" y1="82.1785714" x2="51.2738095" y2="106.059524" id="Stroke-7" stroke="#C3C3C3" stroke-linecap="round" stroke-linejoin="round"></line>
                        <path d="M57.5952381,76.5595238 C57.5952381,79.6654524 55.082119,82.1785714 51.9761905,82.1785714" id="Stroke-9" stroke="#C3C3C3" stroke-linecap="round" stroke-linejoin="round"></path>
                        <path d="M46.3571429,89.202381 C46.3571429,92.3083095 48.8702619,94.8214286 51.9761905,94.8214286" id="Stroke-11" stroke="#C3C3C3" stroke-linecap="round" stroke-linejoin="round"></path>
                        <path d="M80.0713408,42.8446689 C78.0983219,42.8446689 76.2475192,42.3325846 74.6362321,41.4404762 C74.2822266,42.816571 74.3728351,44.3724923 75.5029837,46.0457224 C76.2215307,47.1078231 77.2807377,47.9240672 78.519757,48.2563249 C82.2901969,49.2671469 85.6904762,46.453142 85.6904762,42.8446689 C85.6904762,42.3592776 85.6216418,41.8900426 85.5064495,41.4404762 C83.8951624,42.3325846 82.0443597,42.8446689 80.0713408,42.8446689" id="Fill-13" fill="#C3C3C3"></path>
                        <path d="M40.7380075,24.5827641 C38.7649885,24.5827641 36.9141858,24.0706798 35.3028987,23.1785714 C34.9488932,24.5546662 35.0395018,26.1105875 36.1696504,27.7845201 C36.8881973,28.8459183 37.9474043,29.6621624 39.1864237,29.9944201 C42.9568636,31.0052421 46.3571429,28.1912372 46.3571429,24.5827641 C46.3571429,24.0973728 46.2883084,23.6288403 46.1731162,23.1785714 C44.5618291,24.0706798 42.7110264,24.5827641 40.7380075,24.5827641" id="Fill-15" fill="#C3C3C3"></path>
                        <g id="Group-23" transform="translate(25.285714, 58.297619)" fill="#C3C3C3">
                            <path d="M46.4499958,10.6004054 C45.990805,10.3943736 45.5409854,10.1724933 45.0983745,9.9383663 C45.0702608,9.92395849 45.0407054,9.91099145 45.0125916,9.89514286 C44.5707016,9.6588547 44.1381828,9.40743834 43.7135935,9.14377534 C43.6883633,9.12792674 43.6616913,9.11423932 43.6371819,9.09839072 C43.188804,8.81743834 42.7512392,8.52279853 42.3244873,8.21303053 C40.3630146,9.91171184 38.2004206,11.4756801 36.0479187,12.8667546 C38.0930117,16.295094 41.0074676,19.139917 44.4820352,21.1173895 C44.483477,21.1173895 44.4856396,21.1173895 44.488523,21.1166691 C48.4720211,18.3575726 51.7505136,15.4976215 54.3513933,12.5526642 C51.5645305,12.3718462 48.9131903,11.6975604 46.4845973,10.6148132 C46.4730634,10.6090501 46.4615296,10.6054481 46.4499958,10.6004054" id="Fill-17"></path>
                            <path d="M8.0407407,27.6928278 C11.5974869,26.0114359 14.6525114,23.4482857 16.9275602,20.2850501 C16.7927586,20.1510574 16.657236,20.0221074 16.5217134,19.8852332 C14.8702125,18.2232918 13.1307661,16.2912039 11.4857529,14.154525 C10.6791054,14.7236337 9.8356937,15.2430354 8.95840141,15.7062466 C8.95407622,15.7091282 8.94903017,15.7120098 8.94470498,15.7141709 C8.51002359,15.9432552 8.06813355,16.1593724 7.618314,16.3610818 C7.60461758,16.3675653 7.58947942,16.3733284 7.57506212,16.379812 C7.14254333,16.5721563 6.70425761,16.752254 6.25804239,16.9186642 C6.23497472,16.9273089 6.21334878,16.9359536 6.19100197,16.9445983 C5.75127453,17.1074066 5.30578017,17.2550867 4.85451889,17.3905201 C4.78747848,17.4114115 4.72043806,17.4301416 4.65267679,17.4488718 C4.23025009,17.5720586 3.80349821,17.68516 3.37097942,17.7845739 C3.33926137,17.7917778 3.30754333,17.8011429 3.27510442,17.8076264 C2.83033092,17.9077607 2.38051137,17.991326 1.9270875,18.0655263 C1.82544558,18.0820952 1.7230828,18.0972234 1.62216175,18.1123516 C1.16441269,18.1807888 0.703780169,18.2405812 0.238101598,18.2816435 C2.61767585,21.7740977 5.32452265,24.9236459 8.0407407,27.6928278" id="Fill-19"></path>
                            <path d="M24.45728,0.953221001 C24.3260826,0.940974359 24.1948852,0.934490842 24.0644087,0.920083028 C23.6131475,0.873257631 23.1662114,0.812744811 22.7214379,0.745028083 C22.7012537,0.74214652 22.6825112,0.739985348 22.6630478,0.737103785 C22.1930441,0.665064713 21.7280864,0.580058608 21.2652913,0.486407814 L21.2652913,12.0126593 C23.1301681,12.3923053 25.0555977,12.6069817 27.0322086,12.6069817 C29.0095403,12.6069817 30.9349698,12.3923053 32.7991258,12.0119389 L32.7991258,0.485687424 C32.0551935,0.637689866 31.2997273,0.757274725 30.5363317,0.850205128 C30.2184304,0.890547009 29.8998082,0.926566545 29.5790234,0.956102564 C29.336092,0.976993895 29.0931606,0.997885226 28.8480666,1.01373382 C28.2475864,1.05335531 27.6435018,1.08073016 27.0322086,1.08073016 C26.5225572,1.08073016 26.0165102,1.06488156 25.5140676,1.03750672 C25.1594022,1.01877656 24.8083411,0.985638584 24.45728,0.953221001" id="Fill-21"></path>
                        </g>
                        <path d="M80.8518519,64.8106061 C71.8173793,64.8106061 64.0000159,59.5324048 60.2028664,51.8456753 C57.5946723,52.6328528 54.8356028,53.0616883 51.9761905,53.0616883 C49.7967999,53.0616883 47.6773264,52.807618 45.636539,52.3428014 C43.3257642,62.8389908 34.1165939,70.6850649 23.1005291,70.6850649 C11.3214249,70.6850649 1.60837434,61.7147662 0.186248016,50.1244589 C0.0678578042,51.0878701 0,52.0667018 0,53.0616883 C0,66.0391023 10.34254,76.5595238 23.1005291,76.5595238 C34.1165939,76.5595238 43.3257642,68.7134497 45.636539,58.2172603 C47.6773264,58.6820768 49.7967999,58.9361472 51.9761905,58.9361472 C54.8356028,58.9361472 57.5946723,58.5073117 60.2028664,57.7201342 C64.0000159,65.4068636 71.8173793,70.6850649 80.8518519,70.6850649 C93.6098409,70.6850649 103.952381,60.1646434 103.952381,47.1872294 C103.952381,46.192243 103.884523,45.2134113 103.766133,44.25 C102.344007,55.8403074 92.630956,64.8106061 80.8518519,64.8106061" id="Fill-24" fill="#C3C3C3"></path>
                        <path d="M80.8515021,24.4754492 C80.6580356,24.4754492 80.4674567,24.4858499 80.2754341,24.4910503 C77.605886,10.9195999 65.950255,0.702380952 51.9759143,0.702380952 C36.0279273,0.702380952 23.1003266,14.0063843 23.1003266,30.4187163 C9.79878716,30.4187163 -0.876517616,41.9880285 0.0568857571,55.8819011 C0.837970405,67.510646 9.93017108,76.9693556 21.2212478,77.8875903 C33.0566293,78.8511425 43.1948481,70.6256609 45.6362791,59.4077443 C47.6770612,59.8780053 49.7965294,60.1350516 51.9759143,60.1350516 C54.8353194,60.1350516 57.5943818,59.7011931 60.2025693,58.9047953 C64.3036246,67.3033746 73.0933535,72.8603293 83.0402716,71.9175786 C94.2042957,70.8604199 103.123243,61.4470278 103.895665,49.9364053 C104.827624,36.0432756 94.1523196,24.4754492 80.8515021,24.4754492 Z" id="Stroke-26" stroke="#7A7A7A" stroke-linecap="round" stroke-linejoin="round"></path>
                        <path d="M67.8952036,66.1603276 C64.8985853,68.7690141 61.437805,71.0720466 58.2514349,72.9154989 L58.2514349,58.297619 C56.3641346,58.6853671 54.4148001,58.903796 52.412919,58.903796 C50.4117676,58.903796 48.4624331,58.6853671 46.574403,58.298352 L46.574403,82.2419745 L46.574403,82.2551682 L46.574403,82.4860578 C45.0293857,81.1688874 43.3967907,79.6809319 41.7714938,78.036851 C40.0994888,76.3458593 38.3384465,74.3799989 36.6737396,72.2059713 C33.3983322,74.5302604 29.5047719,76.0328755 25.2857143,76.4052309 C32.1904892,86.5929615 41.8262299,93.9865609 46.574403,97.260796 L46.574403,111.678571 L58.2514349,111.678571 L58.2514349,86.1524387 C61.2830843,84.6923366 65.8072043,82.2991471 70.3575977,79.0996764 C74.2672139,76.3502572 77.496643,73.5048172 80.0714286,70.5758172 C75.5378209,70.280425 71.3567137,68.6883859 67.8952036,66.1603276 Z" id="Stroke-28" stroke="#7A7A7A" stroke-linecap="round" stroke-linejoin="round"></path>
                    </g>
                </g>
            </g>
        </g>
    </g>
</svg>