<?xml version="1.0" encoding="UTF-8"?>
<svg width="210px" height="175px" viewBox="0 0 210 175" version="1.1" xmlns="http://www.w3.org/2000/svg" xmlns:xlink="http://www.w3.org/1999/xlink">
    <!-- Generator: Sketch 62 (91390) - https://sketch.com -->
    <title>trees</title>
    <desc>Created with Sketch.</desc>
    <g id="Comps" stroke="none" stroke-width="1" fill="none" fill-rule="evenodd" opacity="0.5">
        <g id="KW-text-confirmation-lemonade-paid" transform="translate(-1043.000000, -1645.000000)">
            <g id="bg-graphics" transform="translate(3.500000, 1491.000000)">
                <g id="trees" transform="translate(1040.000000, 154.000000)">
                    <polygon id="Fill-1" fill="#E6E6E6" points="146.25 177.45 167.05 177.45 167.05 146.2513 146.25 146.2513"></polygon>
                    <polygon id="Fill-2" fill="#E6E6E6" points="31.85 177.45 52.65 177.45 52.65 146.2513 31.85 146.2513"></polygon>
                    <polygon id="Fill-3" fill="#FFFFFF" points="11.04948 104.64974 21.44948 104.64974 0.65078 146.24974 83.85078 146.24974 63.05078 104.64974 73.45078 104.64974 42.24948 42.24974"></polygon>
                    <polygon id="Fill-4" fill="#FFFFFF" points="125.44974 63.05039 135.84974 63.05039 115.04974 104.64909 125.44974 104.64909 104.64974 146.25039 208.64974 146.25039 187.85104 104.64909 198.24974 104.64909 177.44974 63.05039 187.85104 63.05039 156.64974 0.64909"></polygon>
                    <g id="Group-15" transform="translate(15.600000, 62.400000)" fill="#C3C3C3">
                        <polygon id="Fill-5" points="130.65 94.25 151.45 94.25 151.45 83.85 130.65 83.85"></polygon>
                        <polygon id="Fill-7" points="16.25 94.25 37.05 94.25 37.05 83.85 16.25 83.85"></polygon>
                        <polygon id="Fill-9" points="167.05 11.05 115.05 11.05 120.25 0.65 161.85 0.65"></polygon>
                        <polygon id="Fill-11" points="52.65 52.65 0.65 52.65 5.85 42.25 47.45 42.25"></polygon>
                        <polygon id="Fill-13" points="177.45 52.65 172.25 42.25 109.85 42.25 104.65 52.65"></polygon>
                    </g>
                    <g id="Group-22" transform="translate(31.200000, 104.000000)" stroke="#7A7A7A" stroke-linecap="round" stroke-linejoin="round" stroke-width="1.3">
                        <polyline id="Stroke-16" points="135.85 42.25 135.85 73.45 115.05 73.45 115.05 42.25"></polyline>
                        <polyline id="Stroke-18" points="21.45 42.25 21.45 73.45 0.65 73.45 0.65 42.25"></polyline>
                        <polyline id="Stroke-20" points="94.25 0.65 73.45 42.25 177.45 42.25 156.65 0.65"></polyline>
                    </g>
                    <polyline id="Stroke-23" stroke="#7A7A7A" stroke-width="1.3" stroke-linecap="round" stroke-linejoin="round" points="135.85 63.05 115.05 104.65 135.85 104.65"></polyline>
                    <polyline id="Stroke-24" stroke="#7A7A7A" stroke-width="1.3" stroke-linecap="round" stroke-linejoin="round" points="156.65 0.65 125.45 63.05 146.25 63.05"></polyline>
                    <polyline id="Stroke-26" stroke="#7A7A7A" stroke-width="1.3" stroke-linecap="round" stroke-linejoin="round" points="177.45 104.65 198.25 104.65 177.45 63.05"></polyline>
                    <polyline id="Stroke-27" stroke="#7A7A7A" stroke-width="1.3" stroke-linecap="round" stroke-linejoin="round" points="167.05 63.05 187.85 63.05 156.65 0.65"></polyline>
                    <polyline id="Stroke-29" stroke="#7A7A7A" stroke-width="1.3" stroke-linecap="round" stroke-linejoin="round" points="42.25 42.25 11.05 104.65 31.85 104.65"></polyline>
                    <polyline id="Stroke-30" stroke="#7A7A7A" stroke-width="1.3" stroke-linecap="round" stroke-linejoin="round" points="21.45 104.65 0.65 146.25 83.85 146.25 63.05 104.65"></polyline>
                    <polyline id="Stroke-32" stroke="#7A7A7A" stroke-width="1.3" stroke-linecap="round" stroke-linejoin="round" points="52.65 104.65 73.45 104.65 42.25 42.25"></polyline>
                </g>
            </g>
        </g>
    </g>
</svg>