<svg width="68" height="53" viewBox="0 0 68 53" fill="none" xmlns="http://www.w3.org/2000/svg">
<path fill-rule="evenodd" clip-rule="evenodd" d="M1.24609 7.95032H66.9096V51.9751H1.24609V15.1106V7.95032Z" stroke="#7A7A7A" stroke-width="0.75" stroke-linejoin="round"/>
<path fill-rule="evenodd" clip-rule="evenodd" d="M23.1406 1.24524H45.0141V7.95043H23.1406V2.33585V1.24524Z" fill="#E4E4E3"/>
<path fill-rule="evenodd" clip-rule="evenodd" d="M23.1406 1.24524H45.0141V7.95043H23.1406V2.33585V1.24524Z" stroke="#7A7A7A" stroke-width="0.75" stroke-linejoin="round"/>
<path fill-rule="evenodd" clip-rule="evenodd" d="M25.123 3.34778H43.0293V7.9502H25.123V4.09709V3.34778Z" fill="#FEFEFE"/>
<path fill-rule="evenodd" clip-rule="evenodd" d="M25.123 3.34778H43.0293V7.9502H25.123V4.09709V3.34778Z" stroke="#7A7A7A" stroke-width="0.75" stroke-linejoin="round"/>
<path d="M1.24609 15.1107L25.5445 29.9628H42.0223L66.9096 15.8332" stroke="#7A7A7A" stroke-width="0.75" stroke-linejoin="round"/>
<path fill-rule="evenodd" clip-rule="evenodd" d="M1.24609 18.1646L25.5445 33.0167H42.0223L66.9096 18.8884V15.5943L41.7538 29.9848H25.6798L1.24609 15.1105V18.1646Z" fill="#E4E4E3"/>
<path fill-rule="evenodd" clip-rule="evenodd" d="M66.9096 18.8882L42.0223 33.0165H25.5445L1.24609 18.1651V15.111L25.6798 29.9853H41.7538L66.9096 15.5942V18.8882Z" stroke="#7A7A7A" stroke-width="0.75" stroke-linejoin="round"/>
<path fill-rule="evenodd" clip-rule="evenodd" d="M30.4531 25.3239H37.6994V35.2388H30.4531V26.9369V25.3239Z" fill="#E4E4E3"/>
<path fill-rule="evenodd" clip-rule="evenodd" d="M30.4531 25.3239H37.6994V35.2388H30.4531V26.9369V25.3239Z" stroke="#7A7A7A" stroke-width="0.75" stroke-linejoin="round"/>
<path fill-rule="evenodd" clip-rule="evenodd" d="M30.4531 27.0229H37.6994V33.5398H30.4531V28.0828V27.0229Z" fill="#FEFEFE"/>
<path fill-rule="evenodd" clip-rule="evenodd" d="M30.4531 27.0229H37.6994V33.5398H30.4531V28.0828V27.0229Z" stroke="#7A7A7A" stroke-width="0.75" stroke-linejoin="round"/>
</svg>
