<?xml version="1.0" encoding="UTF-8"?>
<svg width="368px" height="111px" viewBox="0 0 368 111" version="1.1" xmlns="http://www.w3.org/2000/svg" xmlns:xlink="http://www.w3.org/1999/xlink">
    <!-- Generator: Sketch 62 (91390) - https://sketch.com -->
    <title>provider</title>
    <desc>Created with Sketch.</desc>
    <defs>
        <linearGradient x1="72.1035156%" y1="55.7635985%" x2="19.0436198%" y2="42.8882031%" id="linearGradient-1">
            <stop stop-color="#4427B3" offset="0%"></stop>
            <stop stop-color="#564CDC" offset="100%"></stop>
        </linearGradient>
    </defs>
    <g id="Comps" stroke="none" stroke-width="1" fill="none" fill-rule="evenodd">
        <g id="KW-quote-lemonade-pay-1a" transform="translate(-536.000000, -61.000000)">
            <g id="provider" transform="translate(536.000000, 61.000000)">
                <text id="Simple,-Fast-and-Aff" font-family="Effra-Regular, Effra" font-size="18" font-weight="normal" line-spacing="26" fill="#6A6A6A">
                    <tspan x="75" y="105"> Simple, Fast and Affordable.</tspan>
                </text>
                <path d="M340.476331,55.109375 L340.240478,52.9238877 C340.188066,52.5589242 339.072442,43.9500792 344.373528,37.891685 C345.915935,36.1226854 347.7803,35.109375 349.483686,35.109375 C350.9325,35.109375 352.126741,35.8092462 352.733222,37.1402896 C355.660799,43.5851157 340.476331,55.109375 340.476331,55.109375 L340.476331,55.109375 Z M315.864538,43.109375 L315.605363,39.6195086 L315.566967,39.17864 C315.557368,39.0715131 314.61666,28.0333171 315.456578,20.1759674 C316.378087,11.6305331 319.401791,6.109375 323.159822,6.109375 C323.927746,6.109375 324.666874,6.43899638 325.242817,7.03231487 C327.114633,8.96059994 327.666579,14.1150543 326.490695,18.7544752 C324.60448,26.1709563 321.609574,32.0464574 319.416189,36.3480164 C318.79225,37.5634953 318.245104,38.6430053 317.813147,39.578306 L315.864538,43.109375 L315.864538,43.109375 Z M298.284987,68.109375 C294.765631,68.109375 293.108014,64.2125415 293.108014,60.5521355 C293.108014,41.6632588 302.128125,37.939524 306.073323,39.391865 C306.073323,39.391865 306.203539,42.9804983 306.523801,47.5992804 C306.798311,51.6101058 307.048185,56.3555456 307.108014,56.76085 C307.108014,56.76085 303.827974,68.109375 298.284987,68.109375 L298.284987,68.109375 Z M266.108014,39.9984488 C266.108014,39.9984488 264.892374,68.109375 253.823654,68.109375 C248.517493,68.109375 248.108014,62.4430809 248.108014,60.7041733 C248.108014,40.6558407 263.975313,37.0889595 266.108014,39.9984488 Z M170.356312,68.109375 C164.273243,68.109375 162.108014,62.2675303 162.108014,56.7990058 C162.108014,46.8383324 168.10529,39.109375 173.260987,39.109375 C178.285953,39.109375 180.108014,45.7881132 180.108014,50.280262 C180.108014,60.2778571 175.82658,68.109375 170.356312,68.109375 Z M67.8754061,39.7253622 C73.8997799,35.3023802 76.6370756,40.9548852 74.2482334,44.7713576 C70.9456686,50.0525302 63.4152014,55.2759399 61.2276878,56.109375 C61.2276878,56.109375 59.6596471,45.7657034 67.8754061,39.7294881 L67.8754061,39.7253622 Z M322.069803,71.7379992 C329.421386,72.1343506 334.470352,67.2473379 334.470352,67.2473379 C336.892897,70.8977342 341.210302,72.677352 347.314634,72.677352 C354.022604,72.677352 360.966432,67.8537555 364.940044,63.3630942 C367.298627,60.6996128 367.554473,59.1657329 366.559071,58.3294315 C365.659612,57.5684368 363.660813,58.5672423 361.83391,60.1447209 C359.37139,62.2770914 354.150527,65.3448512 349.581273,65.3448512 C344.040602,65.3448512 341.518117,61.9005575 341.518117,61.9005575 C352.795341,55.3211244 361.106348,47.8459371 361.106348,41.4329715 C361.106348,34.2471207 355.533696,31.0327109 350.013013,31.0327109 C340.134949,31.0327109 329.469357,39.6692078 329.469357,53.6207769 C329.469357,58.2303436 331.092382,62.1462954 331.092382,62.1462954 C331.092382,62.1462954 329.133559,65.0634417 322.901304,64.5719659 C316.281281,64.0487821 316.705027,52.6021538 316.705027,52.6021538 C316.705027,52.6021538 318.727811,48.9874291 319.491353,47.6437978 C323.97266,39.7682956 330.108973,28.9875377 331.096379,16.0585551 C331.648048,8.81325164 329.505335,4.92504445 327.606476,2.93932396 C325.91949,1.1597062 323.664845,0.109375 321.578099,0.109375 C313.918701,0.109375 308.605893,7.62419746 307.318667,15.0518226 C306.059423,22.3327977 306.567118,33.1650814 306.567118,33.1650814 C306.567118,33.1650814 299.683255,31.5360771 292.779403,36.0188114 C286.463198,40.1170848 283.656884,48.3215587 282.777413,52.4673943 C282.377653,54.3183553 282.237737,56.2644407 282.369658,58.2422342 C282.429622,59.1657329 282.725444,60.9453507 282.725444,60.9453507 C282.725444,60.9453507 280.454808,65.5232093 276.417234,65.5232093 C269.913142,65.5232093 274.206563,36.6807183 274.458411,35.059641 C274.658291,33.7516814 275.489792,30.9653311 270.900549,30.7711189 C268.130214,30.6522135 266.974908,31.643092 266.763035,32.9351976 L266.575148,34.2233396 C266.575148,34.2233396 257.172798,28.0997105 246.527194,39.1262064 C240.854603,44.992207 238.79584,53.4741269 238.703895,60.2834438 L238.6959,60.7115034 C238.6959,60.7115034 236.3653,67.1641041 230.936562,66.2009702 C227.322733,65.5549174 226.867007,59.4035437 226.867007,57.0254354 C226.867007,52.4673943 227.966347,47.3822059 228.849816,43.295823 C229.40948,40.7076484 229.889191,38.4761901 229.889191,37.2554278 C229.889191,32.8955624 228.60996,31.0327109 225.623754,31.0327109 C221.550202,31.0327109 217.896397,34.1202882 213.846831,38.884432 C208.681934,44.9644624 204.836245,54.4689689 204.836245,54.4689689 C204.836245,54.4689689 205.008142,52.7686214 205.275981,51.1316901 C205.447877,50.0734319 205.915596,45.1666016 206.783075,40.7155755 C207.262787,38.2502698 207.438681,36.2288777 207.470662,36.0148479 C207.622571,34.8059762 207.334744,33.763572 206.647157,32.9986138 C205.911958,32.2220281 204.878883,31.7912886 203.804865,31.8135231 C201.993953,31.8135231 199.667351,32.9708692 198.560016,36.2169871 C198.056319,37.6834873 197.768492,38.7655266 197.40471,40.5055092 L197.068912,42.1226229 L195.809669,41.0247295 C190.828661,36.6648642 183.92481,31.4686974 174.026757,31.4686974 C160.091131,31.4686974 152.567651,43.8150434 152.567651,55.4321028 C152.567651,56.8668948 152.659596,58.2303436 152.839488,59.4947046 L152.911445,59.9941073 C152.911445,59.9941073 150.001193,66.7360446 144.892263,65.5073552 C142.657606,64.9683173 141.282432,62.6892968 141.282432,57.2553192 C141.282432,52.7369133 142.229863,46.5934666 142.801519,42.9073987 C142.989406,41.6549283 143.145313,40.6680133 143.185289,40.2082457 L143.313212,38.8447969 C143.700979,34.7425599 143.812912,32.8876354 142.393764,31.9958448 C141.390479,31.3595283 140.222756,31.0250011 139.031784,31.0327109 C137.860488,31.0327109 136.941041,31.5479677 136.121533,32.1107867 C134.858292,32.9748327 130.732771,38.2304522 122.937455,50.4063671 C122.870386,50.5108706 122.801078,50.6139454 122.72958,50.7155212 L121.878092,52.2850727 L119.835319,56.5934124 L120.950649,50.3310603 L121.018608,49.9228184 C121.202497,48.8685237 121.522305,47.0135991 121.658224,46.4230355 L121.986027,45.0635503 C122.509712,42.8836176 123.605054,38.3453941 123.752965,37.5447643 C124.220684,34.8892099 124.032797,33.1095922 123.185306,32.1187137 C122.557683,31.3894271 121.506315,31.0327109 119.971237,31.0327109 C117.140938,31.0327109 114.866305,33.0897746 110.940663,39.1856591 C110.329031,40.1369024 108.038407,43.7754082 106.223498,46.6568829 C103.880905,50.390513 101.750186,53.1491187 101.750186,53.1491187 L102.245888,48.1590547 C102.62566,45.9196693 104.044807,35.6264235 104.060797,35.1468384 C104.0568,32.9748327 102.933475,31.9641366 100.530918,31.9641366 C99.5515068,31.9641366 97.1649408,32.1702394 96.1655413,34.0806531 C95.2460938,35.8245992 92.7036214,43.7357731 91.4683637,55.8324177 C91.4683637,55.8324177 81.6262774,64.9484998 71.1045995,64.9484998 C67.2269295,64.9484998 64.1607719,63.4938901 63.0494396,60.6599777 C63.0494396,60.6599777 68.6780576,57.8458828 71.348453,56.0623015 C78.1963384,51.5042604 83.1733479,46.8590221 83.1733479,40.8939336 C83.1733479,33.5931409 76.181549,30.3073878 70.4090175,31.0327109 C60.4909769,32.2772542 52.1080139,42.2732364 52.1080139,53.8863323 C52.1080139,64.8058133 58.4322139,72.677352 69.4415988,72.677352 C82.1939363,72.677352 90.9966471,62.5624644 90.9966471,62.5624644 L90.7328056,67.1799581 C90.5689041,69.5858111 91.6002844,72.677352 95.7977623,72.677352 C96.9130921,72.677352 98.9478695,72.3364898 100.031219,70.0495422 C104.074033,61.5830116 108.560119,53.3316255 113.471143,45.3291057 L113.703004,44.9565354 L114.89029,42.7686757 L116.657229,39.9307997 L115.242079,46.0187571 C114.986233,47.405987 112.731587,59.7562965 112.407782,65.2021647 C112.24388,67.9528433 112.239883,70.6559599 113.35921,71.8172695 C113.922872,72.4038695 114.834324,72.677352 116.217493,72.677352 C119.307636,72.677352 121.226483,71.6468384 121.918067,69.6214827 C126.955041,54.9921527 132.375784,45.123003 132.607644,44.706834 L132.819517,44.3263367 L135.665807,38.9835199 C135.665807,38.9835199 133.419157,51.1673618 133.419157,59.474887 C133.419157,63.446328 134.230669,70.6757774 140.115133,72.0471533 C149.169693,74.1636697 154.734349,65.150639 154.734349,65.150639 L155.325994,66.7281175 C157.908442,70.9016977 162.201862,73.109375 167.746531,73.109375 C179.235627,73.109375 186.655169,64.5283673 186.655169,51.246632 C186.655169,43.0064865 182.70954,38.2859414 182.70954,38.2859414 C182.70954,38.2859414 187.090907,39.7643321 190.308974,41.9799364 C192.440583,43.4524458 194.437718,45.1076192 196.277388,46.9264018 L196.18944,47.4694032 C196.085503,48.1035655 195.98956,48.7377277 195.897616,49.379817 C195.52524,52.0206531 195.208029,54.6688474 194.946187,57.3226989 C194.694339,59.8593479 194.566416,62.1581859 194.566416,64.1439064 C194.566416,65.3527782 194.634375,66.4665256 194.778288,67.5525284 C194.906211,68.5632245 195.166055,69.4867232 195.545827,70.2873531 C195.665755,70.5330909 196.809068,72.677352 199.699331,72.677352 C201.626174,72.677352 202.865429,72.0075181 203.776881,69.9663084 C212.703518,50.0139792 219.85522,43.6208312 220.482843,42.9827054 C222.137849,41.3101025 221.390298,44.429388 221.390298,44.429388 L221.326336,44.83763 C220.838523,47.7917211 220.385431,50.7513456 219.967153,53.7159012 C219.715305,55.7452204 219.587381,57.6794152 219.587381,59.474887 C219.587381,65.0317336 220.882603,71.3654289 227.650536,72.3681979 C236.904976,73.7356102 240.111049,66.7915338 240.111049,66.7915338 C240.111049,66.7915338 243.461037,72.677352 251.364288,72.677352 C262.957322,72.677352 266.547165,64.1756145 266.547165,64.1756145 C267.766432,69.2885475 269.941126,72.0471533 275.165986,72.0471533 C280.822587,72.0471533 284.756224,65.9512688 284.756224,65.9512688 C284.756224,65.9512688 288.026259,72.677352 296.025452,72.677352 C305.283889,72.677352 310.017045,65.8997431 310.20893,65.6143701 L311.284284,64.0012199 C311.284284,64.0012199 314.298473,71.3178667 322.069803,71.7379992 L322.069803,71.7379992 Z M15.5901136,71.0983081 C7.38140077,70.819719 6.92759228,65.0484064 14.4656324,63.5575781 C21.3611118,62.1947502 27.1080139,64.3745219 27.1080139,64.3745219 C27.1080139,64.3745219 25.3690841,71.4258386 15.5901136,71.0983081 Z M50.3684427,9.11916851 C54.878367,9.51653933 54.5384997,16.2211151 53.3088675,20.4188728 C49.7154393,32.7415956 41.1080139,33.109375 41.1080139,33.109375 C41.1080139,33.109375 43.8307709,8.54847638 50.3684427,9.11916851 Z M37.0872969,50.1780367 C38.2330407,43.1008332 39.1740467,36.3587169 39.1740467,36.3587169 C39.1740467,36.3587169 54.084465,36.4596468 59.1674726,19.0552974 C62.1204205,8.92597412 57.9351091,0.294450355 49.2061951,0.112776561 C40.3945985,-0.0769716224 33.567383,7.64214599 30.3703247,30.7147177 C30.3703247,30.7147177 21.8500857,29.604489 18.0860615,22.9592653 C16.3064182,19.8102529 13.6212042,21.2757549 14.4598414,24.2632795 C17.2907342,34.3724167 29.8309196,35.9994065 29.8309196,35.9994065 C29.8309196,35.9994065 29.3112007,40.472619 28.5355598,45.947056 C27.7874796,51.2600051 26.4921198,57.9456007 26.4921198,57.9456007 C26.4921198,57.9456007 18.5782194,55.4667627 10.1603493,57.2067939 C-2.77749978,59.8834545 -4.19885204,75.7536696 11.632886,77.3201014 C30.1970851,79.1570253 33.70125,66.4600458 33.70125,66.4600458 C33.70125,66.4600458 37.3471563,68.2081514 42.520721,72.786331 C48.2612517,77.8610856 50.8795322,81.010098 52.0685859,79.8796833 C53.3718202,78.6443015 50.5015549,74.3285396 45.1862487,68.8218051 C39.1701095,62.5924126 35.0044843,60.9856088 35.0044843,60.9856088 C35.0044843,60.9856088 36.000612,56.8636323 37.0872969,50.1739996 L37.0872969,50.1780367 Z" id="lemonade-logo" fill="#FF0082"></path>
            </g>
        </g>
    </g>
</svg>