<svg xmlns="http://www.w3.org/2000/svg" id="svg-icon-footer-logo" viewBox="0 0 114.79 78.39"><title xmlns="http://www.w3.org/2000/svg">safeco-footer-logo</title><g xmlns="http://www.w3.org/2000/svg" data-name="Layer 2"><g data-name="Layer 1"><path d="M0 44.39h2.2v19.7H0zm6.16 5.45H8V52a6.4 6.4 0 0 1 4.72-2.4c2.34 0 3.7 1.42 3.7 4v10.49h-1.95v-9.81c0-2-.6-3-2.29-3a5.51 5.51 0 0 0-4.06 2.15v10.66h-2zm13.92 10.55a4.91 4.91 0 0 0 4.07 2.29c1.74 0 2.86-1 2.86-2.4 0-1.91-1.61-2-4.39-2.89-2.43-.74-3.6-2-3.6-3.89 0-2.32 1.77-3.9 4.31-3.9a6.34 6.34 0 0 1 5.12 2.4l-1.31 1.31a4.6 4.6 0 0 0-3.7-2C22 51.23 21 52 21 53.3a1.76 1.76 0 0 0 .71 1.47c.95.68 2.28.84 3.78 1.33 2.37.77 3.46 2 3.46 4 0 2.53-1.93 4.27-5.09 4.27a6.41 6.41 0 0 1-5.4-2.69zm21.56 3.7h-1.79v-2.15a6.45 6.45 0 0 1-4.75 2.39c-2.34 0-3.7-1.41-3.7-3.95V49.84h2v9.82c0 2 .6 3 2.28 3a5.46 5.46 0 0 0 4-2.15V49.84h2zm3.95-14.25h2v3.25c1-2.29 2.23-3.41 4.11-3.41a2.6 2.6 0 0 1 .47 0v2h-.25c-1.94 0-3.47 1.55-4.34 4.49v7.93h-2zm11.12 14.47a3.75 3.75 0 0 1-3.93-3.92c0-3.14 2.73-4.69 8.53-5.81v-1c0-1.28-1.15-2.23-2.86-2.23a3.74 3.74 0 0 0-3.45 2.2l-1.72-.93a5.57 5.57 0 0 1 5.31-3c3 0 4.77 1.53 4.77 4.23v8a7.24 7.24 0 0 0 .3 2.1v.22h-2.21l-.22-1.94a6 6 0 0 1-4.52 2.08zm4.6-7.87c-4.44.9-6.57 2-6.57 4a2.07 2.07 0 0 0 2.32 2.13c1.25 0 2.62-.73 4.25-2.18zm5.78-6.6h1.82V52a6.44 6.44 0 0 1 4.72-2.4c2.34 0 3.71 1.42 3.71 4v10.49h-1.93v-9.81c0-2-.6-3-2.29-3A5.55 5.55 0 0 0 69 53.47v10.62h-2zm18.55 14.49c-3.7 0-5.72-2.56-5.72-7.38s2.18-7.39 5.72-7.39a5.26 5.26 0 0 1 5.16 3.85l-2 .63a3.44 3.44 0 0 0-3.25-2.75c-2.31 0-3.64 1.93-3.64 5.66s1.3 5.7 3.75 5.7c1.49 0 2.84-1 3.72-2.86l1.66.88a5.67 5.67 0 0 1-5.4 3.66zM103.6 61a5.74 5.74 0 0 1-5.69 3.34c-3.68 0-5.72-2.53-5.72-7.38 0-4.69 2.17-7.36 5.55-7.36s5.55 2.57 5.55 7.17v.6h-9.06v.46c0 3 1.58 4.82 3.87 4.82a4.41 4.41 0 0 0 4.06-2.56zm-2.4-5.32c-.06-2.8-1.41-4.38-3.43-4.38s-3.41 1.55-3.51 4.38zm4.39 4.21h3.72v.55h-1.55v4h-.58v-4h-1.59zm8.6 4.57v-3.84l-1.29 3.84h-.61L111 60.63v3.83h-.6v-4.57h.89l1.31 3.87 1.31-3.87h.88v4.57zM1.35 75.93c0 .18.1.21.29.24s.44.05.44.19-.06.11-.18.11-.47-.06-1-.06H.18s-.21 0-.21-.11.33-.06.56-.2.27-.33.4-.65l1.77-4.5c.05-.13.07-.21.18-.21s.17.18.26.42l1.66 4.19c.16.4.27.65.54.79s.41.09.41.19-.06.11-.19.11H3.43s-.19 0-.19-.11.13-.12.35-.14S4 76.15 4 76a1.2 1.2 0 0 0-.11-.4l-.43-1.13c0-.06-.07-.07-.16-.07H1.9a.14.14 0 0 0-.12.08l-.27.78a2.81 2.81 0 0 0-.16.67zM2 74s0 .05.07.05h1.07c.05 0 .09 0 .09-.08a.44.44 0 0 0 0-.08l-.59-1.53c0-.05 0-.08-.07-.08s0 0-.06.07L2 73.92A.38.38 0 0 0 2 74zm8.4 2.19a1.48 1.48 0 0 0 1-.38c.39-.39.55-.7.67-.7s.1 0 .1.1a.8.8 0 0 1 0 .13l-.11.83c0 .24 0 .3-.24.3-.51 0-1.4-.08-2.65-.08-.57 0-.92.05-1 .05s-.24-.05-.24-.14.18-.1.42-.15.35-.14.35-.54v-4c0-.29 0-.36-.26-.41S8 71.18 8 71s.05-.12.15-.12a8.58 8.58 0 0 0 1 .07 10.55 10.55 0 0 0 1.09-.07c.11 0 .16.05.16.12s-.18.1-.47.15-.28.11-.28.41v4c.05.44.29.63.75.63zm3.76-.03c.22.08.4 0 .4.18s-.06.14-.18.14-.49-.06-.89-.06-.66.06-.82.06-.16 0-.16-.14.15-.11.33-.18.16-.16.16-.38V73.7c0-.23 0-.34-.17-.4s-.29 0-.29-.14.2-.18.6-.36.56-.42.66-.42.11.06.11.19v3.21c.03.22.09.32.25.38zm-.64-4.32a.48.48 0 1 1 .48-.49.5.5 0 0 1-.49.5zm1.54-.84c-.18-.08-.33-.07-.33-.16s.19-.14.5-.23c.49-.14.73-.32.8-.32s.13.05.13.17v2.55h.08l.13-.11a1.79 1.79 0 0 1 1.22-.49 1.84 1.84 0 0 1 1.8 2 2.14 2.14 0 0 1-2.25 2.21 4.9 4.9 0 0 1-1.37-.29c-.22 0-.32.46-.5.46s-.13-.06-.13-.18.09-.65.09-1.44v-3.79c-.02-.22-.02-.27-.17-.38zm1.08 4.48a.78.78 0 0 0 .89.83 1.51 1.51 0 0 0 1.44-1.69A1.47 1.47 0 0 0 17 73c-.8 0-.88.41-.88 1.22zm6.31.6a1.94 1.94 0 0 0 1.26-.51c.06 0 .09 0 .09.1s-.09.23-.28.4a2.36 2.36 0 0 1-1.59.55 1.94 1.94 0 0 1-2-2.11 2 2 0 0 1 2.13-2.1c1.08 0 1.77.63 1.77 1.36 0 .16-.11.19-.37.19H21c-.11 0-.12 0-.12.14v.21a1.57 1.57 0 0 0 1.57 1.77zm.41-2.85a.72.72 0 0 0-.79-.62 1.09 1.09 0 0 0-1 .84v.14s0 .07.13.07h.71c.61.03.94-.08.94-.43zm2.97-.23a.22.22 0 0 0 .11-.06l.22-.19a1.1 1.1 0 0 1 .75-.33.67.67 0 0 1 .72.62.48.48 0 0 1-.52.44c-.43 0-.63-.42-.86-.42s-.41.27-.41.83v1.91c0 .23.06.3.28.37s.52 0 .52.2-.08.13-.23.13c-.33 0-.67-.06-1-.06s-.7.06-.91.06-.18-.05-.18-.15.16-.09.41-.18.22-.17.22-.37v-2.11c0-.22 0-.32-.16-.38s-.3 0-.3-.14.21-.14.53-.34.6-.45.7-.45.11.06.11.19v.34c-.04.09-.03.09 0 .09zm2.3 0h-.2c-.13 0-.19 0-.19-.11s.32-.19.71-.54.49-.6.63-.6.1.08.1.21v.54c0 .07.06.12.15.12h.83c.12 0 .13 0 .13.09v.18c0 .1 0 .12-.14.12h-.83c-.09 0-.14 0-.14.12v2.09c0 .64.06.93.44.93s.51-.24.64-.24a.11.11 0 0 1 .11.12c0 .18-.56.64-1.2.64s-.92-.45-.92-1.35v-2.03c.03-.24.02-.29-.12-.29zm5.87.08c0-.14-.1-.18-.26-.22s-.36-.07-.36-.18 0-.12.12-.12h1.52s.09 0 .09.11-.09.12-.29.17-.32.18-.44.43l-.91 1.94c-.72 1.55-1 2.49-1.14 2.77s-.26.41-.67.41-.41-.11-.41-.33.11-.48.49-.48a.41.41 0 0 0 .48-.3l.23-.51a.7.7 0 0 0 .08-.27 1.77 1.77 0 0 0-.16-.57l-.91-2.21c-.18-.44-.32-.71-.5-.81s-.44-.06-.44-.23 0-.11.14-.11h2s.12 0 .12.1-.05.12-.15.15-.38 0-.38.18a1.66 1.66 0 0 0 .13.54L33 75.1c0 .08.06.11.09.11s.05 0 .09-.11l.67-1.51a1.76 1.76 0 0 0 .15-.51zM39.1 72s-.05.05-.06.17l-.18 2.69a4.39 4.39 0 0 0 0 .49c0 .56.09.79.49.79h.14q.21 0 .21.13c0 .09-.1.14-.29.14h-1.44s-.26 0-.26-.14.05-.13.17-.13H38c.4 0 .41-.38.48-1.41l.18-3v-.18c0-.29 0-.37-.27-.41S38 71.19 38 71s.05-.11.15-.11h1.44c.08 0 .13 0 .16.08l1.45 3.56c0 .07.06.11.09.11s.06 0 .09-.1l1.44-3.5c0-.1.06-.15.18-.15h1.43c.11 0 .16 0 .16.11s-.26.09-.54.18-.19.11-.19.36v.2l.14 3.88c0 .36 0 .47.37.54s.41 0 .41.15-.08.14-.23.14-.55-.05-1-.05-.84.05-1 .05-.23-.05-.23-.14.06-.13.17-.13c.51 0 .59-.1.59-.54v-.22l-.09-3.26c0-.06 0-.1-.05-.1s0 0-.06.09l-1.61 4a.21.21 0 0 1-.18.13.19.19 0 0 1-.19-.1l-1.64-4c-.11-.09-.14-.18-.16-.18zm6.34.85c-.22-.09-.41 0-.41-.19s.06-.15.19-.15.43.07.79.07h.4s.17 0 .17.15v2.34a.89.89 0 0 0 .93 1 .86.86 0 0 0 1-.93v-1.92c0-.21 0-.3-.21-.37s-.41 0-.41-.19.07-.15.18-.15.39.06.78.06h.4c.13 0 .17 0 .17.15v3c0 .24 0 .33.18.4s.32 0 .32.13-.14.15-.41.23a5.84 5.84 0 0 1-.81.19c-.1 0-.14-.06-.14-.19V76l-.08.06-.12.12a1.65 1.65 0 0 1-1.16.47 1.3 1.3 0 0 1-1.44-1.32v-2c-.11-.33-.16-.42-.32-.48zm5.3.15h-.2c-.13 0-.19 0-.19-.11s.32-.19.71-.54.49-.6.63-.6.1.08.1.21v.54c0 .07.06.12.15.12h.83c.12 0 .13 0 .13.09v.18c0 .1 0 .12-.14.12h-.83c-.09 0-.14 0-.14.12v2.09c0 .64.06.93.44.93s.51-.24.64-.24A.11.11 0 0 1 53 76c0 .18-.56.64-1.2.64s-.92-.45-.92-1.35v-2.03c.01-.21 0-.26-.14-.26zm2.81-.15c-.22-.09-.41 0-.41-.19s.06-.15.18-.15.43.07.79.07h.4s.17 0 .17.15v2.34a.9.9 0 0 0 .93 1 .87.87 0 0 0 1-.93v-1.92c0-.21 0-.3-.21-.37s-.41 0-.41-.19.07-.15.19-.15.39.06.78.06h.4c.13 0 .17 0 .17.15v3c0 .24 0 .33.18.4s.32 0 .32.13-.14.15-.41.23a5.77 5.77 0 0 1-.81.19c-.1 0-.14-.06-.14-.19V76l-.08.06-.12.12a1.65 1.65 0 0 1-1.16.47 1.3 1.3 0 0 1-1.45-1.32v-2c-.1-.33-.16-.42-.31-.48zm8.2 3.15c.17 0 .3-.19.43-.19a.12.12 0 0 1 .12.13 1.18 1.18 0 0 1-1 .63.84.84 0 0 1-.75-.62h-.06l-.24.16a2 2 0 0 1-1.1.46.69.69 0 0 1-.78-.71c0-.74.62-1.13 1.74-1.57l.28-.11c.12 0 .12-.09.12-.21v-.62c0-.5-.08-.7-.44-.7s-.56.21-.77.58-.32.54-.75.54c-.12 0-.21-.07-.21-.16 0-.53.82-1.23 2-1.23.89 0 1.06.28 1.06 1v2c.08.46.13.62.35.62zm-1.16-1.47c0-.07 0-.11-.05-.11a.3.3 0 0 0-.11 0l-.37.14a.89.89 0 0 0-.64.85c0 .37.15.55.41.55a.79.79 0 0 0 .77-.78z"/><path d="M62.75 71c-.16-.08-.33-.06-.33-.16s.19-.14.49-.23c.5-.15.74-.32.8-.32s.13.05.13.17v5.28c0 .21.05.33.25.38s.46 0 .46.18-.08.15-.21.15-.55-.06-1-.06-.75.06-.91.06-.18-.05-.18-.15.18-.11.4-.18.23-.15.23-.38v-4.36c.02-.19.02-.27-.13-.38zm9.17.05c.09.07.16.39.16.92 0 .1 0 .16-.08.16s-.2-.14-.37-.35a1.66 1.66 0 0 0-1.4-.8 1.91 1.91 0 0 0-1.39.64 3.11 3.11 0 0 0-.71 2.05 2.92 2.92 0 0 0 .7 2 1.7 1.7 0 0 0 1.34.65 1.52 1.52 0 0 0 1.39-.78c.23-.39.31-.63.45-.63s.12.07.12.21v.56c0 .21 0 .34-.15.47a2.82 2.82 0 0 1-1.75.46 3.33 3.33 0 0 1-2.23-.75 2.93 2.93 0 0 1-1-2.19 2.78 2.78 0 0 1 1.07-2.17 3.9 3.9 0 0 1 3.87-.45zM75 76.61a2 2 0 0 1-2.21-2.11 2.11 2.11 0 0 1 2.34-2.1 2.05 2.05 0 0 1 2.25 2.11 2.11 2.11 0 0 1-2.38 2.1zm.08-4c-.82 0-1.31.63-1.31 1.73s.55 2 1.33 2 1.3-.64 1.3-1.72c.05-1.21-.5-1.96-1.27-1.96zm3 .7c-.12-.05-.31 0-.31-.13s.22-.18.55-.33.65-.47.74-.47.08.07.08.19v.49l.08-.05.11-.12a1.47 1.47 0 0 1 1.07-.47 1.41 1.41 0 0 1 1.24.7h.05a1.63 1.63 0 0 1 1.36-.7 1.21 1.21 0 0 1 1.27 1.29v2.08c0 .24.05.32.22.38s.4 0 .4.18-.06.14-.19.14-.49-.06-.89-.06-.66.06-.82.06-.16 0-.16-.14.15-.11.33-.18.19-.15.19-.38v-1.48c0-.93-.18-1.38-.82-1.38a.82.82 0 0 0-.86.94v1.92c0 .24.05.32.22.38s.4 0 .4.18-.06.14-.19.14-.49-.06-.89-.06-.65.06-.81.06-.17 0-.17-.14.16-.11.33-.18.18-.15.18-.38v-1.48c0-.93-.18-1.38-.82-1.38a.82.82 0 0 0-.85.94v1.92c0 .24.05.32.22.38s.4 0 .4.18-.06.14-.18.14-.49-.06-.89-.06-.65.06-.81.06-.17 0-.17-.14.15-.11.33-.18.19-.15.19-.38V73.7c.04-.22 0-.33-.13-.39z"/><path d="M86.44 77.69c0 .25 0 .32.26.38s.49 0 .49.19-.07.13-.22.13-.62-.06-1-.06-.77.06-.91.06-.19-.05-.19-.13.18-.11.41-.19.23-.14.23-.38v-4c0-.24 0-.34-.18-.4s-.31 0-.31-.14.21-.15.5-.3c.48-.24.68-.49.78-.49s.12.06.12.19v.51a.12.12 0 0 0 .08 0l.11-.11a1.73 1.73 0 0 1 1.23-.5 1.84 1.84 0 0 1 1.8 2 2.14 2.14 0 0 1-2.25 2.21 2.31 2.31 0 0 1-1-.2h-.06zm0-2.17c0 .55.32.83.89.83a1.51 1.51 0 0 0 1.45-1.69A1.46 1.46 0 0 0 87.33 73c-.61 0-.89.28-.89.87zm7.21.48c.17 0 .3-.19.43-.19a.12.12 0 0 1 .12.13 1.19 1.19 0 0 1-1 .63.84.84 0 0 1-.75-.62h-.06l-.24.16a2 2 0 0 1-1.1.46.69.69 0 0 1-.78-.71c0-.74.62-1.13 1.74-1.57l.28-.11c.11 0 .12-.09.12-.21v-.62c0-.5-.08-.7-.44-.7s-.56.21-.77.58-.32.54-.75.54c-.12 0-.21-.07-.21-.16 0-.53.82-1.23 2-1.23.89 0 1.07.28 1.07 1v2c.07.46.12.62.34.62zm-1.16-1.47c0-.07 0-.11-.05-.11h-.12l-.37.14a.89.89 0 0 0-.64.85c0 .37.15.55.41.55a.79.79 0 0 0 .77-.78zm4.21-1.59a.86.86 0 0 0-1 .93v1.91c0 .24 0 .32.21.38s.41 0 .41.18-.07.14-.19.14-.49-.06-.89-.06-.65.06-.81.06-.16 0-.16-.14.15-.11.33-.18.18-.15.18-.38V73.7c0-.23 0-.34-.17-.4s-.29 0-.29-.13.19-.18.57-.36.55-.42.65-.42.11.06.11.18v.48a.2.2 0 0 0 .09-.05l.11-.12a1.68 1.68 0 0 1 1.17-.47 1.31 1.31 0 0 1 1.44 1.48v1.89c0 .22.06.32.22.38s.41 0 .41.18-.06.14-.18.14-.47-.06-.9-.06-.66.06-.81.06-.16 0-.16-.14.16-.11.34-.18.18-.16.18-.38v-1.46c.07-.93-.12-1.38-.86-1.38zm5.77.14c0-.14-.1-.18-.26-.22s-.36-.07-.36-.18 0-.12.12-.12h1.51s.09 0 .09.11-.09.12-.29.17-.32.18-.44.43l-.91 1.94c-.72 1.55-1 2.49-1.14 2.77s-.26.41-.67.41-.41-.11-.41-.33.12-.48.49-.48a.41.41 0 0 0 .47-.3l.23-.51a.69.69 0 0 0 .08-.27 1.75 1.75 0 0 0-.16-.57l-.82-2.22c-.18-.44-.32-.71-.5-.81s-.44-.06-.44-.23 0-.11.14-.11h2s.12 0 .12.1-.05.12-.15.15-.38 0-.38.18a1.68 1.68 0 0 0 .13.54l.62 1.57c0 .08.06.11.09.11s.05 0 .09-.11l.67-1.51a1.74 1.74 0 0 0 .08-.51zM0 0v39.74h65.3V0zm16.24 32.25c-4.28 0-7.17-2.16-8.5-6.41l2.52-.84c.87 3.1 3.12 5 5.84 5 3.09 0 5-1.69 5-4.18a3.69 3.69 0 0 0-1.63-3.32 28.2 28.2 0 0 0-5.58-2.39C10.19 18.6 8.4 17 8.4 13.85c0-3.85 2.76-6.41 7-6.41 3.73 0 6.38 2.06 7.51 5.88l-2.39.7c-.8-2.86-2.7-4.35-5.39-4.35S11 11.2 11 13.58a3.64 3.64 0 0 0 1.56 2.93c1 .79 2.82 1.33 5.11 2.19 4.12 1.56 6 3.18 6 6.91 0 3.95-2.88 6.64-7.43 6.64zm22.91-.4h-2.66l-.26-2.35a7.34 7.34 0 0 1-5.51 2.62 4.56 4.56 0 0 1-4.79-4.78c0-3.82 3.32-5.71 10.39-7.07V19c0-1.56-1.39-2.72-3.48-2.72A4.57 4.57 0 0 0 28.59 19l-2.09-1.13a6.79 6.79 0 0 1 6.5-3.69c3.65 0 5.8 1.87 5.8 5.15V29a8.77 8.77 0 0 0 .37 2.56zm10.69-22A8.39 8.39 0 0 0 48 9.57c-1.33 0-2 .77-2 2.26v2.66h3.65v2.06h-3.59v15.3h-2.39V16.54h-2.93v-2.06h2.92V12c0-3 1.33-4.51 4-4.51a9.35 9.35 0 0 1 2.12.3zm7.61 22.35c-4.48 0-7-3.09-7-9 0-5.71 2.66-9 6.77-9S64 17.31 64 22.92v.73H53v.57c0 3.69 1.92 5.88 4.71 5.88a5.36 5.36 0 0 0 4.91-3.1l1.76 1.09c-1.38 2.76-3.62 4.06-6.94 4.06z"/><path d="M102.63 1v37.74H1V1h101.63m1-1H0v39.74h103.63V0z"/><path d="M28.32 27.37A2.53 2.53 0 0 0 31.15 30c1.53 0 3.19-.9 5.17-2.65v-4.83c-5.4 1.09-8 2.39-8 4.85zm28.96-11.12c-2.55 0-4.15 1.89-4.28 5.34h8.46c-.07-3.42-1.73-5.34-4.18-5.34zm16.31 15.87c-4.52 0-7-3.12-7-9 0-5.71 2.66-9 7-9a6.4 6.4 0 0 1 6.27 4.68l-2.39.76c-.7-2.19-2.16-3.35-3.95-3.35-2.82 0-4.45 2.35-4.45 6.9s1.59 6.94 4.59 6.94c1.79 0 3.45-1.2 4.5-3.49l2 1.06c-1.4 3.05-3.59 4.5-6.57 4.5zm15.06-17.95c4.51 0 7.24 3.19 7.24 9s-2.73 9-7.24 9-7.24-3.22-7.24-9 2.73-9 7.24-9zm0 15.93c3 0 4.74-2.38 4.74-6.94s-1.69-6.93-4.74-6.93-4.77 2.35-4.77 6.9 1.72 6.97 4.77 6.97z"/></g></g></svg>