<?xml version="1.0" encoding="UTF-8"?>
<svg width="444px" height="64px" viewBox="0 0 444 64" version="1.1" xmlns="http://www.w3.org/2000/svg" xmlns:xlink="http://www.w3.org/1999/xlink">
    <!-- Generator: Sketch 55.2 (78181) - https://sketchapp.com -->
    <title>Elements/Carrier Logo / Big / State Farm</title>
    <desc>Created with Sketch.</desc>
    <g id="Elements/Carrier-Logo-/-Big-/-State-Farm" stroke="none" stroke-width="1" fill="none" fill-rule="evenodd">
        <g id="State_Farm_logo" transform="translate(1.000000, 1.000000)" fill="#FFFFFF" fill-rule="nonzero">
            <path d="M258.44403,18.1761908 L258.57,17.975154 L258.43519,18.1761908 C256.15226,16.6098713 252.85052,15.883046 249.61729,15.883046 C242.28893,15.8896736 237.05123,19.512754 233.60584,24.6027402 C230.18034,29.7081908 228.56704,36.2849655 228.56704,42.1393333 C228.56704,46.3699425 229.20352,50.3155655 231.78259,53.8767885 C233.05334,55.6154253 236.13408,59.7930138 246.09234,59.806269 C253.00743,59.8018506 256.28265,58.0101931 258.05728,56.9740805 L258.35342,56.5742161 C258.70039,55.058708 259.86727,48.1770644 260.34242,46.4516828 L259.9844,46.1777425 C256.48818,48.9480736 252.67593,50.9716966 248.34654,50.9716966 C245.4426,50.9716966 243.23481,50.2824276 241.74527,48.952492 C240.26015,47.6336023 239.53306,45.6828828 239.53306,43.266023 C239.53306,42.3757172 239.60599,41.5627333 239.6745,40.6724276 L239.6966,40.462554 L239.89992,40.4559264 C246.66915,40.2836092 250.11896,40.190823 255.78761,40.190823 C257.63959,40.190823 259.72804,40.1996598 262.24965,40.2195425 L262.68723,39.9146736 C263.25078,37.2879402 263.86074,34.2834345 263.86074,30.5874506 C263.86074,27.3067954 263.51156,21.4745195 258.44403,18.1761908 L258.44403,18.1761908 Z M253.95994,32.5492161 L253.92237,32.7414161 L247.28795,32.8253655 L240.72867,32.9115241 L240.78834,32.6906046 L240.81928,32.5934 C240.95188,32.1338874 241.09553,31.6279816 241.26128,31.1132391 C241.71212,29.6684253 242.35744,28.0954782 243.50001,26.6528736 C243.70112,26.4076529 243.91107,26.1558046 244.13428,25.9216299 C246.16748,23.6991793 248.09239,23.3545448 249.33883,23.3545448 C251.09578,23.3545448 252.382,24.057069 253.20854,25.1020184 C253.34777,25.2853816 253.4649,25.4643264 253.57982,25.6697816 C253.98867,26.3656782 254.2384,27.1565701 254.32901,27.9850184 C254.37321,28.2810506 254.388696,28.5925471 254.388696,28.8907885 C254.39089,30.1323563 254.16989,31.3518322 253.95994,32.5492161 L253.95994,32.5492161 Z M228.20018,25.0821356 L227.74934,25.5283931 L221.21658,25.3604943 L218.19109,39.6009678 C217.7734,41.3859977 216.84962,45.8419448 216.84962,47.2779218 C216.84078,48.6189034 217.34687,49.5335103 218.05407,50.0769724 C218.75243,50.6270621 219.62759,50.8082161 220.40993,50.8104253 C222.22655,50.8104253 222.86082,50.3045195 224.0719,49.8427977 L224.28627,50.0416253 L222.6796,58.2443678 L222.1271,58.7812023 C219.89058,59.2539701 218.22645,59.6427885 215.8728,59.6427885 C209.7953,59.6074414 205.40845,57.568354 205.38414,50.4878828 C205.38414,47.1740897 206.7234,41.140777 207.72011,36.6561103 L210.13122,25.3516575 L205.00181,25.5261839 L204.69241,25.0799264 L206.193,17.1135678 L206.65931,16.8573011 L211.87049,16.8573011 L213.95452,6.36583218 L214.36116,5.90631954 C219.57897,4.57196552 221.08398,3.92908966 225.83769,2.36497931 L226.08963,2.64775632 L224.5139,9.40568506 L222.88071,17.0163632 L229.57259,16.810908 L229.74718,17.1599609 L228.20018,25.0821356 Z M308.76352,11.6436 L308.40329,12.0434644 L291.16308,12.0014897 L288.35859,26.3811425 L303.44626,25.9260483 L303.66947,26.2839379 C302.42745,30.4173425 302.14015,31.5860069 301.30477,35.1914138 L300.92244,35.555931 L286.57512,35.5250023 L284.68999,45.5017287 L282.30319,58.4586598 L281.98495,58.7569011 L269.62884,59.0750253 L269.47856,58.7569011 L271.62005,47.7263885 L274.89748,32.1537701 C277.36826,20.0540069 278.07546,16.1901241 280.41143,3.00785517 L280.78271,2.64554713 L298.8362,2.64554713 L310.30168,2.34509655 L310.52268,2.64554713 L308.76352,11.6436 Z M333.11772,18.642331 C330.71987,16.9522966 326.89215,16.0840828 321.64119,16.0840828 C319.04886,16.0840828 316.43443,16.3337218 313.80895,16.8307908 C311.46193,17.2770483 310.00554,17.6548207 308.76573,18.0105011 L308.42539,18.3551356 L306.72148,27.0792483 L307.27177,27.4106276 C308.36572,26.906931 309.97018,26.2883563 312.08736,25.5394391 C314.25316,24.7772667 316.24658,24.3950759 318.04552,24.3950759 C320.67763,24.3950759 322.68431,24.7551747 324.04788,25.4996736 C325.45344,26.2552184 326.4612,27.9143241 326.45457,29.7391195 C326.45457,30.1897954 326.417,30.5852414 326.35512,30.943131 C326.28661,31.2789287 326.24462,31.5263586 326.22694,31.6677471 L326.19821,31.8533195 C326.19821,31.8533195 325.34736,31.9129678 324.44347,31.9902897 C323.84677,32.0477287 323.08653,32.1338874 322.20695,32.2355103 C320.76824,32.390154 319.11295,32.5934 317.66761,32.8364115 C314.20233,33.4130115 304.45181,34.9307287 301.52577,41.4589011 C298.45829,46.8073632 298.98206,53.9032989 301.99429,57.3562713 C303.0573,58.5779563 304.67723,59.7267379 306.86734,60.168577 L306.86292,60.1752046 C306.95795,60.2083425 307.29387,60.2503172 307.36901,60.2679908 C315.80016,61.5714161 321.84893,54.2280506 321.84893,54.2280506 L320.94504,58.754692 L321.31632,59.0728161 L330.78838,58.754692 L331.18176,58.4122667 L336.75759,30.4173425 C336.87251,29.8274874 336.96754,29.1293816 337.03826,28.3362805 C337.10014,27.5321333 337.13992,26.8804207 337.13992,26.4010253 C337.13329,22.8177103 335.51115,20.3301563 333.11772,18.642331 L333.11772,18.642331 Z M323.36499,46.6328368 C323.36499,46.6328368 321.09974,50.1896414 317.83778,51.4643471 C314.56477,52.7302161 312.20228,51.7316598 311.2785,50.4657908 C310.53152,49.4760713 308.9801,46.352269 311.92603,42.8374391 C314.91395,39.2872621 324.78823,39.0597149 324.78823,39.0597149 L323.36499,46.6328368 Z M369.35288,15.5141103 L367.03238,27.5542253 L366.54618,28.0468759 C365.88318,27.9275793 365.03896,27.8303747 364.04004,27.8303747 C360.91289,27.8303747 356.46637,28.8333494 352.98783,33.441731 L352.95026,33.4792874 L348.15898,58.4630782 L347.82085,58.7613195 L337.41617,59.0772345 L337.14655,58.8032943 L345.33018,16.8617195 L345.77439,16.4220897 L356.07299,15.4257425 L356.47963,15.8653724 L355.29286,21.9406598 L355.79895,21.4811471 C357.95149,19.5304276 359.86093,18.1828184 361.99358,16.9677609 C364.10634,15.7527034 366.22573,15.1495931 368.35617,15.1495931 C368.5617,15.1495931 368.77165,15.1495931 368.99265,15.1584299 L369.35288,15.5141103 Z M425.05593,26.0674368 C425.05593,28.6013839 424.48354,31.2325356 423.9222,33.7929931 L419.08893,58.460869 L418.71765,58.7591103 L407.82677,59.1435103 L407.55715,58.7591103 C407.55715,58.7591103 413.1374,31.5108943 413.1374,30.1566575 C413.1374,28.9217172 412.48545,25.6123425 409.02017,25.6123425 C406.29082,25.6123425 403.46865,28.3672092 403.46865,28.3672092 L397.58784,58.4630782 L397.2254,58.7613195 L392.53799,58.9248 L388.3412,59.0661885 L386.26822,59.1346736 L386.14225,58.9645655 L386.00744,58.7591103 C386.00744,58.7591103 386.84945,54.6124506 387.89257,49.4760713 L387.86384,49.4760713 C389.4904,41.4434368 391.57001,30.9828966 391.57001,30.1566575 C391.57001,28.9217172 390.92027,25.6123425 387.45057,25.6123425 C384.73006,25.6123425 381.90789,28.3672092 381.90789,28.3672092 L376.02487,58.4630782 L375.65359,58.7613195 L373.97178,58.8187586 L364.70304,59.1302552 L364.46657,58.7613195 L372.63031,16.8617195 L373.04137,16.4486 L383.90352,15.4257425 L384.34331,15.8653724 L383.1919,21.7639241 C383.1919,21.7639241 388.43402,16.0200161 395.11706,15.8874644 C401.35368,15.770377 402.65758,21.7639241 402.65758,21.7639241 C402.65758,21.7639241 408.86326,15.7504943 415.48221,15.8874644 C418.83036,15.9139747 425.03825,17.3897172 425.05593,26.0674368 L425.05593,26.0674368 Z M197.64472,18.642331 C195.25129,16.9522966 191.42799,16.0840828 186.17924,16.0840828 C183.57807,16.0840828 180.96806,16.3337218 178.35142,16.8307908 C175.99998,17.2770483 174.54359,17.6548207 173.29936,18.0105011 L172.96123,18.3551356 L171.25732,27.0792483 L171.80761,27.4106276 C172.90156,26.906931 174.50823,26.2883563 176.62099,25.5394391 C178.789,24.7772667 180.78021,24.3950759 182.57915,24.3950759 C185.21347,24.3950759 187.20689,24.7551747 188.58593,25.4996736 C189.98486,26.2552184 190.98599,27.9143241 190.98599,29.7391195 C190.98599,30.1897954 190.95505,30.5852414 190.89317,30.943131 C190.82024,31.2789287 190.78046,31.5263586 190.76278,31.6677471 L190.73626,31.8533195 C190.73626,31.8533195 189.88762,31.9129678 188.98373,31.9902897 C188.38924,32.0477287 187.62016,32.1338874 186.74721,32.2355103 C185.30629,32.390154 183.64879,32.5934 182.21008,32.8364115 C178.73817,33.4130115 168.99207,34.9307287 166.06382,41.4589011 C162.99634,46.8073632 163.52232,53.9032989 166.53455,57.3562713 C167.58872,58.5779563 169.21307,59.7267379 171.40539,60.168577 L171.40097,60.1752046 C171.49379,60.2083425 171.83192,60.2503172 171.90264,60.2679908 C180.33821,61.5714161 186.38698,54.2280506 186.38698,54.2280506 L185.48088,58.754692 L185.84995,59.0728161 L195.32864,58.754692 L195.71981,58.4122667 L201.28901,30.4173425 C201.41056,29.8274874 201.50559,29.1293816 201.58294,28.3362805 C201.63819,27.5321333 201.68018,26.8804207 201.68018,26.4010253 C201.67134,22.8177103 200.05583,20.3301563 197.64472,18.642331 L197.64472,18.642331 Z M187.89862,46.6328368 C187.89862,46.6328368 185.64,50.1896414 182.37362,51.4643471 C179.10282,52.7302161 176.74475,51.7316598 175.80992,50.4657908 C175.06957,49.4760713 173.52036,46.352269 176.47292,42.8374391 C179.44979,39.2872621 189.33291,39.0597149 189.33291,39.0597149 L187.89862,46.6328368 Z M165.06711,25.0821356 L164.61185,25.5283931 L158.08572,25.3604943 L155.06244,39.6009678 C154.63812,41.3859977 153.70992,45.8419448 153.70992,47.2779218 C153.70771,48.6189034 154.20938,49.5335103 154.91437,50.0769724 C155.62157,50.6270621 156.49231,50.8082161 157.27244,50.8104253 C159.09127,50.8104253 159.72775,50.3045195 160.93441,49.8427977 L161.15099,50.0416253 L159.54653,58.2443678 L158.99403,58.7812023 C156.76635,59.2539701 155.09338,59.6427885 152.73531,59.6427885 C146.67107,59.6074414 142.27538,57.568354 142.25107,50.4878828 C142.25107,47.1740897 143.59475,41.140777 144.58704,36.6561103 L146.99594,25.3516575 L141.86432,25.5261839 L141.55492,25.0799264 L143.05993,17.1135678 L143.52403,16.8573011 L148.733,16.8573011 L150.81924,6.36583218 L151.22809,5.90631954 C156.43706,4.57196552 157.94649,3.92908966 162.70904,2.36497931 L162.95214,2.64775632 L161.37641,9.40568506 L159.75648,17.0207816 L166.4351,16.8153264 L166.61853,17.1643793 L165.06711,25.0821356 Z M140.53169,5.7340023 L138.54711,15.9493218 L138.10953,16.0885011 C137.32056,14.9794851 136.8432,14.5442736 135.74483,13.6959425 C133.30499,11.8181264 130.40989,10.7555034 127.45512,10.7555034 C125.13904,10.7555034 123.21413,11.4779103 121.87929,12.6819218 C120.5334,13.8815149 119.76874,15.589223 119.76874,17.4957586 C119.77537,21.1011655 122.24394,22.8596851 126.63079,25.4864184 L128.33691,26.454046 C132.01214,28.862069 137.72057,32.5558437 137.72057,40.9397402 C137.70731,50.468 131.60108,60.0271885 116.95099,60.0492805 C113.35974,60.0492805 109.84363,59.4064046 106.46012,58.144954 C104.17719,57.2701126 103.07661,56.5123586 101.69536,55.4895011 L101.58044,54.8333701 L103.52524,44.8676897 L103.96061,44.7218828 C104.8424,45.8618276 105.9474,46.794108 107.60048,47.8876598 C111.12985,50.2404529 114.51557,50.4923011 115.9587,50.4923011 C121.1301,50.4878828 125.1965,47.5363977 125.1965,42.9523172 C125.19208,38.8476322 121.94559,36.7908713 118.55545,34.7937586 L116.21064,33.3489448 C112.51994,30.9365034 107.40379,27.6558483 107.38832,19.4310138 C107.38832,16.267446 108.29884,11.7275494 111.10112,8.00947356 C114.79624,3.12052414 120.60633,1.36421379 126.45841,1.36421379 C133.9923,1.36421379 138.3018,4.03071264 140.32174,5.32309195 L140.53169,5.7340023 Z M34.59313,23.7278989 C37.56116,25.5593218 41.73143,26.7235678 46.42547,26.7235678 C51.11288,26.7235678 55.32293,25.5593218 58.33516,23.7278989 C61.35844,21.8986851 63.1397,19.4288046 63.14633,16.821954 C63.1397,14.2084759 61.36949,11.7628966 58.35947,9.94914713 C55.35829,8.1376069 51.15929,6.99766207 46.45862,6.98882529 C41.76679,6.99766207 37.58989,8.1376069 34.6086,9.94914713 C31.6251,11.7651057 29.87257,14.2018483 29.86594,16.8153264 C29.87257,19.4354322 31.62068,21.8986851 34.59313,23.7278989 L34.59313,23.7278989 Z M35.34232,37.8579126 C32.34114,36.0441632 28.13993,34.9020092 23.4481,34.9020092 C18.75185,34.9020092 14.57495,36.0441632 11.59587,37.8490759 C8.61016,39.6650345 6.85763,42.0929402 6.851,44.7064184 C6.85763,47.3287333 8.60132,49.7919862 11.5804,51.6300368 C14.54622,53.4482046 18.71649,54.6146598 23.41274,54.6234966 C28.10899,54.6124506 32.31904,53.4482046 35.32906,51.6212 C38.34571,49.7919862 40.12697,47.3287333 40.13581,44.7152552 C40.12476,42.1106138 38.35234,39.6738713 35.34232,37.8579126 L35.34232,37.8579126 Z M81.26833,37.8579126 C78.26273,36.0441632 74.05931,34.9020092 69.36527,34.9020092 C64.67344,34.9020092 60.48991,36.0441632 57.51746,37.8490759 C54.53175,39.6628253 52.78364,42.0929402 52.77922,44.713046 C52.78364,47.3265241 54.52291,49.789777 57.5042,51.6278276 C60.47223,53.4459954 64.64029,54.6124506 69.33212,54.6212874 C74.02395,54.6102414 78.23842,53.4459954 81.25286,51.6189908 C84.26951,49.789777 86.05077,47.3265241 86.05519,44.713046 C86.05077,42.1106138 84.27835,39.6738713 81.26833,37.8579126 L81.26833,37.8579126 Z M69.31444,28.0557126 C67.19284,28.0557126 65.14417,28.2567494 63.19716,28.6212667 C67.45141,25.5858322 70.07026,21.4082437 70.07026,16.7976529 C70.07026,7.52124138 59.53298,0.14031954 46.44978,0.14031954 C33.36879,0.142528736 22.9398,7.52345057 22.9398,16.7998621 C22.9398,21.4170805 25.51003,25.594669 29.72229,28.6301034 C27.73771,28.2567494 25.65589,28.0557126 23.50777,28.0557126 C10.42678,28.0557126 0,35.4388437 0,44.7064184 C0,53.9673655 10.37153,61.4896759 23.45694,61.4896759 C34.59313,61.4896759 43.92817,56.0462184 46.46967,48.7116897 C48.94708,56.0462184 58.12079,61.4896759 69.25919,61.4896759 C82.34239,61.4896759 92.93934,53.9695747 92.93934,44.7064184 C92.93934,35.4388437 82.39101,28.0557126 69.31444,28.0557126 L69.31444,28.0557126 Z M27.2051,16.7910253 C27.22057,12.6134368 30.39413,9.79229425 32.25495,8.47782299 C35.97659,5.83341609 41.01981,4.40848506 46.45199,4.40848506 C51.90185,4.40848506 56.96275,5.84004368 60.71312,8.47782299 C62.58941,9.80113103 65.80054,12.626692 65.81601,16.7910253 C65.75413,23.7544092 56.81026,29.2972805 46.39453,29.3127448 C40.98445,29.3127448 35.96333,27.8657218 32.25716,25.2014322 C29.02835,22.8884046 27.2051,19.9082 27.2051,16.7910253 L27.2051,16.7910253 Z M23.45694,57.2193011 C18.04023,57.2193011 13.02353,55.770069 9.30631,53.1013609 C6.09297,50.7971701 4.2653,47.8169655 4.2653,44.7064184 C4.28298,40.5288299 7.45433,37.7010598 9.30852,36.3843793 C13.03458,33.757646 18.07559,32.3238782 23.50998,32.3150414 C28.96205,32.3238782 34.02295,33.7554368 37.77332,36.3954253 C39.65182,37.7165241 42.86737,40.5376667 42.88505,44.7064184 C42.82096,51.6609655 33.87046,57.2038368 23.45694,57.2193011 L23.45694,57.2193011 Z M46.4763,40.7121931 C45.45086,37.7584989 43.32042,35.1207195 40.41427,33.0330299 C42.3215,33.3887103 44.32155,33.5787011 46.38348,33.5787011 C48.50508,33.5787011 50.55375,33.3798736 52.50739,33.0131471 C49.61008,35.103046 47.48185,37.7430345 46.4763,40.7121931 L46.4763,40.7121931 Z M69.25698,57.2193011 C63.8469,57.2193011 58.82578,55.770069 55.11298,53.1013609 C51.89301,50.7971701 50.06092,47.8169655 50.06092,44.7064184 C50.07418,40.5288299 53.25658,37.7076874 55.1174,36.3843793 C58.83462,33.757646 63.88005,32.3238782 69.31223,32.3150414 C74.7643,32.3238782 79.82299,33.7554368 83.58441,36.3954253 C85.4607,37.7165241 88.66299,40.5442943 88.67183,44.7064184 C88.621,51.6609655 79.67271,57.2038368 69.25698,57.2193011 L69.25698,57.2193011 Z" id="Shape"></path>
            <path d="M442,24.2846161 C441.96906,27.9828092 439.2817,30.7752322 435.76559,30.7443034 C432.26937,30.7155839 429.61295,27.8811862 429.64168,24.1829931 C429.67262,20.4096874 432.32241,17.6747034 435.90924,17.703423 C439.38778,17.7321425 442.03094,20.586423 442,24.2846161 L442,24.2846161 Z M430.45275,24.1675287 C430.42623,27.3333057 432.80861,29.9269011 435.77001,29.9512023 C438.7292,29.9777126 441.16241,27.4216736 441.18893,24.2404322 C441.20219,22.7249241 440.63864,21.1806966 439.68834,20.1578391 C438.76014,19.150446 437.28607,18.5097793 435.9446,18.4987333 C432.81303,18.472223 430.48148,20.8957103 430.45275,24.1675287 L430.45275,24.1675287 Z M435.55343,20.5311931 C436.33577,20.5400299 436.70042,20.5775862 437.14684,20.7300207 C437.92034,20.9951241 438.41317,21.7352046 438.40654,22.5702805 C438.39991,23.458377 437.84299,24.158692 436.94794,24.4282138 L438.41317,27.9540897 L437.37668,27.9474621 L436.01974,24.6049494 L435.94902,24.5872759 L435.29486,24.5806483 L434.5965,24.5762299 L434.486,24.5939034 L434.45506,27.9231609 L433.5136,27.9143241 L433.57548,20.5157287 L435.55343,20.5311931 Z M435.46945,23.8228943 C436.38218,23.831731 436.73136,23.7765011 437.01203,23.56 C437.30154,23.356754 437.48055,22.9878184 437.48276,22.5835356 C437.48939,22.0489103 437.2485,21.6578828 436.7844,21.4899839 C436.52804,21.3706874 436.1214,21.3353402 435.30812,21.3265034 L434.51473,21.3220851 L434.49042,23.8162667 L435.46945,23.8228943 Z" id="Shape"></path>
        </g>
    </g>
</svg>