<?xml version="1.0" encoding="UTF-8"?>
<svg width="40px" height="40px" viewBox="0 0 40 40" version="1.1" xmlns="http://www.w3.org/2000/svg" xmlns:xlink="http://www.w3.org/1999/xlink">
    <!-- Generator: Sketch 55.2 (78181) - https://sketchapp.com -->
    <title>Elements/Carrier Logo/Small / AIG</title>
    <desc>Created with Sketch.</desc>
    <defs>
        <circle id="path-1" cx="20" cy="20" r="20"></circle>
    </defs>
    <g id="Elements/Carrier-Logo/Small-/-AIG" stroke="none" stroke-width="1" fill="none" fill-rule="evenodd">
        <mask id="mask-2" fill="white">
            <use xlink:href="#path-1"></use>
        </mask>
        <use id="BG" fill="#00A4E4" fill-rule="nonzero" xlink:href="#path-1"></use>
        <g id="AIG" mask="url(#mask-2)" fill="#FFFFFF">
            <g transform="translate(20.000000, 20.500000) scale(-1, 1) rotate(-180.000000) translate(-20.000000, -20.500000) translate(3.000000, 13.000000)">
                <path d="M26.993286,14.8736828 C26.4229228,14.8211848 25.7729741,14.6857953 25.274238,14.5172491 C24.2210558,14.1635784 23.4145888,13.6496507 22.6293447,12.8317872 C21.7220693,11.8868234 21.1357891,10.80647 20.8094883,9.48573104 C20.6290944,8.74247 20.5893016,8.38603626 20.5893016,7.48528125 C20.5866487,6.6674178 20.6078715,6.44361057 20.7325556,5.80810857 C20.9527423,4.70288769 21.4700484,3.58937766 22.1597899,2.73283148 C22.4303808,2.39850217 23.0140082,1.807209 23.3137804,1.56406041 C24.2926828,0.771064427 25.4440205,0.301345554 26.759835,0.163192945 C27.2346955,0.110694953 28.2719606,0.141088527 28.6911111,0.215690936 C29.6991949,0.398052381 30.5905531,0.784879687 31.3333516,1.3678837 C32.3865338,2.1940363 33.1903479,3.40149011 33.5723586,4.73328127 C33.7845867,5.47654231 33.8641723,6.05954632 33.8827422,7.06529732 L33.8986593,7.78921699 L31.0813307,7.78921699 L28.2666548,7.78921699 L28.2666548,6.78070294 L28.2666548,5.77218889 L29.96448,5.77218889 C31.3041702,5.77218889 31.6623052,5.76389974 31.6623052,5.73903227 C31.6623052,5.65337765 31.5004813,5.04826922 31.4262014,4.85209251 C31.129082,4.07567485 30.6144287,3.37938569 30.0042728,2.92900819 C29.7469462,2.74112064 29.2349458,2.47034152 28.9563963,2.37639775 C27.8634214,2.00891181 26.5741354,2.11667084 25.4944247,2.66651823 C24.1335117,3.35728128 23.1758321,4.69183549 22.8707542,6.31927323 C22.677096,7.35265474 22.7540287,8.52418887 23.0776766,9.48849409 C23.7037497,11.3563174 25.1548596,12.5803495 27.027773,12.820735 C27.4203951,12.87047 28.2852248,12.8400764 28.6486655,12.7627109 C29.8530603,12.5112732 30.895631,11.814984 31.6755695,10.7373937 L31.8294349,10.5218756 L32.0177874,10.7125262 C32.1212486,10.8147591 32.4502022,11.1435624 32.7499745,11.4392089 C33.0497467,11.7348555 33.296462,11.9835302 33.3017677,11.9918194 C33.3176848,12.0305021 32.8746585,12.5720603 32.5881505,12.8621808 C31.8824919,13.5778113 30.9380767,14.1746306 29.9910086,14.5034338 C29.2216815,14.7714499 28.6645826,14.8653937 27.762613,14.8764459 C27.404478,14.8792089 27.0596073,14.8792089 26.993286,14.8736828 Z" id="path10" fill-rule="evenodd"></path>
                <path d="M6.47878256,14.4150161 C6.44429548,14.3348876 4.99849122,11.1380362 3.26617896,7.31397201 C1.53651955,3.48714473 0.119896657,0.351080494 0.119896657,0.342791337 C0.119896657,0.33450218 0.629244214,0.331739128 1.2526644,0.33450218 L2.38277929,0.342791337 L3.12823066,2.0614098 L3.87368203,3.78002826 L6.76529056,3.78279131 L9.65955193,3.78279131 L10.3784748,2.06417285 L11.0973976,0.342791337 L12.2275125,0.33450218 C12.8482799,0.331739128 13.3577448,0.337265233 13.3577448,0.345554389 C13.3577448,0.367658807 13.4425187,0.171482101 9.04674315,10.3726708 C8.43924008,11.7873535 7.78929137,13.2904539 7.60889745,13.7159639 C7.42585067,14.141474 7.26402671,14.5061969 7.25076245,14.5255382 C7.22953963,14.5476426 7.12342556,14.5586949 6.88466889,14.5586949 L6.542451,14.5586949 L6.47878256,14.4150161 Z M7.79990278,8.27275112 C8.333126,7.01556238 8.76554086,5.97941781 8.76023515,5.9738917 C8.75492945,5.9683656 7.85826552,5.9683656 6.77059626,5.97112865 L4.79156878,5.97941781 L5.80230533,8.28104028 C6.35675137,9.54651818 6.81569474,10.5771367 6.82100045,10.5716327 C6.82630615,10.5660844 7.26667956,9.53270292 7.79990278,8.27275112 Z" id="path12" fill-rule="nonzero"></path>
                <polygon id="path14" fill-rule="evenodd" points="15.6921371 7.3609439 15.6921371 0.356606598 16.7267493 0.356606598 17.7613615 0.356606598 17.7613615 7.3609439 17.7613615 14.3652812 16.7267493 14.3652812 15.6921371 14.3652812"></polygon>
            </g>
        </g>
    </g>
</svg>