<?xml version="1.0" encoding="UTF-8"?>
<svg width="40px" height="40px" viewBox="0 0 40 40" version="1.1" xmlns="http://www.w3.org/2000/svg" xmlns:xlink="http://www.w3.org/1999/xlink">
    <!-- Generator: Sketch 55.2 (78181) - https://sketchapp.com -->
    <title>Elements / Carrier Logo / Small / ASI</title>
    <desc>Created with Sketch.</desc>
    <defs>
        <circle id="path-1" cx="20" cy="20" r="20"></circle>
    </defs>
    <g id="Elements-/-Carrier-Logo-/-Small-/-ASI" stroke="none" stroke-width="1" fill="none" fill-rule="evenodd">
        <g id="ASI">
            <mask id="mask-2" fill="white">
                <use xlink:href="#path-1"></use>
            </mask>
            <use id="Mask" fill="#0E3355" fill-rule="nonzero" xlink:href="#path-1"></use>
            <g id="logo" mask="url(#mask-2)" fill="#FFFFFF" fill-rule="nonzero">
                <g transform="translate(6.000000, 13.000000)">
                    <path d="M0,13.7263636 C0,13.72 0,13.7136364 0,13.7009091 C0.0308788599,13.65 0.0679334917,13.6054545 0.0988123515,13.5545455 C2.51353919,9.07454545 4.92826603,4.59454545 7.34299287,0.114545455 C7.36152019,0.0763636364 7.38622328,0.0445454545 7.41092637,0 C7.447981,0.0636363636 7.47268409,0.108181818 7.49738717,0.159090909 C8.89311164,2.79363636 10.2826603,5.42818182 11.6783848,8.06272727 C11.727791,8.15181818 11.7771971,8.18363636 11.8760095,8.18363636 C13.1235154,8.17727273 14.3710214,8.18363636 15.6123515,8.18363636 C15.6617577,8.18363636 15.7049881,8.19 15.7605701,8.19 C15.7605701,8.24727273 15.7605701,8.28545455 15.7605701,8.33 C15.7605701,8.87090909 15.7605701,9.40545455 15.7605701,9.94636364 C15.7605701,10.2518182 15.7543943,10.5572727 15.7667458,10.8627273 C15.7852732,11.2572727 16.0261283,11.4672727 16.4522565,11.4672727 C16.7980998,11.4672727 17.0019002,11.27 17.008076,10.8945455 C17.0204276,10.1754545 17.0142518,9.45 17.008076,8.73090909 C17.008076,8.47636364 16.8845606,8.27272727 16.656057,8.14545455 C16.5510689,8.08818182 16.4460808,8.03727273 16.3410926,7.99272727 C15.5505938,7.68090909 14.760095,7.37545455 13.9695962,7.06363636 C13.5125891,6.87909091 13.0555819,6.68818182 12.6356295,6.40818182 C12.0427553,6.02 11.7339667,5.47272727 11.7401425,4.74090909 C11.7463183,4.21272727 11.7339667,3.68454545 11.7401425,3.15636364 C11.7463183,2.78727273 11.7401425,2.41818182 11.7710214,2.05545455 C11.8451306,1.26 12.24038,0.687272727 12.9752969,0.388181818 C13.3828979,0.222727273 13.8090261,0.146363636 14.2413302,0.14 C15.3653207,0.120909091 16.4831354,0.120909091 17.6071259,0.120909091 C18.1444181,0.120909091 18.6755344,0.159090909 19.2004751,0.254545455 C19.7192399,0.343636364 20.2071259,0.515454545 20.6023753,0.890909091 C20.9420428,1.21545455 21.1458432,1.60363636 21.152019,2.08727273 C21.1643705,3.00363636 21.1643705,3.92636364 21.1643705,4.84272727 C21.1643705,4.86181818 21.1581948,4.88090909 21.152019,4.9 C19.7871734,4.9 18.4285036,4.9 17.0513064,4.9 C17.0513064,4.84909091 17.0513064,4.81090909 17.0513064,4.76636364 C17.0513064,4.25727273 17.0513064,3.74181818 17.0513064,3.23272727 C17.0513064,3.09909091 17.0451306,2.96545455 17.0204276,2.83818182 C16.9833729,2.64727273 16.8969121,2.47545455 16.7054632,2.41818182 C16.2731591,2.27818182 16.0014252,2.39909091 15.8470309,2.78727273 C15.8285036,2.83818182 15.8038005,2.89545455 15.7976247,2.95272727 C15.7173397,3.36 15.735867,3.77363636 15.7667458,4.18090909 C15.7976247,4.58818182 16.0014252,4.88727273 16.4028504,5.00818182 C16.4584323,5.02727273 16.5140143,5.05272727 16.5695962,5.07818182 C17.4033254,5.41545455 18.2432304,5.75272727 19.0769596,6.09636364 C19.4907363,6.26818182 19.9106888,6.44 20.2997625,6.65636364 C20.8185273,6.94909091 21.0779097,7.44545455 21.1026128,8.04363636 C21.1273159,8.78181818 21.1149644,9.52636364 21.1149644,10.2645455 C21.1149644,10.8054545 21.1149644,11.3527273 21.1026128,11.8936364 C21.0902613,12.32 20.9420428,12.6890909 20.6394299,12.9818182 C20.3985748,13.2109091 20.1268409,13.3954545 19.8118765,13.5163636 C19.4104513,13.6690909 18.984323,13.7263636 18.5581948,13.7263636 C17.2983373,13.7327273 16.0446556,13.7263636 14.7847981,13.7263636 C14.6921615,13.7263636 14.6489311,13.6881818 14.6057007,13.6118182 C13.6731591,11.8554545 12.7467933,10.0990909 11.8142518,8.34909091 C11.7957245,8.31090909 11.7710214,8.27272727 11.7524941,8.23454545 C11.727791,8.28545455 11.727791,8.32363636 11.727791,8.36181818 C11.727791,8.84545455 11.7216152,9.32909091 11.7216152,9.81909091 C11.7216152,10.4681818 11.7092637,11.1236364 11.7216152,11.7727273 C11.7339667,12.6763636 12.1045131,13.2109091 12.9011876,13.5354545 C13.2408551,13.6690909 13.5990499,13.7072727 13.9016627,13.7327273 C12.7344418,13.7327273 11.5178147,13.7327273 10.2950119,13.7327273 C10.1900238,13.7327273 10.1344418,13.7009091 10.0850356,13.6054545 C9.20190024,11.9 8.31258907,10.1945455 7.42327791,8.49545455 C7.39857482,8.45090909 7.37387173,8.41272727 7.34916865,8.35545455 C7.32446556,8.40636364 7.29976247,8.43818182 7.28741093,8.47 C6.39809976,10.1945455 5.49643705,11.9063636 4.60095012,13.6181818 C4.55154394,13.7072727 4.50213777,13.7390909 4.40332542,13.7390909 C2.98289786,13.7327273 1.55629454,13.7390909 0.135866983,13.7390909 C0.0864608076,13.7390909 0.0432304038,13.7263636 0,13.7263636 Z" id="path1352"></path>
                    <path d="M21.8931116,13.7327273 C23.2456057,13.7327273 24.5857482,13.7327273 25.9258907,13.7327273 C25.9258907,13.6945455 25.9320665,13.6563636 25.9320665,13.6245455 C25.9320665,11.6772727 25.9320665,9.73 25.9320665,7.78272727 C25.9320665,7.72545455 25.919715,7.66818182 25.8950119,7.61727273 C24.5795724,5.15454545 23.264133,2.69818182 21.9486936,0.241818182 C21.936342,0.216363636 21.9178147,0.197272727 21.8931116,0.159090909 C21.8931116,4.69636364 21.8931116,9.20818182 21.8931116,13.7327273 Z M25.9752969,0.127272727 C24.9871734,0.127272727 24.0175772,0.127272727 23.0356295,0.127272727 C23.5543943,1.03090909 24.0669834,1.91545455 24.5857482,2.81909091 C25.0551069,1.90909091 25.512114,1.02454545 25.9752969,0.127272727 Z M5.89786223,11.2636364 C6.41662708,12.1672727 6.92921615,13.0581818 7.447981,13.9618182 C7.91733967,13.0518182 8.37434679,12.1672727 8.83752969,11.2636364 C7.84940618,11.2636364 6.88598575,11.2636364 5.89786223,11.2636364 Z" id="path1354"></path>
                    <path d="M21.8931116,13.7327273 C21.8931116,9.20818182 21.8931116,4.69636364 21.8931116,0.159090909 C21.9178147,0.197272727 21.936342,0.216363636 21.9486936,0.241818182 C23.264133,2.69818182 24.5795724,5.15454545 25.8950119,7.61727273 C25.919715,7.66818182 25.9320665,7.72545455 25.9320665,7.78272727 C25.9320665,9.73 25.9320665,11.6772727 25.9320665,13.6245455 C25.9320665,13.6563636 25.9320665,13.6945455 25.9258907,13.7327273 C24.5857482,13.7327273 23.2456057,13.7327273 21.8931116,13.7327273 L21.8931116,13.7327273 Z" id="path1356"></path>
                    <path d="M25.9752969,0.127272727 C25.512114,1.02454545 25.0551069,1.91545455 24.5857482,2.81909091 C24.0669834,1.91545455 23.5543943,1.03090909 23.0356295,0.127272727 C24.0175772,0.127272727 24.9871734,0.127272727 25.9752969,0.127272727 Z" id="path1358"></path>
                    <path d="M5.89786223,11.2636364 C6.88598575,11.2636364 7.84940618,11.2636364 8.84370546,11.2636364 C8.38052257,12.1609091 7.91733967,13.0518182 7.45415677,13.9618182 C6.92921615,13.0518182 6.41662708,12.1672727 5.89786223,11.2636364 L5.89786223,11.2636364 Z" id="path1360"></path>
                    <path d="M28.9384615,0.992307692 C28.9384615,1.52307692 28.5230769,1.93846154 27.9769231,1.93846154 C27.4384615,1.93846154 27.0153846,1.52307692 27.0153846,0.992307692 C27.0153846,0.476923077 27.4461538,0.0538461538 27.9769231,0.0538461538 C28.5230769,0.0538461538 28.9384615,0.469230769 28.9384615,0.992307692 Z M27.2615385,0.992307692 C27.2615385,1.40769231 27.5692308,1.73846154 27.9923077,1.73846154 C28.4,1.73846154 28.7076923,1.40769231 28.7076923,1 C28.7076923,0.584615385 28.4076923,0.246153846 27.9923077,0.246153846 C27.5769231,0.246153846 27.2615385,0.584615385 27.2615385,0.992307692 Z M27.8384615,1.48461538 L27.6153846,1.48461538 L27.6153846,0.546153846 C27.7,0.530769231 27.8230769,0.515384615 27.9769231,0.515384615 C28.1538462,0.515384615 28.2307692,0.546153846 28.3,0.584615385 C28.3538462,0.623076923 28.3923077,0.7 28.3923077,0.792307692 C28.3923077,0.892307692 28.3153846,0.976923077 28.2,1.00769231 L28.2,1.01538462 C28.2923077,1.04615385 28.3461538,1.11538462 28.3692308,1.24615385 C28.4,1.39230769 28.4153846,1.44615385 28.4384615,1.47692308 L28.2076923,1.47692308 C28.1769231,1.44615385 28.1615385,1.35384615 28.1307692,1.24615385 C28.1153846,1.14615385 28.0538462,1.1 27.9384615,1.1 L27.8384615,1.1 L27.8384615,1.48461538 Z M27.8384615,0.953846154 L27.9384615,0.953846154 C28.0615385,0.953846154 28.1538462,0.915384615 28.1538462,0.815384615 C28.1538462,0.730769231 28.0923077,0.669230769 27.9538462,0.669230769 C27.9,0.669230769 27.8538462,0.676923077 27.8307692,0.676923077 L27.8307692,0.953846154 L27.8384615,0.953846154 Z" id="path1364"></path>
                </g>
            </g>
        </g>
    </g>
</svg>