<?xml version="1.0" encoding="UTF-8"?>
<svg width="40px" height="40px" viewBox="0 0 40 40" version="1.1" xmlns="http://www.w3.org/2000/svg" xmlns:xlink="http://www.w3.org/1999/xlink">
    <!-- Generator: Sketch 55.2 (78181) - https://sketchapp.com -->
    <title>Elements/Carrier Logo/Small / Encompass</title>
    <desc>Created with Sketch.</desc>
    <g id="Elements/Carrier-Logo/Small-/-Encompass" stroke="none" stroke-width="1" fill="none" fill-rule="evenodd">
        <circle id="Mask" fill="#C53710" fill-rule="nonzero" cx="20" cy="20" r="20"></circle>
        <path d="M19.5,32 C25.2989899,32 30,27.2989899 30,21.5 C30,15.7010101 25.2989899,11 19.5,11 C13.7010101,11 9,15.7010101 9,21.5 C9,27.2989899 13.7010101,32 19.5,32 Z M19.5,31.0033306 C14.2514555,31.0033306 9.99666944,26.7485445 9.99666944,21.5 C9.99666944,16.2514555 14.2514555,11.9966694 19.5,11.9966694 C24.7485445,11.9966694 29.0033306,16.2514555 29.0033306,21.5 C29.0033306,26.7485445 24.7485445,31.0033306 19.5,31.0033306 Z" id="Oval" fill="#FFFFFF" fill-rule="nonzero"></path>
        <path d="M18.5,29.5 C24.2989899,29.5 29,24.7989899 29,19 C29,13.2010101 24.2989899,8.5 18.5,8.5 C12.7010101,8.5 8,13.2010101 8,19 C8,24.7989899 12.7010101,29.5 18.5,29.5 Z M18.5,28.5033306 C13.2514555,28.5033306 8.99666944,24.2485445 8.99666944,19 C8.99666944,13.7514555 13.2514555,9.49666944 18.5,9.49666944 C23.7485445,9.49666944 28.0033306,13.7514555 28.0033306,19 C28.0033306,24.2485445 23.7485445,28.5033306 18.5,28.5033306 Z" id="Oval" fill="#FFFFFF" fill-rule="nonzero"></path>
        <path d="M21.5,31 C27.8512746,31 33,25.8512746 33,19.5 C33,13.1487254 27.8512746,8 21.5,8 C15.1487254,8 10,13.1487254 10,19.5 C10,25.8512746 15.1487254,31 21.5,31 Z M21.5,30 C15.7010101,30 11,25.2989899 11,19.5 C11,13.7010101 15.7010101,9 21.5,9 C27.2989899,9 32,13.7010101 32,19.5 C32,25.2989899 27.2989899,30 21.5,30 Z" id="Oval-Copy" fill="#FFFFFF" fill-rule="nonzero"></path>
    </g>
</svg>