<?xml version="1.0" encoding="UTF-8"?>
<svg width="40px" height="40px" viewBox="0 0 40 40" version="1.1" xmlns="http://www.w3.org/2000/svg" xmlns:xlink="http://www.w3.org/1999/xlink">
    <!-- Generator: Sketch 55.2 (78181) - https://sketchapp.com -->
    <title>Elements/Carrier Logo/Small / Mapfre</title>
    <desc>Created with Sketch.</desc>
    <g id="Elements/Carrier-Logo/Small-/-Mapfre" stroke="none" stroke-width="1" fill="none" fill-rule="evenodd">
        <circle id="Mask" fill="#CF0028" fill-rule="nonzero" cx="20" cy="20" r="20"></circle>
        <path d="M20.9036202,23.6376002 L20.9036202,28.7748002 L19.2596202,28.7748002 L19.2596202,23.6376002 C18.4736202,23.6376002 17.4476202,23.6340002 17.0600202,23.6196002 L11.6048202,23.6340002 C11.1440202,23.6580002 10.6688202,23.5512002 10.2404202,23.3052002 C9.41242019,22.8276002 8.96602019,21.9432002 9.00202019,21.0552002 C9.00322019,20.9244002 9.01882019,20.8092002 9.03442019,20.7180002 C9.22762019,19.6308002 9.61042019,18.5592002 10.1924202,17.5524002 C10.7756202,16.5396002 11.5172202,15.6696002 12.3680202,14.9568002 C12.9380202,14.5344002 13.7372202,14.3244002 14.4716202,14.4528002 C14.6792202,13.7508002 15.1664202,13.1712002 15.8000202,12.84 C15.9212202,12.7704 16.0328202,12.7236 16.1264202,12.69 C17.3624202,12.2424 18.6956202,12 20.0804202,12 C21.4736202,12 22.8116202,12.2448 24.0548202,12.6972 C24.7700202,13.0080002 25.4072202,13.6572002 25.6748202,14.4312002 C26.3756202,14.2704002 27.1016202,14.4276002 27.6740202,14.8608002 C28.5224202,15.5748002 29.3876202,16.5384002 29.9708202,17.5512002 C30.5516202,18.5580002 30.9344202,19.6284002 31.1288202,20.7168002 C31.1456202,20.8080002 31.1588202,20.9232002 31.1588202,21.0540002 C31.1960202,21.9420002 30.7508202,22.8264002 29.9216202,23.3040002 C29.4932202,23.5500002 29.0192202,23.6568002 28.5572202,23.6328002 L23.1032202,23.6184002 C22.7144202,23.6340002 21.6908202,23.6376002 20.9036202,23.6376002 L20.9036202,23.6376002 Z M26.7392202,16.2144002 C27.4448202,16.8072002 28.0592202,17.5308002 28.5464202,18.3732002 C29.0312202,19.2120002 29.3480202,20.1024002 29.5100202,21.0048002 C29.5172202,21.0372002 29.5172202,21.0636002 29.5148202,21.0852002 C29.5400202,21.3984002 29.3900202,21.7116002 29.0996202,21.8784002 C28.9472202,21.9672002 28.7756202,22.0032002 28.6124202,21.9888002 L23.0624202,21.9732002 C22.9076202,21.9876002 22.7504202,21.9108002 22.6688202,21.7680002 C22.5872202,21.6264002 22.5956202,21.4560002 22.6808202,21.3300002 L25.4444202,16.5156002 C25.5152202,16.3608002 25.6316202,16.2264002 25.7888202,16.1352002 C26.0888202,15.9612002 26.4524202,15.9960002 26.7128202,16.1928002 C26.7200202,16.2000002 26.7296202,16.2072002 26.7392202,16.2144002 L26.7392202,16.2144002 Z M13.4516202,16.1940002 C13.7120202,15.9972002 14.0756202,15.9636002 14.3756202,16.1364002 C14.5340202,16.2276002 14.6504202,16.3620002 14.7200202,16.5168002 L17.4824202,21.3312002 C17.5664202,21.4572002 17.5784202,21.6276002 17.4968202,21.7692002 C17.4140202,21.9120002 17.2568202,21.9888002 17.1020202,21.9744002 L11.5532202,21.9900002 C11.3876202,22.0044002 11.2184202,21.9684002 11.0648202,21.8796002 C10.7756202,21.7128002 10.6232202,21.3996002 10.6496202,21.0864002 C10.6472202,21.0636002 10.6484202,21.0384002 10.6556202,21.0060002 C10.8164202,20.1036002 11.1332202,19.2132002 11.6180202,18.3744002 C12.1052202,17.5320002 12.7208202,16.8084002 13.4264202,16.2156002 C13.4348202,16.2072002 13.4432202,16.2000002 13.4516202,16.1940002 L13.4516202,16.1940002 Z M23.5328202,14.2572002 C23.9036202,14.4132002 24.1604202,14.7804002 24.1604202,15.2052002 C24.1604202,15.4296002 24.0896202,15.6360002 23.9684202,15.8064002 L20.5388202,21.7080002 C20.4560202,21.8772002 20.2820202,21.9924002 20.0816202,21.9924002 C19.8764202,21.9924002 19.7000202,21.8712002 19.6184202,21.6972002 L16.1912202,15.7968002 C16.0760202,15.6300002 16.0088202,15.4272002 16.0088202,15.2100002 C16.0088202,14.7984002 16.2488202,14.4444002 16.5980202,14.2812002 C16.6208202,14.2644002 16.6496202,14.2512002 16.6868202,14.2368002 C17.7476202,13.8528002 18.8900202,13.6440002 20.0816202,13.6440002 C21.2792202,13.6440002 22.4288202,13.8552002 23.4932202,14.2416002 C23.5064202,14.2464002 23.5208202,14.2524002 23.5328202,14.2572002 L23.5328202,14.2572002 Z" id="path20" fill="#FFFFFF"></path>
    </g>
</svg>