<?xml version="1.0" encoding="UTF-8"?>
<svg width="40px" height="40px" viewBox="0 0 40 40" version="1.1" xmlns="http://www.w3.org/2000/svg" xmlns:xlink="http://www.w3.org/1999/xlink">
    <!-- Generator: Sketch 55.2 (78181) - https://sketchapp.com -->
    <title>Elements/Carrier Logo/Small / MetLife</title>
    <desc>Created with Sketch.</desc>
    <g id="Elements/Carrier-Logo/Small-/-MetLife" stroke="none" stroke-width="1" fill="none" fill-rule="evenodd">
        <circle id="Mask" fill="#283E4C" fill-rule="nonzero" cx="20" cy="20" r="20"></circle>
        <g id="MetLife_logo" transform="translate(11.000000, 10.000000)" fill-rule="nonzero">
            <g id="g74" transform="translate(9.500000, 10.000000) scale(-1, 1) rotate(-180.000000) translate(-9.500000, -10.000000) ">
                <g id="g76-Clipped">
                    <g id="g76" transform="translate(0.540972, 0.212121)">
                        <g id="g86" transform="translate(8.968960, 0.470734)" fill="#99D538">
                            <path d="M0,11.5454543 C1.8218326,9.0394493 2.90283188,5.91832815 2.90283188,2.53294439 C2.90283188,1.7164242 2.83924369,0.91529796 2.71762355,0.133414138 L7.99235677,0.133414138 C8.45105606,0.133414138 8.82270744,0.520828271 8.82270744,0.998681796 L8.82270744,16.1495249 C8.82270744,16.7139693 8.31091509,17.1315299 7.78677552,16.9878532 C4.6369992,16.1238683 1.9107326,14.1739694 0,11.5454543" id="path88"></path>
                        </g>
                        <g id="g90" transform="translate(0.077479, 0.604469)" fill="#239DE0">
                            <path d="M6.17361097,0 C6.0526082,0.781242407 5.98840265,1.58236865 5.98840265,2.39953025 C5.98840265,5.7842726 7.07001929,8.90603516 8.89123453,11.4120402 C6.98050193,14.0405552 4.25423532,15.9904542 1.104459,16.8537976 C0.580319432,16.9974744 0.0685270818,16.5805552 0.0685270818,16.0161108 L0.0685270818,0.864626244 C0.0685270818,0.387414133 0.440795824,0 0.899495119,0 L6.17361097,0 Z" id="path92"></path>
                        </g>
                        <g id="g94" transform="translate(5.882155, 0.470734)" fill="#1563A9">
                            <path d="M3.08680549,11.5454543 C1.26497289,9.0394493 0.183973607,5.91832815 0.183973607,2.53294439 C0.183973607,1.7164242 0.2475618,0.91529796 0.369181936,0.133414138 L5.80442904,0.133414138 C5.92604917,0.91529796 5.98963737,1.7164242 5.98963737,2.53294439 C5.98963737,5.91832815 4.90863809,9.0394493 3.08680549,11.5454543" id="path96"></path>
                        </g>
                    </g>
                </g>
            </g>
        </g>
    </g>
</svg>