<?xml version="1.0" encoding="UTF-8"?>
<svg width="40px" height="40px" viewBox="0 0 40 40" version="1.1" xmlns="http://www.w3.org/2000/svg" xmlns:xlink="http://www.w3.org/1999/xlink">
    <!-- Generator: Sketch 55.2 (78181) - https://sketchapp.com -->
    <title>Elements/Carrier Logo/Small / NGOC</title>
    <desc>Created with Sketch.</desc>
    <g id="Elements/Carrier-Logo/Small-/-NGOC" stroke="none" stroke-width="1" fill="none" fill-rule="evenodd">
        <circle id="Mask" fill="#083D7D" fill-rule="nonzero" cx="20" cy="20" r="20"></circle>
        <g id="logo-(1)" transform="translate(7.000000, 7.000000)" fill-rule="nonzero">
            <path d="M24.917551,15.9192 L15.3665306,25.6392 C13.7387638,27.2910906 11.1045015,27.2910906 9.47673469,25.6392 L8.04938776,24.1866 L15.4142857,16.6968 C16.1964785,15.9025718 16.636059,14.8242842 16.636059,13.6998 C16.636059,12.5753158 16.1964785,11.4970282 15.4142857,10.7028 L7.54530612,2.6892 L8.97265306,1.2528 C9.75307385,0.456768457 10.8126157,0.00941068823 11.917551,0.00941068823 C13.0224864,0.00941068823 14.0820282,0.456768457 14.862449,1.2528 L24.917551,11.5128 C26.1016035,12.7344548 26.1016035,14.6975452 24.917551,15.9192 Z" id="Path" fill="#FFFFFF"></path>
            <path d="M11.8804082,15.0822 L5.56612245,21.5028 C4.4930809,22.5931507 2.75508236,22.5931507 1.68204082,21.5028 L0.742857143,20.547 L5.61387755,15.5898 C6.68588274,14.4959227 6.68588274,12.7254773 5.61387755,11.6316 L0.413877551,6.3504 L1.35306122,5.3946 C2.42792175,4.30362857 4.16758846,4.30362857 5.24244898,5.3946 L11.875102,12.1446 C12.6726863,12.9547173 12.6750604,14.269104 11.8804082,15.0822 L11.8804082,15.0822 Z" id="Path" fill="#F8971D"></path>
        </g>
    </g>
</svg>