<?xml version="1.0" encoding="UTF-8"?>
<svg width="40px" height="40px" viewBox="0 0 40 40" version="1.1" xmlns="http://www.w3.org/2000/svg" xmlns:xlink="http://www.w3.org/1999/xlink">
    <!-- Generator: Sketch 55.2 (78181) - https://sketchapp.com -->
    <title>Elements/Carrier Logo/Small / PlymouthRock</title>
    <desc>Created with Sketch.</desc>
    <defs>
        <polygon id="path-1" points="0.0500253424 0.0932882696 12.4353546 0.0932882696 12.4353546 16.4953253 0.0500253424 16.4953253"></polygon>
        <polygon id="path-3" points="0 0.0893938356 13.3086423 0.0893938356 13.3086423 16.4933781 0 16.4933781"></polygon>
    </defs>
    <g id="Elements/Carrier-Logo/Small-/-PlymouthRock" stroke="none" stroke-width="1" fill="none" fill-rule="evenodd">
        <circle id="Mask" fill="#007AC9" fill-rule="nonzero" cx="20" cy="20" r="20"></circle>
        <g id="Group-9" transform="translate(8.000000, 10.000000)">
            <g id="Group-3" transform="translate(11.555556, 0.000000)">
                <mask id="mask-2" fill="white">
                    <use xlink:href="#path-1"></use>
                </mask>
                <g id="Clip-2"></g>
                <path d="M7.14701758,2.62143185 C7.02116638,2.62143185 6.89369198,2.63510651 6.7697886,2.61905856 C6.33358377,2.56232568 6.10146783,2.6812161 6.02214802,3.20797295 C5.86902725,4.22554829 5.6221944,5.22764075 5.41540019,6.23640103 C5.22483787,7.16582568 5.22646106,7.13971952 6.15946976,7.1733976 C6.99790068,7.20368527 7.73147362,7.04682226 8.24158763,6.27335651 C8.52077604,5.85012021 8.71371903,5.39230171 8.82333836,4.89210308 C9.22610551,3.05608253 8.64186589,2.49768185 7.14701758,2.62143185 M8.83459246,8.38592158 C8.94810744,8.46175377 8.98868715,8.50876747 9.03554319,8.51724349 C10.7718137,8.8324387 11.0107471,10.2258976 10.7618582,11.5692914 C10.5806021,12.547764 10.4073538,13.5282709 10.2567219,14.5122812 C10.1772939,15.0311271 10.1238369,15.558788 10.1163702,16.0832846 C10.1116089,16.4159969 10.0056688,16.4974798 9.7093828,16.4916031 C8.8986543,16.4753291 8.08684367,16.4697914 7.27643981,16.4947675 C6.94541758,16.5050517 6.82605913,16.3737298 6.80192773,16.0520928 C6.73862338,15.2107058 6.94217121,14.4078565 7.11109101,13.6003736 C7.26107362,12.8838668 7.43529585,12.1716545 7.49416348,11.4388736 C7.57489005,10.435199 7.18402628,9.92189075 6.23186396,9.75112705 C4.84317217,9.50204486 4.73690744,9.57527774 4.45090164,10.9642161 C4.10256541,12.6553531 3.74091903,14.3436647 3.41335961,16.0392092 C3.34507749,16.3923771 3.21565527,16.5020003 2.88268522,16.4935243 C2.05410164,16.4725038 1.22443594,16.4753291 0.395635942,16.4920551 C0.0679683092,16.4986099 0.00607072464,16.400062 0.0754349758,16.0641853 C1.14760502,10.881264 2.20992773,5.69630856 3.26218667,0.508979795 C3.32906203,0.179544863 3.46443594,0.0915071918 3.76959536,0.0932882696 C5.73397797,0.105181849 7.69890164,0.0823530822 9.66317604,0.103599658 C11.4472765,0.123038014 12.5018079,1.23294555 12.432119,3.10320925 C12.359292,5.06038048 11.8164978,6.81107568 10.0610736,7.88301062 C9.70343111,8.10135308 9.29849971,8.19357226 8.83459246,8.38592158" id="Fill-1" fill="#FFFFFF" mask="url(#mask-2)"></path>
            </g>
            <g id="Group-6">
                <mask id="mask-4" fill="white">
                    <use xlink:href="#path-3"></use>
                </mask>
                <g id="Clip-5"></g>
                <path d="M6.74602849,7.28269315 C7.45930484,7.37479932 8.21474644,7.20539178 8.8154302,6.53103904 C9.45463248,5.81351507 9.70192593,4.96523425 9.68756695,4.03976507 C9.67252422,3.08355616 9.20118519,2.64619315 8.23184046,2.62415548 C7.75890598,2.61341918 7.28471795,2.63783014 6.81235328,2.61624452 C6.50158405,2.60200479 6.39184046,2.72564178 6.33326496,3.01959041 C6.12460399,4.06801849 5.87788034,5.10898767 5.6605584,6.15583356 C5.42637037,7.28280616 5.43366382,7.28427534 6.74602849,7.28269315 M7.33987464,0.0988643836 C8.40608547,0.170289041 9.70192593,-0.0285020548 10.9839772,0.214703425 C12.2538348,0.455535616 13.0810712,1.17102534 13.2374245,2.43022397 C13.5171966,4.68224795 12.9892194,6.74757329 11.3595897,8.41565548 C10.3687066,9.42995342 9.0605584,9.76763836 7.6740057,9.81487808 C6.9151453,9.84075822 6.15423362,9.84109726 5.39525926,9.81691233 C5.01030199,9.80470685 4.83696866,9.89568288 4.75298006,10.3124774 C4.36608547,12.231224 3.9185641,14.1378781 3.52927635,16.0561726 C3.45337892,16.4301349 3.29292308,16.4995253 2.96164103,16.4929705 C2.12631339,16.4765836 1.29007407,16.4735322 0.454746439,16.4919534 C0.074005698,16.5003164 -0.0696980057,16.4616658 0.0312706553,16.001361 C1.16072934,10.8541521 2.26557265,5.70151849 3.36585755,0.548093836 C3.43765242,0.211652055 3.56688319,0.0822513699 3.92802279,0.0903883562 C4.9911567,0.114234247 6.05508832,0.0988643836 7.33987464,0.0988643836" id="Fill-4" fill="#FFFFFF" mask="url(#mask-4)"></path>
            </g>
            <path d="M21.9535468,21.8479741 C21.7929529,22.043243 21.6226425,22.0039133 21.4467644,21.9790734 C17.982041,21.49028 14.5180818,20.9923787 11.0529218,20.5082773 C8.50896586,20.1526532 5.50465471,19.867036 3.4188706,19.4676248 C1.47766436,19.0958992 0.248759209,18.8801299 -4.67081298e-05,18.7377147 L23.8835121,19.25 C23.9222686,19.3042337 23.9612435,19.3586054 24,19.4129771 C23.3166844,20.2231708 22.6285652,21.0270165 21.9535468,21.8479741 Z" id="Fill-7" fill="#FFFFFF"></path>
        </g>
    </g>
</svg>