<?xml version="1.0" encoding="UTF-8"?>
<svg width="40px" height="40px" viewBox="0 0 40 40" version="1.1" xmlns="http://www.w3.org/2000/svg" xmlns:xlink="http://www.w3.org/1999/xlink">
    <!-- Generator: Sketch 55.2 (78181) - https://sketchapp.com -->
    <title>Elements/Carrier Logo/Small / Travelers</title>
    <desc>Created with Sketch.</desc>
    <defs>
        <circle id="path-1" cx="20" cy="20" r="20"></circle>
    </defs>
    <g id="Elements/Carrier-Logo/Small-/-Travelers" stroke="none" stroke-width="1" fill="none" fill-rule="evenodd">
        <mask id="mask-2" fill="white">
            <use xlink:href="#path-1"></use>
        </mask>
        <use id="Mask" fill="#F50001" fill-rule="nonzero" xlink:href="#path-1"></use>
        <g id="travelers-logo" mask="url(#mask-2)" fill="#FFFFFF" fill-rule="nonzero">
            <g transform="translate(5.000000, 8.000000)" id="Path">
                <path d="M2.48940039,8.86603911 L2.44497485,8.86603911 C2.39942747,8.86603911 2.36240619,8.82915968 2.36240619,8.7837868 L2.36240619,8.7837868 C2.35948936,8.77127015 2.35948936,8.75830647 2.36240619,8.74578981 L2.36240619,8.74578981 C5.57158994,1.45170858 14.1089207,-1.86989899 21.4308317,1.32698904 C24.7602785,2.78070922 27.4188549,5.42909951 28.8781663,8.74578981 L28.8781663,8.74578981 C28.8956673,8.78781002 28.8756983,8.83586503 28.8337408,8.85329895 C28.8236441,8.85754567 28.8126499,8.85955727 28.8016557,8.85955727 L28.7635126,8.85955727 L28.7635126,8.85955727 C27.5218414,8.18924565 26.1260271,7.85330754 24.714058,7.88437567 C23.1201238,7.83050935 21.5490754,8.27328605 20.219675,9.15101655 L20.219675,9.15101655 C20.2030716,9.15638083 20.1853462,9.15638083 20.1685184,9.15101655 L20.1175861,9.15101655 L20.1175861,9.15101655 C17.3634275,7.45411562 13.8827544,7.45411562 11.1285957,9.15101655 L11.1285957,9.15101655 C11.1122166,9.15638083 11.0944913,9.15638083 11.0776634,9.15101655 L11.0332379,9.15101655 L11.0332379,9.15101655 C9.70383752,8.27350956 8.1325648,7.83073286 6.53885493,7.88437567 C5.12845648,7.85688373 3.73511025,8.19528046 2.49545841,8.86603911 L2.48940039,8.86603911 Z"></path>
                <path d="M16.3797834,8.96103159 L16.3797834,8.96103159 C16.3800077,8.9248227 16.3524101,8.89464861 16.3162863,8.89129594 L16.3162863,8.89129594 C16.0800232,8.86290995 15.8424139,8.84815818 15.6043559,8.84704062 C15.4033191,8.83698259 15.2016093,8.83698259 15.0005725,8.84704062 L15.0005725,8.84704062 C14.9644487,8.85039329 14.9368511,8.88056738 14.9368511,8.91677627 L14.9368511,8.91677627 L14.9368511,20.714842 C14.9366267,21.3862712 14.390058,21.9302987 13.7160464,21.9302987 C13.1990948,21.9300752 12.7384603,21.6055362 12.5656944,21.1198453 L12.5656944,21.1198453 C12.4142437,20.7508274 11.9910793,20.5740297 11.6206422,20.7246766 C11.2957524,20.8569955 11.1126654,21.2023211 11.1862592,21.5440705 L11.1862592,21.5440705 C11.6350019,22.9396776 13.1347002,23.7085579 14.535675,23.261311 C15.6454159,22.9070449 16.3950406,21.8755384 16.3862901,20.7146185 L16.3797834,8.96103159 Z"></path>
            </g>
        </g>
    </g>
</svg>