<?xml version="1.0" encoding="UTF-8"?>
<svg width="476px" height="193px" viewBox="0 0 476 193" version="1.1" xmlns="http://www.w3.org/2000/svg" xmlns:xlink="http://www.w3.org/1999/xlink">
    <!-- Generator: sketchtool 59.1 (101010) - https://sketch.com -->
    <title>EDE94B3A-8FE0-4F2F-9FB1-9BFBC7042E8E</title>
    <desc>Created with sketchtool.</desc>
    <g id="Comps" stroke="none" stroke-width="1" fill="none" fill-rule="evenodd">
        <g id="KW-home" transform="translate(-210.000000, -2866.000000)">
            <g id="step-3" transform="translate(210.000000, 2866.000000)">
                <g id="confetti">
                    <g id="ribbon-3" transform="translate(82.000000, 81.000000)" fill="#FFC713">
                        <path d="M8.8505662,4.3213148 C9.15849089,3.72268861 8.9763979,2.97376081 8.43435366,2.60994058 L4.84573037,0.198018911 C4.56563384,0.0103031568 4.22504131,-0.0471081908 3.9038075,0.0393313663 C3.58257369,0.125770923 3.30913172,0.349610672 3.14639746,0.657309693 C1.11070674,4.50645027 0,8.75682521 0,12.7588477 C0,16.9305239 1.21536483,20.3577879 3.14397762,23 C4.19539826,20.4919627 5.34300757,18.5103036 7.11856545,16.0654833 C6.82092508,15.0849749 6.65456105,13.9844832 6.65456105,12.7588477 C6.65456105,10.0650299 7.44584886,7.04738621 8.8505662,4.3213148" id="Fill-377"></path>
                        <path d="M20.6593948,11 C10.5719871,11 3,21.8457891 3,30.6547435 C3,36.4632193 5.70616342,41.5419996 10.4753608,44.7813776 C10.7621024,44.9763344 11.1178628,45.0450335 11.4579372,44.9707642 C11.7980115,44.8964949 12.0929099,44.6866843 12.2698489,44.390845 L14.5041749,40.6445792 C14.8323278,40.0949866 14.6836237,39.3888096 14.1597085,39.0149877 C5.16405232,32.5950281 11.8394228,17.8080164 20.6593948,17.8080164 C22.729958,17.8080164 23.0606207,20.8375838 17.2831218,21.3500417 L17.2893962,21.3593254 C14.907621,22.9876791 13.3854433,25.2207085 12.7159612,27.9971414 C13.6502244,28.1500123 14.5913895,28.2335653 15.5269077,28.2335653 C22.2217288,28.2335653 29,25.1507716 29,19.2593618 C29,15.1993083 25.8803514,11 20.6593948,11" id="Fill-378"></path>
                    </g>
                    <g id="ribbon-2" transform="translate(344.000000, 63.000000)" fill="#0093E9">
                        <path d="M4.92453021,27.2269027 C4.2882159,27.396116 3.89486926,28.0353665 4.024742,28.6858979 L4.88289637,32.9939446 C4.94938624,33.3298644 5.15072007,33.6237943 5.43904999,33.8067954 C5.72613711,33.9897965 6.07598571,34.0455742 6.40594948,33.962221 C10.5345357,32.9118447 14.2865531,30.8988325 17.0797493,28.2189943 C19.9903901,25.4257205 21.5221429,22.2181873 22,19 C19.5056976,19.8911903 17.3102889,20.3574671 14.3462076,20.6614245 C13.8733217,21.5419606 13.2233365,22.4036953 12.3676678,23.2246935 C10.4879307,25.0290092 7.82150027,26.4554151 4.92453021,27.2269027" id="Fill-379"></path>
                        <path d="M31.3984378,7.47882674 L27.6645354,5.1390352 C27.3785582,4.95949834 27.0352609,4.90718724 26.7119011,4.99308078 C26.3872952,5.07832849 26.1106637,5.29532269 25.9424418,5.59498133 C22.2571368,12.1609931 11.9663196,14.4303906 7.2804059,9.32586063 C5.86298087,7.78171446 7.84612982,5.35538358 12.1750393,9.29550727 L12.1775315,9.28388258 C14.9949363,9.88901222 17.6653027,9.4175665 20.148756,7.92056491 C19.6204147,7.11329485 19.0366225,6.35187774 18.3967563,5.65439641 C13.814268,0.66159256 6.92651692,-2.17547733 2.62938269,2.06236756 C-0.331322244,4.98274772 -1.25841167,10.3294588 2.31474548,14.2230837 C9.21994176,21.7442574 22.3125877,19.589815 28.7374171,13.2543596 C29.9747824,12.0331215 31.0065432,10.683366 31.8277151,9.23932128 C32.1735045,8.62967093 31.9828531,7.84565025 31.3984378,7.47882674" id="Fill-380"></path>
                    </g>
                    <path d="M164.043101,29.700833 C163.900401,29.403141 163.639302,29.1739607 163.320251,29.0666461 C163.001823,28.9593315 162.651615,28.9823708 162.350012,29.1303073 C157.37481,31.5791416 152.967295,35.0683819 148.309275,40.2400968 C148.089304,40.4850408 147.979007,40.8051657 148.00331,41.1289284 C148.028235,41.4526911 148.185268,41.7534145 148.439512,41.9644059 L151.764622,44.7115384 C152.28308,45.1401905 153.059521,45.0850175 153.508186,44.5866412 C157.547422,40.1036799 161.17725,37.1995164 165.319305,35.1429564 C165.916903,34.8458708 166.166161,34.1437787 165.883876,33.5520326 L164.043101,29.700833" id="Fill-381" fill="#80D0C7"></path>
                    <path d="M364.748632,35.9255673 C364.953816,35.6498181 365.038676,35.301637 364.98358,34.9617157 C364.928484,34.6217944 364.739132,34.3187244 364.457321,34.1217606 C359.809013,30.870588 354.477391,28.645533 347.476432,27.0323364 C347.145857,26.9560924 346.798817,27.0158169 346.512573,27.1994379 C346.226328,27.3824236 346.024944,27.6727863 345.954016,28.0057185 L345.028154,32.3554406 C344.883765,33.0340124 345.308699,33.7030538 345.983147,33.8587187 C352.051279,35.2597028 356.470971,37.0755815 360.357437,39.7739848 C360.918527,40.1628294 361.684168,40.0382975 362.092003,39.4899758 L364.748632,35.9255673" id="Fill-382" fill="#80D0C7"></path>
                    <path d="M197.050368,49.1222681 L192.701132,48.041643 C192.028948,47.8747601 191.33423,48.2238038 191.131416,48.831986 C190.859709,49.6423079 190.53907,50.4684955 190.121208,51.284106 C189.837268,51.8376399 190.067768,52.4981199 190.649813,52.8013295 L194.573461,54.8462319 C194.882511,55.0066509 195.252083,55.0436707 195.592038,54.9473018 C195.931993,54.8515204 196.213358,54.6323398 196.369814,54.3402948 C197.064533,53.0434271 197.557082,51.7706517 197.945326,50.5960081 C198.045767,50.2922108 198.006492,49.9643213 197.838446,49.6869667 C197.669756,49.4096121 197.385816,49.2057095 197.050368,49.1222681" id="Fill-383" fill="#0093E9"></path>
                    <path d="M284.921896,109.033532 L285.961705,104.660332 C286.12222,103.985249 285.764012,103.293385 285.151457,103.097184 C284.334717,102.835154 283.502044,102.524073 282.679403,102.115538 C282.11996,101.837372 281.459014,102.077459 281.160999,102.664124 L279.148066,106.622335 C278.989911,106.934061 278.956864,107.304518 279.056595,107.644641 C279.156327,107.984119 279.379987,108.263575 279.674461,108.416534 C280.98455,109.096781 282.268082,109.575019 283.450703,109.949348 C283.75757,110.046158 284.086272,110.002916 284.363043,109.830596 C284.639814,109.658275 284.841639,109.370429 284.921896,109.033532" id="Fill-384" fill="#FFC713"></path>
                    <path d="M117.200986,24.4903877 L119.75963,20.9640063 C120.154833,20.4199468 120.052487,19.6563873 119.527811,19.239275 C118.828037,18.6827083 118.13073,18.0754878 117.47658,17.3838443 C117.032054,16.9142021 116.306386,16.8704272 115.808837,17.2806606 L112.453623,20.0522375 C112.189743,20.2704867 112.026977,20.5906689 112.002931,20.9358653 C111.979503,21.2804364 112.097262,21.6200046 112.329082,21.8732737 C113.358705,22.9995395 114.434568,23.9344464 115.450011,24.7367779 C115.712657,24.9437707 116.047439,25.0344473 116.377288,24.988171 C116.706521,24.9418946 117.003693,24.7624175 117.200986,24.4903877" id="Fill-386" fill="#1D253C"></path>
                    <path d="M34.1423087,136.431789 L36.1257237,140.332411 C36.4321098,140.93489 37.1360183,141.171961 37.7158134,140.867245 C38.4898729,140.461378 39.3077018,140.078902 40.1794931,139.774186 C40.7718794,139.566827 41.1136408,138.913773 40.9655442,138.274628 L39.96904,133.964346 C39.8904949,133.624859 39.681241,133.335315 39.3928424,133.163359 C39.1038442,132.991403 38.7608836,132.953471 38.4449043,133.057783 C37.0388861,133.521812 35.7797653,134.111646 34.6609466,134.703378 C34.3719484,134.856368 34.1537008,135.126946 34.055969,135.451892 C33.9582372,135.777471 33.9894155,136.130866 34.1423087,136.431789" id="Fill-387" fill="#1D253C"></path>
                    <path d="M403.869564,46.8326841 L403.999364,42.6099698 C404.019592,41.9576757 403.554899,41.4073591 402.948044,41.3657233 C402.139466,41.3102089 401.306726,41.2136621 400.463872,41.0253959 C399.890731,40.8974715 399.322647,41.2643492 399.15801,41.8665597 L398.045442,45.9293684 C397.957785,46.249783 397.998242,46.5943343 398.155575,46.8821644 C398.312908,47.169391 398.574193,47.3739495 398.877058,47.4475664 C400.223939,47.7740151 401.507325,47.9218524 402.678331,47.997883 C402.981196,48.0171923 403.278443,47.9037499 403.503204,47.6847094 C403.726841,47.4650655 403.858888,47.1573226 403.869564,46.8326841" id="Fill-388" fill="#80D0C7"></path>
                    <path d="M385.832699,129.066837 L386.954926,124.742162 C387.128116,124.074159 386.787587,123.37661 386.184346,123.165932 C385.380415,122.885243 384.561272,122.554453 383.75383,122.127317 C383.205589,121.836992 382.545594,122.058589 382.237245,122.635384 L380.160716,126.523931 C379.996302,126.82967 379.956515,127.197072 380.048376,127.538139 C380.139652,127.877921 380.35614,128.161822 380.645181,128.321757 C381.928896,129.030868 383.190962,129.538935 384.355901,129.941022 C384.657229,130.045076 384.984886,130.010391 385.262225,129.845317 C385.540733,129.680886 385.746104,129.400196 385.832699,129.066837" id="Fill-389" fill="#0093E9"></path>
                    <path d="M93.6290039,47.3947963 L90.4887925,44.3602754 C90.0042665,43.8912595 89.2219125,43.8784013 88.7215108,44.33211 C88.0534618,44.9358302 87.3352456,45.5309784 86.538921,46.070408 C85.9985126,46.4365588 85.8403907,47.1425319 86.1750502,47.6917581 L88.4332083,51.3967392 C88.611016,51.6881903 88.9075739,51.8957574 89.2498537,51.9698448 C89.5921336,52.0445445 89.9509242,51.9790292 90.2417668,51.7892186 C91.5327779,50.9454797 92.6396309,50.0282658 93.6029678,49.1502385 C93.8518986,48.9230781 93.9947798,48.6083598 93.99986,48.2777219 C94.0049402,47.947084 93.8715844,47.628692 93.6290039,47.3947963" id="Fill-390" fill="#A2E0EB"></path>
                    <path d="M255.617273,25.7224763 C255.29404,25.0800964 254.512896,24.8179005 253.865775,25.1338466 L249.736024,27.1527547 C249.420676,27.3061393 249.180223,27.580134 249.068537,27.9111563 C248.956851,28.2434896 248.982473,28.6059754 249.13949,28.9179884 C250.855511,32.3265347 252.833009,35.7776879 255.759836,38.626446 C256.019999,38.879465 256.372795,39.0144959 256.735446,38.9987641 C257.098096,38.9830324 257.437753,38.8185045 257.674921,38.5445098 L260.681243,35.0579602 C261.128643,34.5388124 261.102364,33.7666456 260.619487,33.2802722 C258.551984,31.2004035 257.036998,28.5430483 255.617273,25.7224763" id="Fill-391" fill="#0093E9"></path>
                    <path d="M188.617273,0.722476277 C188.29404,0.0800963969 187.512896,-0.182099472 186.865775,0.13384655 L182.736024,2.15275474 C182.420676,2.30613933 182.180223,2.58013401 182.068537,2.9111563 C181.956851,3.24348956 181.982473,3.60597535 182.13949,3.91798844 C183.855511,7.32653474 185.833009,10.7776879 188.759836,13.626446 C189.019999,13.879465 189.372795,14.0144959 189.735446,13.9987641 C190.098096,13.9830324 190.437753,13.8185045 190.674921,13.5445098 L193.681243,10.0579602 C194.128643,9.53881239 194.102364,8.76664555 193.619487,8.28027221 C191.551984,6.20040348 190.036998,3.54304834 188.617273,0.722476277" id="Fill-391-Copy" fill="#0093E9"></path>
                    <path d="M223.171997,20.271775 C222.914612,20.0592126 222.588024,19.9655301 222.265686,20.0114023 L218.053433,20.6122624 C217.397222,20.7059449 216.932229,21.3410477 217.008109,22.0407591 C217.221787,24.0080916 217.322556,25.734434 217.322556,27.3968139 C217.322556,28.3200711 217.291597,29.2155466 217.227858,30.1052074 C217.178687,30.7984579 217.654,31.4090094 218.302926,31.4865397 L222.52732,31.9917791 C222.853908,32.0311904 223.18171,31.9278166 223.435452,31.7049169 C223.689195,31.4826632 223.847633,31.1596201 223.873736,30.8113796 C223.958721,29.6871896 224,28.5597691 224,27.3968139 C224,25.4327118 223.882841,23.418861 223.632741,21.1426992 C223.594497,20.7983353 223.428775,20.4849835 223.171997,20.271775" id="Fill-392" fill="#1D253C"></path>
                    <path d="M171.129869,71.13088 C170.818401,71.2807185 170.582696,71.5463986 170.474557,71.8668515 L169.064858,76.0566638 C168.844694,76.708902 169.202784,77.4121357 169.8704,77.6375231 C171.76705,78.2777994 172.524027,78.6763195 174.642136,79.8334757 C175.24953,80.1658906 176.01622,79.9877213 176.387261,79.4141797 L178.80065,75.6820675 C178.987789,75.3930932 179.046068,75.0430503 178.963183,74.7125241 C178.880297,74.3807389 178.664018,74.0936533 178.359026,73.924298 C175.95017,72.5839358 174.417439,71.8385207 172.129026,71.0691818 C171.800722,70.9590064 171.440689,70.9810415 171.129869,71.13088" id="Fill-393" fill="#FFC713"></path>
                    <path d="M7.31257857,157.30963 C7.53671476,157.560483 7.85509003,157.713231 8.19575157,157.733721 L12.6460011,157.997614 C13.3387857,158.039216 13.937968,157.531921 13.9927285,156.856976 C14.1487324,154.937698 14.3505823,154.135463 14.9567688,151.882128 C15.1306017,151.235746 14.7663804,150.568873 14.1124376,150.367693 L9.86085424,149.058163 C9.53165421,148.956332 9.17507391,148.989241 8.8713439,149.148818 C8.56825064,149.309017 8.34029394,149.580982 8.25051212,149.905725 C7.53735151,152.475111 7.18841221,154.082685 7.00375455,156.397491 C6.97764778,156.729065 7.08844238,157.058155 7.31257857,157.30963" id="Fill-394" fill="#80D0C7"></path>
                    <path d="M0.312578567,127.30963 C0.536714759,127.560483 0.85509003,127.713231 1.19575157,127.733721 L5.64600112,127.997614 C6.33878571,128.039216 6.93796797,127.531921 6.99272852,126.856976 C7.1487324,124.937698 7.35058232,124.135463 7.95676884,121.882128 C8.13060174,121.235746 7.76638043,120.568873 7.11243762,120.367693 L2.86085424,119.058163 C2.53165421,118.956332 2.17507391,118.989241 1.8713439,119.148818 C1.56825064,119.309017 1.34029394,119.580982 1.25051212,119.905725 C0.537351509,122.475111 0.188412212,124.082685 0.003754554,126.397491 C-0.0223522183,126.729065 0.0884423762,127.058155 0.312578567,127.30963" id="Fill-394" fill="#FFC713"></path>
                    <path d="M341.271326,115.647915 C341.06157,115.910509 340.966801,116.246079 341.010395,116.577284 L341.568269,120.909764 C341.654825,121.584648 342.272719,122.066173 342.957584,121.992572 C344.904774,121.78362 345.743797,121.827906 348.108603,121.990077 C348.78715,122.036234 349.386722,121.560946 349.46696,120.894171 L349.991349,116.557324 C350.031152,116.221754 349.932592,115.884312 349.716519,115.621718 C349.501077,115.359749 349.187075,115.191963 348.845906,115.165766 C346.145618,114.959933 344.47389,114.925004 342.125511,115.180112 C341.788765,115.216913 341.481081,115.385322 341.271326,115.647915" id="Fill-395" fill="#A2E0EB"></path>
                    <path d="M126.252309,46.8747886 C126.058101,46.2679582 125.378709,45.8972181 124.690582,46.0252261 L120.0726,46.8796191 C119.709048,46.947246 119.392536,47.1477114 119.199,47.4315027 C119.004792,47.7158978 118.949688,48.0588627 119.047128,48.3806941 C120.321912,52.5904668 123.115414,56.6752506 126.775125,59.6828349 C127.048628,59.9068489 127.41218,60.0209692 127.781108,59.9968168 C128.150708,59.9720605 128.492756,59.8120505 128.72594,59.554223 L131.699538,56.2682817 C132.144402,55.7761755 132.089298,55.0588476 131.573874,54.625311 C129.079411,52.5264628 127.168916,49.7434963 126.252309,46.8747886" id="Fill-396" fill="#80D0C7"></path>
                    <path d="M415.686739,186.338343 C415.095544,186.652381 414.840992,187.377535 415.102544,188.004308 L416.854492,192.208638 C416.99195,192.540267 417.257956,192.797622 417.588236,192.920762 C417.917879,193.043901 418.283797,193.023052 418.597531,192.861472 C422.705987,190.747905 426.40016,187.218561 428.81776,183.095672 C428.998491,182.78815 429.047492,182.417428 428.952672,182.072117 C428.857852,181.726154 428.628119,181.436223 428.317567,181.269431 L424.363751,179.148697 C423.772556,178.831401 423.041358,179.037285 422.690714,179.619754 C420.992221,182.440232 418.476619,184.8522 415.686739,186.338343" id="Fill-397" fill="#A2E0EB"></path>
                    <path d="M417.985528,107.165546 C418.201134,107.769869 418.880062,108.117979 419.544573,107.963399 L424.006759,106.931241 C424.357364,106.8503 424.656852,106.636687 424.833138,106.34335 C425.009423,106.050013 425.048088,105.702512 424.939302,105.381788 C423.509358,101.189867 420.606218,97.1793029 416.906844,94.2867066 C416.630292,94.0706595 416.270513,93.9696347 415.912043,94.0079754 C415.553574,94.0457076 415.227217,94.2197624 415.011611,94.4887562 L412.260509,97.9083857 C411.848302,98.4195956 411.934152,99.1401582 412.455144,99.5576463 C414.978844,101.578751 416.965169,104.310682 417.985528,107.165546" id="Fill-398" fill="#FFC713"></path>
                    <path d="M312.798162,74 C308.824523,74 304.750834,75.5779929 301.436887,78.3674176 C301.168363,78.5927575 301.010863,78.9138821 301.000536,79.2540409 C300.990208,79.5941996 301.129634,79.9233063 301.384602,80.1621543 L304.612699,83.191041 C305.08778,83.6368086 305.841713,83.6632108 306.35165,83.2536695 C308.317813,81.6738346 310.660943,80.7540551 312.798162,80.7540551 C314.32991,80.7540551 316.899607,81.2108748 316.899607,84.2723038 C316.899607,85.033056 316.747917,85.8816109 316.446473,86.8044605 C316.247016,87.4147814 316.574925,88.0686968 317.199114,88.3069307 L321.401256,89.9119398 C321.732393,90.0384248 322.10355,90.0279868 322.426295,89.8849236 C322.749685,89.7418604 322.996908,89.4784523 323.108578,89.1567136 C323.700493,87.4534638 324,85.8152984 324,84.2723038 C324,78.2237405 319.393781,74 312.798162,74" id="Fill-399" fill="#80D0C7"></path>
                    <path d="M475.986375,151.996195 C475.930564,151.605774 475.70796,151.260782 475.378866,151.057341 L471.425248,148.61935 C470.934494,148.315835 470.30774,148.384307 469.888835,148.786579 C467.563366,151.017839 464.457823,151.773662 462.861749,148.686505 C462.489032,147.965576 462.206769,147.089268 462.018806,146.07075 C461.894995,145.397224 461.286845,144.93504 460.622884,145.007462 L456.147078,145.497299 C455.794889,145.535485 455.473493,145.723124 455.260513,146.012812 C455.046249,146.303159 454.959003,146.670537 455.018022,147.028697 C455.333003,148.92484 455.87187,150.619517 456.628209,152.081127 C460.688959,159.933659 469.819552,159.672281 475.666262,153.07331 C475.92479,152.780988 476.042186,152.385958 475.986375,151.996195" id="Fill-400" fill="#80D0C7"></path>
                    <path d="M24.4711052,94.162455 C24.1416313,94.3507051 23.9096163,94.6822598 23.8410806,95.0659254 L23.0211684,99.6712143 C22.9186794,100.243781 23.1953369,100.815046 23.6996081,101.074297 C26.4951063,102.5106 28.2393061,105.200166 26.0279324,107.790072 C25.5117147,108.395208 24.8251011,108.967775 23.9787806,109.499956 C23.419178,109.851704 23.2148287,110.590374 23.5084629,111.196813 L25.486564,115.281645 C25.6418695,115.603429 25.9197845,115.84379 26.253031,115.946058 C26.5856488,116.048325 26.944046,116.004031 27.2439679,115.822946 C28.8316047,114.865411 30.1620758,113.763919 31.2089729,112.537362 C36.8332941,105.949259 33.4574439,97.3594504 25.5450393,94.0927568 C25.1948161,93.9481494 24.8012079,93.9735534 24.4711052,94.162455" id="Fill-401" fill="#0093E9"></path>
                    <path d="M32.4711052,166.162455 C32.1416313,166.350705 31.9096163,166.68226 31.8410806,167.065925 L31.0211684,171.671214 C30.9186794,172.243781 31.1953369,172.815046 31.6996081,173.074297 C34.4951063,174.5106 36.2393061,177.200166 34.0279324,179.790072 C33.5117147,180.395208 32.8251011,180.967775 31.9787806,181.499956 C31.419178,181.851704 31.2148287,182.590374 31.5084629,183.196813 L33.486564,187.281645 C33.6418695,187.603429 33.9197845,187.84379 34.253031,187.946058 C34.5856488,188.048325 34.944046,188.004031 35.2439679,187.822946 C36.8316047,186.865411 38.1620758,185.763919 39.2089729,184.537362 C44.8332941,177.949259 41.4574439,169.35945 33.5450393,166.092757 C33.1948161,165.948149 32.8012079,165.973553 32.4711052,166.162455" id="Fill-401" fill="#0093E9" transform="translate(36.500000, 177.000000) scale(-1, 1) translate(-36.500000, -177.000000) "></path>
                    <path d="M298.725442,42.899793 C298.518132,42.6442484 298.215236,42.482076 297.88627,42.44829 L293.564411,42.0066158 C292.886619,41.937201 292.278964,42.4218756 292.20324,43.0914513 C291.714137,47.3994649 290.997861,51.8598222 290.024621,56.6574247 C289.889931,57.3196289 290.32131,57.9652474 290.989792,58.102234 L295.243996,58.9745253 C295.567996,59.0408686 295.90503,58.9763682 296.180616,58.795767 C296.456202,58.6157802 296.647995,58.3338212 296.713168,58.013162 C297.731098,52.9999439 298.48027,48.3288852 298.992339,43.8070988 C299.028959,43.4815253 298.933373,43.1547232 298.725442,42.899793" id="Fill-402" fill="#FFC713"></path>
                    <g id="ribbon" transform="translate(411.000000, 113.000000)" fill="#1D253C">
                        <path d="M7.93340202,31.4889205 C7.16147288,29.278433 5.51010708,23.8230322 6.98833574,21.0326852 C6.75644448,21.0127109 6.52205305,21 6.28391135,21 C5.31759358,21 3.71810642,21.9617921 2.53114818,22.781343 C0.97916435,23.852691 0.0372232966,25.5783481 0.00159579826,27.423851 C-0.0365318754,29.3825414 0.608513358,31.6686891 1.94235689,34.3192161 C2.09111733,34.6151987 2.35801104,34.8397581 2.6811587,34.9408401 C3.00493141,35.0425273 3.35745613,35.0122633 3.65685212,34.8567059 L7.34148551,32.9434116 C7.88027329,32.6637716 8.12966578,32.0500163 7.93340202,31.4889205" id="Fill-403"></path>
                        <path d="M25.6641877,32.910112 C23.6120652,32.910112 21.2221631,32.0381947 19.1070647,29.6358046 C18.2222221,28.8759819 17.3004845,27.9569339 16.5148765,27.1703613 C14.7261076,25.3813068 12.7853061,23.4438543 10.5582506,22.257308 L10.549345,22.2732305 C10.1218724,22.0477676 9.85215765,22 9.70139725,22 C9.61234048,22 9.52837267,22.012738 9.41259886,22.1713263 C9.19440977,22.4713066 8.25804141,24.2699147 10.2344657,30.8121605 C10.6994692,31.2599019 11.1542949,31.7121015 11.5703173,32.1273608 C13.6631514,34.220854 15.9633606,36.5207031 18.6884979,37.5779586 C20.2940643,38.2014845 22.0866499,38.1314254 23.6394184,37.3856145 C25.6164787,36.4359953 28.4961931,34.6335658 29,32.0222722 C28.6787595,32.2139794 28.3403438,32.3878533 27.9675776,32.5209656 C27.2843849,32.7648986 26.5019575,32.9094751 25.6641877,32.910112" id="Fill-404"></path>
                        <path d="M21.9353764,28.6472227 C23.8587608,30.0926133 25.8347768,30.2229916 27.2011992,29.764484 C28.2944704,29.3989256 29,28.6478465 29,27.8506048 C29,27.2748191 28.9273817,26.5636644 28.8261159,25.8649862 C28.5163225,24.594889 28.1105929,23.3222965 27.709527,22.0696663 C27.6668887,21.935545 24.6242505,14.2725421 27.520986,10.2382992 C26.8960693,10.0898301 26.2431712,10 25.550966,10 C21.5096602,10 19,12.3549199 19,16.1452493 C19,18.7540638 19.8587608,21.4402321 20.6888741,24.0378179 C21.2018654,25.6416587 21.7241839,27.2841764 21.9353764,28.6472227" id="Fill-405"></path>
                        <path d="M37.6282115,18.450909 C37.3640166,18.3324031 37.0553719,18.1151423 36.7266934,17.83803 C36.6878781,17.8057102 36.640924,17.776383 36.6033608,17.7434647 L36.6102474,17.736881 C35.832062,17.0593624 34.9587163,16.0891701 34.2863341,15.3410268 C33.3898244,14.3439014 32.4025369,13.2516121 31.2812738,12.2981783 L31.2587358,12.3185278 C31.1347771,12.1946353 31.0033057,12.0701442 30.8636956,11.9546309 C30.4799244,11.6374181 30.0642244,11.3573133 29.6391336,11.0963609 C29.5589986,11.0562604 29.4838721,11.022145 29.4187625,11 C28.8183765,11.491979 27.0560338,13.8459372 28.65122,19.1757102 C28.7939604,19.3331196 28.9329444,19.4875364 29.0631637,19.6323769 C30.5337651,21.2681175 32.2447713,23.1707956 34.4084146,24.2559027 C36.2533964,25.1806078 38.4402038,25.2464444 40.3434087,24.4366541 C42.1214027,23.6801316 44.3689373,22.165291 45,19.2403498 C44.2117977,19.5587596 43.3303134,19.7101838 42.4231608,19.7101838 C40.7227975,19.7101838 38.9573246,19.2104241 37.6282115,18.450909" id="Fill-406"></path>
                        <path d="M54.5751745,4.63386799 C53.6920673,3.88077777 52.8159688,3.18501413 51.9398704,2.57373176 C51.464441,2.295547 50.0907187,1.6758165 49.2257175,2.21046228 C48.2526642,2.81329652 47.8338892,4.93739714 48.0599226,8.0583768 C48.8326414,8.56224726 49.6877134,9.15844368 50.4475828,9.75464011 C50.9405342,10.1408402 51.6367404,10.0629968 52.0391616,9.5784363 L54.7182705,6.35125161 C54.9226935,6.10504904 55.0225687,5.78462364 54.9957017,5.46118104 C54.9688347,5.13834189 54.8169776,4.84024367 54.5751745,4.63386799" id="Fill-407"></path>
                        <path d="M39.6402516,2.85441787 C38.5798742,4.3483815 38.0050314,6.13386553 38,7.96323434 C38,7.97639978 38,7.98956521 38,8.00273065 C38,8.94562671 38.127673,10.1041852 38.2754717,11.4458059 C38.4522013,13.0494815 38.6522013,14.8663118 38.6522013,16.5088568 C38.6522013,16.5784455 38.6503145,16.6354958 38.6496855,16.7013229 C40.0119497,17.7946811 42.7886792,18.4473106 44.4207547,17.6392036 C44.9685535,17.3671179 45.6465409,16.8179311 45.5383648,15.1622207 C45.4352201,13.5804874 45.2974843,12.0106658 45.1522013,10.6934952 C44.7283019,6.84041064 44.5295597,2.32529269 47,0.369284911 C43.0490566,-0.641319108 41.3113208,0.499058504 39.6402516,2.85441787" id="Fill-408"></path>
                    </g>
                    <g id="ribbon" transform="translate(38.500000, 58.000000) scale(-1, 1) rotate(-88.000000) translate(-38.500000, -58.000000) translate(11.000000, 39.000000)" fill="#1D253C">
                        <path d="M7.93340202,31.4889205 C7.16147288,29.278433 5.51010708,23.8230322 6.98833574,21.0326852 C6.75644448,21.0127109 6.52205305,21 6.28391135,21 C5.31759358,21 3.71810642,21.9617921 2.53114818,22.781343 C0.97916435,23.852691 0.0372232966,25.5783481 0.00159579826,27.423851 C-0.0365318754,29.3825414 0.608513358,31.6686891 1.94235689,34.3192161 C2.09111733,34.6151987 2.35801104,34.8397581 2.6811587,34.9408401 C3.00493141,35.0425273 3.35745613,35.0122633 3.65685212,34.8567059 L7.34148551,32.9434116 C7.88027329,32.6637716 8.12966578,32.0500163 7.93340202,31.4889205" id="Fill-403"></path>
                        <path d="M25.6641877,32.910112 C23.6120652,32.910112 21.2221631,32.0381947 19.1070647,29.6358046 C18.2222221,28.8759819 17.3004845,27.9569339 16.5148765,27.1703613 C14.7261076,25.3813068 12.7853061,23.4438543 10.5582506,22.257308 L10.549345,22.2732305 C10.1218724,22.0477676 9.85215765,22 9.70139725,22 C9.61234048,22 9.52837267,22.012738 9.41259886,22.1713263 C9.19440977,22.4713066 8.25804141,24.2699147 10.2344657,30.8121605 C10.6994692,31.2599019 11.1542949,31.7121015 11.5703173,32.1273608 C13.6631514,34.220854 15.9633606,36.5207031 18.6884979,37.5779586 C20.2940643,38.2014845 22.0866499,38.1314254 23.6394184,37.3856145 C25.6164787,36.4359953 28.4961931,34.6335658 29,32.0222722 C28.6787595,32.2139794 28.3403438,32.3878533 27.9675776,32.5209656 C27.2843849,32.7648986 26.5019575,32.9094751 25.6641877,32.910112" id="Fill-404"></path>
                        <path d="M21.9353764,28.6472227 C23.8587608,30.0926133 25.8347768,30.2229916 27.2011992,29.764484 C28.2944704,29.3989256 29,28.6478465 29,27.8506048 C29,27.2748191 28.9273817,26.5636644 28.8261159,25.8649862 C28.5163225,24.594889 28.1105929,23.3222965 27.709527,22.0696663 C27.6668887,21.935545 24.6242505,14.2725421 27.520986,10.2382992 C26.8960693,10.0898301 26.2431712,10 25.550966,10 C21.5096602,10 19,12.3549199 19,16.1452493 C19,18.7540638 19.8587608,21.4402321 20.6888741,24.0378179 C21.2018654,25.6416587 21.7241839,27.2841764 21.9353764,28.6472227" id="Fill-405"></path>
                        <path d="M37.6282115,18.450909 C37.3640166,18.3324031 37.0553719,18.1151423 36.7266934,17.83803 C36.6878781,17.8057102 36.640924,17.776383 36.6033608,17.7434647 L36.6102474,17.736881 C35.832062,17.0593624 34.9587163,16.0891701 34.2863341,15.3410268 C33.3898244,14.3439014 32.4025369,13.2516121 31.2812738,12.2981783 L31.2587358,12.3185278 C31.1347771,12.1946353 31.0033057,12.0701442 30.8636956,11.9546309 C30.4799244,11.6374181 30.0642244,11.3573133 29.6391336,11.0963609 C29.5589986,11.0562604 29.4838721,11.022145 29.4187625,11 C28.8183765,11.491979 27.0560338,13.8459372 28.65122,19.1757102 C28.7939604,19.3331196 28.9329444,19.4875364 29.0631637,19.6323769 C30.5337651,21.2681175 32.2447713,23.1707956 34.4084146,24.2559027 C36.2533964,25.1806078 38.4402038,25.2464444 40.3434087,24.4366541 C42.1214027,23.6801316 44.3689373,22.165291 45,19.2403498 C44.2117977,19.5587596 43.3303134,19.7101838 42.4231608,19.7101838 C40.7227975,19.7101838 38.9573246,19.2104241 37.6282115,18.450909" id="Fill-406"></path>
                        <path d="M54.5751745,4.63386799 C53.6920673,3.88077777 52.8159688,3.18501413 51.9398704,2.57373176 C51.464441,2.295547 50.0907187,1.6758165 49.2257175,2.21046228 C48.2526642,2.81329652 47.8338892,4.93739714 48.0599226,8.0583768 C48.8326414,8.56224726 49.6877134,9.15844368 50.4475828,9.75464011 C50.9405342,10.1408402 51.6367404,10.0629968 52.0391616,9.5784363 L54.7182705,6.35125161 C54.9226935,6.10504904 55.0225687,5.78462364 54.9957017,5.46118104 C54.9688347,5.13834189 54.8169776,4.84024367 54.5751745,4.63386799" id="Fill-407"></path>
                        <path d="M39.6402516,2.85441787 C38.5798742,4.3483815 38.0050314,6.13386553 38,7.96323434 C38,7.97639978 38,7.98956521 38,8.00273065 C38,8.94562671 38.127673,10.1041852 38.2754717,11.4458059 C38.4522013,13.0494815 38.6522013,14.8663118 38.6522013,16.5088568 C38.6522013,16.5784455 38.6503145,16.6354958 38.6496855,16.7013229 C40.0119497,17.7946811 42.7886792,18.4473106 44.4207547,17.6392036 C44.9685535,17.3671179 45.6465409,16.8179311 45.5383648,15.1622207 C45.4352201,13.5804874 45.2974843,12.0106658 45.1522013,10.6934952 C44.7283019,6.84041064 44.5295597,2.32529269 47,0.369284911 C43.0490566,-0.641319108 41.3113208,0.499058504 39.6402516,2.85441787" id="Fill-408"></path>
                    </g>
                    <path d="M242.927716,77.5800048 C241.599695,79.6644693 238.167729,84.5983516 235,85.211353 C235.124347,85.4152539 235.256776,85.615908 235.401018,85.8113671 C235.988555,86.6068403 237.742464,87.2919214 239.130172,87.7308927 C240.944388,88.3055816 242.920877,87.9484303 244.442879,86.7685325 C246.058763,85.5159056 247.526052,83.4866371 248.870861,80.6528043 C249.020698,80.3365631 249.041215,79.9696713 248.926817,79.637196 C248.813039,79.3047206 248.574294,79.0345844 248.265293,78.8904252 L244.470235,77.11376 C243.915028,76.8540137 243.264695,77.0514209 242.927716,77.5800048" id="Fill-409" fill="#A2E0EB"></path>
                    <path d="M233.696863,62.6000176 C234.931021,64.223065 235.689925,66.6442907 235.091944,69.7817163 C235.033085,70.9453027 234.871536,72.2340812 234.732529,73.3347539 C234.415693,75.8405001 234.074437,78.5565942 234.490832,81.0413692 L234.508991,81.0381918 C234.589765,81.51354 234.714997,81.7556626 234.80579,81.8751351 C234.859639,81.9463103 234.91975,82.0047756 235.113233,81.9996916 C235.477657,81.9888883 237.440663,81.6336481 241.344134,76.0819872 C241.412385,75.4407754 241.490655,74.8059186 241.563915,74.2238076 C241.934601,71.2922815 242.341604,68.0716065 241.52572,65.2716273 C241.04483,63.6212538 239.912736,62.2460484 238.398059,61.4726542 C236.470118,60.4882766 233.33557,59.3094384 231,60.502893 C231.342509,60.6401593 231.68126,60.8022098 232.008741,61.0157353 C232.609853,61.4071985 233.192806,61.9371991 233.696863,62.6000176" id="Fill-410" fill="#A2E0EB"></path>
                    <path d="M226.539654,64.6198368 C225.669507,65.5964503 224.85444,66.6439471 224.053144,67.6750863 C224.005276,67.7374878 222.558746,69.8742844 220.400754,71.7984312 C219.885354,72.2582635 219.864371,73.0149573 220.353542,73.4978115 L223.512171,76.6160684 C224.00462,77.1025576 224.829523,77.1304263 225.359349,76.6784699 C227.074726,75.2141553 228.513387,73.3621034 229.912705,71.5615479 C230.938915,70.2408174 231.99201,68.8904007 232.998548,67.929539 C233.045104,65.6873263 231.965125,64.1872672 230.762525,63.4754056 C229.801232,62.9053104 228.75076,62.842909 228.087821,63.3154639 C227.608486,63.6571575 227.0603,64.1321358 226.539654,64.6198368" id="Fill-411" fill="#A2E0EB"></path>
                </g>
            </g>
        </g>
    </g>
</svg>