<?xml version="1.0" encoding="UTF-8"?>
<svg width="54px" height="54px" viewBox="0 0 54 54" version="1.1" xmlns="http://www.w3.org/2000/svg" xmlns:xlink="http://www.w3.org/1999/xlink">
    <!-- Generator: sketchtool 59.1 (101010) - https://sketch.com -->
    <title>99EB27C8-D8F5-4177-9E89-DBA8DF177666</title>
    <desc>Created with sketchtool.</desc>
    <g id="Asset-Artboard-Page" stroke="none" stroke-width="1" fill="none" fill-rule="evenodd">
        <g id="global-/-icons-/-dog-circle">
            <g id="dog">
                <circle id="Oval" fill="#FFDF2A" cx="27.1963636" cy="27.1963636" r="26.5090909"></circle>
                <g id="Scaleable-Doggo" transform="translate(7.756364, 13.941818)">
                    <path d="M6.86129088,18.1492273 C6.86129088,21.4932364 9.76607514,24.198995 13.3560573,24.198995 C13.3560573,25.8694871 14.8100731,27.2238788 16.6034404,27.2238788 L23.0982068,27.2238788 C24.8915742,27.2238788 26.34559,25.8694871 26.34559,24.198995 C29.9355721,24.198995 32.8403564,21.4932364 32.8403564,18.1492273 L34.0808568,18.1492273 C36.9832055,18.1492273 39.3351228,15.9584552 39.3351228,13.2549653 C39.3351228,12.4949632 39.1451508,11.7455483 38.7798202,11.0664619 L38.6491131,10.8222025 C35.0899811,4.18938848 27.8117835,-7.56220924e-05 19.8508236,-7.56220924e-05 C11.8898637,-7.56220924e-05 4.61166618,4.18938848 1.0525342,10.8222025 L0.921827031,11.0664619 C0.556496422,11.7455483 0.366524506,12.4949632 0.366524506,13.2549653 C0.366524506,15.9584552 2.71844178,18.1492273 5.6207905,18.1492273 L6.86129088,18.1492273 Z" id="Fill-1" fill="#FFDF2A"></path>
                    <g id="Nose" transform="translate(16.603440, 16.413190)">
                        <polygon id="Fill-3" fill="#1D253C" points="0 0.0818039344 6.49476637 0.0818039344 3.24738319 3.10668776"></polygon>
                        <polygon id="Stroke-5" stroke="#1D253C" stroke-width="1.280448" stroke-linecap="round" stroke-linejoin="round" points="0 0.0818039344 6.49476637 0.0818039344 3.24738319 3.10668776"></polygon>
                    </g>
                    <path d="M14.9797488,9.07457563 C15.8760266,9.07457563 16.6034404,9.75214961 16.6034404,10.5870175 C16.6034404,11.4218855 15.8760266,12.0994595 14.9797488,12.0994595 C14.0834711,12.0994595 13.3560573,11.4218855 13.3560573,10.5870175 C13.3560573,9.75214961 14.0834711,9.07457563 14.9797488,9.07457563 Z M24.7218984,9.07457563 C25.6181762,9.07457563 26.34559,9.75214961 26.34559,10.5870175 C26.34559,11.4218855 25.6181762,12.0994595 24.7218984,12.0994595 C23.8256206,12.0994595 23.0982068,11.4218855 23.0982068,10.5870175 C23.0982068,9.75214961 23.8256206,9.07457563 24.7218984,9.07457563 Z" id="Eyes" fill="#1D253C"></path>
                    <line x1="31.2166657" y1="9.07457563" x2="32.8403573" y2="18.1492271" id="Stroke-11" stroke="#1D253C" stroke-width="1.280448" stroke-linecap="round" stroke-linejoin="round"></line>
                    <line x1="6.86129088" y1="18.1492271" x2="8.48498247" y2="9.07457563" id="Stroke-13" stroke="#1D253C" stroke-width="1.280448" stroke-linecap="round" stroke-linejoin="round"></line>
                    <path d="M32.8403564,18.1492273 L34.0808568,18.1492273 C36.9832055,18.1492273 39.3351228,15.9584552 39.3351228,13.2549653 C39.3351228,12.4949632 39.1451508,11.7455483 38.7798202,11.0664619 L38.6491131,10.8222025 C35.0899811,4.18938848 27.8117835,-7.56220924e-05 19.8508236,-7.56220924e-05 C11.8898637,-7.56220924e-05 4.61166618,4.18938848 1.0525342,10.8222025 L0.921827031,11.0664619 C0.556496422,11.7455483 0.366524506,12.4949632 0.366524506,13.2549653 C0.366524506,15.9584552 2.71844178,18.1492273 5.6207905,18.1492273 L6.86129088,18.1492273" id="Stroke-15" stroke="#1D253C" stroke-width="1.280448" stroke-linecap="round" stroke-linejoin="round"></path>
                    <path d="M6.86129088,18.149228 C6.86129088,21.4932371 9.76607514,24.1989957 13.3560573,24.1989957 C16.9460394,24.1989957 19.8508236,21.4932371 19.8508236,18.149228" id="Stroke-17" stroke="#1D253C" stroke-width="1.280448" stroke-linecap="round" stroke-linejoin="round"></path>
                    <path d="M32.8403564,18.149228 C32.8403564,21.4932371 29.9355721,24.1989957 26.34559,24.1989957 C22.7556079,24.1989957 19.8508236,21.4932371 19.8508236,18.149228" id="Stroke-19" stroke="#1D253C" stroke-width="1.280448" stroke-linecap="round" stroke-linejoin="round"></path>
                    <path d="M26.34559,24.1989938 L26.34559,24.1989938 C26.34559,25.8694859 24.8915742,27.2238776 23.0982068,27.2238776 L16.6034404,27.2238776 C14.8100731,27.2238776 13.3560573,25.8694859 13.3560573,24.1989938" id="Stroke-21" stroke="#1D253C" stroke-width="1.280448" stroke-linecap="round" stroke-linejoin="round"></path>
                </g>
            </g>
        </g>
    </g>
</svg>