<?xml version="1.0" encoding="UTF-8"?>
<svg width="60px" height="60px" viewBox="0 0 60 60" version="1.1" xmlns="http://www.w3.org/2000/svg" xmlns:xlink="http://www.w3.org/1999/xlink">
    <!-- Generator: sketchtool 59.1 (101010) - https://sketch.com -->
    <title>43F15DEB-2FE0-49C5-BEBE-536F941FD089</title>
    <desc>Created with sketchtool.</desc>
    <g id="Comps" stroke="none" stroke-width="1" fill="none" fill-rule="evenodd">
        <g id="KW-quote-results-basic-expanded" transform="translate(-131.000000, -642.000000)">
            <g id="list" transform="translate(90.000000, 219.000000)">
                <g id="promo" transform="translate(0.000000, 404.000000)">
                    <g id="dog" transform="translate(41.000000, 19.000000)">
                        <g>
                            <circle id="Oval" fill="#FFC713" cx="29.7" cy="29.7" r="29.7"></circle>
                            <g id="Scaleable-Doggo" transform="translate(9.900000, 16.200000)">
                                <path d="M6.988352,18.4853239 C6.988352,21.8912591 9.94692864,24.6471243 13.603392,24.6471243 C13.603392,26.3485514 15.0843341,27.7280244 16.910912,27.7280244 L23.525952,27.7280244 C25.3525299,27.7280244 26.833472,26.3485514 26.833472,24.6471243 C30.4899354,24.6471243 33.448512,21.8912591 33.448512,18.4853239 L34.7119846,18.4853239 C37.6680806,18.4853239 40.063552,16.253982 40.063552,13.5004275 C40.063552,12.7263513 39.8700621,11.9630583 39.4979661,11.2713962 L39.3648384,11.0226135 C35.7397965,4.2669697 28.3268173,-7.7022504e-05 20.218432,-7.7022504e-05 C12.1100467,-7.7022504e-05 4.69706752,4.2669697 1.0720256,11.0226135 L0.93889792,11.2713962 C0.56680192,11.9630583 0.373312,12.7263513 0.373312,13.5004275 C0.373312,16.253982 2.76878336,18.4853239 5.72487936,18.4853239 L6.988352,18.4853239 Z" id="Fill-1" fill="#FFC713"></path>
                                <g id="Nose" transform="translate(16.910912, 16.717138)">
                                    <polygon id="Fill-3" fill="#1D253C" points="0 0.0833188225 6.61504 0.0833188225 3.30752 3.16421898"></polygon>
                                    <polygon id="Stroke-5" stroke="#1D253C" stroke-width="1.280448" stroke-linecap="round" stroke-linejoin="round" points="0 0.0833188225 6.61504 0.0833188225 3.30752 3.16421898"></polygon>
                                </g>
                                <path d="M15.257152,9.24262346 C16.1700275,9.24262346 16.910912,9.93274509 16.910912,10.7830735 C16.910912,11.633402 16.1700275,12.3235236 15.257152,12.3235236 C14.3442765,12.3235236 13.603392,11.633402 13.603392,10.7830735 C13.603392,9.93274509 14.3442765,9.24262346 15.257152,9.24262346 Z M25.179712,9.24262346 C26.0925875,9.24262346 26.833472,9.93274509 26.833472,10.7830735 C26.833472,11.633402 26.0925875,12.3235236 25.179712,12.3235236 C24.2668365,12.3235236 23.525952,11.633402 23.525952,10.7830735 C23.525952,9.93274509 24.2668365,9.24262346 25.179712,9.24262346 Z" id="Eyes" fill="#1D253C"></path>
                                <line x1="31.794752" y1="9.24262346" x2="33.448512" y2="18.4853239" id="Stroke-11" stroke="#1D253C" stroke-width="1.280448" stroke-linecap="round" stroke-linejoin="round"></line>
                                <line x1="6.988352" y1="18.4853239" x2="8.642112" y2="9.24262346" id="Stroke-13" stroke="#1D253C" stroke-width="1.280448" stroke-linecap="round" stroke-linejoin="round"></line>
                                <path d="M33.448512,18.4853239 L34.7119846,18.4853239 C37.6680806,18.4853239 40.063552,16.253982 40.063552,13.5004275 C40.063552,12.7263513 39.8700621,11.9630583 39.4979661,11.2713962 L39.3648384,11.0226135 C35.7397965,4.2669697 28.3268173,-7.7022504e-05 20.218432,-7.7022504e-05 C12.1100467,-7.7022504e-05 4.69706752,4.2669697 1.0720256,11.0226135 L0.93889792,11.2713962 C0.56680192,11.9630583 0.373312,12.7263513 0.373312,13.5004275 C0.373312,16.253982 2.76878336,18.4853239 5.72487936,18.4853239 L6.988352,18.4853239" id="Stroke-15" stroke="#1D253C" stroke-width="1.280448" stroke-linecap="round" stroke-linejoin="round"></path>
                                <path d="M6.988352,18.4853239 C6.988352,21.8912591 9.94692864,24.6471243 13.603392,24.6471243 C17.2598554,24.6471243 20.218432,21.8912591 20.218432,18.4853239" id="Stroke-17" stroke="#1D253C" stroke-width="1.280448" stroke-linecap="round" stroke-linejoin="round"></path>
                                <path d="M33.448512,18.4853239 C33.448512,21.8912591 30.4899354,24.6471243 26.833472,24.6471243 C23.1770086,24.6471243 20.218432,21.8912591 20.218432,18.4853239" id="Stroke-19" stroke="#1D253C" stroke-width="1.280448" stroke-linecap="round" stroke-linejoin="round"></path>
                                <path d="M26.833472,24.6471243 L26.833472,24.6471243 C26.833472,26.3485514 25.3525299,27.7280244 23.525952,27.7280244 L16.910912,27.7280244 C15.0843341,27.7280244 13.603392,26.3485514 13.603392,24.6471243" id="Stroke-21" stroke="#1D253C" stroke-width="1.280448" stroke-linecap="round" stroke-linejoin="round"></path>
                            </g>
                        </g>
                    </g>
                </g>
            </g>
        </g>
    </g>
</svg>