<?xml version="1.0" encoding="UTF-8"?>
<svg width="158px" height="32px" viewBox="0 0 158 32" version="1.1" xmlns="http://www.w3.org/2000/svg" xmlns:xlink="http://www.w3.org/1999/xlink">
    <!-- Generator: sketchtool 62 (101010) - https://sketch.com -->
    <title>9E0EAB1E-3405-4E2F-BBB4-993D1415FC5B</title>
    <desc>Created with sketchtool.</desc>
    <defs>
        <path d="M15.9196384,0.115147539 L0.501239051,7.60432773 C0.194123823,7.75370478 0,8.05875395 0,8.39252444 L0,8.39252444 L0,10.7437375 C0,11.2350162 0.532153067,11.5543605 0.984523673,11.3346883 L0.984523673,11.3346883 L15.9196384,4.07999993 C16.1749153,3.95593436 16.4755507,3.95593436 16.7306926,4.07999993 L16.7306926,4.07999993 L31.6660774,11.3346883 C32.118178,11.5543605 32.6504661,11.2350162 32.6504661,10.7437375 L32.6504661,10.7437375 L32.6504661,8.39252444 C32.6504661,8.05875395 32.4563422,7.75370478 32.149092,7.60432773 L32.149092,7.60432773 L16.7306926,0.115147539 C16.6031217,0.0531147532 16.4642111,0.0220327866 16.3251655,0.0220327866 L16.3251655,0.0220327866 C16.186255,0.0220327866 16.0472094,0.0531147532 15.9196384,0.115147539" id="path-1"></path>
        <polygon id="path-3" points="0 0.0830295047 32.6504372 0.0830295047 32.6504372 23.7688665 0 23.7688665"></polygon>
        <polygon id="path-5" points="0.0997888215 0.0220327866 6.85125523 0.0220327866 6.85125523 11.1409053 0.0997888215 11.1409053"></polygon>
        <polygon id="path-7" points="0.115988306 0.0220327866 0.884248837 0.0220327866 0.884248837 11.1409313 0.115988306 11.1409313"></polygon>
        <polygon id="path-9" points="0.0614095438 0.0220327866 0.829535089 0.0220327866 0.829535089 11.1409313 0.0614095438 11.1409313"></polygon>
    </defs>
    <g id="Asset-Artboard-Page" stroke="none" stroke-width="1" fill="none" fill-rule="evenodd">
        <g id="global-/-logo-/-kc---white" transform="translate(0.200304, 0.000000)">
            <g id="Group-39">
                <g id="Group-3" transform="translate(0.000000, 0.109115)">
                    <mask id="mask-2" fill="white">
                        <use xlink:href="#path-1"></use>
                    </mask>
                    <g id="Clip-2"></g>
                    <path d="M15.9196384,0.115147539 L0.501239051,7.60432773 C0.194123823,7.75370478 0,8.05875395 0,8.39252444 L0,8.39252444 L0,10.7437375 C0,11.2350162 0.532153067,11.5543605 0.984523673,11.3346883 L0.984523673,11.3346883 L15.9196384,4.07999993 C16.1749153,3.95593436 16.4755507,3.95593436 16.7306926,4.07999993 L16.7306926,4.07999993 L31.6660774,11.3346883 C32.118178,11.5543605 32.6504661,11.2350162 32.6504661,10.7437375 L32.6504661,10.7437375 L32.6504661,8.39252444 C32.6504661,8.05875395 32.4563422,7.75370478 32.149092,7.60432773 L32.149092,7.60432773 L16.7306926,0.115147539 C16.6031217,0.0531147532 16.4642111,0.0220327866 16.3251655,0.0220327866 L16.3251655,0.0220327866 C16.186255,0.0220327866 16.0472094,0.0531147532 15.9196384,0.115147539" id="Fill-1" fill="#FFFFFF" mask="url(#mask-2)"></path>
                </g>
                <g id="Group-38" transform="translate(0.000000, 0.109115)">
                    <g id="Group-6" transform="translate(0.000000, 7.868852)">
                        <mask id="mask-4" fill="white">
                            <use xlink:href="#path-3"></use>
                        </mask>
                        <g id="Clip-5"></g>
                        <path d="M-2.69991395e-05,8.45358723 L-2.69991395e-05,10.8048004 C-2.69991395e-05,11.295948 0.532126068,11.6154234 0.984361678,11.3958824 L3.42508401,10.2103086 C3.72652942,10.0638168 4.08129813,10.2768004 4.08129813,10.6042758 L4.08129813,23.3283419 C4.08129813,23.5716206 4.28433167,23.7688665 4.5347487,23.7688665 L7.7091727,23.7688665 C7.95958973,23.7688665 8.16262327,23.5716206 8.16262327,23.3283419 L8.16262327,8.45358723 C8.16262327,8.11981672 8.35674709,7.81463638 8.66399731,7.66552162 L15.9196114,4.14106246 C16.1748883,4.01699688 16.4755238,4.01699688 16.7308006,4.14106246 L23.9865498,7.66552162 C24.293665,7.81463638 24.4877888,8.11981672 24.4877888,8.45358723 L24.4877888,23.3283419 C24.4877888,23.5716206 24.6908223,23.7688665 24.9412394,23.7688665 L28.1156634,23.7688665 C28.3660804,23.7688665 28.5691139,23.5716206 28.5691139,23.3283419 L28.5691139,10.6042758 C28.5691139,10.2768004 28.9238826,10.0638168 29.225463,10.2103086 L31.6660504,11.3958824 C32.118286,11.6154234 32.6504391,11.295948 32.6504391,10.8048004 L32.6504391,8.45358723 C32.6504391,8.11981672 32.4563152,7.81463638 32.149065,7.66552162 L16.7308006,0.176078689 C16.4755238,0.05201311 16.1748883,0.05201311 15.9196114,0.176078689 L0.501347047,7.66552162 C0.194096824,7.81463638 -2.69991395e-05,8.11981672 -2.69991395e-05,8.45358723" id="Fill-4" fill="#FFFFFF" mask="url(#mask-4)"></path>
                    </g>
                    <path d="M14.7381013,31.6376398 L17.9125252,31.6376398 C18.1629422,31.6376398 18.3659757,31.4403939 18.3659757,31.1971152 L18.3659757,24.5888529 C18.3659757,24.1022955 17.9599087,23.7078037 17.4589396,23.7078037 L15.1915519,23.7078037 C14.6907178,23.7078037 14.2846507,24.1022955 14.2846507,24.5888529 L14.2846507,31.1971152 C14.2846507,31.4403939 14.4876843,31.6376398 14.7381013,31.6376398" id="Fill-7" fill="#FFFFFF"></path>
                    <g id="Group-11" transform="translate(44.278590, 0.000000)">
                        <mask id="mask-6" fill="white">
                            <use xlink:href="#path-5"></use>
                        </mask>
                        <g id="Clip-10"></g>
                        <path d="M5.95171766,11.1081177 L2.81212254,7.34838013 L0.868049381,9.25224893 L0.868049381,11.0522489 C0.868049381,11.1011669 0.827280678,11.1409046 0.776792284,11.1409046 L0.191045918,11.1409046 C0.14069252,11.1409046 0.0997888215,11.1011669 0.0997888215,11.0522489 L0.0997888215,0.110609834 C0.0997888215,0.0616918025 0.14069252,0.0219540987 0.191045918,0.0219540987 L0.776792284,0.0219540987 C0.827280678,0.0219540987 0.868049381,0.0616918025 0.868049381,0.110609834 L0.868049381,8.353626 L5.79539263,3.39992122 C5.81253708,3.38260974 5.83629633,3.37290483 5.86100054,3.37290483 L6.6231863,3.37290483 C6.70418372,3.37290483 6.74495242,3.4677245 6.68811923,3.52372449 L3.34508558,6.81526539 L6.83080969,10.9965112 C6.87900316,11.0544784 6.83661451,11.1409046 6.75980195,11.1409046 L6.02245541,11.1409046 C5.99505128,11.1409046 5.96899711,11.128839 5.95171766,11.1081177" id="Fill-9" fill="#FFFFFF" mask="url(#mask-6)"></path>
                    </g>
                    <g id="Group-14" transform="translate(61.288048, 0.000000)">
                        <mask id="mask-8" fill="white">
                            <use xlink:href="#path-7"></use>
                        </mask>
                        <g id="Clip-13"></g>
                        <path d="M0.115988306,11.0522751 L0.115988306,0.110636064 C0.115988306,0.0617180325 0.156892003,0.0219803286 0.2072454,0.0219803286 L0.792991744,0.0219803286 C0.84334514,0.0219803286 0.884248837,0.0617180325 0.884248837,0.110636064 L0.884248837,11.0522751 C0.884248837,11.1011931 0.84334514,11.1409308 0.792991744,11.1409308 L0.2072454,11.1409308 C0.156892003,11.1409308 0.115988306,11.1011931 0.115988306,11.0522751" id="Fill-12" fill="#FFFFFF" mask="url(#mask-8)"></path>
                    </g>
                    <g id="Group-17" transform="translate(64.932932, 0.000000)">
                        <mask id="mask-10" fill="white">
                            <use xlink:href="#path-9"></use>
                        </mask>
                        <g id="Clip-16"></g>
                        <path d="M0.0614095438,11.0522751 L0.0614095438,0.110636064 C0.0614095438,0.0617180325 0.102178246,0.0219803286 0.152531643,0.0219803286 L0.73841299,0.0219803286 C0.788766387,0.0219803286 0.829535089,0.0617180325 0.829535089,0.110636064 L0.829535089,11.0522751 C0.829535089,11.1011931 0.788766387,11.1409308 0.73841299,11.1409308 L0.152531643,11.1409308 C0.102178246,11.1409308 0.0614095438,11.1011931 0.0614095438,11.0522751" id="Fill-15" fill="#FFFFFF" mask="url(#mask-10)"></path>
                    </g>
                    <path d="M74.5575464,6.8914097 C74.4477949,5.32249169 73.5228043,3.87540974 71.6884827,3.87540974 C70.104983,3.87540974 68.8820569,5.17009825 68.7409864,6.8914097 L74.5575464,6.8914097 Z M75.2006657,7.56157376 L72.4748325,7.56157376 L68.7409864,7.56157376 C68.8820569,9.49586888 70.3088265,10.623082 71.8766666,10.623082 C73.0782633,10.623082 73.9109168,10.1211804 74.5609211,9.4653115 C74.594535,9.43147543 74.6486683,9.42898363 74.6849822,9.4600656 L75.0817345,9.80013118 C75.1207483,9.8335738 75.1235832,9.89272134 75.0876743,9.92931151 C74.2866099,10.746623 73.340695,11.3236722 71.8452126,11.3236722 C69.7444095,11.3236722 67.9257474,9.69390167 67.9257474,7.27213114 L67.9257474,7.24170491 C67.9257474,4.98727864 69.5562255,3.19003271 71.7198016,3.19003271 C73.9618102,3.19003271 75.3884448,4.95685241 75.3884448,7.25691802 L75.3884448,7.2874754 C75.3884448,7.2874754 75.4096391,7.56157376 75.2006657,7.56157376 L75.2006657,7.56157376 Z" id="Fill-18" fill="#FFFFFF"></path>
                    <path d="M58.5273343,6.8914097 C58.4175828,5.32249169 57.4925922,3.87540974 55.6582705,3.87540974 C54.0747709,3.87540974 52.8518448,5.17009825 52.7107743,6.8914097 L58.5273343,6.8914097 Z M59.1704536,7.56157376 L56.4446204,7.56157376 L52.7107743,7.56157376 C52.8518448,9.49586888 54.2786144,10.623082 55.8464544,10.623082 C57.0480512,10.623082 57.8808397,10.1211804 58.530709,9.4653115 C58.5643229,9.43147543 58.6184562,9.42898363 58.65477,9.4600656 L59.0515224,9.80013118 C59.0905362,9.8335738 59.0933711,9.89272134 59.0574622,9.92931151 C58.2563977,10.746623 57.3104828,11.3236722 55.8150004,11.3236722 C53.7141973,11.3236722 51.8955352,9.69390167 51.8955352,7.27213114 L51.8955352,7.24170491 C51.8955352,4.98727864 53.5260133,3.19003271 55.6895894,3.19003271 C57.9315981,3.19003271 59.3582326,4.95685241 59.3582326,7.25691802 L59.3582326,7.2874754 C59.3582326,7.2874754 59.379427,7.56157376 59.1704536,7.56157376 L59.1704536,7.56157376 Z" id="Fill-20" fill="#FFFFFF"></path>
                    <path d="M81.5495654,4.07346889 C79.6995844,4.07346889 78.0847658,5.4290099 78.0847658,7.95753456 L78.0847658,11.0522232 C78.0847658,11.1011412 78.0438621,11.1408789 77.9935087,11.1408789 L77.4077624,11.1408789 C77.357409,11.1408789 77.3165053,11.1011412 77.3165053,11.0522232 L77.3165053,3.4614033 C77.3165053,3.41248526 77.357409,3.37287871 77.4077624,3.37287871 L77.9935087,3.37287871 C78.0438621,3.37287871 78.0847658,3.41248526 78.0847658,3.4614033 L78.0847658,5.58140335 C78.6996712,4.22232135 79.99293,3.22927214 81.5357959,3.24868198 C81.5862843,3.24920657 81.6279979,3.29091149 81.6279979,3.33982952 L81.6279979,4.07346889 L81.5495654,4.07346889 Z" id="Fill-22" fill="#FFFFFF"></path>
                    <path d="M51.9846557,31.8688004 C47.3154245,31.8688004 43.8654745,28.3149643 43.8654745,23.9523414 C43.8654745,19.5895873 47.3154245,15.9490627 52.0143548,15.9490627 C54.7643521,15.9490627 56.5481852,16.863161 57.9533554,18.2344397 C58.1469393,18.4232922 58.1443744,18.7305709 57.9580803,18.9261119 L56.4260141,20.5334561 C56.2316203,20.7375217 55.9003409,20.7533905 55.6939325,20.5607348 C54.6963143,19.6299807 53.5997442,19.0117512 51.9846557,19.0117512 C49.3674941,19.0117512 47.4641898,21.2075545 47.4641898,23.8945053 C47.4641898,26.6392922 49.3971932,28.8350955 52.16312,28.8350955 C53.6872214,28.8350955 54.8507493,28.2045381 55.8914312,27.2583086 C56.0909548,27.0768004 56.4058998,27.0896529 56.6005636,27.2761447 L58.0487974,28.6638168 C58.248996,28.8555545 58.2596607,29.1718824 58.0641869,29.3683414 C56.5897639,30.8513578 54.8236152,31.8688004 51.9846557,31.8688004" id="Fill-24" fill="#FFFFFF"></path>
                    <path d="M68.1329245,19.0117383 C65.2480663,19.0117383 63.40416,21.2075415 63.40416,23.8944924 C63.40416,26.6104268 65.3968316,28.8350825 68.1923227,28.8350825 C71.1068799,28.8350825 72.9507863,26.6392792 72.9507863,23.9523284 C72.9507863,21.236394 70.9582497,19.0117383 68.1329245,19.0117383 M68.1329243,31.8687874 C63.3447619,31.8687874 59.8055796,28.3150825 59.8055796,23.9523284 C59.8055796,19.5607218 63.3744609,15.9490497 68.1923224,15.9490497 C73.0103189,15.9490497 76.5493661,19.5028857 76.5493661,23.8944923 C76.5493661,28.2572464 72.9806198,31.8687874 68.1329243,31.8687874" id="Fill-26" fill="#FFFFFF"></path>
                    <path d="M89.9368372,16.2668587 L92.5809981,16.2668587 C92.9492663,16.2668587 93.2004933,16.6293505 93.0618528,16.9608915 L87.0596738,31.3231214 C86.9801614,31.5132853 86.7898174,31.6377443 86.5785491,31.6377443 L84.0352301,31.6377443 C83.8243668,31.6377443 83.6342929,31.5136788 83.5546454,31.3239083 L77.5245224,16.9616784 C77.3852068,16.6300063 77.6362988,16.2668587 78.0051071,16.2668587 L80.7362051,16.2668587 C80.9540882,16.2668587 81.148752,16.3991866 81.2236746,16.5978751 L85.3220091,27.4772196 L89.4499077,16.5968259 C89.5249653,16.398662 89.7194942,16.2668587 89.9368372,16.2668587" id="Fill-28" fill="#FFFFFF"></path>
                    <path d="M105.693508,22.8255218 C105.45551,20.5718824 104.087599,18.8095218 101.708299,18.8095218 C99.5075996,18.8095218 97.9610889,20.4563414 97.6338593,22.8255218 L105.693508,22.8255218 Z M102.18416,29.0086037 C103.777379,29.0086037 104.953866,28.484407 106.091745,27.5011939 C106.291674,27.3287348 106.589744,27.319948 106.789673,27.4922758 L108.160419,28.6739152 C108.374793,28.8587021 108.400847,29.1832922 108.205373,29.3868332 C106.750119,30.9043414 104.793762,31.8688004 102.124627,31.8688004 C97.5743263,31.8688004 94.0649779,28.6618496 94.0649779,23.9233578 C94.0649779,19.5317512 97.2473667,15.9490627 101.737999,15.9490627 C106.73446,15.9490627 109.262389,19.7628332 109.262389,24.1834233 C109.262389,24.3480135 109.254425,24.504866 109.242545,24.6659152 C109.223106,24.9304397 108.996313,25.136866 108.723352,25.136866 L97.6636934,25.136866 C98.0800202,27.6215873 99.8643934,29.0086037 102.18416,29.0086037 L102.18416,29.0086037 Z" id="Fill-30" fill="#FFFFFF"></path>
                    <path d="M121.246344,19.676184 C118.09379,19.676184 115.89309,21.6697578 115.89309,25.7147414 L115.89309,31.0178234 C115.89309,31.2963808 115.660627,31.5220857 115.373896,31.5220857 L112.813568,31.5220857 C112.526837,31.5220857 112.294374,31.2963808 112.294374,31.0178234 L112.294374,16.7712659 C112.294374,16.4927086 112.526837,16.2668725 112.813568,16.2668725 L115.373896,16.2668725 C115.660627,16.2668725 115.89309,16.4927086 115.89309,16.7712659 L115.89309,19.7051676 C116.806741,17.580184 118.442214,16.0812987 120.895221,15.9776922 C121.197071,15.9649708 121.454508,16.1888397 121.454508,16.4822168 L121.454508,19.4550692 C121.454508,19.4550692 121.483262,19.676184 121.246344,19.676184" id="Fill-32" fill="#FFFFFF"></path>
                    <path d="M134.905177,22.8255218 C134.667179,20.5718824 133.299268,18.8095218 130.919969,18.8095218 C128.719269,18.8095218 127.172758,20.4563414 126.845663,22.8255218 L134.905177,22.8255218 Z M131.395828,29.0086037 C132.989047,29.0086037 134.165535,28.484407 135.303414,27.5011939 C135.503342,27.3287348 135.801413,27.319948 136.001341,27.4922758 L137.372088,28.6739152 C137.586461,28.8587021 137.61265,29.1832922 137.417176,29.3868332 C135.961788,30.9043414 134.005565,31.8688004 131.336295,31.8688004 C126.785995,31.8688004 123.276782,28.6618496 123.276782,23.9233578 C123.276782,19.5317512 126.459036,15.9490627 130.949667,15.9490627 C135.946128,15.9490627 138.473923,19.7628332 138.473923,24.1834233 C138.473923,24.3480135 138.466093,24.504866 138.454213,24.6659152 C138.434774,24.9304397 138.208116,25.136866 137.935155,25.136866 L126.875362,25.136866 C127.291689,27.6215873 129.076062,29.0086037 131.395828,29.0086037 L131.395828,29.0086037 Z" id="Fill-34" fill="#FFFFFF"></path>
                    <path d="M148.852039,18.9827931 C146.383642,18.9827931 144.331573,20.8319734 144.331573,23.8945307 C144.331573,26.899252 146.413341,28.8062684 148.852039,28.8062684 C151.261037,28.8062684 153.402204,26.8705307 153.402204,23.8945307 C153.402204,20.9186619 151.261037,18.9827931 148.852039,18.9827931 M153.342806,31.017941 L153.342806,28.9796459 C152.182923,30.5687607 150.547315,31.8399738 147.989551,31.8399738 C144.301739,31.8399738 140.703158,28.9796459 140.703158,23.8945311 C140.703158,18.8095474 144.242341,15.9490884 147.989551,15.9490884 C150.576879,15.9490884 152.212757,17.2204326 153.342806,18.6360392 L153.342806,10.9349244 C153.342806,10.656367 153.575134,10.4306621 153.861864,10.4306621 L156.422193,10.4306621 C156.708924,10.4306621 156.941386,10.656367 156.941386,10.9349244 L156.941386,31.017941 C156.941386,31.2963673 156.708924,31.5220722 156.422193,31.5220722 L153.861864,31.5220722 C153.575134,31.5220722 153.342806,31.2963673 153.342806,31.017941" id="Fill-36" fill="#FFFFFF"></path>
                </g>
            </g>
        </g>
    </g>
</svg>