<?xml version="1.0" encoding="UTF-8"?>
<svg width="122px" height="110px" viewBox="0 0 122 110" version="1.1" xmlns="http://www.w3.org/2000/svg" xmlns:xlink="http://www.w3.org/1999/xlink">
    <!-- Generator: Sketch 62 (91390) - https://sketch.com -->
    <title>kacey-tail</title>
    <desc>Created with Sketch.</desc>
    <defs>
        <polygon id="path-1" points="0.1756 0.37425 113.0976 0.37425 113.0976 105.5 0.1756 105.5"></polygon>
        <polygon id="path-3" points="0.0001 0.421010299 122.047 0.421010299 122.047 109 0.0001 109"></polygon>
    </defs>
    <g id="Comps" stroke="none" stroke-width="1" fill="none" fill-rule="evenodd">
        <g id="coach-interstitial-05" transform="translate(-869.000000, -283.000000)">
            <g id="kacey-tail" transform="translate(929.500000, 338.500000) scale(-1, 1) translate(-929.500000, -338.500000) translate(868.000000, 283.000000)">
                <g id="Group-3" transform="translate(3.000000, 3.579500)">
                    <mask id="mask-2" fill="white">
                        <use xlink:href="#path-1"></use>
                    </mask>
                    <g id="Clip-2"></g>
                    <path d="M3.6406,93.98975 C2.1141,97.03925 0.9776,101.45575 0.1756,105.50025 L113.0976,105.50025 C96.9286,93.68425 80.1656,82.14025 63.7501,73.92325 L63.7481,73.92675 C55.9951,70.06325 47.6586,68.65675 39.6221,69.40575 C22.3161,54.70625 38.4746,6.27475 56.2046,0.37425 C56.2046,0.37425 1.0801,15.53675 13.9361,80.54425 C9.7961,84.22325 6.2716,88.73425 3.6406,93.98975" id="Fill-1" fill="#FCDE28" mask="url(#mask-2)"></path>
                </g>
                <g id="Group-6" transform="translate(0.000000, 0.079500)">
                    <mask id="mask-4" fill="white">
                        <use xlink:href="#path-3"></use>
                    </mask>
                    <g id="Clip-5"></g>
                    <path d="M6.8506,109 C7.7401,104.6815 8.7666,101.299 9.8656,99.104 C12.2361,94.367 15.4296,90.197 19.3566,86.7075 C20.2831,85.884 20.7051,84.63 20.4651,83.4125 C15.4016,57.807 20.4891,37.2575 35.5861,22.3335 C37.4736,20.4685 39.4101,18.808 41.3266,17.3375 C37.4386,24.348 34.5511,32.5815 33.0531,40.31 C29.9836,56.15 32.6796,69.02 40.4511,75.6205 C41.1676,76.2295 42.1036,76.5255 43.0411,76.438 C50.6886,75.7255 58.3791,77.1665 65.2821,80.607 C65.3301,80.631 65.3781,80.653 65.4251,80.6745 C80.2961,88.1355 95.3361,98.2655 110.1806,109 L122.0471,109 C104.4256,96.012 86.4026,83.3465 68.4116,74.3415 C68.3581,74.314 68.3036,74.2885 68.2496,74.2645 C60.7001,70.5365 52.3501,68.847 43.9931,69.3455 C39.0676,64.141 37.5421,53.944 39.9256,41.6425 C43.0761,25.3845 52.2631,9.9525 60.4046,7.2425 C62.2051,6.644 63.2001,4.7195 62.6491,2.905 C62.0971,1.0895 60.2011,0.0435 58.3711,0.5475 C57.7731,0.7115 43.5711,4.72 30.8966,17.1275 C10.3511,37.239 9.7801,63.595 13.2336,82.8395 C9.3081,86.63 6.1721,91.0885 3.6061,95.97 C1.7706,99.463 0.5391,104.879 0.5151,104.866 C0.5151,104.866 0.2396,106.0975 0.0001,109 L6.8506,109 Z" id="Fill-4" fill="#1B253C" mask="url(#mask-4)"></path>
                </g>
            </g>
        </g>
    </g>
</svg>