<?xml version="1.0" encoding="UTF-8"?>
<svg width="114px" height="127px" viewBox="0 0 114 127" version="1.1" xmlns="http://www.w3.org/2000/svg" xmlns:xlink="http://www.w3.org/1999/xlink">
    <!-- Generator: Sketch 62 (91390) - https://sketch.com -->
    <title>kacey</title>
    <desc>Created with Sketch.</desc>
    <g id="Comps" stroke="none" stroke-width="1" fill="none" fill-rule="evenodd">
        <g id="coach-interstitial-02" transform="translate(-663.000000, -302.000000)">
            <g id="kacey" transform="translate(666.000000, 305.000000)">
                <path d="M16.35895,106.563125 C6.9992,105.670625 0.12495,97.274125 0.12495,87.871625 L0.12495,105.170375 C0.12495,114.506625 7.6957,123.282625 17.01495,123.842875 C27.46145,124.471375 36.1297,116.185125 36.1297,105.874125 L36.1297,88.645375 C36.1297,99.171375 27.09595,107.587125 16.35895,106.563125" id="Fill-31" fill="#C2C2C2"></path>
                <path d="M91.905075,106.563125 C101.265075,105.670625 108.139075,97.274125 108.139075,87.871625 L108.139075,105.170375 C108.139075,114.506625 100.568325,123.282625 91.249325,123.842875 C80.802575,124.471375 72.134325,116.185125 72.134325,105.874125 L72.134325,88.645375 C72.134325,99.171375 81.168075,107.587125 91.905075,106.563125" id="Fill-39" fill="#C2C2C2"></path>
                <path d="M40.630175,27.12855 C38.144925,27.12855 36.129675,29.14355 36.129675,31.62905 C36.129675,34.1143 38.144925,36.1298 40.630175,36.1298 C43.115675,36.1298 45.130925,34.1143 45.130925,31.62905 C45.130925,29.14355 43.115675,27.12855 40.630175,27.12855" id="Fill-1" fill="#FCDE28"></path>
                <path d="M67.63385,27.12855 C65.14835,27.12855 63.1331,29.14355 63.1331,31.62905 C63.1331,34.1143 65.14835,36.1298 67.63385,36.1298 C70.11935,36.1298 72.13435,34.1143 72.13435,31.62905 C72.13435,29.14355 70.11935,27.12855 67.63385,27.12855" id="Fill-3" fill="#FCDE28"></path>
                <path d="M93.575975,51.881725 L92.042725,51.881725 L87.855725,26.759475 C87.653475,25.532975 86.486725,24.691225 85.266975,24.908975 C84.040725,25.113475 83.212225,26.273475 83.416475,27.497725 L87.879225,54.273725 C87.802225,62.892475 80.771225,69.884225 72.134225,69.884225 C64.969975,69.884225 58.917725,65.069725 57.014475,58.510475 L64.724225,50.800475 C65.368225,50.156725 65.561475,49.189725 65.211975,48.347975 C64.864725,47.506475 64.042975,46.959225 63.133225,46.959225 L45.130975,46.959225 C44.220975,46.959225 43.399225,47.506475 43.051975,48.347975 C42.702475,49.189725 42.895975,50.156725 43.539725,50.800475 L51.249475,58.510475 C49.346225,65.069725 43.294225,69.884225 36.129725,69.884225 C27.492725,69.884225 20.461725,62.892475 20.384725,54.273725 L24.847475,27.497725 C25.051725,26.273475 24.223475,25.113475 22.997225,24.908975 C21.768725,24.688975 20.610725,25.532975 20.408475,26.759475 L16.221475,51.881725 L14.688225,51.881725 C7.899975,51.881725 2.375225,46.356975 2.375225,39.568725 C2.375225,37.667975 2.825725,35.762475 3.676225,34.059475 L4.038975,33.334475 C13.584975,14.237725 32.780475,2.375475 54.132225,2.375475 C75.483475,2.375475 94.678975,14.237725 104.225225,33.332225 L104.587725,34.061725 C105.438225,35.762475 105.888725,37.667975 105.888725,39.568725 C105.888725,46.356975 100.363975,51.881725 93.575975,51.881725 M63.133225,78.885225 L45.130975,78.885225 C42.132475,78.885225 39.613975,76.907475 38.736475,74.197475 C45.457475,73.328225 51.147225,69.162225 54.132225,63.368475 C57.116725,69.162225 62.806475,73.328225 69.527725,74.197475 C68.649975,76.907475 66.131725,78.885225 63.133225,78.885225" id="Fill-5" fill="#FCDE28"></path>
                <polygon id="Fill-7" fill="#1B253C" points="45.1309 49.2096 63.13315 49.2096 54.13215 58.2106"></polygon>
                <polygon id="Stroke-9" stroke="#1B253C" stroke-width="5.25" stroke-linecap="round" stroke-linejoin="round" points="45.1309 49.2096 63.13315 49.2096 54.13215 58.2106"></polygon>
                <path d="M45.1309,31.62905 C45.1309,34.11455 43.11565,36.1298 40.63015,36.1298 C38.14465,36.1298 36.12965,34.11455 36.12965,31.62905 C36.12965,29.14355 38.14465,27.12855 40.63015,27.12855 C43.11565,27.12855 45.1309,29.14355 45.1309,31.62905" id="Fill-11" fill="#1B253C"></path>
                <path d="M72.134325,31.62905 C72.134325,34.11455 70.119325,36.1298 67.633825,36.1298 C65.148325,36.1298 63.133075,34.11455 63.133075,31.62905 C63.133075,29.14355 65.148325,27.12855 67.633825,27.12855 C70.119325,27.12855 72.134325,29.14355 72.134325,31.62905" id="Fill-13" fill="#1B253C"></path>
                <line x1="85.63605" y1="27.12855" x2="90.1368" y2="54.13205" id="Stroke-15" stroke="#1B253C" stroke-width="5.25" stroke-linecap="round" stroke-linejoin="round"></line>
                <line x1="18.12725" y1="54.131975" x2="22.628" y2="27.128475" id="Stroke-17" stroke="#231F20" stroke-width="5.25" stroke-linecap="round" stroke-linejoin="round"></line>
                <path d="M90.136775,54.131975 L93.574775,54.131975 C101.618525,54.131975 108.139025,47.611475 108.139025,39.567725 C108.139025,37.306725 107.612525,35.076725 106.601275,33.054475 L106.238525,32.328475 C96.370275,12.592225 76.198025,0.124975 54.132025,0.124975 L54.131775,0.124975 C32.066025,0.124975 11.893775,12.592225 2.025775,32.328475 L1.662775,33.054475 C0.651525,35.076725 0.125025,37.306725 0.125025,39.567725 C0.125025,47.611475 6.645525,54.131975 14.689275,54.131975 L18.127275,54.131975" id="Stroke-19" stroke="#1B253C" stroke-width="5.25" stroke-linecap="round" stroke-linejoin="round"></path>
                <path d="M18.12725,54.131975 C18.12725,64.082475 26.17925,72.134475 36.12975,72.134475 C46.08025,72.134475 54.13225,64.082475 54.13225,54.131975" id="Stroke-21" stroke="#1B253C" stroke-width="5.25" stroke-linecap="round" stroke-linejoin="round"></path>
                <path d="M90.136775,54.131975 C90.136775,64.082475 82.084775,72.134475 72.134275,72.134475 C62.183775,72.134475 54.132025,64.082475 54.132025,54.131975" id="Stroke-23" stroke="#1B253C" stroke-width="5.25" stroke-linecap="round" stroke-linejoin="round"></path>
                <path d="M72.134325,72.1344 L72.134325,72.1344 C72.134325,77.10565 68.104325,81.13565 63.133075,81.13565 L45.130825,81.13565 C40.159825,81.13565 36.129575,77.10565 36.129575,72.1344" id="Stroke-25" stroke="#1B253C" stroke-width="5.25" stroke-linecap="round" stroke-linejoin="round"></path>
                <path d="M36.1297,96.64565 C36.1297,107.1714 27.0962,115.5874 16.35895,114.5634 C6.9992,113.6709 0.12495,105.2744 0.12495,95.87165 L0.12495,68.8684 L18.12745,68.8684 C28.06995,68.8684 36.1297,76.92815 36.1297,86.87065 L36.1297,96.64565 Z" id="Fill-27" fill="#FCDE28"></path>
                <path d="M36.090625,86.09705 C36.101625,86.3553 36.129625,86.60955 36.129625,86.8708 L36.129625,86.09705 L36.090625,86.09705 Z" id="Fill-29" fill="#C2C2C2"></path>
                <path d="M36.1297,96.64565 C36.1297,107.1714 27.0962,115.5874 16.35895,114.5634 C6.9992,113.6709 0.12495,105.2744 0.12495,95.87165 L0.12495,68.8684 L18.12745,68.8684 C28.06995,68.8684 36.1297,76.92815 36.1297,86.87065 L36.1297,96.64565 Z" id="Stroke-33" stroke="#1B253C" stroke-width="5.25" stroke-linecap="round" stroke-linejoin="round"></path>
                <path d="M72.134325,96.64565 C72.134325,107.1714 81.168075,115.5874 91.905075,114.5634 C101.264825,113.6709 108.139075,105.2744 108.139075,95.87165 L108.139075,68.8684 L90.136825,68.8684 C80.194325,68.8684 72.134325,76.92815 72.134325,86.87065 L72.134325,96.64565 Z" id="Fill-35" fill="#FCDE28"></path>
                <path d="M72.1734,86.09705 C72.1624,86.3553 72.1344,86.60955 72.1344,86.8708 L72.1344,86.09705 L72.1734,86.09705 Z" id="Fill-37" fill="#C2C2C2"></path>
                <path d="M72.134325,96.64565 C72.134325,107.1714 81.168075,115.5874 91.905075,114.5634 C101.264825,113.6709 108.139075,105.2744 108.139075,95.87165 L108.139075,68.8684 L90.136825,68.8684 C80.194325,68.8684 72.134325,76.92815 72.134325,86.87065 L72.134325,96.64565 Z" id="Stroke-41" stroke="#1B253C" stroke-width="5.25" stroke-linecap="round" stroke-linejoin="round"></path>
            </g>
        </g>
    </g>
</svg>